<svg width="72" height="40" viewBox="0 0 72 40" fill="none" xmlns="http://www.w3.org/2000/svg">
<path d="M0 20C0 8.95431 8.95431 0 20 0H52C63.0457 0 72 8.95431 72 20C72 31.0457 63.0457 40 52 40H20C8.95431 40 0 31.0457 0 20Z" fill="#707171"/>
<path d="M35.2504 30V27.7139C30.9665 27.3337 27.6 23.7311 27.6 19.3496V17.6504C27.6 17.2362 27.9358 16.9004 28.35 16.9004C28.7642 16.9004 29.1 17.2362 29.1 17.6504V19.3496C29.1 23.1554 32.1946 26.25 36.0004 26.25C39.806 26.2498 42.8998 23.1553 42.8998 19.3496V17.6504C42.8998 17.2362 43.2357 16.9005 43.6498 16.9004C44.064 16.9004 44.3998 17.2362 44.3998 17.6504V19.3496C44.3998 23.7309 41.0338 27.3334 36.7504 27.7139V30C36.7504 30.4141 36.4144 30.7498 36.0004 30.75C35.5862 30.75 35.2504 30.4142 35.2504 30ZM39.2504 14C39.2504 12.2043 37.796 10.7502 36.0004 10.75C34.2046 10.75 32.7504 12.2042 32.7504 14V19.5C32.7504 21.2958 34.2046 22.75 36.0004 22.75C37.796 22.7498 39.2504 21.2957 39.2504 19.5V14ZM35.0082 15.8252C35.6637 15.652 36.3458 15.6521 37.0013 15.8252C37.4017 15.9309 37.641 16.3409 37.5355 16.7412C37.4297 17.1417 37.019 17.3811 36.6185 17.2754C36.2142 17.1686 35.7963 17.1686 35.392 17.2754C34.9915 17.3812 34.5808 17.1417 34.475 16.7412C34.3695 16.341 34.608 15.9311 35.0082 15.8252ZM34.3519 13.7256C35.4184 13.3346 36.5813 13.3346 37.6478 13.7256C38.0367 13.8682 38.2367 14.2996 38.0941 14.6885C37.9515 15.0772 37.521 15.2762 37.1322 15.1338C36.3991 14.865 35.6017 14.8651 34.8685 15.1338C34.4797 15.2764 34.0483 15.0773 33.9056 14.6885C33.763 14.2996 33.963 13.8682 34.3519 13.7256ZM40.7504 19.5C40.7504 22.1241 38.6244 24.2498 36.0004 24.25C33.3762 24.25 31.2504 22.1242 31.2504 19.5V14C31.2504 11.3758 33.3762 9.25 36.0004 9.25C38.6244 9.2502 40.7504 11.3759 40.7504 14V19.5Z" fill="#F5F5F8"/>
</svg>
