<svg width="18" height="18" viewBox="0 0 18 18" fill="none" xmlns="http://www.w3.org/2000/svg">
<mask id="path-1-inside-1_7_3895" fill="white">
<path d="M0 3C0 1.34315 1.34315 0 3 0H15C16.6569 0 18 1.34315 18 3V15C18 16.6569 16.6569 18 15 18H3C1.34315 18 0 16.6569 0 15V3Z"/>
</mask>
<path d="M0 3C0 1.34315 1.34315 0 3 0H15C16.6569 0 18 1.34315 18 3V15C18 16.6569 16.6569 18 15 18H3C1.34315 18 0 16.6569 0 15V3Z" fill="#F4F5F6"/>
<path d="M3 0V1.5H15V0V-1.5H3V0ZM18 3H16.5V15H18H19.5V3H18ZM15 18V16.5H3V18V19.5H15V18ZM0 15H1.5V3H0H-1.5V15H0ZM3 18V16.5C2.17157 16.5 1.5 15.8284 1.5 15H0H-1.5C-1.5 17.4853 0.514719 19.5 3 19.5V18ZM18 15H16.5C16.5 15.8284 15.8284 16.5 15 16.5V18V19.5C17.4853 19.5 19.5 17.4853 19.5 15H18ZM15 0V1.5C15.8284 1.5 16.5 2.17157 16.5 3H18H19.5C19.5 0.514719 17.4853 -1.5 15 -1.5V0ZM3 0V-1.5C0.514719 -1.5 -1.5 0.514719 -1.5 3H0H1.5C1.5 2.17157 2.17157 1.5 3 1.5V0Z" fill="#E9EBEC" mask="url(#path-1-inside-1_7_3895)"/>
</svg>
