<svg width="40" height="40" viewBox="0 0 40 40" fill="none" xmlns="http://www.w3.org/2000/svg">
<mask id="path-1-inside-1_4_3261" fill="white">
<path d="M0 20C0 8.9543 8.9543 0 20 0C31.0457 0 40 8.9543 40 20C40 31.0457 31.0457 40 20 40C8.9543 40 0 31.0457 0 20Z"/>
</mask>
<path d="M0 20C0 8.9543 8.9543 0 20 0C31.0457 0 40 8.9543 40 20C40 31.0457 31.0457 40 20 40C8.9543 40 0 31.0457 0 20Z" fill="#F4F5F6"/>
<path d="M20 40V39C9.50659 39 1 30.4934 1 20H0H-1C-1 31.598 8.40202 41 20 41V40ZM40 20H39C39 30.4934 30.4934 39 20 39V40V41C31.598 41 41 31.598 41 20H40ZM20 0V1C30.4934 1 39 9.50659 39 20H40H41C41 8.40202 31.598 -1 20 -1V0ZM20 0V-1C8.40202 -1 -1 8.40202 -1 20H0H1C1 9.50659 9.50659 1 20 1V0Z" fill="#E9EBEC" mask="url(#path-1-inside-1_4_3261)"/>
<path d="M15.7574 24.2426C15.7043 24.1896 15.5983 24.0835 15.5983 23.9775C15.5452 23.9244 15.5452 23.8184 15.5452 23.7123L15.5452 16.2877C15.5452 15.8634 15.8634 15.5452 16.2877 15.5452C16.7119 15.5452 17.0301 15.8634 17.0301 16.2877V21.9092L23.182 15.7574C23.5002 15.4392 23.9244 15.4392 24.2426 15.7574C24.5608 16.0755 24.5608 16.4998 24.2426 16.818L18.0908 22.9698L23.7123 22.9698C24.1366 22.9698 24.4548 23.288 24.4548 23.7123C24.4548 24.1366 24.1366 24.4548 23.7123 24.4548H16.2877C16.1816 24.4548 16.0756 24.4548 16.0225 24.4017C15.9165 24.4017 15.8104 24.2957 15.7574 24.2426Z" fill="#4C5357"/>
</svg>
