<svg width="24" height="24" viewBox="0 0 24 24" fill="none" xmlns="http://www.w3.org/2000/svg">
<mask id="path-1-inside-1_4_3263" fill="white">
<path d="M0 12C0 5.37258 5.37258 0 12 0C18.6274 0 24 5.37258 24 12C24 18.6274 18.6274 24 12 24C5.37258 24 0 18.6274 0 12Z"/>
</mask>
<path d="M0 12C0 5.37258 5.37258 0 12 0C18.6274 0 24 5.37258 24 12C24 18.6274 18.6274 24 12 24C5.37258 24 0 18.6274 0 12Z" fill="#F4F5F6"/>
<path d="M12 24V23.4C5.70395 23.4 0.6 18.296 0.6 12H0H-0.6C-0.6 18.9588 5.04121 24.6 12 24.6V24ZM24 12H23.4C23.4 18.296 18.296 23.4 12 23.4V24V24.6C18.9588 24.6 24.6 18.9588 24.6 12H24ZM12 0V0.6C18.296 0.6 23.4 5.70395 23.4 12H24H24.6C24.6 5.04121 18.9588 -0.6 12 -0.6V0ZM12 0V-0.6C5.04121 -0.6 -0.6 5.04121 -0.6 12H0H0.6C0.6 5.70395 5.70395 0.6 12 0.6V0Z" fill="#E9EBEC" mask="url(#path-1-inside-1_4_3263)"/>
<path d="M8.22876 15.7713C8.18162 15.7241 8.08734 15.6299 8.08734 15.5356C8.0402 15.4884 8.0402 15.3942 8.0402 15.2999L8.0402 8.70022C8.0402 8.3231 8.32304 8.04026 8.70017 8.04025C9.07729 8.04026 9.36013 8.3231 9.36013 8.70022L9.36013 13.6971L14.8284 8.22882C15.1113 7.94597 15.4884 7.94597 15.7712 8.22882C16.0541 8.51166 16.0541 8.88878 15.7712 9.17163L10.3029 14.6399L15.2998 14.6399C15.677 14.6399 15.9598 14.9228 15.9598 15.2999C15.9598 15.677 15.677 15.9599 15.2998 15.9599H8.70017C8.60589 15.9599 8.51161 15.9599 8.46447 15.9127C8.37019 15.9127 8.2759 15.8184 8.22876 15.7713Z" fill="#4C5357"/>
</svg>
