<svg width="24" height="24" viewBox="0 0 24 24" fill="none" xmlns="http://www.w3.org/2000/svg">
<path d="M15.7701 5.37C15.9998 5.50037 16.2716 5.53464 16.5264 5.46532C16.7812 5.396 16.9982 5.22873 17.1301 5C17.2393 4.80736 17.4093 4.65639 17.6135 4.57078C17.8177 4.48517 18.0446 4.46975 18.2585 4.52694C18.4724 4.58414 18.6613 4.71071 18.7955 4.88681C18.9297 5.06291 19.0017 5.27858 19.0001 5.5C19.0001 5.76522 18.8948 6.01957 18.7072 6.20711C18.5197 6.39464 18.2654 6.5 18.0001 6.5C17.7349 6.5 17.4806 6.60536 17.293 6.79289C17.1055 6.98043 17.0001 7.23478 17.0001 7.5C17.0001 7.76522 17.1055 8.01957 17.293 8.20711C17.4806 8.39464 17.7349 8.5 18.0001 8.5C18.5267 8.49966 19.0438 8.36075 19.4997 8.09723C19.9555 7.83371 20.334 7.45486 20.597 6.99875C20.8601 6.54264 20.9984 6.02533 20.9982 5.4988C20.998 4.97227 20.8592 4.45507 20.5958 3.99917C20.3324 3.54326 19.9536 3.16472 19.4976 2.90156C19.0415 2.63841 18.5243 2.49992 17.9977 2.5C17.4712 2.50008 16.954 2.63874 16.498 2.90204C16.042 3.16534 15.6634 3.54401 15.4001 4C15.334 4.11413 15.2911 4.24022 15.274 4.371C15.2568 4.50178 15.2656 4.63466 15.3 4.762C15.3344 4.88934 15.3937 5.00862 15.4743 5.11297C15.555 5.21732 15.6556 5.30467 15.7701 5.37ZM20.0701 12.5C19.8076 12.4659 19.5423 12.5373 19.3324 12.6985C19.1225 12.8597 18.985 13.0976 18.9501 13.36C18.7403 15.0552 17.9179 16.6151 16.6378 17.746C15.3577 18.8769 13.7082 19.5007 12.0001 19.5H6.41014L7.06014 18.85C7.24639 18.6626 7.35093 18.4092 7.35093 18.145C7.35093 17.8808 7.24639 17.6274 7.06014 17.44C6.08509 16.4611 5.42153 15.2156 5.15303 13.8603C4.88454 12.505 5.02313 11.1005 5.55134 9.82383C6.07955 8.54714 6.97376 7.45532 8.12133 6.68589C9.2689 5.91646 10.6185 5.50384 12.0001 5.5C12.2654 5.5 12.5197 5.39464 12.7072 5.20711C12.8948 5.01957 13.0001 4.76522 13.0001 4.5C13.0001 4.23478 12.8948 3.98043 12.7072 3.79289C12.5197 3.60536 12.2654 3.5 12.0001 3.5C10.3094 3.50705 8.65478 3.99024 7.22594 4.89419C5.79709 5.79815 4.65177 7.08632 3.9212 8.61112C3.19064 10.1359 2.90436 11.8357 3.09519 13.5157C3.28601 15.1956 3.9462 16.7879 5.00014 18.11L3.29014 19.79C3.15138 19.9306 3.05739 20.1092 3.02001 20.3032C2.98264 20.4972 3.00356 20.6979 3.08014 20.88C3.15516 21.0626 3.28256 21.2189 3.44628 21.3293C3.61 21.4396 3.80271 21.499 4.00014 21.5H12.0001C14.1916 21.5003 16.3079 20.701 17.952 19.2521C19.596 17.8031 20.655 15.8041 20.9301 13.63C20.9484 13.4993 20.9406 13.3662 20.9072 13.2385C20.8738 13.1107 20.8155 12.9909 20.7355 12.8858C20.6556 12.7808 20.5556 12.6926 20.4414 12.6264C20.3272 12.5602 20.201 12.5172 20.0701 12.5ZM18.3801 9.57C18.1981 9.48945 17.9961 9.46508 17.8001 9.5L17.6201 9.56L17.4401 9.65L17.2901 9.78C17.2002 9.87215 17.1289 9.98081 17.0801 10.1C17.021 10.2247 16.9935 10.3621 17.0001 10.5C16.9972 10.6334 17.021 10.766 17.0701 10.89C17.1219 11.01 17.1966 11.1187 17.2901 11.21C17.3836 11.3027 17.4944 11.376 17.6162 11.4258C17.7381 11.4755 17.8685 11.5008 18.0001 11.5C18.2654 11.5 18.5197 11.3946 18.7072 11.2071C18.8948 11.0196 19.0001 10.7652 19.0001 10.5C19.0035 10.3688 18.9761 10.2387 18.9201 10.12C18.8127 9.87971 18.6204 9.68745 18.3801 9.58V9.57Z" fill="#090A0B"/>
</svg>
