<svg width="24" height="24" viewBox="0 0 24 24" fill="none" xmlns="http://www.w3.org/2000/svg">
<path d="M7.56753 3.15919C9.1436 2.98466 10.7278 3.414 12.0001 4.36036C13.2129 3.47584 14.7019 3.05355 16.1984 3.17091C17.6949 3.28828 19.1003 3.93722 20.1603 5.00001C21.3278 6.17471 21.9825 7.76374 21.9826 9.41993C21.9826 11.0761 21.3278 12.6651 20.1603 13.8399L13.9503 20.0596C13.4303 20.5713 12.7297 20.8584 12.0001 20.8584C11.2705 20.8584 10.57 20.5714 10.05 20.0596L3.83999 13.8399C2.71489 12.7225 2.05529 11.2202 1.99331 9.63575C1.93141 8.05141 2.47167 6.50251 3.50601 5.30079C4.54037 4.09911 5.99165 3.33382 7.56753 3.15919Z" fill="#FF3B13"/>
</svg>
