<svg width="18" height="18" viewBox="0 0 18 18" fill="none" xmlns="http://www.w3.org/2000/svg">
<rect width="18" height="18" rx="9" fill="#F4F5F6"/>
<path d="M12.5 13.0833C12.325 13.0833 12.2083 13.025 12.0917 12.9083L9 9.81666L5.90833 12.9083C5.675 13.1417 5.325 13.1417 5.09166 12.9083C4.85833 12.675 4.85833 12.325 5.09166 12.0917L8.18333 9L5.09166 5.90833C4.85833 5.675 4.85833 5.325 5.09166 5.09166C5.325 4.85833 5.675 4.85833 5.90833 5.09166L9 8.18333L12.0917 5.09166C12.325 4.85833 12.675 4.85833 12.9083 5.09166C13.1417 5.325 13.1417 5.675 12.9083 5.90833L9.81666 9L12.9083 12.0917C13.1417 12.325 13.1417 12.675 12.9083 12.9083C12.7917 13.025 12.675 13.0833 12.5 13.0833Z" fill="#929BA0"/>
</svg>
