<svg width="24" height="24" viewBox="0 0 24 24" fill="none" xmlns="http://www.w3.org/2000/svg">
<g clip-path="url(#clip0_2_1513)">
<path d="M17 23H7C3.7 23 1 20.3 1 17V7C1 3.7 3.7 1 7 1H17C20.3 1 23 3.7 23 7V17C23 20.3 20.3 23 17 23ZM7 3C4.8 3 3 4.8 3 7V17C3 19.2 4.8 21 7 21H17C19.2 21 21 19.2 21 17V7C21 4.8 19.2 3 17 3H7ZM12 17C10.9 17 9.9 16.7 9 16C7.9 15.2 7.2 14 7 12.7C6.7 10 8.6 7.4 11.3 7C11.8 6.9 12.3 6.9 12.8 7C15 7.3 16.7 9 17 11.2C17.2 12.5 16.9 13.8 16.1 14.9C15.3 16 14.1 16.7 12.8 16.9C12.5 16.9 12.3 17 12 17ZM12 9H11.6C10 9.2 8.8 10.8 9.1 12.4C9.3 14 10.9 15.2 12.5 14.9C13.3 14.8 14 14.4 14.5 13.7C15 13 15.2 12.3 15.1 11.5C14.9 10.2 13.9 9.2 12.6 9H12ZM17.5 7.5C16.9 7.5 16.5 7.1 16.5 6.5C16.5 5.9 16.9 5.5 17.5 5.5C18.1 5.5 18.5 5.9 18.5 6.5C18.5 7.1 18.1 7.5 17.5 7.5Z" fill="#090A0B"/>
</g>
<defs>
<clipPath id="clip0_2_1513">
<rect width="24" height="24" fill="white"/>
</clipPath>
</defs>
</svg>
