<svg width="24" height="24" viewBox="0 0 24 24" fill="none" xmlns="http://www.w3.org/2000/svg">
<path d="M12 15.8189V13.6679C9.90035 13.6679 8.20008 11.9676 8.20008 9.86795V9.83759H6C6 13.1424 8.6812 15.8236 11.986 15.8212H12V15.8189Z" fill="#090A0B"/>
<path d="M14.4219 6.5281L16.5239 5.4631V2.38019H8.20007V4.47283H14.2374L10.197 6.42534V8.17933H12C14.0996 8.17933 15.7999 9.8796 15.7999 11.9793V12.0376C15.7999 14.1373 14.0996 15.8376 12 15.8376V17.9886H12.021C15.3235 17.9863 18 15.3074 18 12.0049C18 9.55963 16.5286 7.45531 14.4219 6.5281Z" fill="#090A0B"/>
<path d="M16.5239 19.5229H8.20007V21.6156H16.5239V19.5229Z" fill="#F7931A"/>
</svg>
