<svg width="24" height="24" viewBox="0 0 24 24" fill="none" xmlns="http://www.w3.org/2000/svg">
<path d="M4.7599 10.59C5.02511 10.6245 5.29316 10.5522 5.50508 10.389C5.71699 10.2259 5.85542 9.98522 5.88989 9.72001C5.92437 9.45479 5.85208 9.18674 5.68893 8.97482C5.52577 8.76291 5.28511 8.62448 5.01989 8.59001L3.25989 8.15001C3.13158 8.11067 2.99666 8.09757 2.86318 8.11147C2.72969 8.12538 2.60037 8.16601 2.48292 8.23095C2.36547 8.29589 2.2623 8.38381 2.17954 8.48946C2.09679 8.59512 2.03614 8.71635 2.00123 8.84594C1.96632 8.97552 1.95784 9.11081 1.97632 9.24374C1.99479 9.37667 2.03983 9.50452 2.10876 9.61968C2.17769 9.73483 2.26909 9.83493 2.37752 9.91402C2.48595 9.9931 2.60919 10.0496 2.73989 10.08L4.49989 10.55C4.58367 10.578 4.67159 10.5915 4.7599 10.59ZM8.61989 5.00001C8.6785 5.21817 8.80923 5.41006 8.99082 5.54443C9.1724 5.67881 9.39413 5.74774 9.61989 5.74001C9.70601 5.75383 9.79378 5.75383 9.8799 5.74001C10.1337 5.66979 10.3496 5.50229 10.4806 5.27387C10.6117 5.04546 10.6474 4.77456 10.5799 4.52001L10.1099 2.76001C10.0794 2.6293 10.023 2.50606 9.94391 2.39763C9.86482 2.2892 9.76472 2.1978 9.64956 2.12887C9.53441 2.05994 9.40656 2.0149 9.27363 1.99643C9.1407 1.97795 9.00541 1.98643 8.87582 2.02134C8.74624 2.05626 8.62501 2.1169 8.51935 2.19965C8.4137 2.28241 8.32578 2.38558 8.26084 2.50303C8.1959 2.62048 8.15527 2.7498 8.14136 2.88329C8.12745 3.01677 8.14056 3.15169 8.1799 3.28001L8.61989 5.00001ZM13.4499 15C13.3565 14.9017 13.244 14.8234 13.1194 14.7699C12.9948 14.7163 12.8605 14.6888 12.7249 14.6888C12.5893 14.6888 12.455 14.7163 12.3304 14.7699C12.2058 14.8234 12.0933 14.9017 11.9999 15L8.4999 18.56C8.08838 18.9548 7.54017 19.1753 6.96989 19.1753C6.39961 19.1753 5.85141 18.9548 5.43989 18.56C5.23732 18.36 5.07648 18.1218 4.9667 17.8591C4.85692 17.5965 4.80039 17.3147 4.80039 17.03C4.80039 16.7453 4.85692 16.4635 4.9667 16.2009C5.07648 15.9382 5.23732 15.7 5.43989 15.5L8.9999 12C9.10458 11.9104 9.1896 11.8 9.24962 11.676C9.30964 11.5519 9.34337 11.4168 9.34869 11.2791C9.35401 11.1413 9.33081 11.004 9.28053 10.8757C9.23026 10.7474 9.154 10.6308 9.05655 10.5334C8.95909 10.4359 8.84254 10.3596 8.71422 10.3094C8.58589 10.2591 8.44856 10.2359 8.31084 10.2412C8.17312 10.2465 8.03799 10.2803 7.91393 10.3403C7.78986 10.4003 7.67954 10.4853 7.5899 10.59L3.99989 14.08C3.61118 14.4687 3.30284 14.9302 3.09247 15.4381C2.8821 15.9459 2.77382 16.4903 2.77382 17.04C2.77382 17.5897 2.8821 18.1341 3.09247 18.6419C3.30284 19.1498 3.61118 19.6113 3.99989 20C4.38861 20.3887 4.85008 20.6971 5.35795 20.9074C5.86583 21.1178 6.41017 21.2261 6.9599 21.2261C7.50962 21.2261 8.05396 21.1178 8.56184 20.9074C9.06971 20.6971 9.53118 20.3887 9.9199 20L13.4499 16.47C13.5514 16.3764 13.6324 16.2627 13.6878 16.1362C13.7432 16.0097 13.7718 15.8731 13.7718 15.735C13.7718 15.5969 13.7432 15.4603 13.6878 15.3338C13.6324 15.2073 13.5514 15.0936 13.4499 15ZM5.17989 6.59001C5.36616 6.77475 5.61756 6.8789 5.87989 6.88001C6.0115 6.88077 6.14196 6.85554 6.2638 6.80578C6.38564 6.75601 6.49646 6.68269 6.5899 6.59001C6.77615 6.40264 6.88069 6.14919 6.88069 5.88501C6.88069 5.62082 6.77615 5.36737 6.5899 5.18001L5.2999 3.89001C5.10859 3.72618 4.86252 3.64057 4.61084 3.65029C4.35917 3.66002 4.12043 3.76435 3.94233 3.94244C3.76424 4.12054 3.6599 4.35928 3.65018 4.61095C3.64046 4.86263 3.72607 5.1087 3.88989 5.30001L5.17989 6.59001ZM21.2599 13.92L19.4999 13.45C19.3695 13.4049 19.2311 13.3873 19.0936 13.3983C18.956 13.4093 18.8222 13.4487 18.7006 13.5139C18.579 13.5791 18.4722 13.6688 18.3869 13.7773C18.3017 13.8858 18.2398 14.0108 18.2052 14.1444C18.1706 14.2779 18.164 14.4172 18.1858 14.5535C18.2077 14.6898 18.2575 14.82 18.3321 14.9361C18.4068 15.0521 18.5047 15.1515 18.6196 15.2279C18.7345 15.3043 18.864 15.3561 18.9999 15.38L20.7599 15.85H21.0199C21.2851 15.8845 21.5532 15.8122 21.7651 15.649C21.977 15.4859 22.1154 15.2452 22.1499 14.98C22.1844 14.7148 22.1121 14.4467 21.9489 14.2348C21.7858 14.0229 21.5451 13.8845 21.2799 13.85L21.2599 13.92ZM15.3799 19C15.3452 18.8732 15.2858 18.7545 15.2052 18.6507C15.1246 18.5469 15.0243 18.46 14.91 18.395C14.7958 18.33 14.6698 18.2881 14.5394 18.2718C14.409 18.2555 14.2766 18.2651 14.1499 18.3C13.8961 18.3702 13.6802 18.5377 13.5492 18.7661C13.4181 18.9946 13.3824 19.2654 13.4499 19.52L13.9199 21.28C13.9785 21.4982 14.1092 21.6901 14.2908 21.8244C14.4724 21.9588 14.6941 22.0277 14.9199 22.02C15.0063 22.0298 15.0935 22.0298 15.1799 22.02C15.3076 21.9864 15.4273 21.9278 15.5322 21.8476C15.6372 21.7674 15.7252 21.6673 15.7912 21.5529C15.8572 21.4386 15.8999 21.3123 15.9168 21.1813C15.9338 21.0504 15.9246 20.9174 15.8899 20.79L15.3799 19ZM18.8199 17.43C18.6286 17.2662 18.3825 17.1806 18.1308 17.1903C17.8792 17.2 17.6404 17.3043 17.4623 17.4824C17.2842 17.6605 17.1799 17.8993 17.1702 18.151C17.1605 18.4026 17.2461 18.6487 17.4099 18.84L18.6999 20.13C18.8873 20.3163 19.1407 20.4208 19.4049 20.4208C19.6691 20.4208 19.9225 20.3163 20.1099 20.13C20.2961 19.9426 20.4007 19.6892 20.4007 19.425C20.4007 19.1608 20.2961 18.9074 20.1099 18.72L18.8199 17.43ZM21.1999 7.00001C21.2154 6.16844 20.9814 5.35131 20.5279 4.65411C20.0744 3.9569 19.4224 3.41163 18.6559 3.08869C17.8895 2.76574 17.0438 2.67996 16.2281 2.8424C15.4124 3.00485 14.6641 3.40807 14.0799 4.00001L10.5499 7.56001C10.4553 7.65521 10.3805 7.76811 10.3296 7.89226C10.2786 8.0164 10.2527 8.14936 10.2531 8.28354C10.2536 8.41772 10.2805 8.5505 10.3323 8.67429C10.384 8.79808 10.4597 8.91045 10.5549 9.00501C10.6501 9.09956 10.763 9.17443 10.8871 9.22535C11.0113 9.27627 11.1442 9.30224 11.2784 9.30178C11.4126 9.30131 11.5454 9.27442 11.6692 9.22265C11.793 9.17087 11.9053 9.09521 11.9999 9.00001L15.4999 5.44001C15.9114 5.0452 16.4596 4.82475 17.0299 4.82475C17.6002 4.82475 18.1484 5.0452 18.5599 5.44001C18.7625 5.64 18.9233 5.87823 19.0331 6.14087C19.1429 6.40351 19.1994 6.68534 19.1994 6.97001C19.1994 7.25467 19.1429 7.5365 19.0331 7.79914C18.9233 8.06179 18.7625 8.30001 18.5599 8.50001L14.9999 12C14.8136 12.1874 14.7091 12.4408 14.7091 12.705C14.7091 12.9692 14.8136 13.2226 14.9999 13.41C15.1873 13.5963 15.4407 13.7008 15.7049 13.7008C15.9691 13.7008 16.2225 13.5963 16.4099 13.41L19.9999 9.92001C20.7653 9.14035 21.1959 8.09257 21.1999 7.00001Z" fill="#090A0B"/>
</svg>
