<svg width="24" height="24" viewBox="0 0 24 24" fill="none" xmlns="http://www.w3.org/2000/svg">
<g clip-path="url(#clip0_72_231)">
<path d="M24 6.10352e-05H0.000244141V23.9998H24V6.10352e-05Z" fill="#4173CD"/>
<path d="M24 9.93099H10.7587V6.10352e-05H6.62085V9.93099H0.000244141V14.0689H6.62085V23.9998H10.7587V14.0689H24V9.93099Z" fill="#FFE15A"/>
<path d="M24 11.1724H9.51737V6.10352e-05H7.86223V11.1724H0.000244141V12.8275H7.86223V23.9998H9.51737V12.8275H24V11.1724Z" fill="#FF4B55"/>
</g>
<defs>
<clipPath id="clip0_72_231">
<path d="M-0.000488281 2C-0.000488281 0.895432 0.894942 0 1.99951 0H21.9993C23.1038 0 23.9993 0.895431 23.9993 2V21.9998C23.9993 23.1043 23.1038 23.9998 21.9993 23.9998H1.99951C0.894944 23.9998 -0.000488281 23.1043 -0.000488281 21.9998V2Z" fill="white"/>
</clipPath>
</defs>
</svg>
