<svg width="24" height="24" viewBox="0 0 24 24" fill="none" xmlns="http://www.w3.org/2000/svg">
<g clip-path="url(#clip0_72_262)">
<path d="M7.99837 6.10352e-05H-0.00170898V23.9998H7.99837V6.10352e-05Z" fill="#41479B"/>
<path d="M15.9984 6.10352e-05H7.99829V23.9998H15.9984V6.10352e-05Z" fill="#FFE15A"/>
<path d="M23.9981 6.10352e-05H15.998V23.9998H23.9981V6.10352e-05Z" fill="#FF4B55"/>
<path d="M14.8118 13.3426C14.8118 13.2225 14.7144 13.1252 14.5944 13.1252C14.5683 13.1252 14.5436 13.1305 14.5204 13.1389C14.4128 13.0431 14.2178 12.8056 14.4135 12.4703C14.4399 12.4909 14.4728 12.5036 14.5089 12.5036C14.5952 12.5036 14.6651 12.4336 14.6651 12.3473C14.6651 12.2792 14.6212 12.2218 14.5603 12.2005C14.7211 12.1184 14.9506 11.9443 14.9387 11.6187C14.9219 11.1569 14.5436 10.902 14.3115 11.004C14.3123 10.9975 14.3134 10.9911 14.3134 10.9845C14.3134 10.8994 14.2445 10.8304 14.1594 10.8304C14.1071 10.8304 14.0611 10.8566 14.0332 10.8965C14.0238 10.8503 14.0249 10.7646 14.1322 10.6718C14.3316 10.4997 14.5581 10.0874 14.1458 9.7974C13.9175 9.63681 13.481 9.55994 13.3348 9.77926C13.2714 9.87442 13.3223 10.0111 13.3946 10.0418C13.278 10.1069 13.0566 10.2045 12.8817 10.1281C12.6326 10.0194 12.7765 9.8035 12.8319 9.70679C12.9293 9.53687 12.8682 9.25825 12.542 9.25825C12.3245 9.25825 12.2158 9.4757 11.9983 9.4757C11.7808 9.4757 11.6721 9.25825 11.4546 9.25825C11.1284 9.25825 11.0672 9.53687 11.1646 9.70679C11.22 9.8035 11.3639 10.0194 11.1148 10.1281C10.9399 10.2045 10.7186 10.1069 10.6019 10.0418C10.6742 10.0111 10.7251 9.87442 10.6617 9.77926C10.5155 9.55994 10.079 9.63681 9.8507 9.7974C9.43839 10.0874 9.66493 10.4997 9.86429 10.6718C9.97163 10.7645 9.97276 10.8503 9.96329 10.8965C9.93545 10.8566 9.88942 10.8304 9.8371 10.8304C9.75203 10.8304 9.68307 10.8994 9.68307 10.9845C9.68307 10.9912 9.6842 10.9975 9.68504 11.004C9.45292 10.902 9.07464 11.157 9.05781 11.6187C9.04596 11.9443 9.27536 12.1184 9.43619 12.2005C9.3753 12.2218 9.33137 12.2792 9.33137 12.3473C9.33137 12.4336 9.40131 12.5036 9.48761 12.5036C9.5237 12.5036 9.55651 12.4908 9.583 12.4703C9.77875 12.8057 9.5837 13.0432 9.47608 13.1389C9.45292 13.1305 9.42826 13.1252 9.40216 13.1252C9.28206 13.1252 9.1847 13.2225 9.1847 13.3426C9.1847 13.4554 9.27086 13.547 9.38073 13.5579C9.23083 13.7118 9.09635 14.0513 9.38861 14.4368C9.70801 14.8581 10.4692 14.8241 10.8361 14.8377C11.0688 14.8464 11.2439 14.9669 11.341 15.054C11.2789 15.0923 11.2371 15.1604 11.2371 15.2387C11.2371 15.3485 11.3188 15.4384 11.4246 15.4531C11.463 15.5146 11.5308 15.5558 11.6086 15.5558C11.6956 15.5558 11.7701 15.5044 11.8049 15.4306C11.9197 15.5253 11.9983 15.5649 11.9983 15.5649C11.9983 15.5649 12.0768 15.5253 12.1916 15.4306C12.2264 15.5044 12.3009 15.5558 12.3879 15.5558C12.4657 15.5558 12.5335 15.5146 12.5719 15.4531C12.6777 15.4384 12.7594 15.3485 12.7594 15.2387C12.7594 15.1604 12.7176 15.0923 12.6555 15.054C12.7527 14.9669 12.9277 14.8464 13.1604 14.8377C13.5273 14.8241 14.2885 14.8581 14.6079 14.4368C14.9001 14.0513 14.7657 13.7118 14.6158 13.5579C14.7257 13.547 14.8118 13.4554 14.8118 13.3426Z" fill="#DCBE82"/>
<path d="M10.041 10.5495V13.7028C10.041 14.0631 10.3331 14.3552 10.6934 14.3552H11.5633C11.8895 14.3552 11.9983 14.5727 11.9983 14.5727C11.9983 14.5727 12.107 14.3552 12.4332 14.3552H13.3031C13.6634 14.3552 13.9555 14.0631 13.9555 13.7028V10.5495C13.9555 10.4894 13.9068 10.4407 13.8468 10.4407H10.1497C10.0897 10.4407 10.041 10.4894 10.041 10.5495Z" fill="#D2AA73"/>
<path d="M11.8908 10.6583H10.2598V12.2894H11.8908V10.6583Z" fill="#FF4B55"/>
<path d="M11.8911 14.1377H11.7382C10.9218 14.1377 10.26 13.4759 10.26 12.6595V12.5066H11.8911V14.1377Z" fill="#FF4B55"/>
<path d="M12.2589 14.1377H12.106V12.5066H13.737V12.6595C13.737 13.4759 13.0752 14.1377 12.2589 14.1377Z" fill="#FFE15A"/>
<path d="M12.339 10.6583H12.106V12.2894H12.339V10.6583Z" fill="#FFE15A"/>
<path d="M12.5729 10.6584H12.3398V12.2894H12.5729V10.6584Z" fill="#FF4B55"/>
<path d="M12.8058 10.6584H12.5728V12.2894H12.8058V10.6584Z" fill="#FFE15A"/>
<path d="M13.0389 10.6584H12.8059V12.2894H13.0389V10.6584Z" fill="#FF4B55"/>
<path d="M13.2731 10.6583H13.04V12.2894H13.2731V10.6583Z" fill="#FFE15A"/>
<path d="M13.7389 10.6583H13.5059V12.2894H13.7389V10.6583Z" fill="#FFE15A"/>
<path d="M13.5035 10.6583H13.2705V12.2894H13.5035V10.6583Z" fill="#FF4B55"/>
<path d="M10.982 12.5066H10.8008V14.1376H10.982V12.5066Z" fill="#FF4B55"/>
<path d="M11.1651 12.5067H10.9839V14.1378H11.1651V12.5067Z" fill="#FFE15A"/>
<path d="M11.5274 12.5067H11.3462V14.1378H11.5274V12.5067Z" fill="#FFE15A"/>
<path d="M11.346 12.5067H11.1648V14.1377H11.346V12.5067Z" fill="#FF4B55"/>
<path d="M11.8892 12.5067H11.708V14.1377H11.8892V12.5067Z" fill="#FFE15A"/>
<path d="M11.7083 12.5067H11.5271V14.1377H11.7083V12.5067Z" fill="#FF4B55"/>
<path d="M10.4395 14.0548V12.5067H10.2583V13.7028C10.2583 13.848 10.3301 13.9758 10.4395 14.0548Z" fill="#FFE15A"/>
<path d="M10.6209 14.1305V12.5068H10.4397V14.0548C10.4925 14.0929 10.5539 14.1191 10.6209 14.1305Z" fill="#FF4B55"/>
<path d="M10.6208 12.5067V14.1304C10.6445 14.1344 10.6685 14.1378 10.6934 14.1378H10.8021V12.5067H10.6208Z" fill="#FFE15A"/>
<path d="M10.505 12.1966C10.4969 12.1966 10.4887 12.1944 10.4814 12.1895C10.3745 12.1187 10.3683 12.0451 10.3741 12.0075C10.3819 11.9567 10.4197 11.9145 10.4703 11.9C10.5185 11.8865 10.5665 11.9007 10.5991 11.9384C10.6665 12.0169 10.7363 12.0478 10.7949 12.0261C10.8414 12.0088 10.8691 11.9631 10.8691 11.9288C10.8691 11.9052 10.8883 11.886 10.9119 11.886C10.9356 11.886 10.9548 11.9052 10.9548 11.9288C10.9548 12.0037 10.9001 12.0784 10.8248 12.1064C10.7697 12.1267 10.659 12.1392 10.5341 11.9942C10.5207 11.9788 10.5049 11.9793 10.4939 11.9824C10.4786 11.9867 10.4619 12.0002 10.4587 12.0204C10.4542 12.05 10.4797 12.0856 10.5287 12.118C10.5484 12.131 10.5538 12.1576 10.5407 12.1774C10.5325 12.1898 10.5189 12.1966 10.505 12.1966Z" fill="#F5F5F5"/>
<path d="M11.6549 12.1966C11.641 12.1966 11.6274 12.1898 11.6191 12.1775C11.6061 12.1577 11.6115 12.1311 11.6312 12.1181C11.6802 12.0856 11.7057 12.0501 11.7012 12.0205C11.698 12.0003 11.6812 11.9868 11.666 11.9825C11.6548 11.9794 11.639 11.9789 11.6257 11.9943C11.501 12.1394 11.3901 12.1268 11.3351 12.1065C11.2598 12.0785 11.2051 12.0038 11.2051 11.9289C11.2051 11.9053 11.2242 11.8861 11.2479 11.8861C11.2716 11.8861 11.2908 11.9053 11.2908 11.9289C11.2908 11.9632 11.3185 12.0089 11.3649 12.0262C11.4237 12.0479 11.4934 12.017 11.5608 11.9385C11.5933 11.9006 11.6414 11.8865 11.6896 11.9001C11.7402 11.9146 11.778 11.9567 11.7858 12.0075C11.7916 12.0451 11.7854 12.1188 11.6785 12.1896C11.6712 12.1943 11.663 12.1966 11.6549 12.1966Z" fill="#F5F5F5"/>
<path d="M10.4769 12.2476C10.4678 12.2476 10.4587 12.2448 10.451 12.2389C10.4321 12.2245 10.4285 12.1976 10.4428 12.1788L11.3739 10.9545C11.3828 10.9385 11.3862 10.9162 11.3901 10.8905C11.3972 10.8425 11.4062 10.7826 11.4797 10.7384C11.5275 10.7098 11.5844 10.7106 11.6318 10.7409C11.6842 10.7743 11.7151 10.8367 11.7087 10.896C11.7049 10.932 11.6838 10.9978 11.5863 11.0339C11.564 11.0422 11.5395 11.0307 11.5312 11.0087C11.523 10.9865 11.5343 10.9618 11.5565 10.9536C11.585 10.9431 11.6197 10.9229 11.6236 10.8869C11.6265 10.8595 11.6109 10.8292 11.5857 10.8131C11.5716 10.8041 11.5494 10.7964 11.5239 10.8119C11.485 10.8353 11.4812 10.8609 11.4748 10.9033C11.4703 10.9333 11.4652 10.9674 11.4451 11.002L10.511 12.2307C10.5026 12.2417 10.4898 12.2476 10.4769 12.2476Z" fill="#FFE15A"/>
<path d="M11.0787 10.901L10.6504 11.415L10.8217 11.929H11.3357L11.5071 11.415L11.0787 10.901Z" fill="#FFE15A"/>
<path d="M11.0798 10.8339L10.6033 11.4058L10.7919 11.9717H11.3677L11.5564 11.4058L11.0798 10.8339ZM10.6996 11.424L11.037 11.0192V11.886H10.8537L10.6996 11.424ZM11.3059 11.8861H11.1226V11.0192L11.46 11.424L11.3059 11.8861Z" fill="#F5F5F5"/>
<path d="M13.3371 13.0217L13.3436 12.9266C13.3436 12.9266 13.4278 12.8661 13.3868 12.81C13.3457 12.7538 13.2982 12.743 13.1989 12.756C13.0995 12.7689 12.944 12.7668 12.877 12.7711C12.81 12.7754 12.7755 12.8122 12.6697 12.7819L12.6977 12.7171C12.6977 12.7171 12.6481 12.7214 12.6178 12.7366C12.6013 12.7448 12.5617 12.6912 12.5228 12.6999C12.484 12.7085 12.445 12.7884 12.3845 12.8295L12.4169 12.8943C12.4169 12.8943 12.4536 12.877 12.4817 12.8964C12.5098 12.9159 12.5184 12.9288 12.5659 12.9288L12.5962 12.9417C12.5962 12.9417 12.5854 13.0109 12.6307 13.0433C12.6307 13.0433 12.5789 13.1102 12.5853 13.121C12.5918 13.1318 12.635 13.2139 12.6523 13.2614L12.6911 13.188C12.6911 13.188 12.6328 13.1361 12.6436 13.1297C12.6544 13.1232 12.6933 13.1145 12.6868 13.0973C12.6803 13.08 12.717 13.0994 12.7581 13.1059C12.7581 13.1059 12.7603 13.1707 12.7689 13.1794C12.7775 13.188 12.7905 13.2226 12.7883 13.2593C12.7862 13.296 12.7538 13.3068 12.7538 13.3068L12.8121 13.3241C12.8121 13.3241 12.8273 13.3025 12.838 13.3046C12.838 13.3046 12.8337 13.1254 12.8575 13.0973C12.8575 13.0973 12.9979 13.1254 13.0627 13.0908C13.0627 13.0908 13.071 13.1013 13.0872 13.1112C13.0807 13.1262 13.0752 13.1413 13.0777 13.1456C13.0831 13.1554 13.1004 13.1543 13.1047 13.1435C13.1064 13.1394 13.1089 13.131 13.1115 13.1224C13.1193 13.1249 13.1279 13.1269 13.1377 13.1279C13.1368 13.1416 13.1367 13.1541 13.1398 13.1571C13.148 13.1646 13.1641 13.1582 13.1649 13.1465C13.1651 13.1427 13.165 13.1356 13.1648 13.1279C13.176 13.1269 13.1879 13.125 13.201 13.1211L13.1275 13.2421L13.0908 13.2572L13.1384 13.281L13.1816 13.2637C13.1816 13.2637 13.2226 13.16 13.2896 13.1298C13.2896 13.1298 13.3349 13.2378 13.2788 13.2961L13.3285 13.3241L13.3522 13.2745C13.3522 13.2745 13.3436 13.1772 13.376 13.1146L13.3371 13.0217Z" fill="#FF4B55"/>
<path d="M12.5248 12.7129C12.5248 12.7129 12.5031 12.6923 12.4977 12.6652C12.4922 12.6381 12.4858 12.6261 12.4619 12.6185C12.4619 12.6185 12.4771 12.6359 12.4749 12.663C12.4728 12.6901 12.4749 12.727 12.4901 12.7389L12.5248 12.7129Z" fill="#4173CD"/>
<path d="M12.7135 12.7893C12.7135 12.7893 12.684 12.8896 12.5974 12.9416L12.5671 12.9287C12.5671 12.9287 12.6596 12.8497 12.6708 12.7818L12.7135 12.7893Z" fill="#4173CD"/>
<path d="M12.5661 12.7368C12.563 12.7335 12.6041 12.7216 12.5943 12.689C12.5845 12.6565 12.5845 12.6326 12.604 12.6175C12.604 12.6175 12.6062 12.6445 12.6213 12.6619C12.6365 12.6792 12.6452 12.7226 12.6203 12.7475C12.6203 12.7475 12.5954 12.7671 12.5661 12.7368Z" fill="#4173CD"/>
<path d="M12.5707 13.0323C12.5654 13.0298 12.5633 13.0235 12.5659 13.0183L12.579 12.9916C12.5867 12.976 12.5816 12.9566 12.5665 12.948C12.55 12.9384 12.5292 12.945 12.5209 12.9618L12.5073 12.9895C12.5047 12.9947 12.4985 12.9968 12.4933 12.9943L12.4851 13.0109C12.4851 13.0109 12.4971 13.0168 12.5116 13.0239L12.5114 13.0245C12.5081 13.0312 12.5108 13.0394 12.5175 13.0426C12.5242 13.0459 12.5324 13.0432 12.5357 13.0365L12.536 13.0359C12.5505 13.043 12.5625 13.0489 12.5625 13.0489L12.5707 13.0323Z" fill="#4173CD"/>
<path d="M12.6756 13.2149L12.7081 13.2214L12.681 13.3049L12.6536 13.2613L12.6756 13.2149Z" fill="#4173CD"/>
<path d="M12.755 13.3067L12.7351 13.3418H12.8132L12.8133 13.324L12.755 13.3067Z" fill="#4173CD"/>
<path d="M13.1394 13.2808V13.3016H13.0508L13.0937 13.2588L13.1394 13.2808Z" fill="#4173CD"/>
<path d="M13.2799 13.2959L13.2361 13.3396H13.3281L13.3295 13.324L13.2799 13.2959Z" fill="#4173CD"/>
<path d="M13.3371 13.6985L13.3436 13.6034C13.3436 13.6034 13.4278 13.543 13.3868 13.4868C13.3457 13.4306 13.2982 13.4199 13.1989 13.4328C13.0995 13.4457 12.944 13.4436 12.877 13.4479C12.81 13.4523 12.7755 13.489 12.6697 13.4587L12.6977 13.3939C12.6977 13.3939 12.6481 13.3983 12.6178 13.4134C12.6013 13.4216 12.5617 13.368 12.5228 13.3767C12.484 13.3853 12.445 13.4652 12.3845 13.5063L12.4169 13.5711C12.4169 13.5711 12.4536 13.5538 12.4817 13.5732C12.5098 13.5927 12.5184 13.6056 12.5659 13.6056L12.5962 13.6186C12.5962 13.6186 12.5854 13.6877 12.6307 13.7201C12.6307 13.7201 12.5789 13.787 12.5853 13.7979C12.5918 13.8086 12.635 13.8907 12.6523 13.9382L12.6911 13.8648C12.6911 13.8648 12.6328 13.813 12.6436 13.8065C12.6544 13.8 12.6933 13.7913 12.6868 13.7741C12.6803 13.7568 12.717 13.7763 12.7581 13.7827C12.7581 13.7827 12.7603 13.8475 12.7689 13.8562C12.7775 13.8648 12.7905 13.8994 12.7883 13.9361C12.7862 13.9728 12.7538 13.9836 12.7538 13.9836L12.8121 14.0009C12.8121 14.0009 12.8273 13.9793 12.838 13.9815C12.838 13.9815 12.8337 13.8022 12.8575 13.7741C12.8575 13.7741 12.9979 13.8022 13.0627 13.7676C13.0627 13.7676 13.071 13.7781 13.0872 13.788C13.0807 13.8031 13.0752 13.8181 13.0777 13.8225C13.0831 13.8322 13.1004 13.8311 13.1047 13.8203C13.1064 13.8162 13.1089 13.8078 13.1115 13.7992C13.1193 13.8018 13.1279 13.8038 13.1377 13.8048C13.1368 13.8184 13.1367 13.831 13.1398 13.8339C13.148 13.8415 13.1641 13.835 13.1649 13.8234C13.1651 13.8196 13.165 13.8124 13.1648 13.8047C13.176 13.8038 13.1879 13.8018 13.201 13.7979L13.1275 13.9189L13.0908 13.934L13.1384 13.9578L13.1816 13.9405C13.1816 13.9405 13.2226 13.8368 13.2896 13.8066C13.2896 13.8066 13.3349 13.9146 13.2788 13.9729L13.3285 14.001L13.3522 13.9513C13.3522 13.9513 13.3436 13.8541 13.376 13.7914L13.3371 13.6985Z" fill="#FF4B55"/>
<path d="M12.5248 13.3898C12.5248 13.3898 12.5031 13.3692 12.4977 13.3421C12.4922 13.315 12.4858 13.303 12.4619 13.2954C12.4619 13.2954 12.4771 13.3128 12.4749 13.3398C12.4728 13.3669 12.4749 13.4038 12.4901 13.4157L12.5248 13.3898Z" fill="#4173CD"/>
<path d="M12.7135 13.4662C12.7135 13.4662 12.684 13.5665 12.5974 13.6185L12.5671 13.6056C12.5671 13.6056 12.6596 13.5266 12.6708 13.4587L12.7135 13.4662Z" fill="#4173CD"/>
<path d="M12.5661 13.4136C12.563 13.4104 12.6041 13.3984 12.5943 13.3659C12.5845 13.3334 12.5845 13.3095 12.604 13.2943C12.604 13.2943 12.6062 13.3214 12.6213 13.3388C12.6365 13.3561 12.6452 13.3995 12.6203 13.4244C12.6203 13.4244 12.5954 13.444 12.5661 13.4136Z" fill="#4173CD"/>
<path d="M12.5707 13.7092C12.5654 13.7066 12.5633 13.7004 12.5659 13.6952L12.579 13.6685C12.5867 13.6529 12.5816 13.6335 12.5665 13.6248C12.55 13.6153 12.5292 13.6219 12.5209 13.6387L12.5073 13.6664C12.5047 13.6716 12.4985 13.6737 12.4933 13.6712L12.4851 13.6877C12.4851 13.6877 12.4971 13.6937 12.5116 13.7008L12.5114 13.7014C12.5081 13.7081 12.5108 13.7162 12.5175 13.7195C12.5242 13.7228 12.5324 13.72 12.5357 13.7133L12.536 13.7127C12.5505 13.7199 12.5625 13.7258 12.5625 13.7258L12.5707 13.7092Z" fill="#4173CD"/>
<path d="M12.6756 13.8917L12.7081 13.8983L12.681 13.9817L12.6536 13.9382L12.6756 13.8917Z" fill="#4173CD"/>
<path d="M12.755 13.9836L12.7351 14.0186H12.8132L12.8133 14.0008L12.755 13.9836Z" fill="#4173CD"/>
<path d="M13.1394 13.9576V13.9785H13.0508L13.0937 13.9357L13.1394 13.9576Z" fill="#4173CD"/>
<path d="M13.2799 13.9727L13.2361 14.0165H13.3281L13.3295 14.0008L13.2799 13.9727Z" fill="#4173CD"/>
</g>
<defs>
<clipPath id="clip0_72_262">
<path d="M-0.00146484 2C-0.00146484 0.895432 0.893966 0 1.99854 0H21.9983C23.1029 0 23.9983 0.895431 23.9983 2V21.9998C23.9983 23.1043 23.1029 23.9998 21.9983 23.9998H1.99854C0.893967 23.9998 -0.00146484 23.1043 -0.00146484 21.9998V2Z" fill="white"/>
</clipPath>
</defs>
</svg>
