<svg width="24" height="24" viewBox="0 0 24 24" fill="none" xmlns="http://www.w3.org/2000/svg">
<g clip-path="url(#clip0_72_319)">
<path d="M23.9978 6.10352e-05H-0.00195312V11.9999H23.9978V6.10352e-05Z" fill="#FF4B55"/>
<path d="M23.9978 11.9999H-0.00195312V23.9998H23.9978V11.9999Z" fill="#464655"/>
<path d="M10.5587 6.72652L10.9905 8.02124L12.3553 8.03184C12.461 8.03263 12.5048 8.16758 12.4198 8.2304L11.3218 9.04119L11.7335 10.3425C11.7654 10.4433 11.6507 10.5267 11.5646 10.4652L10.4543 9.67151L9.34391 10.4651C9.2579 10.5266 9.1431 10.4433 9.17498 10.3424L9.58668 9.04114L8.48873 8.23035C8.40366 8.16754 8.44753 8.03259 8.55323 8.03179L9.91803 8.0212L10.3498 6.72647C10.3834 6.62621 10.5252 6.62621 10.5587 6.72652Z" fill="#FFE15A"/>
<path d="M16.3957 17.7195C16.3957 17.7195 8.58252 11.8253 8.35185 11.6315C7.99537 11.332 7.72031 10.8025 7.70709 10.1578C7.70709 10.1578 6.86447 11.0209 7.02947 11.9144C7.22025 12.9472 7.81232 13.3157 8.57549 13.8157C9.11183 14.1671 13.3753 16.856 15.8642 18.4246L16.3957 17.7195Z" fill="#FFE15A"/>
<path d="M18.7331 19.4472C18.6313 19.3745 17.813 18.7697 16.6777 17.9285L16.2656 18.6777C17.0992 19.203 17.6542 19.5525 17.6542 19.5525C17.6542 19.5525 17.7331 20.5788 18.5621 20.4078C18.861 20.3461 19.1015 19.7104 18.7331 19.4472Z" fill="#FFE15A"/>
<path d="M11.9866 16.7257C11.396 16.9336 10.7634 17.0525 10.1017 17.0525C8.4246 17.0525 6.92195 16.3218 5.88152 15.1665L4.95654 15.999C5.26652 16.3433 5.59755 16.6677 5.97067 16.9446L5.7865 17.2636L7.15388 18.0531L7.33491 17.7395C7.95267 18.0081 8.61669 18.1889 9.31227 18.2677V18.6314H10.8912V18.2677C11.5868 18.1889 12.2508 18.0081 12.8685 17.7395L13.0496 18.0531L13.593 17.7393C13.0623 17.4047 12.5187 17.0617 11.9866 16.7257Z" fill="#FFE15A"/>
<path d="M17.0013 10.5789C16.9225 9.88329 16.7417 9.21926 16.473 8.60155L16.7866 8.42047L15.9972 7.05305L15.6782 7.23722C15.2698 6.68696 14.7833 6.2004 14.2329 5.79203L14.4171 5.47305L13.0497 4.68359L12.8687 4.99718C12.3562 4.77429 11.8106 4.61599 11.2429 4.52215L11.0354 5.76728C13.7295 6.21348 15.786 8.54774 15.786 11.3683C15.786 12.8871 15.1867 14.2634 14.2162 15.2831C14.5519 15.5366 14.8852 15.7882 15.2145 16.0368C15.3741 15.8621 15.5367 15.69 15.6782 15.4994L15.9972 15.6835L16.7866 14.3162L16.473 14.1351C16.7417 13.5174 16.9225 12.8533 17.0013 12.1578H17.365V10.5789H17.0013Z" fill="#FFE15A"/>
</g>
<defs>
<clipPath id="clip0_72_319">
<path d="M-0.00146484 2C-0.00146484 0.895432 0.893966 0 1.99854 0H21.9983C23.1029 0 23.9983 0.895431 23.9983 2V21.9998C23.9983 23.1043 23.1029 23.9998 21.9983 23.9998H1.99854C0.893967 23.9998 -0.00146484 23.1043 -0.00146484 21.9998V2Z" fill="white"/>
</clipPath>
</defs>
</svg>
