<svg width="24" height="24" viewBox="0 0 24 24" fill="none" xmlns="http://www.w3.org/2000/svg">
<g clip-path="url(#clip0_72_383)">
<path d="M23.9944 0.00012207H-0.00537109V23.9999H23.9944V0.00012207Z" fill="#41479B"/>
<path d="M4.41565 0.00012207H-0.00537109V0.936535L4.41565 3.83305V0.00012207Z" fill="#41479B"/>
<path d="M-0.00537109 3.20161V4.42115H1.85602L-0.00537109 3.20161Z" fill="#41479B"/>
<path d="M-0.00537109 7.57899V8.79852L1.85602 7.57899H-0.00537109Z" fill="#41479B"/>
<path d="M11.9945 0.936535V0.00012207H7.57349V3.83305L11.9945 0.936535Z" fill="#41479B"/>
<path d="M11.9944 8.79852V7.57899H10.1331L11.9944 8.79852Z" fill="#41479B"/>
<path d="M7.57349 8.16707V12H11.9945V11.0636L7.57349 8.16707Z" fill="#41479B"/>
<path d="M11.9944 4.42115V3.20161L10.1331 4.42115H11.9944Z" fill="#41479B"/>
<path d="M-0.00537109 11.0636V12H4.41565V8.16707L-0.00537109 11.0636Z" fill="#41479B"/>
<path d="M11.9945 11.0636V10.1278L8.06787 7.57898H9.22792L11.9945 9.37479V8.79852L10.1331 7.57898H11.9945V6.9474H6.94189V12H7.57344V8.16707L11.9945 11.0636Z" fill="#F5F5F5"/>
<path d="M-0.00537109 6.9474V7.57898H1.85602L-0.00537109 8.79852V9.68449L3.23821 7.57898H4.39826L-0.00537109 10.4375V11.0636L4.41565 8.16707V12H5.04719V6.9474H-0.00537109Z" fill="#F5F5F5"/>
<path d="M5.04719 0.00012207H4.41565V3.83305L-0.00537109 0.936535V1.96131L3.78406 4.42114H2.62401L-0.00537109 2.71435V3.20161L1.85602 4.42114H-0.00537109V5.05273H5.04719V0.00012207Z" fill="#F5F5F5"/>
<path d="M11.9945 5.05273V4.42114H10.1331L11.9945 3.20161V2.30433L8.73349 4.42114H7.57344L11.9945 1.55134V0.936535L7.57344 3.83305V0.00012207H6.94189V5.05273H11.9945Z" fill="#F5F5F5"/>
<path d="M11.9945 6.9474V5.05273H6.94195V0.00012207H5.04719V5.05273H-0.00537109V6.9474H5.04719V12H6.94195V6.9474H11.9945Z" fill="#FF4B55"/>
<path d="M3.23821 7.57899L-0.00537109 9.6845V10.4375L4.39826 7.57899H3.23821Z" fill="#FF4B55"/>
<path d="M8.06787 7.57899L11.9945 10.1278V9.3748L9.22792 7.57899H8.06787Z" fill="#FF4B55"/>
<path d="M3.78406 4.42115L-0.00537109 1.96131V2.71435L2.62401 4.42115H3.78406Z" fill="#FF4B55"/>
<path d="M8.73354 4.42114L11.9945 2.30433V1.55134L7.57349 4.42114H8.73354Z" fill="#FF4B55"/>
<path d="M6.10747 15.8176L6.50507 17.1301L7.77907 16.6226C7.88777 16.5793 7.98658 16.7033 7.92021 16.7996L7.14195 17.9288L8.33308 18.6085C8.4347 18.6664 8.39941 18.821 8.28269 18.8291L6.91465 18.9247L7.12592 20.2797C7.14396 20.3953 7.00109 20.4641 6.92197 20.3779L5.99427 19.3679L5.06663 20.3779C4.9875 20.464 4.84463 20.3953 4.86267 20.2797L5.07394 18.9247L3.70586 18.8291C3.58914 18.8209 3.55389 18.6664 3.65547 18.6084L4.8466 17.9287L4.06834 16.7996C4.00196 16.7032 4.10078 16.5793 4.20948 16.6226L5.48348 17.1301L5.88107 15.8176C5.91501 15.7057 6.07354 15.7057 6.10747 15.8176Z" fill="#F5F5F5"/>
<path d="M18.0616 4.0723L18.2558 4.71345L18.8781 4.46553C18.9312 4.44439 18.9795 4.5049 18.9471 4.55196L18.5669 5.10354L19.1488 5.43555C19.1984 5.46386 19.1812 5.53938 19.1242 5.54336L18.4559 5.59005L18.5591 6.25196C18.5679 6.30845 18.4981 6.34201 18.4595 6.29996L18.0063 5.80661L17.5532 6.29996C17.5145 6.34206 17.4448 6.30845 17.4536 6.25196L17.5568 5.59005L16.8885 5.54336C16.8315 5.53938 16.8143 5.46386 16.8639 5.43555L17.4458 5.10354L17.0656 4.55196C17.0332 4.5049 17.0815 4.44434 17.1346 4.46553L17.7569 4.71345L17.9511 4.0723C17.9675 4.01759 18.045 4.01759 18.0616 4.0723Z" fill="#F5F5F5"/>
<path d="M13.731 9.94839L13.9252 10.5895L14.5476 10.3416C14.6007 10.3205 14.6489 10.381 14.6165 10.4281L14.2364 10.9796L14.8182 11.3116C14.8678 11.34 14.8506 11.4155 14.7936 11.4195L14.1253 11.4661L14.2285 12.1281C14.2373 12.1845 14.1675 12.2181 14.1289 12.1761L13.6758 11.6827L13.2226 12.1761C13.184 12.2181 13.1142 12.1845 13.123 12.1281L13.2263 11.4661L12.558 11.4195C12.501 11.4155 12.4837 11.34 12.5334 11.3116L13.1152 10.9796L12.7351 10.4281C12.7026 10.381 12.7509 10.3204 12.804 10.3416L13.4264 10.5895L13.6206 9.94839C13.637 9.89373 13.7144 9.89373 13.731 9.94839Z" fill="#F5F5F5"/>
<path d="M22.1585 6.88655L22.3527 7.52771L22.975 7.27979C23.0281 7.25865 23.0764 7.31916 23.044 7.36622L22.6638 7.91779L23.2457 8.24981C23.2953 8.27812 23.2781 8.35363 23.2211 8.35762L22.5528 8.40431L22.656 9.06622C22.6648 9.1227 22.595 9.15627 22.5564 9.11422L22.1033 8.62087L21.6501 9.11422C21.6115 9.15631 21.5417 9.1227 21.5505 9.06622L21.6537 8.40431L20.9855 8.35762C20.9285 8.35363 20.9112 8.27812 20.9608 8.24981L21.5427 7.91779L21.1625 7.36622C21.1301 7.31916 21.1784 7.2586 21.2315 7.27979L21.8538 7.52771L22.048 6.88655C22.0645 6.83185 22.1419 6.83185 22.1585 6.88655Z" fill="#F5F5F5"/>
<path d="M18.0616 17.2534L18.2558 17.8945L18.8781 17.6466C18.9312 17.6255 18.9795 17.686 18.9471 17.733L18.5669 18.2846L19.1488 18.6166C19.1984 18.6449 19.1812 18.7204 19.1242 18.7244L18.4559 18.7711L18.5591 19.433C18.5679 19.4895 18.4981 19.5231 18.4595 19.481L18.0063 18.9877L17.5532 19.481C17.5145 19.5231 17.4448 19.4895 17.4536 19.433L17.5568 18.7711L16.8885 18.7244C16.8315 18.7204 16.8143 18.6449 16.8639 18.6166L17.4458 18.2846L17.0656 17.733C17.0332 17.686 17.0815 17.6254 17.1346 17.6466L17.7569 17.8945L17.9511 17.2534C17.9675 17.1987 18.045 17.1987 18.0616 17.2534Z" fill="#F5F5F5"/>
<path d="M19.5641 11.5766L19.4082 12.0441L18.9154 12.0479C18.8516 12.0484 18.8251 12.1298 18.8764 12.1677L19.2729 12.4605L19.1243 12.9304C19.105 12.9912 19.1743 13.0415 19.2262 13.0044L19.6271 12.7178L20.028 13.0044C20.0799 13.0416 20.1492 12.9912 20.1299 12.9304L19.9813 12.4605L20.3777 12.1677C20.4291 12.1298 20.4026 12.0484 20.3388 12.0479L19.846 12.0441L19.6901 11.5766C19.6699 11.5161 19.5842 11.5161 19.5641 11.5766Z" fill="#F5F5F5"/>
</g>
<defs>
<clipPath id="clip0_72_383">
<path d="M-0.00146484 2C-0.00146484 0.895432 0.893966 0 1.99854 0H21.9983C23.1029 0 23.9983 0.895431 23.9983 2V21.9998C23.9983 23.1043 23.1029 23.9998 21.9983 23.9998H1.99854C0.893967 23.9998 -0.00146484 23.1043 -0.00146484 21.9998V2Z" fill="white"/>
</clipPath>
</defs>
</svg>
