<svg width="24" height="24" viewBox="0 0 24 24" fill="none" xmlns="http://www.w3.org/2000/svg">
<g clip-path="url(#clip0_72_424)">
<path d="M9.51279 6.10352e-05H-0.00415039V23.9998H9.51279V6.10352e-05Z" fill="#41479B"/>
<path d="M23.9955 6.10352e-05H9.5127V23.9998H23.9955V6.10352e-05Z" fill="#F5F5F5"/>
<path d="M13.0367 15.9079C12.8162 15.9079 12.6023 15.983 12.4302 16.1206L11.386 16.956C11.2139 17.0937 10.9999 17.1688 10.7795 17.1688H10.4896V17.002C10.4896 16.746 10.6972 16.5383 10.9533 16.5383H11.4353V16.3136C11.4353 16.0896 11.2536 15.9079 11.0295 15.9079H10.8048C10.8048 15.7338 10.6637 15.5927 10.4896 15.5927C9.6191 15.5927 8.9135 16.2983 8.9135 17.1687H8.3084C8.08795 17.1687 7.87411 17.0937 7.70198 16.956L6.65771 16.1206C6.48559 15.9829 6.2717 15.9079 6.0513 15.9079H1.45304C1.29812 15.9079 1.22055 16.0952 1.33009 16.2047L2.92167 17.7963C3.12534 18 3.40152 18.1144 3.68952 18.1144H4.81578L5.74042 18.8078C5.95867 18.9715 6.22412 19.06 6.49693 19.06H7.65272C7.85114 19.06 8.03798 18.9666 8.15704 18.8078L8.28313 18.6397V19.3752L7.50525 20.931C7.42819 21.0851 7.54027 21.2665 7.71262 21.2665H10.2578C10.3858 21.2665 10.4896 21.1627 10.4896 21.0346V18.2194L10.9309 18.8078C11.05 18.9666 11.2368 19.06 11.4353 19.06H12.591C12.8639 19.06 13.1293 18.9715 13.3476 18.8078L14.2722 18.1144H15.3985C15.6865 18.1144 15.9627 17.9999 16.1664 17.7963L17.758 16.2047C17.8675 16.0951 17.7899 15.9078 17.635 15.9078H13.0367V15.9079Z" fill="#FFE15A"/>
<path d="M9.60511 10.8006L9.75581 11.2524L10.2322 11.2562C10.2938 11.2566 10.3194 11.3353 10.2698 11.372L9.88659 11.655L10.0303 12.1091C10.0489 12.1679 9.98194 12.2166 9.93173 12.1807L9.54422 11.9037L9.15671 12.1807C9.10655 12.2166 9.03957 12.1679 9.05818 12.1091L9.20185 11.655L8.81865 11.372C8.76906 11.3353 8.7946 11.2566 8.85629 11.2562L9.33263 11.2524L9.48333 10.8006C9.50283 10.7421 9.58561 10.7421 9.60511 10.8006Z" fill="#FFE15A"/>
<path d="M2.60807 13.6483L3.03416 13.8613L3.37358 13.5271C3.41755 13.4838 3.49124 13.5214 3.4821 13.5823L3.41122 14.0534L3.83394 14.2729C3.88869 14.3013 3.8757 14.3831 3.81491 14.3932L3.34504 14.4714L3.2669 14.9412C3.25677 15.0021 3.17502 15.015 3.14662 14.9603L2.92706 14.5376L2.45601 14.6084C2.39503 14.6176 2.35748 14.5439 2.40075 14.4999L2.73496 14.1605L2.52201 13.7344C2.4944 13.6793 2.55295 13.6208 2.60807 13.6483Z" fill="#FFE15A"/>
<path d="M16.5663 13.7345L16.3534 14.1605L16.6876 14.5C16.7308 14.5439 16.6933 14.6176 16.6323 14.6085L16.1613 14.5376L15.9417 14.9603C15.9133 15.0151 15.8315 15.0021 15.8214 14.9413L15.7433 14.4714L15.2734 14.3933C15.2126 14.3832 15.1996 14.3014 15.2544 14.273L15.6771 14.0534L15.6062 13.5824C15.597 13.5214 15.6708 13.4839 15.7147 13.5271L16.0542 13.8613L16.4802 13.6484C16.5354 13.6208 16.5939 13.6793 16.5663 13.7345Z" fill="#FFE15A"/>
<path d="M5.82326 11.5286L6.13539 11.8884L6.57686 11.7095C6.634 11.6864 6.68776 11.7493 6.65593 11.8021L6.41022 12.2102L6.71678 12.5748C6.75648 12.622 6.71322 12.6925 6.65317 12.6786L6.18916 12.571L5.93711 12.9752C5.90449 13.0275 5.82401 13.0082 5.81871 12.9468L5.77765 12.4722L5.31532 12.3574C5.25546 12.3426 5.249 12.2601 5.30576 12.236L5.74441 12.0503L5.71071 11.5751C5.7064 11.5136 5.78285 11.482 5.82326 11.5286Z" fill="#FFE15A"/>
<path d="M13.3774 11.5752L13.3436 12.0503L13.7823 12.2361C13.8391 12.2601 13.8326 12.3426 13.7727 12.3575L13.3104 12.4723L13.2694 12.9468C13.2641 13.0083 13.1836 13.0276 13.1509 12.9752L12.8989 12.571L12.4349 12.6787C12.3748 12.6926 12.3316 12.622 12.3713 12.5748L12.6778 12.2102L12.4321 11.8021C12.4003 11.7493 12.4541 11.6864 12.5112 11.7096L12.9527 11.8884L13.2648 11.5286C13.3053 11.482 13.3817 11.5136 13.3774 11.5752Z" fill="#FFE15A"/>
<path d="M7.67839 10.9783L7.91435 11.3921L8.38226 11.3028C8.44282 11.2913 8.48327 11.3635 8.44174 11.4091L8.12112 11.7614L8.35066 12.1788C8.38038 12.2329 8.32422 12.2936 8.26802 12.2683L7.83392 12.0722L7.50786 12.4195C7.46562 12.4644 7.39048 12.4298 7.39728 12.3685L7.44959 11.895L7.01858 11.6922C6.96275 11.666 6.9725 11.5838 7.03288 11.5713L7.49933 11.4747L7.559 11.0021C7.56669 10.9409 7.64783 10.9247 7.67839 10.9783Z" fill="#FFE15A"/>
<path d="M15.0782 12.4978L14.9525 12.9572L15.3465 13.2249C15.3975 13.2596 15.375 13.3393 15.3134 13.3421L14.8376 13.3645L14.7048 13.822C14.6876 13.8812 14.6049 13.8845 14.5831 13.8268L14.4148 13.3812L13.9387 13.3962C13.877 13.3981 13.8484 13.3205 13.8965 13.2819L14.2683 12.9841L14.1069 12.536C14.086 12.4779 14.151 12.4267 14.2025 12.4606L14.6006 12.7222L14.977 12.4302C15.0257 12.3923 15.0945 12.4383 15.0782 12.4978Z" fill="#FFE15A"/>
<path d="M4.11134 12.4301L4.48769 12.7221L4.8858 12.4605C4.93736 12.4267 5.00233 12.4779 4.98142 12.5359L4.82003 12.9841L5.1918 13.2819C5.23994 13.3205 5.2113 13.3981 5.14966 13.3961L4.67355 13.3811L4.50522 13.8267C4.48343 13.8844 4.40074 13.8811 4.38354 13.8219L4.2507 13.3645L3.77487 13.3421C3.71328 13.3392 3.69083 13.2595 3.74183 13.2249L4.13581 12.9572L4.01009 12.4977C3.99382 12.4383 4.06264 12.3923 4.11134 12.4301Z" fill="#FFE15A"/>
<path d="M11.5293 11.0021L11.589 11.4747L12.0555 11.5712C12.1158 11.5838 12.1256 11.6659 12.0698 11.6922L11.6387 11.895L11.6911 12.3684C11.6979 12.4298 11.6227 12.4644 11.5805 12.4194L11.2544 12.0721L10.8203 12.2682C10.7641 12.2936 10.708 12.2328 10.7377 12.1788L10.9672 11.7614L10.6466 11.4091C10.6051 11.3634 10.6455 11.2913 10.7061 11.3028L11.174 11.3921L11.41 10.9783C11.4405 10.9248 11.5217 10.9409 11.5293 11.0021Z" fill="#FFE15A"/>
<path d="M5.44929 3.35656V5.00715C5.44929 5.68974 4.89396 6.24506 4.21138 6.24506C3.52879 6.24506 2.97347 5.68974 2.97347 5.00715V3.35656H5.44929ZM5.86197 2.53129H2.56083C2.33293 2.53129 2.14819 2.71602 2.14819 2.94392V5.00715C2.14819 6.14663 3.07195 7.07038 4.21142 7.07038C5.3509 7.07038 6.27465 6.14663 6.27465 5.00715V2.94392C6.27461 2.71602 6.08983 2.53129 5.86197 2.53129Z" fill="#FF4B55"/>
<path d="M5.44921 3.35656V5.00715C5.44921 5.68974 4.89389 6.24506 4.2113 6.24506C3.52871 6.24506 2.97339 5.68974 2.97339 5.00715V3.35656H5.44921Z" fill="#F5F5F5"/>
<path d="M2.72343 2.81257C2.85866 3.02154 2.63596 3.24424 2.427 3.109C2.41368 3.10038 2.40201 3.08871 2.39334 3.07535C2.25811 2.86638 2.48081 2.64368 2.68977 2.77891C2.70313 2.78759 2.71481 2.79921 2.72343 2.81257Z" fill="#FFE15A"/>
<path d="M6.0247 2.81257C6.15993 3.02154 5.93723 3.24424 5.72827 3.109C5.71495 3.10038 5.70328 3.08871 5.69461 3.07535C5.55938 2.86638 5.78208 2.64368 5.99104 2.77891C6.0044 2.78759 6.01607 2.79921 6.0247 2.81257Z" fill="#FFE15A"/>
<path d="M2.72343 4.46311C2.85866 4.67208 2.63596 4.89478 2.427 4.75955C2.41368 4.75092 2.40201 4.73925 2.39334 4.72589C2.25811 4.51692 2.48081 4.29422 2.68977 4.42946C2.70313 4.43813 2.71481 4.4498 2.72343 4.46311Z" fill="#FFE15A"/>
<path d="M6.0247 4.46311C6.15993 4.67208 5.93723 4.89478 5.72827 4.75955C5.71495 4.75092 5.70328 4.73925 5.69461 4.72589C5.55938 4.51692 5.78208 4.29422 5.99104 4.42946C6.0044 4.43813 6.01607 4.4498 6.0247 4.46311Z" fill="#FFE15A"/>
<path d="M4.37406 2.81257C4.5093 3.02154 4.2866 3.24424 4.07763 3.109C4.06432 3.10038 4.05265 3.08871 4.04397 3.07535C3.90874 2.86638 4.13144 2.64368 4.34041 2.77891C4.35377 2.78759 4.36544 2.79921 4.37406 2.81257Z" fill="#FFE15A"/>
<path d="M5.61283 5.98476C5.74807 6.19373 5.52537 6.41643 5.3164 6.28119C5.30309 6.27257 5.29142 6.2609 5.28274 6.24759C5.14751 6.03862 5.37021 5.81592 5.57918 5.95115C5.59254 5.95978 5.60421 5.9714 5.61283 5.98476Z" fill="#FFE15A"/>
<path d="M3.15971 5.98476C3.29494 6.19373 3.07224 6.41643 2.86327 6.28119C2.84996 6.27257 2.83829 6.2609 2.82962 6.24759C2.69439 6.03862 2.91709 5.81592 3.12605 5.95115C3.13941 5.95978 3.15108 5.9714 3.15971 5.98476Z" fill="#FFE15A"/>
<path d="M4.47974 4.48985V4.84515C4.47974 4.99211 4.36021 5.11164 4.21326 5.11164C4.06631 5.11164 3.94678 4.99211 3.94678 4.84515V4.48985H4.47974Z" fill="#41479B"/>
<path d="M4.47974 3.64737V4.00268C4.47974 4.14963 4.36021 4.26916 4.21326 4.26916C4.06631 4.26916 3.94678 4.14963 3.94678 4.00268V3.64737H4.47974Z" fill="#41479B"/>
<path d="M4.47974 5.34095V5.69626C4.47974 5.84321 4.36021 5.96274 4.21326 5.96274C4.06631 5.96274 3.94678 5.84321 3.94678 5.69626V5.34095H4.47974Z" fill="#41479B"/>
<path d="M5.19751 4.48985V4.84515C5.19751 4.99211 5.07798 5.11164 4.93103 5.11164C4.78408 5.11164 4.66455 4.99211 4.66455 4.84515V4.48985H5.19751Z" fill="#41479B"/>
<path d="M3.76197 4.48985V4.84515C3.76197 4.99211 3.64244 5.11164 3.49549 5.11164C3.34853 5.11164 3.229 4.99211 3.229 4.84515V4.48985H3.76197Z" fill="#41479B"/>
</g>
<defs>
<clipPath id="clip0_72_424">
<path d="M-0.00146484 2C-0.00146484 0.895432 0.893966 0 1.99854 0H21.9983C23.1029 0 23.9983 0.895431 23.9983 2V21.9998C23.9983 23.1043 23.1029 23.9998 21.9983 23.9998H1.99854C0.893967 23.9998 -0.00146484 23.1043 -0.00146484 21.9998V2Z" fill="white"/>
</clipPath>
</defs>
</svg>
