<svg width="24" height="24" viewBox="0 0 24 24" fill="none" xmlns="http://www.w3.org/2000/svg">
<g clip-path="url(#clip0_72_476)">
<path d="M23.9946 6.10352e-05H-0.00512695V23.9998H23.9946V6.10352e-05Z" fill="#73AF00"/>
<path d="M15.2274 9.66878C17.2384 14.3923 12.7322 18.8986 8.00856 16.8876C6.85985 16.3986 5.94106 15.4798 5.45202 14.3311C3.44106 9.60751 7.94729 5.10128 12.6709 7.11224C13.8196 7.60128 14.7384 8.52007 15.2274 9.66878Z" fill="#FF4B55"/>
</g>
<defs>
<clipPath id="clip0_72_476">
<path d="M-0.00146484 2C-0.00146484 0.895432 0.893966 0 1.99854 0H21.9983C23.1029 0 23.9983 0.895431 23.9983 2V21.9998C23.9983 23.1043 23.1029 23.9998 21.9983 23.9998H1.99854C0.893967 23.9998 -0.00146484 23.1043 -0.00146484 21.9998V2Z" fill="white"/>
</clipPath>
</defs>
</svg>
