<svg width="24" height="24" viewBox="0 0 24 24" fill="none" xmlns="http://www.w3.org/2000/svg">
<g clip-path="url(#clip0_72_479)">
<path d="M8.00252 6.10352e-05H0.00244141V23.9998H8.00252V6.10352e-05Z" fill="#41479B"/>
<path d="M16.0025 6.10352e-05H8.00244V23.9998H16.0025V6.10352e-05Z" fill="#FFE15A"/>
<path d="M24.002 6.10352e-05H16.002V23.9998H24.002V6.10352e-05Z" fill="#41479B"/>
<path d="M15.3125 9.71509C15.3125 9.71509 14.1611 9.71509 13.2976 10.5787H13.8733C13.8733 10.5787 13.3156 11.5861 13.0277 13.3133L12.434 13.2164V10.5701L13.0097 10.7586L12.0022 8.27586L10.9947 10.7586L11.5705 10.5667V13.2164L10.9767 13.3133C10.6889 11.5862 10.1312 10.5787 10.1312 10.5787H10.7069C9.84332 9.71514 8.69189 9.71514 8.69189 9.71514C10.1312 11.4423 10.1312 14.3208 10.1312 14.3208L11.5705 14.0809V16.0479H12.434V14.0809L13.8733 14.3208C13.8733 14.3208 13.8733 11.4422 15.3125 9.71509Z" fill="#464655"/>
</g>
<defs>
<clipPath id="clip0_72_479">
<path d="M-0.00146484 2C-0.00146484 0.895432 0.893966 0 1.99854 0H21.9983C23.1029 0 23.9983 0.895431 23.9983 2V21.9998C23.9983 23.1043 23.1029 23.9998 21.9983 23.9998H1.99854C0.893967 23.9998 -0.00146484 23.1043 -0.00146484 21.9998V2Z" fill="white"/>
</clipPath>
</defs>
</svg>
