<svg width="24" height="24" viewBox="0 0 24 24" fill="none" xmlns="http://www.w3.org/2000/svg">
<g clip-path="url(#clip0_72_488)">
<path d="M24.0017 17.684H0.00195312V23.9998H24.0017V17.684Z" fill="#73AF00"/>
<path d="M24.0017 6.10352e-05H0.00195312V17.684H24.0017V6.10352e-05Z" fill="#FF4B55"/>
<path d="M5.05456 6.10352e-05H0.00195312V23.9998H5.05456V6.10352e-05Z" fill="#F5F5F5"/>
<path d="M0.633836 22.9509H0.857146V22.3248H0.633836V22.9509ZM2.41657 22.9509H2.64002V22.3248H2.41657V22.9509ZM4.20047 22.9509H4.42285V22.3248H4.20047V22.9509ZM1.52633 21.2724H1.74743V20.7508H1.52633V21.2724ZM3.31023 21.2724H3.5326V20.7508H3.31023V21.2724ZM0.633836 19.9115H0.857146V19.2854H0.633836V19.9115ZM2.41657 19.9115H2.64002V19.2854H2.41657V19.9115ZM4.20047 19.9115H4.42285V19.2854H4.20047V19.9115ZM1.08177 20.7508H1.30288V20.2245H1.52633V19.7028H1.74743V20.2245H1.97206V20.7508H2.19316V21.2724H1.97201V21.7987H1.74739V22.3249H1.52628V21.7986H1.30283V21.2724H1.08172L1.08177 20.7508ZM2.86464 20.7508H3.08795V20.2245H3.31023V19.7028H3.5326V20.2245H3.75488V20.7508H3.97824V21.2724H3.75488V21.7987H3.5326V22.3249H3.31023V21.7986H3.08795V21.2724H2.86464V20.7508ZM3.31023 18.6549V19.1766H3.08575V19.7028H2.86464V20.2245H2.64002V20.7508H2.41657V20.2245H2.19312V19.7028H1.97201V19.1766H1.74739V18.6549H1.52628V19.1766H1.30283V19.7028H1.08172V20.2245H0.857099V20.7508H0.633789V21.2724H0.857099V21.7987H1.08172V22.3249H1.30283V22.8465H1.52628V23.3683H1.74973V22.8465H1.97201V22.3249H2.19312V21.7986H2.41657V21.2724H2.64002V21.7986H2.86464V22.3248H3.08795V22.8465H3.31023V23.3682H3.5326V22.8465H3.75488V22.3248H3.97824V21.7986H4.20164V21.2724H4.42289V20.7507H4.20052V20.2244H3.97824V19.7027H3.75488V19.1765H3.5326V18.6549H3.31023V18.6549ZM3.86255 18.1332H3.97369V17.9246H4.086V18.1332H4.19832V18.3418H4.086V18.5551H3.97369V18.3418H3.86255V18.1332ZM3.86255 17.4028V17.7113H3.75259V18.0288H3.64028V18.4462H3.75254V18.7592H3.86251V19.0721H4.19822V18.7592H4.30936V18.4462H4.41933V18.0288H4.30936V17.7113H4.19822V17.4028H3.86255ZM0.857146 18.1286H0.969458V17.92H1.08177V18.1286H1.19056V18.3418H1.08177V18.5505H0.969458V18.3418H0.857146V18.1286ZM0.857146 17.3983V17.7113H0.746007V18.0243H0.633836V18.4462H0.746007V18.7592H0.857146V19.0722H1.19056V18.7592H1.30288V18.4462H1.41181V18.0243H1.30288V17.7113H1.19056V17.3983H0.857146ZM2.08315 18.1286H2.19312V17.92H2.3066V18.1286H2.41657V18.3418H2.3066V18.5505H2.19312V18.3418H2.08315V18.1286ZM2.64002 18.1286H2.75233V17.92H2.86464V18.1286H2.97461V18.3418H2.86464V18.5505H2.75233V18.3418H2.64002V18.1286ZM2.64002 17.3983V17.7113H2.41657V17.3983H2.08315V17.7113H1.97201V18.0243H1.8597V18.4462H1.97201V18.7592H2.08315V19.0722H2.41657V18.7592H2.64002V19.0722H2.97461V18.7592H3.08795V18.4462H3.19689V18.0243H3.08795V17.7113H2.97461V17.3983H2.64002ZM0.633836 17.185H0.857146V16.5591H0.633836V17.185ZM2.41657 17.185H2.64002V16.5591H2.41657V17.185ZM4.20047 17.185H4.42285V16.5591H4.20047V17.185ZM0.633836 14.5675H0.857146V14.1502H0.633836V14.5675ZM4.20047 14.5675H4.42285V14.1502H4.20047V14.5675ZM2.41657 13.1023H2.64002V12.5806H2.41657V13.1023ZM0.633836 11.687V11.9999V12.0045V12.3175H0.857146V12.0045V11.9999V11.687H0.633836ZM1.85975 11.687V11.9999V12.0045V12.3175H2.0832V12.0045V11.9999V11.687H1.85975ZM2.97461 11.687V11.9999V12.0045V12.3175H3.19689V12.0045V11.9999V11.687H2.97461ZM4.20047 11.687V11.9999V12.0045V12.3175H4.42285V12.0045V11.9999V11.687H4.20047ZM2.75233 11.3195V11.5282H2.64002V11.687H2.41657V11.5282H2.3066V11.3195H2.08315V11.6325H2.19312V11.7913H2.3066V11.9999V12.0045V12.2086H2.19312V12.3674H2.08315V12.6804H2.3066V12.4718H2.41657V12.3174H2.64002V12.4718H2.75233V12.6804H2.97461V12.3674H2.86464V12.2086H2.75233V12.0045V11.9999V11.7913H2.86464V11.6325H2.97461V11.3195H2.75233ZM2.41657 11.4238H2.64002V10.9021H2.41657V11.4238ZM0.633836 9.85417H0.857146V9.4369H0.633836V9.85417ZM4.20047 9.85417H4.42285V9.4369H4.20047V9.85417ZM0.633836 7.44534H0.857146V6.81488H0.633836V7.44534ZM2.41657 7.44534H2.64002V6.81488H2.41657V7.44534ZM4.20047 7.44534H4.42285V6.81488H4.20047V7.44534ZM1.52633 12.009V11.9954V11.7913H1.74743V11.4284H1.97206V11.0064H2.30665V10.5121H2.41662V10.2715H2.52893H2.64002V10.5074H2.75233V11.0064H3.08795V11.2151V11.4284H3.31023V11.7913H3.5326V11.9999V12.2086H3.31023V12.5806H3.08795V12.7893V12.998H2.75233V13.4924H2.64002V13.7283H2.52893H2.41662V13.4924H2.30665V12.998H1.97201V12.5806H1.74739V12.2086H1.52628L1.52633 12.009ZM3.31023 6.18427V6.71049H3.08575V7.23215H2.86464V7.75846H2.64002V8.17574V8.28013H2.41657V7.75846H2.19312V7.23215H1.97201V6.71049H1.74739V6.18427H1.52628V6.71049H1.30283V7.23215H1.07938V7.75846H0.857099V8.17574V8.28013H0.633789V8.80634H0.857099V9.33255H1.07938V9.85422H1.30283V10.376H1.52628V9.85422H1.74739V9.33255H1.97201V8.80634H1.74739V8.17574H1.97201V8.28013V8.59766H2.19312V9.43694H2.3066V9.95406L1.97201 9.95861V10.376H1.74739V10.689H1.52628V11.2152H1.30283V10.689H1.07938V10.376H0.857099V10.0629H0.633789V11.0065H0.857099V11.4284H1.07938V11.7913H1.30283V11.9999V12.0045V12.2086H1.07938V12.5806H0.857099V12.998H0.633789V13.9415H0.857099V13.6239H1.07938V13.3109H1.30283V12.7893H1.52628V13.311H1.74739V13.624H1.97201V14.0459L2.3066 14.0504V14.5675H2.19312V15.4068H1.97201V15.7198V15.8288H1.74739V15.1936H1.97201V14.6719H1.74739V14.1503H1.52628V13.624H1.30283V14.1503H1.07938V14.6719H0.857099V15.1936H0.633789V15.7198H0.857099V15.8288V16.2415H1.08172V16.7678H1.30283V17.294H1.52628V17.8157H1.74739V17.294H1.97201V16.7677H2.19312V16.2414H2.41657V15.7198H2.64002V15.8287V16.2414H2.86464V16.7677H3.08795V17.294H3.31023V17.8156H3.5326V17.294H3.75488V16.7677H3.97824V16.2414H4.20047V15.7198H4.42285V15.1936H4.20047V14.6719H3.97824V14.1502H3.75488V13.6239H3.5326V14.1502H3.31023V14.6719H3.08575V15.1936H3.31023V15.7198V15.8287H3.08575V15.7198V15.4068H2.86464V14.5675H2.83281H2.75233V14.0458H2.83281H2.89295H2.97461H3.08795V13.6239H3.31023V13.3109H3.5326V12.7893H3.75488V13.311H3.97824V13.624H4.20164V13.9416H4.42289V12.998H4.20164V12.5806H3.97824V12.2087H3.75488V12.0045V11.9999V11.7913H3.97824V11.4284H4.20164V11.0064H4.42289V10.0629H4.20164V10.3759H3.97824V10.6889H3.75488V11.2151H3.5326V10.6889H3.31023V10.3759H3.08795V9.95856H2.97461H2.89295H2.83281H2.75233V9.4369H2.83281H2.86464V8.59761H3.08575V8.28008V8.17569H3.31023V8.28008V8.80629H3.08575V9.33251H3.31023V9.85417H3.5326V10.3759H3.75488V9.85417H3.97824V9.33251H4.20047V8.80629H4.42285V8.28008H4.20047V7.75841H3.97824V7.23211H3.75488V6.71044H3.5326V6.18423H3.31023V6.18427ZM0.857146 5.66261H0.967255V5.45392H1.08177V5.66261H1.19056V5.87129H1.08177V6.08452H0.967255V5.87129H0.857146V5.66261ZM0.857146 5.24069H0.746007V5.55822H0.633836V5.97559H0.746007V6.29312H0.857146V6.60619H1.19056V6.29312H1.30288V5.97559H1.41181V5.55822H1.30288V5.24069H1.19056V4.93225H0.857146V5.24069ZM2.08315 5.66261H2.19312V5.45392H2.3066V5.66261H2.41657V5.87129H2.3066V6.08452H2.19312V5.87129H2.08315V5.66261ZM2.64002 5.66261H2.75233V5.45392H2.86464V5.66261H2.97461V5.87129H2.86464V6.08452H2.75233V5.87129H2.64002V5.66261ZM2.08315 5.24069H1.97201V5.55822H1.8597V5.97559H1.97201V6.29312H2.08315V6.60619H2.41657V6.29312H2.64002V6.60619H2.97461V6.29312H3.08795V5.97559H3.19689V5.55822H3.08795V5.24069H2.97461V4.93225H2.64002V5.24069H2.41657V4.93225H2.08315V5.24069ZM3.86255 5.65806H3.97369V5.45392H4.086V5.65806H4.19832V5.87129H4.086V6.07988H3.97369V5.87129H3.86255V5.65806ZM3.86255 4.92771V5.24069H3.75259V5.55822H3.64028V5.97559H3.75254V6.28857H3.86251V6.60164H4.19822V6.28857H4.30936V5.97559H4.41933V5.55822H4.30936V5.24069H4.19822V4.92771H3.86255ZM0.633836 4.71902H0.857146V4.09296H0.633836V4.71902ZM2.41657 4.71902H2.64002V4.09296H2.41657V4.71902ZM4.20047 4.71902H4.42285V4.09296H4.20047V4.71902ZM1.52633 3.25377H1.74743V2.72746H1.52633V3.25377ZM3.31023 3.25377H3.5326V2.72746H3.31023V3.25377ZM0.633836 1.67963H0.857146V1.05353H0.633836V1.67963ZM2.41657 1.67963H2.64002V1.05353H2.41657V1.67963ZM4.20047 1.67963H4.42285V1.05353H4.20047V1.67963ZM1.08177 2.72746H1.30288V2.2058H1.52633V1.67963H1.74743V2.20584H1.97206V2.72751H2.19316V3.25382H1.97201V3.77548H1.74739V4.3017H1.52628V3.77544H1.30283V3.25377H1.08172L1.08177 2.72746ZM2.86464 2.72746H3.08795V2.2058H3.31023V1.67963H3.5326V2.20584H3.75488V2.72751H3.97824V3.25382H3.75488V3.77548H3.5326V4.3017H3.31023V3.77544H3.08795V3.25377H2.86464V2.72746ZM3.31023 0.631655V1.15796H3.08795V1.67963H2.86464V2.20584H2.64002V2.72751H2.41657V2.2058H2.19312V1.67963H1.97201V1.15796H1.74973V0.631655H1.52628V1.15796H1.30283V1.67963H1.08172V2.20584H0.857099V2.72751H0.633789V3.25382H0.857099V3.77548H1.08172V4.3017H1.30283V4.82791H1.52628V5.34958H1.74739V4.82791H1.97201V4.30165H2.19312V3.77544H2.41657V3.25377H2.64002V3.77544H2.86464V4.30165H3.08575V4.82786H3.31023V5.34953H3.5326V4.82786H3.75488V4.30165H3.97824V3.77544H4.20047V3.25377H4.42285V2.72746H4.2016V2.2058H3.97824V1.67963H3.75488V1.15796H3.5326V0.631655H3.31023Z" fill="#FF4B55"/>
</g>
<defs>
<clipPath id="clip0_72_488">
<path d="M-0.00146484 2C-0.00146484 0.895432 0.893966 0 1.99854 0H21.9983C23.1029 0 23.9983 0.895431 23.9983 2V21.9998C23.9983 23.1043 23.1029 23.9998 21.9983 23.9998H1.99854C0.893967 23.9998 -0.00146484 23.1043 -0.00146484 21.9998V2Z" fill="white"/>
</clipPath>
</defs>
</svg>
