<svg width="24" height="24" viewBox="0 0 24 24" fill="none" xmlns="http://www.w3.org/2000/svg">
<g clip-path="url(#clip0_72_497)">
<path d="M24.0042 6.10352e-05H0.00439453V2.52636H24.0042V6.10352e-05Z" fill="#FF4B55"/>
<path d="M24.0042 21.4738H0.00439453V24.0001H24.0042V21.4738Z" fill="#FF4B55"/>
<path d="M24.0012 2.52637H0.00146484V21.4735H24.0012V2.52637Z" fill="#41479B"/>
<path d="M18.6458 6.89169C23.8394 15.1317 15.1332 23.838 6.89317 18.6443C6.27312 18.2535 5.74789 17.7283 5.35709 17.1082C0.163489 8.86821 8.86969 0.161963 17.1097 5.35557C17.7298 5.74641 18.255 6.27159 18.6458 6.89169Z" fill="#F5F5F5"/>
<path d="M10.4227 16.3172L9.15609 16.5283C8.99643 16.555 8.85107 16.4318 8.85107 16.27V15.7934H10.4227V16.3172Z" fill="#82AFFF"/>
<path d="M13.5659 16.3172L14.8325 16.5283C14.9922 16.555 15.1375 16.4318 15.1375 16.27V15.7934H13.5659V16.3172Z" fill="#82AFFF"/>
<path d="M11.7368 7.79658H11.6273C11.4958 7.79658 11.3776 7.72341 11.3188 7.60603L11.125 7.21852L11.3007 7.13054L11.4945 7.51805C11.5198 7.56868 11.5707 7.60017 11.6273 7.60017H11.7368V7.79658Z" fill="#965032"/>
<path d="M10.0322 8.0414L9.70752 7.39194L9.53173 7.47984L9.85646 8.12929L10.0322 8.0414Z" fill="#965032"/>
<path d="M12.3585 10.8168L11.8217 10.2801C11.7051 10.1635 11.6382 10.002 11.6382 9.83703V9.65642C11.6382 9.59019 11.6224 9.52367 11.5928 9.46433L11.459 9.19677C11.4311 9.14099 11.3749 9.10621 11.3125 9.10621H10.8506C10.7133 9.10621 10.5898 9.02999 10.5284 8.90718L10.3389 8.5281L10.5146 8.44012L10.7042 8.8192C10.7321 8.87498 10.7882 8.90976 10.8506 8.90976H11.3125C11.4499 8.90976 11.5733 8.98598 11.6347 9.10879L11.7685 9.37635C11.8117 9.46306 11.8346 9.55977 11.8346 9.65642V9.83703C11.8346 9.95033 11.8806 10.0611 11.9606 10.1409L12.1621 10.3425V9.42725C12.1621 9.17914 12.0766 8.93587 11.9216 8.74199C11.7388 8.51329 11.6382 8.22656 11.6382 7.93392V7.17446H11.8346V7.93392C11.8346 8.18203 11.9201 8.42531 12.0751 8.61918C12.2579 8.84788 12.3585 9.13461 12.3585 9.42725V10.8168Z" fill="#965032"/>
<path d="M11.8913 10.3087H11.5997C11.4199 10.3087 11.2571 10.1954 11.1944 10.0271L11.1206 9.82807L11.3048 9.75954L11.3786 9.95857C11.4127 10.0507 11.5016 10.1123 11.5997 10.1123H11.8913V10.3087Z" fill="#965032"/>
<path d="M11.7707 9.46001L11.5908 9.3807L12.6943 6.87291L12.8742 6.95218L11.7707 9.46001Z" fill="#965032"/>
<path d="M13.1443 9.10625H12.1948V8.9098H12.9479V7.96026H13.1443V9.10625Z" fill="#965032"/>
<path d="M11.5019 10.0556H10.3969C10.268 10.0556 10.1636 9.95117 10.1636 9.82231V9.5031C10.1636 9.37424 10.268 9.2698 10.3969 9.2698H11.5019C11.6307 9.2698 11.7352 9.37424 11.7352 9.5031V9.82231C11.7352 9.95117 11.6308 10.0556 11.5019 10.0556Z" fill="#73AF00"/>
<path d="M13.3354 10.0556H12.2304C12.1015 10.0556 11.9971 9.95117 11.9971 9.82231V9.5031C11.9971 9.37424 12.1015 9.2698 12.2304 9.2698H13.3354C13.4642 9.2698 13.5687 9.37424 13.5687 9.5031V9.82231C13.5687 9.95117 13.4642 10.0556 13.3354 10.0556Z" fill="#73AF00"/>
<path d="M14.1212 9.26981H12.7543C12.6254 9.26981 12.521 9.16537 12.521 9.03651V8.7173C12.521 8.58844 12.6254 8.484 12.7543 8.484H14.1212C14.2501 8.484 14.3545 8.58844 14.3545 8.7173V9.03651C14.3545 9.16537 14.2501 9.26981 14.1212 9.26981Z" fill="#73AF00"/>
<path d="M14.3831 8.22206H12.2304C12.1015 8.22206 11.9971 8.11763 11.9971 7.98877V7.66955C11.9971 7.5407 12.1015 7.43626 12.2304 7.43626H14.3831C14.512 7.43626 14.6164 7.5407 14.6164 7.66955V7.98877C14.6164 8.11763 14.512 8.22206 14.3831 8.22206Z" fill="#73AF00"/>
<path d="M13.3352 7.17432H12.4921C12.3632 7.17432 12.2588 7.06988 12.2588 6.94103V6.62181C12.2588 6.49295 12.3632 6.38852 12.4921 6.38852H13.3352C13.464 6.38852 13.5685 6.49295 13.5685 6.62181V6.94103C13.5685 7.06988 13.464 7.17432 13.3352 7.17432Z" fill="#73AF00"/>
<path d="M9.93017 7.69819H9.34902C9.22016 7.69819 9.11572 7.59376 9.11572 7.4649V7.14568C9.11572 7.01682 9.22016 6.91239 9.34902 6.91239H9.93017C10.059 6.91239 10.1635 7.01682 10.1635 7.14568V7.4649C10.1634 7.59376 10.059 7.69819 9.93017 7.69819Z" fill="#73AF00"/>
<path d="M11.7636 7.43625H10.6586C10.5297 7.43625 10.4253 7.33181 10.4253 7.20296V6.88374C10.4253 6.75488 10.5297 6.65045 10.6586 6.65045H11.7636C11.8925 6.65045 11.9969 6.75488 11.9969 6.88374V7.20296C11.9969 7.33181 11.8925 7.43625 11.7636 7.43625Z" fill="#73AF00"/>
<path d="M11.5016 8.74593H9.61074C9.48188 8.74593 9.37744 8.6415 9.37744 8.51264V8.19342C9.37744 8.06457 9.48188 7.96013 9.61074 7.96013H11.5016C11.6304 7.96013 11.7349 8.06457 11.7349 8.19342V8.51264C11.7349 8.6415 11.6305 8.74593 11.5016 8.74593Z" fill="#73AF00"/>
<path d="M15.9263 14.2217H8.0683C7.77899 14.2217 7.54443 14.4562 7.54443 14.7456C7.54443 15.0349 7.77899 15.2695 8.0683 15.2695H10.1638C10.1638 15.5588 10.3983 15.7933 10.6877 15.7933H13.307C13.5963 15.7933 13.8309 15.5588 13.8309 15.2695H15.9264C16.2157 15.2695 16.4502 15.0349 16.4502 14.7456C16.4502 14.4563 16.2156 14.2217 15.9263 14.2217Z" fill="#73AF00"/>
<path d="M17.22 9.5725C17.2005 9.53322 17.0983 9.57986 17.0345 9.55614C16.2432 9.26196 15.1808 8.72613 14.4864 8.36079L14.347 8.14006L13.0307 7.50032C12.947 7.45958 12.846 7.49089 12.7999 7.57189L12.735 7.68599C12.6855 7.77303 12.7182 7.8838 12.8071 7.93002L14.0605 8.58209L14.4147 8.55588L15.7912 9.2636C15.7912 9.2636 16.7265 9.742 16.7762 9.77715C16.8259 9.81231 16.8544 10.009 16.9472 9.99268C17.0136 9.98096 17.3047 9.7427 17.22 9.5725Z" fill="#BE7855"/>
<path d="M8.53597 14.6148C8.53597 14.6148 8.62329 15.0023 8.5414 15.0459C8.45956 15.0895 8.02297 15.0895 8.03389 14.9968C8.04481 14.904 8.10481 14.5766 8.10481 14.5766L8.53597 14.6148Z" fill="#FFBE3C"/>
<path d="M9.26187 14.4074C9.26187 14.4074 9.19095 14.6966 9.33279 14.7076C9.47468 14.7185 10.2768 14.713 10.2987 14.6912C10.3205 14.6694 10.3478 14.6148 10.3478 14.6148L9.60565 14.4074H9.26187Z" fill="#FFBE3C"/>
<path d="M8.44903 10.8003C8.44903 10.8003 8.25394 11.2641 8.18302 12.8712C8.16413 13.2988 8.21574 13.1986 8.00293 14.5738L8.25549 14.7056C8.32904 14.744 8.41735 14.7412 8.48832 14.6982L8.73417 14.5492C8.73417 14.5492 8.61413 13.0104 9.00703 12.1263C9.00703 12.1263 9.2144 12.5083 9.2144 12.7921C9.2144 13.0759 9.20348 14.4401 9.20348 14.4401C9.20348 14.4401 9.66187 14.5165 9.86924 14.4947C9.86924 14.4947 9.73827 11.5342 9.6073 10.8371L8.44903 10.8003Z" fill="#EAF3F5"/>
<path d="M8.48868 10.6038C8.48868 10.6038 8.41092 10.6611 8.45184 10.8003C8.45184 10.8003 9.0494 11.0582 9.61006 10.8371C9.61006 10.8371 9.67147 10.7471 9.5937 10.6366L8.48868 10.6038Z" fill="#965032"/>
<path d="M7.68926 9.18505C7.34918 9.31147 6.83253 9.62708 6.86525 9.87809C6.89802 10.1291 7.07591 10.0679 7.13136 10.0062C7.18681 9.94461 7.34618 9.7468 7.39592 9.71169C7.44565 9.67653 8.24992 9.26361 8.24992 9.26361L10.3795 8.16872C10.3795 8.16872 10.3958 8.06231 10.269 7.97635C10.269 7.97635 8.96617 8.71031 7.68926 9.18505Z" fill="#965032"/>
<path d="M8.69046 7.95176L8.67818 8.04181C8.67818 8.04181 8.64546 8.61888 8.83371 8.77441C8.83371 8.77441 8.87463 8.8931 8.80915 8.95038C8.74366 9.00766 8.09703 9.33508 8.09703 9.33508C8.09703 9.33508 7.92922 9.68298 7.93334 9.87943C7.93334 9.87943 7.77373 9.81802 7.79009 9.74026C7.80645 9.66249 7.90058 9.45784 7.87194 9.35964C7.8433 9.26144 7.73689 9.29008 7.73689 9.29008C7.73689 9.29008 7.68369 9.34736 7.76961 9.3842L7.74097 9.50696L7.39307 9.71162L7.47083 9.80574C7.47083 9.80574 7.47491 10.5261 7.90058 10.6202C7.90058 10.6202 8.12567 10.6365 8.39168 10.1291C8.39168 10.1291 8.53493 10.3828 8.48581 10.6038C8.48581 10.6038 8.95239 10.8576 9.59083 10.6365L9.59903 10.1945C9.59903 10.1945 9.69723 10.8739 10.0329 10.8084C10.0329 10.8084 10.9625 10.4506 10.8077 10.3146C10.4476 9.99807 10.0127 10.2655 10.0127 10.2655C9.9916 9.80579 9.95312 9.21114 9.89373 9.14678C9.79553 9.04038 9.49262 9.09766 9.43262 8.96125C9.37263 8.82485 9.38898 8.58471 9.45447 8.30641C9.51995 8.02812 9.1871 7.83167 9.1871 7.83167L8.69046 7.95176Z" fill="#FFBE3C"/>
<path d="M8.67839 8.04181C8.67839 8.04181 9.01261 8.12637 9.27455 8.02273L9.38915 8.30651H9.45464C9.45464 8.30651 9.61242 7.78137 9.40289 7.78751C9.40289 7.78751 9.40209 7.61703 9.03619 7.6242C8.72185 7.63034 8.61291 7.83444 8.67839 8.04181Z" fill="#464655"/>
<path d="M15.5034 14.6148C15.5034 14.6148 15.416 15.0023 15.4979 15.0459C15.5798 15.0895 16.0164 15.0895 16.0054 14.9968C15.9945 14.904 15.9345 14.5766 15.9345 14.5766L15.5034 14.6148Z" fill="#965032"/>
<path d="M14.7778 14.4074C14.7778 14.4074 14.8488 14.6966 14.7069 14.7076C14.565 14.7185 13.7629 14.713 13.741 14.6912C13.7192 14.6694 13.6919 14.6148 13.6919 14.6148L14.4341 14.4074H14.7778Z" fill="#965032"/>
<path d="M15.5892 10.8003C15.5892 10.8003 15.7842 11.2641 15.8552 12.8712C15.8741 13.2988 15.8224 13.1986 16.0353 14.5738L15.7827 14.7056C15.7091 14.744 15.6208 14.7412 15.5499 14.6982L15.304 14.5492C15.304 14.5492 15.4241 13.0104 15.0312 12.1263C15.0312 12.1263 14.8238 12.5083 14.8238 12.7921C14.8238 13.0759 14.8347 14.4401 14.8347 14.4401C14.8347 14.4401 14.3763 14.5165 14.1689 14.4947C14.1689 14.4947 14.2999 11.5342 14.4309 10.8371L15.5892 10.8003Z" fill="#EAF3F5"/>
<path d="M15.5521 10.6038C15.5521 10.6038 15.6299 10.6611 15.589 10.8003C15.589 10.8003 14.9914 11.0581 14.4307 10.8371C14.4307 10.8371 14.3693 10.7471 14.4471 10.6366L15.5521 10.6038Z" fill="#BE7855"/>
<path d="M15.3476 7.95176L15.3599 8.04181C15.3599 8.04181 15.3926 8.61888 15.2043 8.77441C15.2043 8.77441 15.1634 8.8931 15.2289 8.95038C15.2944 9.00766 15.941 9.33508 15.941 9.33508C15.941 9.33508 16.1088 9.68298 16.1047 9.87943C16.1047 9.87943 16.2643 9.81802 16.248 9.74026C16.2316 9.66249 16.1375 9.45784 16.1661 9.35964C16.1948 9.26144 16.3012 9.29008 16.3012 9.29008C16.3012 9.29008 16.3544 9.34736 16.2684 9.3842L16.297 9.50696L16.6449 9.71162L16.5672 9.80574C16.5672 9.80574 16.5631 10.5261 16.1374 10.6202C16.1374 10.6202 15.9123 10.6365 15.6463 10.1291C15.6463 10.1291 15.5031 10.3828 15.5522 10.6038C15.5522 10.6038 15.0856 10.8576 14.4472 10.6365L14.439 10.1945C14.439 10.1945 14.3408 10.8739 14.0052 10.8084C14.0052 10.8084 13.0755 10.4506 13.2303 10.3146C13.5904 9.99807 14.0253 10.2655 14.0253 10.2655C14.0464 9.80579 14.0849 9.21114 14.1443 9.14678C14.2425 9.04038 14.5454 9.09766 14.6054 8.96125C14.6654 8.82485 14.649 8.58471 14.5835 8.30641C14.5181 8.02812 14.8509 7.83167 14.8509 7.83167L15.3476 7.95176Z" fill="#965032"/>
<path d="M15.3601 8.04181C15.3601 8.04181 15.0259 8.12637 14.7639 8.02273L14.6493 8.30651H14.5838C14.5838 8.30651 14.4261 7.78137 14.6356 7.78751C14.6356 7.78751 14.6364 7.61703 15.0023 7.6242C15.3166 7.63034 15.4256 7.83444 15.3601 8.04181Z" fill="#464655"/>
<path d="M9.74503 8.26053C9.7177 8.19406 9.76349 8.17578 9.76349 8.17578C9.76349 8.17578 10.0948 7.99396 10.1333 7.99705C10.197 8.00221 10.275 8.11414 10.275 8.20967C10.275 8.3052 10.3994 8.55317 10.6552 8.61481C10.6552 8.61481 10.336 9.04863 9.89292 8.98934C9.89292 8.98934 9.92263 8.69257 9.74503 8.26053Z" fill="#EAF3F5"/>
<path d="M10.2095 10.2928C10.1113 10.2928 10.0317 10.3777 10.0317 10.4824V12.6502C10.0317 13.1741 10.2773 15.0076 11.9963 15.5315C13.7152 15.0076 13.9608 13.1741 13.9608 12.6502V10.4824C13.9608 10.3777 13.8812 10.2928 13.783 10.2928H10.2095Z" fill="#82AFFF"/>
<path d="M13.9606 12.6502V10.4824C13.9606 10.3777 13.8811 10.2928 13.7829 10.2928H11.9961V12.1264L13.7229 13.8531C13.914 13.3485 13.9606 12.8768 13.9606 12.6502Z" fill="#FFE15A"/>
<path d="M10.0317 12.6502V10.4824C10.0317 10.3777 10.1113 10.2928 10.2095 10.2928H11.9963V12.1264L10.2695 13.8531C10.0783 13.3485 10.0317 12.8768 10.0317 12.6502Z" fill="#EAF3F5"/>
<path d="M10.8374 13.797L11.2919 14.2777H12.5579L12.8263 13.9337L12.5176 14.0572H11.4944L10.8374 13.797Z" fill="#8C5A28"/>
<path d="M11.3271 13.1767L11.2577 13.8764L10.9419 13.7559C10.9419 13.7559 11.0872 13.4186 11.3271 13.1767Z" fill="#F5F5F5"/>
<path d="M11.9949 12.8995H11.9482V14.0911H11.9949V12.8995Z" fill="#8C5A28"/>
<path d="M12.4266 13.0003H12.3799V14.091H12.4266V13.0003Z" fill="#8C5A28"/>
<path d="M11.5648 13.0003H11.5181V14.091H11.5648V13.0003Z" fill="#8C5A28"/>
<path d="M12.1468 13.9779H11.8004C11.7877 13.9779 11.7773 13.9675 11.7773 13.9548V13.7495C11.7773 13.7368 11.7877 13.7265 11.8004 13.7265H12.1468C12.1595 13.7265 12.1698 13.7368 12.1698 13.7495V13.9548C12.1698 13.9675 12.1595 13.9779 12.1468 13.9779Z" fill="#F5F5F5"/>
<path d="M12.1468 13.6427H11.8004C11.7877 13.6427 11.7773 13.6324 11.7773 13.6197V13.4143C11.7773 13.4016 11.7877 13.3913 11.8004 13.3913H12.1468C12.1595 13.3913 12.1698 13.4016 12.1698 13.4143V13.6197C12.1698 13.6324 12.1595 13.6427 12.1468 13.6427Z" fill="#F5F5F5"/>
<path d="M12.1468 13.334H11.8004C11.7877 13.334 11.7773 13.3237 11.7773 13.311V13.1056C11.7773 13.0929 11.7877 13.0826 11.8004 13.0826H12.1468C12.1595 13.0826 12.1698 13.0929 12.1698 13.1056V13.311C12.1698 13.3237 12.1595 13.334 12.1468 13.334Z" fill="#F5F5F5"/>
<path d="M12.5524 13.9779H12.2589C12.2462 13.9779 12.2358 13.9675 12.2358 13.9548V13.7495C12.2358 13.7368 12.2462 13.7265 12.2589 13.7265H12.5524C12.5651 13.7265 12.5754 13.7368 12.5754 13.7495V13.9548C12.5754 13.9675 12.5651 13.9779 12.5524 13.9779Z" fill="#F5F5F5"/>
<path d="M12.5524 13.6693H12.2589C12.2462 13.6693 12.2358 13.659 12.2358 13.6463V13.4803C12.2358 13.4676 12.2462 13.4573 12.2589 13.4573H12.5524C12.5651 13.4573 12.5754 13.4676 12.5754 13.4803V13.6463C12.5754 13.659 12.5651 13.6693 12.5524 13.6693Z" fill="#F5F5F5"/>
<path d="M12.5524 13.3634H12.2589C12.2462 13.3634 12.2358 13.3531 12.2358 13.3404V13.2085C12.2358 13.1958 12.2462 13.1854 12.2589 13.1854H12.5524C12.5651 13.1854 12.5754 13.1958 12.5754 13.2085V13.3404C12.5754 13.3531 12.5651 13.3634 12.5524 13.3634Z" fill="#F5F5F5"/>
<path d="M11.6901 13.9779H11.3966C11.3838 13.9779 11.3735 13.9675 11.3735 13.9548V13.7495C11.3735 13.7368 11.3838 13.7265 11.3966 13.7265H11.6901C11.7028 13.7265 11.7131 13.7368 11.7131 13.7495V13.9548C11.7131 13.9675 11.7028 13.9779 11.6901 13.9779Z" fill="#F5F5F5"/>
<path d="M11.6901 13.6693H11.3966C11.3838 13.6693 11.3735 13.659 11.3735 13.6463V13.4803C11.3735 13.4676 11.3838 13.4573 11.3966 13.4573H11.6901C11.7028 13.4573 11.7131 13.4676 11.7131 13.4803V13.6463C11.7131 13.659 11.7028 13.6693 11.6901 13.6693Z" fill="#F5F5F5"/>
<path d="M11.6901 13.3634H11.3966C11.3838 13.3634 11.3735 13.3531 11.3735 13.3404V13.2085C11.3735 13.1958 11.3838 13.1854 11.3966 13.1854H11.6901C11.7028 13.1854 11.7131 13.1958 11.7131 13.2085V13.3404C11.7131 13.3531 11.7028 13.3634 11.6901 13.3634Z" fill="#F5F5F5"/>
<path d="M12.3838 13.0003V13.1413L12.1763 13.0695L12.3838 13.0003Z" fill="#FF4B55"/>
<path d="M11.5224 13.0003V13.1413L11.3149 13.0695L11.5224 13.0003Z" fill="#FF4B55"/>
<path d="M11.9536 12.899V13.04L11.7461 12.9683L11.9536 12.899Z" fill="#FF4B55"/>
<path d="M13.5552 14.2218H10.437C10.4835 14.3101 10.5344 14.3976 10.5916 14.4837H13.4007C13.4579 14.3976 13.5088 14.3101 13.5552 14.2218Z" fill="#4173CD"/>
<path d="M13.4005 14.4837H10.5913C10.7154 14.6705 10.8674 14.8479 11.0498 15.0076H12.942C13.1243 14.8479 13.2764 14.6705 13.4005 14.4837Z" fill="#73AF00"/>
<path d="M11.0498 15.0076C11.3012 15.2278 11.6097 15.4137 11.9959 15.5315C12.3822 15.4137 12.6906 15.2279 12.942 15.0076H11.0498Z" fill="#FFE15A"/>
<path d="M11.6597 12.2803C11.6597 12.2803 11.6405 12.287 11.6199 12.2846C11.604 12.2778 11.5714 12.2767 11.5911 12.2162C11.6006 12.1862 11.6207 12.1439 11.6061 12.133C11.5943 12.1193 11.5816 12.1046 11.568 12.0888C11.5408 12.0573 11.5101 12.0217 11.4766 11.983C11.4078 11.9071 11.3262 11.82 11.2311 11.734C11.1836 11.6909 11.1346 11.6464 11.0848 11.6011C11.0332 11.5576 10.9854 11.5088 10.9292 11.4683C10.8974 11.4516 10.857 11.4432 10.8216 11.4301C10.7871 11.4162 10.7655 11.39 10.7402 11.3678C10.6908 11.3221 10.6422 11.2772 10.5951 11.2337C10.4995 11.1482 10.4156 11.0633 10.3438 10.9904C10.2742 10.9208 10.2179 10.8602 10.1783 10.8162C10.1404 10.7742 10.1428 10.7103 10.1835 10.6711L10.2999 10.5587C10.3405 10.5195 10.4044 10.5194 10.4451 10.5587C10.4877 10.5999 10.5462 10.6584 10.6133 10.7304C10.6836 10.8048 10.7655 10.8917 10.8475 10.9902C10.8893 11.0388 10.9324 11.089 10.9762 11.1401C10.9975 11.1661 11.0229 11.1886 11.0356 11.2237C11.0475 11.2595 11.0544 11.3002 11.07 11.3325C11.1085 11.3902 11.1555 11.4396 11.1972 11.4928C11.2406 11.5442 11.2833 11.5948 11.3247 11.6437C11.4072 11.7419 11.4915 11.8265 11.5648 11.898C11.6023 11.9329 11.6368 11.9648 11.6673 11.9932C11.6826 12.0073 11.6968 12.0206 11.71 12.0328C11.7205 12.0477 11.7635 12.0292 11.7937 12.0207C11.8549 12.0032 11.8548 12.0359 11.8611 12.052C11.8627 12.0727 11.8553 12.0917 11.8553 12.0917L11.6597 12.2803Z" fill="#BE7855"/>
<path d="M10.3769 12.4865C10.3567 12.4865 10.3363 12.4804 10.3187 12.4673C10.2751 12.4351 10.2658 12.3737 10.298 12.33L11.2311 11.064C11.2632 11.0205 11.3244 11.0108 11.3685 11.0433C11.4121 11.0756 11.4214 11.1369 11.3892 11.1807L10.4561 12.4466C10.4369 12.4727 10.4071 12.4865 10.3769 12.4865Z" fill="#965032"/>
<path d="M11.1245 10.9804L11.6102 11.3024L11.8175 11.0131L11.3646 10.6475L11.1245 10.9804Z" fill="#F5F5F5"/>
<path d="M12.415 10.8559L13.6596 12.3907C13.6596 12.3907 13.8345 12.3987 13.8107 12.2595L12.5224 10.7486L12.415 10.8559Z" fill="#965032"/>
<path d="M12.1367 11.0666C12.1367 11.0666 12.4866 11.003 12.6337 10.7843L12.8325 11.0189C12.8325 11.0189 12.5065 11.2495 12.4747 11.5C12.4747 11.5 12.2083 11.4285 12.1367 11.0666Z" fill="#EAF3F5"/>
<path d="M13.4785 10.9155C13.4556 10.9155 13.4336 10.9031 13.4222 10.8815C13.3868 10.8144 13.3807 10.7537 13.404 10.701C13.4367 10.6272 13.5136 10.6056 13.5222 10.6034C13.5569 10.5957 13.5909 10.6153 13.5997 10.6491C13.6084 10.6829 13.5883 10.7175 13.5546 10.7264C13.5476 10.7287 13.5267 10.7378 13.5201 10.753C13.5139 10.7679 13.5191 10.7925 13.5348 10.8223C13.5512 10.8534 13.5392 10.8919 13.508 10.9083C13.4986 10.9133 13.4885 10.9155 13.4785 10.9155Z" fill="#965032"/>
<path d="M12.4559 11.8624C12.4559 11.8395 12.4435 11.8175 12.4219 11.8061C12.3548 11.7707 12.2941 11.7646 12.2414 11.788C12.1676 11.8206 12.146 11.8976 12.1438 11.9061C12.1361 11.9408 12.1557 11.9749 12.1895 11.9837C12.2233 11.9924 12.2578 11.9722 12.2668 11.9386C12.269 11.9315 12.2782 11.9106 12.2933 11.904C12.3082 11.8978 12.3328 11.903 12.3627 11.9187C12.3937 11.9351 12.4322 11.9232 12.4486 11.892C12.4537 11.8825 12.4559 11.8725 12.4559 11.8624Z" fill="#965032"/>
<path d="M13.5232 10.7724L12.3516 11.9228L12.6273 12.2303L13.7724 11.0746L13.5232 10.7724Z" fill="#EAF3F5"/>
<path d="M7.57192 9.11412C7.65039 9.09593 7.71925 9.20144 7.64833 9.2778C7.57741 9.35416 7.37238 9.49221 7.30999 9.47969C7.20077 9.45789 7.12446 9.2178 7.57192 9.11412Z" fill="#FFBE3C"/>
<path d="M16.4616 9.22459C16.3888 9.20641 16.325 9.31192 16.3908 9.38828C16.4565 9.46464 16.6466 9.60268 16.7044 9.59017C16.8056 9.56837 16.8764 9.32828 16.4616 9.22459Z" fill="#965032"/>
<path d="M13.7826 10.2928C13.8807 10.2928 13.9603 10.3777 13.9603 10.4824V12.6502C13.9603 13.1741 13.7148 15.0076 11.9958 15.5315C10.2769 15.0076 10.0313 13.1741 10.0313 12.6502V10.4824C10.0313 10.3777 10.1109 10.2928 10.2091 10.2928H13.7826ZM13.7826 10.1619H10.2091C10.0389 10.1619 9.90039 10.3057 9.90039 10.4824V12.6502C9.90039 12.7753 9.91727 13.4357 10.2504 14.1464C10.6046 14.902 11.195 15.4243 11.9577 15.6567L11.9958 15.6684L12.034 15.6567C12.7967 15.4243 13.3871 14.902 13.7412 14.1464C14.0744 13.4357 14.0913 12.7753 14.0913 12.6502V10.4824C14.0913 10.3056 13.9529 10.1619 13.7826 10.1619Z" fill="#464655"/>
<path d="M15.1408 15.5622C14.5842 15.3756 13.9871 15.4617 13.424 15.8374C12.7042 16.3173 12.227 16.3173 11.9977 16.3173C11.7684 16.3173 11.2912 16.3173 10.5714 15.8374C10.0083 15.462 9.41094 15.3757 8.85449 15.5622V16.1237C9.20516 15.9561 9.69955 15.8859 10.2808 16.2733C11.1326 16.8412 11.7388 16.8412 11.9977 16.8412C12.2565 16.8412 12.8628 16.8412 13.7145 16.2733C14.2958 15.8855 14.7902 15.9559 15.1408 16.1236V15.5622Z" fill="#EAF3F5"/>
<path d="M11.9977 18.5437C8.31472 18.5437 5.31836 15.5474 5.31836 11.8644C5.31836 8.1815 8.31472 5.18513 11.9977 5.18513C15.6806 5.18513 18.6769 8.1815 18.6769 11.8644C18.6769 15.5474 15.6806 18.5437 11.9977 18.5437ZM11.9977 5.44702C8.45914 5.44702 5.58029 8.32573 5.58029 11.8644C5.58029 15.403 8.45914 18.2817 11.9977 18.2817C15.5362 18.2817 18.415 15.403 18.415 11.8644C18.415 8.32573 15.5362 5.44702 11.9977 5.44702Z" fill="#965032"/>
<path d="M4.68713 12.421C4.68713 12.421 4.65985 11.6025 5.44565 11.6025C5.44565 11.6025 5.46201 11.9245 5.17828 12.0663C4.94878 12.181 4.68713 12.421 4.68713 12.421Z" fill="#73AF00"/>
<path d="M6.2045 12.421C6.2045 12.421 6.23178 11.6025 5.44598 11.6025C5.44598 11.6025 5.42962 11.9245 5.71335 12.0663C5.94285 12.181 6.2045 12.421 6.2045 12.421Z" fill="#73AF00"/>
<path d="M19.2953 11.6025C19.2953 11.6025 19.3226 12.421 18.5368 12.421C18.5368 12.421 18.5204 12.099 18.8042 11.9572C19.0336 11.8424 19.2953 11.6025 19.2953 11.6025Z" fill="#73AF00"/>
<path d="M17.7784 11.6025C17.7784 11.6025 17.7512 12.421 18.537 12.421C18.537 12.421 18.5533 12.099 18.2696 11.9572C18.0401 11.8424 17.7784 11.6025 17.7784 11.6025Z" fill="#73AF00"/>
<path d="M12.4006 19.3159C12.4006 19.3159 11.582 19.3432 11.582 18.5573C11.582 18.5573 11.904 18.541 12.0459 18.8247C12.1606 19.0542 12.4006 19.3159 12.4006 19.3159Z" fill="#73AF00"/>
<path d="M12.4006 17.7986C12.4006 17.7986 11.582 17.7714 11.582 18.5572C11.582 18.5572 11.904 18.5735 12.0459 18.2898C12.1606 18.0603 12.4006 17.7986 12.4006 17.7986Z" fill="#73AF00"/>
<path d="M11.582 4.70761C11.582 4.70761 12.4006 4.68033 12.4006 5.46614C12.4006 5.46614 12.0786 5.48249 11.9367 5.19876C11.822 4.96927 11.582 4.70761 11.582 4.70761Z" fill="#73AF00"/>
<path d="M11.582 6.22481C11.582 6.22481 12.4006 6.25209 12.4006 5.46628C12.4006 5.46628 12.0786 5.44992 11.9367 5.73365C11.822 5.96315 11.582 6.22481 11.582 6.22481Z" fill="#73AF00"/>
<path d="M7.11577 17.4659C7.11577 17.4659 6.5177 16.9064 7.0733 16.3508C7.0733 16.3508 7.31255 16.5669 7.21219 16.8678C7.1311 17.1112 7.11577 17.4659 7.11577 17.4659Z" fill="#73AF00"/>
<path d="M8.18888 16.3931C8.18888 16.3931 7.62938 15.795 7.07373 16.3506C7.07373 16.3506 7.28982 16.5899 7.5908 16.4895C7.83413 16.4084 8.18888 16.3931 8.18888 16.3931Z" fill="#73AF00"/>
<path d="M16.8667 6.55756C16.8667 6.55756 17.4647 7.11706 16.9091 7.67271C16.9091 7.67271 16.6698 7.45662 16.7702 7.15564C16.8513 6.91226 16.8667 6.55756 16.8667 6.55756Z" fill="#73AF00"/>
<path d="M15.7939 7.63038C15.7939 7.63038 16.3534 8.22846 16.9091 7.67285C16.9091 7.67285 16.693 7.43361 16.392 7.53396C16.1487 7.61501 15.7939 7.63038 15.7939 7.63038Z" fill="#73AF00"/>
<path d="M17.4457 16.8871C17.4457 16.8871 16.8862 17.4852 16.3306 16.9296C16.3306 16.9296 16.5467 16.6903 16.8476 16.7907C17.091 16.8718 17.4457 16.8871 17.4457 16.8871Z" fill="#73AF00"/>
<path d="M16.3726 15.8143C16.3726 15.8143 15.7745 16.3738 16.3301 16.9294C16.3301 16.9294 16.5694 16.7134 16.469 16.4124C16.388 16.169 16.3726 15.8143 16.3726 15.8143Z" fill="#73AF00"/>
<path d="M6.53711 7.13632C6.53711 7.13632 7.0966 6.53825 7.65226 7.09385C7.65226 7.09385 7.43616 7.3331 7.13518 7.23274C6.89181 7.15169 6.53711 7.13632 6.53711 7.13632Z" fill="#73AF00"/>
<path d="M7.60978 8.20918C7.60978 8.20918 8.20785 7.64969 7.65225 7.09404C7.65225 7.09404 7.413 7.31013 7.51336 7.61111C7.59436 7.85444 7.60978 8.20918 7.60978 8.20918Z" fill="#73AF00"/>
<path d="M5.40008 15.185C5.40008 15.185 5.06165 14.4392 5.78759 14.1385C5.78759 14.1385 5.92592 14.4297 5.71808 14.6693C5.54999 14.8632 5.40008 15.185 5.40008 15.185Z" fill="#73AF00"/>
<path d="M6.80163 14.6044C6.80163 14.6044 6.51359 13.8377 5.7876 14.1384C5.7876 14.1384 5.89569 14.4421 6.21214 14.4646C6.46803 14.4828 6.80163 14.6044 6.80163 14.6044Z" fill="#73AF00"/>
<path d="M18.583 8.83843C18.583 8.83843 18.9214 9.5842 18.1955 9.88495C18.1955 9.88495 18.0572 9.59377 18.265 9.3541C18.4331 9.16032 18.583 8.83843 18.583 8.83843Z" fill="#73AF00"/>
<path d="M17.1812 9.41906C17.1812 9.41906 17.4692 10.1857 18.1952 9.88504C18.1952 9.88504 18.0871 9.58134 17.7706 9.55884C17.5147 9.54061 17.1812 9.41906 17.1812 9.41906Z" fill="#73AF00"/>
<path d="M15.1647 18.6032C15.1647 18.6032 14.4189 18.9417 14.1182 18.2157C14.1182 18.2157 14.4093 18.0774 14.649 18.2852C14.8428 18.4533 15.1647 18.6032 15.1647 18.6032Z" fill="#73AF00"/>
<path d="M14.5842 17.2016C14.5842 17.2016 13.8175 17.4896 14.1182 18.2156C14.1182 18.2156 14.422 18.1075 14.4445 17.791C14.4626 17.5351 14.5842 17.2016 14.5842 17.2016Z" fill="#73AF00"/>
<path d="M8.81787 5.42025C8.81787 5.42025 9.56365 5.08182 9.86439 5.80776C9.86439 5.80776 9.57321 5.94609 9.33354 5.73825C9.13976 5.57016 8.81787 5.42025 8.81787 5.42025Z" fill="#73AF00"/>
<path d="M9.39844 6.82193C9.39844 6.82193 10.1651 6.53388 9.86442 5.80789C9.86442 5.80789 9.56072 5.91598 9.53822 6.23243C9.52003 6.48832 9.39844 6.82193 9.39844 6.82193Z" fill="#73AF00"/>
<path d="M9.57446 18.9165C9.57446 18.9165 8.80778 18.6285 9.10848 17.9025C9.10848 17.9025 9.41218 18.0106 9.43468 18.327C9.45282 18.5829 9.57446 18.9165 9.57446 18.9165Z" fill="#73AF00"/>
<path d="M10.1549 17.5148C10.1549 17.5148 9.40915 17.1763 9.1084 17.9023C9.1084 17.9023 9.39958 18.0406 9.63925 17.8328C9.83303 17.6647 10.1549 17.5148 10.1549 17.5148Z" fill="#73AF00"/>
<path d="M14.4082 5.10698C14.4082 5.10698 15.1749 5.39503 14.8742 6.12102C14.8742 6.12102 14.5705 6.01293 14.548 5.69648C14.5298 5.44059 14.4082 5.10698 14.4082 5.10698Z" fill="#73AF00"/>
<path d="M13.8276 6.50872C13.8276 6.50872 14.5734 6.84715 14.8742 6.12121C14.8742 6.12121 14.583 5.98288 14.3433 6.19072C14.1495 6.35877 13.8276 6.50872 13.8276 6.50872Z" fill="#73AF00"/>
<path d="M18.8959 14.4288C18.8959 14.4288 18.6078 15.1955 17.8818 14.8948C17.8818 14.8948 17.9899 14.5911 18.3064 14.5686C18.5623 14.5504 18.8959 14.4288 18.8959 14.4288Z" fill="#73AF00"/>
<path d="M17.4943 13.8482C17.4943 13.8482 17.1559 14.594 17.8818 14.8947C17.8818 14.8947 18.0202 14.6035 17.8123 14.3639C17.6443 14.17 17.4943 13.8482 17.4943 13.8482Z" fill="#73AF00"/>
<path d="M5.08643 9.59471C5.08643 9.59471 5.37447 8.82803 6.10046 9.12873C6.10046 9.12873 5.99237 9.43243 5.67592 9.45493C5.42003 9.47312 5.08643 9.59471 5.08643 9.59471Z" fill="#73AF00"/>
<path d="M6.48833 10.1753C6.48833 10.1753 6.82676 9.42952 6.10077 9.12877C6.10077 9.12877 5.96244 9.41996 6.17028 9.65963C6.33833 9.85345 6.48833 10.1753 6.48833 10.1753Z" fill="#73AF00"/>
<path d="M4.90752 13.8381C4.90752 13.8381 4.72106 13.0406 5.49177 12.8873C5.49177 12.8873 5.57066 13.1999 5.32002 13.3944C5.11738 13.5517 4.90752 13.8381 4.90752 13.8381Z" fill="#73AF00"/>
<path d="M6.39535 13.5421C6.39535 13.5421 6.26241 12.734 5.4917 12.8873C5.4917 12.8873 5.53843 13.2062 5.84443 13.29C6.09188 13.3578 6.39535 13.5421 6.39535 13.5421Z" fill="#73AF00"/>
<path d="M19.0755 10.1854C19.0755 10.1854 19.262 10.9829 18.4913 11.1362C18.4913 11.1362 18.4124 10.8236 18.663 10.6291C18.8657 10.4718 19.0755 10.1854 19.0755 10.1854Z" fill="#73AF00"/>
<path d="M17.5874 10.4813C17.5874 10.4813 17.7203 11.2895 18.491 11.1362C18.491 11.1362 18.4443 10.8172 18.1383 10.7334C17.8909 10.6656 17.5874 10.4813 17.5874 10.4813Z" fill="#73AF00"/>
<path d="M13.8175 19.0957C13.8175 19.0957 13.02 19.2821 12.8667 18.5114C12.8667 18.5114 13.1793 18.4325 13.3738 18.6832C13.5311 18.8858 13.8175 19.0957 13.8175 19.0957Z" fill="#73AF00"/>
<path d="M13.5218 17.6076C13.5218 17.6076 12.7137 17.7406 12.867 18.5113C12.867 18.5113 13.186 18.4645 13.2697 18.1585C13.3375 17.9111 13.5218 17.6076 13.5218 17.6076Z" fill="#73AF00"/>
<path d="M10.165 4.92778C10.165 4.92778 10.9625 4.74131 11.1158 5.51202C11.1158 5.51202 10.8033 5.59091 10.6088 5.34027C10.4514 5.13764 10.165 4.92778 10.165 4.92778Z" fill="#73AF00"/>
<path d="M10.4609 6.41586C10.4609 6.41586 11.2691 6.28293 11.1158 5.51221C11.1158 5.51221 10.7968 5.55895 10.713 5.86495C10.6452 6.1124 10.4609 6.41586 10.4609 6.41586Z" fill="#73AF00"/>
<path d="M8.27372 18.3123C8.27372 18.3123 7.57797 17.8802 8.01455 17.2269C8.01455 17.2269 8.29135 17.3921 8.25169 17.7069C8.21958 17.9614 8.27372 18.3123 8.27372 18.3123Z" fill="#73AF00"/>
<path d="M9.11667 17.0508C9.11667 17.0508 8.45124 16.5733 8.01465 17.2267C8.01465 17.2267 8.27326 17.4191 8.54888 17.2621C8.77177 17.135 9.11667 17.0508 9.11667 17.0508Z" fill="#73AF00"/>
<path d="M15.709 5.71119C15.709 5.71119 16.4047 6.14328 15.9682 6.79662C15.9682 6.79662 15.6914 6.63134 15.731 6.31658C15.7631 6.06209 15.709 5.71119 15.709 5.71119Z" fill="#73AF00"/>
<path d="M14.8662 6.97273C14.8662 6.97273 15.5316 7.45019 15.9682 6.79681C15.9682 6.79681 15.7096 6.60434 15.434 6.76142C15.2112 6.88845 14.8662 6.97273 14.8662 6.97273Z" fill="#73AF00"/>
<path d="M18.292 15.7294C18.292 15.7294 17.8599 16.4252 17.2065 15.9886C17.2065 15.9886 17.3718 15.7118 17.6866 15.7514C17.941 15.7836 18.292 15.7294 18.292 15.7294Z" fill="#73AF00"/>
<path d="M17.0306 14.8865C17.0306 14.8865 16.5532 15.5519 17.2065 15.9885C17.2065 15.9885 17.399 15.7299 17.2419 15.4543C17.1149 15.2314 17.0306 14.8865 17.0306 14.8865Z" fill="#73AF00"/>
<path d="M5.69092 8.29408C5.69092 8.29408 6.12301 7.59832 6.77635 8.03491C6.77635 8.03491 6.61107 8.3117 6.2963 8.27205C6.04182 8.23994 5.69092 8.29408 5.69092 8.29408Z" fill="#73AF00"/>
<path d="M6.9522 9.13698C6.9522 9.13698 7.42966 8.47155 6.77628 8.03496C6.77628 8.03496 6.58381 8.29357 6.74089 8.56919C6.86787 8.79208 6.9522 9.13698 6.9522 9.13698Z" fill="#73AF00"/>
<path d="M6.14586 16.41C6.14586 16.41 5.6684 15.7446 6.32178 15.308C6.32178 15.308 6.51425 15.5666 6.35717 15.8422C6.2301 16.0651 6.14586 16.41 6.14586 16.41Z" fill="#73AF00"/>
<path d="M7.4072 15.5671C7.4072 15.5671 6.97511 14.8713 6.32178 15.3079C6.32178 15.3079 6.48706 15.5847 6.80182 15.5451C7.05625 15.5129 7.4072 15.5671 7.4072 15.5671Z" fill="#73AF00"/>
<path d="M17.837 7.6135C17.837 7.6135 18.3144 8.27893 17.661 8.71552C17.661 8.71552 17.4686 8.45691 17.6257 8.18129C17.7527 7.9584 17.837 7.6135 17.837 7.6135Z" fill="#73AF00"/>
<path d="M16.5757 8.45641C16.5757 8.45641 17.0078 9.15217 17.6611 8.71558C17.6611 8.71558 17.4958 8.43878 17.1811 8.47844C16.9266 8.51055 16.5757 8.45641 16.5757 8.45641Z" fill="#73AF00"/>
<path d="M16.3896 17.8575C16.3896 17.8575 15.7242 18.335 15.2876 17.6816C15.2876 17.6816 15.5462 17.4891 15.8218 17.6462C16.0447 17.7733 16.3896 17.8575 16.3896 17.8575Z" fill="#73AF00"/>
<path d="M15.5467 16.596C15.5467 16.596 14.8509 17.0281 15.2875 17.6815C15.2875 17.6815 15.5643 17.5162 15.5246 17.2014C15.4925 16.9469 15.5467 16.596 15.5467 16.596Z" fill="#73AF00"/>
<path d="M7.59326 6.16597C7.59326 6.16597 8.25869 5.6885 8.69528 6.34189C8.69528 6.34189 8.43667 6.53435 8.16105 6.37728C7.93816 6.2502 7.59326 6.16597 7.59326 6.16597Z" fill="#73AF00"/>
<path d="M8.43604 7.42746C8.43604 7.42746 9.13179 6.99537 8.6952 6.34203C8.6952 6.34203 8.41841 6.50731 8.45807 6.82207C8.49022 7.07655 8.43604 7.42746 8.43604 7.42746Z" fill="#73AF00"/>
<path d="M10.9676 19.2554C10.9676 19.2554 10.1595 19.1224 10.3128 18.3517C10.3128 18.3517 10.6318 18.3984 10.7155 18.7044C10.7833 18.9519 10.9676 19.2554 10.9676 19.2554Z" fill="#73AF00"/>
<path d="M11.2638 17.7673C11.2638 17.7673 10.4663 17.5809 10.313 18.3516C10.313 18.3516 10.6255 18.4305 10.8201 18.1798C10.9774 17.9771 11.2638 17.7673 11.2638 17.7673Z" fill="#73AF00"/>
<path d="M13.0151 4.76813C13.0151 4.76813 13.8233 4.90106 13.67 5.67177C13.67 5.67177 13.351 5.62504 13.2672 5.31904C13.1994 5.07159 13.0151 4.76813 13.0151 4.76813Z" fill="#73AF00"/>
<path d="M12.7188 6.25616C12.7188 6.25616 13.5162 6.44262 13.6696 5.67191C13.6696 5.67191 13.357 5.59302 13.1625 5.84366C13.0052 6.04635 12.7188 6.25616 12.7188 6.25616Z" fill="#73AF00"/>
<path d="M19.2352 13.0353C19.2352 13.0353 19.1023 13.8434 18.3315 13.6901C18.3315 13.6901 18.3783 13.3711 18.6843 13.2874C18.9317 13.2196 19.2352 13.0353 19.2352 13.0353Z" fill="#73AF00"/>
<path d="M17.7469 12.7393C17.7469 12.7393 17.5604 13.5368 18.3311 13.6901C18.3311 13.6901 18.41 13.3775 18.1594 13.183C17.9566 13.0257 17.7469 12.7393 17.7469 12.7393Z" fill="#73AF00"/>
<path d="M4.74756 10.9882C4.74756 10.9882 4.88049 10.1801 5.65121 10.3334C5.65121 10.3334 5.60447 10.6523 5.29848 10.7361C5.05102 10.8039 4.74756 10.9882 4.74756 10.9882Z" fill="#73AF00"/>
<path d="M6.23567 11.2842C6.23567 11.2842 6.42213 10.4867 5.65142 10.3334C5.65142 10.3334 5.57253 10.6459 5.82317 10.8404C6.02586 10.9978 6.23567 11.2842 6.23567 11.2842Z" fill="#73AF00"/>
</g>
<defs>
<clipPath id="clip0_72_497">
<path d="M-0.00146484 2C-0.00146484 0.89543 0.893966 0 1.99854 0H21.9985C23.1031 0 23.9985 0.895431 23.9985 2V22C23.9985 23.1046 23.1031 24 21.9985 24H1.99853C0.893965 24 -0.00146484 23.1046 -0.00146484 22V2Z" fill="white"/>
</clipPath>
</defs>
</svg>
