<svg width="24" height="24" viewBox="0 0 24 24" fill="none" xmlns="http://www.w3.org/2000/svg">
<g clip-path="url(#clip0_72_811)">
<path d="M24.0017 6.10352e-05H0.00195312V23.9998H24.0017V6.10352e-05Z" fill="#41479B"/>
<path d="M0.00195312 23.9998L24.0017 6.10352e-05H0.00195312V23.9998Z" fill="#F5F5F5"/>
<path d="M10.5384 6.10352e-05H0.00195312V10.5365L10.5384 6.10352e-05Z" fill="#FFE15A"/>
<path d="M9.21194 10.4642C9.02416 9.21087 8.0359 8.22261 6.78266 8.03488L6.35109 7.17164L5.91951 8.03488C4.66623 8.22261 3.67797 9.21087 3.49024 10.4642L2.62695 10.8957L3.49015 11.3273C3.67793 12.5806 4.66618 13.5688 5.91942 13.7566L6.351 14.6198L6.78257 13.7566C8.03585 13.5688 9.02411 12.5806 9.21184 11.3273L10.075 10.8957L9.21194 10.4642ZM6.35104 13.3785C4.97987 13.3785 3.86828 12.2669 3.86828 10.8958C3.86828 9.5246 4.97982 8.41302 6.35104 8.41302C7.72226 8.41302 8.8338 9.52455 8.8338 10.8958C8.8338 12.267 7.72222 13.3785 6.35104 13.3785Z" fill="#464655"/>
<path d="M6.35112 9.30457L6.79666 10.1241L7.72909 10.1002L7.24215 10.8957L7.72909 11.6913L6.79666 11.6674L6.35112 12.4869L5.90562 11.6674L4.97314 11.6913L5.46008 10.8957L4.97314 10.1002L5.90562 10.1241L6.35112 9.30457Z" fill="#FF4B55"/>
</g>
<defs>
<clipPath id="clip0_72_811">
<path d="M0 2C0 0.895432 0.895431 0 2 0H21.9998C23.1043 0 23.9998 0.895431 23.9998 2V21.9998C23.9998 23.1043 23.1043 23.9998 21.9998 23.9998H2C0.895432 23.9998 0 23.1043 0 21.9998V2Z" fill="white"/>
</clipPath>
</defs>
</svg>
