<svg width="24" height="24" viewBox="0 0 24 24" fill="none" xmlns="http://www.w3.org/2000/svg">
<g clip-path="url(#clip0_72_907)">
<path d="M24.0003 6.10352e-05H0.000488281V23.9998H24.0003V6.10352e-05Z" fill="#41479B"/>
<path d="M17.3255 11.2752H13.7041C13.7041 11.2752 13.7041 15.9618 13.7041 17.879C13.7041 19.3702 17.3255 20.8614 17.3255 20.8614C17.3255 20.8614 20.947 19.3702 20.947 17.879C20.947 15.9618 20.947 11.2752 20.947 11.2752H17.3255Z" fill="#73AF00"/>
<path d="M15.2056 16.3141C15.2056 16.3141 15.1853 16.244 15.2034 16.1807C15.2215 16.1174 15.1749 16.0593 15.1649 16.0043C15.1378 15.8551 15.2645 15.8167 15.2712 15.6832C15.2712 15.6832 15.3617 15.7759 15.3277 15.8641C15.2938 15.9524 15.3775 15.9659 15.3662 16.0496C15.3549 16.1332 15.2622 16.2215 15.2712 16.2961L15.2056 16.3141Z" fill="#FF4B55"/>
<path d="M16.6294 16.1724C16.5555 16.0799 16.4257 16.1795 16.3307 16.252C16.3175 16.2622 16.3063 16.2699 16.2946 16.2784L15.9441 15.7609C15.954 15.7461 15.961 15.7294 15.961 15.7103C15.961 15.6587 15.9193 15.617 15.8677 15.617C15.8162 15.617 15.7744 15.6587 15.7744 15.7103C15.7744 15.7294 15.7815 15.7461 15.7913 15.7609L15.4299 16.2946H15.1739C15.1739 16.2946 15.1633 16.4537 15.4428 16.473C15.4788 16.5276 15.5302 16.571 15.5918 16.5956C15.5629 16.6003 15.5395 16.6226 15.5395 16.6529V16.6902C15.5395 16.6926 15.5418 16.694 15.5421 16.6963H16.1932C16.1935 16.694 16.1957 16.6926 16.1957 16.6902V16.6529C16.1957 16.6222 16.172 16.5995 16.1426 16.5952C16.2516 16.5514 16.3281 16.4494 16.341 16.3282C16.3511 16.3207 16.3606 16.3139 16.3716 16.3055C16.4403 16.2527 16.5438 16.1724 16.5769 16.2144C16.5851 16.2247 16.5843 16.2304 16.5839 16.2324C16.5802 16.2569 16.528 16.2919 16.486 16.3201C16.42 16.3644 16.3518 16.4104 16.3465 16.4755C16.3449 16.4941 16.3587 16.5103 16.3772 16.5119C16.3781 16.5119 16.3792 16.5119 16.38 16.5119C16.3974 16.5119 16.4121 16.4986 16.4135 16.4812C16.4162 16.4481 16.4758 16.4081 16.5236 16.376C16.5847 16.3349 16.6422 16.2962 16.6504 16.2427C16.6542 16.2184 16.6472 16.1947 16.6294 16.1724ZM16.0305 16.2947C16.0112 16.2211 15.9657 16.1504 15.9089 16.1249C15.939 16.1094 15.9602 16.0789 15.9602 16.0428C15.9602 15.9912 15.9184 15.9495 15.8668 15.9495C15.8153 15.9495 15.7735 15.9913 15.7735 16.0428C15.7735 16.079 15.7947 16.1094 15.8248 16.1249C15.7679 16.1504 15.7224 16.2211 15.7031 16.2947H15.5111L15.8465 15.7994C15.8536 15.801 15.8603 15.8037 15.8678 15.8037C15.8754 15.8037 15.8821 15.801 15.8891 15.7994L16.2245 16.2947H16.0305Z" fill="#FFE15A"/>
<path d="M17.0946 13.1569C17.0946 13.1569 16.7573 13.0571 16.6064 14.2376C16.6064 14.2376 15.781 15.2872 15.7543 15.3493C15.7277 15.4114 15.7521 15.8575 15.8409 15.822C15.9296 15.7865 16.0894 15.5801 16.0805 15.4292C16.0717 15.2783 16.1397 15.1941 16.207 15.1185C16.3335 14.9765 17.0458 14.333 17.0724 14.191C17.0991 14.049 17.0946 13.1569 17.0946 13.1569Z" fill="#FFC8B9"/>
<path d="M17.6178 12.9329C17.6178 12.9329 18.1393 12.8641 18.2924 13.3967C18.2924 13.3967 17.8641 13.6319 17.9174 13.9381C17.9706 14.2443 17.9107 15.6423 17.9107 15.6423C17.0919 15.9086 16.6592 15.5758 16.6592 15.5758C16.6592 15.5758 16.8722 14.7836 16.8389 14.1378C16.8389 14.1378 16.6459 13.9914 16.6925 13.825C16.7391 13.6586 16.8589 13.4721 16.8989 13.3324C16.9389 13.1926 17.0453 12.9596 17.305 12.9396C17.5646 12.9196 17.6178 12.9329 17.6178 12.9329Z" fill="#F5F5F5"/>
<path d="M16.81 15.4204C16.81 15.4204 16.4017 16.9649 16.5437 19.0685C16.5437 19.0685 17.8174 19.2371 18.5097 18.9842C18.5097 18.9842 18.1502 16.4678 17.8041 15.4825L16.81 15.4204Z" fill="#F5F5F5"/>
<path d="M17.0503 12.0232V12.663C17.0503 12.7333 17.1072 12.7902 17.1775 12.7902H17.1889C17.2387 12.7902 17.279 12.8305 17.279 12.8803V13.0332C17.279 13.0332 17.3648 13.2571 17.6982 12.9951V12.0279L17.0503 12.0232Z" fill="#FFC8B9"/>
<path d="M16.9751 11.8921C16.9544 11.9439 16.9762 12.0841 17.1038 12.0741C17.2631 12.0616 17.4555 12.0608 17.4988 12.2372C17.539 12.4012 17.5121 12.8108 17.6896 12.8374C17.8671 12.864 18.0684 12.7461 18.0646 12.3936C18.0613 12.0829 17.8582 11.7112 17.5742 11.7678C17.5742 11.7678 17.3223 11.5914 17.1748 11.79C17.1748 11.79 17.0195 11.7812 16.9751 11.8921Z" fill="#8C5A28"/>
<path d="M18.2932 13.3966C18.2932 13.3966 18.4749 14.5936 18.4663 14.6925C18.4575 14.7946 17.8228 15.7754 17.8583 15.8819C17.8939 15.9884 17.9293 16.1304 17.7341 16.1837C17.5388 16.2369 17.5588 15.9252 17.612 15.7654C17.6653 15.6056 18.1113 14.7546 18.1113 14.657C18.1113 14.5593 17.8583 13.9292 17.9204 13.6806C17.9826 13.4321 18.2932 13.3966 18.2932 13.3966Z" fill="#FFC8B9"/>
<path d="M14.4068 12.537C14.4068 12.537 14.3865 12.4669 14.4045 12.4036C14.4226 12.3403 14.3761 12.2822 14.3661 12.2272C14.339 12.078 14.4656 12.0396 14.4724 11.9061C14.4724 11.9061 14.5628 11.9988 14.5289 12.087C14.495 12.1753 14.5786 12.1888 14.5673 12.2725C14.556 12.3561 14.4633 12.4444 14.4724 12.519L14.4068 12.537Z" fill="#FF4B55"/>
<path d="M15.8306 12.3953C15.7566 12.3028 15.6268 12.4025 15.5319 12.4749C15.5187 12.4851 15.5075 12.4928 15.4957 12.5013L15.1453 11.9838C15.1551 11.9691 15.1622 11.9523 15.1622 11.9332C15.1622 11.8817 15.1205 11.8399 15.0689 11.8399C15.0173 11.8399 14.9756 11.8817 14.9756 11.9332C14.9756 11.9523 14.9827 11.9691 14.9925 11.9838L14.631 12.5176H14.3751C14.3751 12.5176 14.3645 12.6767 14.644 12.696C14.68 12.7505 14.7314 12.7939 14.7929 12.8186C14.7641 12.8232 14.7407 12.8456 14.7407 12.8758V12.9132C14.7407 12.9155 14.743 12.9169 14.7433 12.9192H15.3944C15.3947 12.9169 15.3969 12.9155 15.3969 12.9132V12.8758C15.3969 12.8452 15.3732 12.8224 15.3438 12.8182C15.4527 12.7744 15.5293 12.6724 15.5422 12.5512C15.5523 12.5436 15.5618 12.5368 15.5728 12.5284C15.6415 12.4757 15.745 12.3953 15.7781 12.4374C15.7863 12.4477 15.7855 12.4533 15.7851 12.4554C15.7813 12.4798 15.7292 12.5149 15.6872 12.543C15.6212 12.5873 15.553 12.6333 15.5477 12.6985C15.5461 12.717 15.5599 12.7332 15.5784 12.7349C15.5793 12.7349 15.5803 12.7349 15.5812 12.7349C15.5985 12.7349 15.6133 12.7216 15.6147 12.7041C15.6174 12.671 15.6769 12.6311 15.7248 12.599C15.7858 12.5578 15.8434 12.5192 15.8516 12.4657C15.8554 12.4413 15.8483 12.4176 15.8306 12.3953ZM15.2317 12.5176C15.2124 12.444 15.1669 12.3733 15.11 12.3478C15.1401 12.3323 15.1613 12.3018 15.1613 12.2657C15.1613 12.2141 15.1196 12.1723 15.068 12.1723C15.0164 12.1723 14.9747 12.2142 14.9747 12.2657C14.9747 12.3019 14.9959 12.3323 15.026 12.3478C14.9691 12.3733 14.9236 12.444 14.9043 12.5176H14.7123L15.0477 12.0223C15.0547 12.0239 15.0614 12.0266 15.0689 12.0266C15.0765 12.0266 15.0832 12.0239 15.0902 12.0223L15.4257 12.5176H15.2317Z" fill="#FFE15A"/>
<path d="M14.4068 13.7961C14.4068 13.7961 14.3865 13.726 14.4045 13.6627C14.4226 13.5994 14.3761 13.5412 14.3661 13.4863C14.339 13.337 14.4656 13.2986 14.4724 13.1651C14.4724 13.1651 14.5628 13.2579 14.5289 13.3461C14.495 13.4343 14.5786 13.4478 14.5673 13.5315C14.556 13.6152 14.4633 13.7034 14.4724 13.778L14.4068 13.7961Z" fill="#FF4B55"/>
<path d="M15.8306 13.6543C15.7566 13.5618 15.6268 13.6615 15.5319 13.7339C15.5187 13.7441 15.5075 13.7518 15.4957 13.7603L15.1453 13.2428C15.1551 13.2281 15.1622 13.2113 15.1622 13.1922C15.1622 13.1407 15.1205 13.0989 15.0689 13.0989C15.0173 13.0989 14.9756 13.1407 14.9756 13.1922C14.9756 13.2113 14.9827 13.2281 14.9925 13.2428L14.631 13.7766H14.3751C14.3751 13.7766 14.3645 13.9357 14.644 13.955C14.68 14.0095 14.7314 14.053 14.7929 14.0776C14.7641 14.0823 14.7407 14.1046 14.7407 14.1348V14.1722C14.7407 14.1745 14.743 14.1759 14.7433 14.1782H15.3944C15.3947 14.1759 15.3969 14.1745 15.3969 14.1722V14.1348C15.3969 14.1042 15.3732 14.0815 15.3438 14.0772C15.4527 14.0334 15.5293 13.9314 15.5422 13.8102C15.5523 13.8026 15.5618 13.7958 15.5728 13.7874C15.6415 13.7347 15.745 13.6543 15.7781 13.6964C15.7863 13.7067 15.7855 13.7123 15.7851 13.7144C15.7813 13.7388 15.7292 13.7739 15.6872 13.802C15.6212 13.8463 15.553 13.8923 15.5477 13.9575C15.5461 13.976 15.5599 13.9922 15.5784 13.9939C15.5793 13.9939 15.5803 13.9939 15.5812 13.9939C15.5985 13.9939 15.6133 13.9806 15.6147 13.9631C15.6174 13.9301 15.6769 13.8901 15.7248 13.858C15.7858 13.8169 15.8434 13.7782 15.8516 13.7247C15.8554 13.7003 15.8483 13.6767 15.8306 13.6543ZM15.2317 13.7766C15.2124 13.703 15.1669 13.6324 15.11 13.6069C15.1401 13.5914 15.1613 13.5609 15.1613 13.5247C15.1613 13.4732 15.1196 13.4314 15.068 13.4314C15.0164 13.4314 14.9747 13.4732 14.9747 13.5247C14.9747 13.5609 14.9959 13.5914 15.026 13.6069C14.9691 13.6324 14.9236 13.703 14.9043 13.7766H14.7123L15.0477 13.2813C15.0547 13.283 15.0614 13.2856 15.0689 13.2856C15.0765 13.2856 15.0832 13.283 15.0902 13.2813L15.4257 13.7766H15.2317Z" fill="#FFE15A"/>
<path d="M14.4068 15.0551C14.4068 15.0551 14.3865 14.985 14.4045 14.9217C14.4226 14.8584 14.3761 14.8002 14.3661 14.7453C14.339 14.596 14.4656 14.5576 14.4724 14.4242C14.4724 14.4242 14.5628 14.5169 14.5289 14.605C14.495 14.6933 14.5786 14.7068 14.5673 14.7905C14.556 14.8742 14.4633 14.9624 14.4724 15.037L14.4068 15.0551Z" fill="#FF4B55"/>
<path d="M15.8306 14.9134C15.7566 14.8208 15.6268 14.9205 15.5319 14.993C15.5187 15.0031 15.5075 15.0109 15.4957 15.0194L15.1453 14.5019C15.1551 14.4871 15.1622 14.4704 15.1622 14.4513C15.1622 14.3997 15.1205 14.358 15.0689 14.358C15.0173 14.358 14.9756 14.3997 14.9756 14.4513C14.9756 14.4704 14.9827 14.4871 14.9925 14.5019L14.631 15.0356H14.3751C14.3751 15.0356 14.3645 15.1947 14.644 15.214C14.68 15.2685 14.7314 15.312 14.7929 15.3366C14.7641 15.3413 14.7407 15.3636 14.7407 15.3938V15.4312C14.7407 15.4335 14.743 15.435 14.7433 15.4372H15.3944C15.3947 15.435 15.3969 15.4335 15.3969 15.4312V15.3938C15.3969 15.3633 15.3732 15.3405 15.3438 15.3362C15.4527 15.2924 15.5293 15.1904 15.5422 15.0692C15.5523 15.0617 15.5618 15.0548 15.5728 15.0465C15.6415 14.9937 15.745 14.9134 15.7781 14.9554C15.7863 14.9657 15.7855 14.9714 15.7851 14.9734C15.7813 14.9978 15.7292 15.0329 15.6872 15.0611C15.6212 15.1054 15.553 15.1514 15.5477 15.2165C15.5461 15.2351 15.5599 15.2513 15.5784 15.2529C15.5793 15.2529 15.5803 15.2529 15.5812 15.2529C15.5985 15.2529 15.6133 15.2396 15.6147 15.2221C15.6174 15.1891 15.6769 15.1491 15.7248 15.117C15.7858 15.0759 15.8434 15.0372 15.8516 14.9837C15.8554 14.9594 15.8483 14.9357 15.8306 14.9134ZM15.2317 15.0356C15.2124 14.962 15.1669 14.8913 15.11 14.8659C15.1401 14.8504 15.1613 14.8199 15.1613 14.7837C15.1613 14.7322 15.1196 14.6904 15.068 14.6904C15.0164 14.6904 14.9747 14.7322 14.9747 14.7837C14.9747 14.8199 14.9959 14.8504 15.026 14.8659C14.9691 14.8913 14.9236 14.962 14.9043 15.0356H14.7123L15.0477 14.5403C15.0547 14.542 15.0614 14.5446 15.0689 14.5446C15.0765 14.5446 15.0832 14.542 15.0902 14.5403L15.4257 15.0356H15.2317Z" fill="#FFE15A"/>
<path d="M14.4068 17.5731C14.4068 17.5731 14.3865 17.503 14.4045 17.4397C14.4226 17.3765 14.3761 17.3183 14.3661 17.2633C14.339 17.1141 14.4656 17.0757 14.4724 16.9422C14.4724 16.9422 14.5628 17.0349 14.5289 17.1231C14.495 17.2113 14.5786 17.2249 14.5673 17.3085C14.556 17.3922 14.4633 17.4804 14.4724 17.555L14.4068 17.5731Z" fill="#FF4B55"/>
<path d="M15.8306 17.4314C15.7566 17.3389 15.6268 17.4386 15.5319 17.511C15.5187 17.5212 15.5075 17.5289 15.4957 17.5374L15.1453 17.0199C15.1551 17.0052 15.1622 16.9884 15.1622 16.9693C15.1622 16.9178 15.1205 16.876 15.0689 16.876C15.0173 16.876 14.9756 16.9178 14.9756 16.9693C14.9756 16.9884 14.9827 17.0052 14.9925 17.0199L14.631 17.5537H14.3751C14.3751 17.5537 14.3645 17.7128 14.644 17.7321C14.68 17.7866 14.7314 17.8301 14.7929 17.8547C14.7641 17.8594 14.7407 17.8817 14.7407 17.9119V17.9493C14.7407 17.9516 14.743 17.953 14.7433 17.9553H15.3944C15.3947 17.953 15.3969 17.9516 15.3969 17.9493V17.9119C15.3969 17.8813 15.3732 17.8586 15.3438 17.8543C15.4527 17.8105 15.5293 17.7085 15.5422 17.5873C15.5523 17.5797 15.5618 17.5729 15.5728 17.5645C15.6415 17.5118 15.745 17.4314 15.7781 17.4735C15.7863 17.4838 15.7855 17.4894 15.7851 17.4915C15.7813 17.5159 15.7292 17.551 15.6872 17.5791C15.6212 17.6234 15.553 17.6694 15.5477 17.7346C15.5461 17.7531 15.5599 17.7693 15.5784 17.771C15.5793 17.771 15.5803 17.771 15.5812 17.771C15.5985 17.771 15.6133 17.7577 15.6147 17.7402C15.6174 17.7072 15.6769 17.6672 15.7248 17.6351C15.7858 17.594 15.8434 17.5553 15.8516 17.5018C15.8554 17.4774 15.8483 17.4537 15.8306 17.4314ZM15.2317 17.5537C15.2124 17.4801 15.1669 17.4094 15.11 17.3839C15.1401 17.3684 15.1613 17.3379 15.1613 17.3018C15.1613 17.2502 15.1196 17.2085 15.068 17.2085C15.0164 17.2085 14.9747 17.2503 14.9747 17.3018C14.9747 17.338 14.9959 17.3684 15.026 17.3839C14.9691 17.4094 14.9236 17.4801 14.9043 17.5537H14.7123L15.0477 17.0584C15.0547 17.06 15.0614 17.0627 15.0689 17.0627C15.0765 17.0627 15.0832 17.06 15.0902 17.0584L15.4257 17.5537H15.2317Z" fill="#FFE15A"/>
<path d="M14.4068 18.8322C14.4068 18.8322 14.3865 18.7621 14.4045 18.6988C14.4226 18.6355 14.3761 18.5773 14.3661 18.5224C14.339 18.3731 14.4656 18.3347 14.4724 18.2013C14.4724 18.2013 14.5628 18.294 14.5289 18.3821C14.495 18.4703 14.5786 18.4839 14.5673 18.5676C14.556 18.6513 14.4633 18.7395 14.4724 18.8141L14.4068 18.8322Z" fill="#FF4B55"/>
<path d="M15.8306 18.6904C15.7566 18.5979 15.6268 18.6976 15.5319 18.77C15.5187 18.7802 15.5075 18.7879 15.4957 18.7964L15.1453 18.2789C15.1551 18.2642 15.1622 18.2474 15.1622 18.2284C15.1622 18.1768 15.1205 18.135 15.0689 18.135C15.0173 18.135 14.9756 18.1768 14.9756 18.2284C14.9756 18.2474 14.9827 18.2642 14.9925 18.2789L14.631 18.8127H14.3751C14.3751 18.8127 14.3645 18.9718 14.644 18.9911C14.68 19.0456 14.7314 19.0891 14.7929 19.1137C14.7641 19.1184 14.7407 19.1407 14.7407 19.1709V19.2083C14.7407 19.2106 14.743 19.212 14.7433 19.2143H15.3944C15.3947 19.212 15.3969 19.2106 15.3969 19.2083V19.1709C15.3969 19.1403 15.3732 19.1176 15.3438 19.1133C15.4527 19.0695 15.5293 18.9675 15.5422 18.8463C15.5523 18.8388 15.5618 18.8319 15.5728 18.8235C15.6415 18.7708 15.745 18.6904 15.7781 18.7325C15.7863 18.7428 15.7855 18.7484 15.7851 18.7505C15.7813 18.7749 15.7292 18.81 15.6872 18.8381C15.6212 18.8824 15.553 18.9284 15.5477 18.9936C15.5461 19.0121 15.5599 19.0283 15.5784 19.03C15.5793 19.03 15.5803 19.03 15.5812 19.03C15.5985 19.03 15.6133 19.0167 15.6147 18.9992C15.6174 18.9662 15.6769 18.9262 15.7248 18.8941C15.7858 18.853 15.8434 18.8143 15.8516 18.7608C15.8554 18.7364 15.8483 18.7128 15.8306 18.6904ZM15.2317 18.8127C15.2124 18.7391 15.1669 18.6685 15.11 18.643C15.1401 18.6275 15.1613 18.597 15.1613 18.5608C15.1613 18.5093 15.1196 18.4675 15.068 18.4675C15.0164 18.4675 14.9747 18.5093 14.9747 18.5608C14.9747 18.597 14.9959 18.6275 15.026 18.643C14.9691 18.6685 14.9236 18.7391 14.9043 18.8127H14.7123L15.0477 18.3174C15.0547 18.3191 15.0614 18.3217 15.0689 18.3217C15.0765 18.3217 15.0832 18.3191 15.0902 18.3174L15.4257 18.8127H15.2317Z" fill="#FFE15A"/>
<path d="M18.7867 12.537C18.7867 12.537 18.7663 12.4669 18.7844 12.4036C18.8025 12.3403 18.756 12.2822 18.746 12.2272C18.7189 12.078 18.8455 12.0396 18.8523 11.9061C18.8523 11.9061 18.9427 11.9988 18.9088 12.087C18.8749 12.1753 18.9585 12.1888 18.9472 12.2725C18.9359 12.3561 18.8432 12.4444 18.8523 12.519L18.7867 12.537Z" fill="#FF4B55"/>
<path d="M20.211 12.3953C20.137 12.3028 20.0072 12.4025 19.9122 12.4749C19.899 12.4851 19.8879 12.4928 19.8761 12.5013L19.5257 11.9838C19.5355 11.9691 19.5426 11.9523 19.5426 11.9332C19.5426 11.8817 19.5008 11.8399 19.4493 11.8399C19.3977 11.8399 19.3559 11.8817 19.3559 11.9332C19.3559 11.9523 19.3631 11.9691 19.3729 11.9838L19.0114 12.5176H18.7554C18.7554 12.5176 18.7449 12.6767 19.0243 12.696C19.0604 12.7505 19.1118 12.7939 19.1733 12.8186C19.1444 12.8232 19.1211 12.8456 19.1211 12.8758V12.9132C19.1211 12.9155 19.1233 12.9169 19.1236 12.9192H19.7748C19.775 12.9169 19.7772 12.9155 19.7772 12.9132V12.8758C19.7772 12.8452 19.7535 12.8224 19.7241 12.8182C19.8331 12.7744 19.9097 12.6724 19.9226 12.5512C19.9327 12.5436 19.9422 12.5368 19.9532 12.5284C20.0219 12.4757 20.1254 12.3953 20.1584 12.4374C20.1667 12.4477 20.1658 12.4533 20.1655 12.4554C20.1617 12.4798 20.1095 12.5149 20.0676 12.543C20.0016 12.5873 19.9334 12.6333 19.928 12.6985C19.9264 12.717 19.9402 12.7332 19.9587 12.7349C19.9597 12.7349 19.9607 12.7349 19.9616 12.7349C19.9789 12.7349 19.9937 12.7216 19.9951 12.7041C19.9978 12.671 20.0573 12.6311 20.1052 12.599C20.1662 12.5578 20.2237 12.5192 20.232 12.4657C20.2358 12.4413 20.2287 12.4176 20.211 12.3953ZM19.6121 12.5176C19.5928 12.444 19.5473 12.3733 19.4904 12.3478C19.5205 12.3323 19.5417 12.3018 19.5417 12.2657C19.5417 12.2141 19.4999 12.1723 19.4484 12.1723C19.3968 12.1723 19.355 12.2142 19.355 12.2657C19.355 12.3019 19.3762 12.3323 19.4063 12.3478C19.3495 12.3733 19.3039 12.444 19.2847 12.5176H19.0926L19.4281 12.0223C19.4351 12.0239 19.4418 12.0266 19.4494 12.0266C19.4569 12.0266 19.4636 12.0239 19.4706 12.0223L19.806 12.5176H19.6121Z" fill="#FFE15A"/>
<path d="M18.7867 13.7961C18.7867 13.7961 18.7663 13.726 18.7844 13.6627C18.8025 13.5994 18.756 13.5412 18.746 13.4863C18.7189 13.337 18.8455 13.2986 18.8523 13.1651C18.8523 13.1651 18.9427 13.2579 18.9088 13.3461C18.8749 13.4343 18.9585 13.4478 18.9472 13.5315C18.9359 13.6152 18.8432 13.7034 18.8523 13.778L18.7867 13.7961Z" fill="#FF4B55"/>
<path d="M20.211 13.6543C20.137 13.5618 20.0072 13.6615 19.9122 13.7339C19.899 13.7441 19.8879 13.7518 19.8761 13.7603L19.5257 13.2428C19.5355 13.2281 19.5426 13.2113 19.5426 13.1922C19.5426 13.1407 19.5008 13.0989 19.4493 13.0989C19.3977 13.0989 19.3559 13.1407 19.3559 13.1922C19.3559 13.2113 19.3631 13.2281 19.3729 13.2428L19.0114 13.7766H18.7554C18.7554 13.7766 18.7449 13.9357 19.0243 13.955C19.0604 14.0095 19.1118 14.053 19.1733 14.0776C19.1444 14.0823 19.1211 14.1046 19.1211 14.1348V14.1722C19.1211 14.1745 19.1233 14.1759 19.1236 14.1782H19.7748C19.775 14.1759 19.7772 14.1745 19.7772 14.1722V14.1348C19.7772 14.1042 19.7535 14.0815 19.7241 14.0772C19.8331 14.0334 19.9097 13.9314 19.9226 13.8102C19.9327 13.8026 19.9422 13.7958 19.9532 13.7874C20.0219 13.7347 20.1254 13.6543 20.1584 13.6964C20.1667 13.7067 20.1658 13.7123 20.1655 13.7144C20.1617 13.7388 20.1095 13.7739 20.0676 13.802C20.0016 13.8463 19.9334 13.8923 19.928 13.9575C19.9264 13.976 19.9402 13.9922 19.9587 13.9939C19.9597 13.9939 19.9607 13.9939 19.9616 13.9939C19.9789 13.9939 19.9937 13.9806 19.9951 13.9631C19.9978 13.9301 20.0573 13.8901 20.1052 13.858C20.1662 13.8169 20.2237 13.7782 20.232 13.7247C20.2358 13.7003 20.2287 13.6767 20.211 13.6543ZM19.6121 13.7766C19.5928 13.703 19.5473 13.6324 19.4904 13.6069C19.5205 13.5914 19.5417 13.5609 19.5417 13.5247C19.5417 13.4732 19.4999 13.4314 19.4484 13.4314C19.3968 13.4314 19.355 13.4732 19.355 13.5247C19.355 13.5609 19.3762 13.5914 19.4063 13.6069C19.3495 13.6324 19.3039 13.703 19.2847 13.7766H19.0926L19.4281 13.2813C19.4351 13.283 19.4418 13.2856 19.4494 13.2856C19.4569 13.2856 19.4636 13.283 19.4706 13.2813L19.806 13.7766H19.6121Z" fill="#FFE15A"/>
<path d="M18.7867 15.0551C18.7867 15.0551 18.7663 14.985 18.7844 14.9217C18.8025 14.8584 18.756 14.8002 18.746 14.7453C18.7189 14.596 18.8455 14.5576 18.8523 14.4242C18.8523 14.4242 18.9427 14.5169 18.9088 14.605C18.8749 14.6933 18.9585 14.7068 18.9472 14.7905C18.9359 14.8742 18.8432 14.9624 18.8523 15.037L18.7867 15.0551Z" fill="#FF4B55"/>
<path d="M20.211 14.9134C20.137 14.8208 20.0072 14.9205 19.9122 14.993C19.899 15.0031 19.8879 15.0109 19.8761 15.0194L19.5257 14.5019C19.5355 14.4871 19.5426 14.4704 19.5426 14.4513C19.5426 14.3997 19.5008 14.358 19.4493 14.358C19.3977 14.358 19.3559 14.3997 19.3559 14.4513C19.3559 14.4704 19.3631 14.4871 19.3729 14.5019L19.0114 15.0356H18.7554C18.7554 15.0356 18.7449 15.1947 19.0243 15.214C19.0604 15.2685 19.1118 15.312 19.1733 15.3366C19.1444 15.3413 19.1211 15.3636 19.1211 15.3938V15.4312C19.1211 15.4335 19.1233 15.435 19.1236 15.4372H19.7748C19.775 15.435 19.7772 15.4335 19.7772 15.4312V15.3938C19.7772 15.3633 19.7535 15.3405 19.7241 15.3362C19.8331 15.2924 19.9097 15.1904 19.9226 15.0692C19.9327 15.0617 19.9422 15.0548 19.9532 15.0465C20.0219 14.9937 20.1254 14.9134 20.1584 14.9554C20.1667 14.9657 20.1658 14.9714 20.1655 14.9734C20.1617 14.9978 20.1095 15.0329 20.0676 15.0611C20.0016 15.1054 19.9334 15.1514 19.928 15.2165C19.9264 15.2351 19.9402 15.2513 19.9587 15.2529C19.9597 15.2529 19.9607 15.2529 19.9616 15.2529C19.9789 15.2529 19.9937 15.2396 19.9951 15.2221C19.9978 15.1891 20.0573 15.1491 20.1052 15.117C20.1662 15.0759 20.2237 15.0372 20.232 14.9837C20.2358 14.9594 20.2287 14.9357 20.211 14.9134ZM19.6121 15.0356C19.5928 14.962 19.5473 14.8913 19.4904 14.8659C19.5205 14.8504 19.5417 14.8199 19.5417 14.7837C19.5417 14.7322 19.4999 14.6904 19.4484 14.6904C19.3968 14.6904 19.355 14.7322 19.355 14.7837C19.355 14.8199 19.3762 14.8504 19.4063 14.8659C19.3495 14.8913 19.3039 14.962 19.2847 15.0356H19.0926L19.4281 14.5403C19.4351 14.542 19.4418 14.5446 19.4494 14.5446C19.4569 14.5446 19.4636 14.542 19.4706 14.5403L19.806 15.0356H19.6121Z" fill="#FFE15A"/>
<path d="M18.7867 16.3141C18.7867 16.3141 18.7663 16.244 18.7844 16.1807C18.8025 16.1174 18.756 16.0593 18.746 16.0043C18.7189 15.8551 18.8455 15.8167 18.8523 15.6832C18.8523 15.6832 18.9427 15.7759 18.9088 15.8641C18.8749 15.9524 18.9585 15.9659 18.9472 16.0496C18.9359 16.1332 18.8432 16.2215 18.8523 16.2961L18.7867 16.3141Z" fill="#FF4B55"/>
<path d="M20.211 16.1724C20.137 16.0799 20.0072 16.1795 19.9122 16.252C19.899 16.2622 19.8879 16.2699 19.8761 16.2784L19.5257 15.7609C19.5355 15.7461 19.5426 15.7294 19.5426 15.7103C19.5426 15.6587 19.5008 15.617 19.4493 15.617C19.3977 15.617 19.3559 15.6587 19.3559 15.7103C19.3559 15.7294 19.3631 15.7461 19.3729 15.7609L19.0114 16.2946H18.7554C18.7554 16.2946 18.7449 16.4537 19.0243 16.473C19.0604 16.5276 19.1118 16.571 19.1733 16.5956C19.1444 16.6003 19.1211 16.6226 19.1211 16.6529V16.6902C19.1211 16.6926 19.1233 16.694 19.1236 16.6963H19.7748C19.775 16.694 19.7772 16.6926 19.7772 16.6902V16.6529C19.7772 16.6222 19.7535 16.5995 19.7241 16.5952C19.8331 16.5514 19.9097 16.4494 19.9226 16.3282C19.9327 16.3207 19.9422 16.3139 19.9532 16.3055C20.0219 16.2527 20.1254 16.1724 20.1584 16.2144C20.1667 16.2247 20.1658 16.2304 20.1655 16.2324C20.1617 16.2569 20.1095 16.2919 20.0676 16.3201C20.0016 16.3644 19.9334 16.4104 19.928 16.4755C19.9264 16.4941 19.9402 16.5103 19.9587 16.5119C19.9597 16.5119 19.9607 16.5119 19.9616 16.5119C19.9789 16.5119 19.9937 16.4986 19.9951 16.4812C19.9978 16.4481 20.0573 16.4081 20.1052 16.376C20.1662 16.3349 20.2237 16.2962 20.232 16.2427C20.2358 16.2184 20.2287 16.1947 20.211 16.1724ZM19.6121 16.2947C19.5928 16.2211 19.5473 16.1504 19.4904 16.1249C19.5205 16.1094 19.5417 16.0789 19.5417 16.0428C19.5417 15.9912 19.4999 15.9495 19.4484 15.9495C19.3968 15.9495 19.355 15.9913 19.355 16.0428C19.355 16.079 19.3762 16.1094 19.4063 16.1249C19.3495 16.1504 19.3039 16.2211 19.2847 16.2947H19.0926L19.4281 15.7994C19.4351 15.801 19.4418 15.8037 19.4494 15.8037C19.4569 15.8037 19.4636 15.801 19.4706 15.7994L19.806 16.2947H19.6121Z" fill="#FFE15A"/>
<path d="M18.7867 17.5731C18.7867 17.5731 18.7663 17.503 18.7844 17.4397C18.8025 17.3765 18.756 17.3183 18.746 17.2633C18.7189 17.1141 18.8455 17.0757 18.8523 16.9422C18.8523 16.9422 18.9427 17.0349 18.9088 17.1231C18.8749 17.2113 18.9585 17.2249 18.9472 17.3085C18.9359 17.3922 18.8432 17.4804 18.8523 17.555L18.7867 17.5731Z" fill="#FF4B55"/>
<path d="M20.211 17.4314C20.137 17.3389 20.0072 17.4386 19.9122 17.511C19.899 17.5212 19.8879 17.5289 19.8761 17.5374L19.5257 17.0199C19.5355 17.0052 19.5426 16.9884 19.5426 16.9693C19.5426 16.9178 19.5008 16.876 19.4493 16.876C19.3977 16.876 19.3559 16.9178 19.3559 16.9693C19.3559 16.9884 19.3631 17.0052 19.3729 17.0199L19.0114 17.5537H18.7554C18.7554 17.5537 18.7449 17.7128 19.0243 17.7321C19.0604 17.7866 19.1118 17.8301 19.1733 17.8547C19.1444 17.8594 19.1211 17.8817 19.1211 17.9119V17.9493C19.1211 17.9516 19.1233 17.953 19.1236 17.9553H19.7748C19.775 17.953 19.7772 17.9516 19.7772 17.9493V17.9119C19.7772 17.8813 19.7535 17.8586 19.7241 17.8543C19.8331 17.8105 19.9097 17.7085 19.9226 17.5873C19.9327 17.5797 19.9422 17.5729 19.9532 17.5645C20.0219 17.5118 20.1254 17.4314 20.1584 17.4735C20.1667 17.4838 20.1658 17.4894 20.1655 17.4915C20.1617 17.5159 20.1095 17.551 20.0676 17.5791C20.0016 17.6234 19.9334 17.6694 19.928 17.7346C19.9264 17.7531 19.9402 17.7693 19.9587 17.771C19.9597 17.771 19.9607 17.771 19.9616 17.771C19.9789 17.771 19.9937 17.7577 19.9951 17.7402C19.9978 17.7072 20.0573 17.6672 20.1052 17.6351C20.1662 17.594 20.2237 17.5553 20.232 17.5018C20.2358 17.4774 20.2287 17.4537 20.211 17.4314ZM19.6121 17.5537C19.5928 17.4801 19.5473 17.4094 19.4904 17.3839C19.5205 17.3684 19.5417 17.3379 19.5417 17.3018C19.5417 17.2502 19.4999 17.2085 19.4484 17.2085C19.3968 17.2085 19.355 17.2503 19.355 17.3018C19.355 17.338 19.3762 17.3684 19.4063 17.3839C19.3495 17.4094 19.3039 17.4801 19.2847 17.5537H19.0926L19.4281 17.0584C19.4351 17.06 19.4418 17.0627 19.4494 17.0627C19.4569 17.0627 19.4636 17.06 19.4706 17.0584L19.806 17.5537H19.6121Z" fill="#FFE15A"/>
<path d="M18.7867 18.8322C18.7867 18.8322 18.7663 18.7621 18.7844 18.6988C18.8025 18.6355 18.756 18.5773 18.746 18.5224C18.7189 18.3731 18.8455 18.3347 18.8523 18.2013C18.8523 18.2013 18.9427 18.294 18.9088 18.3821C18.8749 18.4704 18.9585 18.4839 18.9472 18.5676C18.9359 18.6513 18.8432 18.7395 18.8523 18.8141L18.7867 18.8322Z" fill="#FF4B55"/>
<path d="M20.211 18.6904C20.137 18.5979 20.0072 18.6976 19.9122 18.77C19.899 18.7802 19.8879 18.7879 19.8761 18.7964L19.5257 18.2789C19.5355 18.2642 19.5426 18.2474 19.5426 18.2284C19.5426 18.1768 19.5008 18.135 19.4493 18.135C19.3977 18.135 19.3559 18.1768 19.3559 18.2284C19.3559 18.2474 19.3631 18.2642 19.3729 18.2789L19.0114 18.8127H18.7554C18.7554 18.8127 18.7449 18.9718 19.0243 18.9911C19.0604 19.0456 19.1118 19.0891 19.1733 19.1137C19.1444 19.1184 19.1211 19.1407 19.1211 19.1709V19.2083C19.1211 19.2106 19.1233 19.212 19.1236 19.2143H19.7748C19.775 19.212 19.7772 19.2106 19.7772 19.2083V19.1709C19.7772 19.1403 19.7535 19.1176 19.7241 19.1133C19.8331 19.0695 19.9097 18.9675 19.9226 18.8463C19.9327 18.8388 19.9422 18.8319 19.9532 18.8235C20.0219 18.7708 20.1254 18.6904 20.1584 18.7325C20.1667 18.7428 20.1658 18.7484 20.1655 18.7505C20.1617 18.7749 20.1095 18.81 20.0676 18.8381C20.0016 18.8824 19.9334 18.9284 19.928 18.9936C19.9264 19.0121 19.9402 19.0283 19.9587 19.03C19.9597 19.03 19.9607 19.03 19.9616 19.03C19.9789 19.03 19.9937 19.0167 19.9951 18.9992C19.9978 18.9662 20.0573 18.9262 20.1052 18.8941C20.1662 18.853 20.2237 18.8143 20.232 18.7608C20.2358 18.7364 20.2287 18.7128 20.211 18.6904ZM19.6121 18.8127C19.5928 18.7391 19.5473 18.6685 19.4904 18.643C19.5205 18.6275 19.5417 18.597 19.5417 18.5608C19.5417 18.5093 19.4999 18.4675 19.4484 18.4675C19.3968 18.4675 19.355 18.5093 19.355 18.5608C19.355 18.597 19.3762 18.6275 19.4063 18.643C19.3495 18.6685 19.3039 18.7391 19.2847 18.8127H19.0926L19.4281 18.3174C19.4351 18.3191 19.4418 18.3217 19.4494 18.3217C19.4569 18.3217 19.4636 18.3191 19.4706 18.3174L19.806 18.8127H19.6121Z" fill="#FFE15A"/>
<path d="M20.9471 11.2752C20.9471 11.2752 20.9471 15.9618 20.9471 17.879C20.9471 19.3702 17.3257 20.8614 17.3257 20.8614C17.3257 20.8614 13.7043 19.3702 13.7043 17.879C13.7043 15.9618 13.7043 11.2752 13.7043 11.2752H17.3257H20.9471ZM21.1602 11.0622H20.9471H17.3257H13.7043H13.4912V11.2752V17.8791C13.4912 18.5763 14.1344 19.3272 15.403 20.1107C16.3127 20.6725 17.207 21.0429 17.2446 21.0584L17.3257 21.0918L17.4068 21.0584C17.4444 21.0429 18.3386 20.6725 19.2483 20.1107C20.5169 19.3271 21.1602 18.5763 21.1602 17.8791V11.2752V11.0622Z" fill="#F5F5F5"/>
<path d="M21.191 19.0535L22.1568 19.7195C21.0351 21.1583 19.2873 22.0862 17.3258 22.0862C15.3643 22.0862 13.6165 21.1583 12.4949 19.7195L13.4606 19.0535C14.369 20.1869 15.7636 20.9146 17.3258 20.9146C18.888 20.9146 20.2826 20.1869 21.191 19.0535ZM21.1488 18.7656L21.0248 18.9203C20.1175 20.0524 18.7692 20.7016 17.3258 20.7016C15.8824 20.7016 14.5342 20.0524 13.6268 18.9203L13.5028 18.7656L13.3396 18.8782L12.3739 19.5442L12.188 19.6724L12.3268 19.8505C13.5401 21.4068 15.3621 22.2993 17.3258 22.2993C19.2894 22.2993 21.1114 21.4068 22.3247 19.8505L22.4635 19.6724L22.2776 19.5442L21.3119 18.8782L21.1488 18.7656Z" fill="#F5F5F5"/>
<path d="M17.3256 22.0863C19.2871 22.0863 21.0348 21.1583 22.1565 19.7196L21.1908 19.0536C20.2824 20.187 18.8878 20.9147 17.3256 20.9147C15.7634 20.9147 14.3688 20.187 13.4603 19.0536L12.4946 19.7196C13.6163 21.1583 15.3641 22.0863 17.3256 22.0863Z" fill="#FFE15A"/>
<path d="M4.422 0.00012207H0.000976562V0.936535L4.422 3.83305V0.00012207Z" fill="#41479B"/>
<path d="M0.000976562 3.20161V4.42115H1.86236L0.000976562 3.20161Z" fill="#41479B"/>
<path d="M0.000976562 7.57899V8.79852L1.86236 7.57899H0.000976562Z" fill="#41479B"/>
<path d="M12.0006 0.936535V0.00012207H7.57959V3.83305L12.0006 0.936535Z" fill="#41479B"/>
<path d="M12.0005 8.79852V7.57899H10.1392L12.0005 8.79852Z" fill="#41479B"/>
<path d="M7.57959 8.16707V12H12.0006V11.0636L7.57959 8.16707Z" fill="#41479B"/>
<path d="M12.0005 4.42115V3.20161L10.1392 4.42115H12.0005Z" fill="#41479B"/>
<path d="M0.000976562 11.0636V12H4.422V8.16707L0.000976562 11.0636Z" fill="#41479B"/>
<path d="M12.0008 11.0636V10.1278L8.07422 7.57898H9.23427L12.0008 9.37479V8.79852L10.1394 7.57898H12.0008V6.9474H6.94824V12H7.57978V8.16707L12.0008 11.0636Z" fill="#F5F5F5"/>
<path d="M0.000976562 6.9474V7.57898H1.86236L0.000976562 8.79852V9.68449L3.24455 7.57898H4.4046L0.000976562 10.4375V11.0636L4.422 8.16707V12H5.05354V6.9474H0.000976562Z" fill="#F5F5F5"/>
<path d="M5.05354 0.00012207H4.422V3.83305L0.000976562 0.936535V1.96131L3.79041 4.42114H2.63036L0.000976562 2.71435V3.20161L1.86236 4.42114H0.000976562V5.05273H5.05354V0.00012207Z" fill="#F5F5F5"/>
<path d="M12.0008 5.05273V4.42114H10.1394L12.0008 3.20161V2.30433L8.73983 4.42114H7.57978L12.0008 1.55134V0.936535L7.57978 3.83305V0.00012207H6.94824V5.05273H12.0008Z" fill="#F5F5F5"/>
<path d="M12.0009 6.9474V5.05273H6.9483V0.00012207H5.05354V5.05273H0.000976562V6.9474H5.05354V12H6.9483V6.9474H12.0009Z" fill="#FF4B55"/>
<path d="M3.24455 7.57899L0.000976562 9.6845V10.4375L4.40461 7.57899H3.24455Z" fill="#FF4B55"/>
<path d="M8.07422 7.57899L12.0008 10.1278V9.3748L9.23427 7.57899H8.07422Z" fill="#FF4B55"/>
<path d="M3.79041 4.42115L0.000976562 1.96131V2.71435L2.63036 4.42115H3.79041Z" fill="#FF4B55"/>
<path d="M8.73964 4.42114L12.0006 2.30433V1.55134L7.57959 4.42114H8.73964Z" fill="#FF4B55"/>
</g>
<defs>
<clipPath id="clip0_72_907">
<path d="M0 2C0 0.895432 0.895431 0 2 0H21.9998C23.1043 0 23.9998 0.895431 23.9998 2V21.9998C23.9998 23.1043 23.1043 23.9998 21.9998 23.9998H2C0.895432 23.9998 0 23.1043 0 21.9998V2Z" fill="white"/>
</clipPath>
</defs>
</svg>
