<svg width="24" height="24" viewBox="0 0 24 24" fill="none" xmlns="http://www.w3.org/2000/svg">
<g clip-path="url(#clip0_72_965)">
<path d="M23.9998 0H0V23.9998H23.9998V0Z" fill="#FFE15A"/>
<path d="M0 4.42102L23.9998 19.5787V15.1578L0 0V4.42102Z" fill="#F5F5F5"/>
<path d="M0 8.84209L23.9998 23.9998V19.5788L0 4.42108V8.84209Z" fill="#464655"/>
<path d="M14.322 11.2652L14.3222 11.2534C14.3222 11.2534 14.3168 11.1967 14.3064 11.0903C14.3033 11.0372 14.2911 10.9725 14.2749 10.897C14.2624 10.8209 14.2383 10.7358 14.2074 10.6419C14.1453 10.4555 14.0496 10.2329 13.8844 10.0174C13.8645 9.99081 13.8408 9.96451 13.8191 9.93802C13.9128 9.83059 14.0042 9.70562 14.0904 9.55478C14.0904 9.55478 13.6179 9.57643 13.0872 9.34487C12.912 9.25366 12.7218 9.1788 12.5131 9.12977L12.4141 8.73386C12.3929 8.64916 12.3168 8.58973 12.2295 8.58973H12.0926V8.39946H12.7585L12.5683 8.01893L12.7585 7.63841H12.0926V7.44814H11.9024V8.58968H11.7656C11.6783 8.58968 11.6022 8.64912 11.581 8.73382L11.4841 9.12124C11.3556 9.14861 11.2276 9.18339 11.1034 9.23617C11.0017 9.27691 10.9033 9.32791 10.8073 9.3849C10.3192 9.57222 9.90469 9.55478 9.90469 9.55478C9.99084 9.70553 10.0821 9.8304 10.1758 9.93779C10.1568 9.9609 10.1357 9.98157 10.1174 10.0053C9.9877 10.1813 9.88425 10.3792 9.80526 10.5893C9.73012 10.7934 9.68742 11.0524 9.67308 11.2417L9.6727 11.4247C9.67078 11.4822 9.67734 11.5392 9.68344 11.5963C9.69094 11.7115 9.71639 11.8239 9.74034 11.9371C9.79969 12.1602 9.8865 12.3771 10.0049 12.5764C10.2418 12.9754 10.6031 13.29 11.0082 13.485C11.2175 13.5772 11.4152 13.6475 11.6511 13.6811C11.7768 13.7044 11.855 13.7041 11.9481 13.7122L11.9651 13.7135L11.9735 13.7141L12.0011 13.7148L12.0408 13.7132L12.1197 13.7096C12.1721 13.7061 12.2245 13.7067 12.2759 13.6991C12.6899 13.6537 13.0631 13.4927 13.3544 13.2837C13.6457 13.071 13.855 12.8115 13.9983 12.5642C14.1439 12.3167 14.219 12.0771 14.2653 11.881C14.2875 11.783 14.304 11.6935 14.3099 11.6092C14.3193 11.5259 14.3248 11.4577 14.3223 11.413C14.3221 11.3166 14.322 11.2652 14.322 11.2652ZM10.8641 12.606C10.7319 12.503 10.6124 12.3802 10.5035 12.2448C10.3987 12.1061 10.3149 11.9496 10.2491 11.7832C10.1871 11.6204 10.153 11.4247 10.1362 11.2652C10.1316 11.0438 10.1419 10.8929 10.1842 10.704C10.2303 10.5248 10.2974 10.3493 10.391 10.1874C10.3964 10.178 10.4038 10.17 10.4093 10.1608C10.8418 10.4986 11.2985 10.4746 11.617 10.3106V10.6827C11.7221 10.6827 11.8073 10.8957 11.8073 11.1584C11.8073 11.421 11.7221 11.634 11.617 11.634V11.8243C11.9738 12.3 11.8101 12.7014 11.5909 12.9355C11.4913 12.9139 11.3881 12.8848 11.2915 12.8468C11.1418 12.7885 10.9995 12.7046 10.8641 12.606ZM13.8586 11.2438C13.8582 11.2466 13.8532 11.2956 13.8435 11.3887C13.8406 11.4407 13.8291 11.49 13.8158 11.5445C13.8063 11.5994 13.7862 11.666 13.7604 11.7415C13.7088 11.8893 13.6314 12.0658 13.4966 12.235C13.365 12.4047 13.1874 12.5721 12.9658 12.7032C12.7973 12.8031 12.5993 12.8708 12.3901 12.9189C12.1782 12.6828 12.029 12.2895 12.378 11.8242V11.6339C12.2729 11.6339 12.1877 11.421 12.1877 11.1583C12.1877 10.8956 12.2729 10.6827 12.378 10.6827V10.3106C12.6968 10.4747 13.1542 10.4987 13.5871 10.1596C13.5945 10.1721 13.6036 10.1847 13.6106 10.1971C13.7257 10.3983 13.7826 10.5918 13.8183 10.7494C13.8354 10.8289 13.8479 10.8999 13.8508 10.963C13.8574 11.0254 13.8622 11.0782 13.8594 11.1216C13.8589 11.1953 13.8586 11.2327 13.8586 11.2438Z" fill="#FF4B55"/>
<path d="M11.9976 14.1073C11.2951 14.1073 10.6579 13.8337 10.1823 13.3889C10.095 13.3073 9.95684 13.3172 9.87907 13.408L9.1505 14.2579C9.07306 14.3483 9.13724 14.4879 9.25625 14.4879H9.7145L10.3253 14.7932C10.4111 14.8361 10.5155 14.8084 10.5687 14.7286L10.7653 14.4337C11.1452 14.5904 11.561 14.6781 11.9976 14.6781C12.4341 14.6781 12.8499 14.5904 13.2299 14.4337L13.4264 14.7286C13.4796 14.8084 13.584 14.8361 13.6698 14.7932L14.2806 14.4879H14.7389C14.8579 14.4879 14.9221 14.3483 14.8446 14.2579L14.1161 13.408C14.0382 13.3172 13.9001 13.3073 13.8128 13.3889C13.3373 13.8337 12.7002 14.1073 11.9976 14.1073Z" fill="#FF4B55"/>
<path d="M9.33405 13.3463H8.38273L8.573 11.634C8.573 11.634 7.90705 11.301 7.9768 10.3236C7.98528 10.2047 8.08578 10.1119 8.20494 10.1119H8.36731C8.47944 10.1119 8.57342 10.1932 8.59198 10.3038C8.63201 10.5424 8.75656 10.9342 9.14379 11.0633L9.33405 13.3463Z" fill="#FF4B55"/>
<path d="M14.6611 13.3463H15.6125L15.4222 11.634C15.4222 11.634 16.0881 11.301 16.0184 10.3236C16.0099 10.2047 15.9094 10.1119 15.7902 10.1119H15.6279C15.5157 10.1119 15.4218 10.1932 15.4032 10.3038C15.3632 10.5424 15.2386 10.9342 14.8514 11.0633L14.6611 13.3463Z" fill="#FF4B55"/>
<path d="M9.43993 13.5366H8.28054C8.23291 13.5366 8.19434 13.498 8.19434 13.4504V13.4325C8.19434 13.3849 8.23291 13.3463 8.28054 13.3463H9.43993C9.48756 13.3463 9.52613 13.3849 9.52613 13.4325V13.4504C9.52613 13.498 9.48756 13.5366 9.43993 13.5366Z" fill="#FFE15A"/>
<path d="M15.7187 13.5366H14.5593C14.5117 13.5366 14.4731 13.498 14.4731 13.4504V13.4325C14.4731 13.3849 14.5117 13.3463 14.5593 13.3463H15.7187C15.7664 13.3463 15.8049 13.3849 15.8049 13.4325V13.4504C15.8049 13.498 15.7663 13.5366 15.7187 13.5366Z" fill="#FFE15A"/>
</g>
<defs>
<clipPath id="clip0_72_965">
<path d="M0 2C0 0.895432 0.895431 0 2 0H21.9998C23.1043 0 23.9998 0.895431 23.9998 2V21.9998C23.9998 23.1043 23.1043 23.9998 21.9998 23.9998H2C0.895432 23.9998 0 23.1043 0 21.9998V2Z" fill="white"/>
</clipPath>
</defs>
</svg>
