<svg width="24" height="24" viewBox="0 0 24 24" fill="none" xmlns="http://www.w3.org/2000/svg">
<g clip-path="url(#clip0_72_997)">
<path d="M23.9988 6.10352e-05H-0.000976562V23.9998H23.9988V6.10352e-05Z" fill="#41479B"/>
<path d="M23.9988 5.68407H-0.000976562V18.3154H23.9988V5.68407Z" fill="#FF4B55"/>
<path d="M20.3565 16.7886V15.8932H20.058V15.2962H19.7595V14.6992H19.461V14.1023H18.5656V12.3113H18.5655L18.8641 12.0129V11.1174H18.5656V10.5204H18.2671V9.62495H17.9686V9.028H17.6701V8.43101H17.3716V8.13256H16.7746V8.43101H16.4762V9.028H16.1777V9.62495H15.8792V10.5204H15.5807V11.1174H13.7898V10.2219H13.4913V9.3265H13.1928V8.43101H12.8943V7.83406H12.5959V7.23707H12.2974V6.93862H12.1481V6.64012H11.8496V6.93862H11.7004V7.23707H11.4019V7.83406H11.1034V8.43101H10.8049V9.3265H10.5064V10.2219H10.2079V11.1174H8.41704V10.5204H8.11854V9.62495H7.82004V9.028H7.52155V8.43101H7.22309V8.13256H6.6261V8.43101H6.3276V9.028H6.02915V9.62495H5.73066V10.5204H5.43216V11.1174H5.13366V12.0129L5.43202 12.3113H5.43216V14.1023H4.53671V14.6992H4.23822V15.2962H3.93972V15.8932H3.64127V16.7886H3.34277V17.6841H20.6549V16.7886H20.3565Z" fill="#F5F5F5"/>
</g>
<defs>
<clipPath id="clip0_72_997">
<path d="M0 2C0 0.895432 0.895431 0 2 0H21.9998C23.1043 0 23.9998 0.895431 23.9998 2V21.9998C23.9998 23.1043 23.1043 23.9998 21.9998 23.9998H2C0.895432 23.9998 0 23.1043 0 21.9998V2Z" fill="white"/>
</clipPath>
</defs>
</svg>
