<svg width="24" height="24" viewBox="0 0 24 24" fill="none" xmlns="http://www.w3.org/2000/svg">
<g clip-path="url(#clip0_72_1007)">
<path d="M23.583 19.862H0.410879C0.182365 19.862 -0.00292969 19.6767 -0.00292969 19.4482V4.55178C-0.00292969 4.32326 0.182319 4.13797 0.410879 4.13797H23.5831C23.8116 4.13797 23.9969 4.32322 23.9969 4.55178V19.4482C23.9968 19.6767 23.8116 19.862 23.583 19.862Z" fill="#F5F5F5"/>
<path d="M18.6176 0.00012207H5.37646V23.9999H18.6176V0.00012207Z" fill="#F5F5F5"/>
<path d="M5.37639 0.00012207H-0.00292969V23.9999H5.37639V0.00012207Z" fill="#FF4B55"/>
<path d="M23.997 0.00012207H18.6177V23.9999H23.997V0.00012207Z" fill="#FF4B55"/>
<path d="M14.5082 13.8169L16.9636 12.4138L16.4002 12.132C16.2422 12.053 16.1517 11.8824 16.1751 11.7072L16.3584 10.3328L15.3189 10.6352C15.0892 10.702 14.8509 10.5608 14.7993 10.3273L14.6997 9.87729L13.7236 11.0196C13.5884 11.178 13.3306 11.057 13.3658 10.8518L13.7827 8.42798L13.1445 8.60254C12.958 8.65354 12.7612 8.56869 12.6702 8.39821L11.9982 7.13865V7.13682L11.9977 7.13775L11.9972 7.13682V7.13865L11.3252 8.39821C11.2342 8.56869 11.0374 8.65354 10.8509 8.60254L10.2127 8.42798L10.6295 10.8518C10.6648 11.057 10.407 11.178 10.2718 11.0196L9.29568 9.87729L9.19612 10.3273C9.14447 10.5608 8.90616 10.702 8.67652 10.6352L7.63694 10.3328L7.82026 11.7072C7.84361 11.8823 7.75318 12.053 7.59517 12.132L7.03174 12.4138L9.48717 13.8169C9.74151 13.9622 9.85293 14.2705 9.75037 14.5448L9.54046 15.1062L11.6444 14.9266C11.7609 14.9167 11.86 15.0104 11.8565 15.1272L11.7903 17.3792H12.2041L12.1379 15.1271C12.1345 15.0103 12.2335 14.9165 12.35 14.9265L14.4549 15.1062L14.245 14.5448C14.1424 14.2705 14.2538 13.9622 14.5082 13.8169Z" fill="#FF4B55"/>
</g>
<defs>
<clipPath id="clip0_72_1007">
<path d="M0 2C0 0.89543 0.89543 0 2 0H21.9998C23.1044 0 23.9998 0.89543 23.9998 2V21.9998C23.9998 23.1044 23.1044 23.9998 21.9998 23.9998H2C0.89543 23.9998 0 23.1044 0 21.9998V2Z" fill="white"/>
</clipPath>
</defs>
</svg>
