<svg width="24" height="24" viewBox="0 0 24 24" fill="none" xmlns="http://www.w3.org/2000/svg">
<g clip-path="url(#clip0_72_1228)">
<path d="M23.9963 6.10352e-05H-0.00341797V23.9998H23.9963V6.10352e-05Z" fill="#41479B"/>
<path d="M23.9963 23.9998L-0.00341797 6.10352e-05H23.9963V23.9998Z" fill="#73AF00"/>
<path d="M14.8478 9.91665C16.9285 13.3495 13.3459 16.932 9.91309 14.8514C9.59917 14.6611 9.33531 14.3973 9.145 14.0833C7.06433 10.6504 10.6469 7.0679 14.0797 9.14857C14.3937 9.33883 14.6575 9.60269 14.8478 9.91665Z" fill="#FFE15A"/>
<path d="M2.1017 15.3537L2.24532 15.7175L2.61929 15.603C2.64005 15.5967 2.65791 15.619 2.64708 15.6379L2.45223 15.9769L2.77491 16.1979C2.79282 16.2102 2.78649 16.2381 2.76497 16.2414L2.37835 16.3004L2.40681 16.6905C2.4084 16.7121 2.38262 16.7245 2.36668 16.7098L2.07943 16.4443L1.79219 16.7098C1.77625 16.7245 1.75047 16.7121 1.75206 16.6905L1.78051 16.3004L1.39389 16.2414C1.37242 16.2381 1.36605 16.2102 1.38396 16.1979L1.70664 15.9769L1.51178 15.6379C1.50095 15.619 1.51877 15.5967 1.53958 15.603L1.91354 15.7175L2.05717 15.3537C2.06509 15.3335 2.09373 15.3335 2.1017 15.3537Z" fill="#F5F5F5"/>
<path d="M7.33168 14.3731L7.4753 14.7369L7.84927 14.6224C7.87003 14.616 7.88789 14.6383 7.87706 14.6572L7.68221 14.9963L8.00489 15.2172C8.0228 15.2295 8.01647 15.2574 7.99495 15.2607L7.60833 15.3198L7.63679 15.7098C7.63838 15.7315 7.6126 15.7439 7.59666 15.7291L7.30941 15.4637L7.02217 15.7291C7.00623 15.7439 6.98045 15.7315 6.98204 15.7098L7.01049 15.3198L6.62387 15.2607C6.6024 15.2574 6.59603 15.2295 6.61394 15.2172L6.93662 14.9963L6.74176 14.6572C6.73093 14.6383 6.74875 14.616 6.76956 14.6224L7.14352 14.7369L7.28715 14.3731C7.29512 14.3529 7.32371 14.3529 7.33168 14.3731Z" fill="#F5F5F5"/>
<path d="M4.71693 12.0148L4.86056 12.3786L5.23452 12.2641C5.25529 12.2577 5.27315 12.28 5.26232 12.2989L5.06746 12.638L5.39015 12.8589C5.40805 12.8712 5.40172 12.8991 5.38021 12.9024L4.99359 12.9615L5.02204 13.3515C5.02363 13.3732 4.99785 13.3856 4.98191 13.3708L4.69467 13.1054L4.40742 13.3708C4.39148 13.3856 4.3657 13.3732 4.3673 13.3515L4.39575 12.9615L4.00913 12.9024C3.98766 12.8991 3.98128 12.8712 3.99919 12.8589L4.32187 12.638L4.12702 12.2989C4.11619 12.28 4.134 12.2577 4.15481 12.2641L4.52878 12.3786L4.6724 12.0148C4.68037 11.9946 4.70896 11.9946 4.71693 12.0148Z" fill="#F5F5F5"/>
<path d="M4.71693 20.5839L4.86056 20.9477L5.23452 20.8332C5.25529 20.8268 5.27315 20.8492 5.26232 20.868L5.06746 21.2071L5.39015 21.4281C5.40805 21.4404 5.40172 21.4683 5.38021 21.4715L4.99359 21.5306L5.02204 21.9206C5.02363 21.9423 4.99785 21.9547 4.98191 21.94L4.69467 21.6745L4.40742 21.94C4.39148 21.9547 4.3657 21.9423 4.3673 21.9206L4.39575 21.5306L4.00913 21.4715C3.98766 21.4683 3.98128 21.4404 3.99919 21.4281L4.32187 21.2071L4.12702 20.868C4.11619 20.8492 4.134 20.8268 4.15481 20.8332L4.52878 20.9477L4.6724 20.5839C4.68037 20.5637 4.70896 20.5637 4.71693 20.5839Z" fill="#F5F5F5"/>
<path d="M5.78691 15.6829L5.88718 15.9835L6.20405 15.9859C6.22861 15.9861 6.23878 16.0174 6.21905 16.0321L5.96415 16.2203L6.05972 16.5225C6.06713 16.5459 6.04046 16.5652 6.02049 16.551L5.76268 16.3667L5.50487 16.551C5.4849 16.5653 5.45823 16.5459 5.46564 16.5225L5.56121 16.2203L5.30631 16.0321C5.28658 16.0175 5.29675 15.9861 5.32131 15.9859L5.63818 15.9835L5.73845 15.6829C5.74623 15.6597 5.77918 15.6597 5.78691 15.6829Z" fill="#F5F5F5"/>
<path d="M9.9396 10.5085C9.7978 10.4754 9.65531 10.8402 9.81323 10.9666C9.97119 11.093 10.2555 11.3299 10.0817 11.472C9.90796 11.6142 9.84482 11.63 9.81323 11.8037C9.78163 11.9774 9.81323 12.009 9.67105 12.088C9.52888 12.167 9.1972 12.3249 9.33937 12.4829C9.48154 12.6409 9.67105 12.5461 9.79743 12.2934C9.79743 12.2934 10.6819 12.2618 10.7135 12.325C10.7451 12.3882 10.8241 12.6251 11.0136 12.5619C11.2031 12.4987 11.2031 12.4987 11.2031 12.4987C11.2031 12.4987 11.3137 12.4513 11.3926 12.5461C11.4716 12.6409 11.6611 12.6724 11.8823 12.6724C12.1034 12.6724 12.2929 12.7988 12.2771 13.0989C12.267 13.2911 12.218 13.6908 12.1841 13.9533C12.166 14.0938 12.2623 14.2232 12.4021 14.2464L12.8065 14.3139C12.9129 14.3316 13.0118 14.2556 13.0212 14.1482C13.0402 13.9321 13.0678 13.6156 13.0668 13.6044C13.0577 13.4908 13.2879 12.9094 13.2721 12.6409C13.2563 12.3724 13.2563 12.3724 13.2563 12.3724C13.2563 12.3724 13.4933 12.3408 13.588 12.1829C13.6828 12.0249 13.8881 11.6301 14.2988 11.4879L14.4094 11.2194C14.4094 11.2194 14.0935 11.0773 14.1567 10.9825C14.2199 10.8877 14.2514 10.635 14.2041 10.4297C14.1567 10.2244 14.1409 9.94009 14.1409 9.94009C14.1409 9.94009 14.0283 9.89251 14.0045 9.95794C13.9807 10.0234 13.9569 10.0591 13.8975 10.0471C13.838 10.0352 13.7488 10.0293 13.725 9.9758C13.7012 9.92227 13.6358 9.86879 13.5764 9.89851C13.5169 9.92823 13.4158 10.3266 13.2731 10.3682C13.2731 10.3682 13.2612 10.1958 13.172 10.2315C13.0829 10.2671 13.0888 10.3504 13.0769 10.499C13.065 10.6477 12.066 11.6526 11.1919 11.385C11.1919 11.385 11.0967 11.1947 10.9005 11.2125C10.7043 11.2304 10.514 11.2244 10.401 11.0877C10.288 10.9509 10.1083 10.5479 9.9396 10.5085Z" fill="#73AF00"/>
<path d="M14.3211 8.47127C14.5097 8.67171 16.5823 9.23607 18.6773 8.13874C20.7722 7.04141 22.0192 6.72547 22.0192 6.72547C22.0192 6.72547 22.0358 6.44282 22.2935 6.40124C22.5513 6.35967 22.4266 6.25162 22.3601 6.16846C22.2935 6.08531 21.9693 5.86087 21.5287 6.05207C21.5287 6.05207 21.0161 6.07148 20.9385 5.36208C20.8609 4.65268 20.8276 3.93222 20.6503 3.62182C20.4729 3.31146 19.0098 1.75963 18.8325 1.88155C18.6551 2.00347 19.2758 3.54419 19.8522 4.08733C19.8522 4.08733 19.9852 5.04057 19.819 5.08491C19.6527 5.12926 18.7327 4.28683 17.0922 4.08733C17.0922 4.08733 17.7906 5.04057 18.6441 5.43961C19.4976 5.83865 19.7303 6.20442 19.7082 6.35962C19.686 6.51482 19.3978 7.25745 18.9212 7.60104C18.4446 7.94468 17.2474 8.87575 14.5318 8.38802C14.5317 8.38811 14.2324 8.37705 14.3211 8.47127Z" fill="#FFE15A"/>
</g>
<defs>
<clipPath id="clip0_72_1228">
<path d="M0 2C0 0.895432 0.895431 0 2 0H21.9998C23.1043 0 23.9998 0.895431 23.9998 2V21.9998C23.9998 23.1043 23.1043 23.9998 21.9998 23.9998H2C0.895432 23.9998 0 23.1043 0 21.9998V2Z" fill="white"/>
</clipPath>
</defs>
</svg>
