<svg width="24" height="24" viewBox="0 0 24 24" fill="none" xmlns="http://www.w3.org/2000/svg">
<g clip-path="url(#clip0_72_1436)">
<path d="M24.0046 0.00012207H0.00488281V4.80008H24.0046V0.00012207Z" fill="#41479B"/>
<path d="M24.0046 19.1999H0.00488281V23.9999H24.0046V19.1999Z" fill="#41479B"/>
<path d="M24.0022 4.80001H0.00244141V9.59996H24.0022V4.80001Z" fill="#F5F5F5"/>
<path d="M24.0022 9.59997H0.00244141V14.3999H24.0022V9.59997Z" fill="#41479B"/>
<path d="M24.0022 14.3999H0.00244141V19.1999H24.0022V14.3999Z" fill="#F5F5F5"/>
<path d="M0.00244141 23.9998L11.9043 12.277C12.035 12.1482 12.035 11.8516 11.9043 11.7229L0.00244141 6.10352e-05V23.9998Z" fill="#FF4B55"/>
<path d="M4.8188 8.95507L5.46726 10.8994L7.51676 10.9153C7.67552 10.9165 7.74138 11.1191 7.61365 11.2134L5.96488 12.431L6.58311 14.3851C6.63102 14.5365 6.45866 14.6617 6.32947 14.5694L4.66205 13.3775L2.99463 14.5694C2.86545 14.6617 2.69309 14.5365 2.74099 14.3851L3.35922 12.431L1.71046 11.2134C1.58272 11.1191 1.64858 10.9165 1.80735 10.9153L3.85684 10.8994L4.5053 8.95507C4.55551 8.80442 4.76855 8.80442 4.8188 8.95507Z" fill="#F5F5F5"/>
</g>
<defs>
<clipPath id="clip0_72_1436">
<path d="M0 2C0 0.895432 0.895431 0 2 0H21.9998C23.1043 0 23.9998 0.895431 23.9998 2V21.9998C23.9998 23.1043 23.1043 23.9998 21.9998 23.9998H2C0.895432 23.9998 0 23.1043 0 21.9998V2Z" fill="white"/>
</clipPath>
</defs>
</svg>
