<svg width="24" height="24" viewBox="0 0 24 24" fill="none" xmlns="http://www.w3.org/2000/svg">
<g clip-path="url(#clip0_72_1445)">
<path d="M24.0017 6.10352e-05H0.00195312V23.9998H24.0017V6.10352e-05Z" fill="#41479B"/>
<path d="M24.0017 16.4212H0.00195312V19.5791H24.0017V16.4212Z" fill="#FFE15A"/>
<path d="M8.51082 5.90911L7.88964 7.77172L5.92625 7.78695C5.73795 7.7884 5.65991 8.02868 5.81136 8.14053L7.39084 9.30691L6.79858 11.1789C6.74177 11.3585 6.94619 11.507 7.09938 11.3975L8.69677 10.2557L10.2942 11.3975C10.4473 11.507 10.6517 11.3585 10.595 11.1789L10.0027 9.30691L11.5822 8.14053C11.7336 8.02868 11.6556 7.7884 11.4673 7.78695L9.5039 7.77172L8.88272 5.90911C8.823 5.73047 8.57039 5.73047 8.51082 5.90911Z" fill="#F5F5F5"/>
<path d="M4.03552 2.47195L3.67595 3.55006L2.53952 3.55883C2.43054 3.55967 2.38535 3.69875 2.473 3.76348L3.38725 4.43857L3.04445 5.52212C3.01159 5.62604 3.1299 5.71196 3.21854 5.64859L4.14314 4.98775L5.06774 5.64859C5.15638 5.71196 5.2747 5.62599 5.24184 5.52212L4.89904 4.43857L5.81328 3.76348C5.90094 3.69875 5.85575 3.55967 5.74677 3.55883L4.61034 3.55001L4.25077 2.4719C4.21622 2.36854 4.06997 2.36854 4.03552 2.47195Z" fill="#F5F5F5"/>
</g>
<defs>
<clipPath id="clip0_72_1445">
<path d="M0 2C0 0.895432 0.895431 0 2 0H21.9998C23.1043 0 23.9998 0.895431 23.9998 2V21.9998C23.9998 23.1043 23.1043 23.9998 21.9998 23.9998H2C0.895432 23.9998 0 23.1043 0 21.9998V2Z" fill="white"/>
</clipPath>
</defs>
</svg>
