<svg width="24" height="24" viewBox="0 0 24 24" fill="none" xmlns="http://www.w3.org/2000/svg">
<g clip-path="url(#clip0_72_1736)">
<path d="M23.9978 6.10352e-05H-0.00195312V23.9998H23.9978V6.10352e-05Z" fill="#41479B"/>
<path d="M12.1818 4.68267L12.3819 5.28285L13.0145 5.28777C13.0964 5.28843 13.1304 5.39291 13.0645 5.44162L12.5556 5.81746L12.7464 6.42064C12.7711 6.49873 12.6822 6.56332 12.6156 6.5157L12.1009 6.14783L11.5862 6.5157C11.5196 6.56332 11.4307 6.49873 11.4554 6.42064L11.6462 5.81746L11.1373 5.44162C11.0714 5.39296 11.1054 5.28843 11.1873 5.28777L11.8199 5.28285L12.0201 4.68267C12.0459 4.60495 12.1558 4.60495 12.1818 4.68267Z" fill="#FFE15A"/>
<path d="M12.1818 17.5684L12.3819 18.1686L13.0145 18.1735C13.0964 18.1742 13.1304 18.2787 13.0645 18.3274L12.5556 18.7032L12.7464 19.3064C12.7711 19.3845 12.6822 19.4491 12.6156 19.4015L12.1009 19.0336L11.5862 19.4015C11.5196 19.4491 11.4307 19.3845 11.4554 19.3064L11.6462 18.7032L11.1373 18.3274C11.0714 18.2787 11.1054 18.1742 11.1873 18.1735L11.8199 18.1686L12.0201 17.5684C12.0459 17.4907 12.1558 17.4907 12.1818 17.5684Z" fill="#FFE15A"/>
<path d="M18.6246 11.1255L18.8248 11.7257L19.4574 11.7306C19.5393 11.7313 19.5733 11.8358 19.5074 11.8845L18.9985 12.2603L19.1893 12.8635C19.214 12.9416 19.1251 13.0062 19.0585 12.9586L18.5438 12.5907L18.0291 12.9586C17.9624 13.0062 17.8735 12.9416 17.8983 12.8635L18.0891 12.2603L17.5802 11.8845C17.5143 11.8358 17.5483 11.7313 17.6301 11.7306L18.2628 11.7257L18.4629 11.1255C18.4888 11.0478 18.5987 11.0478 18.6246 11.1255Z" fill="#FFE15A"/>
<path d="M5.7389 11.1255L5.93905 11.7257L6.57167 11.7306C6.65356 11.7313 6.68754 11.8358 6.62164 11.8845L6.11272 12.2603L6.30355 12.8635C6.32825 12.9416 6.23933 13.0062 6.17272 12.9586L5.65804 12.5907L5.14336 12.9586C5.0767 13.0062 4.98778 12.9416 5.01253 12.8635L5.20336 12.2603L4.69444 11.8845C4.62853 11.8358 4.66252 11.7313 4.74441 11.7306L5.37703 11.7257L5.57718 11.1255C5.6031 11.0478 5.71298 11.0478 5.7389 11.1255Z" fill="#FFE15A"/>
<path d="M6.70618 7.76096L6.90634 8.36114L7.53896 8.36607C7.62085 8.36672 7.65483 8.47121 7.58892 8.51991L7.08001 8.89575L7.27083 9.49893C7.29554 9.57702 7.20662 9.64162 7.14001 9.59399L6.62532 9.22612L6.11064 9.59399C6.04399 9.64162 5.95507 9.57702 5.97981 9.49893L6.17064 8.89575L5.66172 8.51991C5.59582 8.47125 5.6298 8.36672 5.71169 8.36607L6.34431 8.36114L6.54447 7.76096C6.57034 7.68329 6.68026 7.68329 6.70618 7.76096Z" fill="#FFE15A"/>
<path d="M17.8654 14.2039L18.0655 14.8041L18.6981 14.809C18.78 14.8096 18.814 14.9141 18.7481 14.9628L18.2392 15.3387L18.43 15.9418C18.4547 16.0199 18.3658 16.0845 18.2992 16.0369L17.7845 15.669L17.2698 16.0369C17.2032 16.0845 17.1143 16.0199 17.139 15.9418L17.3298 15.3387L16.8209 14.9628C16.755 14.9142 16.789 14.8096 16.8709 14.809L17.5035 14.8041L17.7036 14.2039C17.7296 14.1262 17.8395 14.1262 17.8654 14.2039Z" fill="#FFE15A"/>
<path d="M15.5075 5.40271L15.7076 6.0029L16.3402 6.00782C16.4221 6.00847 16.4561 6.11296 16.3902 6.16166L15.8813 6.5375L16.0721 7.14068C16.0968 7.21877 16.0079 7.28337 15.9413 7.23574L15.4266 6.86787L14.9119 7.23574C14.8453 7.28337 14.7564 7.21877 14.7811 7.14068L14.9719 6.5375L14.463 6.16166C14.3971 6.113 14.4311 6.00847 14.513 6.00782L15.1456 6.0029L15.3457 5.40271C15.3717 5.32504 15.4815 5.32504 15.5075 5.40271Z" fill="#FFE15A"/>
<path d="M9.06458 16.5621L9.26474 17.1623L9.89735 17.1672C9.97924 17.1679 10.0132 17.2724 9.94732 17.321L9.43841 17.6969L9.62923 18.3001C9.65394 18.3781 9.56501 18.4427 9.49841 18.3951L8.98372 18.0272L8.46904 18.3951C8.40238 18.4427 8.31351 18.3781 8.33821 18.3001L8.52904 17.6969L8.02012 17.321C7.95422 17.2724 7.9882 17.1678 8.07009 17.1672L8.70271 17.1623L8.90286 16.5621C8.92874 16.4844 9.03866 16.4844 9.06458 16.5621Z" fill="#FFE15A"/>
<path d="M17.7036 7.76096L17.5035 8.36114L16.8709 8.36607C16.789 8.36672 16.755 8.47121 16.8209 8.51991L17.3298 8.89575L17.139 9.49893C17.1143 9.57702 17.2032 9.64162 17.2698 9.59399L17.7845 9.22612L18.2992 9.59399C18.3658 9.64162 18.4547 9.57702 18.43 9.49893L18.2392 8.89575L18.7481 8.51991C18.814 8.47125 18.78 8.36672 18.6981 8.36607L18.0655 8.36114L17.8654 7.76096C17.8394 7.68329 17.7296 7.68329 17.7036 7.76096Z" fill="#FFE15A"/>
<path d="M6.54447 14.2039L6.34431 14.8041L5.71169 14.809C5.6298 14.8096 5.59582 14.9141 5.66172 14.9628L6.17064 15.3387L5.97981 15.9418C5.95511 16.0199 6.04403 16.0845 6.11064 16.0369L6.62532 15.669L7.14001 16.0369C7.20666 16.0845 7.29558 16.0199 7.27083 15.9418L7.08001 15.3387L7.58892 14.9628C7.65483 14.9142 7.62085 14.8096 7.53896 14.809L6.90634 14.8041L6.70618 14.2039C6.68031 14.1262 6.57039 14.1262 6.54447 14.2039Z" fill="#FFE15A"/>
<path d="M8.90238 5.40271L8.70222 6.0029L8.0696 6.00782C7.98771 6.00847 7.95373 6.11296 8.01963 6.16166L8.52855 6.5375L8.33773 7.14068C8.31302 7.21877 8.40194 7.28337 8.46855 7.23574L8.98323 6.86787L9.49792 7.23574C9.56457 7.28337 9.65349 7.21877 9.62874 7.14068L9.43792 6.5375L9.94683 6.16166C10.0127 6.113 9.97876 6.00847 9.89687 6.00782L9.26425 6.0029L9.06409 5.40271C9.03822 5.32504 8.9283 5.32504 8.90238 5.40271Z" fill="#FFE15A"/>
<path d="M15.3457 16.5621L15.1456 17.1623L14.513 17.1672C14.4311 17.1679 14.3971 17.2724 14.463 17.321L14.9719 17.6969L14.7811 18.3001C14.7564 18.3781 14.8453 18.4427 14.9119 18.3951L15.4266 18.0272L15.9413 18.3951C16.0079 18.4427 16.0969 18.3781 16.0721 18.3001L15.8813 17.6969L16.3902 17.321C16.4561 17.2724 16.4221 17.1678 16.3402 17.1672L15.7076 17.1623L15.5075 16.5621C15.4815 16.4844 15.3717 16.4844 15.3457 16.5621Z" fill="#FFE15A"/>
</g>
<defs>
<clipPath id="clip0_72_1736">
<path d="M0 2C0 0.895432 0.895431 0 2 0H21.9998C23.1043 0 23.9998 0.895431 23.9998 2V21.9998C23.9998 23.1043 23.1043 23.9998 21.9998 23.9998H2C0.895432 23.9998 0 23.1043 0 21.9998V2Z" fill="white"/>
</clipPath>
</defs>
</svg>
