<svg width="24" height="24" viewBox="0 0 24 24" fill="none" xmlns="http://www.w3.org/2000/svg">
<g clip-path="url(#clip0_72_1806)">
<path d="M23.9973 6.10352e-05H-0.00244141V23.9998H23.9973V6.10352e-05Z" fill="#82AFFF"/>
<path d="M13.7324 11.1751V17.4219C13.7324 19.9553 17.2911 21.2573 17.7247 21.4065C18.1579 21.2573 21.717 19.9532 21.717 17.4219V11.1751H13.7324Z" fill="#F5F5F5"/>
<path d="M21.8582 14.0402V11.0342H13.5918V14.0402H17.1614V16.8583H13.5918V17.9855H17.1614V21.3672L17.725 21.5551L18.2886 21.3672V17.9855H21.8582V16.8583H18.2886V14.0402H21.8582Z" fill="#FF4B55"/>
<path d="M14.9071 12.5867C15.1867 13.0513 14.7029 13.535 14.2383 13.2555C14.1947 13.2292 14.1576 13.1921 14.1313 13.1484C13.8517 12.6838 14.3355 12.2001 14.8 12.4797C14.8437 12.506 14.8808 12.543 14.9071 12.5867Z" fill="#F5F5F5"/>
<path d="M15.4215 12.2316C15.271 12.1488 15.0001 11.9268 14.891 11.9644C14.7818 12.0021 14.7574 12.0792 14.6048 12.091C14.456 12.1024 14.2212 12.2475 14.319 12.4085C14.4463 12.6179 14.8446 12.455 14.8709 12.3571C14.8709 12.3571 14.9688 12.3728 15.051 12.3532C15.051 12.3532 15.2146 12.5816 15.4178 12.5665C15.621 12.5515 15.7151 12.2994 15.6699 12.2994C15.6247 12.2994 15.4215 12.2316 15.4215 12.2316Z" fill="#FFE15A"/>
<path d="M16.0459 13.2287C16.012 13.2908 15.7542 13.5112 15.3234 13.6125C15.2275 13.6351 15.2444 13.748 15.1484 13.6916C15.0525 13.6351 14.7872 13.59 14.5501 13.5787C14.313 13.5674 14.2895 13.3478 14.33 13.2682C14.3814 13.1673 14.7598 13.1058 14.8276 13.2299C14.8953 13.3541 14.946 13.3282 15.1145 13.3642C15.219 13.3865 15.2218 13.4375 15.2218 13.4375C15.2218 13.4375 15.4137 13.2456 15.5774 13.1892C15.7411 13.1328 15.8822 13.0086 15.9104 13.0086C15.9386 13.0086 16.0854 13.0481 16.0854 13.0481L16.0459 13.2287Z" fill="#FFE15A"/>
<path d="M16.6728 12.5627C16.9212 12.653 17.655 12.6248 18.4395 12.3708C19.224 12.1168 19.4498 12.0716 19.8336 12.2128C20.2175 12.3539 20.3836 11.9081 20.1316 11.8327C19.7356 11.7142 18.5112 12.4256 17.6246 12.0264C17.6246 12.0264 17.5985 12.1337 17.6267 12.1845C17.6267 12.1845 16.9833 12.2071 17.1357 11.5411C17.1357 11.5411 17.1795 11.7842 17.4837 11.7563C18.0591 11.7035 18.1413 12.1086 19.3595 11.733C20.0359 11.5245 20.5613 11.6268 20.566 11.9559C20.5716 12.3521 20.0255 12.4442 20.0255 12.4442C20.0255 12.4442 20.2381 12.8788 20.6671 12.6869C21.0961 12.495 21.1187 12.8261 21.1563 12.939C21.1939 13.0519 21.2654 13.161 21.3595 13.1723C21.3595 13.1723 21.4272 13.3755 21.4009 13.4018C21.3746 13.4282 21.1977 13.6502 21.0208 13.6502C20.844 13.6502 20.4602 13.6502 20.4602 13.6502C20.4602 13.6502 20.3586 13.3981 20.5542 13.3943C20.7499 13.3905 20.987 13.3755 20.9569 13.2701C20.9268 13.1647 20.7725 13.1158 20.7762 12.9992C20.7762 12.9992 20.321 13.3303 20.0387 12.939L20.0312 13.1233C20.0312 13.1233 19.6888 13.0594 19.5646 12.7847C19.5646 12.7847 19.5984 13.0932 19.3049 13.0481C19.3049 13.0481 19.3651 13.1384 19.4668 13.2023C19.5683 13.2663 19.463 13.4055 19.2673 13.5222C19.0716 13.6388 18.4696 13.9774 18.1949 13.6313C17.9202 13.2851 18.2551 13.0857 18.3379 13.1083C18.4207 13.1308 18.6577 13.4958 18.8195 13.4469C18.9813 13.398 19.0604 13.2324 18.9249 13.1308C18.7894 13.0293 18.6879 12.9332 18.7734 12.8307C18.8908 12.6898 19.3237 12.732 19.3087 12.6379C19.2936 12.5438 18.891 12.5702 18.6276 12.8336C18.3642 13.097 17.2203 13.7028 16.765 13.319C16.3097 12.9352 16.6728 12.5627 16.6728 12.5627Z" fill="#FFE15A"/>
<path d="M16.5265 12.3935C16.5265 12.3935 16.8707 12.7321 17.4521 12.8393C17.4521 12.8393 17.3448 13.003 17.0344 12.9579C17.0344 12.9579 17.1586 13.0651 17.2433 13.2457C17.2433 13.2457 17.0457 13.2909 16.8707 13.1949C16.8707 13.1949 16.8933 13.3417 16.978 13.4602C16.978 13.4602 16.7466 13.4602 16.549 13.2852L16.47 13.5109C16.47 13.5109 16.3345 13.4206 16.2499 13.2457C16.2499 13.2457 16.0919 13.3699 15.9338 13.3699C15.9338 13.3699 15.9903 13.2005 15.9903 13.1046C15.9903 13.1046 15.7645 13.2401 15.5782 13.1892C15.5782 13.1892 15.5839 12.9522 15.646 12.8845C15.646 12.8845 15.4992 12.9014 15.4032 12.8506C15.4032 12.8506 15.4597 12.7208 15.4879 12.6361C15.4879 12.6361 15.3298 12.6418 15.2339 12.5515C15.2339 12.5515 15.5387 12.4329 15.6064 12.3201L16.5265 12.3935Z" fill="#FFD25A"/>
<path d="M15.9712 11.4452C16.0389 11.4829 16.1481 11.5657 16.1932 11.7049C16.1932 11.7049 16.3174 11.5243 16.5319 11.4904C16.5319 11.4904 16.6259 11.5957 16.5996 11.8704C16.5996 11.8704 16.8366 11.8027 16.9646 11.9269C16.9646 11.9269 16.7125 11.9833 16.5958 12.194C16.5958 12.194 16.5506 12.4093 16.6296 12.5372C16.6296 12.5372 16.5416 12.549 16.4529 12.5101C16.4529 12.5101 16.4077 12.7246 16.4529 12.7923C16.4529 12.7923 16.3287 12.7773 16.261 12.6455C16.261 12.6455 16.1594 12.7998 16.1669 12.8939C16.1669 12.8939 16.0314 12.8149 16.0239 12.6982C16.0239 12.6982 15.9299 12.8751 15.8283 12.8901C15.8283 12.8901 15.817 12.6418 15.7718 12.5477C15.7718 12.5477 15.6853 12.6418 15.5724 12.638C15.5724 12.638 15.5724 12.4461 15.6665 12.3558C15.6665 12.3558 15.5085 12.4048 15.4219 12.2316C15.4219 12.2316 15.6815 12.3069 15.7455 12.1489C15.8095 11.9908 15.8283 11.9419 15.9186 11.8554C16.0088 11.7688 15.9712 11.4452 15.9712 11.4452Z" fill="#FFBE5A"/>
<path d="M16.5266 12.1733C16.5266 12.1733 16.2049 12.7886 15.9114 12.6023C15.5898 12.3982 15.9904 11.9193 16.0412 11.8686C16.0412 11.8686 16.2783 11.9306 16.5266 12.1733Z" fill="#FFE15A"/>
<path d="M15.3659 15.3244C15.3659 15.3244 15.3321 14.8825 15.0926 14.755C14.8673 14.6352 14.7344 14.5752 14.7085 14.4217C14.7085 14.4217 14.9042 14.5116 15.1111 14.5677C15.2979 14.6185 15.4803 14.9348 15.425 15.2906L15.3659 15.3244Z" fill="#5ABEA0"/>
<path d="M14.6099 15.6877L14.6403 15.7439L14.6625 15.8647L14.6182 16.008C14.6182 16.008 14.7942 16.0779 14.8343 16.3169C14.8618 16.481 14.934 16.5164 14.9783 16.4827C15.0226 16.449 15.0495 16.4091 15.0032 16.2299C14.9442 16.001 14.7844 15.7832 14.7844 15.7832L14.6598 15.5922L14.6099 15.6877Z" fill="#B46446"/>
<path d="M14.7872 15.7831C14.6266 15.5752 14.1889 15.1426 14.1058 15.7325C14.1058 15.7325 13.9343 15.2355 14.2554 15.255C14.6265 15.2775 14.7872 15.7831 14.7872 15.7831Z" fill="#5ABEA0"/>
<path d="M14.643 15.7438C14.5045 15.5921 14.4602 15.4797 14.3882 15.1988C14.3162 14.9179 14.294 14.8336 14.2109 14.8392C14.1278 14.8449 14.0779 14.9348 14.0779 15.1145C14.0779 15.1145 13.8342 14.8954 14.0004 14.7213C14.1666 14.5471 14.5377 14.6426 14.5599 14.9516C14.5821 15.2606 14.5765 15.4685 14.6873 15.727L14.643 15.7438Z" fill="#5ABEA0"/>
<path d="M14.6817 15.609C14.6817 15.609 14.3882 14.9629 15.2135 14.6145C15.2135 14.6145 14.4823 14.4179 14.5709 15.4573L14.6817 15.609Z" fill="#5ABEA0"/>
<path d="M14.7756 15.8393C14.7756 15.8393 14.1551 15.6034 14.2105 16.1764C14.2105 16.1764 14.3158 15.9068 14.6205 16.0079L14.7756 15.8393Z" fill="#5ABEA0"/>
<path d="M15.4771 15.6128C15.4771 15.7804 15.543 16.2667 15.4494 16.3282C15.4023 16.3591 15.2693 16.3338 15.2804 16.2158C15.2915 16.0979 15.3441 15.5248 15.3441 15.3843C15.3441 15.2438 15.4771 15.6128 15.4771 15.6128Z" fill="#B46446"/>
<path d="M15.0858 16.0023C15.1929 15.8937 15.2261 15.6464 15.1892 15.3168C15.1892 15.3168 15.4108 15.4704 15.4809 15.6127C15.4809 15.6127 15.5511 15.2869 15.3221 15.2007C15.0931 15.1146 14.9713 15.1633 14.9307 15.2681C14.89 15.373 15.0007 15.4903 15.0488 15.6614C15.0931 15.8188 15.0858 16.0023 15.0858 16.0023Z" fill="#5ABEA0"/>
<path d="M15.4659 15.5266C15.4659 15.5266 15.5028 15.3543 15.6247 15.2831C15.6247 15.2831 15.8758 15.4592 15.8573 15.6952C15.8573 15.6952 15.9238 15.373 15.7872 15.2457C15.6505 15.1183 15.4954 15.0846 15.4179 15.197C15.3403 15.3093 15.4659 15.5266 15.4659 15.5266Z" fill="#5ABEA0"/>
<path d="M15.5251 15.197C15.5251 15.197 15.6026 14.7362 15.7984 14.6351C15.9941 14.534 16.356 14.4404 16.3781 14.4179C16.3781 14.4179 15.9461 14.4403 15.8759 14.4403C15.8057 14.4403 15.418 14.7212 15.418 15.137C15.418 15.5528 15.4549 15.2681 15.466 15.2644C15.4771 15.2606 15.5251 15.197 15.5251 15.197Z" fill="#5ABEA0"/>
<path d="M15.7012 16.4153C15.7455 16.508 15.8507 16.5305 15.8729 16.4827C15.895 16.4349 15.9947 16.0697 15.9947 16.0697L15.8535 16.0023L15.7012 16.4153Z" fill="#B46446"/>
<path d="M16.5294 14.8824C16.703 14.7812 16.8175 15.0809 16.8175 15.0809C16.8175 14.7281 16.7067 14.6164 16.4297 14.7513C16.3463 14.7919 16.2853 14.877 16.2404 14.9757C16.1001 14.5728 15.7909 14.579 15.7909 14.579L15.7207 14.6277C15.9739 14.6763 16.1189 14.9798 16.1803 15.1454C16.1472 15.2662 16.1312 15.3833 16.1244 15.4503C15.9585 15.6223 15.8537 16.0023 15.8537 16.0023C15.8537 16.0023 15.9728 16.0725 15.995 16.0697C15.995 16.0697 16.0725 15.8309 16.1695 15.8365C16.2664 15.8422 16.38 15.9967 16.3828 16.095C16.3828 16.095 16.5268 15.8028 16.3551 15.6905C16.2906 15.6482 16.2389 15.6322 16.1973 15.6315L16.3246 15.4882C16.5323 15.5275 16.6763 15.7242 16.6763 15.7242C16.6806 15.373 16.5255 15.3045 16.362 15.3339C16.3913 15.1926 16.4555 14.9255 16.5294 14.8824Z" fill="#5ABEA0"/>
<path d="M19.9487 15.3686C19.9487 15.6631 19.9487 16.3162 19.9487 16.3644C19.9487 16.4126 19.7378 16.6 19.7378 16.6H20.2985C20.2985 16.6 20.1184 16.3912 20.1184 16.3644C20.1184 16.3377 20.1596 15.4436 20.1596 15.4436L19.9487 15.3686Z" fill="#B46446"/>
<path d="M19.9843 15.4703C19.8506 15.4596 19.4802 15.7647 19.3722 16.2305C19.3722 16.2305 19.043 15.6951 19.866 15.2507C19.866 15.2507 19.5008 15.1437 18.9453 15.7219C18.9153 15.7531 18.8887 14.8492 19.8866 15.0901C19.8866 15.0901 19.506 14.5387 18.7241 14.9724C18.7241 14.9724 19.2436 14.0408 20.0101 14.876C20.0101 14.876 20.0152 14.1532 20.0203 14.2282C20.0255 14.3031 20.0821 14.635 20.0821 14.635L20.2312 14.3727L20.1129 14.9081C20.1129 14.9081 20.7971 13.998 21.3783 14.9455C21.3783 14.9455 20.6273 14.635 20.2672 14.983C20.2672 14.983 21.0388 14.7742 20.9771 15.6683C20.9771 15.6683 20.6736 15.1382 20.1798 15.2078C20.1798 15.2078 20.761 15.4756 20.5759 16.1983C20.5758 16.1984 20.2256 15.4896 19.9843 15.4703Z" fill="#5ABEA0"/>
<path d="M15.0723 18.6877C15.0437 18.6489 15.0035 18.6302 14.9642 18.6254C14.9793 18.5732 14.9894 18.5493 14.9854 18.5113C14.9974 18.5143 15.0088 18.5197 15.0212 18.5212L15.0264 18.4782C14.9807 18.4727 14.931 18.4522 14.8798 18.421C14.9113 18.3939 14.9342 18.3525 14.9342 18.3016C14.9342 18.2463 14.9088 18.2001 14.8728 18.1738C14.8367 18.2001 14.8114 18.2463 14.8114 18.3016C14.8114 18.3431 14.8283 18.3763 14.8507 18.403C14.8317 18.3899 14.8125 18.3746 14.7932 18.3583C14.7882 18.3243 14.7752 18.2901 14.745 18.2626C14.7042 18.2253 14.6529 18.2129 14.6092 18.2218C14.6044 18.2662 14.6215 18.3161 14.6623 18.3533C14.6938 18.382 14.731 18.3919 14.7666 18.3926C14.7748 18.3995 14.7833 18.4065 14.7923 18.4135C14.7678 18.4105 14.7414 18.413 14.715 18.4226C14.6631 18.4415 14.6283 18.4812 14.6158 18.524C14.6529 18.5489 14.7051 18.5569 14.757 18.538C14.8023 18.5215 14.8315 18.4883 14.8472 18.4518C14.8776 18.4713 14.911 18.4874 14.9455 18.5004L14.94 18.5011C14.9389 18.5322 14.9409 18.545 14.9254 18.603C14.8905 18.5804 14.8443 18.5702 14.7955 18.5845C14.7425 18.6002 14.7053 18.6375 14.6902 18.6795C14.7256 18.7067 14.7772 18.7179 14.8302 18.7023C14.87 18.6906 14.8971 18.6649 14.9164 18.6359C14.9091 18.6579 14.8999 18.6806 14.8896 18.7037C14.8585 18.7181 14.8293 18.7403 14.8114 18.777C14.7872 18.8267 14.7898 18.8793 14.8107 18.9188C14.8546 18.9109 14.8976 18.8804 14.9218 18.8306C14.9405 18.7923 14.9394 18.7539 14.9301 18.7195C14.9344 18.7097 14.9386 18.6996 14.9428 18.689C14.9469 18.7133 14.9568 18.7379 14.9735 18.7605C15.0063 18.805 15.0541 18.8272 15.0988 18.827C15.1122 18.7844 15.1051 18.7322 15.0723 18.6877Z" fill="#5ABEA0"/>
<path d="M14.8184 18.549C15.0061 18.549 15.2517 18.5418 15.2444 18.7295C15.2372 18.9173 15.0278 19.5528 15.5117 19.7478C15.9956 19.9428 16.0533 19.914 16.0533 19.914L16.27 20.4123L16.7972 20.2245L16.2916 19.8201C16.2916 19.8201 16.2483 19.5456 16.1255 19.3579C16.1255 19.3579 16.436 19.199 16.5444 19.0618L16.3277 19.0473C16.3277 19.0473 16.6094 18.8668 16.7394 18.6646L16.5877 18.679C16.5877 18.679 16.7611 18.5057 16.8044 18.3034C16.8044 18.3034 16.5227 18.5851 16.2339 18.6212C16.2339 18.6212 16.3566 18.3034 16.3855 18.1807C16.3855 18.1807 16.1689 18.3179 16.0172 18.3757C15.8656 18.4335 15.6272 18.4407 15.7356 18.9318C15.7356 18.9318 15.6056 18.8234 15.5261 18.5923C15.4467 18.3612 15.4178 18.2746 15.3095 18.2746C15.1325 18.2746 15.0639 18.4334 15.0639 18.4334L14.8184 18.549Z" fill="#FFECDE"/>
<path d="M20.1488 18.6418C20.2137 18.5552 20.3437 18.2845 20.4573 18.3549C20.571 18.4253 20.7226 18.5985 20.8147 18.5173C20.9067 18.4362 20.9121 18.3333 20.7714 18.2846C20.6306 18.2359 20.4736 18.1546 20.3762 18.1871C20.2787 18.2196 19.981 18.5282 19.981 18.5282L20.1488 18.6418Z" fill="#B46446"/>
<path d="M19.3093 18.8746C19.3039 18.7501 19.3879 18.2095 19.7262 18.2791C19.9103 18.317 20.0008 18.5121 20.2405 18.604C20.4949 18.7014 20.6573 18.7609 20.6086 18.9288C20.5599 19.0966 20.4679 19.297 20.2567 19.3457C20.0456 19.3944 19.3093 18.8746 19.3093 18.8746Z" fill="#FFE15A"/>
<path d="M19.0878 19.3203C19.0156 19.3348 18.7485 19.7246 19.0661 20.1216C19.0661 20.1216 19.456 20.2804 19.7663 20.0349C20.0767 19.7895 19.8457 19.6668 19.8457 19.6668L19.0878 19.3203Z" fill="#5ABEA0"/>
<path d="M19.1148 19.4052C19.0823 19.3565 19.0877 19.3204 19.0877 19.3204C19.0877 19.3204 19.0715 18.761 19.3043 18.7502C19.5371 18.7393 20.3762 19.2915 20.3762 19.3836C20.3762 19.4756 20.1055 19.7409 19.8782 19.795C19.6508 19.8492 19.1148 19.4052 19.1148 19.4052Z" fill="#5ABEA0"/>
<path d="M18.5405 20.7586C18.5405 20.7586 19.28 20.4264 19.141 20.1561C19.0407 19.9611 18.8152 20.0861 18.7796 20.235C18.7352 20.4208 18.5906 20.6797 18.5405 20.7586Z" fill="#B46446"/>
<path d="M17.7248 21.703L17.682 21.6894C17.6391 21.6756 16.6183 21.3468 15.5807 20.6629C14.1872 19.7446 13.4507 18.6238 13.4507 17.4219V10.8933H21.9989V17.4219C21.9989 18.6238 21.2623 19.7447 19.8689 20.6629C18.8313 21.3469 17.8104 21.6757 17.7675 21.6894L17.7248 21.703ZM13.7325 11.1751V17.4219C13.7325 19.9553 17.2912 21.2573 17.7248 21.4065C18.158 21.2573 21.7171 19.9532 21.7171 17.4219V11.1751H13.7325Z" fill="#464655"/>
<path d="M4.41614 0.00012207H-0.00488281V0.936535L4.41614 3.83305V0.00012207Z" fill="#41479B"/>
<path d="M-0.00488281 3.20161V4.42115H1.85651L-0.00488281 3.20161Z" fill="#41479B"/>
<path d="M-0.00488281 7.57899V8.79852L1.85651 7.57899H-0.00488281Z" fill="#41479B"/>
<path d="M11.9952 0.936535V0.00012207H7.57422V3.83305L11.9952 0.936535Z" fill="#41479B"/>
<path d="M11.9952 8.79852V7.57899H10.1338L11.9952 8.79852Z" fill="#41479B"/>
<path d="M7.57422 8.16707V12H11.9952V11.0636L7.57422 8.16707Z" fill="#41479B"/>
<path d="M11.9952 4.42115V3.20161L10.1338 4.42115H11.9952Z" fill="#41479B"/>
<path d="M-0.00488281 11.0636V12H4.41614V8.16707L-0.00488281 11.0636Z" fill="#41479B"/>
<path d="M11.9949 11.0636V10.1278L8.06836 7.57898H9.22841L11.9949 9.37479V8.79852L10.1336 7.57898H11.9949V6.9474H6.94238V12H7.57392V8.16707L11.9949 11.0636Z" fill="#F5F5F5"/>
<path d="M-0.00488281 6.9474V7.57898H1.85651L-0.00488281 8.79852V9.68449L3.23869 7.57898H4.39875L-0.00488281 10.4375V11.0636L4.41614 8.16707V12H5.04768V6.9474H-0.00488281Z" fill="#F5F5F5"/>
<path d="M5.04768 0.00012207H4.41614V3.83305L-0.00488281 0.936535V1.96131L3.78455 4.42114H2.6245L-0.00488281 2.71435V3.20161L1.85651 4.42114H-0.00488281V5.05273H5.04768V0.00012207Z" fill="#F5F5F5"/>
<path d="M11.9949 5.05273V4.42114H10.1336L11.9949 3.20161V2.30433L8.73397 4.42114H7.57392L11.9949 1.55134V0.936535L7.57392 3.83305V0.00012207H6.94238V5.05273H11.9949Z" fill="#F5F5F5"/>
<path d="M11.995 6.9474V5.05273H6.94244V0.00012207H5.04768V5.05273H-0.00488281V6.9474H5.04768V12H6.94244V6.9474H11.995Z" fill="#FF4B55"/>
<path d="M3.23869 7.57899L-0.00488281 9.6845V10.4375L4.39875 7.57899H3.23869Z" fill="#FF4B55"/>
<path d="M8.06836 7.57899L11.9949 10.1278V9.3748L9.22841 7.57899H8.06836Z" fill="#FF4B55"/>
<path d="M3.78455 4.42115L-0.00488281 1.96131V2.71435L2.6245 4.42115H3.78455Z" fill="#FF4B55"/>
<path d="M8.73427 4.42114L11.9952 2.30433V1.55134L7.57422 4.42114H8.73427Z" fill="#FF4B55"/>
</g>
<defs>
<clipPath id="clip0_72_1806">
<path d="M0 2C0 0.895432 0.895431 0 2 0H21.9998C23.1043 0 23.9998 0.895431 23.9998 2V21.9998C23.9998 23.1043 23.1043 23.9998 21.9998 23.9998H2C0.895432 23.9998 0 23.1043 0 21.9998V2Z" fill="white"/>
</clipPath>
</defs>
</svg>
