<svg width="24" height="24" viewBox="0 0 24 24" fill="none" xmlns="http://www.w3.org/2000/svg">
<g clip-path="url(#clip0_72_1912)">
<path d="M24.0037 6.10352e-05H0.00390625V23.9998H24.0037V6.10352e-05Z" fill="#F5F5F5"/>
<path d="M24.0071 10.1053H13.9019V0.00012207H10.1125V10.1053H0.00732422V13.8947H10.1125V23.9999H13.9019V13.8947H24.0071V10.1053Z" fill="#FF4B55"/>
<path d="M7.50715 4.18958C6.88161 4.25249 6.26872 4.31553 5.655 4.37858C5.71804 3.76476 5.78109 3.15187 5.84404 2.52643C5.27034 2.60063 4.69144 2.60063 4.11775 2.52643C4.18065 3.15197 4.2437 3.76485 4.30679 4.37858C3.69302 4.31553 3.08008 4.25253 2.45459 4.18958C2.52879 4.76319 2.52879 5.34218 2.45459 5.91578C3.08013 5.85288 3.69302 5.78983 4.30679 5.72679C4.2437 6.34061 4.18065 6.95349 4.11775 7.57894C4.69144 7.50474 5.27034 7.50474 5.84404 7.57894C5.78109 6.9534 5.71804 6.34051 5.655 5.72679C6.26877 5.78983 6.8817 5.85283 7.50715 5.91578C7.43295 5.34223 7.43295 4.76319 7.50715 4.18958Z" fill="#FF4B55"/>
<path d="M21.6165 4.18958C20.991 4.25249 20.3781 4.31553 19.7644 4.37858C19.8274 3.76476 19.8905 3.15187 19.9534 2.52643C19.3797 2.60063 18.8008 2.60063 18.2271 2.52643C18.29 3.15197 18.3531 3.76485 18.4162 4.37858C17.8024 4.31553 17.1895 4.25253 16.564 4.18958C16.6382 4.76319 16.6382 5.34218 16.564 5.91578C17.1895 5.85288 17.8024 5.78983 18.4162 5.72679C18.3531 6.34061 18.29 6.95349 18.2271 7.57894C18.8008 7.50474 19.3797 7.50474 19.9534 7.57894C19.8905 6.9534 19.8274 6.34051 19.7644 5.72679C20.3781 5.78983 20.9911 5.85283 21.6165 5.91578C21.5423 5.34223 21.5423 4.76319 21.6165 4.18958Z" fill="#FF4B55"/>
<path d="M7.50715 18.0842C6.88161 18.1471 6.26872 18.2101 5.655 18.2732C5.71804 17.6594 5.78109 17.0465 5.84404 16.421C5.27034 16.4952 4.69144 16.4952 4.11775 16.421C4.18065 17.0466 4.2437 17.6594 4.30679 18.2732C3.69302 18.2101 3.08008 18.1471 2.45459 18.0842C2.52879 18.6578 2.52879 19.2368 2.45459 19.8104C3.08013 19.7475 3.69302 19.6844 4.30679 19.6214C4.2437 20.2352 4.18065 20.8481 4.11775 21.4735C4.69144 21.3993 5.27034 21.3993 5.84404 21.4735C5.78109 20.848 5.71804 20.2351 5.655 19.6214C6.26877 19.6844 6.8817 19.7474 7.50715 19.8104C7.43295 19.2368 7.43295 18.6578 7.50715 18.0842Z" fill="#FF4B55"/>
<path d="M21.6165 18.0842C20.991 18.1471 20.3781 18.2101 19.7644 18.2732C19.8274 17.6594 19.8905 17.0465 19.9534 16.421C19.3797 16.4952 18.8008 16.4952 18.2271 16.421C18.29 17.0466 18.3531 17.6594 18.4162 18.2732C17.8024 18.2101 17.1895 18.1471 16.564 18.0842C16.6382 18.6578 16.6382 19.2368 16.564 19.8104C17.1895 19.7475 17.8024 19.6844 18.4162 19.6214C18.3531 20.2352 18.29 20.8481 18.2271 21.4735C18.8008 21.3993 19.3797 21.3993 19.9534 21.4735C19.8905 20.848 19.8274 20.2351 19.7644 19.6214C20.3781 19.6844 20.9911 19.7474 21.6165 19.8104C21.5423 19.2368 21.5423 18.6578 21.6165 18.0842Z" fill="#FF4B55"/>
</g>
<defs>
<clipPath id="clip0_72_1912">
<path d="M0 2C0 0.895432 0.895431 0 2 0H21.9998C23.1043 0 23.9998 0.895431 23.9998 2V21.9998C23.9998 23.1043 23.1043 23.9998 21.9998 23.9998H2C0.895432 23.9998 0 23.1043 0 21.9998V2Z" fill="white"/>
</clipPath>
</defs>
</svg>
