<svg width="24" height="24" viewBox="0 0 24 24" fill="none" xmlns="http://www.w3.org/2000/svg">
<g clip-path="url(#clip0_72_1942)">
<path d="M24.0051 2.68024H0.00537109V5.34304H24.0051V2.68024Z" fill="#F5F5F5"/>
<path d="M24.0051 8.00566H0.00537109V10.6685H24.0051V8.00566Z" fill="#F5F5F5"/>
<path d="M24.0051 13.3311H0.00537109V15.9939H24.0051V13.3311Z" fill="#F5F5F5"/>
<path d="M24.0022 15.994H0.00244141V18.6568H24.0022V15.994Z" fill="#41479B"/>
<path d="M24.0022 18.6569H0.00244141V21.3197H24.0022V18.6569Z" fill="#F5F5F5"/>
<path d="M24.0051 21.3197H0.00537109V23.9826H24.0051V21.3197Z" fill="#41479B"/>
<path d="M24.0051 2.6799V0.0170975H0.00537109V5.3427V8.00555V13.3312H24.0051V10.6684H12.6187V8.00555H24.0051V5.3427H12.6187V2.6799H24.0051Z" fill="#41479B"/>
<path d="M12.6158 5.34282H7.64046V0.0172157H4.97771V5.34282H0.00244141V8.00567H4.97771V13.3313H7.64046V8.00567H12.6158V5.34282Z" fill="#F5F5F5"/>
</g>
<defs>
<clipPath id="clip0_72_1942">
<path d="M0 2C0 0.895432 0.895431 0 2 0H21.9998C23.1043 0 23.9998 0.895431 23.9998 2V21.9998C23.9998 23.1043 23.1043 23.9998 21.9998 23.9998H2C0.895432 23.9998 0 23.1043 0 21.9998V2Z" fill="white"/>
</clipPath>
</defs>
</svg>
