<svg width="24" height="24" viewBox="0 0 24 24" fill="none" xmlns="http://www.w3.org/2000/svg">
<g clip-path="url(#clip0_72_1990)">
<path d="M8.00203 6.10352e-05H0.00195312V23.9998H8.00203V6.10352e-05Z" fill="#82AFFF"/>
<path d="M16.002 6.10352e-05H8.00195V23.9998H16.002V6.10352e-05Z" fill="#F5F5F5"/>
<path d="M24.0011 6.10352e-05H16.001V23.9998H24.0011V6.10352e-05Z" fill="#82AFFF"/>
<path d="M11.8825 9.64159L11.6113 9.77715L11.8608 9.88018L11.8825 9.64159Z" fill="#FFC855"/>
<path d="M12.0018 14.6525C10.4947 14.6525 9.26855 13.4263 9.26855 11.9192C9.26855 10.983 9.73978 10.1221 10.5291 9.61637L10.5993 9.72592C9.8475 10.2076 9.39872 11.0276 9.39872 11.9192C9.39872 13.3546 10.5665 14.5223 12.0018 14.5223V14.6525Z" fill="#73AF00"/>
<path d="M10.4375 14.8231C10.5417 14.8443 10.7023 14.8168 10.8673 14.74C11.0324 14.6631 11.1567 14.5577 11.2075 14.4643C11.1033 14.4431 10.9427 14.4706 10.7776 14.5474C10.6126 14.6244 10.4883 14.7297 10.4375 14.8231Z" fill="#73AF00"/>
<path d="M11.2075 14.4643C11.2287 14.3602 11.2012 14.1995 11.1244 14.0345C11.0475 13.8694 10.9421 13.7451 10.8487 13.6944C10.8275 13.7985 10.855 13.9592 10.9318 14.1242C11.0088 14.2892 11.1141 14.4136 11.2075 14.4643Z" fill="#73AF00"/>
<path d="M9.89258 14.4888C9.99247 14.5251 10.1554 14.5215 10.33 14.4697C10.5045 14.4178 10.643 14.3319 10.7069 14.247C10.607 14.2107 10.4441 14.2143 10.2695 14.2661C10.095 14.3179 9.95651 14.4039 9.89258 14.4888Z" fill="#73AF00"/>
<path d="M10.7073 14.247C10.7435 14.1471 10.74 13.9841 10.6881 13.8096C10.6363 13.6351 10.5504 13.4966 10.4654 13.4327C10.4292 13.5326 10.4327 13.6955 10.4846 13.8701C10.5364 14.0446 10.6224 14.1831 10.7073 14.247Z" fill="#73AF00"/>
<path d="M9.38965 14.033C9.48138 14.0867 9.64235 14.1124 9.82333 14.0928C10.0043 14.0732 10.156 14.0135 10.2341 13.9414C10.1424 13.8878 9.98139 13.862 9.80041 13.8817C9.61943 13.9013 9.46774 13.961 9.38965 14.033Z" fill="#73AF00"/>
<path d="M10.2341 13.9414C10.2877 13.8497 10.3135 13.6887 10.2939 13.5077C10.2742 13.3267 10.2145 13.175 10.1425 13.097C10.0889 13.1887 10.0631 13.3497 10.0827 13.5306C10.1024 13.7116 10.162 13.8633 10.2341 13.9414Z" fill="#73AF00"/>
<path d="M8.97266 13.4037C9.05347 13.4727 9.20731 13.5265 9.3889 13.5393C9.57049 13.552 9.73034 13.5201 9.82001 13.463C9.7392 13.394 9.58535 13.3402 9.40376 13.3274C9.22212 13.3147 9.06228 13.3466 8.97266 13.4037Z" fill="#73AF00"/>
<path d="M9.82022 13.463C9.88927 13.3822 9.94308 13.2283 9.95583 13.0468C9.96853 12.8652 9.93666 12.7053 9.87961 12.6156C9.81056 12.6965 9.75675 12.8503 9.744 13.0319C9.73125 13.2135 9.76313 13.3734 9.82022 13.463Z" fill="#73AF00"/>
<path d="M8.72949 12.7103C8.79399 12.7948 8.93302 12.8798 9.10791 12.9304C9.2828 12.9811 9.44573 12.9836 9.54539 12.9466C9.48089 12.8622 9.34186 12.7771 9.16697 12.7265C8.99213 12.6758 8.82915 12.6734 8.72949 12.7103Z" fill="#73AF00"/>
<path d="M9.54465 12.9466C9.62912 12.8821 9.71415 12.7431 9.76478 12.5682C9.8154 12.3933 9.81789 12.2304 9.78095 12.1307C9.69648 12.1952 9.61145 12.3343 9.56083 12.5091C9.5102 12.684 9.50772 12.847 9.54465 12.9466Z" fill="#73AF00"/>
<path d="M8.62598 11.9009C8.66657 11.9991 8.77907 12.117 8.93507 12.2109C9.09102 12.3048 9.24791 12.3491 9.3537 12.339C9.31311 12.2408 9.20061 12.1228 9.04461 12.029C8.88861 11.9351 8.73177 11.8908 8.62598 11.9009Z" fill="#73AF00"/>
<path d="M9.35394 12.339C9.45215 12.2984 9.57008 12.1859 9.66397 12.0299C9.75786 11.8739 9.80216 11.7171 9.79208 11.6113C9.69388 11.6519 9.57594 11.7644 9.48205 11.9204C9.38812 12.0764 9.34387 12.2332 9.35394 12.339Z" fill="#73AF00"/>
<path d="M8.72363 11.1366C8.74271 11.2411 8.82802 11.38 8.96087 11.5045C9.09371 11.629 9.23775 11.7052 9.34331 11.7175C9.32424 11.613 9.23893 11.4741 9.10608 11.3496C8.97324 11.2251 8.82919 11.1489 8.72363 11.1366Z" fill="#73AF00"/>
<path d="M9.34375 11.7175C9.44828 11.6985 9.58717 11.6131 9.71167 11.4803C9.83617 11.3475 9.91239 11.2034 9.92467 11.0979C9.82014 11.1169 9.68125 11.2022 9.55675 11.3351C9.43225 11.4679 9.35608 11.612 9.34375 11.7175Z" fill="#73AF00"/>
<path d="M9.10801 10.3096C9.08612 10.4136 9.11256 10.5744 9.1884 10.74C9.26424 10.9055 9.36882 11.0305 9.46187 11.0818C9.48376 10.9778 9.45732 10.817 9.38148 10.6515C9.30563 10.486 9.20106 10.3609 9.10801 10.3096Z" fill="#73AF00"/>
<path d="M9.46191 11.0818C9.56593 11.1037 9.72676 11.0773 9.89227 11.0014C10.0578 10.9256 10.1828 10.821 10.2341 10.728C10.1301 10.7061 9.96928 10.7325 9.80377 10.8083C9.63826 10.8842 9.51324 10.9888 9.46191 11.0818Z" fill="#73AF00"/>
<path d="M9.56657 9.69719C9.51754 9.7915 9.49978 9.9535 9.52832 10.1333C9.55687 10.3131 9.62399 10.4617 9.69984 10.5361C9.74887 10.4418 9.76663 10.2798 9.73809 10.1C9.70954 9.92017 9.64242 9.77163 9.56657 9.69719Z" fill="#73AF00"/>
<path d="M9.7002 10.5361C9.79451 10.5851 9.95651 10.6029 10.1363 10.5743C10.3161 10.5458 10.4647 10.4786 10.5391 10.4028C10.4448 10.3538 10.2828 10.336 10.103 10.3645C9.92318 10.3931 9.77468 10.4603 9.7002 10.5361Z" fill="#73AF00"/>
<path d="M10.0171 9.27091C9.95475 9.35697 9.91331 9.51457 9.91509 9.69663C9.91688 9.87869 9.96136 10.0355 10.0254 10.1203C10.0878 10.0342 10.1292 9.87662 10.1274 9.69456C10.1257 9.5125 10.0812 9.35571 10.0171 9.27091Z" fill="#73AF00"/>
<path d="M10.0254 10.1203C10.1115 10.1827 10.269 10.2241 10.4511 10.2223C10.6332 10.2205 10.79 10.1761 10.8748 10.112C10.7887 10.0496 10.6311 10.0082 10.449 10.01C10.267 10.0118 10.1102 10.0563 10.0254 10.1203Z" fill="#73AF00"/>
<path d="M10.2441 9.89701C10.3501 9.90559 10.5063 9.85914 10.6609 9.76305C10.8155 9.66695 10.9264 9.54747 10.9656 9.44871C10.8597 9.44013 10.7035 9.48658 10.5488 9.58267C10.3942 9.67872 10.2834 9.7982 10.2441 9.89701Z" fill="#73AF00"/>
<path d="M12.002 14.6525V14.5223C13.4373 14.5223 14.605 13.3546 14.605 11.9192C14.605 11.0276 14.1562 10.2076 13.4045 9.72592L13.4747 9.61637C14.264 10.1221 14.7352 10.983 14.7352 11.9192C14.7352 13.4263 13.5091 14.6525 12.002 14.6525Z" fill="#73AF00"/>
<path d="M13.5659 14.8231C13.4617 14.8443 13.3011 14.8168 13.136 14.74C12.971 14.6631 12.8466 14.5577 12.7959 14.4643C12.9001 14.4431 13.0607 14.4706 13.2257 14.5474C13.3907 14.6244 13.5151 14.7297 13.5659 14.8231Z" fill="#73AF00"/>
<path d="M12.796 14.4643C12.7748 14.3602 12.8022 14.1995 12.8791 14.0345C12.956 13.8694 13.0614 13.7451 13.1547 13.6944C13.176 13.7985 13.1485 13.9592 13.0716 14.1242C12.9947 14.2892 12.8894 14.4136 12.796 14.4643Z" fill="#73AF00"/>
<path d="M14.1102 14.4888C14.0103 14.5251 13.8474 14.5215 13.6728 14.4697C13.4983 14.4178 13.3598 14.3319 13.2959 14.247C13.3958 14.2107 13.5587 14.2143 13.7333 14.2661C13.9078 14.3179 14.0463 14.4039 14.1102 14.4888Z" fill="#73AF00"/>
<path d="M13.2965 14.247C13.2602 14.1471 13.2638 13.9841 13.3156 13.8096C13.3675 13.6351 13.4534 13.4966 13.5383 13.4327C13.5746 13.5326 13.571 13.6955 13.5192 13.8701C13.4674 14.0446 13.3814 14.1831 13.2965 14.247Z" fill="#73AF00"/>
<path d="M14.614 14.033C14.5222 14.0867 14.3613 14.1124 14.1803 14.0928C13.9993 14.0732 13.8476 14.0135 13.7695 13.9414C13.8613 13.8878 14.0222 13.862 14.2032 13.8817C14.3842 13.9013 14.5359 13.961 14.614 14.033Z" fill="#73AF00"/>
<path d="M13.7694 13.9414C13.7158 13.8497 13.69 13.6887 13.7097 13.5077C13.7293 13.3267 13.789 13.175 13.861 13.097C13.9147 13.1887 13.9404 13.3497 13.9208 13.5306C13.9012 13.7116 13.8415 13.8633 13.7694 13.9414Z" fill="#73AF00"/>
<path d="M15.0309 13.4037C14.9501 13.4727 14.7963 13.5265 14.6147 13.5393C14.4331 13.552 14.2733 13.5201 14.1836 13.463C14.2644 13.394 14.4182 13.3402 14.5998 13.3274C14.7814 13.3147 14.9413 13.3466 15.0309 13.4037Z" fill="#73AF00"/>
<path d="M14.1833 13.463C14.1143 13.3822 14.0604 13.2283 14.0477 13.0468C14.035 12.8652 14.0669 12.7053 14.1239 12.6156C14.193 12.6965 14.2468 12.8503 14.2595 13.0319C14.2723 13.2135 14.2404 13.3734 14.1833 13.463Z" fill="#73AF00"/>
<path d="M15.2749 12.7103C15.2104 12.7948 15.0714 12.8798 14.8965 12.9304C14.7216 12.9811 14.5586 12.9836 14.459 12.9466C14.5235 12.8622 14.6625 12.7771 14.8374 12.7265C15.0122 12.6758 15.1752 12.6734 15.2749 12.7103Z" fill="#73AF00"/>
<path d="M14.4587 12.9466C14.3742 12.8821 14.2892 12.7431 14.2386 12.5682C14.1879 12.3933 14.1855 12.2304 14.2224 12.1307C14.3069 12.1952 14.3919 12.3343 14.4425 12.5091C14.4931 12.684 14.4956 12.847 14.4587 12.9466Z" fill="#73AF00"/>
<path d="M15.3771 11.9009C15.3365 11.9991 15.224 12.117 15.0681 12.2109C14.9121 12.3048 14.7552 12.3491 14.6494 12.339C14.69 12.2408 14.8025 12.1228 14.9585 12.029C15.1145 11.9351 15.2713 11.8908 15.3771 11.9009Z" fill="#73AF00"/>
<path d="M14.6495 12.339C14.5513 12.2984 14.4334 12.1859 14.3395 12.0299C14.2456 11.8739 14.2013 11.7171 14.2114 11.6113C14.3096 11.6519 14.4275 11.7644 14.5214 11.9204C14.6153 12.0764 14.6596 12.2332 14.6495 12.339Z" fill="#73AF00"/>
<path d="M15.2798 11.1366C15.2608 11.2411 15.1754 11.38 15.0426 11.5045C14.9098 11.629 14.7657 11.7052 14.6602 11.7175C14.6792 11.613 14.7645 11.4741 14.8974 11.3496C15.0302 11.2251 15.1743 11.1489 15.2798 11.1366Z" fill="#73AF00"/>
<path d="M14.66 11.7175C14.5555 11.6985 14.4166 11.6131 14.2921 11.4803C14.1676 11.3475 14.0914 11.2034 14.0791 11.0979C14.1836 11.1169 14.3225 11.2022 14.447 11.3351C14.5715 11.4679 14.6477 11.612 14.66 11.7175Z" fill="#73AF00"/>
<path d="M14.8955 10.3096C14.9174 10.4136 14.8909 10.5744 14.8151 10.74C14.7392 10.9055 14.6346 11.0305 14.5416 11.0818C14.5197 10.9778 14.5462 10.817 14.622 10.6515C14.6978 10.486 14.8024 10.3609 14.8955 10.3096Z" fill="#73AF00"/>
<path d="M14.5417 11.0818C14.4377 11.1037 14.2769 11.0773 14.1114 11.0014C13.9459 10.9256 13.8209 10.821 13.7695 10.728C13.8735 10.7061 14.0344 10.7325 14.1999 10.8083C14.3654 10.8842 14.4904 10.9888 14.5417 11.0818Z" fill="#73AF00"/>
<path d="M14.4362 9.69719C14.4852 9.7915 14.503 9.9535 14.4744 10.1333C14.4459 10.3131 14.3787 10.4617 14.3029 10.5361C14.2539 10.4418 14.2361 10.2798 14.2647 10.1C14.2932 9.92017 14.3603 9.77163 14.4362 9.69719Z" fill="#73AF00"/>
<path d="M14.3038 10.5361C14.2094 10.5851 14.0474 10.6029 13.8676 10.5743C13.6878 10.5458 13.5393 10.4786 13.4648 10.4028C13.5592 10.3538 13.7212 10.336 13.901 10.3645C14.0807 10.3931 14.2293 10.4603 14.3038 10.5361Z" fill="#73AF00"/>
<path d="M13.9863 9.27091C14.0487 9.35697 14.0902 9.51457 14.0884 9.69663C14.0866 9.87869 14.0421 10.0355 13.9781 10.1203C13.9157 10.0342 13.8743 9.87662 13.876 9.69456C13.8778 9.5125 13.9223 9.35571 13.9863 9.27091Z" fill="#73AF00"/>
<path d="M13.9783 10.1203C13.8922 10.1827 13.7346 10.2241 13.5526 10.2223C13.3705 10.2205 13.2137 10.1761 13.1289 10.112C13.215 10.0496 13.3726 10.0082 13.5546 10.01C13.7366 10.0118 13.8934 10.0563 13.9783 10.1203Z" fill="#73AF00"/>
<path d="M13.7595 9.89701C13.6536 9.90559 13.4974 9.85914 13.3428 9.76305C13.1881 9.66695 13.0773 9.54747 13.0381 9.44871C13.144 9.44013 13.3002 9.48658 13.4548 9.58267C13.6095 9.67872 13.7203 9.7982 13.7595 9.89701Z" fill="#73AF00"/>
<path d="M10.5091 14.0472L10.0354 14.521L9.80176 14.0537L10.5026 13.3528L10.7362 13.5865L10.6687 13.7889C10.6363 13.8862 10.5817 13.9747 10.5091 14.0472Z" fill="#966446"/>
<path d="M13.0723 10.5494L10.5025 13.1192C10.438 13.1837 10.438 13.2883 10.5025 13.3528L10.6193 13.4696L11.0865 13.0024L12.9555 10.8998L13.1891 10.6662L13.0723 10.5494Z" fill="#B9B9B9"/>
<path d="M11.1353 12.7204C11.1043 12.7514 11.0869 12.7934 11.0869 12.8372V13.0024L12.9559 10.8998L11.1353 12.7204Z" fill="#966446"/>
<path d="M13.1897 10.6662L13.0729 10.5494L12.9561 10.6662L13.0729 10.783L13.1897 10.8998L14.4746 9.38125L13.1897 10.6662Z" fill="#A0A0A0"/>
<path d="M13.6236 14.0472L14.0974 14.521L14.331 14.0537L13.6301 13.3528L13.3965 13.5865L13.464 13.7889C13.4964 13.8862 13.551 13.9747 13.6236 14.0472Z" fill="#966446"/>
<path d="M11.0602 10.5494L13.63 13.1192C13.6945 13.1837 13.6945 13.2883 13.63 13.3528L13.5132 13.4696L13.046 13.0024L11.177 10.8998L10.9434 10.6662L11.0602 10.5494Z" fill="#B9B9B9"/>
<path d="M12.9974 12.7204C13.0283 12.7514 13.0457 12.7934 13.0457 12.8372V13.0024L11.1768 10.8998L12.9974 12.7204Z" fill="#966446"/>
<path d="M10.9441 10.6662L11.0609 10.5494L11.1777 10.6662L11.0609 10.783L10.9441 10.8998L9.65918 9.38125L10.9441 10.6662Z" fill="#A0A0A0"/>
<path d="M11.1074 13.95L11.2235 14.0559C11.647 13.5915 12.3882 12.779 13.563 11.724C13.563 11.724 12.5897 12.3249 11.1074 13.95Z" fill="#B9B9B9"/>
<path d="M10.7794 14.4266C10.7377 14.3886 10.7348 14.324 10.7728 14.2824L11.0216 14.0095C11.0596 13.9679 11.1242 13.9649 11.1659 14.0029C11.2075 14.0409 11.2105 14.1055 11.1725 14.1472L10.9237 14.42C10.8857 14.4616 10.8211 14.4646 10.7794 14.4266Z" fill="#FFE15A"/>
<path d="M11.0135 13.8641L10.9461 13.8941C10.8862 13.9239 10.7285 14.0131 10.7013 14.1402C10.6884 14.2004 10.7066 14.2591 10.7534 14.3146C10.7578 14.3031 10.7639 14.2921 10.7727 14.2824L10.804 14.2481C10.7828 14.2173 10.7716 14.1872 10.778 14.1568C10.7951 14.0773 10.9012 14.0064 10.9678 13.9712L11.2659 14.2431L11.34 14.1618L11.0135 13.8641Z" fill="#FFC855"/>
<path d="M13.024 14.0785L12.9079 14.1844C12.4844 13.7201 11.7432 12.9075 10.5684 11.8526C10.5684 11.8526 11.5417 12.4534 13.024 14.0785Z" fill="#B9B9B9"/>
<path d="M13.3524 14.5552C13.3941 14.5172 13.397 14.4526 13.359 14.4109L13.1102 14.1381C13.0722 14.0964 13.0076 14.0935 12.9659 14.1315C12.9242 14.1695 12.9213 14.2341 12.9593 14.2758L13.2081 14.5486C13.2461 14.5902 13.3107 14.5932 13.3524 14.5552Z" fill="#FFE15A"/>
<path d="M13.1184 13.9926L13.1858 14.0226C13.2458 14.0524 13.4035 14.1416 13.4307 14.2687C13.4436 14.329 13.4253 14.3876 13.3786 14.4431C13.3742 14.4317 13.3681 14.4206 13.3593 14.4109L13.328 14.3766C13.3491 14.3459 13.3603 14.3157 13.3539 14.2854C13.3369 14.2058 13.2308 14.1349 13.1642 14.0997L12.8661 14.3716L12.792 14.2904L13.1184 13.9926Z" fill="#FFC855"/>
<path d="M12.1173 9.77959C12.1264 9.75704 12.1317 9.73248 12.1317 9.70665C12.1317 9.59884 12.0443 9.51142 11.9364 9.51142C11.8286 9.51142 11.7412 9.59884 11.7412 9.70665C11.7412 9.77092 11.7727 9.82745 11.8206 9.86302C11.75 10.4301 12.309 10.4734 12.5221 10.5526C12.8454 10.6729 13.2509 10.9162 13.2254 11.5964C13.2006 12.2575 12.7825 12.8954 12.7825 12.8954L13.1295 12.4236C13.0026 12.9604 12.7063 13.6441 12.0016 14.4572C12.0016 14.4572 12.4834 13.9859 12.8855 13.3781C12.5897 14.0741 12.2618 14.7176 12.2618 14.7176C12.2618 14.7176 12.8421 13.9637 13.3112 12.6595C13.8799 11.0782 12.6836 10.1283 12.1173 9.77959Z" fill="#69B469"/>
<path d="M11.6106 12.1143H11.0898V12.3746H11.6106V12.1143Z" fill="#F4E08F"/>
<path d="M11.0923 12.6353C11.2361 12.6353 11.3526 12.5188 11.3526 12.375C11.3526 12.2313 11.2361 12.1148 11.0923 12.1148C10.9486 12.1148 10.832 12.2313 10.832 12.375C10.832 12.5188 10.9486 12.6353 11.0923 12.6353Z" fill="#ECD077"/>
<path d="M11.0923 10.9432C11.2361 10.9432 11.3526 10.8266 11.3526 10.6829C11.3526 10.5391 11.2361 10.4226 11.0923 10.4226C10.9486 10.4226 10.832 10.5391 10.832 10.6829C10.832 10.8266 10.9486 10.9432 11.0923 10.9432Z" fill="#ECD077"/>
<path d="M12.6522 10.9431C12.796 10.9431 12.9125 10.8265 12.9125 10.6828C12.9125 10.539 12.796 10.4225 12.6522 10.4225H11.0904C11.2341 10.4225 11.3507 10.539 11.3507 10.6828C11.3507 10.8266 11.2341 10.9431 11.0904 10.9431C10.9466 10.9431 10.8301 10.8265 10.8301 10.6828C10.8301 11.1197 11.1957 11.6481 11.3136 12.1145C11.3136 12.1145 11.3507 12.231 11.3507 12.3748C11.3507 12.5186 11.2341 12.6351 11.0904 12.6351H12.6522C12.796 12.6351 12.9125 12.5185 12.9125 12.3748C12.9125 11.9379 12.5469 11.4095 12.429 10.9431H12.6522Z" fill="#FCF0A8"/>
<path d="M11.3472 10.6828C11.3472 10.8265 11.2307 10.9431 11.0869 10.9431H12.6488C12.7925 10.9431 12.9091 10.8265 12.9091 10.6828H11.3472Z" fill="#F4E08F"/>
<path d="M11.3472 12.3748C11.3472 12.5186 11.2307 12.6351 11.0869 12.6351H12.6488C12.7925 12.6351 12.9091 12.5185 12.9091 12.3748H11.3472Z" fill="#F4E08F"/>
</g>
<defs>
<clipPath id="clip0_72_1990">
<path d="M0 2C0 0.895432 0.895431 0 2 0H21.9998C23.1043 0 23.9998 0.895431 23.9998 2V21.9998C23.9998 23.1043 23.1043 23.9998 21.9998 23.9998H2C0.895432 23.9998 0 23.1043 0 21.9998V2Z" fill="white"/>
</clipPath>
</defs>
</svg>
