<svg width="24" height="24" viewBox="0 0 24 24" fill="none" xmlns="http://www.w3.org/2000/svg">
<g clip-path="url(#clip0_72_2063)">
<path d="M24.0007 6.10352e-05H0.000976562V23.9998H24.0007V6.10352e-05Z" fill="#F5F5F5"/>
<path d="M24.0007 9.47364H14.5272V6.10352e-05H9.4746V9.47364H0.000976562V14.5262H9.4746V23.9998H14.5272V14.5262H24.0007V9.47364Z" fill="#FF4B55"/>
<path d="M19.5806 13.8946V10.1052L18.6332 11.0525H5.37023L4.42285 10.1052V13.8946L5.37023 12.9473H18.6332L19.5806 13.8946Z" fill="#FFE15A"/>
<path d="M10.1074 19.5787H13.8969L12.9495 18.6314V5.36834L13.8969 4.42101H10.1074L11.0548 5.36834V18.6314L10.1074 19.5787Z" fill="#FFE15A"/>
</g>
<defs>
<clipPath id="clip0_72_2063">
<path d="M0 2C0 0.895432 0.895431 0 2 0H21.9998C23.1043 0 23.9998 0.895431 23.9998 2V21.9998C23.9998 23.1043 23.1043 23.9998 21.9998 23.9998H2C0.895432 23.9998 0 23.1043 0 21.9998V2Z" fill="white"/>
</clipPath>
</defs>
</svg>
