<svg width="24" height="24" viewBox="0 0 24 24" fill="none" xmlns="http://www.w3.org/2000/svg">
<g clip-path="url(#clip0_72_2073)">
<path d="M24.0007 6.10352e-05H0.000976562V11.9999H24.0007V6.10352e-05Z" fill="#FFE15A"/>
<path d="M24.0007 11.9999H0.000976562V23.9998H24.0007V11.9999Z" fill="#73AF00"/>
<path d="M7.86277 6.10352e-05H0.000976562V23.9998H7.86277V6.10352e-05Z" fill="#FF4B55"/>
<path d="M3.85374 9.93559L3.39756 11.3033L1.95579 11.3145C1.87676 11.3151 1.844 11.416 1.90756 11.463L3.06742 12.3194L2.63252 13.6941C2.60866 13.7695 2.69449 13.8318 2.7588 13.7859L3.93179 12.9475L5.10478 13.7859C5.16909 13.8318 5.25487 13.7695 5.23106 13.6941L4.79616 12.3194L5.95602 11.463C6.01963 11.416 5.98682 11.3151 5.90779 11.3145L4.46602 11.3033L4.00984 9.93559C3.9848 9.86059 3.87877 9.86059 3.85374 9.93559Z" fill="#464655"/>
</g>
<defs>
<clipPath id="clip0_72_2073">
<path d="M0 2C0 0.895432 0.895431 0 2 0H21.9998C23.1043 0 23.9998 0.895431 23.9998 2V21.9998C23.9998 23.1043 23.1043 23.9998 21.9998 23.9998H2C0.895432 23.9998 0 23.1043 0 21.9998V2Z" fill="white"/>
</clipPath>
</defs>
</svg>
