<svg width="24" height="24" viewBox="0 0 24 24" fill="none" xmlns="http://www.w3.org/2000/svg">
<g clip-path="url(#clip0_72_2121)">
<path d="M23.9998 0H0V23.9998H23.9998V0Z" fill="#FF4B55"/>
<path d="M10.3422 12.6784C9.75792 12.6844 9.10196 12.4973 8.52709 11.8637C8.48743 11.82 8.49301 11.7512 8.53801 11.713L8.5382 11.7128C8.58189 11.6758 8.64648 11.6816 8.68501 11.7239C9.56119 12.6861 10.6472 12.5176 11.296 12.2851C11.0563 12.2958 10.7551 12.2778 10.5614 12.1504C9.75211 11.6185 10.1187 11.0525 9.58116 10.3684C9.04707 9.68865 8.56651 9.70529 7.80977 9.81994C7.06062 9.93347 6.82193 9.38396 6.74769 9.07895C6.73437 9.02434 6.6582 9.02087 6.6387 9.07356C5.70496 11.5963 8.51261 14.7179 11.3951 12.4735C11.1108 12.5783 10.7445 12.6742 10.3422 12.6784ZM8.23872 11.8222C8.22231 11.8672 8.158 11.8655 8.14408 11.8196L8.03655 11.4653L7.66647 11.4523C7.61857 11.4506 7.60038 11.3889 7.63971 11.3615L7.94346 11.1497L7.84141 10.7938C7.82819 10.7477 7.88125 10.7113 7.9195 10.7402L8.21476 10.9637L8.52175 10.7566C8.5615 10.7298 8.6125 10.7691 8.59679 10.8143L8.47553 11.1642L8.76727 11.3922C8.80506 11.4217 8.78349 11.4823 8.73559 11.4814L8.36537 11.4742L8.23872 11.8222Z" fill="#F5F5F5"/>
<path d="M12.4102 11.0022C12.8742 10.6471 13.5113 10.4034 14.3512 10.5656C14.4092 10.5768 14.4459 10.6352 14.4328 10.6928L14.4328 10.693C14.42 10.7489 14.3649 10.783 14.3087 10.7722C13.0305 10.5277 12.2625 11.3138 11.8827 11.889C12.0681 11.7367 12.32 11.5705 12.5513 11.5562C13.5179 11.4966 13.564 12.1693 14.4045 12.3943C15.2395 12.618 15.6141 12.3165 16.1509 11.7709C16.6823 11.2307 17.2028 11.5274 17.4451 11.7269C17.4885 11.7626 17.5516 11.7196 17.5355 11.6658C16.7698 9.08707 12.651 8.27295 11.6904 11.7976C11.8551 11.5433 12.0908 11.2468 12.4102 11.0022ZM14.6069 10.4259C14.5929 10.38 14.6455 10.3428 14.6841 10.3711L14.9827 10.5902L15.2866 10.3786C15.3259 10.3513 15.3775 10.3897 15.3624 10.4352L15.2464 10.7868L15.5415 11.0105C15.5797 11.0394 15.5591 11.1003 15.5111 11.1001L15.1409 11.0984L15.0194 11.4482C15.0036 11.4935 14.9393 11.4927 14.9247 11.447L14.8119 11.0943L14.4417 11.0869C14.3938 11.0859 14.3747 11.0245 14.4136 10.9965L14.7142 10.7803L14.6069 10.4259Z" fill="#F5F5F5"/>
<path d="M10.8632 11.2454C10.6353 10.7074 10.5588 10.0295 10.926 9.25684C10.9513 9.20355 11.017 9.1825 11.0695 9.20964L11.0697 9.20978C11.1205 9.23608 11.1398 9.298 11.1153 9.3498C10.5589 10.5262 11.1279 11.4664 11.5898 11.978C11.4887 11.7603 11.3908 11.4749 11.4348 11.2474C11.6188 10.2966 12.2817 10.4202 12.7098 9.66278C13.1352 8.91025 12.937 8.47216 12.543 7.81597C12.1529 7.16633 12.5703 6.73659 12.8241 6.55186C12.8695 6.51876 12.8437 6.447 12.7875 6.44901C10.0992 6.54543 8.28084 10.3297 11.4533 12.1413C11.2482 11.9181 11.0201 11.6158 10.8632 11.2454ZM10.8545 8.97433C10.8066 8.9763 10.7838 8.91616 10.8209 8.88583L11.1077 8.65155L10.9788 8.3044C10.9622 8.25945 11.0123 8.21914 11.0526 8.2451L11.364 8.44545L11.6544 8.21567C11.6919 8.1859 11.7458 8.22115 11.7336 8.26751L11.6393 8.62559L11.9475 8.83071C11.9874 8.85729 11.9706 8.91935 11.9227 8.92207L11.553 8.94307L11.4532 9.29964C11.4402 9.34581 11.376 9.34895 11.3586 9.30428L11.2244 8.95919L10.8545 8.97433Z" fill="#F5F5F5"/>
<path d="M12.9578 12.4661C13.4407 12.795 13.8721 13.3233 13.9819 14.1717C13.9895 14.2302 13.9456 14.2835 13.8869 14.2891L13.8866 14.2892C13.8296 14.2946 13.7798 14.253 13.7724 14.1962C13.6031 12.9059 12.6155 12.4236 11.9502 12.2437C12.153 12.3719 12.3899 12.5588 12.4761 12.774C12.8364 13.6729 12.2122 13.928 12.2625 14.7966C12.3124 15.6596 12.7163 15.9205 13.4029 16.2587C14.0826 16.5936 13.9645 17.1809 13.8512 17.4737C13.8309 17.5261 13.8915 17.5725 13.9376 17.5404C16.1453 16.0034 15.6246 11.8374 11.9765 12.0325C12.2697 12.1091 12.6252 12.2396 12.9578 12.4661ZM14.1949 14.3705C14.2341 14.3429 14.2859 14.3811 14.2711 14.4267L14.1569 14.779L14.4532 15.001C14.4915 15.0298 14.4712 15.0909 14.4233 15.0909L14.053 15.0911L13.9334 15.4415C13.9179 15.4869 13.8536 15.4864 13.8388 15.4408L13.7241 15.0887L13.3539 15.0833C13.3059 15.0826 13.2864 15.0212 13.3253 14.993L13.6247 14.7752L13.5155 14.4214C13.5014 14.3756 13.5537 14.3381 13.5925 14.3663L13.8922 14.5838L14.1949 14.3705Z" fill="#F5F5F5"/>
<path d="M11.7497 13.513C11.5833 14.0732 11.2114 14.6449 10.4366 15.0076C10.3831 15.0327 10.319 15.0071 10.2958 14.9528L10.2957 14.9526C10.2732 14.9 10.2977 14.8399 10.3495 14.8156C11.527 14.2616 11.686 13.1742 11.6549 12.4857C11.5945 12.7179 11.4885 13.0004 11.3098 13.148C10.5631 13.7647 10.1302 13.2477 9.31808 13.5599C8.51119 13.87 8.38556 14.3342 8.27227 15.0912C8.1601 15.8406 7.5647 15.9067 7.25134 15.8879C7.19523 15.8845 7.1695 15.9563 7.21412 15.9905C9.34996 17.6258 13.16 15.8621 11.8641 12.4464C11.8805 12.749 11.8643 13.1274 11.7497 13.513ZM10.312 15.271C10.3502 15.3 10.3296 15.3609 10.2817 15.3607L9.91142 15.3591L9.79002 15.7089C9.77431 15.7542 9.70996 15.7535 9.69538 15.7078L9.5825 15.3552L9.21229 15.3478C9.16438 15.3469 9.14521 15.2855 9.18412 15.2574L9.48463 15.0411L9.37719 14.6867C9.36327 14.6409 9.41577 14.6037 9.45444 14.632L9.75308 14.851L10.0569 14.6393C10.0962 14.6119 10.1478 14.6504 10.1328 14.6959L10.0169 15.0475L10.312 15.271Z" fill="#F5F5F5"/>
</g>
<defs>
<clipPath id="clip0_72_2121">
<path d="M0 2C0 0.895432 0.895431 0 2 0H21.9998C23.1043 0 23.9998 0.895431 23.9998 2V21.9998C23.9998 23.1043 23.1043 23.9998 21.9998 23.9998H2C0.895432 23.9998 0 23.1043 0 21.9998V2Z" fill="white"/>
</clipPath>
</defs>
</svg>
