<svg width="24" height="24" viewBox="0 0 24 24" fill="none" xmlns="http://www.w3.org/2000/svg">
<g clip-path="url(#clip0_72_2137)">
<path d="M23.9988 0.0131416H-0.000976562V8.00431H23.9988V0.0131416Z" fill="#FAB446"/>
<path d="M23.9988 15.9956H-0.000976562V23.9867H23.9988V15.9956Z" fill="#73AF00"/>
<path d="M23.9988 8.0044H-0.000976562V15.9956H23.9988V8.0044Z" fill="#F5F5F5"/>
<path d="M12.0005 14.7399C10.4897 14.7399 9.26074 13.5109 9.26074 12.0002C9.26074 10.4895 10.4897 9.26046 12.0005 9.26046C13.5112 9.26046 14.7402 10.4895 14.7402 12.0002C14.7402 13.5109 13.5112 14.7399 12.0005 14.7399ZM12.0005 9.77018C10.7707 9.77018 9.77046 10.7704 9.77046 12.0002C9.77046 13.2299 10.7707 14.2302 12.0005 14.2302C13.2302 14.2302 14.2305 13.2299 14.2305 12.0002C14.2305 10.7704 13.2302 9.77018 12.0005 9.77018Z" fill="#41479B"/>
<path d="M12 12.3107C12.1716 12.3107 12.3106 12.1716 12.3106 12.0001C12.3106 11.8286 12.1716 11.6895 12 11.6895C11.8285 11.6895 11.6895 11.8286 11.6895 12.0001C11.6895 12.1716 11.8285 12.3107 12 12.3107Z" fill="#41479B"/>
<path d="M12.0005 12.0468L11.2112 12.1265L9.51562 12.0468V11.9536L11.2112 11.8739L12.0005 11.9536V12.0468Z" fill="#41479B"/>
<path d="M12 12.0468L12.7893 12.1265L14.4849 12.0468V11.9536L12.7893 11.8739L12 11.9536V12.0468Z" fill="#41479B"/>
<path d="M11.9537 12.0002L11.874 11.2109L11.9537 9.51532H12.0469L12.1266 11.2109L12.0469 12.0002H11.9537Z" fill="#41479B"/>
<path d="M11.9537 12.0002L11.874 12.7895L11.9537 14.4851H12.0469L12.1266 12.7895L12.0469 12.0002H11.9537Z" fill="#41479B"/>
<path d="M11.967 12.0331L11.3525 11.5313L10.21 10.276L10.2758 10.2102L11.5311 11.3528L12.0329 11.9672L11.967 12.0331Z" fill="#41479B"/>
<path d="M11.9678 12.0331L12.4696 12.6476L13.7249 13.7902L13.7907 13.7243L12.6482 12.469L12.0337 11.9672L11.9678 12.0331Z" fill="#41479B"/>
<path d="M11.9678 11.9672L12.4696 11.3528L13.7249 10.2102L13.7907 10.276L12.6482 11.5313L12.0337 12.0331L11.9678 11.9672Z" fill="#41479B"/>
<path d="M11.967 11.9672L11.3525 12.469L10.21 13.7243L10.2758 13.7902L11.5311 12.6476L12.0329 12.0331L11.967 11.9672Z" fill="#41479B"/>
<path d="M12.0189 12.0432L11.3201 12.4189L9.72313 12.9942L9.6875 12.9081L11.2235 12.1856L11.9832 11.9572L12.0189 12.0432Z" fill="#41479B"/>
<path d="M12.018 12.0432L12.7778 11.8148L14.3138 11.0923L14.2781 11.0062L12.6811 11.5815L11.9824 11.9572L12.018 12.0432Z" fill="#41479B"/>
<path d="M11.9578 12.018L11.5821 11.3193L11.0068 9.72227L11.0929 9.68665L11.8154 11.2226L12.0438 11.9824L11.9578 12.018Z" fill="#41479B"/>
<path d="M11.957 12.018L12.1855 12.7777L12.9079 14.3137L12.994 14.2781L12.4188 12.6811L12.0431 11.9824L11.957 12.018Z" fill="#41479B"/>
<path d="M11.9832 12.0432L11.2235 11.8148L9.6875 11.0923L9.72313 11.0062L11.3201 11.5815L12.0189 11.9572L11.9832 12.0432Z" fill="#41479B"/>
<path d="M11.9824 12.0432L12.6811 12.4189L14.2781 12.9942L14.3138 12.9081L12.7778 12.1856L12.018 11.9572L11.9824 12.0432Z" fill="#41479B"/>
<path d="M11.957 11.9824L12.1855 11.2226L12.9079 9.68665L12.994 9.72227L12.4188 11.3193L12.0431 12.018L11.957 11.9824Z" fill="#41479B"/>
<path d="M11.9578 11.9824L11.5821 12.6811L11.0068 14.2781L11.0929 14.3137L11.8154 12.7777L12.0438 12.018L11.9578 11.9824Z" fill="#41479B"/>
<path d="M11.9993 12.3402C12.1872 12.3402 12.3395 12.1879 12.3395 12C12.3395 11.8121 12.1872 11.6598 11.9993 11.6598C11.8115 11.6598 11.6592 11.8121 11.6592 12C11.6592 12.1879 11.8115 12.3402 11.9993 12.3402Z" fill="#F5F5F5"/>
<path d="M11.9992 12.2512C12.138 12.2512 12.2504 12.1387 12.2504 12C12.2504 11.8613 12.138 11.7488 11.9992 11.7488C11.8605 11.7488 11.748 11.8613 11.748 12C11.748 12.1387 11.8605 12.2512 11.9992 12.2512Z" fill="#41479B"/>
</g>
<defs>
<clipPath id="clip0_72_2137">
<path d="M0 2C0 0.895432 0.895431 0 2 0H21.9998C23.1043 0 23.9998 0.895431 23.9998 2V21.9998C23.9998 23.1043 23.1043 23.9998 21.9998 23.9998H2C0.895432 23.9998 0 23.1043 0 21.9998V2Z" fill="white"/>
</clipPath>
</defs>
</svg>
