<svg width="24" height="24" viewBox="0 0 24 24" fill="none" xmlns="http://www.w3.org/2000/svg">
<g clip-path="url(#clip0_72_2265)">
<path d="M23.9978 6.10352e-05H-0.00195312V23.9998H23.9978V6.10352e-05Z" fill="#FF4B55"/>
<path d="M12.0905 12.0272L11.9155 12.1283C11.6124 11.6918 11.629 10.6244 11.629 10.6123C11.6322 10.5806 11.6132 10.5521 11.5847 10.5395L10.2734 9.96564L10.2809 9.83102C10.9647 9.9099 11.7551 10.2279 11.7661 10.2334C11.793 10.2504 11.827 10.2462 11.851 10.2263L12.9391 9.31915L13.1732 9.52844C12.834 9.94515 12.0085 10.5207 11.9979 10.5266C11.9687 10.5392 11.953 10.5697 11.9558 10.6007L12.0905 12.0272Z" fill="#FFE15A"/>
<path d="M16.8483 5.56384C16.875 5.57748 16.9071 5.57485 16.9314 5.557L17.2157 5.34653L17.1253 5.60898C17.1152 5.63884 17.124 5.67212 17.1475 5.69373L17.2813 5.81335C17.2416 5.88048 17.2258 5.96316 17.2243 6.04941L17.0259 6.15015C17.0091 6.15877 16.9958 6.17302 16.9885 6.19051L16.8405 6.54877L16.7594 6.25172C16.749 6.21258 16.7118 6.18872 16.6725 6.19411L16.3154 6.24291L16.6052 5.91465C16.6207 5.89702 16.6275 5.87363 16.6241 5.85062L16.5596 5.41712L16.8483 5.56384Z" fill="#FFE15A"/>
<path d="M13.6141 17.2617C13.5892 17.2784 13.576 17.3078 13.5798 17.3376L13.6259 17.6883L13.4403 17.482C13.4191 17.4586 13.3857 17.4501 13.3554 17.4602L13.1858 17.5191C13.1464 17.4518 13.0818 17.3979 13.0071 17.3547L13.0154 17.1323C13.016 17.1135 13.01 17.0949 12.9982 17.0801L12.7568 16.7769L13.0559 16.8501C13.0951 16.86 13.1341 16.839 13.1485 16.8021L13.2791 16.4662L13.4255 16.8789C13.4333 16.9011 13.4505 16.9183 13.4723 16.9266L13.8826 17.0805L13.6141 17.2617Z" fill="#FFE15A"/>
<path d="M4.9308 9.0379C4.927 9.00818 4.90666 8.98315 4.87825 8.97331L4.54395 8.85781L4.81151 8.78393C4.84183 8.7754 4.86438 8.74934 4.86893 8.71775L4.89194 8.53967C4.9698 8.53452 5.04691 8.50072 5.11891 8.45333L5.31414 8.56006C5.33073 8.56906 5.35 8.57192 5.36856 8.56808L5.74773 8.48759L5.54856 8.72239C5.52217 8.75309 5.52358 8.79734 5.5502 8.82668L5.79231 9.09359L5.35773 9.0401C5.33444 9.03729 5.31128 9.04489 5.29422 9.06073L4.97313 9.35904L4.9308 9.0379Z" fill="#FFE15A"/>
<path d="M11.8846 19.7728C11.6915 20.1621 11.2737 20.485 11.1693 20.504C11.1503 20.5072 11.1344 20.5008 11.1186 20.485C11.0711 20.4312 11.049 20.2856 11.1123 20.0925C11.1186 20.0735 11.125 20.0482 11.1345 20.0197L11.8846 19.7728Z" fill="#F5F5F5"/>
<path d="M12.0242 19.3708C11.9988 19.4468 11.9767 19.5227 11.9608 19.5797L11.1885 19.8361C11.2106 19.7665 11.2328 19.6905 11.2549 19.6082L12.0242 19.3708Z" fill="#F5F5F5"/>
<path d="M12.1932 18.9371C12.1552 19.0226 12.1204 19.1049 12.0887 19.184L11.3037 19.4246C11.3259 19.3391 11.3512 19.2505 11.3734 19.1619L12.1932 18.9371Z" fill="#FFE15A"/>
<path d="M12.3486 18.6238C12.3264 18.6649 12.3043 18.7061 12.2821 18.7504L11.418 18.9846C11.4559 18.8358 11.4876 18.6902 11.5129 18.5636L12.3486 18.6238Z" fill="#F5F5F5"/>
<path d="M12.5922 18.2946C12.5415 18.342 12.494 18.4022 12.4466 18.4718L11.5381 18.4054C11.5507 18.3231 11.5602 18.2503 11.5602 18.1965C11.5602 18.1553 11.5571 18.1173 11.5539 18.0762C11.5887 18.0794 11.6267 18.0794 11.6583 18.0794C11.8862 18.0794 12.0477 18.0382 12.1648 17.9781C12.2946 18.168 12.4624 18.2534 12.5922 18.2946Z" fill="#F5F5F5"/>
<path d="M12.776 18.1648C12.7191 18.1584 12.4658 18.1331 12.2949 17.8862C12.3803 17.8134 12.4215 17.7343 12.4405 17.6804C12.5354 17.4145 11.8739 16.9999 11.4687 16.7783C11.2788 16.6738 11.13 16.4681 10.9971 16.2307C11.0129 16.2339 11.0256 16.2339 11.0414 16.2339C11.244 16.2339 11.4054 16.1389 11.4908 16.0661C11.5668 16.1928 11.6364 16.3099 11.6998 16.4112C11.9878 16.8986 12.1207 17.1202 12.4278 17.3355C12.4373 17.3418 12.4499 17.3481 12.4627 17.3481C12.6114 17.3671 13.0419 17.4621 13.0672 17.652C13.1021 17.9115 13.0071 18.0761 12.776 18.1648Z" fill="#F5F5F5"/>
<path d="M12.2919 17.6266C12.2571 17.7279 12.1115 17.9558 11.5354 17.9178C11.4848 17.5886 11.3392 17.3544 11.1081 17.2468C10.8074 17.1044 9.68366 16.3003 9.1709 15.8223C9.27219 15.4995 9.53811 15.2367 9.91475 15.0975C9.96856 15.0753 10.016 15.0563 10.0572 15.0341C10.1585 15.1165 10.2503 15.2082 10.3262 15.3127C10.4434 15.4773 10.5446 15.6862 10.6522 15.9078C10.8516 16.313 11.0574 16.734 11.3929 16.9176C12.0134 17.2595 12.3204 17.5538 12.2919 17.6266Z" fill="#F5F5F5"/>
<path d="M11.405 15.93C11.3448 15.9902 11.1454 16.1263 10.9049 16.0566C10.8668 15.9838 10.8321 15.911 10.794 15.8382C10.6833 15.6103 10.5788 15.3951 10.4522 15.221C10.3794 15.1165 10.2876 15.0247 10.1895 14.9424C10.3319 14.819 10.354 14.686 10.3604 14.5721C10.6104 14.7873 10.8447 15.0564 11.0599 15.3887C11.196 15.5945 11.3068 15.7718 11.405 15.93Z" fill="#F5F5F5"/>
<path d="M10.212 14.455C10.2088 14.4803 10.2057 14.5088 10.2057 14.5373C10.1993 14.6449 10.1898 14.7494 10.0632 14.8443C9.79735 14.6544 9.49027 14.5246 9.22754 14.4391C9.34782 14.3157 9.42694 14.1922 9.46496 14.072C9.46496 14.072 9.46496 14.072 9.46815 14.072C9.72769 14.1448 9.97777 14.2746 10.212 14.455Z" fill="#F5F5F5"/>
<path d="M9.90856 14.9266C9.89272 14.933 9.88006 14.9425 9.86108 14.9488C9.46541 15.0943 9.17418 15.3635 9.04443 15.6958C8.88932 15.5407 8.77851 15.4014 8.68992 15.2906C8.59181 15.164 8.5095 15.0659 8.4082 14.9962C8.69306 14.8506 8.92101 14.7051 9.0951 14.5626C9.09829 14.5626 9.09829 14.5626 9.10143 14.5626C9.34832 14.6386 9.64902 14.7525 9.90856 14.9266Z" fill="#F5F5F5"/>
<path d="M8.94572 14.4771C8.7811 14.6069 8.55005 14.7525 8.22399 14.9108C8.14801 14.8918 8.07207 14.876 8.00874 14.8633C7.85364 14.8348 7.75234 14.8126 7.67322 14.724C7.62573 14.6734 7.53395 14.531 7.44531 14.3505C7.45797 14.3569 7.47062 14.3632 7.48333 14.3664C7.57511 14.3886 7.7049 14.3474 7.86634 14.2904C8.06574 14.2239 8.30949 14.1416 8.53107 14.1701C8.73047 14.1954 8.78428 14.2746 8.84761 14.3632C8.87606 14.4012 8.90456 14.4423 8.94572 14.4771Z" fill="#F5F5F5"/>
<path d="M9.32259 14.0023C9.29728 14.1004 9.22762 14.2239 9.06932 14.3727C9.03136 14.3474 9.00604 14.3125 8.97754 14.2714C8.90794 14.1733 8.8193 14.0498 8.55338 14.015C8.29697 13.9802 8.0311 14.0688 7.81585 14.1416C7.69557 14.1828 7.56896 14.227 7.51829 14.2144C7.46448 14.2017 7.39483 14.1163 7.39169 14.0308C7.3885 13.9327 7.47714 13.8883 7.54993 13.8662C7.71456 13.8155 7.91396 13.8535 8.11022 13.8883C8.30963 13.9263 8.49956 13.9611 8.65148 13.901C8.75597 13.8598 8.87625 13.7301 9.02184 13.5433C9.12314 13.5655 9.20859 13.6003 9.25926 13.6731C9.33206 13.7776 9.35104 13.8884 9.32259 14.0023Z" fill="#FFE15A"/>
<path d="M8.83643 13.5213C8.73833 13.6416 8.65283 13.7302 8.58955 13.7555C8.48192 13.7998 8.31416 13.7682 8.13688 13.7334C7.93429 13.6954 7.70324 13.6542 7.50379 13.7144C7.38351 13.7492 7.31704 13.8093 7.27907 13.8663C7.24425 13.6922 7.24425 13.5244 7.32342 13.3915C7.40254 13.2522 7.50698 13.1351 7.6146 13.018C7.75705 13.037 7.86149 13.0655 8.22233 13.382C8.3458 13.4897 8.5452 13.5023 8.73828 13.5118C8.76992 13.515 8.80479 13.5182 8.83643 13.5213Z" fill="#F5F5F5"/>
<path d="M11.7766 12.214C11.4221 12.4482 9.84256 13.4865 9.51336 13.6226C9.49752 13.6289 9.48486 13.6416 9.47539 13.6542C9.46588 13.6701 9.45955 13.6827 9.45008 13.6985C9.43424 13.6574 9.41211 13.6194 9.38676 13.5814C9.32343 13.4896 9.22851 13.4389 9.12402 13.4073C9.17151 13.3472 9.21899 13.2839 9.26962 13.2142C9.49752 12.9009 9.76025 12.5495 10.061 12.2361C10.5769 11.698 11.2669 11.3435 11.498 11.2359C11.5329 11.5714 11.6089 11.9671 11.7766 12.214Z" fill="#F5F5F5"/>
<path d="M11.4824 11.0682C11.3178 11.141 10.5359 11.5113 9.9472 12.1254C9.63698 12.4482 9.36159 12.8186 9.14321 13.1193C9.07674 13.2079 9.01341 13.2934 8.95327 13.3725C8.88366 13.3662 8.81401 13.3599 8.74754 13.3567C8.57345 13.344 8.40882 13.3345 8.32656 13.2617C8.02267 12.9958 7.88022 12.9167 7.74414 12.8819C7.7568 12.8692 7.76631 12.8566 7.77897 12.8439C7.97837 12.6413 8.18729 12.4293 8.35192 12.1349C8.63677 11.6253 9.58954 10.5142 10.21 10.1122L11.4666 10.663C11.4666 10.7389 11.4697 10.8877 11.4824 11.0682Z" fill="#F5F5F5"/>
<path d="M3.4527 6.36918C3.19067 6.02245 3.08858 5.50439 3.11825 5.40244C3.12392 5.38402 3.13663 5.37272 3.15786 5.36564C3.22724 5.34722 3.36739 5.39246 3.51186 5.53538C3.52601 5.54953 3.54584 5.5665 3.56708 5.58773L3.4527 6.36918Z" fill="#F5F5F5"/>
<path d="M3.75037 6.67344C3.69375 6.61681 3.63567 6.56305 3.5918 6.52344L3.70758 5.7179C3.75998 5.76885 3.81801 5.82262 3.88176 5.8792L3.75037 6.67344Z" fill="#F5F5F5"/>
<path d="M4.06383 7.02004C4.00435 6.94785 3.94627 6.87993 3.88965 6.81627L4.02526 6.00647C4.09182 6.0645 4.15979 6.12675 4.22916 6.18618L4.06383 7.02004Z" fill="#FFE15A"/>
<path d="M4.27689 7.29886C4.24998 7.26066 4.22308 7.22245 4.19336 7.1828L4.36998 6.30507C4.48609 6.40552 4.6022 6.4989 4.70415 6.57816L4.27689 7.29886Z" fill="#F5F5F5"/>
<path d="M4.46266 7.664C4.44278 7.59749 4.4102 7.52811 4.36914 7.45452L4.83456 6.67153C4.90253 6.71962 4.96342 6.76064 5.01156 6.78468C5.04835 6.80306 5.08374 6.81722 5.12199 6.83278C5.10362 6.8625 5.08665 6.89648 5.07249 6.92479C4.97063 7.1287 4.93529 7.29149 4.93679 7.42316C4.70889 7.45438 4.55748 7.56627 4.46266 7.664Z" fill="#F5F5F5"/>
<path d="M4.4965 7.88624C4.52762 7.8381 4.66342 7.6229 4.96069 7.58029C4.9876 7.68927 5.04001 7.76146 5.07971 7.80252C5.27513 8.00629 5.94173 7.59979 6.32099 7.33631C6.4993 7.21308 6.74985 7.17192 7.02163 7.15908C7.01174 7.17183 7.00606 7.18312 6.99899 7.19733C6.90847 7.37854 6.92127 7.56538 6.94822 7.67441C6.80099 7.68581 6.6651 7.69574 6.54618 7.70713C5.98139 7.74698 5.72372 7.7669 5.39396 7.9454C5.38407 7.95107 5.37272 7.95955 5.3671 7.9709C5.28361 8.09549 5.0063 8.43819 4.82509 8.37594C4.57731 8.29105 4.47254 8.13257 4.4965 7.88624Z" fill="#F5F5F5"/>
<path d="M5.19431 7.69344C5.11927 7.61704 4.98043 7.38496 5.27184 6.88654C5.589 6.98836 5.86359 6.96276 6.06313 6.80414C6.32493 6.59878 7.54634 5.9528 8.2031 5.70765C8.44666 5.94254 8.56286 6.2978 8.51913 6.69703C8.51491 6.75506 8.51069 6.80606 8.51209 6.85275C8.39322 6.90661 8.27008 6.94772 8.14268 6.969C7.94308 7.00021 7.71091 6.99745 7.46464 6.99473C7.01305 6.99206 6.54449 6.98803 6.23034 7.20613C5.64726 7.60837 5.24672 7.75147 5.19431 7.69344Z" fill="#F5F5F5"/>
<path d="M7.10867 7.65876C7.08177 7.57809 7.04909 7.33884 7.21892 7.15476C7.30104 7.15331 7.38172 7.15467 7.46379 7.15322C7.7172 7.15598 7.95644 7.1587 8.16874 7.12322C8.29474 7.10479 8.41788 7.06369 8.53535 7.01269C8.58213 7.19526 8.69116 7.27448 8.79025 7.3311C8.48594 7.4586 8.14057 7.54795 7.74706 7.59196C7.50218 7.62182 7.29411 7.64169 7.10867 7.65876Z" fill="#F5F5F5"/>
<path d="M8.9615 7.25039C8.94026 7.23623 8.91617 7.22067 8.89072 7.20792C8.79725 7.15416 8.70805 7.09899 8.67969 6.94327C8.96843 6.79027 9.22174 6.57362 9.41557 6.37674C9.47224 6.53954 9.54734 6.66549 9.63794 6.75319C9.63794 6.75319 9.63794 6.75319 9.63654 6.75601C9.45541 6.95574 9.22756 7.12144 8.9615 7.25039Z" fill="#F5F5F5"/>
<path d="M8.67501 6.76777C8.67642 6.7508 8.67361 6.73519 8.67642 6.71541C8.72297 6.29635 8.61239 5.91564 8.37305 5.65098C8.58112 5.58151 8.75521 5.54467 8.89396 5.51491C9.05109 5.48369 9.17563 5.45392 9.28321 5.39444C9.28616 5.71436 9.31457 5.98332 9.36421 6.2027C9.3628 6.20551 9.3628 6.20551 9.3614 6.20837C9.18309 6.39526 8.94674 6.61336 8.67501 6.76777Z" fill="#F5F5F5"/>
<path d="M9.50726 6.10777C9.4647 5.90251 9.4377 5.63073 9.44182 5.26834C9.49277 5.20886 9.54087 5.14797 9.58048 5.09702C9.67526 4.97102 9.74036 4.8903 9.85502 4.85908C9.92154 4.83926 10.09 4.82079 10.291 4.8221C10.2797 4.83063 10.2684 4.83911 10.2599 4.849C10.199 4.92124 10.1778 5.05572 10.1567 5.22559C10.1271 5.43372 10.0918 5.68853 9.96724 5.87401C9.85549 6.04107 9.76062 6.05387 9.65304 6.07088C9.60635 6.07941 9.5568 6.08654 9.50726 6.10777Z" fill="#F5F5F5"/>
<path d="M9.76112 6.65695C9.68467 6.59044 9.60536 6.47297 9.54297 6.26489C9.58258 6.24225 9.62505 6.23513 9.67459 6.22805C9.79351 6.20963 9.94356 6.18549 10.0935 5.96316C10.2392 5.74937 10.2788 5.47192 10.3098 5.24683C10.3268 5.12083 10.3437 4.98775 10.3777 4.94809C10.4131 4.90563 10.5206 4.88149 10.5985 4.91688C10.6877 4.95789 10.6877 5.05698 10.675 5.13203C10.6468 5.3019 10.5237 5.46334 10.4049 5.62337C10.2818 5.7848 10.1657 5.93912 10.1516 6.10191C10.1417 6.21375 10.2041 6.37936 10.3061 6.59306C10.241 6.67378 10.1716 6.73467 10.0839 6.74747C9.9579 6.76584 9.85032 6.73336 9.76112 6.65695Z" fill="#FFE15A"/>
<path d="M10.4054 6.43866C10.3417 6.29715 10.3006 6.18104 10.3062 6.11312C10.3146 5.99701 10.4179 5.86107 10.5283 5.71806C10.6528 5.55381 10.7928 5.36547 10.8282 5.1602C10.8508 5.03702 10.8267 4.95072 10.7927 4.89128C10.964 4.93793 11.1141 5.01292 11.1976 5.1431C11.2869 5.27613 11.345 5.4219 11.4016 5.57054C11.321 5.68946 11.2488 5.77018 10.8044 5.95154C10.653 6.01388 10.5525 6.18662 10.4577 6.35513C10.4408 6.38199 10.4224 6.41175 10.4054 6.43866Z" fill="#F5F5F5"/>
<path d="M10.261 9.6535C10.2099 9.23168 9.98695 7.35468 10.0123 6.99937C10.0137 6.9824 10.008 6.96539 10.001 6.95123C9.99108 6.93567 9.98255 6.92437 9.97266 6.90876C10.0165 6.91298 10.0604 6.91017 10.1057 6.90445C10.2162 6.88884 10.3039 6.8265 10.3789 6.74723C10.4115 6.81661 10.4469 6.88734 10.4866 6.96379C10.6651 7.30771 10.862 7.69977 11.0079 8.1088C11.2588 8.81084 11.2675 9.58657 11.2606 9.84138C10.9504 9.77331 10.5913 9.69653 10.261 9.6535Z" fill="#F5F5F5"/>
<path d="M11.4176 9.90222C11.426 9.72245 11.4441 8.85752 11.1579 8.05639C11.0076 7.63461 10.7994 7.22273 10.628 6.89296C10.5784 6.79387 10.5302 6.69904 10.4863 6.60989C10.5231 6.55045 10.5599 6.49097 10.5924 6.43289C10.6815 6.2828 10.7636 6.13978 10.8655 6.09872C11.2392 5.94568 11.3736 5.85361 11.4656 5.74744C11.4713 5.76446 11.4783 5.77857 11.484 5.79558C11.5761 6.0645 11.6725 6.34617 11.8623 6.62498C12.1909 7.10756 12.759 8.45642 12.8414 9.19108L11.7871 10.0691C11.7191 10.0352 11.5846 9.9715 11.4176 9.90222Z" fill="#F5F5F5"/>
<path d="M19.8789 5.85657C20.313 5.83646 20.7981 6.04505 20.8654 6.12718C20.8774 6.14222 20.8795 6.15914 20.8734 6.18066C20.8494 6.2483 20.7328 6.33835 20.5333 6.37669C20.5136 6.38035 20.4884 6.3871 20.4589 6.39263L19.8789 5.85657Z" fill="#F5F5F5"/>
<path d="M19.46 5.92989C19.5387 5.91517 19.6159 5.89768 19.6733 5.88386L20.2723 6.43473C20.2007 6.44916 20.1235 6.46665 20.0408 6.48722L19.46 5.92989Z" fill="#F5F5F5"/>
<path d="M18.999 5.99096C19.0922 5.98271 19.181 5.97319 19.2656 5.96246L19.8569 6.53208C19.7714 6.55415 19.6816 6.57506 19.5934 6.59868L18.999 5.99096Z" fill="#FFE15A"/>
<path d="M18.6484 6.00739C18.6952 6.00678 18.7419 6.00622 18.7914 6.00406L19.4156 6.64591C19.2671 6.68491 19.1244 6.7279 19.0014 6.76718L18.6484 6.00739Z" fill="#F5F5F5"/>
<path d="M18.2422 5.95405C18.3083 5.97528 18.3839 5.98761 18.4678 5.9953L18.8506 6.82184C18.7725 6.85071 18.7043 6.87776 18.6572 6.90387C18.6212 6.92384 18.5896 6.94502 18.5551 6.96776C18.541 6.93579 18.5225 6.90256 18.5072 6.8749C18.3966 6.67564 18.2823 6.55447 18.1729 6.48125C18.2759 6.27566 18.2692 6.0875 18.2422 5.95405Z" fill="#F5F5F5"/>
<path d="M18.0394 5.85651C18.0615 5.90938 18.1622 6.1431 18.0293 6.41239C17.9242 6.37297 17.835 6.37541 17.7787 6.38492C17.5002 6.43095 17.4587 7.21062 17.4616 7.67238C17.4624 7.88913 17.3548 8.11905 17.2117 8.35051C17.2068 8.33514 17.2006 8.32407 17.193 8.31025C17.0947 8.13315 16.9333 8.03809 16.8281 7.99867C16.902 7.8708 16.9706 7.75305 17.0284 7.64857C17.3148 7.16013 17.4441 6.93635 17.4832 6.56342C17.4841 6.55203 17.4835 6.53792 17.4774 6.52686C17.4218 6.38759 17.2959 5.96507 17.4497 5.85079C17.6597 5.69432 17.8498 5.69751 18.0394 5.85651Z" fill="#F5F5F5"/>
<path d="M17.8042 6.5411C17.9097 6.5224 18.1796 6.53909 18.4259 7.06122C18.1627 7.26527 18.0286 7.50625 18.0466 7.76054C18.068 8.09256 17.9104 9.46528 17.7413 10.1456C17.4099 10.2137 17.0511 10.1088 16.7466 9.84702C16.7011 9.81074 16.6614 9.77845 16.6221 9.75323C16.6449 9.6247 16.6806 9.49992 16.735 9.38278C16.8221 9.20048 16.9556 9.01055 17.0971 8.80889C17.3546 8.43788 17.6228 8.0537 17.6205 7.6712C17.6183 6.96283 17.7267 6.55156 17.8042 6.5411Z" fill="#F5F5F5"/>
<path d="M16.7507 8.13944C16.8325 8.16283 17.0483 8.27116 17.1041 8.51528C17.0589 8.58386 17.0121 8.64962 16.9669 8.71815C16.8214 8.92562 16.6839 9.12141 16.5932 9.3166C16.5371 9.43093 16.5014 9.55575 16.4771 9.68147C16.3 9.61683 16.1731 9.66202 16.0703 9.71175C16.1372 9.38865 16.2587 9.05326 16.4448 8.70376C16.5587 8.48495 16.6599 8.30205 16.7507 8.13944Z" fill="#F5F5F5"/>
<path d="M16.0405 9.89868C16.0642 9.88917 16.0907 9.8781 16.1156 9.86427C16.2128 9.81759 16.3087 9.77517 16.4532 9.83981C16.4161 10.1645 16.4517 10.4959 16.5045 10.7671C16.3381 10.7218 16.1918 10.7125 16.0682 10.7377C16.0682 10.7377 16.0682 10.7377 16.0667 10.7349C16.0044 10.4727 15.9965 10.1911 16.0405 9.89868Z" fill="#F5F5F5"/>
<path d="M16.6003 9.93548C16.6136 9.94626 16.628 9.95273 16.6428 9.96628C16.9621 10.2416 17.3387 10.3656 17.6923 10.3177C17.632 10.5286 17.5639 10.6931 17.5101 10.8244C17.447 10.9716 17.4011 11.0912 17.3894 11.2136C17.1238 11.0352 16.8859 10.9065 16.6769 10.8235C16.6754 10.8207 16.6754 10.8207 16.6738 10.8179C16.6204 10.5651 16.5741 10.247 16.6003 9.93548Z" fill="#F5F5F5"/>
<path d="M16.6739 10.995C16.8673 11.0759 17.1067 11.2073 17.4034 11.4155C17.4236 11.4912 17.4467 11.5653 17.4663 11.6268C17.5167 11.7762 17.5465 11.8755 17.5074 11.9877C17.4861 12.0538 17.4061 12.2032 17.2914 12.3683C17.2908 12.3541 17.2902 12.34 17.2868 12.3273C17.2617 12.2363 17.1627 12.1429 17.0346 12.0294C16.8796 11.8873 16.6894 11.7141 16.6068 11.5065C16.5322 11.3199 16.5752 11.2344 16.622 11.1361C16.6413 11.0928 16.6634 11.0479 16.6739 10.995Z" fill="#F5F5F5"/>
<path d="M16.0782 10.8961C16.1764 10.8706 16.3181 10.8716 16.525 10.9378C16.5213 10.9833 16.5031 11.0223 16.4809 11.0672C16.429 11.1757 16.364 11.3131 16.4626 11.5625C16.5566 11.8035 16.7631 11.993 16.9312 12.1459C17.0256 12.2311 17.1258 12.3203 17.1393 12.3707C17.1543 12.4239 17.1134 12.5262 17.0402 12.5705C16.956 12.6209 16.8742 12.5649 16.8195 12.512C16.6953 12.3927 16.6317 12.1999 16.5669 12.0114C16.5033 11.8186 16.4416 11.6356 16.3153 11.532C16.2286 11.4606 16.0568 11.4184 15.8228 11.3818C15.793 11.2824 15.782 11.1908 15.8211 11.1112C15.8772 10.9969 15.9648 10.9265 16.0782 10.8961Z" fill="#FFE15A"/>
<path d="M15.8916 11.553C16.0444 11.5804 16.1634 11.6121 16.2162 11.6552C16.3072 11.7278 16.3609 11.8898 16.4165 12.0617C16.4816 12.2573 16.5578 12.4793 16.7071 12.6245C16.796 12.7127 16.8808 12.7416 16.949 12.7472C16.8137 12.8622 16.667 12.9436 16.5124 12.9389C16.3522 12.9373 16.1991 12.9028 16.0445 12.8655C15.992 12.7317 15.9662 12.6266 16.0678 12.1575C16.102 11.9973 16.0163 11.8168 15.9309 11.6434C15.9184 11.6142 15.9042 11.5822 15.8916 11.553Z" fill="#F5F5F5"/>
<path d="M13.3215 9.61637C13.6983 9.81268 15.3726 10.6898 15.6515 10.9116C15.6647 10.9223 15.6819 10.9273 15.6976 10.9294C15.716 10.93 15.7302 10.9294 15.7486 10.9301C15.7203 10.9639 15.6979 11.0017 15.677 11.0423C15.6274 11.1421 15.6292 11.2498 15.6523 11.3564C15.5766 11.3441 15.4982 11.3333 15.4128 11.3228C15.0282 11.2756 14.5934 11.2165 14.1735 11.1056C13.4527 10.9156 12.8078 10.4844 12.6016 10.3346C12.8291 10.1312 13.13 9.86743 13.3215 9.61637Z" fill="#F5F5F5"/>
<path d="M12.4628 10.4298C12.6063 10.5384 13.3095 11.0423 14.1322 11.259C14.565 11.3735 15.0225 11.4346 15.3914 11.4796C15.5012 11.4947 15.6066 11.5086 15.705 11.5228C15.7333 11.5867 15.7616 11.6507 15.791 11.7103C15.8645 11.8687 15.936 12.0172 15.9123 12.1245C15.8274 12.5192 15.8273 12.6822 15.8629 12.8181C15.8457 12.8132 15.83 12.811 15.8128 12.8061C15.5388 12.7301 15.2521 12.6503 14.9148 12.6492C14.3309 12.6475 12.8971 12.3537 12.2445 12.0063L12.1162 10.6403C12.1826 10.6035 12.3112 10.5285 12.4628 10.4298Z" fill="#F5F5F5"/>
<path d="M21.0117 6.06146C21.004 6.04763 20.9978 6.03657 20.9889 6.02701C20.8663 5.87785 20.1488 5.60275 19.6399 5.72954C19.0905 5.86801 18.3424 5.90307 18.1571 5.74529C17.9197 5.53525 17.6559 5.52695 17.395 5.7047L17.2897 5.61071L17.4459 5.15706C17.4533 5.13526 17.4508 5.11206 17.4402 5.09289C17.4348 5.08314 17.4273 5.07442 17.4178 5.06748C17.3898 5.04695 17.3518 5.04705 17.3238 5.06767L16.874 5.40062L16.4921 5.20656C16.4658 5.19311 16.4341 5.1955 16.4101 5.21289C16.3861 5.23009 16.3737 5.25944 16.3781 5.28864L16.4598 5.8374L16.0536 6.29761C16.0317 6.3225 16.0275 6.35822 16.0431 6.38738C16.0588 6.40641 16.0909 6.43285 16.1236 6.42844L16.6227 6.36014L16.7464 6.81398C16.7557 6.84755 16.7841 6.87014 16.8178 6.87215C16.8515 6.87431 16.8829 6.85476 16.8959 6.82345L17.1213 6.27797L17.2356 6.21999C17.259 6.37205 17.3065 6.51042 17.3267 6.56461C17.2885 6.89358 17.1617 7.10873 16.8968 7.57073C16.7424 7.83383 16.5538 8.15938 16.3077 8.62906C15.8979 9.41041 15.766 10.1317 15.9155 10.7728C15.8703 10.7761 15.8023 10.7776 15.7313 10.7736C15.3536 10.491 13.4029 9.48119 13.3202 9.43657C13.3156 9.43418 12.9984 9.16174 12.9984 9.16174C12.9104 8.39253 12.3367 7.04081 11.9974 6.53574C11.8176 6.27249 11.7255 6.00357 11.6362 5.74313C11.5512 5.50253 11.4746 5.27322 11.3344 5.05811C11.0228 4.57694 10.0475 4.64524 9.81248 4.70477C9.64547 4.74874 9.5549 4.86625 9.45164 5.00219C9.41062 5.056 9.36389 5.11403 9.30591 5.18059C9.20967 5.28822 9.07519 5.31658 8.85863 5.36054C8.6888 5.39598 8.47506 5.44136 8.1962 5.53914C7.5423 5.77149 6.24017 6.46566 5.96281 6.68095C5.68968 6.89479 5.29185 6.74916 5.07951 6.64303C4.77933 6.49313 3.87305 5.66532 3.62663 5.42195C3.45526 5.25498 3.26129 5.17576 3.11837 5.21406C3.05748 5.22967 3.00939 5.26928 2.98389 5.32028C2.97681 5.33444 2.97119 5.34573 2.96833 5.35848C2.91461 5.54396 3.09325 6.29129 3.48549 6.63942C3.91032 7.01437 4.3621 7.6116 4.33674 7.85366C4.29769 8.16828 4.43995 8.39056 4.73409 8.50522L4.71605 8.64523L4.25353 8.77287C4.23141 8.7791 4.21364 8.79424 4.20385 8.81389C4.19888 8.82382 4.19593 8.83498 4.19555 8.84674C4.19447 8.88143 4.21599 8.91274 4.2488 8.92413L4.77769 9.10694L4.83351 9.53168C4.83731 9.56107 4.85723 9.58586 4.88507 9.5958C4.91287 9.60588 4.94404 9.5995 4.96565 9.57939L5.37215 9.20177L5.98142 9.27668C6.01433 9.28066 6.0462 9.26393 6.06139 9.23454C6.06823 9.21082 6.07194 9.16948 6.04981 9.14496L5.71133 8.77184L6.01574 8.4132C6.03819 8.38658 6.04072 8.35034 6.02338 8.32147C6.00608 8.29245 5.97219 8.27759 5.93905 8.28453L5.36165 8.40697L5.24924 8.34551C5.36146 8.24028 5.44879 8.12291 5.48202 8.07556C5.77499 7.92116 6.02413 7.90405 6.55493 7.86139C6.85929 7.84007 7.23443 7.81157 7.76102 7.74913C8.63724 7.64544 9.3067 7.34652 9.75103 6.86081C9.77934 6.8962 9.81899 6.95137 9.85584 7.01226C9.8362 7.48368 10.106 9.66358 10.1159 9.757C10.1166 9.76192 10.1113 9.9925 10.1113 9.9925C9.46251 10.4169 8.5141 11.5276 8.21453 12.0557C8.05942 12.3343 7.85997 12.5368 7.66689 12.7331C7.48961 12.9167 7.31871 13.0877 7.18891 13.3092C6.89773 13.803 7.39469 14.645 7.55294 14.8286C7.66689 14.9583 7.81248 14.9868 7.98025 15.0185C8.04672 15.0312 8.11951 15.047 8.20501 15.0692C8.34428 15.1071 8.42977 15.2147 8.56585 15.3888C8.67348 15.525 8.80955 15.6959 9.02166 15.9016C9.52176 16.3828 10.7246 17.2374 11.0412 17.3893C11.3545 17.5381 11.402 17.9591 11.402 18.1965C11.402 18.5321 11.0665 19.7127 10.9588 20.0419C10.886 20.2698 10.9019 20.4788 11 20.5895C11.0412 20.637 11.0981 20.6623 11.1551 20.6623C11.171 20.6623 11.1836 20.6623 11.1963 20.6591C11.3862 20.6243 11.9749 20.1305 12.1111 19.624C12.2567 19.0765 12.589 18.4054 12.8169 18.3199C13.1159 18.2142 13.2511 17.9877 13.2223 17.6733L13.3556 17.6269L13.6764 17.9836C13.6919 18.0006 13.7134 18.0097 13.7353 18.0097C13.7464 18.0097 13.7577 18.0074 13.7684 18.0024C13.8 17.9879 13.8183 17.9547 13.8138 17.9202L13.741 17.3653L14.0961 17.1256C14.1206 17.1091 14.1339 17.0802 14.1304 17.0508C14.127 17.0215 14.1074 16.9964 14.0797 16.986L13.5602 16.7911L13.3549 16.2126C13.3438 16.1814 13.3146 16.1604 13.2815 16.1599C13.2572 16.1644 13.2186 16.1796 13.2066 16.2103L13.024 16.6799L12.5672 16.5678C12.5333 16.5596 12.4998 16.5735 12.4817 16.6019C12.4635 16.6304 12.4653 16.6673 12.4863 16.6939L12.8539 17.1557L12.8492 17.2838C12.7049 17.2304 12.5609 17.2048 12.5036 17.1962C12.2346 17.0031 12.108 16.7879 11.8326 16.332C11.6775 16.0693 11.4844 15.7464 11.1932 15.3033C10.7089 14.5658 10.1423 14.1004 9.5092 13.92C9.52818 13.8789 9.55987 13.8187 9.59784 13.7586C10.0283 13.5655 11.8579 12.35 11.937 12.2993C11.9381 12.2986 11.938 12.2968 11.939 12.2961L12.1865 12.1531C12.8725 12.5143 14.3067 12.8039 14.9137 12.8095C15.2325 12.8099 15.5065 12.886 15.7717 12.9596C16.0183 13.0254 16.2507 13.0919 16.5074 13.0979C17.0805 13.1128 17.5755 12.2697 17.6592 12.0422C17.7174 11.8796 17.6717 11.7385 17.6179 11.5764C17.5967 11.5122 17.5752 11.4408 17.5531 11.3553C17.5187 11.2151 17.5713 11.0881 17.6575 10.8847C17.7242 10.7245 17.8077 10.5226 17.8846 10.2373C18.0626 9.5665 18.2261 8.10003 18.2053 7.7495C18.1833 7.40329 18.5283 7.15753 18.7359 7.04226C19.0292 6.87942 20.2244 6.59977 20.5645 6.5341C20.7991 6.48713 20.9741 6.37191 21.0233 6.23232C21.0448 6.1734 21.0393 6.11129 21.0117 6.06146ZM17.2219 6.04937L17.0235 6.1501C17.0067 6.15872 16.9934 6.17297 16.9861 6.19046L16.8381 6.54872L16.757 6.25168C16.7466 6.21254 16.7093 6.18868 16.6701 6.19407L16.313 6.24286L16.6028 5.9146C16.6183 5.89698 16.6251 5.87359 16.6217 5.85052L16.5572 5.41703L16.846 5.56375C16.8726 5.57739 16.9047 5.57476 16.929 5.55695L17.2133 5.34648L17.1229 5.60889C17.1128 5.63874 17.1216 5.67203 17.1451 5.69368L17.2789 5.81331C17.2392 5.88048 17.2234 5.96316 17.2219 6.04937ZM17.0306 7.64858C17.317 7.16015 17.4462 6.93642 17.4854 6.56349C17.4863 6.55209 17.4857 6.53799 17.4796 6.52688C17.424 6.38761 17.2981 5.96513 17.4519 5.85081C17.6619 5.69438 17.8519 5.69753 18.0415 5.85657C18.0637 5.90945 18.1644 6.14316 18.0315 6.41241C17.9264 6.37303 17.8372 6.37547 17.781 6.38494C17.5024 6.43097 17.4609 7.21063 17.4638 7.6724C17.4647 7.88914 17.357 8.11906 17.2139 8.35053C17.209 8.33516 17.2029 8.32409 17.1952 8.31026C17.0968 8.13317 16.9355 8.03806 16.8303 7.99869C16.9041 7.87082 16.9727 7.75307 17.0306 7.64858ZM16.4469 8.70382C16.5608 8.48497 16.662 8.30211 16.7527 8.13945C16.8345 8.16284 17.0503 8.27117 17.1062 8.51529C17.061 8.58383 17.0142 8.64964 16.969 8.71817C16.8235 8.92563 16.686 9.12143 16.5952 9.31666C16.5392 9.43104 16.5035 9.55582 16.4792 9.68153C16.3021 9.61689 16.1751 9.66208 16.0724 9.71181C16.1392 9.38871 16.2608 9.05332 16.4469 8.70382ZM16.0422 9.8987C16.0658 9.88919 16.0923 9.87812 16.1172 9.8643C16.2144 9.81761 16.3103 9.77519 16.4548 9.83983C16.4178 10.1645 16.4533 10.4959 16.5061 10.7671C16.3398 10.7218 16.1934 10.7125 16.0698 10.7377C16.0698 10.7377 16.0698 10.7377 16.0683 10.7349C16.006 10.4727 15.9981 10.1911 16.0422 9.8987ZM15.6984 10.9295C15.7168 10.9301 15.731 10.9295 15.7494 10.9301C15.7211 10.9639 15.6987 11.0018 15.6778 11.0423C15.6282 11.1422 15.63 11.2498 15.653 11.3565C15.5774 11.3442 15.499 11.3333 15.4135 11.3229C15.0289 11.2757 14.5942 11.2165 14.1743 11.1057C13.4534 10.9157 12.8086 10.4844 12.6023 10.3346C12.8005 10.1457 13.0874 9.92317 13.3223 9.61642C13.6991 9.81274 15.3734 10.6899 15.6523 10.9116C15.6655 10.9224 15.6827 10.9273 15.6984 10.9295ZM12.0882 12.0272L11.9133 12.1282C11.6102 11.6918 11.6268 10.6244 11.6268 10.6122C11.6299 10.5805 11.6109 10.5521 11.5825 10.5394L10.2712 9.96559L10.2787 9.83097C10.9625 9.90986 11.7529 10.2279 11.7639 10.2334C11.7908 10.2504 11.8247 10.2461 11.8488 10.2263L12.9369 9.3191L13.171 9.52839C12.8317 9.94511 12.0063 10.5207 11.9957 10.5266C11.9665 10.5392 11.9508 10.5696 11.9535 10.6007L12.0882 12.0272ZM11.4677 5.74749C11.4734 5.76446 11.4805 5.77862 11.4861 5.79559C11.5782 6.06451 11.6746 6.34622 11.8644 6.62498C12.193 7.10756 12.7612 8.45642 12.8435 9.19108L11.7893 10.0691C11.7213 10.0352 11.5868 9.97155 11.4197 9.90222C11.4282 9.72245 11.4462 8.85753 11.16 8.05639C11.0097 7.63462 10.8015 7.22273 10.6301 6.89297C10.5805 6.79387 10.5324 6.69909 10.4885 6.60989C10.5253 6.55045 10.562 6.49097 10.5946 6.43294C10.6837 6.28285 10.7658 6.13983 10.8676 6.09872C11.2413 5.94573 11.3757 5.85366 11.4677 5.74749ZM11.2 5.14314C11.2892 5.27617 11.3473 5.42195 11.404 5.57054C11.3233 5.68951 11.2512 5.77018 10.8067 5.95159C10.6553 6.01393 10.5548 6.18666 10.4601 6.35517C10.4431 6.38208 10.4247 6.4118 10.4077 6.43871C10.344 6.29719 10.3029 6.18108 10.3085 6.11316C10.317 5.99705 10.4203 5.86112 10.5306 5.7181C10.6551 5.55385 10.7953 5.36551 10.8305 5.16025C10.8532 5.03706 10.829 4.95077 10.7951 4.89133C10.9663 4.93797 11.1164 5.01292 11.2 5.14314ZM9.57768 5.09702C9.67246 4.97097 9.73757 4.89025 9.85223 4.85908C9.91874 4.83925 10.0872 4.82078 10.2882 4.8221C10.2769 4.83063 10.2656 4.83911 10.2571 4.84905C10.1962 4.92124 10.1751 5.05572 10.1539 5.22559C10.1242 5.43372 10.089 5.68853 9.96445 5.87401C9.8527 6.04107 9.75782 6.05387 9.65025 6.07088C9.60351 6.07936 9.55397 6.08649 9.50447 6.10772C9.4619 5.90246 9.43491 5.63068 9.43903 5.26829C9.48994 5.20886 9.53803 5.14801 9.57768 5.09702ZM8.89125 5.5149C9.04838 5.48368 9.17292 5.45392 9.2805 5.39443C9.28345 5.71435 9.31186 5.98332 9.3615 6.20269C9.36009 6.20555 9.36009 6.20555 9.35864 6.20836C9.18038 6.3953 8.94404 6.61341 8.6723 6.76781C8.67376 6.75084 8.6709 6.73523 8.67371 6.71545C8.72026 6.29639 8.60973 5.91563 8.37038 5.65103C8.57841 5.58151 8.75255 5.54462 8.89125 5.5149ZM6.06055 6.80409C6.32234 6.59874 7.54375 5.95276 8.20051 5.70765C8.44407 5.94254 8.56027 6.2978 8.51654 6.69703C8.51232 6.75506 8.5081 6.80601 8.50951 6.85275C8.39063 6.90661 8.2675 6.94772 8.14009 6.969C7.9405 7.00022 7.70833 6.9975 7.46205 6.99473C7.01046 6.99206 6.5419 6.98803 6.2277 7.20609C5.64463 7.60837 5.24409 7.75147 5.19168 7.69344C5.11664 7.61704 4.97779 7.38491 5.26926 6.88654C5.58641 6.98831 5.861 6.96276 6.06055 6.80409ZM3.45428 6.3691C3.19225 6.02237 3.09015 5.50431 3.11983 5.40236C3.1255 5.38398 3.1382 5.37264 3.15944 5.36556C3.22881 5.34714 3.36896 5.39237 3.51343 5.53529C3.52759 5.54945 3.54742 5.56642 3.56865 5.58765L3.45428 6.3691ZM3.75165 6.67336C3.69502 6.61674 3.63695 6.56297 3.59307 6.52336L3.70885 5.71787C3.76121 5.76877 3.81929 5.82259 3.88304 5.87916L3.75165 6.67336ZM3.88904 6.81628L4.02465 6.00652C4.09116 6.06451 4.15918 6.1268 4.22855 6.18619L4.06327 7.02004C4.00374 6.94786 3.94571 6.87994 3.88904 6.81628ZM4.27425 7.29885C4.24735 7.26065 4.22044 7.2224 4.19068 7.18284L4.3673 6.30511C4.48341 6.40557 4.59956 6.49894 4.70147 6.5782L4.27425 7.29885ZM4.36631 7.45452L4.83173 6.67153C4.8997 6.71962 4.96059 6.76064 5.00873 6.78469C5.04553 6.80306 5.08092 6.81722 5.11917 6.83278C5.10079 6.8625 5.08378 6.89648 5.06967 6.92479C4.96781 7.1287 4.93251 7.29149 4.93396 7.42312C4.70606 7.45434 4.55466 7.56623 4.45983 7.66396C4.44 7.59744 4.40742 7.52812 4.36631 7.45452ZM5.31149 8.56001C5.32809 8.56901 5.3474 8.57187 5.36591 8.56803L5.74508 8.48754L5.54591 8.72234C5.51952 8.75304 5.52093 8.79729 5.54755 8.82664L5.78966 9.09354L5.35509 9.04005C5.33179 9.03724 5.30863 9.04484 5.29157 9.06068L4.97048 9.35899L4.92825 9.03781C4.9244 9.00809 4.90411 8.98306 4.8757 8.97321L4.54139 8.85771L4.80895 8.78384C4.83933 8.77535 4.86182 8.74925 4.86637 8.71765L4.88939 8.53962C4.96725 8.53447 5.04435 8.50067 5.11635 8.45328L5.31149 8.56001ZM6.9964 7.19732C6.90588 7.37854 6.91868 7.56538 6.94563 7.67437C6.7984 7.68576 6.66251 7.69569 6.54359 7.70708C5.9788 7.74693 5.72118 7.76685 5.39141 7.94535C5.38152 7.95097 5.37018 7.9595 5.36455 7.97085C5.28107 8.09544 5.00376 8.43814 4.82254 8.37589C4.57477 8.29105 4.46995 8.13252 4.49395 7.88619C4.52508 7.83805 4.66087 7.62285 4.95815 7.58024C4.98511 7.68922 5.03751 7.76141 5.07717 7.80247C5.27259 8.00624 5.93914 7.59974 6.31845 7.33626C6.49676 7.21307 6.74731 7.17187 7.01908 7.15907C7.00915 7.17182 7.00348 7.18312 6.9964 7.19732ZM7.744 7.59196C7.49908 7.62177 7.291 7.64169 7.10557 7.65871C7.07866 7.57804 7.04599 7.33879 7.21582 7.15471C7.29794 7.15326 7.37861 7.15462 7.46069 7.15317C7.71409 7.15593 7.95334 7.15865 8.16564 7.12317C8.29164 7.10475 8.41477 7.06364 8.53224 7.01264C8.57902 7.19521 8.68805 7.27443 8.78715 7.33101C8.48288 7.4586 8.13751 7.54795 7.744 7.59196ZM9.63351 6.75605C9.45239 6.95573 9.22453 7.12139 8.95847 7.25034C8.93724 7.23618 8.91314 7.22062 8.88769 7.20787C8.79422 7.1541 8.70502 7.09893 8.67666 6.94322C8.96536 6.79026 9.21872 6.57356 9.41255 6.37669C9.46926 6.53949 9.54431 6.66544 9.63492 6.75314C9.63492 6.75323 9.63492 6.75323 9.63351 6.75605ZM9.76087 6.65695C9.68442 6.59044 9.60511 6.47297 9.54272 6.26489C9.58233 6.24225 9.62479 6.23513 9.67434 6.22805C9.79321 6.20958 9.94331 6.18549 10.0933 5.96316C10.239 5.74937 10.2785 5.47192 10.3096 5.24683C10.3265 5.12083 10.3435 4.98775 10.3774 4.94809C10.4128 4.90563 10.5204 4.88149 10.5982 4.91688C10.6874 4.95789 10.6875 5.05698 10.6748 5.13203C10.6465 5.3019 10.5234 5.46334 10.4046 5.62337C10.2815 5.78481 10.1655 5.93912 10.1514 6.10191C10.1415 6.21375 10.2038 6.37936 10.3058 6.59306C10.2408 6.67378 10.1714 6.73467 10.0836 6.74747C9.95765 6.76584 9.85007 6.73331 9.76087 6.65695ZM10.0144 6.99942C10.0158 6.98245 10.0101 6.96544 10.003 6.95128C9.99313 6.93572 9.98465 6.92442 9.97471 6.90881C10.0186 6.91308 10.0625 6.91022 10.1078 6.90454C10.2182 6.88894 10.306 6.82659 10.381 6.74733C10.4136 6.8167 10.4489 6.88744 10.4886 6.96384C10.6671 7.30776 10.8641 7.69982 11.01 8.10885C11.2609 8.81088 11.2696 9.58666 11.2626 9.84147C10.9557 9.77481 10.6442 9.70558 10.2632 9.65355C10.212 9.23172 9.98906 7.35473 10.0144 6.99942ZM7.78084 12.8438C7.98025 12.6412 8.18917 12.4292 8.35379 12.1348C8.63865 11.6252 9.59142 10.5141 10.2119 10.1121L11.4685 10.6629C11.4685 10.7389 11.4717 10.8877 11.4844 11.0681C11.3198 11.1409 10.5379 11.5112 9.94917 12.1253C9.63895 12.4482 9.36356 12.8185 9.14517 13.1192C9.07871 13.2079 9.01538 13.2933 8.95524 13.3724C8.88563 13.3661 8.81597 13.3598 8.74951 13.3566C8.57541 13.3439 8.41079 13.3344 8.32853 13.2616C8.02464 12.9957 7.88219 12.9166 7.74611 12.8818C7.75872 12.8691 7.76819 12.8565 7.78084 12.8438ZM7.28074 13.8663C7.24591 13.6922 7.24591 13.5244 7.32508 13.3915C7.40421 13.2522 7.50864 13.1351 7.61627 13.018C7.75872 13.037 7.86315 13.0655 8.224 13.382C8.34746 13.4896 8.54687 13.5023 8.73994 13.5117C8.77158 13.5149 8.80641 13.5181 8.83805 13.5213C8.73994 13.6415 8.65444 13.7302 8.59116 13.7555C8.48354 13.7998 8.31578 13.7681 8.1385 13.7333C7.9359 13.6954 7.70486 13.6542 7.50541 13.7143C7.38518 13.7491 7.31871 13.8093 7.28074 13.8663ZM7.5498 13.8663C7.71442 13.8156 7.91383 13.8536 8.11009 13.8884C8.30949 13.9264 8.49943 13.9612 8.65135 13.9011C8.75583 13.8599 8.87611 13.7302 9.02171 13.5434C9.123 13.5656 9.20845 13.6004 9.25913 13.6732C9.33192 13.7777 9.35091 13.8884 9.32245 14.0024C9.29714 14.1005 9.22749 14.224 9.06919 14.3727C9.03122 14.3474 9.00591 14.3126 8.97741 14.2714C8.9078 14.1733 8.81916 14.0499 8.55324 14.015C8.29684 13.9802 8.03097 14.0688 7.81572 14.1416C7.69544 14.1828 7.56883 14.2271 7.51816 14.2144C7.46435 14.2018 7.39469 14.1163 7.39155 14.0308C7.38836 13.9327 7.477 13.8884 7.5498 13.8663ZM8.224 14.9108C8.14801 14.8918 8.07207 14.876 8.00875 14.8633C7.85364 14.8348 7.75234 14.8127 7.67322 14.7241C7.62574 14.6734 7.53396 14.531 7.44532 14.3506C7.45797 14.3569 7.47063 14.3632 7.48333 14.3664C7.57511 14.3886 7.70491 14.3474 7.86634 14.2904C8.06575 14.224 8.30949 14.1416 8.53107 14.1701C8.73047 14.1955 8.78429 14.2746 8.84761 14.3632C8.87611 14.4012 8.90457 14.4423 8.94572 14.4772C8.7811 14.6069 8.55005 14.7525 8.224 14.9108ZM8.68932 15.2906C8.59121 15.164 8.5089 15.0659 8.4076 14.9963C8.69246 14.8507 8.92041 14.7051 9.0945 14.5626C9.09769 14.5626 9.09769 14.5626 9.10083 14.5626C9.34772 14.6386 9.64842 14.7526 9.90801 14.9267C9.89217 14.933 9.87951 14.9425 9.86053 14.9488C9.46486 15.0944 9.17363 15.3635 9.04388 15.6958C8.88872 15.5407 8.77796 15.4014 8.68932 15.2906ZM11.1076 17.2469C10.8069 17.1044 9.6832 16.3004 9.17044 15.8224C9.27174 15.4996 9.53765 15.2368 9.91429 15.0976C9.9681 15.0754 10.0156 15.0564 10.0567 15.0342C10.158 15.1165 10.2498 15.2083 10.3258 15.3128C10.4429 15.4774 10.5441 15.6863 10.6518 15.9079C10.8512 16.3131 11.057 16.734 11.3925 16.9176C12.0129 17.2595 12.3199 17.5539 12.2914 17.6267C12.2566 17.728 12.111 17.9559 11.5349 17.9179C11.4843 17.5887 11.3387 17.3545 11.1076 17.2469ZM11.1678 20.504C11.1488 20.5072 11.133 20.5008 11.1172 20.485C11.0697 20.4312 11.0475 20.2856 11.1109 20.0925C11.1172 20.0735 11.1235 20.0482 11.133 20.0197L11.8832 19.7728C11.6901 20.1622 11.2722 20.485 11.1678 20.504ZM11.9591 19.5797L11.1868 19.8361C11.209 19.7665 11.2311 19.6905 11.2533 19.6082L12.0224 19.3708C11.9971 19.4468 11.9749 19.5227 11.9591 19.5797ZM12.0889 19.184L11.3039 19.4246C11.3261 19.3391 11.3514 19.2505 11.3736 19.1619L12.1934 18.9371C12.1554 19.0226 12.1206 19.1049 12.0889 19.184ZM12.282 18.7504L11.4179 18.9846C11.4559 18.8358 11.4875 18.6903 11.5129 18.5637L12.3485 18.6238C12.3263 18.6649 12.3041 18.7061 12.282 18.7504ZM12.4466 18.4718L11.5381 18.4054C11.5508 18.323 11.5602 18.2502 11.5602 18.1964C11.5602 18.1553 11.5571 18.1173 11.5539 18.0762C11.5887 18.0793 11.6267 18.0793 11.6584 18.0793C11.8863 18.0793 12.0477 18.0382 12.1648 17.978C12.2946 18.168 12.4624 18.2534 12.5921 18.2946C12.5416 18.3421 12.4941 18.4022 12.4466 18.4718ZM12.7546 16.7768L13.0537 16.8501C13.0929 16.8599 13.1319 16.8389 13.1462 16.802L13.2768 16.4662L13.4232 16.8788C13.4311 16.901 13.4483 16.9183 13.4701 16.9265L13.8804 17.0804L13.6119 17.2617C13.5871 17.2784 13.5738 17.3078 13.5776 17.3376L13.6237 17.6883L13.4381 17.482C13.4169 17.4586 13.3835 17.4501 13.3532 17.4602L13.1836 17.5191C13.1442 17.4518 13.0796 17.3979 13.005 17.3547L13.0132 17.1323C13.0138 17.1135 13.0078 17.0949 12.9961 17.0801L12.7546 16.7768ZM11.6996 16.4112C11.9876 16.8987 12.1205 17.1202 12.4276 17.3355C12.4371 17.3418 12.4497 17.3481 12.4624 17.3481C12.6112 17.3671 13.0417 17.4621 13.067 17.652C13.1019 17.9116 13.0069 18.0762 12.7758 18.1648C12.7189 18.1585 12.4656 18.1332 12.2947 17.8863C12.3802 17.8135 12.4213 17.7343 12.4403 17.6805C12.5353 17.4146 11.8737 17 11.4686 16.7784C11.2786 16.6739 11.1298 16.4682 10.9969 16.2308C11.0127 16.234 11.0254 16.234 11.0412 16.234C11.2438 16.234 11.4052 16.139 11.4907 16.0662C11.5666 16.1928 11.6363 16.3099 11.6996 16.4112ZM11.0602 15.3888C11.1963 15.5945 11.3071 15.7718 11.4052 15.93C11.345 15.9902 11.1456 16.1263 10.9051 16.0567C10.8671 15.9839 10.8323 15.9111 10.7943 15.8383C10.6835 15.6104 10.579 15.3951 10.4524 15.221C10.3796 15.1165 10.2878 15.0248 10.1897 14.9424C10.3321 14.819 10.3543 14.686 10.3606 14.5721C10.6107 14.7874 10.8449 15.0564 11.0602 15.3888ZM10.2119 14.455C10.2087 14.4803 10.2055 14.5088 10.2055 14.5373C10.1992 14.6449 10.1897 14.7494 10.0631 14.8443C9.7972 14.6544 9.49012 14.5247 9.22739 14.4392C9.34767 14.3157 9.4268 14.1923 9.46481 14.072C9.46481 14.072 9.46481 14.072 9.468 14.072C9.72754 14.1448 9.97762 14.2746 10.2119 14.455ZM9.51548 13.6225C9.49964 13.6288 9.48698 13.6415 9.47751 13.6542C9.468 13.67 9.46167 13.6826 9.4522 13.6984C9.43636 13.6573 9.41423 13.6193 9.38887 13.5813C9.32555 13.4895 9.23063 13.4389 9.12614 13.4072C9.17363 13.3471 9.22111 13.2838 9.27173 13.2141C9.49964 12.9008 9.76237 12.5494 10.0631 12.2361C10.579 11.6979 11.2691 11.3434 11.5001 11.2358C11.535 11.5713 11.611 11.967 11.7787 12.2139C11.4242 12.4482 9.84468 13.4864 9.51548 13.6225ZM15.9128 12.1246C15.8278 12.5193 15.8277 12.6823 15.8634 12.8182C15.8462 12.8133 15.8305 12.8111 15.8133 12.8062C15.5393 12.7302 15.2525 12.6504 14.9152 12.6493C14.3314 12.6476 12.8976 12.3538 12.245 12.0064L12.1167 10.6404C12.1831 10.6035 12.3116 10.5286 12.4633 10.4299C12.6068 10.5385 13.3101 11.0424 14.1327 11.2591C14.5656 11.3737 15.023 11.4347 15.3919 11.4797C15.5016 11.4949 15.6071 11.5087 15.7055 11.5229C15.7338 11.5868 15.762 11.6508 15.7915 11.7105C15.865 11.8688 15.9365 12.0173 15.9128 12.1246ZM16.5133 12.9389C16.3531 12.9373 16.2 12.9028 16.0454 12.8656C15.9928 12.7318 15.9671 12.6267 16.0687 12.1575C16.1029 11.9974 16.0172 11.8169 15.9318 11.6434C15.9192 11.6142 15.9051 11.5822 15.8925 11.553C16.0452 11.5804 16.1642 11.6122 16.2171 11.6552C16.3081 11.7277 16.3618 11.8898 16.4174 12.0617C16.4825 12.2572 16.5587 12.4793 16.7081 12.6245C16.7969 12.7127 16.8817 12.7416 16.95 12.7472C16.8146 12.8622 16.6679 12.9436 16.5133 12.9389ZM17.0401 12.5705C16.9558 12.6209 16.874 12.5649 16.8193 12.512C16.6952 12.3927 16.6316 12.1999 16.5668 12.0114C16.5033 11.8186 16.4415 11.6356 16.3152 11.532C16.2285 11.4606 16.0567 11.4185 15.8227 11.3818C15.7929 11.2825 15.7819 11.1908 15.821 11.1112C15.877 10.9969 15.9646 10.9265 16.0781 10.8961C16.1762 10.8706 16.3179 10.8716 16.5248 10.9378C16.5211 10.9833 16.5029 11.0223 16.4808 11.0672C16.4287 11.1757 16.3639 11.3131 16.4624 11.5625C16.5564 11.8036 16.7629 11.9931 16.9311 12.1459C17.0254 12.2311 17.1256 12.3203 17.1392 12.3707C17.1542 12.4239 17.1133 12.5263 17.0401 12.5705ZM17.5095 11.9878C17.4882 12.0539 17.4083 12.2032 17.2935 12.3683C17.2929 12.3542 17.2923 12.34 17.2889 12.3274C17.2638 12.2364 17.1648 12.1429 17.0366 12.0294C16.8817 11.8874 16.6915 11.7142 16.6089 11.5066C16.5342 11.32 16.5773 11.2345 16.6241 11.1361C16.6435 11.0928 16.6656 11.0479 16.6761 10.9951C16.8694 11.076 17.1089 11.2073 17.4055 11.4156C17.4257 11.4913 17.4488 11.5653 17.4685 11.6268C17.5187 11.7762 17.5486 11.8755 17.5095 11.9878ZM17.5117 10.8244C17.4486 10.9716 17.4028 11.0912 17.3911 11.2136C17.1255 11.0352 16.8876 10.9066 16.6786 10.8235C16.677 10.8207 16.677 10.8207 16.6755 10.818C16.6221 10.5653 16.5758 10.247 16.602 9.93555C16.6152 9.94633 16.6297 9.9528 16.6444 9.96634C16.9638 10.2416 17.3404 10.3657 17.694 10.3178C17.6336 10.5286 17.5656 10.6931 17.5117 10.8244ZM18.0484 7.76057C18.0699 8.09258 17.9122 9.4653 17.7432 10.1456C17.4117 10.2137 17.053 10.1088 16.7484 9.84705C16.7029 9.81077 16.6632 9.77847 16.6239 9.75325C16.6467 9.62477 16.6824 9.49994 16.7368 9.3828C16.8239 9.20051 16.9574 9.01057 17.0989 8.80896C17.3564 8.43795 17.6246 8.05377 17.6223 7.67127C17.6201 6.9629 17.7285 6.55158 17.8059 6.54117C17.9114 6.52247 18.1813 6.53916 18.4277 7.06129C18.1645 7.26529 18.0304 7.50627 18.0484 7.76057ZM18.6591 6.90394C18.6231 6.9239 18.5914 6.94509 18.557 6.96783C18.5429 6.93586 18.5244 6.90262 18.5091 6.87497C18.3984 6.6757 18.2841 6.55449 18.1747 6.48131C18.2778 6.27568 18.2711 6.08752 18.2441 5.95407C18.3102 5.9753 18.3858 5.98763 18.4697 5.99532L18.8525 6.82186C18.7744 6.85078 18.7061 6.87783 18.6591 6.90394ZM19.0031 6.76725L18.6502 6.00741C18.6969 6.0068 18.7436 6.00619 18.7931 6.00409L19.4173 6.64594C19.2688 6.68494 19.1261 6.72792 19.0031 6.76725ZM19.5938 6.59869L18.9994 5.99096C19.0926 5.98271 19.1814 5.97319 19.266 5.96246L19.8573 6.53208C19.7718 6.55416 19.6821 6.57502 19.5938 6.59869ZM20.0424 6.48722L19.4615 5.92988C19.5402 5.91516 19.6174 5.89768 19.6749 5.88385L20.2739 6.43472C20.2023 6.44916 20.1251 6.46664 20.0424 6.48722ZM20.535 6.37674C20.5153 6.38039 20.4901 6.38714 20.4606 6.39267L19.8806 5.85657C20.3147 5.83646 20.7998 6.04505 20.8671 6.12718C20.8791 6.14222 20.8812 6.15915 20.8751 6.18066C20.8511 6.24835 20.7345 6.33839 20.535 6.37674Z" fill="#464655"/>
</g>
<defs>
<clipPath id="clip0_72_2265">
<path d="M0 2C0 0.895432 0.895431 0 2 0H21.9998C23.1043 0 23.9998 0.895431 23.9998 2V21.9998C23.9998 23.1043 23.1043 23.9998 21.9998 23.9998H2C0.895432 23.9998 0 23.1043 0 21.9998V2Z" fill="white"/>
</clipPath>
</defs>
</svg>
