<svg width="24" height="24" viewBox="0 0 24 24" fill="none" xmlns="http://www.w3.org/2000/svg">
<g clip-path="url(#clip0_72_2337)">
<path d="M23.9968 6.10352e-05H-0.00292969V23.9998H23.9968V6.10352e-05Z" fill="#73AF00"/>
<path d="M23.9968 6.10352e-05H21.7314L11.997 9.73454L2.26247 6.10352e-05H-0.00292969V2.26546L9.73155 11.9999L-0.00292969 21.7344V23.9998H2.26247L11.997 14.2653L21.7314 23.9998H23.9968V21.7344L14.2624 11.9999L23.9968 2.26546V6.10352e-05Z" fill="#FFE15A"/>
<path d="M23.9933 2.26555V21.7345L14.2588 12L23.9933 2.26555Z" fill="#464655"/>
<path d="M-0.00585938 21.7345V2.26555L9.72862 12L-0.00585938 21.7345Z" fill="#464655"/>
</g>
<defs>
<clipPath id="clip0_72_2337">
<path d="M0 2C0 0.895432 0.895431 0 2 0H21.9998C23.1043 0 23.9998 0.895431 23.9998 2V21.9998C23.9998 23.1043 23.1043 23.9998 21.9998 23.9998H2C0.895432 23.9998 0 23.1043 0 21.9998V2Z" fill="white"/>
</clipPath>
</defs>
</svg>
