<svg width="24" height="24" viewBox="0 0 24 24" fill="none" xmlns="http://www.w3.org/2000/svg">
<g clip-path="url(#clip0_72_2443)">
<path d="M24.0027 15.9998H0.00292969V23.9998H24.0027V15.9998Z" fill="#73AF00"/>
<path d="M24.0027 6.10352e-05H0.00292969V8.00014H24.0027V6.10352e-05Z" fill="#464655"/>
<path d="M24.0027 8.00014H0.00292969V16.0002H24.0027V8.00014Z" fill="#C8414B"/>
<path d="M24.0066 7.57871H0.00683594V8.84184H24.0066V7.57871Z" fill="#F5F5F5"/>
<path d="M24.0066 15.1579H0.00683594V16.421H24.0066V15.1579Z" fill="#F5F5F5"/>
<path d="M15.3884 6.6782C15.897 5.62957 16.4276 3.20039 16.4276 3.20039C16.4276 3.20039 14.8484 5.12098 14.3398 6.16961C14.2332 6.38941 14.2784 6.64216 14.4324 6.81316L8.63965 18.7565L9.03288 18.9472L14.8257 7.00389C15.0553 7.01898 15.2818 6.898 15.3884 6.6782Z" fill="#F5F5F5"/>
<path d="M8.6251 6.6782C8.11651 5.62957 7.58594 3.20039 7.58594 3.20039C7.58594 3.20039 9.16514 5.12098 9.67373 6.16961C9.78032 6.38941 9.73514 6.64216 9.58111 6.81316L15.3739 18.7565L14.9807 18.9472L9.18783 7.00389C8.95819 7.01898 8.73169 6.898 8.6251 6.6782Z" fill="#F5F5F5"/>
<path d="M15.1614 11.9999C15.1614 15.488 12.5849 18.3157 12.0035 18.3157C11.4222 18.3157 8.8457 15.488 8.8457 11.9999C8.8457 8.51187 11.4222 5.68421 12.0035 5.68421C12.5849 5.68421 15.1614 8.51187 15.1614 11.9999Z" fill="#C8414B"/>
<path d="M14.532 15.047C14.904 14.1433 15.1636 13.1053 15.1636 11.9998C15.1636 10.8944 14.904 9.85639 14.532 8.95265C14.1599 9.85639 13.9004 10.8944 13.9004 11.9998C13.9004 13.1053 14.1599 14.1433 14.532 15.047Z" fill="#464655"/>
<path d="M9.47924 8.95265C9.1072 9.85639 8.84766 10.8944 8.84766 11.9998C8.84766 13.1053 9.1072 14.1433 9.47924 15.047C9.85129 14.1433 10.1108 13.1053 10.1108 11.9998C10.1108 10.8944 9.85129 9.85639 9.47924 8.95265Z" fill="#464655"/>
<path d="M11.9998 12.9472C12.3486 12.9472 12.6313 12.523 12.6313 11.9998C12.6313 11.4766 12.3486 11.0525 11.9998 11.0525C11.6509 11.0525 11.3682 11.4766 11.3682 11.9998C11.3682 12.523 11.6509 12.9472 11.9998 12.9472Z" fill="#F5F5F5"/>
<path d="M12.0947 5.68409V11.0524C12.2669 10.694 12.5723 9.63481 12.5723 8.36826C12.5724 7.10162 12.2669 6.04254 12.0947 5.68409Z" fill="#F5F5F5"/>
<path d="M11.9053 5.68409C11.7331 6.04254 11.4277 7.10162 11.4277 8.36826C11.4277 9.63481 11.7332 10.694 11.9053 11.0524V5.68409Z" fill="#F5F5F5"/>
<path d="M12.0947 12.9472V18.3156C12.2669 17.9571 12.5723 16.8979 12.5723 15.6314C12.5724 14.3647 12.2669 13.3056 12.0947 12.9472Z" fill="#F5F5F5"/>
<path d="M11.9053 12.9472C11.7331 13.3057 11.4277 14.3647 11.4277 15.6314C11.4277 16.8979 11.7332 17.9571 11.9053 18.3156V12.9472Z" fill="#F5F5F5"/>
</g>
<defs>
<clipPath id="clip0_72_2443">
<path d="M0 2C0 0.895432 0.895431 0 2 0H21.9998C23.1043 0 23.9998 0.895431 23.9998 2V21.9998C23.9998 23.1043 23.1043 23.9998 21.9998 23.9998H2C0.895432 23.9998 0 23.1043 0 21.9998V2Z" fill="white"/>
</clipPath>
</defs>
</svg>
