<svg width="24" height="24" viewBox="0 0 24 24" fill="none" xmlns="http://www.w3.org/2000/svg">
<g clip-path="url(#clip0_72_2462)">
<path d="M24.0033 0.00127411H0.00585938V23.9987H24.0033V0.00127411Z" fill="#FF4B55"/>
<path d="M15.5431 12.1988C15.3829 12.061 15.2012 11.9608 15.0188 11.8874C16.0496 11.6841 16.8786 10.8132 16.8786 10.8132C16.3775 11.0331 16.1446 11.0776 15.347 10.8154C15.1463 10.7495 14.9401 10.7263 14.7435 10.7283C15.618 10.146 16.0506 9.02425 16.0506 9.02425C15.6718 9.41913 15.4736 9.54944 14.6364 9.61244C14.4257 9.62828 14.2263 9.68589 14.0455 9.76295C14.6307 8.89033 14.601 7.68828 14.601 7.68828C14.4021 8.19809 14.2689 8.39426 13.5196 8.77287C13.331 8.86816 13.1688 8.99768 13.0313 9.13797C13.2379 8.1079 12.7507 7.00874 12.7507 7.00874C12.762 7.55582 12.714 7.78808 12.1666 8.42464C12.0288 8.58485 11.9285 8.76654 11.8552 8.94888C11.6519 7.91811 10.781 7.08909 10.781 7.08909C11.0008 7.59017 11.0453 7.82314 10.7832 8.62071C10.7172 8.82143 10.694 9.02768 10.6961 9.22417C10.1138 8.34968 8.99203 7.91708 8.99203 7.91708C9.3869 8.29592 9.51721 8.4941 9.58021 9.33128C9.59605 9.54198 9.65366 9.74134 9.73072 9.92218C8.85811 9.33705 7.6561 9.36667 7.6561 9.36667C8.16591 9.56556 8.36208 9.69878 8.74069 10.4481C8.83598 10.6367 8.96554 10.7989 9.10589 10.9365C8.07572 10.7298 6.97656 11.2171 6.97656 11.2171C7.52368 11.2057 7.75595 11.2538 8.3925 11.8012C8.55267 11.939 8.7344 12.0392 8.91675 12.1126C7.88598 12.3158 7.05695 13.1868 7.05695 13.1868C7.55809 12.9669 7.79101 12.9224 8.58862 13.1846C8.78939 13.2506 8.99559 13.2737 9.19213 13.2716C8.31769 13.8539 7.88494 14.9757 7.88494 14.9757C8.26378 14.5808 8.46197 14.4505 9.29915 14.3875C9.50985 14.3717 9.70925 14.314 9.89005 14.237C9.30491 15.1096 9.33454 16.3116 9.33454 16.3116C9.53343 15.8018 9.66665 15.6056 10.416 15.227C10.6046 15.1317 10.7667 15.0021 10.9043 14.8618C10.6976 15.8919 11.185 16.9911 11.185 16.9911C11.1736 16.444 11.2217 16.2117 11.7691 15.5752C11.9068 15.415 12.0071 15.2333 12.0804 15.051C12.2837 16.0817 13.1546 16.9108 13.1546 16.9108C12.9348 16.4097 12.8903 16.1767 13.1524 15.3791C13.2184 15.1784 13.2416 14.9722 13.2395 14.7757C13.8218 15.6502 14.9436 16.0828 14.9436 16.0828C14.5487 15.7039 14.4184 15.5057 14.3554 14.6686C14.3396 14.4579 14.282 14.2585 14.2049 14.0777C15.0775 14.6628 16.2795 14.6332 16.2795 14.6332C15.7697 14.4343 15.5735 14.3011 15.1949 13.5517C15.0996 13.3631 14.9701 13.201 14.8298 13.0634C15.8599 13.2701 16.959 12.7827 16.959 12.7827C16.4119 12.7942 16.1796 12.7462 15.5431 12.1988Z" fill="#FFE15A"/>
<path d="M14.5371 12.5038L17.0562 11.9999L14.5371 11.4961L16.6717 10.0666L14.1514 10.5652L15.5765 8.42763L13.4389 9.85271L13.9375 7.33245L12.508 9.46703L12.0041 6.94785L11.5003 9.46703L10.0708 7.33245L10.5694 9.85271L8.43179 8.42763L9.85687 10.5652L7.33661 10.0666L9.47123 11.4961L6.95215 11.9999L9.47133 12.5038L7.33671 13.9333L9.85696 13.4347L8.43188 15.5723L10.5695 14.1472L10.0709 16.6674L11.5004 14.5329L12.0042 17.052L12.5081 14.5329L13.9376 16.6674L13.439 14.1472L15.5766 15.5723L14.1515 13.4347L16.6718 13.9333L14.5371 12.5038Z" fill="#FFD25A"/>
<path d="M14.0564 10.4404C15.6356 12.9679 12.9725 15.631 10.445 14.0517C10.2458 13.9272 10.0773 13.7587 9.95277 13.5595C8.37347 11.0319 11.0366 8.36885 13.5641 9.94815C13.7633 10.0726 13.9319 10.2412 14.0564 10.4404Z" fill="#FFE15A"/>
<path d="M4.79706 19.578C5.99738 19.578 5.99738 20.2095 7.19779 20.2095C8.39895 20.2095 8.39895 19.578 9.60016 19.578C10.8014 19.578 10.8013 20.2095 12.0025 20.2095C13.2011 20.2095 13.2011 19.578 14.3996 19.578C15.5987 19.578 15.5987 20.2095 16.7979 20.2095C17.9975 20.2095 17.9975 19.578 19.1972 19.578C20.3969 19.578 20.3968 20.2095 21.5965 20.2095C22.7961 20.2095 22.7961 19.578 23.9958 19.578C23.9978 19.578 23.9994 19.5782 24.0013 19.5782V17.6837C23.9994 17.6837 23.9978 17.6835 23.9958 17.6835C22.7962 17.6835 22.7962 18.315 21.5965 18.315C20.3969 18.315 20.3969 17.6835 19.1972 17.6835C17.9975 17.6835 17.9976 18.315 16.7979 18.315C15.5988 18.315 15.5988 17.6835 14.3996 17.6835C13.2011 17.6835 13.2011 18.315 12.0025 18.315C10.8014 18.315 10.8014 17.6835 9.60016 17.6835C8.39895 17.6835 8.399 18.315 7.19779 18.315C5.99743 18.315 5.99743 17.6835 4.79706 17.6835C3.59778 17.6835 3.59778 18.315 2.3984 18.315C1.20038 18.315 1.19813 17.6857 0.00390625 17.6837V19.5782C1.19813 19.5802 1.20033 20.2095 2.3984 20.2095C3.59773 20.2095 3.59773 19.578 4.79706 19.578Z" fill="#41479B"/>
<path d="M0.00390625 15.7891C1.19813 15.7911 1.20033 16.4205 2.3984 16.4205C3.59773 16.4205 3.59773 15.7889 4.79706 15.7889C5.99738 15.7889 5.99738 16.4205 7.19779 16.4205C8.39895 16.4205 8.39895 15.7889 9.60016 15.7889C10.8014 15.7889 10.8013 16.4205 12.0025 16.4205C13.2011 16.4205 13.2011 15.7889 14.3996 15.7889C15.5987 15.7889 15.5987 16.4205 16.7979 16.4205C17.9975 16.4205 17.9975 15.7889 19.1972 15.7889C20.3969 15.7889 20.3968 16.4205 21.5965 16.4205C22.7961 16.4205 22.7961 15.7889 23.9958 15.7889C23.9978 15.7889 23.9994 15.7891 24.0013 15.7891V13.8946C23.9994 13.8946 23.9978 13.8944 23.9958 13.8944C22.7962 13.8944 22.7962 14.526 21.5965 14.526C20.3969 14.526 20.3969 13.8944 19.1972 13.8944C17.9975 13.8944 17.9976 14.526 16.7979 14.526C15.5988 14.526 15.5988 13.8944 14.3996 13.8944C13.2011 13.8944 13.2011 14.526 12.0025 14.526C10.8014 14.526 10.8014 13.8944 9.60016 13.8944C8.39895 13.8944 8.399 14.526 7.19779 14.526C5.99743 14.526 5.99743 13.8944 4.79706 13.8944C3.59778 13.8944 3.59778 14.526 2.3984 14.526C1.20038 14.526 1.19813 13.8966 0.00390625 13.8946V15.7891Z" fill="#41479B"/>
<path d="M0.00390625 21.4727C1.19813 21.4747 1.20033 22.1041 2.3984 22.1041C3.59773 22.1041 3.59773 21.4725 4.79706 21.4725C5.99738 21.4725 5.99738 22.1041 7.19779 22.1041C8.39895 22.1041 8.39895 21.4725 9.60016 21.4725C10.8014 21.4725 10.8013 22.1041 12.0025 22.1041C13.2011 22.1041 13.2011 21.4725 14.3996 21.4725C15.5987 21.4725 15.5987 22.1041 16.7979 22.1041C17.9975 22.1041 17.9975 21.4725 19.1972 21.4725C20.3969 21.4725 20.3968 22.1041 21.5965 22.1041C22.7961 22.1041 22.7961 21.4725 23.9958 21.4725C23.9978 21.4725 23.9994 21.4727 24.0013 21.4727V19.5782C23.9994 19.5782 23.9978 19.578 23.9958 19.578C22.7962 19.578 22.7962 20.2095 21.5965 20.2095C20.3969 20.2095 20.3969 19.578 19.1972 19.578C17.9975 19.578 17.9976 20.2095 16.7979 20.2095C15.5988 20.2095 15.5988 19.578 14.3996 19.578C13.2011 19.578 13.2011 20.2095 12.0025 20.2095C10.8014 20.2095 10.8014 19.578 9.60016 19.578C8.39895 19.578 8.399 20.2095 7.19779 20.2095C5.99743 20.2095 5.99743 19.578 4.79706 19.578C3.59778 19.578 3.59778 20.2095 2.3984 20.2095C1.20038 20.2095 1.19813 19.5802 0.00390625 19.5782V21.4727Z" fill="#F5F5F5"/>
<path d="M0.00390625 17.6837C1.19813 17.6857 1.20033 18.315 2.3984 18.315C3.59773 18.315 3.59773 17.6835 4.79706 17.6835C5.99738 17.6835 5.99738 18.315 7.19779 18.315C8.39895 18.315 8.39895 17.6835 9.60016 17.6835C10.8014 17.6835 10.8013 18.315 12.0025 18.315C13.2011 18.315 13.2011 17.6835 14.3996 17.6835C15.5987 17.6835 15.5987 18.315 16.7979 18.315C17.9975 18.315 17.9975 17.6835 19.1972 17.6835C20.3969 17.6835 20.3968 18.315 21.5965 18.315C22.7961 18.315 22.7961 17.6835 23.9958 17.6835C23.9978 17.6835 23.9994 17.6837 24.0013 17.6837V15.7891C23.9994 15.7891 23.9978 15.7889 23.9958 15.7889C22.7962 15.7889 22.7962 16.4205 21.5965 16.4205C20.3969 16.4205 20.3969 15.7889 19.1972 15.7889C17.9975 15.7889 17.9976 16.4205 16.7979 16.4205C15.5988 16.4205 15.5988 15.7889 14.3996 15.7889C13.2011 15.7889 13.2011 16.4205 12.0025 16.4205C10.8014 16.4205 10.8014 15.7889 9.60016 15.7889C8.39895 15.7889 8.399 16.4205 7.19779 16.4205C5.99743 16.4205 5.99743 15.7889 4.79706 15.7889C3.59778 15.7889 3.59778 16.4205 2.3984 16.4205C1.20038 16.4205 1.19813 15.7911 0.00390625 15.7891V17.6837Z" fill="#F5F5F5"/>
<path d="M0.00390625 13.8946C1.19813 13.8966 1.20033 14.526 2.3984 14.526C3.59773 14.526 3.59773 13.8944 4.79706 13.8944C5.99738 13.8944 5.99738 14.526 7.19779 14.526C8.39895 14.526 8.39895 13.8944 9.60016 13.8944C10.8014 13.8944 10.8013 14.526 12.0025 14.526C13.2011 14.526 13.2011 13.8944 14.3996 13.8944C15.5987 13.8944 15.5987 14.526 16.7979 14.526C17.9975 14.526 17.9975 13.8944 19.1972 13.8944C20.3969 13.8944 20.3968 14.526 21.5965 14.526C22.7961 14.526 22.7961 13.8944 23.9958 13.8944C23.9978 13.8944 23.9994 13.8946 24.0013 13.8946V12.0001C23.9994 12.0001 23.9978 11.9999 23.9958 11.9999C22.7962 11.9999 22.7962 12.6314 21.5965 12.6314C20.3969 12.6314 20.3969 11.9999 19.1972 11.9999C17.9975 11.9999 17.9976 12.6314 16.798 12.6314C15.5989 12.6314 15.5989 11.9999 14.3997 11.9999C13.2012 11.9999 13.2012 12.6314 12.0026 12.6314C10.8015 12.6314 10.8015 11.9999 9.60025 11.9999C8.39904 11.9999 8.39909 12.6314 7.19784 12.6314C5.99747 12.6314 5.99747 11.9999 4.79711 11.9999C3.59782 11.9999 3.59782 12.6314 2.39845 12.6314C1.20043 12.6314 1.19818 12.0021 0.00395312 12.0001L0.00390625 13.8946Z" fill="#F5F5F5"/>
<path d="M21.5979 22.1041C20.3983 22.1041 20.3983 21.4725 19.1987 21.4725C17.999 21.4725 17.9991 22.1041 16.7993 22.1041C15.6002 22.1041 15.6002 21.4725 14.4011 21.4725C13.2026 21.4725 13.2026 22.1041 12.004 22.1041C10.8028 22.1041 10.8028 21.4725 9.60162 21.4725C8.40041 21.4725 8.40046 22.1041 7.19925 22.1041C5.99889 22.1041 5.99889 21.4725 4.79852 21.4725C3.59924 21.4725 3.59924 22.1041 2.39986 22.1041C1.20184 22.1041 1.19959 21.4747 0.00536716 21.4727L0.00292969 23.9986H24.0003C24.0003 23.9986 24.0021 21.4727 24.0027 21.4727C24.0008 21.4727 23.9992 21.4725 23.9973 21.4725C22.7976 21.4726 22.7976 22.1041 21.5979 22.1041Z" fill="#41479B"/>
<path d="M13.3192 3.35567C16.3902 3.23689 17.951 1.8966 17.951 1.8966C17.7305 1.9814 14.2863 2.26982 13.3023 2.35471C12.6808 2.40824 11.9055 3.11679 11.4173 3.6327C11.2858 3.27546 11.0288 2.90487 10.5197 2.82973C9.4848 2.67702 6.73627 2.50742 6.05762 2.18497C6.05762 2.18497 6.49566 2.86217 8.75951 3.16906C9.84419 3.3161 10.4422 3.68819 10.7271 3.94136L10.4689 3.9325C10.4689 3.9325 10.4689 3.9325 10.0278 3.71187C9.58671 3.49127 9.14557 3.86458 9.14557 3.86458H8.44297C8.35499 3.86458 8.30474 3.96504 8.35752 4.03544L8.42511 4.12558C8.49416 4.21764 8.60248 4.27178 8.71751 4.27178H9.43394C9.68843 4.71292 10.6555 5.17102 11.453 5.17102C12.2504 5.17102 14.6935 4.08518 14.9311 4.08518L12.721 4.00952L13.3192 3.35567Z" fill="#FFE15A"/>
</g>
<defs>
<clipPath id="clip0_72_2462">
<path d="M0 2C0 0.895428 0.895431 0 2 0H21.9999C23.1044 0 23.9999 0.895431 23.9999 2V21.9999C23.9999 23.1044 23.1044 23.9999 21.9999 23.9999H2C0.895428 23.9999 0 23.1044 0 21.9999V2Z" fill="white"/>
</clipPath>
</defs>
</svg>
