<svg width="24" height="24" viewBox="0 0 24 24" fill="none" xmlns="http://www.w3.org/2000/svg">
<g clip-path="url(#clip0_72_2476)">
<path d="M24.0027 6.10352e-05H0.00292969V23.9998H24.0027V6.10352e-05Z" fill="#41479B"/>
<path d="M12.5327 9.49136C12.2935 9.44608 12.0026 9.14224 12.106 8.97415C12.2095 8.80606 12.0155 8.43106 11.7828 8.56034C11.55 8.68967 11.3948 8.84482 11.175 8.89652C10.9551 8.94823 10.7741 9.11636 10.9422 9.27152C11.1103 9.42667 11.3689 9.73703 11.1232 10.0603C10.8776 10.3836 10.9551 10.1638 10.6577 10.306C10.3603 10.4482 10.1534 10.7327 10.2439 10.9008C10.3344 11.0689 10.412 11.1336 10.1534 11.25C9.89479 11.3663 9.7784 11.2888 9.57149 11.3405C9.36459 11.3922 8.86031 11.6508 8.70511 11.8706C8.54996 12.0905 8.21372 11.8836 8.07151 11.8577C7.92929 11.8318 7.64481 11.9353 7.58012 12.1034C7.51548 12.2714 7.63182 12.4266 7.87754 12.5042C8.12321 12.5818 8.22666 12.5947 8.11032 12.8016C7.99393 13.0085 8.07151 13.4094 8.26547 13.5258C8.45944 13.6421 8.83444 14.0042 8.83444 14.2499C8.83444 14.4955 8.78273 14.8577 9.14479 14.9094C9.50685 14.9611 10.0629 15.1163 10.2568 15.4524C10.4508 15.7886 10.5025 15.9826 10.5413 16.1895C10.5801 16.3964 10.6189 16.5645 10.7353 16.7973C10.8517 17.0301 10.9293 17.4309 10.8129 17.5214C10.6965 17.6119 10.606 17.6765 10.6965 17.8511C10.787 18.0257 10.8064 18.0903 10.9745 17.9933C11.1426 17.8963 11.1426 17.9998 11.2331 17.9804C11.3236 17.961 11.7374 17.8123 11.6598 17.6119C11.5822 17.4114 11.4141 16.9524 11.6533 16.7132C11.8925 16.474 12.2158 16.4352 12.4227 16.2735C12.6296 16.1119 12.9723 16.086 13.2374 15.8274C13.5024 15.5688 13.7869 15.724 13.8322 15.905C13.8775 16.086 13.9486 16.4352 14.1555 16.4287C14.3624 16.4222 14.4076 16.4222 14.4464 16.1701C14.4853 15.918 14.8085 15.3555 14.9378 15.4266C15.0672 15.4977 15.1835 15.4395 15.19 15.3296C15.1964 15.2197 15.4421 15.1227 15.5456 15.2779C15.649 15.433 15.8753 15.5559 15.8689 15.3619C15.8624 15.168 15.5973 15.1938 15.5908 14.9805C15.5844 14.7671 15.8042 14.6313 15.9982 14.5408C16.1921 14.4503 16.0758 14.2175 16.134 14.0883C16.1921 13.9589 16.509 13.7973 16.5219 13.668C16.5348 13.5386 16.4443 13.4869 16.5801 13.4546C16.7159 13.4223 16.884 13.3641 16.787 13.2154C16.69 13.0667 16.7223 12.9568 16.8258 12.8857C16.9292 12.8146 16.9778 12.477 16.8269 12.4332C16.676 12.3893 16.4034 12.5159 16.3352 12.5987C16.2671 12.6815 15.9896 12.3261 15.8581 12.2384C15.7267 12.1508 14.8796 12.2044 14.8991 12.0583C14.9186 11.9122 15.2741 11.3792 15.119 11.2951C14.9638 11.2111 14.7181 11.0882 14.5176 11.0236C14.3172 10.959 14.3625 11.1788 14.2526 11.0042C14.1427 10.8296 14.1039 10.2089 13.981 10.2089C13.8582 10.2089 13.7677 10.4675 13.716 10.3705C13.6642 10.2736 13.7354 9.60114 13.4509 9.5882C13.1664 9.57527 13.1599 9.74336 12.9983 9.62055C12.8366 9.49783 12.8598 9.55324 12.5327 9.49136Z" fill="#FF9B55"/>
<path d="M10.7779 5.81313L10.5631 6.45719L9.88421 6.46244C9.84699 6.46272 9.83157 6.5102 9.86148 6.53233L10.4076 6.93564L10.2028 7.58293C10.1916 7.61841 10.232 7.64775 10.2623 7.62614L10.8146 7.23137L11.3669 7.62614C11.3972 7.6478 11.4376 7.61841 11.4263 7.58293L11.2215 6.93564L11.7677 6.53233C11.7976 6.5102 11.7822 6.46272 11.7449 6.46244L11.0661 6.45719L10.8513 5.81313C10.8396 5.77784 10.7896 5.77784 10.7779 5.81313Z" fill="#F5F5F5"/>
<path d="M13.1704 5.81313L12.9557 6.45719L12.2768 6.46244C12.2396 6.46272 12.2241 6.5102 12.2541 6.53233L12.8002 6.93564L12.5954 7.58293C12.5842 7.61841 12.6246 7.64775 12.6549 7.62614L13.2072 7.23137L13.7595 7.62614C13.7898 7.6478 13.8302 7.61841 13.819 7.58293L13.6142 6.93564L14.1603 6.53233C14.1902 6.5102 14.1748 6.46272 14.1376 6.46244L13.4587 6.45719L13.2439 5.81313C13.2322 5.77784 13.1822 5.77784 13.1704 5.81313Z" fill="#F5F5F5"/>
<path d="M8.41751 6.20754L8.20273 6.85159L7.52385 6.85684C7.48663 6.85712 7.47121 6.90461 7.50116 6.92673L8.0473 7.33004L7.8425 7.97733C7.83125 8.01282 7.87166 8.04216 7.90194 8.02055L8.45426 7.62577L9.00658 8.02055C9.03687 8.04221 9.07727 8.01282 9.06602 7.97733L8.86123 7.33004L9.40736 6.92673C9.43731 6.90461 9.42189 6.85712 9.38463 6.85684L8.70574 6.85159L8.49096 6.20754C8.47925 6.17224 8.42928 6.17224 8.41751 6.20754Z" fill="#F5F5F5"/>
<path d="M6.1851 7.01912L5.97032 7.66318L5.29144 7.66843C5.25422 7.66871 5.2388 7.71619 5.2687 7.73832L5.81484 8.14163L5.61005 8.78892C5.5988 8.8244 5.6392 8.85375 5.66948 8.83214L6.2218 8.43736L6.77413 8.83214C6.80441 8.85379 6.84481 8.8244 6.83356 8.78892L6.62877 8.14163L7.17491 7.73832C7.20486 7.71619 7.18944 7.66871 7.15217 7.66843L6.47329 7.66318L6.25851 7.01912C6.24684 6.98378 6.19687 6.98378 6.1851 7.01912Z" fill="#F5F5F5"/>
<path d="M15.5965 6.20754L15.8113 6.85159L16.4901 6.85684C16.5274 6.85712 16.5428 6.90461 16.5128 6.92673L15.9667 7.33004L16.1715 7.97733C16.1827 8.01282 16.1423 8.04216 16.1121 8.02055L15.5597 7.62577L15.0074 8.02055C14.9771 8.04221 14.9367 8.01282 14.948 7.97733L15.1528 7.33004L14.6066 6.92673C14.5767 6.90461 14.5921 6.85712 14.6293 6.85684L15.3082 6.85159L15.523 6.20754C15.5347 6.17224 15.5847 6.17224 15.5965 6.20754Z" fill="#F5F5F5"/>
<path d="M17.8299 7.01912L18.0447 7.66318L18.7235 7.66843C18.7608 7.66871 18.7762 7.71619 18.7462 7.73832L18.2001 8.14163L18.4049 8.78892C18.4161 8.8244 18.3757 8.85375 18.3455 8.83214L17.7931 8.43736L17.2408 8.83214C17.2105 8.85379 17.1701 8.8244 17.1814 8.78892L17.3862 8.14163L16.84 7.73832C16.8101 7.71619 16.8255 7.66871 16.8627 7.66843L17.5416 7.66318L17.7564 7.01912C17.7681 6.98378 17.8181 6.98378 17.8299 7.01912Z" fill="#F5F5F5"/>
</g>
<defs>
<clipPath id="clip0_72_2476">
<path d="M0 2C0 0.895432 0.895431 0 2 0H21.9998C23.1043 0 23.9998 0.895431 23.9998 2V21.9998C23.9998 23.1043 23.1043 23.9998 21.9998 23.9998H2C0.895432 23.9998 0 23.1043 0 21.9998V2Z" fill="white"/>
</clipPath>
</defs>
</svg>
