<svg width="24" height="24" viewBox="0 0 24 24" fill="none" xmlns="http://www.w3.org/2000/svg">
<g clip-path="url(#clip0_72_2491)">
<path d="M24.0017 6.10352e-05H0.00195312V23.9998H24.0017V6.10352e-05Z" fill="#FF4B55"/>
<path d="M18.6795 13.8836C18.6795 13.8836 17.4212 13.6739 16.4892 12.901C16.2143 12.673 15.8153 12.4987 15.4266 12.37C15.7391 12.3561 16.0704 12.3648 16.3836 12.4282C17.6808 12.6905 18.9387 12.0608 18.9387 12.0608C18.9387 12.0608 17.6695 12.1888 16.5673 11.6878C16.2692 11.5523 15.8825 11.4884 15.5052 11.4615C15.7766 11.3834 16.0646 11.3223 16.349 11.3066C17.6705 11.2333 18.7289 10.3069 18.7289 10.3069C18.7289 10.3069 17.5331 10.7508 16.3401 10.5438C15.9927 10.4835 15.5662 10.5286 15.1693 10.6084C15.4304 10.4444 15.7178 10.2912 16.0161 10.1924C17.2726 9.77671 18.0525 8.60602 18.0525 8.60602C18.0525 8.60602 17.014 9.34668 15.8084 9.45838C15.4504 9.49157 15.0426 9.65226 14.6747 9.83736C14.887 9.60463 15.1293 9.37429 15.3976 9.19621C16.5004 8.46441 16.9446 7.1297 16.9446 7.1297C16.9446 7.1297 16.1377 8.11763 15.004 8.54278C14.695 8.65866 14.3746 8.89078 14.087 9.1409C14.2245 8.89092 14.3862 8.6408 14.5781 8.42611C15.4602 7.4394 15.5527 6.03579 15.5527 6.03579C15.5527 6.03579 15.0216 7.19552 14.0321 7.89329C13.7437 8.09672 13.474 8.4308 13.2498 8.76825C13.3184 8.46731 13.4131 8.15522 13.5542 7.87407C14.148 6.69124 13.8706 5.31219 13.8706 5.31219C13.8706 5.31219 13.6609 6.57035 12.888 7.50236C12.66 7.77732 12.4857 8.17632 12.357 8.565C12.3431 8.25249 12.3519 7.92118 12.4152 7.60796C12.6775 6.31071 12.0478 5.05288 12.0478 5.05288C12.0478 5.05288 12.1758 6.32201 11.6748 7.42426C11.5393 7.72234 11.4754 8.10905 11.4485 8.48639C11.3704 8.21499 11.3094 7.9269 11.2936 7.64256C11.2204 6.32107 10.2939 5.26264 10.2939 5.26264C10.2939 5.26264 10.7378 6.45846 10.5308 7.65146C10.4705 7.9989 10.5157 8.42541 10.5954 8.8223C10.4315 8.5612 10.2782 8.27382 10.1795 7.97546C9.76377 6.71894 8.59308 5.93909 8.59308 5.93909C8.59308 5.93909 9.33375 6.97755 9.44545 8.18316C9.47864 8.54119 9.63932 8.949 9.82443 9.31692C9.5917 9.10462 9.36136 8.86233 9.18323 8.59392C8.45143 7.49115 7.11672 7.04702 7.11672 7.04702C7.11672 7.04702 8.10465 7.85387 8.5298 8.98758C8.64568 9.29662 8.8778 9.61701 9.12792 9.90458C8.87799 9.7671 8.62786 9.60543 8.41318 9.41348C7.42647 8.53139 6.02286 8.43886 6.02286 8.43886C6.02286 8.43886 7.18258 8.96995 7.88036 9.95942C8.08374 10.2478 8.41777 10.5175 8.75522 10.7417C8.45433 10.6732 8.14229 10.5785 7.86118 10.4374C6.67835 9.84369 5.29926 10.121 5.29926 10.121C5.29926 10.121 6.55746 10.3307 7.48942 11.1036C7.76439 11.3316 8.16338 11.5059 8.55211 11.6346C8.2396 11.6485 7.90829 11.6397 7.59512 11.5764C6.29787 11.3141 5.04004 11.9438 5.04004 11.9438C5.04004 11.9438 6.30917 11.8158 7.41142 12.3168C7.7095 12.4523 8.09621 12.5161 8.47355 12.5431C8.20215 12.6211 7.91406 12.6822 7.62972 12.698C6.30823 12.7712 5.2498 13.6977 5.2498 13.6977C5.2498 13.6977 6.44562 13.2538 7.63862 13.4608C7.98606 13.521 8.41257 13.4759 8.80946 13.3962C8.54836 13.5601 8.26098 13.7134 7.96262 13.8121C6.7061 14.2278 5.92625 15.3985 5.92625 15.3985C5.92625 15.3985 6.96466 14.6578 8.17032 14.5461C8.52835 14.5129 8.93616 14.3522 9.30408 14.1671C9.09178 14.3998 8.84949 14.6302 8.58108 14.8083C7.47831 15.5402 7.03413 16.8748 7.03413 16.8748C7.03413 16.8748 7.84098 15.8869 8.97469 15.4617C9.28373 15.3459 9.60407 15.1137 9.89169 14.8636C9.75426 15.1136 9.59254 15.3636 9.40059 15.5783C8.5185 16.565 8.42597 17.9686 8.42597 17.9686C8.42597 17.9686 8.95706 16.8089 9.94659 16.1111C10.2351 15.9077 10.5046 15.5737 10.7289 15.2362C10.6603 15.5372 10.5657 15.8492 10.4246 16.1304C9.8308 17.3132 10.1081 18.6923 10.1081 18.6923C10.1081 18.6923 10.3179 17.4341 11.0907 16.5021C11.3187 16.2272 11.493 15.8282 11.6217 15.4394C11.6356 15.7519 11.6269 16.0833 11.5636 16.3965C11.3013 17.6937 11.931 18.9515 11.931 18.9515C11.931 18.9515 11.803 17.6824 12.304 16.5802C12.4395 16.2821 12.5033 15.8953 12.5302 15.518C12.6083 15.7894 12.6694 16.0775 12.6851 16.3618C12.7584 17.6833 13.6848 18.7417 13.6848 18.7417C13.6848 18.7417 13.241 17.5459 13.448 16.3529C13.5083 16.0055 13.4631 15.579 13.3834 15.1821C13.5473 15.4433 13.7006 15.7306 13.7993 16.0289C14.215 17.2854 15.3857 18.0653 15.3857 18.0653C15.3857 18.0653 14.6451 17.0268 14.5334 15.8212C14.5002 15.4632 14.3395 15.0553 14.1544 14.6874C14.3871 14.8997 14.6174 15.142 14.7956 15.4104C15.5274 16.5132 16.8621 16.9574 16.8621 16.9574C16.8621 16.9574 15.8742 16.1505 15.449 15.0168C15.3331 14.7078 15.101 14.3874 14.8509 14.0998C15.1009 14.2372 15.3509 14.3989 15.5656 14.5909C16.5523 15.4729 17.9559 15.5655 17.9559 15.5655C17.9559 15.5655 16.7962 15.0344 16.0984 14.0449C15.895 13.7565 15.561 13.4868 15.2235 13.2626C15.5244 13.3312 15.8365 13.4258 16.1177 13.5669C17.3004 14.1609 18.6795 13.8836 18.6795 13.8836ZM11.9975 15.207C10.2266 15.207 8.79094 13.7714 8.79094 12.0004C8.79094 10.2294 10.2266 8.7938 11.9975 8.7938C13.7685 8.7938 15.2041 10.2294 15.2041 12.0004C15.2041 13.7714 13.7685 15.207 11.9975 15.207Z" fill="#FFE15A"/>
<path d="M10.9804 10.7027C11.0488 10.6493 11.1168 10.5957 11.1861 10.5481C10.7317 10.3415 10.3228 10.2423 10.0359 10.1978C9.99024 10.2475 9.94904 10.3008 9.90723 10.3538C10.1888 10.4084 10.5673 10.5129 10.9804 10.7027Z" fill="#FFE15A"/>
<path d="M10.1738 10.0563C10.4821 10.0911 10.9284 10.1829 11.4235 10.3959C11.5065 10.3464 11.5891 10.3026 11.6718 10.2603C11.1372 10.0408 10.6545 9.959 10.3223 9.93378C10.2724 9.97424 10.2207 10.0123 10.1738 10.0563Z" fill="#FFE15A"/>
<path d="M11.7794 11.5426C11.7154 11.4821 11.6506 11.425 11.5853 11.371C10.985 11.9424 10.4597 12.7756 10.2227 13.9847C10.3089 14.0618 10.3944 14.1398 10.4901 14.2054C10.6643 12.9757 11.1749 12.127 11.7794 11.5426Z" fill="#FFE15A"/>
<path d="M11.5469 11.0115C11.615 10.9568 11.683 10.9018 11.7519 10.8529C11.6679 10.7993 11.5842 10.7523 11.5008 10.7063C11.4293 10.7553 11.3577 10.8026 11.2871 10.8577C11.3736 10.9053 11.46 10.9559 11.5469 11.0115Z" fill="#FFE15A"/>
<path d="M13.2061 10.8567C13.7208 11.3088 14.1912 11.9453 14.526 12.828C14.6119 12.5658 14.67 12.2911 14.67 12.0003C14.67 11.4483 14.5023 10.9355 14.2155 10.5096C13.95 10.5626 13.5936 10.6656 13.2061 10.8567Z" fill="#FFE15A"/>
<path d="M11.7988 11.1832C11.8659 11.2331 11.9316 11.2893 11.9975 11.3446C12.0634 11.2893 12.1291 11.2331 12.1961 11.1832C12.1301 11.1283 12.0644 11.0742 11.9975 11.0249C11.9306 11.0742 11.8648 11.1283 11.7988 11.1832Z" fill="#FFE15A"/>
<path d="M11.9974 10.4095C11.9135 10.452 11.8295 10.5 11.7451 10.5499C11.8291 10.5941 11.9129 10.6415 11.9974 10.6933C12.082 10.6415 12.1658 10.5942 12.2498 10.5499C12.1654 10.5 12.0813 10.452 11.9974 10.4095Z" fill="#FFE15A"/>
<path d="M9.93154 13.6761C10.2142 12.5217 10.7471 11.7308 11.3434 11.1868C11.26 11.1279 11.1769 11.074 11.0937 11.0239C10.5199 11.5286 10.0005 12.2578 9.68066 13.3084C9.7544 13.4386 9.83774 13.5606 9.93154 13.6761Z" fill="#FFE15A"/>
<path d="M10.7891 10.8567C10.4016 10.6656 10.0452 10.5626 9.77974 10.5096C9.49291 10.9355 9.3252 11.4483 9.3252 12.0003C9.3252 12.2911 9.38332 12.5658 9.46924 12.828C9.80402 11.9453 10.2744 11.3088 10.7891 10.8567Z" fill="#FFE15A"/>
<path d="M11.9972 10.1096C12.5657 9.87472 13.0901 9.79133 13.4631 9.7693C13.0419 9.49199 12.5391 9.32821 11.9972 9.32821C11.4552 9.32821 10.9525 9.49199 10.5312 9.7693C10.9042 9.79133 11.4287 9.87472 11.9972 10.1096Z" fill="#FFE15A"/>
<path d="M11.9974 11.7686C11.4643 12.3592 11.0245 13.2072 10.8818 14.4216C11.2223 14.5788 11.5978 14.6725 11.9974 14.6725C12.397 14.6725 12.7725 14.5788 13.1129 14.4216C12.9702 13.2072 12.5304 12.3592 11.9974 11.7686Z" fill="#FFE15A"/>
<path d="M12.901 11.0239C12.8178 11.074 12.7348 11.128 12.6514 11.1868C13.2477 11.7308 13.7805 12.5217 14.0632 13.6761C14.157 13.5606 14.2404 13.4386 14.3141 13.3083C13.9942 12.2577 13.4749 11.5286 12.901 11.0239Z" fill="#FFE15A"/>
<path d="M13.7725 13.9846C13.5354 12.7756 13.0102 11.9423 12.4099 11.371C12.3445 11.425 12.2798 11.4822 12.2158 11.5425C12.8203 12.127 13.3309 12.9757 13.5051 14.2053C13.6008 14.1398 13.6863 14.0618 13.7725 13.9846Z" fill="#FFE15A"/>
<path d="M12.3232 10.2603C12.406 10.3026 12.4886 10.3464 12.5715 10.3959C13.0667 10.1829 13.513 10.0911 13.8212 10.0563C13.7744 10.0123 13.7226 9.97424 13.6728 9.93378C13.3406 9.959 12.8578 10.0408 12.3232 10.2603Z" fill="#FFE15A"/>
<path d="M12.4481 11.0115C12.535 10.9559 12.6214 10.9053 12.7079 10.8577C12.6373 10.8027 12.5657 10.7553 12.4943 10.7064C12.4108 10.7523 12.3272 10.7993 12.2432 10.8529C12.3121 10.9018 12.38 10.9568 12.4481 11.0115Z" fill="#FFE15A"/>
<path d="M13.0142 10.7027C13.4273 10.5129 13.8058 10.4084 14.0874 10.3538C14.0456 10.3008 14.0044 10.2474 13.9588 10.1978C13.6718 10.2423 13.2629 10.3415 12.8086 10.5481C12.8778 10.5957 12.9459 10.6493 13.0142 10.7027Z" fill="#FFE15A"/>
</g>
<defs>
<clipPath id="clip0_72_2491">
<path d="M0 2C0 0.895432 0.895431 0 2 0H21.9998C23.1043 0 23.9998 0.895431 23.9998 2V21.9998C23.9998 23.1043 23.1043 23.9998 21.9998 23.9998H2C0.895432 23.9998 0 23.1043 0 21.9998V2Z" fill="white"/>
</clipPath>
</defs>
</svg>
