<svg width="24" height="24" viewBox="0 0 24 24" fill="none" xmlns="http://www.w3.org/2000/svg">
<g clip-path="url(#clip0_72_2615)">
<path d="M23.9988 15.9998H-0.000976562V23.9998H23.9988V15.9998Z" fill="#73AF00"/>
<path d="M23.9988 6.10352e-05H-0.000976562V8.00014H23.9988V6.10352e-05Z" fill="#464655"/>
<path d="M23.9978 8.00002H-0.00195312V16.0001H23.9978V8.00002Z" fill="#FF4B55"/>
<path d="M16.9046 7.24553C15.9188 5.55795 14.0931 4.42097 11.9977 4.42097C9.90231 4.42097 8.07659 5.558 7.09082 7.24553H16.9046Z" fill="#FF4B55"/>
<path d="M12.3245 1.73679C12.3245 2.02019 11.9982 3.78938 11.9982 3.78938C11.9982 3.78938 11.6719 2.02019 11.6719 1.73679C11.6719 1.45339 11.818 1.22366 11.9982 1.22366C12.1784 1.22361 12.3245 1.45339 12.3245 1.73679Z" fill="#FF4B55"/>
<path d="M18.1323 4.41276C17.9319 4.61315 16.4502 5.63342 16.4502 5.63342C16.4502 5.63342 17.4705 4.15167 17.6709 3.95128C17.8712 3.7509 18.137 3.69174 18.2644 3.81914C18.3919 3.9466 18.3327 4.21238 18.1323 4.41276Z" fill="#FF4B55"/>
<path d="M6.32486 3.95128C6.52525 4.15167 7.54552 5.63342 7.54552 5.63342C7.54552 5.63342 6.06377 4.61315 5.86338 4.41276C5.663 4.21237 5.60384 3.9466 5.73124 3.81919C5.8587 3.69174 6.12448 3.75089 6.32486 3.95128Z" fill="#FF4B55"/>
<path d="M9.10467 2.24739C9.21314 2.50923 9.5887 4.26862 9.5887 4.26862C9.5887 4.26862 8.61019 2.75898 8.50173 2.49714C8.39326 2.2353 8.44032 1.96713 8.60682 1.89818C8.77332 1.82922 8.99621 1.98555 9.10467 2.24739Z" fill="#FF4B55"/>
<path d="M15.4942 2.49714C15.3858 2.75898 14.4072 4.26862 14.4072 4.26862C14.4072 4.26862 14.7828 2.50923 14.8913 2.24739C14.9997 1.98555 15.2226 1.82922 15.3891 1.89818C15.5556 1.96713 15.6027 2.2353 15.4942 2.49714Z" fill="#FF4B55"/>
<path d="M10.6585 1.83851C10.7148 2.11624 10.7467 3.915 10.7467 3.915C10.7467 3.915 10.0752 2.24599 10.0189 1.96821C9.96256 1.69043 10.0601 1.43628 10.2367 1.40042C10.4133 1.36465 10.6022 1.56077 10.6585 1.83851Z" fill="#FF4B55"/>
<path d="M16.8825 3.30666C16.726 3.54291 15.4766 4.83735 15.4766 4.83735C15.4766 4.83735 16.1819 3.18235 16.3385 2.94611C16.4951 2.70986 16.7438 2.59909 16.894 2.69866C17.0441 2.79822 17.0391 3.07042 16.8825 3.30666Z" fill="#FF4B55"/>
<path d="M5.21879 5.20129C5.45504 5.35785 6.74948 6.60725 6.74948 6.60725C6.74948 6.60725 5.09448 5.90188 4.85823 5.74532C4.62198 5.58876 4.51122 5.34004 4.61078 5.18986C4.71034 5.03958 4.98254 5.04473 5.21879 5.20129Z" fill="#FF4B55"/>
<path d="M7.60433 2.97897C7.76268 3.21399 8.48047 4.86365 8.48047 4.86365C8.48047 4.86365 7.22137 3.57863 7.06307 3.34356C6.90473 3.10853 6.89756 2.83633 7.047 2.73564C7.19643 2.63495 7.44599 2.74389 7.60433 2.97897Z" fill="#FF4B55"/>
<path d="M19.1044 5.69169C18.8694 5.85003 17.2197 6.56782 17.2197 6.56782C17.2197 6.56782 18.5047 5.30873 18.7398 5.15043C18.9748 4.99209 19.247 4.98492 19.3477 5.13435C19.4484 5.28384 19.3395 5.5334 19.1044 5.69169Z" fill="#FF4B55"/>
<path d="M13.9163 1.95358C13.862 2.23173 13.2031 3.90576 13.2031 3.90576C13.2031 3.90576 13.2215 2.10681 13.2757 1.82866C13.33 1.55051 13.5173 1.35298 13.6942 1.38743C13.8711 1.42193 13.9706 1.67543 13.9163 1.95358Z" fill="#FF4B55"/>
<path d="M14.1111 2.00191C14.0288 2.27308 13.8271 4.06083 13.8271 4.06083C13.8271 4.06083 14.6533 2.46269 14.7356 2.19147C14.8179 1.92026 14.7448 1.65799 14.5724 1.60568C14.3999 1.55337 14.1934 1.73074 14.1111 2.00191Z" fill="#FF4B55"/>
<path d="M7.7756 2.8756C7.90914 3.12559 9.03066 4.53225 9.03066 4.53225C9.03066 4.53225 8.48476 2.81804 8.35122 2.56806C8.21767 2.31808 7.98053 2.1843 7.82158 2.26924C7.66268 2.35417 7.64205 2.62567 7.7756 2.8756Z" fill="#FF4B55"/>
<path d="M19.2074 5.86339C18.9574 5.99694 17.5508 7.11846 17.5508 7.11846C17.5508 7.11846 19.265 6.57256 19.515 6.43901C19.7649 6.30547 19.8987 6.06833 19.8138 5.90938C19.7289 5.75042 19.4574 5.72985 19.2074 5.86339Z" fill="#FF4B55"/>
<path d="M17.0434 3.42573C16.8636 3.64478 15.9932 5.21924 15.9932 5.21924C15.9932 5.21924 17.368 4.05891 17.5478 3.83987C17.7276 3.62082 17.7605 3.35054 17.6212 3.23622C17.4819 3.1218 17.2232 3.20669 17.0434 3.42573Z" fill="#FF4B55"/>
<path d="M5.33808 5.04009C5.55712 5.2199 7.13159 6.09031 7.13159 6.09031C7.13159 6.09031 5.97126 4.71548 5.75221 4.53567C5.53317 4.35586 5.26289 4.32295 5.14856 4.46227C5.03419 4.60158 5.11903 4.86028 5.33808 5.04009Z" fill="#FF4B55"/>
<path d="M10.8564 1.80874C10.8842 2.09078 11.382 3.81956 11.382 3.81956C11.382 3.81956 11.5336 2.02694 11.5059 1.7449C11.4782 1.46285 11.3103 1.24849 11.131 1.26612C10.9517 1.28374 10.8287 1.5267 10.8564 1.80874Z" fill="#FF4B55"/>
<path d="M12.5035 1.7457C12.4754 2.0277 12.6242 3.8206 12.6242 3.8206C12.6242 3.8206 13.1248 2.09257 13.1529 1.81057C13.1811 1.52858 13.0586 1.28544 12.8792 1.26753C12.6999 1.24958 12.5317 1.4637 12.5035 1.7457Z" fill="#FF4B55"/>
<path d="M6.4579 3.8311C6.63739 4.05043 8.01039 5.21297 8.01039 5.21297C8.01039 5.21297 7.14246 3.63714 6.96298 3.41781C6.78349 3.19848 6.52493 3.11322 6.38544 3.22736C6.24594 3.3415 6.27842 3.61178 6.4579 3.8311Z" fill="#FF4B55"/>
<path d="M18.252 4.54552C18.0327 4.725 16.8701 6.098 16.8701 6.098C16.8701 6.098 18.4459 5.23007 18.6653 5.05059C18.8846 4.87111 18.9699 4.61255 18.8557 4.47305C18.7416 4.3336 18.4713 4.36604 18.252 4.54552Z" fill="#FF4B55"/>
<path d="M15.6562 2.57383C15.5222 2.82357 14.9736 4.53693 14.9736 4.53693C14.9736 4.53693 16.0974 3.13201 16.2313 2.88226C16.3653 2.63251 16.3451 2.36097 16.1863 2.2758C16.0274 2.19063 15.7901 2.32408 15.6562 2.57383Z" fill="#FF4B55"/>
<path d="M4.4868 6.42719C4.73654 6.56116 6.4499 7.10973 6.4499 7.10973C6.4499 7.10973 5.04498 5.98601 4.79523 5.85204C4.54548 5.71807 4.27394 5.73828 4.18877 5.89709C4.10364 6.0559 4.23705 6.29327 4.4868 6.42719Z" fill="#FF4B55"/>
<path d="M9.27274 2.18721C9.35463 2.45852 10.1783 4.05798 10.1783 4.05798C10.1783 4.05798 9.97942 2.26995 9.89753 1.99864C9.81564 1.72733 9.60939 1.54958 9.43685 1.60166C9.26435 1.65373 9.19085 1.91586 9.27274 2.18721Z" fill="#FF4B55"/>
</g>
<defs>
<clipPath id="clip0_72_2615">
<path d="M0 2C0 0.895432 0.895431 0 2 0H21.9998C23.1043 0 23.9998 0.895431 23.9998 2V21.9998C23.9998 23.1043 23.1043 23.9998 21.9998 23.9998H2C0.895432 23.9998 0 23.1043 0 21.9998V2Z" fill="white"/>
</clipPath>
</defs>
</svg>
