<svg width="24" height="24" viewBox="0 0 24 24" fill="none" xmlns="http://www.w3.org/2000/svg">
<g clip-path="url(#clip0_72_2652)">
<path d="M23.9979 6.10352e-05H11.998V23.9998H23.9979V6.10352e-05Z" fill="#FF4B55"/>
<path d="M11.9979 6.10352e-05H-0.00195312V23.9998H11.9979V6.10352e-05Z" fill="#F5F5F5"/>
<path d="M5.35737 1.47375V3.16363C5.45041 3.16728 5.55424 3.20952 5.64054 3.29581C5.72683 3.38211 5.76911 3.48593 5.77272 3.57898H7.46264V5.26318H5.77272C5.76907 5.35623 5.72683 5.46006 5.64054 5.54635C5.55429 5.63265 5.45046 5.67488 5.35737 5.67854V7.36846H3.67316V5.67854C3.58012 5.67493 3.47629 5.63265 3.39 5.54635C3.3037 5.4601 3.26147 5.35628 3.25781 5.26318H1.56794V3.57898H3.25786C3.26147 3.48593 3.30375 3.38211 3.39004 3.29581C3.47629 3.20956 3.58012 3.16728 3.67321 3.16363V1.47375H5.35737ZM5.56793 1.26319H5.35741H3.67321H3.4627V1.4737V2.99783C3.38231 3.03078 3.30693 3.08117 3.24122 3.14689C3.1755 3.21266 3.12506 3.28803 3.09211 3.36842H1.56794H1.35742V3.57893V5.26314V5.47365H1.56794H3.09206C3.12501 5.55404 3.17545 5.62946 3.24117 5.69518C3.30689 5.7609 3.38226 5.81129 3.46265 5.84424V7.36837V7.57888H3.67316H5.35737H5.56788V7.36837V5.84424C5.64827 5.81129 5.72369 5.76085 5.78941 5.69513C5.85513 5.62946 5.90552 5.55404 5.93847 5.47365H7.4626H7.67311V5.26314V3.57893V3.36847H7.4626H5.93847C5.90552 3.28808 5.85508 3.2127 5.78936 3.14694C5.72365 3.08122 5.64827 3.03083 5.56788 2.99788V1.47375L5.56793 1.26319Z" fill="#FF4B55"/>
<path d="M7.46307 3.57898H5.35779V1.47375H3.67364V3.57898H1.56836V5.26318H3.67364V7.36841H5.35779V5.26318H7.46307V3.57898Z" fill="#CDCDCD"/>
<path d="M4.51398 5.26348C4.97906 5.26348 5.35608 4.88646 5.35608 4.42138C5.35608 3.9563 4.97906 3.57928 4.51398 3.57928C4.0489 3.57928 3.67188 3.9563 3.67188 4.42138C3.67188 4.88646 4.0489 5.26348 4.51398 5.26348Z" fill="#B4A08C"/>
<path d="M3.75922 5.17603C3.61298 5.02979 3.41144 4.99422 3.30908 5.09658C3.20671 5.19895 3.24228 5.40048 3.38853 5.54673C3.53477 5.69297 3.7363 5.72854 3.83867 5.62617C3.94103 5.52381 3.90546 5.32228 3.75922 5.17603Z" fill="#B4A08C"/>
<path d="M5.63939 5.54654C5.78564 5.4003 5.82121 5.19877 5.71884 5.0964C5.61648 4.99404 5.41494 5.02961 5.2687 5.17585C5.12246 5.32209 5.08689 5.52363 5.18925 5.62599C5.29162 5.72836 5.49315 5.69279 5.63939 5.54654Z" fill="#B4A08C"/>
<path d="M5.2691 3.66703C5.41534 3.81327 5.61688 3.84884 5.71924 3.74648C5.82161 3.64411 5.78604 3.44258 5.6398 3.29633C5.49355 3.15009 5.29202 3.11452 5.18965 3.21688C5.08729 3.31925 5.12286 3.52078 5.2691 3.66703Z" fill="#B4A08C"/>
<path d="M3.3899 3.29628C3.24366 3.44252 3.20809 3.64405 3.31045 3.74642C3.41282 3.84878 3.61435 3.81321 3.7606 3.66697C3.90684 3.52073 3.94241 3.31919 3.84004 3.21683C3.73768 3.11446 3.53614 3.15003 3.3899 3.29628Z" fill="#B4A08C"/>
<path d="M4.51407 5.57393C3.8784 5.57393 3.36133 5.05686 3.36133 4.42119C3.36133 3.78552 3.8784 3.26845 4.51407 3.26845C5.14973 3.26845 5.66681 3.78552 5.66681 4.42119C5.66681 5.05686 5.14978 5.57393 4.51407 5.57393ZM4.51407 3.37369C3.93657 3.37369 3.46661 3.84365 3.46661 4.42114C3.46661 4.99864 3.93657 5.4686 4.51407 5.4686C5.09156 5.4686 5.56153 4.99864 5.56153 4.42114C5.56153 3.84365 5.09161 3.37369 4.51407 3.37369Z" fill="#B4A08C"/>
</g>
<defs>
<clipPath id="clip0_72_2652">
<path d="M0 2C0 0.895432 0.895431 0 2 0H21.9998C23.1043 0 23.9998 0.895431 23.9998 2V21.9998C23.9998 23.1043 23.1043 23.9998 21.9998 23.9998H2C0.895432 23.9998 0 23.1043 0 21.9998V2Z" fill="white"/>
</clipPath>
</defs>
</svg>
