<svg width="24" height="24" viewBox="0 0 24 24" fill="none" xmlns="http://www.w3.org/2000/svg">
<g clip-path="url(#clip0_72_2677)">
<path d="M23.9968 6.10352e-05H-0.00292969V23.9998H23.9968V6.10352e-05Z" fill="#73AF00"/>
<path d="M16.4491 10.546C16.4381 10.4753 16.3355 10.4788 16.3274 10.5499C16.0806 12.725 14.2356 14.4149 11.9938 14.4149C9.75267 14.4149 7.90708 12.7251 7.6601 10.55C7.65204 10.4789 7.54952 10.4754 7.53841 10.5461C7.50415 10.7649 7.48535 10.9886 7.48535 11.2171C7.48535 13.7046 9.50424 15.7241 11.9937 15.7241C14.484 15.7241 16.5021 13.7046 16.5021 11.2171C16.5022 10.9886 16.4834 10.7648 16.4491 10.546Z" fill="#FFE15A"/>
<path d="M11.9383 8.68447L11.6123 9.66204L10.5819 9.67001C10.5254 9.67043 10.502 9.74252 10.5474 9.77609L11.3764 10.3882L11.0656 11.3707C11.0485 11.4246 11.1099 11.4691 11.1558 11.4363L11.9941 10.837L12.8325 11.4362C12.8784 11.4691 12.9398 11.4245 12.9227 11.3707L12.6119 10.3882L13.4409 9.77604C13.4863 9.74248 13.4629 9.67039 13.4064 9.66996L12.376 9.66199L12.0499 8.68443C12.032 8.63085 11.9562 8.63085 11.9383 8.68447Z" fill="#FFE15A"/>
</g>
<defs>
<clipPath id="clip0_72_2677">
<path d="M0 2C0 0.895432 0.895431 0 2 0H21.9998C23.1043 0 23.9998 0.895431 23.9998 2V21.9998C23.9998 23.1043 23.1043 23.9998 21.9998 23.9998H2C0.895432 23.9998 0 23.1043 0 21.9998V2Z" fill="white"/>
</clipPath>
</defs>
</svg>
