<svg width="24" height="24" viewBox="0 0 24 24" fill="none" xmlns="http://www.w3.org/2000/svg">
<g clip-path="url(#clip0_72_2687)">
<path d="M23.9968 6.10352e-05H-0.00292969V23.9998H23.9968V6.10352e-05Z" fill="#4173CD"/>
<path d="M9.17212 18.3156C9.11906 19.2591 9.74362 19.3754 10.082 19.3805C10.4204 19.3856 10.9331 19.5343 11.4099 19.6317C11.8867 19.7291 12.0405 19.3343 12.0405 19.3343C12.3225 19.7034 12.5976 19.5907 12.5976 19.5907C12.8232 19.3651 13.4248 19.2523 13.6606 19.2369C13.8965 19.2215 13.8401 18.8985 13.8401 18.8985C14.0872 18.7611 14.2544 18.6035 14.3739 18.4444C14.379 18.4467 14.3835 18.4503 14.3886 18.4525C14.7937 18.6268 15.1064 18.2576 15.1731 18.1192C15.2143 18.0336 15.2898 17.9957 15.3437 17.9773L15.3628 18.191C15.5371 17.9398 15.9165 18.032 15.9165 18.032C15.5269 17.4322 15.1321 17.709 15.1321 17.709L15.285 17.8543C15.0529 17.9713 14.9151 18.4345 14.5732 18.2986C14.544 18.287 14.5193 18.2704 14.4933 18.2551C14.6313 17.9814 14.6358 17.7233 14.5989 17.5757C14.5322 17.3091 14.1221 17.2476 13.9221 17.5193C13.7823 17.7093 13.8708 18.0027 14.0733 18.2227C13.9664 18.2974 13.8298 18.3667 13.6504 18.4166C13.0966 18.5703 12.2661 17.8423 11.6919 17.8116C11.1176 17.7808 10.6152 18.2628 10.3281 18.5704C10.041 18.878 9.65573 18.6056 9.66159 18.4063M14.199 17.627C14.3067 17.5809 14.3528 17.663 14.3682 17.7962C14.3746 17.8521 14.3439 17.9435 14.2687 18.0417C14.15 17.8593 14.1306 17.6564 14.199 17.627Z" fill="#73AF00"/>
<path d="M10.7974 19.4537L10.4912 19.6113L10.5768 19.3996L10.7974 19.4537Z" fill="#F5F5F5"/>
<path d="M10.5115 19.3807L10.2285 19.5263L10.3076 19.3307L10.5115 19.3807Z" fill="#F5F5F5"/>
<path d="M10.2483 19.3275L10.0391 19.4454L10.0931 19.2957L10.2483 19.3275Z" fill="#F5F5F5"/>
<path d="M12.5969 19.5909L12.2637 19.6775L12.3935 19.4898L12.5969 19.5909Z" fill="#F5F5F5"/>
<path d="M12.3651 19.4675L12.0547 19.5379L12.1801 19.3682L12.3651 19.4675Z" fill="#F5F5F5"/>
<path d="M12.1496 19.3539L11.9365 19.4647L11.9956 19.3169L12.1496 19.3539Z" fill="#F5F5F5"/>
<path d="M7.73476 7.98273C7.6695 8.02864 7.66527 8.13503 7.7253 8.22036C7.78533 8.3057 7.88689 8.33765 7.95215 8.29174C8.01741 8.24583 8.02165 8.13944 7.96162 8.05411C7.90159 7.96878 7.80002 7.93682 7.73476 7.98273Z" fill="#F5F5F5"/>
<path d="M16.0404 8.29263C16.1057 8.33854 16.2072 8.30659 16.2673 8.22126C16.3273 8.13592 16.3231 8.02953 16.2578 7.98362C16.1926 7.93771 16.091 7.96967 16.031 8.055C15.9709 8.14033 15.9752 8.24672 16.0404 8.29263Z" fill="#F5F5F5"/>
<path d="M13.9778 11.2627V14.9425C13.9778 16.0351 13.0889 16.924 11.9963 16.924C10.9038 16.924 10.0149 16.0351 10.0149 14.9425V11.2627H13.9778ZM15.11 9.84746H8.88268C8.72636 9.84746 8.59961 9.97421 8.59961 10.1305V14.9425C8.59961 16.8185 10.1204 18.3393 11.9963 18.3393C13.8723 18.3393 15.393 16.8185 15.393 14.9425V10.1305C15.393 9.97421 15.2663 9.84746 15.11 9.84746Z" fill="#F5F5F5"/>
<path d="M10.0129 11.2626H8.59766V10.2223C8.59766 10.0152 8.76556 9.84734 8.97265 9.84734H10.0129V11.2626Z" fill="#FF4B55"/>
<path d="M12.7023 9.84743H11.2871V11.2626H12.7023V9.84743Z" fill="#FF4B55"/>
<path d="M10.0128 12.6777H8.59766V14.0929H10.0128V12.6777Z" fill="#FF4B55"/>
<path d="M15.3907 12.6777H13.9756V14.0929H15.3907V12.6777Z" fill="#FF4B55"/>
<path d="M15.3909 11.2626H13.9756V9.84734H15.0159C15.223 9.84734 15.3909 10.0152 15.3909 10.2223V11.2626Z" fill="#FF4B55"/>
<path d="M13.1983 18.1154L12.6538 16.8085C12.4471 16.8819 12.2257 16.9238 11.9942 16.9238C11.7626 16.9238 11.5413 16.8818 11.3345 16.8085L10.79 18.1154C11.1648 18.2577 11.5695 18.3391 11.9942 18.3391C12.4188 18.3391 12.8235 18.2577 13.1983 18.1154Z" fill="#FF4B55"/>
<path d="M9.48933 17.23L10.5963 16.3444C10.3162 16.0649 10.1206 15.7018 10.0471 15.2967L8.68262 15.6866C8.81396 16.2735 9.09769 16.8013 9.48933 17.23Z" fill="#FF4B55"/>
<path d="M15.3063 15.6866L13.9418 15.2967C13.8683 15.7018 13.6727 16.0649 13.3926 16.3444L14.4996 17.23C14.8913 16.8013 15.175 16.2735 15.3063 15.6866Z" fill="#FF4B55"/>
<path d="M9.59164 10.1306H9.02539V10.9799H9.59164V10.1306Z" fill="#FFE15A"/>
<path d="M9.59164 12.9608H9.02539V13.8102H9.59164V12.9608Z" fill="#FFE15A"/>
<path d="M9.87484 15.7916H9.30859V16.641H9.87484V15.7916Z" fill="#FFE15A"/>
<path d="M14.6873 15.7916H14.1211V16.641H14.6873V15.7916Z" fill="#FFE15A"/>
<path d="M14.9696 10.1306H14.4033V10.9799H14.9696V10.1306Z" fill="#FFE15A"/>
<path d="M9.59164 11.5368H9.02539V12.3862H9.59164V11.5368Z" fill="#FF4B55"/>
<path d="M14.9696 11.5368H14.4033V12.3862H14.9696V11.5368Z" fill="#FF4B55"/>
<path d="M9.59164 14.3436H9.02539V15.193H9.59164V14.3436Z" fill="#FF4B55"/>
<path d="M10.8123 16.8472H10.2461V17.6966H10.8123V16.8472Z" fill="#FF4B55"/>
<path d="M13.7498 16.8472H13.1836V17.6966H13.7498V16.8472Z" fill="#FF4B55"/>
<path d="M14.9696 14.3436H14.4033V15.193H14.9696V14.3436Z" fill="#FF4B55"/>
<path d="M12.2801 10.1306H11.7139V10.98H12.2801V10.1306Z" fill="#FFE15A"/>
<path d="M10.9373 10.1306H10.3711V10.9799H10.9373V10.1306Z" fill="#FF4B55"/>
<path d="M13.6024 10.1306H13.0361V10.9799H13.6024V10.1306Z" fill="#FF4B55"/>
<path d="M14.9657 12.9609H14.3994V13.8103H14.9657V12.9609Z" fill="#FFE15A"/>
<path d="M12.2762 17.2068H11.71V18.0562H12.2762V17.2068Z" fill="#FFE15A"/>
<path d="M11.9936 11.8023C12.5399 11.8023 12.9843 12.2468 12.9843 12.793C12.9843 13.3393 12.5399 13.7837 11.9936 13.7837C11.4473 13.7837 11.0029 13.3393 11.0029 12.793C11.0029 12.2468 11.4473 11.8023 11.9936 11.8023ZM11.9936 11.6608C11.3683 11.6608 10.8613 12.1677 10.8613 12.793C10.8613 13.4183 11.3682 13.9253 11.9936 13.9253C12.6189 13.9253 13.1258 13.4184 13.1258 12.793C13.1258 12.1677 12.6189 11.6608 11.9936 11.6608Z" fill="#FFE15A"/>
<path d="M11.8293 12.7132C11.5485 12.7132 11.3734 12.7922 11.2636 12.8905C11.3087 12.6682 11.4025 12.4302 11.5993 12.4302C11.6384 12.4302 11.6701 12.3984 11.6701 12.3594C11.6701 12.3204 11.6385 12.2886 11.5993 12.2886C11.4042 12.2886 11.2827 12.4246 11.2067 12.5951C11.16 11.6669 11.0159 11.6634 10.9625 11.6634C10.9234 11.6634 10.8917 11.6952 10.8917 11.7342C10.8917 11.7681 10.9154 11.7964 10.9474 11.8033C10.9769 11.8386 11.0022 11.9577 11.0227 12.1227C10.9311 11.9282 10.7981 11.7872 10.6027 11.7872C10.5636 11.7872 10.5319 11.819 10.5319 11.858C10.5319 11.897 10.5636 11.9288 10.6027 11.9288C10.796 11.9288 10.9146 12.1645 10.9854 12.4478C10.8496 12.2541 10.6446 12.1118 10.3432 12.1118C10.3041 12.1118 10.2725 12.1436 10.2725 12.1826C10.2725 12.2216 10.3041 12.2533 10.3432 12.2533C10.6563 12.2533 10.836 12.4339 10.9396 12.6426C10.8181 12.5398 10.6451 12.4656 10.3963 12.4656C10.3572 12.4656 10.3255 12.4974 10.3255 12.5364C10.3255 12.5754 10.3572 12.6072 10.3963 12.6072C11.0697 12.6072 11.0802 13.2408 11.0803 13.2679C11.0803 13.2782 11.0873 13.2854 11.0913 13.2942C11.0948 13.3019 11.095 13.3114 11.1009 13.3174L11.1011 13.3176C11.1139 13.3304 11.1315 13.3384 11.1511 13.3384H11.1512C11.1585 13.3384 11.1632 13.3327 11.1698 13.3306C11.1915 13.3239 11.2063 13.3092 11.2135 13.2878C11.2158 13.2809 11.2217 13.2759 11.2218 13.2682C11.2221 13.2513 11.234 12.8549 11.8293 12.8549C11.8684 12.8549 11.9 12.8232 11.9 12.7842C11.9 12.7452 11.8684 12.7132 11.8293 12.7132Z" fill="#73AF00"/>
<path d="M12.1772 12.7132C12.458 12.7132 12.6331 12.7922 12.7429 12.8905C12.6978 12.6682 12.604 12.4302 12.4071 12.4302C12.3681 12.4302 12.3364 12.3984 12.3364 12.3594C12.3364 12.3204 12.368 12.2886 12.4071 12.2886C12.6023 12.2886 12.7237 12.4246 12.7998 12.5951C12.8465 11.6669 12.9906 11.6634 13.044 11.6634C13.0831 11.6634 13.1148 11.6952 13.1148 11.7342C13.1148 11.7681 13.091 11.7964 13.0591 11.8033C13.0295 11.8386 13.0043 11.9577 12.9837 12.1227C13.0753 11.9282 13.2084 11.7872 13.4038 11.7872C13.4429 11.7872 13.4746 11.819 13.4746 11.858C13.4746 11.897 13.4429 11.9288 13.4038 11.9288C13.2105 11.9288 13.0919 12.1645 13.0211 12.4478C13.1569 12.2541 13.3618 12.1118 13.6632 12.1118C13.7023 12.1118 13.734 12.1436 13.734 12.1826C13.734 12.2216 13.7024 12.2533 13.6632 12.2533C13.3502 12.2533 13.1705 12.4339 13.0669 12.6426C13.1884 12.5398 13.3614 12.4656 13.6102 12.4656C13.6493 12.4656 13.681 12.4974 13.681 12.5364C13.681 12.5754 13.6493 12.6072 13.6102 12.6072C12.9368 12.6072 12.9263 13.2408 12.9262 13.2679C12.9261 13.2782 12.9192 13.2854 12.9152 13.2942C12.9117 13.3019 12.9115 13.3114 12.9056 13.3174L12.9054 13.3176C12.8926 13.3304 12.875 13.3384 12.8554 13.3384H12.8553C12.848 13.3384 12.8433 13.3327 12.8367 13.3306C12.815 13.3239 12.8002 13.3092 12.793 13.2878C12.7907 13.2809 12.7848 13.2759 12.7847 13.2682C12.7844 13.2513 12.7725 12.8549 12.1772 12.8549C12.1381 12.8549 12.1064 12.8232 12.1064 12.7842C12.1064 12.7452 12.1381 12.7132 12.1772 12.7132Z" fill="#73AF00"/>
<path d="M10.9043 13.076C11.0306 13.5635 11.4696 13.9252 11.9965 13.9252C12.5235 13.9252 12.9625 13.5635 13.0887 13.076H10.9043Z" fill="#FF4B55"/>
<path d="M11.9932 13.9252C12.5201 13.9252 12.9591 13.5636 13.0854 13.0761H11.9932V13.9252Z" fill="#FFE15A"/>
<path d="M11.9936 14.3676C12.5399 14.3676 12.9843 14.812 12.9843 15.3582C12.9843 15.9045 12.5399 16.3489 11.9936 16.3489C11.4473 16.3489 11.0029 15.9045 11.0029 15.3582C11.0029 14.812 11.4473 14.3676 11.9936 14.3676ZM11.9936 14.226C11.3683 14.226 10.8613 14.7329 10.8613 15.3583C10.8613 15.9836 11.3682 16.4905 11.9936 16.4905C12.6189 16.4905 13.1258 15.9836 13.1258 15.3583C13.1258 14.7329 12.6189 14.226 11.9936 14.226Z" fill="#FFE15A"/>
<path d="M11.8293 15.2786C11.5485 15.2786 11.3734 15.3575 11.2636 15.4558C11.3087 15.2336 11.4025 14.9955 11.5993 14.9955C11.6384 14.9955 11.6701 14.9638 11.6701 14.9248C11.6701 14.8858 11.6385 14.854 11.5993 14.854C11.4042 14.854 11.2827 14.99 11.2067 15.1604C11.16 14.2322 11.0159 14.2287 10.9625 14.2287C10.9234 14.2287 10.8917 14.2605 10.8917 14.2995C10.8917 14.3335 10.9154 14.3617 10.9474 14.3686C10.9769 14.4039 11.0022 14.523 11.0227 14.688C10.9311 14.4936 10.7981 14.3526 10.6027 14.3526C10.5636 14.3526 10.5319 14.3843 10.5319 14.4233C10.5319 14.4623 10.5636 14.4941 10.6027 14.4941C10.796 14.4941 10.9146 14.7299 10.9854 15.0131C10.8496 14.8195 10.6446 14.6771 10.3432 14.6771C10.3041 14.6771 10.2725 14.7089 10.2725 14.7479C10.2725 14.7869 10.3041 14.8187 10.3432 14.8187C10.6563 14.8187 10.836 14.9992 10.9396 15.2079C10.8181 15.1051 10.6451 15.031 10.3963 15.031C10.3572 15.031 10.3255 15.0628 10.3255 15.1018C10.3255 15.1407 10.3572 15.1725 10.3963 15.1725C11.0697 15.1725 11.0802 15.8061 11.0803 15.8332C11.0803 15.8435 11.0873 15.8507 11.0913 15.8595C11.0948 15.8673 11.095 15.8768 11.1009 15.8827L11.1011 15.883C11.1139 15.8958 11.1315 15.9037 11.1511 15.9037H11.1512C11.1585 15.9037 11.1632 15.898 11.1698 15.896C11.1915 15.8892 11.2063 15.8746 11.2135 15.8532C11.2158 15.8463 11.2217 15.8412 11.2218 15.8335C11.2221 15.8166 11.234 15.4203 11.8293 15.4203C11.8684 15.4203 11.9 15.3885 11.9 15.3495C11.9 15.3105 11.8684 15.2786 11.8293 15.2786Z" fill="#73AF00"/>
<path d="M12.1772 15.2786C12.458 15.2786 12.6331 15.3575 12.7429 15.4558C12.6978 15.2336 12.604 14.9955 12.4071 14.9955C12.3681 14.9955 12.3364 14.9638 12.3364 14.9248C12.3364 14.8858 12.368 14.854 12.4071 14.854C12.6023 14.854 12.7237 14.99 12.7998 15.1604C12.8465 14.2322 12.9906 14.2287 13.044 14.2287C13.0831 14.2287 13.1148 14.2605 13.1148 14.2995C13.1148 14.3335 13.091 14.3617 13.0591 14.3686C13.0295 14.4039 13.0043 14.523 12.9837 14.688C13.0753 14.4936 13.2084 14.3526 13.4038 14.3526C13.4429 14.3526 13.4746 14.3843 13.4746 14.4233C13.4746 14.4623 13.4429 14.4941 13.4038 14.4941C13.2105 14.4941 13.0919 14.7299 13.0211 15.0131C13.1569 14.8195 13.3618 14.6771 13.6632 14.6771C13.7023 14.6771 13.734 14.7089 13.734 14.7479C13.734 14.7869 13.7024 14.8187 13.6632 14.8187C13.3502 14.8187 13.1705 14.9992 13.0669 15.2079C13.1884 15.1051 13.3614 15.031 13.6102 15.031C13.6493 15.031 13.681 15.0628 13.681 15.1018C13.681 15.1407 13.6493 15.1725 13.6102 15.1725C12.9368 15.1725 12.9263 15.8061 12.9262 15.8332C12.9261 15.8435 12.9192 15.8507 12.9152 15.8595C12.9117 15.8673 12.9115 15.8768 12.9056 15.8827L12.9054 15.883C12.8926 15.8958 12.875 15.9037 12.8554 15.9037H12.8553C12.848 15.9037 12.8433 15.898 12.8367 15.896C12.815 15.8892 12.8002 15.8746 12.793 15.8532C12.7907 15.8463 12.7848 15.8412 12.7847 15.8335C12.7844 15.8166 12.7725 15.4203 12.1772 15.4203C12.1381 15.4203 12.1064 15.3885 12.1064 15.3495C12.1064 15.3105 12.1381 15.2786 12.1772 15.2786Z" fill="#73AF00"/>
<path d="M10.9043 15.6413C11.0306 16.1288 11.4696 16.4904 11.9965 16.4904C12.5235 16.4904 12.9625 16.1288 13.0887 15.6413H10.9043Z" fill="#FF4B55"/>
<path d="M11.9971 16.4904C12.524 16.4904 12.963 16.1288 13.0893 15.6413H11.9971V16.4904Z" fill="#FFE15A"/>
<path d="M8.03545 10.6966V10.1305H6.62012V10.6966H6.90319V16.9239H6.62012V17.4901H6.90319H7.75237H8.03545V16.9239H7.75237V10.6966H8.03545Z" fill="#F5F5F5"/>
<path d="M17.3762 10.6966V10.1305H15.9609V10.6966H16.244V16.9239H15.9609V17.4901H16.244H17.0932H17.3762V16.9239H17.0932V10.6966H17.3762Z" fill="#F5F5F5"/>
<path d="M15.3399 9.84738H8.65254C8.46692 9.84738 8.31641 9.69686 8.31641 9.51124V9.05126C8.31641 8.86564 8.46692 8.71512 8.65254 8.71512H15.3398C15.5254 8.71512 15.6759 8.86564 15.6759 9.05126V9.51124C15.6759 9.69691 15.5255 9.84738 15.3399 9.84738Z" fill="#FFE15A"/>
<path d="M12.2954 9.49356H11.6983C11.6287 9.49356 11.5723 9.43712 11.5723 9.36751V9.19502C11.5723 9.12541 11.6287 9.06897 11.6983 9.06897H12.2954C12.365 9.06897 12.4214 9.12541 12.4214 9.19502V9.36751C12.4214 9.43712 12.365 9.49356 12.2954 9.49356Z" fill="#FF4B55"/>
<path d="M14.4224 9.49368H13.8253C13.7557 9.49368 13.6992 9.43724 13.6992 9.36764V9.19514C13.6992 9.12553 13.7557 9.06909 13.8253 9.06909H14.4224C14.492 9.06909 14.5484 9.12553 14.5484 9.19514V9.36764C14.5484 9.43724 14.492 9.49368 14.4224 9.49368Z" fill="#73AF00"/>
<path d="M10.1763 9.49368H9.57917C9.50956 9.49368 9.45312 9.43724 9.45312 9.36764V9.19514C9.45312 9.12553 9.50956 9.06909 9.57917 9.06909H10.1763C10.2459 9.06909 10.3023 9.12553 10.3023 9.19514V9.36764C10.3023 9.43724 10.2459 9.49368 10.1763 9.49368Z" fill="#73AF00"/>
<path d="M15.9712 7.54161L15.5585 7.68313L15.5983 8.07692C15.1424 8.59493 14.9136 8.62835 14.8194 8.59554C14.7029 8.55527 14.6491 8.3891 14.6274 8.26165L14.7977 8.43199C15.6469 7.58281 15.1604 6.33558 15.1604 6.33558C14.9216 6.37983 14.8154 6.60093 14.8154 6.60093C14.5942 6.58326 14.3643 6.60093 14.3643 6.60093C14.3466 6.79556 14.4173 7.06977 14.4173 7.06977C13.9319 7.16985 13.7321 7.43296 13.7321 7.43296C13.8153 7.66606 14.0812 7.86589 14.0812 7.86589C14.0016 8.06051 14.0989 8.29048 14.0989 8.29048C14.2204 8.29048 14.3255 8.25387 14.3998 8.21792C14.0828 8.61312 13.9336 8.62258 13.8829 8.60355C13.7298 8.54674 13.6909 8.09436 13.7124 7.79127C13.7146 7.76033 13.6962 7.73141 13.6672 7.7202C13.6384 7.70942 13.6054 7.71828 13.586 7.74261L13.3419 8.05381C12.3233 6.6966 13.1287 5.88446 13.1287 5.88446V5.31845H12.8456V5.60152H12.603V5.31845H12.3603V5.60152H12.1177V5.31845H11.8751V5.60152H11.6325V5.31845H11.3899V5.60152H11.1472V5.31845H10.8642V5.88455C10.8642 5.88455 11.6696 6.6967 10.6509 8.0539L10.4068 7.7427C10.3874 7.71809 10.3544 7.709 10.3257 7.7203C10.2967 7.7315 10.2783 7.76037 10.2805 7.79136C10.302 8.09445 10.2633 8.54669 10.1099 8.60365C10.0591 8.62207 9.90961 8.61293 9.59199 8.21665C9.66647 8.25307 9.77245 8.29062 9.8955 8.29062C9.8955 8.29062 9.99281 8.06065 9.91317 7.86603C9.91317 7.86603 10.179 7.6662 10.2623 7.4331C10.2623 7.4331 10.0625 7.16999 9.57703 7.06991C9.57703 7.06991 9.64781 6.7957 9.63009 6.60107C9.63009 6.60107 9.40013 6.5834 9.17897 6.60107C9.17897 6.60107 9.07285 6.37992 8.83398 6.33572C8.83398 6.33572 8.34747 7.58295 9.19665 8.43213L9.36507 8.26371C9.34318 8.39088 9.28941 8.55555 9.1734 8.59563C9.07866 8.62849 8.85066 8.59507 8.39593 8.07861L8.43592 7.68317L8.02314 7.54166C7.81085 6.89887 7.30371 6.97555 7.30371 6.97555C7.63985 7.26454 7.71063 8.00164 7.71063 8.00164L8.58339 8.85082L8.63059 8.71521C8.61109 8.60182 8.58067 8.51313 8.54804 8.44127C8.82184 8.69426 9.04412 8.791 9.22008 8.72932C9.39286 8.66946 9.46608 8.47432 9.49706 8.32699C9.72928 8.61391 9.9157 8.75201 10.0715 8.75201C10.1019 8.75201 10.131 8.74676 10.1591 8.73626C10.3816 8.6539 10.4246 8.26123 10.4278 7.99887L10.581 8.19434V8.71521H11.7133C11.7133 8.55888 11.84 8.43213 11.9964 8.43213C12.1527 8.43213 12.2794 8.55884 12.2794 8.71521H13.4117V8.19434L13.565 7.99887C13.5682 8.26118 13.6111 8.65385 13.8337 8.73626C13.8617 8.74676 13.8909 8.75201 13.9213 8.75201C14.077 8.75201 14.2635 8.61377 14.4957 8.32699C14.5266 8.47432 14.5999 8.66951 14.7727 8.72932C14.9495 8.79096 15.1724 8.69365 15.4473 8.43902C15.4142 8.51126 15.3834 8.6006 15.3637 8.71521L15.4109 8.85082L16.2837 8.00164C16.2837 8.00164 16.3544 7.26454 16.6906 6.97555C16.6907 6.97551 16.1835 6.89882 15.9712 7.54161Z" fill="#FFE15A"/>
<path d="M11.0183 9.49368H10.8458C10.7762 9.49368 10.7197 9.43724 10.7197 9.36764V9.19514C10.7197 9.12553 10.7762 9.06909 10.8458 9.06909H11.0183C11.0879 9.06909 11.1443 9.12553 11.1443 9.19514V9.36764C11.1443 9.43724 11.0879 9.49368 11.0183 9.49368Z" fill="#F5F5F5"/>
<path d="M13.1413 9.49368H12.9688C12.8992 9.49368 12.8428 9.43724 12.8428 9.36764V9.19514C12.8428 9.12553 12.8992 9.06909 12.9688 9.06909H13.1413C13.2109 9.06909 13.2674 9.12553 13.2674 9.19514V9.36764C13.2674 9.43724 13.2109 9.49368 13.1413 9.49368Z" fill="#F5F5F5"/>
<path d="M15.2644 9.49368H15.0919C15.0223 9.49368 14.9658 9.43724 14.9658 9.36764V9.19514C14.9658 9.12553 15.0223 9.06909 15.0919 9.06909H15.2644C15.334 9.06909 15.3904 9.12553 15.3904 9.19514V9.36764C15.3904 9.43724 15.334 9.49368 15.2644 9.49368Z" fill="#FF4B55"/>
<path d="M8.8962 9.49368H8.7237C8.65409 9.49368 8.59766 9.43724 8.59766 9.36764V9.19514C8.59766 9.12553 8.65409 9.06909 8.7237 9.06909H8.8962C8.96581 9.06909 9.02225 9.12553 9.02225 9.19514V9.36764C9.02225 9.43724 8.96581 9.49368 8.8962 9.49368Z" fill="#FF4B55"/>
<path d="M12.2219 6.83579C12.4087 7.12294 12.1021 7.42945 11.8149 7.24275C11.7971 7.23117 11.7817 7.2157 11.77 7.19785C11.5833 6.91069 11.8898 6.60418 12.177 6.79088C12.1948 6.80251 12.2103 6.81797 12.2219 6.83579Z" fill="#F5F5F5"/>
<path d="M9.10264 7.27642C9.00474 7.30113 8.94864 7.41331 8.97733 7.527C9.00602 7.64068 9.10864 7.71281 9.20654 7.6881C9.30443 7.6634 9.36053 7.55121 9.33184 7.43753C9.30315 7.32385 9.20053 7.25172 9.10264 7.27642Z" fill="#F5F5F5"/>
<path d="M14.7872 7.68832C14.8851 7.71302 14.9877 7.64089 15.0164 7.52721C15.0451 7.41353 14.989 7.30134 14.8911 7.27664C14.7932 7.25193 14.6906 7.32406 14.6619 7.43774C14.6332 7.55143 14.6893 7.66361 14.7872 7.68832Z" fill="#F5F5F5"/>
<path d="M8.59942 12.5857C8.332 12.5352 7.9758 12.4982 7.58482 12.5395C7.20186 12.5798 6.75453 12.6989 6.33496 12.984V14.777C6.92085 13.361 8.22738 13.6347 8.59942 13.747V12.5857Z" fill="#F5F5F5"/>
<path d="M15.3926 12.5857C15.66 12.5352 16.0162 12.4982 16.4072 12.5395C16.7901 12.5798 17.2375 12.6989 17.657 12.984V14.777C17.0712 13.361 15.7646 13.6347 15.3926 13.747V12.5857Z" fill="#F5F5F5"/>
<path d="M10.4524 17.3764C10.4524 17.3764 10.1474 17.855 9.99302 17.9014C9.99302 17.9014 9.78368 18.0538 9.74121 18.0384L10.4755 17.1872L10.4524 17.3764Z" fill="#FF4B55"/>
<path d="M10.4256 17.6527C10.282 17.6373 10.1692 17.7193 10.0974 17.8167C10.0257 17.9142 9.83232 17.9462 9.8123 17.8197C9.79435 17.7058 10.1953 17.3501 10.1953 17.3501C10.1953 17.3501 10.1287 17.2302 9.94552 17.2768C9.77133 17.3212 9.6001 17.6014 9.6001 17.6014C9.6001 17.6014 9.42601 17.5333 9.28614 17.6498L8.6875 18.3346C8.6875 18.3346 9.42277 18.9628 10.3589 18.0372L10.2 17.9859C10.2513 17.7911 10.4256 17.6527 10.4256 17.6527Z" fill="#73AF00"/>
<path d="M9.59917 17.7877C9.64108 17.8566 9.56913 17.9286 9.50022 17.8866C9.49417 17.883 9.48874 17.8775 9.48508 17.8715C9.44318 17.8026 9.51513 17.7306 9.58403 17.7725C9.59008 17.7762 9.59552 17.7817 9.59917 17.7877Z" fill="#F5F5F5"/>
<path d="M6.61816 5.71716C7.48769 5.71416 8.35046 5.86617 9.1657 6.16753V5.28057C8.34755 4.99848 7.48534 4.86456 6.61816 4.8857V5.71716Z" fill="#F5F5F5"/>
<path d="M13.6946 4.75225C12.5782 4.48422 11.4142 4.48422 10.2979 4.75225C10.2979 4.46917 10.2979 4.18614 10.2979 3.90307C11.4142 3.63504 12.5782 3.63504 13.6946 3.90307C13.6946 4.18614 13.6946 4.46922 13.6946 4.75225Z" fill="#F5F5F5"/>
<path d="M10.5805 4.10529C9.88798 4.16964 9.20581 4.33183 8.55566 4.59142C8.59635 4.87154 8.63704 5.15167 8.67777 5.43179C9.28963 5.18748 9.93003 5.03125 10.5805 4.95971L10.5805 4.10529Z" fill="#F5F5F5"/>
<path d="M6.33496 6.68657C6.7206 6.5789 7.11322 6.49959 7.51057 6.45585V5.60143C7.11364 5.63832 6.72102 5.71116 6.33496 5.81222V6.68657Z" fill="#F5F5F5"/>
<path d="M17.3737 5.71716C16.5042 5.71416 15.6414 5.86617 14.8262 6.16753V5.28057C15.6443 4.99848 16.5065 4.86456 17.3737 4.8857V5.71716Z" fill="#F5F5F5"/>
<path d="M13.4112 4.10529C14.1037 4.16964 14.7858 4.33183 15.436 4.59142C15.3953 4.87154 15.3546 5.15167 15.3139 5.43179C14.702 5.18748 14.0616 5.03125 13.4111 4.95971L13.4112 4.10529Z" fill="#F5F5F5"/>
<path d="M17.6571 6.68657C17.2715 6.5789 16.8788 6.49959 16.4814 6.45585V5.60143C16.8784 5.63832 17.271 5.71116 17.6571 5.81222V6.68657Z" fill="#F5F5F5"/>
</g>
<defs>
<clipPath id="clip0_72_2687">
<path d="M0 2C0 0.895432 0.895431 0 2 0H21.9998C23.1043 0 23.9998 0.895431 23.9998 2V21.9998C23.9998 23.1043 23.1043 23.9998 21.9998 23.9998H2C0.895432 23.9998 0 23.1043 0 21.9998V2Z" fill="white"/>
</clipPath>
</defs>
</svg>
