<svg width="24" height="24" viewBox="0 0 24 24" fill="none" xmlns="http://www.w3.org/2000/svg">
<g clip-path="url(#clip0_72_3046)">
<path d="M24.0007 0.00012207H0.000976562V23.9999H24.0007V0.00012207Z" fill="#41479B"/>
<path d="M4.422 0.00012207H0.000976562V0.936535L4.422 3.83305V0.00012207Z" fill="#41479B"/>
<path d="M0.000976562 3.20161V4.42115H1.86236L0.000976562 3.20161Z" fill="#41479B"/>
<path d="M0.000976562 7.57899V8.79852L1.86236 7.57899H0.000976562Z" fill="#41479B"/>
<path d="M12.0011 0.936535V0.00012207H7.58008V3.83305L12.0011 0.936535Z" fill="#41479B"/>
<path d="M12.001 8.79852V7.57899H10.1396L12.001 8.79852Z" fill="#41479B"/>
<path d="M7.58008 8.16707V12H12.0011V11.0636L7.58008 8.16707Z" fill="#41479B"/>
<path d="M12.001 4.42115V3.20161L10.1396 4.42115H12.001Z" fill="#41479B"/>
<path d="M0.000976562 11.0636V12H4.422V8.16707L0.000976562 11.0636Z" fill="#41479B"/>
<path d="M12.0008 11.0636V10.1278L8.07422 7.57898H9.23427L12.0008 9.37479V8.79852L10.1394 7.57898H12.0008V6.9474H6.94824V12H7.57978V8.16707L12.0008 11.0636Z" fill="#F5F5F5"/>
<path d="M0.000976562 6.9474V7.57898H1.86236L0.000976562 8.79852V9.68449L3.24455 7.57898H4.4046L0.000976562 10.4375V11.0636L4.422 8.16707V12H5.05354V6.9474H0.000976562Z" fill="#F5F5F5"/>
<path d="M5.05354 0.00012207H4.422V3.83305L0.000976562 0.936535V1.96131L3.79041 4.42114H2.63036L0.000976562 2.71435V3.20161L1.86236 4.42114H0.000976562V5.05273H5.05354V0.00012207Z" fill="#F5F5F5"/>
<path d="M12.0008 5.05273V4.42114H10.1394L12.0008 3.20161V2.30433L8.73983 4.42114H7.57978L12.0008 1.55134V0.936535L7.57978 3.83305V0.00012207H6.94824V5.05273H12.0008Z" fill="#F5F5F5"/>
<path d="M12.0009 6.9474V5.05273H6.9483V0.00012207H5.05354V5.05273H0.000976562V6.9474H5.05354V12H6.9483V6.9474H12.0009Z" fill="#FF4B55"/>
<path d="M3.24455 7.57899L0.000976562 9.6845V10.4375L4.40461 7.57899H3.24455Z" fill="#FF4B55"/>
<path d="M8.07422 7.57899L12.0008 10.1278V9.3748L9.23427 7.57899H8.07422Z" fill="#FF4B55"/>
<path d="M3.79041 4.42115L0.000976562 1.96131V2.71435L2.63036 4.42115H3.79041Z" fill="#FF4B55"/>
<path d="M8.74013 4.42114L12.0011 2.30433V1.55134L7.58008 4.42114H8.74013Z" fill="#FF4B55"/>
<path d="M18.5436 20.6826C18.5268 20.6826 18.5099 20.6774 18.4955 20.6672L18.0058 20.3173L17.516 20.6672C17.5017 20.6774 17.4847 20.6826 17.4679 20.6826C17.4508 20.6826 17.4338 20.6774 17.4192 20.6669C17.3906 20.6459 17.3782 20.6087 17.3889 20.5747L17.5706 20.0009L17.0864 19.6437C17.0577 19.6223 17.0458 19.5855 17.0567 19.5515C17.0678 19.5176 17.0991 19.4945 17.1349 19.4942L17.7368 19.4893L17.9271 18.9184C17.9384 18.8848 17.9702 18.8618 18.0057 18.8618C18.0413 18.8618 18.073 18.8848 18.0843 18.9184L18.2747 19.4893L18.8766 19.4942C18.9123 19.4946 18.9436 19.5176 18.9548 19.5515C18.9657 19.5855 18.9537 19.6223 18.925 19.6437L18.4409 20.0009L18.6226 20.5747C18.6332 20.6087 18.621 20.6458 18.5922 20.6669C18.5778 20.6774 18.5606 20.6826 18.5436 20.6826Z" fill="#FF4B55"/>
<path d="M18.0054 18.9446L18.2146 19.5716L18.8756 19.5767L18.3438 19.9694L18.5432 20.5997L18.0054 20.2153L17.4676 20.5997L17.667 19.9694L17.1353 19.5767L17.7963 19.5716L18.0054 18.9446ZM18.0054 18.779C17.9342 18.779 17.8709 18.8246 17.8484 18.8922L17.6767 19.4071L17.134 19.4113C17.0627 19.4118 16.9999 19.4579 16.9778 19.5257C16.9558 19.5934 16.9796 19.6676 17.037 19.71L17.4735 20.0324L17.3098 20.5498C17.2883 20.6177 17.3127 20.6918 17.3703 20.7337C17.3993 20.7547 17.4335 20.7653 17.4676 20.7653C17.5013 20.7653 17.5351 20.755 17.5639 20.7345L18.0054 20.4188L18.447 20.7345C18.4758 20.755 18.5095 20.7653 18.5432 20.7653C18.5774 20.7653 18.6115 20.7548 18.6405 20.7337C18.6981 20.6918 18.7225 20.6177 18.701 20.5498L18.5373 20.0324L18.9739 19.71C19.0312 19.6677 19.055 19.5934 19.033 19.5257C19.011 19.4579 18.9481 19.4118 18.8769 19.4113L18.3342 19.4071L18.1625 18.8922C18.1399 18.8246 18.0767 18.779 18.0054 18.779Z" fill="#F5F5F5"/>
<path d="M18.5436 12.544C18.5267 12.544 18.5099 12.5387 18.4955 12.5286L18.0058 12.1783L17.516 12.5286C17.5017 12.5387 17.4847 12.544 17.4679 12.544C17.451 12.544 17.4338 12.5387 17.4192 12.5282C17.3906 12.5072 17.3782 12.47 17.3889 12.4361L17.5706 11.8623L17.0864 11.5047C17.0577 11.4832 17.0458 11.4461 17.0567 11.4125C17.0678 11.3786 17.0993 11.3555 17.1349 11.3551L17.7368 11.3507L17.9271 10.7797C17.9384 10.7461 17.9702 10.7231 18.0057 10.7231C18.0413 10.7231 18.073 10.7461 18.0843 10.7797L18.2747 11.3507L18.8766 11.3551C18.9121 11.3556 18.9436 11.3786 18.9548 11.4125C18.9657 11.4461 18.9537 11.4832 18.925 11.5047L18.4409 11.8623L18.6226 12.4361C18.6332 12.47 18.621 12.5072 18.5922 12.5282C18.5778 12.5387 18.5606 12.544 18.5436 12.544Z" fill="#FF4B55"/>
<path d="M18.0054 10.8059L18.2146 11.433L18.8756 11.4381L18.3438 11.8307L18.5432 12.461L18.0054 12.0766L17.4676 12.461L17.667 11.8307L17.1353 11.4381L17.7963 11.433L18.0054 10.8059ZM18.0054 10.6404C17.9342 10.6404 17.8709 10.686 17.8484 10.7535L17.6767 11.2684L17.134 11.2726C17.0627 11.2731 16.9999 11.3192 16.9778 11.387C16.9558 11.4547 16.9796 11.529 17.037 11.5713L17.4735 11.8937L17.3098 12.4111C17.2883 12.4791 17.3127 12.5531 17.3703 12.595C17.3993 12.616 17.4335 12.6266 17.4676 12.6266C17.5013 12.6266 17.5351 12.6164 17.5639 12.5958L18.0054 12.2802L18.447 12.5958C18.4758 12.6164 18.5095 12.6266 18.5432 12.6266C18.5774 12.6266 18.6115 12.6161 18.6405 12.595C18.6981 12.5531 18.7225 12.4791 18.701 12.4111L18.5373 11.8937L18.9739 11.5713C19.0312 11.529 19.055 11.4547 19.033 11.387C19.011 11.3192 18.9481 11.2732 18.8769 11.2726L18.3342 11.2684L18.1625 10.7535C18.1399 10.6859 18.0767 10.6404 18.0054 10.6404Z" fill="#F5F5F5"/>
<path d="M21.4401 15.5973C21.4231 15.5973 21.4064 15.592 21.392 15.5819L20.9023 15.2316L20.4125 15.5819C20.3982 15.592 20.3812 15.5973 20.3644 15.5973C20.3475 15.5973 20.3303 15.592 20.3157 15.5815C20.287 15.5605 20.2747 15.5234 20.2854 15.4894L20.467 14.9156L19.9829 14.558C19.9542 14.5366 19.9423 14.4994 19.9532 14.4658C19.9643 14.4319 19.9958 14.4088 20.0314 14.4084L20.6333 14.404L20.8236 13.833C20.8349 13.7995 20.8666 13.7764 20.9022 13.7764C20.9378 13.7764 20.9695 13.7995 20.9808 13.833L21.1711 14.404L21.7731 14.4084C21.8086 14.4089 21.8401 14.4319 21.8512 14.4658C21.8622 14.4994 21.8502 14.5366 21.8215 14.558L21.3374 14.9156L21.519 15.4894C21.5297 15.5233 21.5174 15.5605 21.4887 15.5815C21.4743 15.592 21.4571 15.5973 21.4401 15.5973Z" fill="#FF4B55"/>
<path d="M20.9019 13.8592L21.1111 14.4863L21.7721 14.4914L21.2403 14.884L21.4397 15.5143L20.9019 15.1299L20.3641 15.5143L20.5635 14.884L20.0317 14.4914L20.6928 14.4863L20.9019 13.8592ZM20.9019 13.6937C20.8307 13.6937 20.7674 13.7393 20.7449 13.8068L20.5732 14.3217L20.0305 14.3259C19.9592 14.3264 19.8964 14.3725 19.8743 14.4403C19.8523 14.508 19.8761 14.5823 19.9334 14.6246L20.37 14.947L20.2063 15.4644C20.1848 15.5324 20.2092 15.6064 20.2668 15.6483C20.2958 15.6693 20.33 15.6799 20.3641 15.6799C20.3978 15.6799 20.4316 15.6697 20.4604 15.6491L20.9019 15.3335L21.3435 15.6491C21.3723 15.6697 21.406 15.6799 21.4397 15.6799C21.4739 15.6799 21.508 15.6694 21.537 15.6483C21.5946 15.6064 21.619 15.5324 21.5975 15.4644L21.4338 14.947L21.8704 14.6246C21.9277 14.5823 21.9515 14.508 21.9295 14.4403C21.9075 14.3725 21.8446 14.3265 21.7734 14.3259L21.2306 14.3217L21.0589 13.8068C21.0364 13.7392 20.9732 13.6937 20.9019 13.6937Z" fill="#F5F5F5"/>
<path d="M15.6471 16.4249C15.6302 16.4249 15.6134 16.4196 15.599 16.4095L15.1093 16.0591L14.6196 16.4095C14.6052 16.4196 14.5882 16.4249 14.5715 16.4249C14.5545 16.4249 14.5373 16.4196 14.5228 16.4091C14.4941 16.3881 14.4817 16.3509 14.4924 16.3169L14.6741 15.7432L14.1899 15.3856C14.1613 15.3641 14.1494 15.327 14.1602 15.2934C14.1713 15.2595 14.2028 15.2364 14.2384 15.236L14.8403 15.2316L15.0306 14.6606C15.0419 14.627 15.0737 14.604 15.1093 14.604C15.1448 14.604 15.1765 14.627 15.1879 14.6606L15.3782 15.2316L15.9801 15.236C16.0157 15.2364 16.0472 15.2595 16.0583 15.2934C16.0692 15.327 16.0572 15.3641 16.0286 15.3856L15.5444 15.7432L15.7261 16.3169C15.7368 16.3509 15.7245 16.3881 15.6957 16.4091C15.6813 16.4196 15.6641 16.4249 15.6471 16.4249Z" fill="#FF4B55"/>
<path d="M15.1089 14.6868L15.3181 15.3138L15.9791 15.3189L15.4473 15.7116L15.6467 16.3419L15.1089 15.9575L14.5712 16.3419L14.7706 15.7116L14.2388 15.3189L14.8998 15.3138L15.1089 14.6868ZM15.1089 14.5212C15.0377 14.5212 14.9745 14.5668 14.9519 14.6344L14.7802 15.1493L14.2375 15.1535C14.1663 15.154 14.1034 15.2001 14.0814 15.2679C14.0593 15.3356 14.0831 15.4098 14.1405 15.4522L14.5771 15.7746L14.4133 16.292C14.3919 16.3599 14.4162 16.434 14.4738 16.4759C14.5029 16.4969 14.537 16.5075 14.5712 16.5075C14.6049 16.5075 14.6386 16.4972 14.6674 16.4767L15.1089 16.161L15.5505 16.4767C15.5793 16.4972 15.613 16.5075 15.6467 16.5075C15.6809 16.5075 15.715 16.497 15.7441 16.4759C15.8017 16.434 15.826 16.3599 15.8046 16.292L15.6408 15.7746L16.0774 15.4522C16.1347 15.4099 16.1585 15.3356 16.1365 15.2679C16.1145 15.2001 16.0516 15.154 15.9804 15.1535L15.4377 15.1493L15.266 14.6344C15.2434 14.5668 15.1801 14.5212 15.1089 14.5212Z" fill="#F5F5F5"/>
</g>
<defs>
<clipPath id="clip0_72_3046">
<path d="M0 2C0 0.895432 0.895431 0 2 0H21.9998C23.1043 0 23.9998 0.895431 23.9998 2V21.9998C23.9998 23.1043 23.1043 23.9998 21.9998 23.9998H2C0.895432 23.9998 0 23.1043 0 21.9998V2Z" fill="white"/>
</clipPath>
</defs>
</svg>
