<svg width="24" height="24" viewBox="0 0 24 24" fill="none" xmlns="http://www.w3.org/2000/svg">
<g clip-path="url(#clip0_72_3429)">
<path d="M24.0017 6.10352e-05H0.00195312V23.9998H24.0017V6.10352e-05Z" fill="#FF4B55"/>
<path d="M9.838 9.71168C9.83762 9.71206 9.8372 9.71229 9.83678 9.71267L0.635494 0.00012207H0.00390625V4.13802L9.36527 10.2713C9.50022 10.0657 9.66011 9.8801 9.838 9.71168Z" fill="#FFE15A"/>
<path d="M8.87852 12.3235C8.86737 12.2156 8.8459 12.1108 8.8459 12C8.8459 11.8892 8.86737 11.7844 8.87852 11.6765L8.87848 11.6767L0.00390625 10.7586V13.2414L8.87848 12.3233L8.87852 12.3235Z" fill="#FFE15A"/>
<path d="M12.0041 8.84216C12.1722 8.84216 12.3339 8.8663 12.4949 8.89161L13.8988 0.00012207H10.1094L11.5133 8.89161C11.6743 8.86625 11.836 8.84216 12.0041 8.84216Z" fill="#FFE15A"/>
<path d="M14.1689 9.71168C14.3468 9.8801 14.5067 10.0658 14.6417 10.2713L24.003 4.13802V0.00012207H23.3714L14.1701 9.71262C14.1697 9.71229 14.1693 9.71201 14.1689 9.71168Z" fill="#FFE15A"/>
<path d="M14.6417 13.7287C14.5068 13.9343 14.3469 14.1199 14.1689 14.2883C14.1693 14.288 14.1697 14.2877 14.1702 14.2873L23.3715 23.9999H24.0031V19.862L14.6417 13.7287Z" fill="#FFE15A"/>
<path d="M15.1289 11.6765C15.1401 11.7844 15.1615 11.8892 15.1615 12C15.1615 12.1108 15.1401 12.2156 15.1289 12.3235L15.129 12.3233L24.0035 13.2414V10.7586L15.129 11.6767L15.1289 11.6765Z" fill="#FFE15A"/>
<path d="M12.0041 15.1578C11.836 15.1578 11.6743 15.1337 11.5133 15.1084L10.1094 23.9999H13.8988L12.4949 15.1084C12.3339 15.1338 12.1722 15.1578 12.0041 15.1578Z" fill="#FFE15A"/>
<path d="M9.838 14.2883C9.66011 14.1199 9.50022 13.9343 9.36522 13.7287L0.00390625 19.862V23.9999H0.635494L9.83682 14.2874C9.8372 14.2877 9.83762 14.288 9.838 14.2883Z" fill="#FFE15A"/>
<path d="M12.0038 13.6551C12.9179 13.6551 13.6589 12.9141 13.6589 12C13.6589 11.0859 12.9179 10.3449 12.0038 10.3449C11.0897 10.3449 10.3486 11.0859 10.3486 12C10.3486 12.9141 11.0897 13.6551 12.0038 13.6551Z" fill="#FFE15A"/>
</g>
<defs>
<clipPath id="clip0_72_3429">
<path d="M0 2C0 0.895432 0.895431 0 2 0H21.9998C23.1043 0 23.9998 0.895431 23.9998 2V21.9998C23.9998 23.1043 23.1043 23.9998 21.9998 23.9998H2C0.895432 23.9998 0 23.1043 0 21.9998V2Z" fill="white"/>
</clipPath>
</defs>
</svg>
