<svg width="24" height="24" viewBox="0 0 24 24" fill="none" xmlns="http://www.w3.org/2000/svg">
<g clip-path="url(#clip0_72_3173)">
<path d="M23.9988 6.10352e-05H-0.000976562V23.9998H23.9988V6.10352e-05Z" fill="#F5F5F5"/>
<path d="M23.9978 2.57378H-0.00195312V5.08743H23.9978V2.57378Z" fill="#FF4B55"/>
<path d="M23.9978 18.9126H-0.00195312V21.4262H23.9978V18.9126Z" fill="#FF4B55"/>
<path d="M11.6468 10.7265L12.2293 11.4885L13.1389 11.1841C13.1897 11.1671 13.233 11.2246 13.2025 11.2687L12.6579 12.0581L13.2285 12.8291C13.2604 12.8722 13.219 12.9311 13.1677 12.9158L12.2485 12.6417L11.6917 13.4227C11.6605 13.4663 11.5917 13.4452 11.5904 13.3916L11.5671 12.4328L10.6523 12.1444C10.6012 12.1283 10.6 12.0564 10.6505 12.0385L11.5553 11.72L11.5468 10.7609C11.5462 10.7073 11.6142 10.6839 11.6468 10.7265Z" fill="#FF4B55"/>
<path d="M8.64582 14.981C7.00076 14.981 5.66624 13.6465 5.66624 12C5.66624 10.3564 7.00072 9.01899 8.64582 9.01899C9.25787 9.01899 9.82233 9.20723 10.2927 9.52584C10.3647 9.57464 10.4469 9.47995 10.3866 9.41728C9.68363 8.68641 8.68862 8.24049 7.58548 8.27813C5.6902 8.34282 4.12117 9.8624 4.00004 11.7549C3.86134 13.9227 5.57775 15.7241 7.7148 15.7241C8.76751 15.7241 9.71358 15.284 10.3892 14.5804C10.4489 14.5182 10.3664 14.425 10.2952 14.4734C9.82434 14.7925 9.25899 14.981 8.64582 14.981Z" fill="#FF4B55"/>
</g>
<defs>
<clipPath id="clip0_72_3173">
<path d="M0 2C0 0.895432 0.895431 0 2 0H21.9998C23.1043 0 23.9998 0.895431 23.9998 2V21.9998C23.9998 23.1043 23.1043 23.9998 21.9998 23.9998H2C0.895432 23.9998 0 23.1043 0 21.9998V2Z" fill="white"/>
</clipPath>
</defs>
</svg>
