<svg width="24" height="24" viewBox="0 0 24 24" fill="none" xmlns="http://www.w3.org/2000/svg">
<g clip-path="url(#clip0_72_3165)">
<path d="M23.9988 6.10352e-05H-0.000976562V23.9998H23.9988V6.10352e-05Z" fill="#41479B"/>
<path d="M23.9978 3.15805H-0.00195312V4.42118H23.9978V3.15805Z" fill="#F5F5F5"/>
<path d="M23.9978 19.5787H-0.00195312V20.8418H23.9978V19.5787Z" fill="#F5F5F5"/>
<path d="M23.9988 4.42127H-0.000976562V19.5791H23.9988V4.42127Z" fill="#FF4B55"/>
<path d="M7.64929 17.0525C10.4398 17.0525 12.7019 14.7904 12.7019 11.9999C12.7019 9.20946 10.4398 6.94733 7.64929 6.94733C4.85881 6.94733 2.59668 9.20946 2.59668 11.9999C2.59668 14.7904 4.85881 17.0525 7.64929 17.0525Z" fill="#F5F5F5"/>
<path d="M7.78445 7.39996L8.79802 10.4391L12.0016 10.4639C12.1379 10.465 12.1944 10.6389 12.0848 10.7199L9.5076 12.623L10.474 15.6774C10.5151 15.8074 10.3671 15.9149 10.2563 15.8356L7.64992 13.9727L5.04355 15.8356C4.9327 15.9149 4.78476 15.8074 4.82587 15.6774L5.79223 12.623L3.21507 10.7199C3.10543 10.6389 3.16196 10.465 3.29823 10.4639L6.50182 10.4391L7.51539 7.39996C7.55847 7.27068 7.74132 7.27068 7.78445 7.39996Z" fill="#FF4B55"/>
</g>
<defs>
<clipPath id="clip0_72_3165">
<path d="M0 2C0 0.895432 0.895431 0 2 0H21.9998C23.1043 0 23.9998 0.895431 23.9998 2V21.9998C23.9998 23.1043 23.1043 23.9998 21.9998 23.9998H2C0.895432 23.9998 0 23.1043 0 21.9998V2Z" fill="white"/>
</clipPath>
</defs>
</svg>
