<svg width="24" height="24" viewBox="0 0 24 24" fill="none" xmlns="http://www.w3.org/2000/svg">
<g clip-path="url(#clip0_72_3270)">
<path d="M23.9959 6.10352e-05H-0.00390625V23.9998H23.9959V6.10352e-05Z" fill="#FF4B55"/>
<path d="M-0.00390625 6.10352e-05V23.9998H23.9959L-0.00390625 6.10352e-05Z" fill="#464655"/>
<path d="M3.34959 13.6886L3.11278 14.3987L2.36429 14.4045C2.29253 14.405 2.26276 14.4966 2.32051 14.5393L2.92261 14.9839L2.69682 15.6976C2.67516 15.766 2.75307 15.8226 2.81147 15.7808L3.42042 15.3456L4.02937 15.7808C4.08777 15.8226 4.16568 15.766 4.14402 15.6976L3.91823 14.9839L4.52033 14.5393C4.57808 14.4966 4.54832 14.405 4.47655 14.4045L3.72806 14.3987L3.49125 13.6886C3.46861 13.6205 3.37228 13.6205 3.34959 13.6886Z" fill="#F5F5F5"/>
<path d="M8.44823 13.6886L8.21142 14.3987L7.46292 14.4045C7.39116 14.405 7.36139 14.4966 7.41914 14.5393L8.02125 14.9839L7.7955 15.6976C7.77384 15.766 7.85175 15.8226 7.91015 15.7808L8.5191 15.3456L9.12805 15.7808C9.18645 15.8226 9.26436 15.766 9.2427 15.6976L9.01691 14.9839L9.61901 14.5393C9.67676 14.4966 9.647 14.405 9.57523 14.4045L8.82674 14.3987L8.58993 13.6886C8.56724 13.6205 8.47096 13.6205 8.44823 13.6886Z" fill="#F5F5F5"/>
<path d="M5.8994 10.5978L5.66259 11.3079L4.9141 11.3137C4.84233 11.3143 4.81257 11.4059 4.87032 11.4485L5.47242 11.8932L5.24662 12.6068C5.22497 12.6752 5.30287 12.7318 5.36128 12.6901L5.97023 12.2549L6.57917 12.6901C6.63758 12.7318 6.71548 12.6752 6.69383 12.6068L6.46803 11.8932L7.07014 11.4485C7.12789 11.4059 7.09812 11.3143 7.02636 11.3137L6.27786 11.3079L6.04105 10.5978C6.01846 10.5298 5.92213 10.5298 5.8994 10.5978Z" fill="#F5F5F5"/>
<path d="M5.8994 18.1985L5.66259 18.9086L4.9141 18.9144C4.84233 18.9149 4.81257 19.0065 4.87032 19.0492L5.47242 19.4938L5.24662 20.2075C5.22497 20.2759 5.30287 20.3325 5.36128 20.2907L5.97023 19.8555L6.57917 20.2907C6.63758 20.3325 6.71548 20.2759 6.69383 20.2075L6.46803 19.4938L7.07014 19.0492C7.12789 19.0065 7.09812 18.9149 7.02636 18.9144L6.27786 18.9086L6.04105 18.1985C6.01846 18.1304 5.92213 18.1304 5.8994 18.1985Z" fill="#F5F5F5"/>
<path d="M7.08689 16.3466L6.96094 16.7241L6.56293 16.7272C6.52477 16.7275 6.50893 16.7762 6.53963 16.7989L6.85983 17.0353L6.73979 17.4148C6.72825 17.4512 6.76969 17.4814 6.80077 17.4591L7.12458 17.2277L7.44839 17.4591C7.47942 17.4813 7.52086 17.4512 7.50937 17.4148L7.38933 17.0353L7.70953 16.7989C7.74023 16.7762 7.72439 16.7275 7.68623 16.7272L7.28822 16.7241L7.16227 16.3466C7.15022 16.3104 7.09899 16.3104 7.08689 16.3466Z" fill="#F5F5F5"/>
<path d="M19.9774 8.99412C19.9168 8.52523 19.7165 8.06183 19.5709 7.77561C19.6427 7.81152 19.7545 7.8763 19.7545 7.8763L19.6559 7.51874C19.9025 7.61736 20.0874 7.80847 20.0874 7.80847C19.9641 7.19198 19.773 6.90225 19.773 6.90225L19.9272 6.95775C19.6374 6.24263 19.2059 6.03919 19.2059 6.03919L19.4525 5.97755C19.0888 5.52137 18.5771 5.36724 18.5771 5.36724L18.91 5.20698C18.0285 4.70763 17.1777 5.23164 17.1777 5.23164C17.1777 5.23164 17.4737 4.92339 17.5846 4.79392C17.6956 4.66445 17.4305 4.62133 17.4305 4.62133C17.4305 4.62133 17.6894 4.44255 17.6771 4.33774C17.6648 4.23293 17.4305 4.28843 17.4305 4.28843C17.4305 4.28843 17.6339 4.0788 17.6339 3.96171C17.6339 3.84462 17.4243 3.91854 17.4243 3.91854C17.4243 3.91854 17.4921 3.77674 17.5106 3.66579C17.5291 3.55484 17.3257 3.64728 17.3257 3.64728C17.3257 3.64728 17.5538 3.24041 17.5414 3.15411C17.5291 3.06781 16.9435 3.43151 16.5243 3.83224C16.1051 4.23297 16.1554 4.87689 16.1925 5.03008C16.2297 5.18326 16.2529 5.54068 16.0672 5.66598C15.8816 5.79132 15.5503 5.48438 15.3859 5.29534C15.2215 5.10629 15.016 5.17206 14.8023 5.24603C14.5886 5.32 14.1858 5.22137 14.0625 5.20492C13.9392 5.18851 14.2022 5.3282 14.4241 5.41042C14.6461 5.49259 14.7447 5.68988 15.0571 5.80496C15.3307 5.90574 15.5498 6.16172 15.3345 6.27966C15.1667 6.37153 15.168 6.22416 14.4283 6.03305C13.6885 5.84194 12.8008 7.72218 12.8008 7.72218C13.276 7.66344 13.5189 7.37877 13.5189 7.37877L13.3906 7.74702C13.7418 7.6805 13.9135 7.46694 13.9135 7.46694L13.8207 7.83828C14.0899 7.75471 14.2755 7.46694 14.2755 7.46694L14.1966 7.83364C14.4612 7.70835 14.6004 7.46694 14.6004 7.46694C14.6283 7.60157 14.6502 7.8763 14.6502 7.8763C15.0599 7.65725 15.1557 7.34615 15.1557 7.34615C15.6242 8.76406 16.3023 8.99829 16.3023 8.99829L16.3393 8.6284C16.5489 8.92432 16.8448 9.07226 16.8448 9.07226L16.7955 8.75168C17.5229 9.63939 18.3613 9.86134 18.3613 9.86134L18.1466 9.37005L18.4106 9.42367C18.127 9.18325 18.0222 8.76405 18.0222 8.76405L18.2442 8.80104C17.8866 8.47432 17.7078 8.09825 17.7078 8.09825L17.9236 8.13523C17.8558 8.03042 17.8003 7.66053 17.8003 7.66053C18.1949 7.78381 18.3983 7.93794 18.3983 7.93794L18.4216 7.80369C18.7601 8.04758 19.316 8.5016 19.7012 9.0724C19.7017 9.25863 19.6716 9.4466 19.5943 9.63531C19.2409 10.4971 18.312 10.4409 17.901 10.26C17.901 10.26 19.1751 11.2546 19.8737 9.84081C19.918 9.75123 19.9457 9.65537 19.9656 9.55703C20.0527 9.76487 20.1129 9.98167 20.1245 10.2066C20.1984 11.6491 18.6942 11.5135 18.6942 11.5135C18.6942 11.5135 20.3587 12.1793 20.4327 10.2559C20.4491 9.82825 20.268 9.40066 19.9774 8.99412ZM18.465 7.55422L18.4722 7.5126C18.725 7.58657 18.99 7.76535 18.99 7.76535L19.0486 7.58966C19.2987 7.89017 19.4984 8.21351 19.6096 8.54834C19.2721 8.18562 18.8675 7.84878 18.465 7.55422Z" fill="#FFE15A"/>
</g>
<defs>
<clipPath id="clip0_72_3270">
<path d="M0 2C0 0.895432 0.895431 0 2 0H21.9998C23.1043 0 23.9998 0.895431 23.9998 2V21.9998C23.9998 23.1043 23.1043 23.9998 21.9998 23.9998H2C0.895432 23.9998 0 23.1043 0 21.9998V2Z" fill="white"/>
</clipPath>
</defs>
</svg>
