<svg width="24" height="24" viewBox="0 0 24 24" fill="none" xmlns="http://www.w3.org/2000/svg">
<g clip-path="url(#clip0_72_3414)">
<path d="M24.0027 6.10352e-05H0.00292969V4.80001H24.0027V6.10352e-05Z" fill="#FF4B55"/>
<path d="M24.0027 4.80001H0.00292969V9.59996H24.0027V4.80001Z" fill="#F5F5F5"/>
<path d="M24.0046 9.60009H0.00488281V14.4H24.0046V9.60009Z" fill="#FF4B55"/>
<path d="M24.0046 19.2H0.00488281V23.9999H24.0046V19.2Z" fill="#FF4B55"/>
<path d="M24.0027 14.3999H0.00292969V19.1999H24.0027V14.3999Z" fill="#F5F5F5"/>
<path d="M12.5071 12.3938C12.7074 12.2079 12.7074 11.792 12.5071 11.6061L0.00292969 6.10352e-05V23.9998L12.5071 12.3938Z" fill="#41479B"/>
<path d="M5.11374 9.33245L5.71383 11.1318L7.61052 11.1465C7.85609 11.1484 7.9579 11.4618 7.76038 11.6076L6.23456 12.7344L6.80667 14.5427C6.88073 14.7769 6.61415 14.9706 6.41437 14.8277L4.87126 13.7248L3.32815 14.8277C3.12837 14.9705 2.8618 14.7769 2.93586 14.5427L3.50796 12.7344L1.98215 11.6076C1.78462 11.4618 1.88643 11.1484 2.13201 11.1465L4.02869 11.1318L4.62878 9.33245C4.70655 9.09953 5.03603 9.09953 5.11374 9.33245Z" fill="#F5F5F5"/>
</g>
<defs>
<clipPath id="clip0_72_3414">
<path d="M0 2C0 0.895432 0.895431 0 2 0H21.9998C23.1043 0 23.9998 0.895431 23.9998 2V21.9998C23.9998 23.1043 23.1043 23.9998 21.9998 23.9998H2C0.895432 23.9998 0 23.1043 0 21.9998V2Z" fill="white"/>
</clipPath>
</defs>
</svg>
