<svg width="24" height="24" viewBox="0 0 24 24" fill="none" xmlns="http://www.w3.org/2000/svg">
<g clip-path="url(#clip0_72_3471)">
<path d="M23.9998 6.10352e-05H0V8.00014H23.9998V6.10352e-05Z" fill="#464655"/>
<path d="M23.9998 15.9998H0V23.9998H23.9998V15.9998Z" fill="#73AF00"/>
<path d="M23.9998 8.00014H0V16.0002H23.9998V8.00014Z" fill="#F5F5F5"/>
<path d="M0.000976562 23.9999L11.4536 12.3273C11.6173 12.16 11.6173 11.84 11.4536 11.6727L0.000976562 0.00012207V23.9999Z" fill="#FF4B55"/>
<path d="M14.8794 11.9569C14.8794 10.5163 15.8203 9.29586 17.121 8.87559C17.1957 8.85145 17.186 8.74204 17.1078 8.73435C16.8581 8.70979 16.6001 8.71364 16.3366 8.75062C14.8088 8.96502 13.6302 10.257 13.5565 11.798C13.4676 13.6586 14.9498 15.1949 16.7908 15.1949C16.8973 15.1949 17.0026 15.1897 17.1064 15.1795C17.1849 15.1718 17.1951 15.0621 17.1201 15.0379C15.8199 14.6173 14.8794 13.3971 14.8794 11.9569Z" fill="#FF4B55"/>
<path d="M17.628 9.82943L17.2025 11.1051L15.8579 11.1155C15.6838 11.1168 15.6116 11.339 15.7516 11.4424L16.8334 12.2413L16.4278 13.5233C16.3753 13.6893 16.5643 13.8266 16.7059 13.7254L17.7999 12.9434L18.8939 13.7254C19.0355 13.8267 19.2245 13.6893 19.172 13.5233L18.7664 12.2413L19.8481 11.4424C19.9882 11.339 19.916 11.1168 19.7419 11.1155L18.3972 11.1051L17.9718 9.82943C17.9167 9.66429 17.6831 9.66429 17.628 9.82943Z" fill="#FF4B55"/>
</g>
<defs>
<clipPath id="clip0_72_3471">
<path d="M0 2C0 0.895432 0.895431 0 2 0H21.9998C23.1043 0 23.9998 0.895431 23.9998 2V21.9998C23.9998 23.1043 23.1043 23.9998 21.9998 23.9998H2C0.895432 23.9998 0 23.1043 0 21.9998V2Z" fill="white"/>
</clipPath>
</defs>
</svg>
