<svg width="24" height="24" viewBox="0 0 24 24" fill="none" xmlns="http://www.w3.org/2000/svg">
<g clip-path="url(#clip0_72_3524)">
<path d="M23.9988 6.10352e-05H-0.000976562V23.9998H23.9988V6.10352e-05Z" fill="#F5F5F5"/>
<path d="M23.9988 10.7368H13.2621V6.10352e-05H10.7358V10.7368H-0.000976562V13.2631H10.7358V23.9998H13.2621V13.2631H23.9988V10.7368Z" fill="#FF4B55"/>
<path d="M7.73949 5.25523C7.80896 5.11624 7.42477 4.66606 7.44516 4.56411C7.46555 4.46211 7.51107 4.30583 7.34785 3.71427C7.18464 3.12272 6.69442 2.97979 6.10286 2.91858C5.51131 2.85741 4.72925 3.28162 4.55263 3.74469C4.44604 4.02416 4.51813 4.33634 4.62997 4.63348C4.57977 4.63892 4.48363 4.64168 4.41271 4.58928C4.35632 4.54719 4.32538 4.4758 4.31994 4.37731C4.30016 4.00218 4.50482 3.3877 4.50702 3.38165L4.5223 3.33576L3.87984 3.10917L3.91762 3.41067L3.42188 3.30487L3.45216 3.38807C3.4958 3.50788 3.87984 4.56158 3.9315 4.65462C4.01629 4.80664 4.13132 4.90385 4.27349 4.94337C4.32449 4.95771 4.37483 4.96315 4.42265 4.96315C4.42879 4.96315 4.43394 4.96156 4.43999 4.96142C4.41088 5.01499 4.35201 5.08259 4.2021 5.15215C4.02623 5.23319 3.8482 5.32057 3.82875 5.64883L3.8235 5.6516C3.82509 5.65464 3.82692 5.65628 3.82851 5.65928C3.82429 5.746 3.82823 5.84514 3.849 5.96969C3.9006 6.27756 4.00546 6.57971 4.00996 6.59246L4.02018 6.62148L4.05079 6.62499C4.05304 6.62499 4.25479 6.64923 4.31662 6.86115C4.35233 6.98386 4.46483 7.07691 4.57541 7.07691C4.57827 7.07691 4.58113 7.07658 4.58404 7.07658C4.63185 7.07433 4.74753 7.04949 4.78513 6.86209L4.79056 6.83499L4.48668 6.55538L4.58849 6.21953L4.54002 6.20645C4.53721 6.20575 4.33593 6.14519 4.12762 5.91798C4.10835 5.82442 4.1106 5.75683 4.13554 5.71849C4.1639 5.67546 4.22413 5.66336 4.29393 5.64935C4.35894 5.63627 4.42621 5.62291 4.48068 5.58049C4.65585 5.44357 4.75391 5.20816 4.80355 5.04692C4.83045 5.10785 4.85624 5.16705 4.87906 5.22354C5.05245 5.65188 4.57311 6.14144 4.57311 6.14144C4.87906 6.26382 4.90967 6.33521 5.33801 6.86555C5.76635 7.39589 6.15391 7.1715 6.15391 7.1715C6.15391 7.1715 6.09879 6.83194 6.38031 6.6886C6.66189 6.54526 6.66827 6.36095 6.66827 6.36095C7.37091 6.52604 7.41315 6.23809 7.38245 6.13825C7.35174 6.03845 7.39013 5.881 7.39013 5.881C7.39013 5.881 7.46087 5.88545 7.51299 5.8503C7.59554 5.79466 7.5399 5.66219 7.5399 5.66219C7.62052 5.6238 7.65127 5.53933 7.58982 5.47404C7.52837 5.40879 7.53221 5.33585 7.53221 5.33585C7.53221 5.33585 7.69346 5.34733 7.73949 5.25523ZM4.29993 4.84906C4.18391 4.81685 4.08862 4.73529 4.0169 4.60686C3.98278 4.54569 3.74409 3.9028 3.57422 3.43748L3.93051 3.51341L3.99749 4.04816L4.09438 4.03607L3.99656 3.25457L4.3994 3.39642C4.35093 3.5497 4.20435 4.04596 4.22249 4.38252C4.2292 4.51161 4.27349 4.60751 4.35412 4.66775C4.4271 4.72226 4.51476 4.73501 4.58169 4.73501C4.62116 4.73501 4.64802 4.73117 4.66616 4.72798C4.67614 4.75254 4.68646 4.77668 4.69672 4.80096C4.6401 4.82867 4.47411 4.89846 4.29993 4.84906ZM4.68271 6.86907C4.66902 6.91721 4.64 6.97618 4.57944 6.97871C4.57818 6.97871 4.57658 6.97871 4.57499 6.97871C4.50838 6.97871 4.43347 6.91337 4.41022 6.83368C4.40905 6.82955 4.40662 6.82744 4.4053 6.82346L4.45504 6.6594L4.68271 6.86907ZM4.46661 6.28454L4.34212 6.69432C4.26135 6.58473 4.1482 6.54596 4.0934 6.53312C4.06663 6.4525 3.98695 6.20134 3.94551 5.9537C3.93684 5.90144 3.93257 5.85691 3.92864 5.81289C4.13488 6.11481 4.36738 6.24512 4.46661 6.28454ZM4.4204 5.50338C4.3844 5.53141 4.33115 5.54196 4.27476 5.55339C4.19474 5.56933 4.10456 5.58752 4.05356 5.66496C4.0349 5.69327 4.02571 5.7288 4.02098 5.76841C3.98845 5.72242 3.95512 5.68357 3.9247 5.6276C3.94631 5.37837 4.08196 5.31523 4.24321 5.24074C4.47576 5.13312 4.52971 5.01842 4.55272 4.94993C4.6356 4.93376 4.69771 4.90812 4.7345 4.89064C4.73633 4.8949 4.73816 4.89879 4.74003 4.90306C4.71439 5.01602 4.62622 5.34265 4.4204 5.50338ZM4.96733 5.06323L4.76764 4.6332L7.11746 3.54276C7.27107 3.8346 7.28645 4.18011 7.28645 4.18011L4.96733 5.06323Z" fill="#464655"/>
<path d="M20.5667 5.25523C20.6362 5.11624 20.252 4.66606 20.2724 4.56411C20.2927 4.46216 20.3383 4.30583 20.175 3.71427C20.0118 3.12272 19.5216 2.97979 18.9301 2.91858C18.3385 2.85741 17.5564 3.28162 17.3798 3.74469C17.2732 4.02416 17.3453 4.33634 17.4572 4.63348C17.407 4.63892 17.3108 4.64168 17.2399 4.58928C17.1835 4.54719 17.1526 4.4758 17.1471 4.37731C17.1274 4.00218 17.332 3.3877 17.3342 3.38165L17.3495 3.33576L16.707 3.10917L16.7448 3.41067L16.249 3.30487L16.2793 3.38807C16.3229 3.50793 16.707 4.56158 16.7586 4.65467C16.8434 4.80668 16.9585 4.9039 17.1006 4.94342C17.1516 4.95776 17.202 4.9632 17.2498 4.9632C17.2559 4.9632 17.2611 4.9616 17.2671 4.96146C17.238 5.01504 17.1792 5.08263 17.0292 5.1522C16.8534 5.23324 16.6753 5.32062 16.6559 5.64888L16.6506 5.65164C16.6522 5.65469 16.6541 5.65633 16.6557 5.65933C16.6514 5.74605 16.6554 5.84519 16.6761 5.96973C16.7278 6.27761 16.8326 6.57976 16.8371 6.59251L16.8473 6.62152L16.8779 6.62504C16.8802 6.62504 17.0819 6.64927 17.1438 6.86119C17.1795 6.98391 17.292 7.07696 17.4026 7.07696C17.4054 7.07696 17.4083 7.07663 17.4112 7.07663C17.459 7.07438 17.5747 7.04954 17.6123 6.86213L17.6177 6.83504L17.3138 6.55543L17.4156 6.21958L17.3672 6.2065C17.3644 6.20579 17.1631 6.14523 16.9548 5.91803C16.9355 5.82447 16.9378 5.75688 16.9627 5.71853C16.9911 5.6755 17.0513 5.66341 17.1211 5.64939C17.1861 5.63632 17.2534 5.62296 17.3079 5.58053C17.483 5.44361 17.5811 5.20821 17.6307 5.04696C17.6576 5.1079 17.6834 5.1671 17.7063 5.22359C17.8796 5.65193 17.4003 6.14148 17.4003 6.14148C17.7063 6.26387 17.7369 6.33526 18.1652 6.8656C18.5935 7.39594 18.9811 7.17155 18.9811 7.17155C18.9811 7.17155 18.926 6.83199 19.2075 6.68865C19.4891 6.54531 19.4955 6.361 19.4955 6.361C20.1981 6.52609 20.2403 6.23814 20.2096 6.13829C20.1789 6.0385 20.2173 5.88105 20.2173 5.88105C20.2173 5.88105 20.2881 5.8855 20.3402 5.85034C20.4227 5.7947 20.3671 5.66224 20.3671 5.66224C20.4477 5.62385 20.4785 5.53938 20.417 5.47408C20.3556 5.40883 20.3594 5.3359 20.3594 5.3359C20.3594 5.3359 20.5207 5.34733 20.5667 5.25523ZM17.1271 4.84906C17.0111 4.81685 16.9158 4.73529 16.8441 4.60681C16.81 4.54564 16.5713 3.90275 16.4014 3.43743L16.7577 3.51337L16.8247 4.04811L16.9216 4.03602L16.8238 3.25453L17.2266 3.39637C17.1781 3.54965 17.0315 4.04591 17.0497 4.38247C17.0564 4.51156 17.1007 4.60747 17.1813 4.6677C17.2543 4.72222 17.3419 4.73497 17.4089 4.73497C17.4484 4.73497 17.4752 4.73112 17.4934 4.72793C17.5033 4.7525 17.5137 4.77664 17.5239 4.80092C17.4673 4.82867 17.3014 4.89846 17.1271 4.84906ZM17.5099 6.86907C17.4962 6.91721 17.4672 6.97618 17.4066 6.97871C17.4054 6.97871 17.4038 6.97871 17.4022 6.97871C17.3356 6.97871 17.2607 6.91337 17.2374 6.83368C17.2362 6.82955 17.2338 6.82744 17.2325 6.82346L17.2822 6.6594L17.5099 6.86907ZM17.2938 6.28454L17.1693 6.69432C17.0885 6.58473 16.9754 6.54596 16.9206 6.53312C16.8938 6.4525 16.8141 6.20134 16.7727 5.9537C16.764 5.90144 16.7598 5.85691 16.7558 5.81289C16.9621 6.11481 17.1946 6.24512 17.2938 6.28454ZM17.2476 5.50338C17.2116 5.53141 17.1583 5.54196 17.102 5.55339C17.0219 5.56933 16.9318 5.58752 16.8808 5.66496C16.8621 5.69327 16.8529 5.7288 16.8482 5.76841C16.8156 5.72242 16.7823 5.68357 16.7519 5.6276C16.7735 5.37837 16.9092 5.31523 17.0704 5.24074C17.3029 5.13312 17.3569 5.01842 17.3799 4.94993C17.4628 4.93376 17.5249 4.90812 17.5617 4.89064C17.5635 4.8949 17.5654 4.89879 17.5672 4.90306C17.5416 5.01602 17.4534 5.34265 17.2476 5.50338ZM17.7946 5.06323L17.5949 4.6332L19.9447 3.54276C20.0983 3.8346 20.1136 4.18011 20.1136 4.18011L17.7946 5.06323Z" fill="#464655"/>
<path d="M7.73954 19.0832C7.809 18.9442 7.42482 18.494 7.44521 18.3921C7.4656 18.2901 7.51112 18.1338 7.3479 17.5423C7.18473 16.9507 6.69447 16.8078 6.10291 16.7466C5.51135 16.6853 4.7293 17.1096 4.55268 17.5727C4.44608 17.8521 4.51818 18.1643 4.63002 18.4615C4.57982 18.4669 4.48368 18.4697 4.41276 18.4173C4.35637 18.3752 4.32543 18.3038 4.31999 18.2053C4.30021 17.8302 4.50486 17.2157 4.50707 17.2096L4.52235 17.1637L3.87984 16.9372L3.91762 17.2386L3.42188 17.1329L3.45216 17.2161C3.49584 17.3359 3.87989 18.3896 3.9315 18.4827C4.01629 18.6347 4.13132 18.7319 4.27349 18.7714C4.32449 18.7857 4.37483 18.7912 4.42265 18.7912C4.42879 18.7912 4.43394 18.7896 4.43999 18.7894C4.41088 18.843 4.35201 18.9106 4.2021 18.9802C4.02623 19.0612 3.8482 19.1486 3.82875 19.4769L3.8235 19.4796C3.82509 19.4827 3.82692 19.4843 3.82851 19.4873C3.82429 19.574 3.82823 19.6732 3.849 19.7977C3.9006 20.1056 4.00546 20.4077 4.00996 20.4205L4.02018 20.4495L4.05079 20.453C4.05304 20.453 4.25479 20.4773 4.31662 20.6892C4.35233 20.8119 4.46483 20.9049 4.57541 20.9049C4.57827 20.9049 4.58113 20.9046 4.58404 20.9046C4.63185 20.9024 4.74753 20.8775 4.78513 20.6901L4.79056 20.663L4.48668 20.3834L4.58849 20.0476L4.54002 20.0345C4.53721 20.0338 4.33593 19.9732 4.12762 19.746C4.10835 19.6525 4.1106 19.5849 4.13554 19.5465C4.1639 19.5035 4.22413 19.4914 4.29393 19.4774C4.35894 19.4643 4.42621 19.4509 4.48068 19.4085C4.65585 19.2716 4.75391 19.0362 4.80355 18.8749C4.83045 18.9358 4.85624 18.9951 4.87906 19.0516C5.05245 19.4799 4.57311 19.9695 4.57311 19.9695C4.87906 20.0919 4.90967 20.1632 5.33801 20.6936C5.76635 21.2239 6.15391 20.9995 6.15391 20.9995C6.15391 20.9995 6.09879 20.66 6.38032 20.5166C6.66189 20.3733 6.66826 20.189 6.66826 20.189C7.37091 20.3541 7.41315 20.0661 7.38245 19.9663C7.35174 19.8665 7.39013 19.709 7.39013 19.709C7.39013 19.709 7.46087 19.7135 7.51299 19.6783C7.59554 19.6227 7.5399 19.4902 7.5399 19.4902C7.62052 19.4518 7.65127 19.3674 7.58982 19.3021C7.52837 19.2368 7.53221 19.1639 7.53221 19.1639C7.53221 19.1639 7.69351 19.1753 7.73954 19.0832ZM4.29998 18.677C4.18396 18.6448 4.08867 18.5633 4.01695 18.4348C3.98282 18.3736 3.74414 17.7307 3.57426 17.2654L3.93056 17.3414L3.99754 17.8761L4.09443 17.864L3.9966 17.0825L4.39944 17.2244C4.35098 17.3777 4.2044 17.8739 4.22254 18.2105C4.22924 18.3395 4.27354 18.4355 4.35416 18.4957C4.42715 18.5502 4.5148 18.5629 4.58174 18.5629C4.62121 18.5629 4.64807 18.5591 4.66621 18.5559C4.67619 18.5805 4.6865 18.6046 4.69677 18.6289C4.64014 18.6567 4.47416 18.7264 4.29998 18.677ZM4.68275 20.6971C4.66907 20.7452 4.64005 20.8042 4.57949 20.8067C4.57822 20.8067 4.57663 20.8067 4.57504 20.8067C4.50843 20.8067 4.43352 20.7413 4.41027 20.6617C4.4091 20.6575 4.40666 20.6554 4.40535 20.6514L4.45508 20.4874L4.68275 20.6971ZM4.46666 20.1125L4.34216 20.5223C4.2614 20.4127 4.14824 20.3739 4.09345 20.3611C4.06668 20.2805 3.98699 20.0293 3.94556 19.7817C3.93689 19.7294 3.93262 19.6849 3.92868 19.6409C4.13493 19.9428 4.36743 20.0731 4.46666 20.1125ZM4.42044 19.3314C4.38444 19.3594 4.33119 19.3699 4.2748 19.3814C4.19479 19.3974 4.1046 19.4156 4.0536 19.493C4.03495 19.5213 4.02576 19.5568 4.02103 19.5964C3.98849 19.5505 3.95517 19.5116 3.92474 19.4556C3.94635 19.2064 4.08201 19.1433 4.24326 19.0688C4.4758 18.9611 4.52975 18.8464 4.55277 18.778C4.63564 18.7618 4.69775 18.7362 4.73455 18.7187C4.73638 18.7229 4.73821 18.7268 4.74008 18.7311C4.71444 18.844 4.62627 19.1706 4.42044 19.3314ZM4.96738 18.8912L4.76769 18.4612L7.11751 17.3707C7.27112 17.6626 7.28649 18.0081 7.28649 18.0081L4.96738 18.8912Z" fill="#464655"/>
<path d="M20.5667 19.0832C20.6362 18.9442 20.252 18.494 20.2724 18.3921C20.2927 18.2901 20.3383 18.1338 20.175 17.5423C20.0119 16.9507 19.5216 16.8078 18.9301 16.7466C18.3385 16.6854 17.5564 17.1096 17.3798 17.5727C17.2732 17.8522 17.3453 18.1643 17.4572 18.4615C17.407 18.4669 17.3108 18.4697 17.2399 18.4173C17.1835 18.3752 17.1526 18.3038 17.1471 18.2053C17.1274 17.8302 17.332 17.2157 17.3342 17.2096L17.3495 17.1638L16.707 16.9372L16.7448 17.2387L16.249 17.1329L16.2793 17.2161C16.3229 17.3359 16.707 18.3896 16.7586 18.4827C16.8434 18.6347 16.9585 18.7319 17.1006 18.7714C17.1516 18.7858 17.202 18.7912 17.2498 18.7912C17.2559 18.7912 17.2611 18.7896 17.2671 18.7895C17.238 18.843 17.1792 18.9106 17.0292 18.9802C16.8534 19.0612 16.6753 19.1486 16.6559 19.4769L16.6506 19.4796C16.6522 19.4827 16.6541 19.4843 16.6557 19.4873C16.6514 19.574 16.6554 19.6732 16.6761 19.7977C16.7278 20.1056 16.8326 20.4078 16.8371 20.4205L16.8473 20.4495L16.8779 20.453C16.8802 20.453 17.0819 20.4773 17.1438 20.6892C17.1795 20.8119 17.292 20.9049 17.4026 20.9049C17.4054 20.9049 17.4083 20.9046 17.4112 20.9046C17.459 20.9024 17.5747 20.8775 17.6123 20.6901L17.6177 20.663L17.3138 20.3834L17.4156 20.0476L17.3672 20.0345C17.3644 20.0338 17.1631 19.9732 16.9548 19.746C16.9355 19.6525 16.9378 19.5849 16.9627 19.5465C16.9911 19.5035 17.0513 19.4914 17.1211 19.4774C17.1861 19.4643 17.2534 19.4509 17.3079 19.4085C17.483 19.2716 17.5811 19.0362 17.6307 18.875C17.6576 18.9358 17.6834 18.9951 17.7063 19.0516C17.8796 19.4799 17.4003 19.9695 17.4003 19.9695C17.7063 20.0919 17.7369 20.1633 18.1652 20.6936C18.5935 21.2239 18.9811 20.9995 18.9811 20.9995C18.9811 20.9995 18.926 20.66 19.2075 20.5166C19.4891 20.3733 19.4955 20.189 19.4955 20.189C20.1981 20.3541 20.2403 20.0661 20.2096 19.9663C20.1789 19.8665 20.2173 19.709 20.2173 19.709C20.2173 19.709 20.2881 19.7135 20.3402 19.6783C20.4227 19.6227 20.3671 19.4902 20.3671 19.4902C20.4477 19.4518 20.4785 19.3674 20.417 19.3021C20.3556 19.2368 20.3594 19.1639 20.3594 19.1639C20.3594 19.1639 20.5207 19.1753 20.5667 19.0832ZM17.1271 18.677C17.0111 18.6448 16.9158 18.5633 16.8441 18.4348C16.81 18.3736 16.5713 17.7307 16.4014 17.2654L16.7577 17.3414L16.8247 17.8761L16.9216 17.864L16.8238 17.0825L17.2266 17.2244C17.1781 17.3777 17.0315 17.8739 17.0497 18.2105C17.0564 18.3396 17.1007 18.4355 17.1813 18.4957C17.2543 18.5502 17.3419 18.563 17.4089 18.563C17.4484 18.563 17.4752 18.5591 17.4934 18.5559C17.5033 18.5805 17.5137 18.6046 17.5239 18.6289C17.4673 18.6567 17.3014 18.7265 17.1271 18.677ZM17.5099 20.6971C17.4962 20.7452 17.4672 20.8042 17.4066 20.8067C17.4054 20.8067 17.4038 20.8067 17.4022 20.8067C17.3356 20.8067 17.2607 20.7414 17.2374 20.6617C17.2362 20.6575 17.2338 20.6554 17.2325 20.6515L17.2822 20.4874L17.5099 20.6971ZM17.2938 20.1125L17.1693 20.5223C17.0885 20.4127 16.9754 20.374 16.9206 20.3611C16.8938 20.2805 16.8141 20.0293 16.7727 19.7817C16.764 19.7294 16.7598 19.6849 16.7558 19.6409C16.9621 19.9428 17.1946 20.0731 17.2938 20.1125ZM17.2476 19.3314C17.2116 19.3594 17.1583 19.3699 17.102 19.3814C17.0219 19.3974 16.9318 19.4156 16.8808 19.493C16.8621 19.5213 16.8529 19.5568 16.8482 19.5964C16.8156 19.5505 16.7823 19.5116 16.7519 19.4556C16.7735 19.2064 16.9092 19.1433 17.0704 19.0688C17.3029 18.9612 17.3569 18.8465 17.3799 18.778C17.4628 18.7618 17.5249 18.7362 17.5617 18.7187C17.5635 18.7229 17.5654 18.7268 17.5672 18.7311C17.5416 18.844 17.4534 19.1706 17.2476 19.3314ZM17.7946 18.8912L17.5949 18.4612L19.9447 17.3707C20.0983 17.6626 20.1136 18.0081 20.1136 18.0081L17.7946 18.8912Z" fill="#464655"/>
</g>
<defs>
<clipPath id="clip0_72_3524">
<path d="M0 2C0 0.895432 0.895431 0 2 0H21.9998C23.1043 0 23.9998 0.895431 23.9998 2V21.9998C23.9998 23.1043 23.1043 23.9998 21.9998 23.9998H2C0.895432 23.9998 0 23.1043 0 21.9998V2Z" fill="white"/>
</clipPath>
</defs>
</svg>
