<svg width="24" height="24" viewBox="0 0 24 24" fill="none" xmlns="http://www.w3.org/2000/svg">
<g clip-path="url(#clip0_72_3532)">
<path d="M23.9988 6.10352e-05H-0.000976562V23.9998H23.9988V6.10352e-05Z" fill="#73AF00"/>
<path d="M3.60297 8.98745C3.65168 9.2995 3.8403 9.39746 4.00431 9.38471C4.19772 9.36971 4.36736 9.19286 4.36736 9.00611V7.93512C4.36736 7.88149 4.411 7.83776 4.46472 7.83776C4.51843 7.83776 4.56207 7.88149 4.56207 7.93512V9.0107C4.56207 9.14003 4.62596 9.26059 4.73312 9.33301C4.79856 9.37731 4.87468 9.40014 4.95141 9.40014C5.0003 9.40014 5.04933 9.39081 5.09612 9.3722L5.19343 9.33329C5.20238 10.2323 5.14772 11.0224 5.14669 11.0369C5.1391 11.1441 5.21982 11.2373 5.32707 11.2449C5.3318 11.2453 5.33649 11.2455 5.34113 11.2455C5.44238 11.2455 5.52788 11.1672 5.53519 11.0646C5.53974 11.0013 5.59974 10.1361 5.58174 9.17795L5.64056 9.15442C5.69217 9.13389 5.75011 9.13637 5.79975 9.16107C6.01425 9.26795 6.27229 9.22632 6.44184 9.05687L6.4769 9.0219C6.63426 8.86427 6.68835 8.63528 6.6179 8.42402L6.45205 7.92654C6.54173 7.95354 6.64021 7.91379 6.68348 7.82745C6.73157 7.73121 6.69262 7.61426 6.59638 7.56617L6.2069 7.37145C6.13645 7.33606 6.05193 7.34694 5.99222 7.39845C5.93269 7.45015 5.91014 7.53251 5.93508 7.60723L6.24839 8.54721C6.27187 8.61756 6.25382 8.69402 6.20142 8.74652L6.16645 8.78149C6.11568 8.83225 6.03839 8.84462 5.9737 8.81266C5.84747 8.74961 5.70384 8.7378 5.56903 8.77216C5.54166 8.14713 5.47435 7.52473 5.33096 7.09452C5.29702 6.99261 5.18691 6.93725 5.08458 6.97147C4.98254 7.00532 4.92741 7.11561 4.96144 7.21775C5.10174 7.63854 5.16291 8.27979 5.18452 8.91737L4.95146 9.01061V7.93502C4.95146 7.66653 4.73307 7.44819 4.46462 7.44819C4.19617 7.44819 3.97778 7.66648 3.97778 7.93502V8.87767L3.77918 7.8964C3.75799 7.79084 3.65538 7.72203 3.54972 7.74406C3.44426 7.76553 3.3761 7.86823 3.39748 7.9736L3.60297 8.98745Z" fill="#F5F5F5"/>
<path d="M3.97792 7.35093C4.08545 7.35093 4.17264 7.26383 4.17264 7.15621V6.96149C4.17264 6.85387 4.08545 6.76678 3.97792 6.76678C3.87039 6.76678 3.7832 6.85387 3.7832 6.96149V7.15621C3.7832 7.26379 3.87039 7.35093 3.97792 7.35093Z" fill="#F5F5F5"/>
<path d="M5.92519 7.15616H6.1199C6.22743 7.15616 6.31462 7.06907 6.31462 6.96145C6.31462 6.85382 6.22743 6.76673 6.1199 6.76673H5.92519C5.81766 6.76673 5.73047 6.85382 5.73047 6.96145C5.73042 7.06907 5.81761 7.15616 5.92519 7.15616Z" fill="#F5F5F5"/>
<path d="M4.65608 9.71542L3.68245 10.2996C3.5902 10.355 3.56034 10.4746 3.6157 10.5668C3.65222 10.6276 3.71667 10.6613 3.78286 10.6613C3.81698 10.6613 3.85153 10.6523 3.88289 10.6336L4.85652 10.0494C4.94877 9.994 4.97862 9.87442 4.92327 9.78217C4.86791 9.68992 4.74842 9.66006 4.65608 9.71542Z" fill="#F5F5F5"/>
<path d="M7.2818 10.0599L7.28635 10.0568C7.30271 10.1226 7.33074 10.1863 7.37621 10.2397C7.45533 10.3329 7.57397 10.3797 7.70803 10.3687C7.8982 10.3548 8.02753 10.2679 8.11308 10.1557C8.12611 10.1646 8.1398 10.1728 8.15414 10.18C8.25937 10.2331 8.38111 10.2291 8.49703 10.169C8.7913 10.0174 8.85473 9.66677 8.84577 9.48344C8.84052 9.37657 8.74963 9.30105 8.64304 9.29899C8.53607 9.30354 8.45287 9.39424 8.45667 9.50111C8.45676 9.5036 8.46112 9.73464 8.31984 9.82042C8.29683 9.78827 8.26945 9.71603 8.25918 9.65631C8.24273 9.5561 8.15072 9.4863 8.05162 9.49432C7.95066 9.50228 7.87266 9.58713 7.87228 9.68847C7.87219 9.71678 7.86591 9.96667 7.67297 9.98758C7.65052 9.95697 7.65014 9.82802 7.67222 9.73277C7.69088 9.65463 7.65947 9.57302 7.59338 9.52741C7.5271 9.48157 7.43972 9.48157 7.37326 9.52666L7.26455 9.60058C7.21295 8.47133 7.09407 7.15537 7.09257 7.13859C7.08287 7.03171 6.98874 6.95203 6.88103 6.96229C6.77387 6.972 6.69493 7.06668 6.70464 7.17393C6.70632 7.19193 6.84385 8.71442 6.88628 9.87714C6.87634 9.88661 6.86607 9.89697 6.85632 9.90601C6.77931 9.71186 6.62669 9.58956 6.43009 9.57096C6.15264 9.54644 5.85199 9.73525 5.74427 10.0049C5.65137 10.2369 5.70987 10.4649 5.89319 10.5857C6.02496 10.6726 6.22389 10.7 6.47397 10.6123C6.41294 10.8268 6.30175 11.0444 6.15724 11.2127C6.02782 11.3635 5.81172 11.5375 5.53512 11.5297C5.37415 11.5234 5.25045 11.4707 5.15698 11.3685C4.93156 11.1222 4.95092 10.6764 4.95111 10.6717C4.95673 10.5645 4.87456 10.473 4.76741 10.4671C4.6595 10.4557 4.5681 10.5434 4.56224 10.6508C4.56092 10.6755 4.53266 11.2613 4.868 11.6296C5.03304 11.8112 5.25242 11.9084 5.51988 11.9189C5.53291 11.9194 5.54595 11.9196 5.55907 11.9196C5.8848 11.9196 6.20088 11.7599 6.45264 11.4664C6.68945 11.1907 6.85028 10.8161 6.89856 10.4683C6.8979 11.1345 6.49651 11.8858 5.96421 12.2168C5.73818 12.3571 5.38582 12.4838 4.98884 12.2881C4.49957 12.0466 4.55783 11.4873 4.56041 11.4645C4.57381 11.3578 4.49802 11.2605 4.39133 11.2471C4.28511 11.2342 4.18719 11.3093 4.17398 11.4162C4.16962 11.451 4.07605 12.272 4.81653 12.6373C5.0067 12.7312 5.20559 12.7778 5.40603 12.7778C5.66351 12.7778 5.92338 12.7008 6.16971 12.5475C6.8177 12.1447 7.28809 11.2696 7.28809 10.4667C7.28818 10.3412 7.28584 10.204 7.2818 10.0599ZM6.10764 10.2606C6.07286 10.2376 6.10005 10.164 6.10591 10.1494C6.14688 10.0467 6.27517 9.95791 6.37764 9.95791C6.38289 9.95791 6.38819 9.95809 6.39334 9.95865C6.41823 9.96095 6.48433 9.96723 6.51278 10.1142C6.51583 10.1298 6.5184 10.1458 6.52037 10.1621C6.30334 10.2895 6.15785 10.2935 6.10764 10.2606Z" fill="#F5F5F5"/>
<path d="M4.07595 12.0516C3.9837 11.9974 3.8645 12.0284 3.8097 12.1206C3.80075 12.1356 3.78889 12.152 3.7768 12.1669C3.77469 12.1619 3.77262 12.1566 3.77051 12.1509C3.68933 11.9343 3.74712 11.6005 3.77633 11.4902C3.8038 11.3864 3.74202 11.2799 3.63819 11.2522C3.53455 11.2255 3.42796 11.286 3.40011 11.3898C3.38596 11.4425 3.26624 11.9152 3.40583 12.2876C3.49522 12.5257 3.63242 12.5858 3.73189 12.594C3.74075 12.5947 3.74947 12.5951 3.75814 12.5951C3.96781 12.5951 4.10726 12.3838 4.14607 12.3169C4.19989 12.224 4.16839 12.106 4.07595 12.0516Z" fill="#F5F5F5"/>
<path d="M7.66947 8.51928C7.71161 8.51928 7.75399 8.50578 7.78966 8.47765L8.7714 7.70689C8.78495 7.69625 8.79362 7.68233 8.80351 7.66921C8.94488 7.58394 9.04055 7.43038 9.04055 7.25352C9.04055 6.98503 8.82216 6.76668 8.55371 6.76668C8.28526 6.76668 8.06687 6.98498 8.06687 7.25352C8.06687 7.40376 8.13667 7.53655 8.24392 7.62594L7.54905 8.17147C7.46454 8.23784 7.44977 8.36028 7.51615 8.44475C7.55463 8.49378 7.61177 8.51928 7.66947 8.51928ZM8.55376 7.15616C8.60748 7.15616 8.65112 7.1999 8.65112 7.25352C8.65112 7.30715 8.60748 7.35088 8.55376 7.35088C8.50004 7.35088 8.4564 7.30715 8.4564 7.25352C8.4564 7.1999 8.50004 7.15616 8.55376 7.15616Z" fill="#F5F5F5"/>
<path d="M8.32309 8.33464C8.22048 8.30042 8.11066 8.35573 8.07672 8.45768C8.05591 8.52007 7.96178 8.84126 8.15261 9.03199C8.22667 9.10615 8.32403 9.14322 8.44356 9.14304C8.52343 9.14304 8.6132 9.12668 8.71253 9.0934C8.81457 9.05955 8.8697 8.94926 8.83566 8.84712C8.80163 8.74521 8.69153 8.68967 8.58929 8.72407C8.4805 8.76021 8.43451 8.75431 8.43029 8.7581C8.41881 8.72918 8.4264 8.64228 8.44637 8.58012C8.47998 8.4784 8.42481 8.36848 8.32309 8.33464Z" fill="#F5F5F5"/>
<path d="M10.5523 7.52966C10.5706 7.53501 10.5889 7.53744 10.607 7.53744C10.6913 7.53744 10.769 7.48232 10.7938 7.39729L10.9075 7.00781C10.9376 6.90454 10.8782 6.79636 10.7751 6.76631C10.6715 6.73645 10.5637 6.79542 10.5336 6.89869L10.42 7.28812C10.3898 7.39143 10.4492 7.49962 10.5523 7.52966Z" fill="#F5F5F5"/>
<path d="M9.41699 7.50683C9.44788 7.52488 9.48172 7.53346 9.5151 7.53346C9.58204 7.53346 9.64714 7.49905 9.68338 7.43704C9.73766 7.34422 9.70639 7.22483 9.61358 7.1706C9.5744 7.14777 9.57974 7.08332 9.58115 7.07057C9.58696 7.01943 9.61747 6.95704 9.67053 6.94049C9.77324 6.90853 9.83056 6.7994 9.7986 6.6967C9.76644 6.59381 9.6575 6.53695 9.55471 6.56854C9.36055 6.62901 9.21909 6.80873 9.19415 7.02627C9.17109 7.22882 9.25649 7.4129 9.41699 7.50683Z" fill="#F5F5F5"/>
<path d="M7.87245 10.6613C7.76492 10.6613 7.67773 10.7484 7.67773 10.856C7.67773 10.9511 7.7458 11.0302 7.83594 11.0473C7.8462 11.0623 7.87245 11.1139 7.87245 11.2454C7.87245 11.3531 7.95964 11.4402 8.06717 11.4402C8.1747 11.4402 8.26188 11.3531 8.26188 11.2454C8.26188 10.668 7.88834 10.6613 7.87245 10.6613Z" fill="#F5F5F5"/>
<path d="M11.1757 9.85501C11.2001 9.859 11.2245 9.86092 11.2489 9.86092C11.4019 9.86092 11.5565 9.78372 11.7096 9.63062C11.7857 9.55455 11.7857 9.43131 11.7096 9.35528C11.6335 9.27921 11.5103 9.27921 11.4342 9.35528C11.3178 9.47186 11.2551 9.47434 11.2391 9.47074C11.2019 9.46539 11.1682 9.41692 11.1607 9.40361C11.1118 9.30892 10.9961 9.27105 10.9007 9.31882C10.8044 9.36691 10.7655 9.48386 10.8136 9.58009C10.8256 9.60419 10.9381 9.81639 11.1757 9.85501Z" fill="#F5F5F5"/>
<path d="M14.4859 8.48656C14.4847 8.48351 14.4836 8.48066 14.4826 8.47798C14.4481 8.37683 14.3378 8.32184 14.2368 8.3563C14.1347 8.39014 14.0795 8.50044 14.1136 8.60258C14.1288 8.64823 14.2155 8.87717 14.4304 8.90609C14.4447 8.90801 14.459 8.90895 14.4732 8.90895C14.6081 8.90895 14.7347 8.82167 14.8498 8.64898C14.9095 8.55959 14.8853 8.43866 14.7958 8.37894C14.7063 8.31941 14.5853 8.34336 14.5258 8.43294C14.5104 8.45595 14.4971 8.47344 14.4859 8.48656Z" fill="#F5F5F5"/>
<path d="M14.1035 12.0244C14.1035 11.1939 14.067 10.4149 14.0163 9.73239C14.2928 10.2119 14.5415 10.6965 14.7 11.1192C14.7294 11.1974 14.8036 11.2455 14.8824 11.2455C14.9051 11.2455 14.9282 11.2415 14.9507 11.2331C15.0514 11.1953 15.1025 11.0831 15.0647 10.9823C14.8183 10.3252 14.3753 9.54264 13.9386 8.84801C13.8322 7.79905 13.713 7.13324 13.7109 7.12139C13.6916 7.01545 13.5905 6.94397 13.4845 6.96468C13.3786 6.9839 13.3084 7.08525 13.3277 7.19099C13.3292 7.19948 13.3906 7.54241 13.4639 8.11967C13.3143 7.89767 13.1753 7.69738 13.0587 7.53252L13.0682 7.53557C13.1708 7.56979 13.2806 7.51448 13.3146 7.41252C13.3486 7.31038 13.2935 7.20009 13.1914 7.16624L12.6072 6.97153C12.5262 6.94415 12.4373 6.97303 12.3877 7.04226C12.3744 7.06073 12.3653 7.08098 12.3592 7.10193C12.2427 7.01573 12.0932 6.9457 11.9528 7.00443C11.8679 7.03964 11.7667 7.12823 11.7667 7.35093C11.7667 7.52188 11.8319 7.70671 11.901 7.9026C12.0157 8.22739 12.0875 8.46626 11.966 8.58017C11.8989 8.64312 11.8319 8.66689 11.7665 8.65034C11.6464 8.61992 11.5275 8.45998 11.4483 8.22247C11.4449 8.21216 11.4377 8.2047 11.4328 8.19537C11.4738 7.89374 11.4559 7.53032 11.3734 7.11796C11.3524 7.0124 11.2501 6.94378 11.1442 6.96525C11.0388 6.98634 10.9704 7.08885 10.9915 7.19442C11.1186 7.83032 11.0805 8.34908 10.8895 8.58204C10.8156 8.67218 10.7231 8.71399 10.5982 8.71399C10.5588 8.71399 10.5319 8.70143 10.5051 8.67064C10.3514 8.49359 10.3521 7.92233 10.4016 7.57302C10.4095 7.51729 10.3928 7.46062 10.3558 7.41805C10.3188 7.37545 10.2652 7.35093 10.2088 7.35093C9.87371 7.35093 9.74668 7.73202 9.63456 8.06825C9.58538 8.216 9.49374 8.49078 9.42985 8.51932C9.31196 8.51932 9.23579 8.1732 9.23514 7.93494C9.23486 7.8275 9.14776 7.7406 9.04042 7.7406C9.04042 7.7406 9.04023 7.7406 9.04014 7.7406C8.9327 7.7406 8.8457 7.82769 8.8457 7.93513C8.8457 8.38428 8.9987 8.90876 9.4299 8.90876C9.75099 8.90876 9.88107 8.55884 9.98996 8.23367C10.0089 8.49228 10.0673 8.76026 10.2108 8.92568C10.3117 9.04207 10.4457 9.10347 10.5983 9.10347C10.8387 9.10347 11.0435 9.0086 11.1906 8.82907C11.2173 8.79659 11.2403 8.75928 11.263 8.72159C11.3761 8.88237 11.5147 8.9883 11.671 9.02777C11.7169 9.03935 11.763 9.04526 11.8086 9.04526C11.9589 9.04526 12.1058 8.98324 12.2327 8.86404C12.2591 8.83924 12.2776 8.81215 12.2977 8.78548C12.3453 8.79907 12.3936 8.80718 12.4415 8.80718C12.5993 8.80718 12.7511 8.74367 12.8454 8.6832C12.9355 8.6254 12.9616 8.50597 12.9043 8.41545C12.847 8.32512 12.727 8.29812 12.6362 8.35479C12.6346 8.35559 12.5045 8.43031 12.4158 8.41283C12.416 8.19936 12.3387 7.97263 12.2682 7.77289C12.2281 7.65918 12.187 7.5426 12.1676 7.44735C12.1836 7.46085 12.1993 7.47491 12.2133 7.4886C12.2892 7.56468 12.4125 7.56468 12.4886 7.4886C12.5011 7.47604 12.5084 7.46071 12.5168 7.44599C12.7187 7.72405 13.1338 8.30839 13.5609 8.98198C13.6424 9.80987 13.714 10.8661 13.714 12.0244C13.714 12.132 13.8011 12.2191 13.9087 12.2191C14.0162 12.2191 14.1035 12.132 14.1035 12.0244Z" fill="#F5F5F5"/>
<path d="M14.2983 7.74037C14.2983 7.84799 14.3855 7.93508 14.493 7.93508C14.6006 7.93508 14.6877 7.84799 14.6877 7.74037C14.6877 7.5112 14.5084 7.14098 14.4725 7.06907C14.4244 6.97303 14.3075 6.93426 14.2112 6.98198C14.115 7.03008 14.076 7.14703 14.1241 7.24326C14.1944 7.38379 14.2983 7.63883 14.2983 7.74037Z" fill="#F5F5F5"/>
<path d="M13.4118 12.0457C13.3164 11.997 13.199 12.0356 13.1505 12.1315C13.1296 12.1724 13.0971 12.2178 13.0697 12.2471C13.0611 12.1697 13.0817 12.0151 13.121 11.8869C13.1471 11.8013 13.1117 11.7089 13.035 11.6629C12.9587 11.6167 12.8603 11.6287 12.7971 11.692L12.4076 12.0815C12.3316 12.1576 12.3316 12.2808 12.4076 12.3568C12.4837 12.4329 12.607 12.4329 12.683 12.3568L12.6929 12.347C12.7097 12.4251 12.742 12.4964 12.7971 12.5516C12.8701 12.6246 12.9583 12.6632 13.0501 12.6632C13.0679 12.6632 13.0858 12.6617 13.1036 12.6588C13.3242 12.623 13.4615 12.3799 13.4984 12.3063C13.5464 12.2102 13.5076 12.094 13.4118 12.0457Z" fill="#F5F5F5"/>
<path d="M13.3366 10.4787H11.9642C11.9764 10.4302 11.9889 10.384 12.0016 10.3401C12.5489 10.2264 12.8742 10.0497 12.9699 9.81395C13.003 9.7322 13.0375 9.56692 12.8967 9.37693C12.7697 9.2058 12.5905 9.12897 12.4044 9.16698C12.1277 9.22309 11.8812 9.52126 11.7043 9.99858C11.1546 10.0927 10.8026 10.29 10.5799 10.4848C10.5009 9.68682 10.1911 9.21278 10.1761 9.19019C10.1164 9.10061 9.99545 9.07647 9.90606 9.13619C9.81658 9.19591 9.79244 9.31665 9.85206 9.40623C9.85558 9.41157 10.2088 9.9518 10.2088 10.8561C10.2088 11.7449 9.50008 12.4139 9.04048 12.4139C8.82181 12.4139 8.72614 12.154 8.68404 11.9343C9.13408 11.6188 9.53116 11.2539 9.61886 10.9033C9.7375 10.4288 9.58816 10.0791 9.48935 9.84765C9.48471 9.83701 9.47983 9.82557 9.47491 9.8138C9.47908 9.8176 9.48307 9.82159 9.4871 9.82538C9.56299 9.90146 9.68631 9.90146 9.76234 9.82538C9.83842 9.74931 9.83842 9.62607 9.76234 9.55004C9.64853 9.43614 9.42747 9.25717 9.22657 9.34126C9.14168 9.37647 9.04048 9.46506 9.04048 9.68776C9.04048 9.78835 9.08252 9.88665 9.13118 10.0008C9.21883 10.206 9.32791 10.4614 9.24101 10.809C9.18958 11.0147 8.93693 11.2642 8.60361 11.512C8.56789 11.4693 8.51623 11.4405 8.45628 11.4405H8.456C8.34856 11.4407 8.26156 11.5276 8.26156 11.6351C8.26156 11.6701 8.26306 11.7076 8.26536 11.746C7.84864 12.0159 7.37704 12.2657 7.01254 12.4315C6.91472 12.476 6.87145 12.5914 6.91593 12.6893C6.94856 12.761 7.01929 12.8034 7.09326 12.8034C7.12026 12.8034 7.14764 12.7979 7.1737 12.7859C7.2832 12.7362 7.80289 12.494 8.3367 12.1632C8.435 12.497 8.64336 12.8034 9.04043 12.8034C9.50758 12.8034 10.0375 12.4214 10.3434 11.8511C10.3802 11.9163 10.4227 11.9788 10.4733 12.0371C10.9635 12.6022 11.9208 12.6087 11.9613 12.6087C12.0662 12.6087 12.1521 12.5258 12.1559 12.421C12.1596 12.3162 12.0798 12.2272 11.9753 12.2198C11.9738 12.2196 11.8186 12.2025 11.7322 12.1018C11.6801 12.0409 11.6593 11.9572 11.6685 11.846C11.6885 11.606 12.4626 11.4267 13.1448 11.416C13.2261 11.4147 13.2981 11.3631 13.3254 11.2865L13.5201 10.7388C13.5413 10.6792 13.5322 10.6129 13.4957 10.5614C13.4592 10.5095 13.3998 10.4787 13.3366 10.4787ZM12.4818 9.54882C12.4855 9.54807 12.4905 9.5469 12.4966 9.5469C12.5153 9.5469 12.5446 9.55604 12.5838 9.60892C12.5912 9.61881 12.6149 9.65265 12.6089 9.66751C12.5866 9.72263 12.4521 9.81376 12.172 9.89626C12.2953 9.65588 12.4157 9.56214 12.4818 9.54882ZM11.3058 12.1086C11.108 12.0444 10.9064 11.9424 10.7668 11.781C10.6134 11.6036 10.5568 11.3792 10.5939 11.0953C10.5996 11.0804 10.6123 11.0509 10.6345 11.0127C10.9088 10.9876 11.6413 11.0957 11.6921 11.3055C11.4661 11.4209 11.2997 11.583 11.2804 11.8136C11.2709 11.9291 11.2826 12.027 11.3058 12.1086Z" fill="#F5F5F5"/>
<path d="M15.4571 7.67877L15.2624 7.09457C15.231 7.00064 15.1335 6.94453 15.037 6.96581C14.9399 6.98653 14.874 7.07685 14.8839 7.17557C15.0182 8.51928 15.2724 11.1398 15.2724 11.4402C15.2724 11.7101 14.7924 12.2414 14.0169 12.6291C13.9206 12.6772 13.8817 12.7942 13.9298 12.8904C13.9639 12.9587 14.0327 12.998 14.1042 12.998C14.1334 12.998 14.1631 12.9914 14.1911 12.9775C14.8994 12.6232 15.6618 11.9911 15.6618 11.4402C15.6618 11.1525 15.4628 9.08238 15.3488 7.91952C15.4412 7.88014 15.4894 7.77575 15.4571 7.67877Z" fill="#F5F5F5"/>
<path d="M17.0815 9.43586C17.119 9.47331 17.1688 9.4929 17.2193 9.4929C17.2522 9.4929 17.2854 9.48451 17.3155 9.4674C17.3917 9.42405 17.4295 9.33503 17.408 9.25005C17.3731 9.11313 17.3615 8.94199 17.3799 8.872C17.4775 8.87505 17.568 8.80563 17.5824 8.70504C17.5976 8.59854 17.5236 8.49987 17.4173 8.48463C17.2885 8.46715 17.1755 8.50498 17.0964 8.59282C17.0453 8.64987 17.0149 8.72308 16.9983 8.80183L16.7728 8.57632C16.6968 8.50024 16.5735 8.50024 16.4975 8.57632C16.4214 8.6524 16.4214 8.77563 16.4975 8.85166L17.0815 9.43586Z" fill="#F5F5F5"/>
<path d="M17.5195 9.63897L16.7893 10.1623C16.702 10.2249 16.6818 10.3466 16.7445 10.4341C16.7825 10.4871 16.8423 10.5152 16.903 10.5152C16.9422 10.5152 16.9819 10.5034 17.0162 10.4787L17.7464 9.95537C17.8338 9.8928 17.8539 9.77111 17.7913 9.68364C17.7285 9.59617 17.6066 9.57583 17.5195 9.63897Z" fill="#F5F5F5"/>
<path d="M17.4551 10.3713C17.3938 10.4502 17.4026 10.5613 17.4721 10.6295C17.4804 10.6436 17.5184 10.7182 17.5115 10.9098C17.5077 11.0175 17.5918 11.1076 17.6992 11.1114C17.7016 11.1116 17.704 11.1116 17.7063 11.1116C17.8106 11.1116 17.897 11.0288 17.9008 10.9239C17.9149 10.5264 17.7849 10.3812 17.7283 10.3373C17.6436 10.2709 17.5211 10.2865 17.4551 10.3713Z" fill="#F5F5F5"/>
<path d="M19.1541 11.8053C19.2617 11.8053 19.3488 11.7182 19.3488 11.6106C19.3488 11.3233 19.3341 11.0025 19.3099 10.6688C19.503 10.9852 19.6634 11.2769 19.7663 11.5169C19.7978 11.5908 19.8697 11.6349 19.9453 11.6349C19.9709 11.6349 19.9969 11.63 20.022 11.6191C20.1208 11.5767 20.1666 11.4622 20.1242 11.3636C19.9459 10.9475 19.6128 10.3964 19.2333 9.82745C19.1569 9.11271 19.0571 8.4124 18.9796 7.91C19.0209 7.91417 19.0637 7.90409 19.1012 7.87976C19.1627 7.84034 19.1916 7.77195 19.1874 7.70384C19.1924 7.72297 19.1978 7.74219 19.2089 7.75977C19.2102 7.76169 19.3354 7.96836 19.2798 8.23653C19.2581 8.34167 19.3258 8.44474 19.4311 8.46663C19.4444 8.46931 19.4577 8.47062 19.4708 8.47062C19.5612 8.47062 19.6422 8.40729 19.6613 8.31528C19.7493 7.88989 19.5462 7.5643 19.5375 7.55061C19.4797 7.4601 19.3593 7.43347 19.2686 7.49089C19.2069 7.53027 19.1777 7.59875 19.1817 7.66695C19.1766 7.64769 19.1711 7.62833 19.1598 7.61066L18.8312 7.09949C18.781 7.02154 18.6828 6.98994 18.5965 7.02341C18.5101 7.05726 18.4595 7.14721 18.4756 7.23847C18.4783 7.2538 18.6271 8.10832 18.759 9.13825C18.6097 8.92741 18.4604 8.7213 18.3156 8.52462C18.2921 8.23001 18.2685 7.95762 18.2481 7.73239C18.2588 7.72916 18.2694 7.72498 18.2797 7.71983C18.376 7.67174 18.4149 7.55478 18.3668 7.45855L18.1721 7.06907C18.1301 6.98502 18.0342 6.94316 17.9438 6.96904C17.8536 6.99529 17.7948 7.08201 17.8041 7.17557C17.8274 7.40797 17.8515 7.66522 17.8753 7.93545C17.7521 7.77308 17.6382 7.62449 17.5407 7.49867C17.5597 7.48231 17.576 7.46197 17.5879 7.43802C17.636 7.34178 17.5971 7.22483 17.5008 7.17674L17.1113 6.98202C17.0297 6.94134 16.9305 6.96262 16.8728 7.03373C16.8154 7.10483 16.8151 7.20641 16.8722 7.27789C16.8827 7.29097 17.3622 7.892 17.9357 8.66777C18.0352 9.95438 18.1014 11.2927 18.0079 11.5733C17.9908 11.6247 17.9609 11.6851 17.9329 11.6872C17.8152 11.7036 17.5343 11.4404 17.3932 11.1584C17.3119 10.996 17.195 10.9791 17.1324 10.9819C16.9231 10.9949 16.8414 11.2252 16.693 11.6431C16.5866 11.9427 16.4545 12.315 16.306 12.4673C16.2256 12.3691 16.1217 12.0394 16.0639 11.7006C16.091 11.7756 16.1611 11.8297 16.2454 11.8297C16.3529 11.8297 16.4401 11.7426 16.4401 11.635C16.4401 11.3446 16.237 9.133 16.1236 7.92087C16.2182 7.88286 16.2681 7.77692 16.2353 7.67881L16.0406 7.09462C16.0094 7.00068 15.9132 6.94532 15.8156 6.96566C15.7187 6.98619 15.6526 7.07615 15.662 7.17468C15.7944 8.56385 16.0425 11.247 16.0502 11.6174C16.0498 11.614 16.0491 11.6107 16.0486 11.6074C16.0335 11.5009 15.9341 11.4279 15.8283 11.4422C15.7218 11.4576 15.6479 11.5561 15.6631 11.6626C15.72 12.0606 15.8653 12.745 16.2 12.8564C16.2264 12.8654 16.262 12.8734 16.3037 12.8734C16.3805 12.8734 16.478 12.8462 16.5778 12.7463C16.7899 12.5343 16.9334 12.13 17.06 11.7734C17.0887 11.6928 17.1225 11.5973 17.1544 11.5156C17.3331 11.7765 17.6448 12.1013 17.9605 12.0758C18.0716 12.0679 18.2735 12.0081 18.3774 11.6967C18.4809 11.386 18.44 10.3027 18.3702 9.26552C18.5343 9.49548 18.6985 9.73089 18.8552 9.96348C18.9159 10.5466 18.9594 11.1308 18.9594 11.6107C18.9594 11.7182 19.0466 11.8053 19.1541 11.8053Z" fill="#F5F5F5"/>
<path d="M20.6319 10.7811C20.4939 9.75349 20.3017 8.56306 20.1801 7.83243C20.235 7.84593 20.2949 7.83491 20.3432 7.79783C20.4288 7.73258 20.4451 7.61033 20.3799 7.52493L20.027 7.06247C19.9725 6.99136 19.8764 6.96623 19.7942 7.00218C19.7119 7.03814 19.6649 7.12561 19.6803 7.21401C19.6838 7.23398 20.031 9.23299 20.2458 10.8328C20.3279 11.4442 20.2081 11.9905 19.9252 12.294C19.7434 12.4889 19.5025 12.5772 19.2109 12.5603C19.1039 12.5546 19.011 12.6352 19.0043 12.7425C18.9975 12.8497 19.079 12.9422 19.1864 12.949C19.2193 12.9511 19.2517 12.9521 19.2838 12.9521C19.651 12.9521 19.9697 12.8174 20.21 12.5596C20.577 12.1659 20.7307 11.5176 20.6319 10.7811Z" fill="#F5F5F5"/>
<path d="M18.4902 12.0647C18.4186 12.1425 18.4241 12.265 18.4998 12.3384C18.5103 12.3486 18.523 12.3688 18.5231 12.3787C18.5232 12.3842 18.5153 12.4006 18.4936 12.4222C18.4175 12.4983 18.4175 12.6215 18.4936 12.6976C18.5316 12.7356 18.5814 12.7546 18.6313 12.7546C18.6811 12.7546 18.7309 12.7356 18.7689 12.6976C18.8924 12.5742 18.9151 12.4489 18.9123 12.3654C18.9063 12.1857 18.784 12.0697 18.7595 12.0482C18.68 11.9789 18.5616 11.9873 18.4902 12.0647Z" fill="#F5F5F5"/>
<path d="M17.8037 16.3352H17.6089H16.4406V16.1405C16.4406 16.0328 16.3534 15.9458 16.2458 15.9458C16.1383 15.9458 16.0511 16.0328 16.0511 16.1405V16.3352H5.73047C6.1199 16.7247 6.89882 16.9194 7.48301 16.9194C7.90198 16.9194 13.1282 16.9194 16.0511 16.9194V17.3089C16.0511 17.4165 16.1383 17.5036 16.2458 17.5036H17.8036C18.1257 17.5036 18.3878 17.2416 18.3878 16.9194C18.3878 16.5973 18.1258 16.3352 17.8037 16.3352ZM17.8037 17.1141H16.4406V16.9194C17.379 16.9194 17.9984 16.9194 17.9984 16.9194L17.9635 16.8146C17.9837 16.8453 17.9984 16.8799 17.9984 16.9194C17.9984 17.0268 17.911 17.1141 17.8037 17.1141Z" fill="#F5F5F5"/>
</g>
<defs>
<clipPath id="clip0_72_3532">
<path d="M0 2C0 0.895432 0.895431 0 2 0H21.9998C23.1043 0 23.9998 0.895431 23.9998 2V21.9998C23.9998 23.1043 23.1043 23.9998 21.9998 23.9998H2C0.895432 23.9998 0 23.1043 0 21.9998V2Z" fill="white"/>
</clipPath>
</defs>
</svg>
