<svg width="24" height="24" viewBox="0 0 24 24" fill="none" xmlns="http://www.w3.org/2000/svg">
<g clip-path="url(#clip0_72_3563)">
<path d="M7.99813 6.10352e-05H-0.00195312V23.9998H7.99813V6.10352e-05Z" fill="#73AF00"/>
<path d="M15.9981 6.10352e-05H7.99805V23.9998H15.9981V6.10352e-05Z" fill="#FFE15A"/>
<path d="M23.9981 6.10352e-05H15.998V23.9998H23.9981V6.10352e-05Z" fill="#FF4B55"/>
<path d="M12.0936 9.64586L12.6417 11.2894L14.3741 11.3028C14.471 11.3036 14.5112 11.4272 14.4332 11.4847L13.0395 12.5139L13.5621 14.1657C13.5913 14.2581 13.4862 14.3345 13.4074 14.2782L11.9979 13.2707L10.5885 14.2781C10.5097 14.3345 10.4045 14.2581 10.4337 14.1657L10.9563 12.5139L9.56262 11.4847C9.48466 11.4271 9.52484 11.3035 9.62173 11.3028L11.3542 11.2893L11.9023 9.64581C11.9329 9.55398 12.063 9.55398 12.0936 9.64586Z" fill="#73AF00"/>
</g>
<defs>
<clipPath id="clip0_72_3563">
<path d="M0 2C0 0.895432 0.895431 0 2 0H21.9998C23.1043 0 23.9998 0.895431 23.9998 2V21.9998C23.9998 23.1043 23.1043 23.9998 21.9998 23.9998H2C0.895432 23.9998 0 23.1043 0 21.9998V2Z" fill="white"/>
</clipPath>
</defs>
</svg>
