<svg width="24" height="24" viewBox="0 0 24 24" fill="none" xmlns="http://www.w3.org/2000/svg">
<g clip-path="url(#clip0_72_3677)">
<path d="M23.9968 0.0234985H-0.00292969V12.0234H23.9968V0.0234985Z" fill="#FF4B55"/>
<path d="M23.9939 12.0234H-0.00585938V23.9764H23.9939V12.0234Z" fill="#F5F5F5"/>
<path d="M4.05182 5.7039C4.05182 3.67035 5.54397 1.98478 7.49231 1.67297C7.59811 1.65605 7.60289 1.51051 7.4985 1.48646C7.01616 1.37551 6.50382 1.34396 5.9718 1.41643C3.87032 1.70265 2.24597 3.52119 2.21626 5.64184C2.18236 8.06324 4.1345 10.035 6.54451 10.035C6.87254 10.035 7.19114 9.99663 7.49761 9.92618C7.60186 9.90222 7.59666 9.7563 7.491 9.73943C5.54332 9.42776 4.05182 7.74529 4.05182 5.7039Z" fill="#F5F5F5"/>
<path d="M7.52472 6.792L7.34167 7.3409L6.76305 7.3454C6.68815 7.34596 6.65707 7.44159 6.71735 7.48607L7.18282 7.8298L7.00826 8.38147C6.98566 8.45291 7.06699 8.51202 7.12793 8.46838L7.59864 8.13191L8.06935 8.46838C8.13029 8.51192 8.21162 8.45286 8.18902 8.38147L8.01446 7.8298L8.47993 7.48607C8.54016 7.44159 8.50913 7.34596 8.43423 7.3454L7.85561 7.3409L7.67256 6.792C7.64889 6.72094 7.54839 6.72094 7.52472 6.792Z" fill="#F5F5F5"/>
<path d="M10.3851 6.792L10.202 7.3409L9.62341 7.3454C9.5485 7.34596 9.51742 7.44159 9.5777 7.48607L10.0432 7.8298L9.86861 8.38147C9.84601 8.45291 9.92734 8.51202 9.98828 8.46838L10.459 8.13191L10.9297 8.46838C10.9906 8.51192 11.072 8.45286 11.0494 8.38147L10.8748 7.8298L11.3403 7.48607C11.4005 7.44159 11.3695 7.34596 11.2946 7.3454L10.716 7.3409L10.5329 6.792C10.5093 6.72094 10.4088 6.72094 10.3851 6.792Z" fill="#F5F5F5"/>
<path d="M8.96808 2.37839L8.78503 2.92729L8.20641 2.93179C8.13151 2.93235 8.10043 3.02798 8.16071 3.07246L8.62618 3.41619L8.45161 3.96786C8.42902 4.0393 8.51035 4.09841 8.57129 4.05476L9.042 3.7183L9.51271 4.05476C9.57365 4.09831 9.65498 4.03925 9.63238 3.96786L9.45782 3.41619L9.92329 3.07246C9.98352 3.02798 9.95249 2.93235 9.87759 2.93179L9.29897 2.92729L9.11592 2.37839C9.0923 2.30733 8.99175 2.30733 8.96808 2.37839Z" fill="#F5F5F5"/>
<path d="M6.6878 4.0693L6.50476 4.6182L5.92614 4.6227C5.85123 4.62326 5.82016 4.71888 5.88044 4.76337L6.3459 5.1071L6.17134 5.65876C6.14875 5.7302 6.23008 5.78931 6.29101 5.74567L6.76173 5.4092L7.23244 5.74567C7.29338 5.78922 7.3747 5.73015 7.35211 5.65876L7.17755 5.1071L7.64301 4.76337C7.70325 4.71888 7.67222 4.62326 7.59731 4.6227L7.01869 4.6182L6.83565 4.0693C6.81202 3.99823 6.71152 3.99823 6.6878 4.0693Z" fill="#F5F5F5"/>
<path d="M11.2288 4.0693L11.0458 4.6182L10.4672 4.6227C10.3923 4.62326 10.3612 4.71888 10.4215 4.76337L10.8869 5.1071L10.7124 5.65876C10.6898 5.7302 10.7711 5.78931 10.832 5.74567L11.3027 5.4092L11.7735 5.74567C11.8344 5.78922 11.9157 5.73015 11.8931 5.65876L11.7186 5.1071L12.184 4.76337C12.2443 4.71888 12.2132 4.62326 12.1383 4.6227L11.5597 4.6182L11.3767 4.0693C11.353 3.99823 11.2525 3.99823 11.2288 4.0693Z" fill="#F5F5F5"/>
</g>
<defs>
<clipPath id="clip0_72_3677">
<path d="M0 2C0 0.895432 0.895431 0 2 0H21.9998C23.1043 0 23.9998 0.895431 23.9998 2V21.9998C23.9998 23.1043 23.1043 23.9998 21.9998 23.9998H2C0.895432 23.9998 0 23.1043 0 21.9998V2Z" fill="white"/>
</clipPath>
</defs>
</svg>
