<svg width="24" height="24" viewBox="0 0 24 24" fill="none" xmlns="http://www.w3.org/2000/svg">
<g clip-path="url(#clip0_72_3794)">
<path d="M24.0027 6.10352e-05H0.00292969V23.9998H24.0027V6.10352e-05Z" fill="#F5F5F5"/>
<path d="M14.2995 8.55616C12.3982 7.28858 9.83004 7.80687 8.56331 9.70491C7.92792 10.6523 8.18615 11.9396 9.13682 12.5734C10.0867 13.2072 11.3699 12.9498 12.0037 11.9991C12.6375 11.0484 13.9215 10.7942 14.8714 11.4247C15.8229 12.0585 16.0787 13.3458 15.4441 14.2932C16.7117 12.3919 16.1993 9.82374 14.2995 8.55616Z" fill="#FF4B55"/>
<path d="M8.56347 9.70492C7.92809 10.6523 8.18632 11.9396 9.13698 12.5734C10.0869 13.2072 11.3701 12.9498 12.0039 11.9991C12.6377 11.0484 13.9217 10.7942 14.8716 11.4247C15.823 12.0585 16.0789 13.3459 15.4443 14.2932C14.1784 16.1979 11.6111 16.7095 9.70974 15.442C7.81006 14.1745 7.29594 11.6063 8.56347 9.70492Z" fill="#41479B"/>
<path d="M16.4037 6.99321L17.1554 8.12293C17.2185 8.21785 17.1929 8.34601 17.0982 8.40943L16.9076 8.53707C16.8125 8.60072 16.6838 8.57513 16.6203 8.47988L15.8678 7.35039C15.8044 7.25538 15.8301 7.12699 15.925 7.06361L16.1166 6.93574C16.2118 6.87222 16.3404 6.898 16.4037 6.99321Z" fill="#464655"/>
<path d="M17.5631 8.73517L18.3172 9.86423C18.3809 9.95958 18.3549 10.0885 18.2592 10.1518L18.0678 10.2783C17.9728 10.341 17.8449 10.3153 17.7817 10.2206L17.028 9.09277C16.9646 8.9978 16.9901 8.86932 17.0851 8.80581L17.2761 8.67812C17.3711 8.61456 17.4997 8.6401 17.5631 8.73517Z" fill="#464655"/>
<path d="M17.2078 6.45621L19.1216 9.32841C19.185 9.42347 19.1593 9.5519 19.0642 9.61528L18.8719 9.74348C18.7769 9.80685 18.6484 9.78117 18.585 9.6861L16.6705 6.81415C16.6071 6.71904 16.6329 6.59051 16.728 6.52718L16.9209 6.39879C17.0161 6.33542 17.1445 6.36115 17.2078 6.45621Z" fill="#464655"/>
<path d="M18.0108 5.91988L18.7641 7.05185C18.8275 7.14719 18.8014 7.27596 18.7059 7.3391L18.5143 7.4657C18.4192 7.52852 18.2913 7.50269 18.2281 7.40786L17.4743 6.27739C17.4108 6.18233 17.4365 6.05384 17.5316 5.99047L17.7238 5.86241C17.8189 5.79894 17.9474 5.82472 18.0108 5.91988Z" fill="#464655"/>
<path d="M19.1717 7.66548L19.9239 8.79511C19.9871 8.89008 19.9615 9.01833 19.8666 9.08175L19.6756 9.20949C19.5805 9.27309 19.4518 9.24741 19.3884 9.15216L18.6363 8.02253C18.573 7.92756 18.5986 7.79931 18.6935 7.73589L18.8845 7.60816C18.9796 7.54455 19.1083 7.57024 19.1717 7.66548Z" fill="#464655"/>
<path d="M6.22208 13.7803L8.13569 16.6494C8.19906 16.7444 8.17342 16.8729 8.07845 16.9363L7.88678 17.0643C7.79172 17.1277 7.66319 17.1021 7.59977 17.007L5.68616 14.1379C5.62279 14.0429 5.64838 13.9144 5.7434 13.851L5.93507 13.723C6.03018 13.6596 6.15866 13.6853 6.22208 13.7803Z" fill="#464655"/>
<path d="M5.41926 14.317L6.17052 15.4439C6.2338 15.5388 6.2083 15.6671 6.11347 15.7306L5.92288 15.8582C5.82787 15.9218 5.69924 15.8962 5.63573 15.8011L4.88349 14.6745C4.82002 14.5795 4.84566 14.451 4.94067 14.3875L5.1322 14.2597C5.22731 14.1962 5.35584 14.2219 5.41926 14.317Z" fill="#464655"/>
<path d="M6.57955 16.0595L7.33174 17.1892C7.39498 17.2842 7.36939 17.4125 7.27451 17.4759L7.08336 17.6037C6.98825 17.6672 6.85962 17.6416 6.7962 17.5464L6.04354 16.4169C5.98021 16.3219 6.00585 16.1935 6.10082 16.1301L6.29244 16.0021C6.38755 15.9386 6.51613 15.9643 6.57955 16.0595Z" fill="#464655"/>
<path d="M4.61527 14.8535L6.52766 17.7227C6.59098 17.8177 6.56539 17.946 6.47047 18.0094L6.27936 18.1372C6.1843 18.2008 6.05572 18.1751 5.99226 18.08L4.07874 15.2112C4.01532 15.1161 4.04101 14.9876 4.13612 14.9242L4.32835 14.796C4.42341 14.7327 4.5519 14.7584 4.61527 14.8535Z" fill="#464655"/>
<path d="M5.68709 9.86438L7.60042 6.99303C7.66384 6.89787 7.79237 6.87219 7.88748 6.9357L8.07905 7.06362C8.17407 7.12704 8.19966 7.25548 8.13629 7.35049L6.22221 10.2202C6.15898 10.3151 6.03096 10.3409 5.9359 10.278L5.74508 10.1517C5.64959 10.0884 5.62358 9.95972 5.68709 9.86438Z" fill="#464655"/>
<path d="M4.88338 9.3285L6.79708 6.45655C6.8605 6.36134 6.98913 6.3357 7.08424 6.39926L7.27534 6.52704C7.37022 6.59047 7.39581 6.71876 7.33253 6.81373L5.41935 9.68587C5.35597 9.78103 5.22739 9.80672 5.13229 9.74325L4.94066 9.61533C4.8457 9.55186 4.82005 9.42352 4.88338 9.3285Z" fill="#464655"/>
<path d="M4.07866 8.79488L5.9925 5.92006C6.05592 5.82481 6.18459 5.79912 6.2797 5.86273L6.47081 5.99051C6.56564 6.05393 6.59128 6.18214 6.52809 6.2771L4.61537 9.15229C4.55205 9.2475 4.42352 9.27328 4.32836 9.20986L4.13613 9.0817C4.04107 9.01833 4.01533 8.88994 4.07866 8.79488Z" fill="#464655"/>
<path d="M15.8679 16.6494L16.6201 15.5227C16.6836 15.4276 16.8122 15.4021 16.9073 15.4657L17.0979 15.5933C17.1927 15.6568 17.2182 15.7851 17.1549 15.88L16.4036 17.0069C16.3402 17.102 16.2117 17.1277 16.1166 17.0642L15.9251 16.9363C15.83 16.8729 15.8044 16.7444 15.8679 16.6494Z" fill="#464655"/>
<path d="M17.0278 14.9127L17.7812 13.7805C17.8446 13.6853 17.9731 13.6596 18.0683 13.723L18.2603 13.851C18.3554 13.9144 18.381 14.043 18.3175 14.138L17.5625 15.2684C17.4992 15.3632 17.3712 15.389 17.2762 15.326L17.0858 15.1998C16.9904 15.1366 16.9645 15.008 17.0278 14.9127Z" fill="#464655"/>
<path d="M16.6705 17.1888L17.4232 16.0593C17.4866 15.9642 17.615 15.9385 17.7102 16.0018L17.9025 16.1301C17.9975 16.1935 18.0233 16.3218 17.9599 16.4169L17.2078 17.5466C17.1444 17.6417 17.016 17.6675 16.9209 17.6042L16.728 17.4758C16.6329 17.4125 16.6071 17.284 16.6705 17.1888Z" fill="#464655"/>
<path d="M17.8318 15.4435L18.5848 14.3166C18.6483 14.2216 18.7767 14.196 18.8716 14.2594L19.0639 14.3875C19.159 14.4509 19.1847 14.5795 19.1211 14.6746L18.368 15.8016C18.3046 15.8965 18.1763 15.9221 18.0813 15.8588L17.889 15.7306C17.7939 15.6672 17.7682 15.5386 17.8318 15.4435Z" fill="#464655"/>
<path d="M17.4743 17.7224L18.2278 16.5948C18.2911 16.5002 18.4189 16.4744 18.5139 16.5372L18.7055 16.6638C18.8011 16.7269 18.8271 16.8558 18.7636 16.9511L18.0106 18.0803C17.9473 18.1753 17.8188 18.201 17.7238 18.1376L17.5316 18.0096C17.4365 17.9461 17.4108 17.8175 17.4743 17.7224Z" fill="#464655"/>
<path d="M18.6362 15.9828L19.3879 14.8538C19.4513 14.7586 19.58 14.7329 19.6751 14.7965L19.866 14.9241C19.9609 14.9876 19.9865 15.116 19.9231 15.2109L19.1708 16.3384C19.1076 16.4332 18.9795 16.459 18.8844 16.396L18.6942 16.2699C18.5988 16.2067 18.5729 16.0781 18.6362 15.9828Z" fill="#464655"/>
</g>
<defs>
<clipPath id="clip0_72_3794">
<path d="M0 2C0 0.895432 0.895431 0 2 0H21.9998C23.1043 0 23.9998 0.895431 23.9998 2V21.9998C23.9998 23.1043 23.1043 23.9998 21.9998 23.9998H2C0.895432 23.9998 0 23.1043 0 21.9998V2Z" fill="white"/>
</clipPath>
</defs>
</svg>
