<svg width="24" height="24" viewBox="0 0 24 24" fill="none" xmlns="http://www.w3.org/2000/svg">
<g clip-path="url(#clip0_72_4311)">
<path d="M24.0037 6.10352e-05H0.00390625V23.9998H24.0037V6.10352e-05Z" fill="#41479B"/>
<path d="M14.6946 13.1207C14.6184 13.1207 14.5566 13.1824 14.5566 13.2587V15.6035C14.5566 20.2931 17.867 21.1206 17.867 21.1206C17.867 21.1206 21.1773 20.2931 21.1773 15.6035V13.2587C21.1773 13.1825 21.1156 13.1207 21.0393 13.1207H14.6946Z" fill="#FFE15A"/>
<path d="M20.8325 13.4656V15.6035C20.8325 19.5922 18.367 20.5983 17.8671 20.7612C17.3644 20.5972 14.9015 19.5901 14.9015 15.6035V13.4656H20.8325ZM21.0394 13.1207H14.6946C14.6184 13.1207 14.5566 13.1824 14.5566 13.2587V15.6035C14.5566 20.2931 17.867 21.1206 17.867 21.1206C17.867 21.1206 21.1773 20.2931 21.1773 15.6035V13.2587C21.1773 13.1825 21.1156 13.1207 21.0394 13.1207Z" fill="#F5F5F5"/>
<path d="M18.2378 17.4895H17.5322C17.5322 17.4895 16.9631 18.0585 16.8327 19.3086C16.8285 19.3485 16.8446 19.3888 16.8761 19.4135C16.9958 19.5073 17.3321 19.7239 17.885 19.7239C18.4379 19.7239 18.7742 19.5073 18.8938 19.4135C18.9253 19.3888 18.9414 19.3484 18.9373 19.3086C18.8068 18.0585 18.2378 17.4895 18.2378 17.4895Z" fill="#73AF00"/>
<path d="M18.2388 17.3717H17.5332V16.6404C17.5332 16.5252 17.6275 16.4309 17.7427 16.4309H18.0293C18.1445 16.4309 18.2388 16.5252 18.2388 16.6404V17.3717Z" fill="#FF4B55"/>
<path d="M18.287 17.607H17.4859C17.4473 17.607 17.416 17.5757 17.416 17.5371V17.4416C17.416 17.403 17.4473 17.3717 17.4859 17.3717H18.287C18.3256 17.3717 18.3569 17.403 18.3569 17.4416V17.5371C18.3569 17.5757 18.3256 17.607 18.287 17.607Z" fill="#FF4B55"/>
<path d="M20.5892 15.0068C20.5684 15.0068 20.2616 15.0082 19.9424 15.0631V14.8792C20.2118 14.7562 20.4757 14.6926 20.4802 14.6916C20.5118 14.6842 20.5314 14.6525 20.524 14.6209C20.5166 14.5893 20.485 14.5696 20.4534 14.5771C20.4356 14.5812 20.1986 14.6381 19.9404 14.7506C19.9361 14.6801 19.9117 14.6154 19.872 14.562C20.0827 14.3989 20.2622 14.2952 20.2656 14.2933C20.2938 14.2772 20.3036 14.2413 20.2876 14.2131C20.2714 14.1849 20.2355 14.1751 20.2074 14.1911C20.1931 14.1992 20.0048 14.3079 19.7862 14.4787C19.73 14.4408 19.6624 14.4187 19.5897 14.4187C19.514 14.4187 19.4443 14.4431 19.3868 14.4837C19.4471 14.1811 19.571 14.0501 19.5727 14.0484C19.5955 14.0254 19.5954 13.9883 19.5725 13.9654C19.5495 13.9425 19.5123 13.9425 19.4893 13.9654C19.4823 13.9724 19.3681 14.0904 19.2957 14.3555C19.2233 14.0904 19.1091 13.9724 19.1021 13.9654C19.0793 13.9426 19.0423 13.9426 19.0192 13.9653C18.9963 13.9881 18.996 14.0253 19.0187 14.0484C19.0203 14.05 19.1442 14.1811 19.2046 14.4837C19.1471 14.443 19.0773 14.4187 19.0017 14.4187C18.9289 14.4187 18.8614 14.4408 18.8051 14.4787C18.5865 14.3079 18.3982 14.1992 18.384 14.1911C18.3558 14.1751 18.3198 14.1849 18.3038 14.2131C18.2877 14.2414 18.2976 14.2772 18.3258 14.2933C18.3291 14.2952 18.5087 14.3987 18.7195 14.5619C18.6797 14.6154 18.6552 14.68 18.651 14.7505C18.3927 14.6381 18.1557 14.5811 18.138 14.577C18.1063 14.5694 18.0747 14.5892 18.0673 14.6208C18.0599 14.6525 18.0796 14.6841 18.1112 14.6915C18.1157 14.6926 18.3796 14.7561 18.649 14.8791V15.063C18.3298 15.0081 18.023 15.0067 18.0021 15.0067C17.9697 15.0067 17.9434 15.033 17.9434 15.0655C17.9434 15.0979 17.9697 15.1243 18.0021 15.1243C18.0072 15.1243 18.3286 15.1255 18.649 15.1824V15.3727C18.4725 15.3674 18.2757 15.3921 18.0935 15.4833C18.0644 15.4979 18.0526 15.5332 18.0672 15.5622C18.0775 15.5828 18.0982 15.5947 18.1198 15.5947C18.1287 15.5947 18.1376 15.5927 18.146 15.5885C18.3083 15.5074 18.4872 15.4862 18.649 15.4917V16.2194C18.649 16.3082 18.6401 16.3975 18.6227 16.4847L18.5325 16.9356C18.5261 16.9675 18.5468 16.9985 18.5786 17.0048C18.5825 17.0056 18.5863 17.006 18.5902 17.006C18.6177 17.006 18.6422 16.9866 18.6478 16.9587L18.738 16.5077C18.757 16.4129 18.7666 16.3159 18.7666 16.2194V15.5005C18.8547 15.5104 18.9341 15.5262 18.9978 15.5422L19.0426 16.1246C19.0481 16.1972 19.0845 16.2599 19.1375 16.3025L18.9469 16.5885C18.8447 16.7418 18.9545 16.9471 19.1388 16.9471H19.4529C19.6371 16.9471 19.747 16.7418 19.6448 16.5885L19.4541 16.3025C19.5071 16.2599 19.5435 16.1972 19.549 16.1246L19.5939 15.5422C19.6576 15.5262 19.7369 15.5104 19.825 15.5005V16.2194C19.825 16.3159 19.8347 16.4129 19.8536 16.5077L19.9438 16.9587C19.9494 16.9866 19.974 17.0059 20.0014 17.0059C20.0052 17.0059 20.0091 17.0056 20.013 17.0048C20.0448 16.9984 20.0655 16.9675 20.0591 16.9356L19.9689 16.4846C19.9515 16.3974 19.9427 16.3082 19.9427 16.2194V15.4917C20.1044 15.4862 20.2833 15.5074 20.4456 15.5885C20.454 15.5927 20.463 15.5947 20.4718 15.5947C20.4934 15.5947 20.5141 15.5828 20.5245 15.5622C20.539 15.5332 20.5272 15.4979 20.4982 15.4833C20.3159 15.3922 20.1191 15.3675 19.9427 15.3728V15.1824C20.2629 15.1256 20.5844 15.1243 20.5895 15.1243C20.622 15.1243 20.6483 15.098 20.6483 15.0655C20.648 15.0331 20.6217 15.0068 20.5892 15.0068ZM19.8248 15.0856C19.7545 15.1009 19.6854 15.119 19.6202 15.1407C19.619 15.1175 19.6156 15.0951 19.6098 15.0733C19.675 15.0229 19.7483 14.9772 19.8248 14.9367V15.0856ZM19.8248 14.7715V14.8041C19.7316 14.8503 19.6399 14.904 19.5579 14.9649C19.5408 14.9416 19.5211 14.9206 19.4986 14.9026C19.5865 14.8051 19.6843 14.7148 19.7806 14.6352C19.8081 14.6737 19.8248 14.7206 19.8248 14.7715ZM19.5896 14.5363C19.6247 14.5363 19.6577 14.5446 19.6876 14.5584C19.586 14.6437 19.483 14.7408 19.3908 14.8462C19.3788 14.8425 19.3669 14.8389 19.3544 14.8366V14.8303C19.3544 14.8036 19.3553 14.7781 19.3563 14.7529C19.366 14.632 19.4663 14.5363 19.5896 14.5363ZM19.0016 14.5363C19.1249 14.5363 19.2252 14.632 19.2349 14.7529C19.2359 14.7781 19.2368 14.8035 19.2368 14.8303V14.8366C19.2243 14.8389 19.2124 14.8425 19.2004 14.8462C19.1083 14.7408 19.0052 14.6437 18.9036 14.5584C18.9335 14.5446 18.9665 14.5363 19.0016 14.5363ZM18.7664 14.7715C18.7664 14.7206 18.7831 14.6737 18.8107 14.6351C18.907 14.7148 19.0047 14.8051 19.0927 14.9026C19.0701 14.9206 19.0504 14.9416 19.0333 14.9649C18.9513 14.9041 18.8595 14.8503 18.7663 14.8041L18.7664 14.7715ZM18.7664 14.9367C18.843 14.9772 18.9162 15.0229 18.9814 15.0733C18.9756 15.0951 18.9722 15.1175 18.971 15.1407C18.9058 15.119 18.8366 15.1009 18.7664 15.0856V14.9367ZM18.7664 15.381V15.2064C18.8401 15.2231 18.9112 15.2432 18.9764 15.2675L18.988 15.4181C18.924 15.4032 18.8489 15.3895 18.7664 15.381ZM19.8248 15.381C19.7423 15.3896 19.6672 15.4033 19.6032 15.4181L19.6148 15.2675C19.68 15.2432 19.7511 15.2231 19.8248 15.2064V15.381Z" fill="#D35A10"/>
<path d="M16.8753 16.5944H16.6112L15.6018 15.6971C15.4915 15.5991 15.4448 15.448 15.4806 15.3048L15.7621 14.179C15.787 14.0793 15.911 14.045 15.9836 14.1176L16.4404 14.5744C16.4651 14.5991 16.4987 14.6131 16.5338 14.6131H16.8754V16.5944H16.8753Z" fill="#FFA033"/>
<path d="M16.6849 14.3423L16.5228 15.0718C16.4934 15.2041 16.4984 15.3416 16.5373 15.4714L16.8742 16.5944H17.1384L17.4753 15.4714C17.5142 15.3416 17.5192 15.2041 17.4898 15.0718L17.3277 14.3423C17.2943 14.1918 17.1608 14.0847 17.0066 14.0847H17.0059C16.8518 14.0847 16.7183 14.1918 16.6849 14.3423Z" fill="#FF9480"/>
<path d="M17.0608 14.3489H16.9534C16.9101 14.3489 16.875 14.384 16.875 14.4273V16.5944H17.1392V14.4273C17.1392 14.384 17.1041 14.3489 17.0608 14.3489Z" fill="#FFA0E4"/>
<path d="M4.42883 0.00012207H0.0078125V0.936535L4.42883 3.83305V0.00012207Z" fill="#41479B"/>
<path d="M0.0078125 3.20161V4.42115H1.8692L0.0078125 3.20161Z" fill="#41479B"/>
<path d="M0.0078125 7.57899V8.79852L1.8692 7.57899H0.0078125Z" fill="#41479B"/>
<path d="M12.007 0.936535V0.00012207H7.58594V3.83305L12.007 0.936535Z" fill="#41479B"/>
<path d="M12.0079 8.79852V7.57899H10.1465L12.0079 8.79852Z" fill="#41479B"/>
<path d="M7.58594 8.16707V12H12.007V11.0636L7.58594 8.16707Z" fill="#41479B"/>
<path d="M12.0079 4.42115V3.20161L10.1465 4.42115H12.0079Z" fill="#41479B"/>
<path d="M0.0078125 11.0636V12H4.42883V8.16707L0.0078125 11.0636Z" fill="#41479B"/>
<path d="M12.0076 11.0636V10.1278L8.08105 7.57898H9.2411L12.0076 9.37479V8.79852L10.1462 7.57898H12.0076V6.9474H6.95508V12H7.58662V8.16707L12.0076 11.0636Z" fill="#F5F5F5"/>
<path d="M0.0078125 6.9474V7.57898H1.8692L0.0078125 8.79852V9.68449L3.25139 7.57898H4.41144L0.0078125 10.4375V11.0636L4.42883 8.16707V12H5.06037V6.9474H0.0078125Z" fill="#F5F5F5"/>
<path d="M5.06037 0.00012207H4.42883V3.83305L0.0078125 0.936535V1.96131L3.79724 4.42114H2.63719L0.0078125 2.71435V3.20161L1.8692 4.42114H0.0078125V5.05273H5.06037V0.00012207Z" fill="#F5F5F5"/>
<path d="M12.0076 5.05273V4.42114H10.1462L12.0076 3.20161V2.30433L8.74667 4.42114H7.58662L12.0076 1.55134V0.936535L7.58662 3.83305V0.00012207H6.95508V5.05273H12.0076Z" fill="#F5F5F5"/>
<path d="M12.0077 6.9474V5.05273H6.95514V0.00012207H5.06037V5.05273H0.0078125V6.9474H5.06037V12H6.95514V6.9474H12.0077Z" fill="#FF4B55"/>
<path d="M3.25139 7.57899L0.0078125 9.6845V10.4375L4.41144 7.57899H3.25139Z" fill="#FF4B55"/>
<path d="M8.08203 7.57899L12.0086 10.1278V9.3748L9.24208 7.57899H8.08203Z" fill="#FF4B55"/>
<path d="M3.79724 4.42115L0.0078125 1.96131V2.71435L2.63719 4.42115H3.79724Z" fill="#FF4B55"/>
<path d="M8.74599 4.42114L12.007 2.30433V1.55134L7.58594 4.42114H8.74599Z" fill="#FF4B55"/>
</g>
<defs>
<clipPath id="clip0_72_4311">
<path d="M0 2C0 0.895432 0.895431 0 2 0H21.9998C23.1043 0 23.9998 0.895431 23.9998 2V21.9998C23.9998 23.1043 23.1043 23.9998 21.9998 23.9998H2C0.895432 23.9998 0 23.1043 0 21.9998V2Z" fill="white"/>
</clipPath>
</defs>
</svg>
