<svg width="24" height="24" viewBox="0 0 24 24" fill="none" xmlns="http://www.w3.org/2000/svg">
<g clip-path="url(#clip0_72_4406)">
<path d="M24.0037 6.10352e-05H0.00390625V3.99987H24.0037V6.10352e-05Z" fill="#464655"/>
<path d="M24.0037 3.99987H0.00390625V7.99968H24.0037V3.99987Z" fill="#FFE15A"/>
<path d="M24.0037 8.00014H0.00390625V11.9999H24.0037V8.00014Z" fill="#FF4B55"/>
<path d="M24.0037 11.9999H0.00390625V15.9997H24.0037V11.9999Z" fill="#464655"/>
<path d="M24.0037 15.9998H0.00390625V19.9996H24.0037V15.9998Z" fill="#FFE15A"/>
<path d="M24.0037 20H0.00390625V23.9998H24.0037V20Z" fill="#FF4B55"/>
<path d="M12.0022 15.7893C14.095 15.7893 15.7916 14.0927 15.7916 11.9999C15.7916 9.90715 14.095 8.2106 12.0022 8.2106C9.90943 8.2106 8.21289 9.90715 8.21289 11.9999C8.21289 14.0927 9.90943 15.7893 12.0022 15.7893Z" fill="#F5F5F5"/>
<path d="M12.2317 9.69278L12.605 9.54348C12.6591 9.52183 12.6853 9.45981 12.6613 9.40675C12.5776 9.22112 12.3533 8.83708 11.927 8.82555C11.6571 8.81824 11.4553 8.87908 11.3414 8.92605C11.2832 8.95005 11.2598 9.01928 11.2916 9.07361L11.5169 9.45845L12.2317 9.69278Z" fill="#FF4B55"/>
<path d="M11.9258 8.82551C11.8947 8.82467 11.8667 8.82649 11.8375 8.82734L11.7969 9.42325L12.0137 9.54339L12.4826 9.11913C12.3591 8.96965 12.1781 8.83231 11.9258 8.82551Z" fill="#FFE15A"/>
<path d="M13.5325 13.197L11.8448 11.2281C11.8448 10.8205 11.9921 10.4878 12.0734 10.3348C12.3058 10.231 12.4555 9.97557 12.3932 9.69357C12.3479 9.48849 12.1824 9.32111 11.9776 9.27428C11.6092 9.19004 11.2823 9.46764 11.2823 9.82163C11.2823 9.83494 11.2853 9.84746 11.2862 9.86054C10.9222 9.95654 10.8545 10.0736 10.8545 10.0736C10.8545 10.0736 11.0931 10.0102 11.3002 9.95593C11.3044 9.9728 11.3099 9.98912 11.3155 10.0054L10.9072 10.144L11.3531 10.0897C11.4026 10.1803 11.4761 10.2556 11.5647 10.3076C11.2314 10.5761 10.7197 11.0805 10.7197 11.65C10.7197 12.1707 11.1055 12.5177 11.5912 12.7484C11.761 12.8291 11.9171 12.9356 12.0455 13.0729L12.0502 13.078L12.0925 13.7245C11.7441 13.7245 11.3288 13.7245 11.1417 13.7245C10.7901 13.7245 10.6934 13.953 10.6934 14.331L10.8604 14.0936L11.001 14.3574L11.0186 14.0585L11.168 14.2518C11.168 14.2518 11.1665 13.9993 11.357 13.9662C11.4581 13.9486 11.8083 13.9266 12.1057 13.9266L12.1687 14.8899C11.7653 14.888 11.3086 15.0781 11.3086 15.0781C11.4493 15.0517 11.7921 15.1045 11.7921 15.1045L11.735 15.2715C12.1305 15.0562 12.8557 15.0518 12.8557 15.0518C12.8557 15.0518 12.6975 14.9438 12.3283 14.9016L12.3368 13.9266H12.9172L13.0051 13.6981C13.0051 13.6981 12.7056 13.3008 12.7056 13.0904C13.1699 13.1785 13.5325 13.197 13.5325 13.197ZM12.3386 13.7244L12.3415 13.39C12.5157 13.5767 12.6535 13.7244 12.6535 13.7244C12.6535 13.7244 12.5234 13.7244 12.3386 13.7244Z" fill="#464655"/>
<path d="M13.5319 13.4783C13.3913 12.9158 12.775 12.7429 12.1256 12.3532C11.4224 11.9313 11.8443 11.2281 11.8443 11.2281C11.8443 11.2281 14.2 11.9196 14.3758 12.9157C14.5127 13.6915 13.9539 14.1815 13.6726 14.3221L13.7736 14.0408H13.2507C13.2507 14.0408 13.8044 13.6101 13.8132 13.197L13.5319 13.4783Z" fill="#696E7D"/>
<path d="M14.3768 12.9158C14.2593 12.2498 13.1682 11.7204 12.4573 11.4424C12.2298 11.4171 12.0299 11.7995 12.654 12.2126C13.4936 12.7684 13.533 13.4783 13.533 13.4783L13.8143 13.197C13.8055 13.6101 13.2518 14.0409 13.2518 14.0409H13.7747L13.6737 14.3222C13.9549 14.1815 14.5138 13.6916 14.3768 12.9158Z" fill="#FFFCFF"/>
<path d="M14.3761 12.9158C14.2982 12.4744 13.7924 12.0936 13.2533 11.8056C12.9937 11.728 12.7676 11.7379 12.7676 11.7379C12.9258 11.8346 12.9961 12.0807 12.9961 12.0807C12.8819 12.0104 12.627 12.0455 12.627 12.0455C12.6978 12.1063 12.765 12.2303 12.81 12.3253C13.4975 12.8597 13.5323 13.4783 13.5323 13.4783L13.8136 13.197C13.8048 13.6101 13.2511 14.0408 13.2511 14.0408H13.7741L13.673 14.3221C13.9542 14.1815 14.513 13.6915 14.3761 12.9158Z" fill="#FF4B55"/>
<path d="M11.6152 9.86293C11.667 9.86293 11.709 9.82096 11.709 9.76918C11.709 9.7174 11.667 9.67543 11.6152 9.67543C11.5635 9.67543 11.5215 9.7174 11.5215 9.76918C11.5215 9.82096 11.5635 9.86293 11.6152 9.86293Z" fill="#F5F5F5"/>
<path d="M11.3701 10.1264C11.3701 10.1264 11.165 10.3667 11.2998 10.437C11.4345 10.5073 11.5646 10.3076 11.5646 10.3076L11.3701 10.1264Z" fill="#FF4B55"/>
</g>
<defs>
<clipPath id="clip0_72_4406">
<path d="M0 2C0 0.895432 0.895431 0 2 0H21.9998C23.1043 0 23.9998 0.895431 23.9998 2V21.9998C23.9998 23.1043 23.1043 23.9998 21.9998 23.9998H2C0.895432 23.9998 0 23.1043 0 21.9998V2Z" fill="white"/>
</clipPath>
</defs>
</svg>
