<svg width="24" height="24" viewBox="0 0 24 24" fill="none" xmlns="http://www.w3.org/2000/svg">
<g clip-path="url(#clip0_72_4475)">
<path d="M24.0017 6.10352e-05H0.00195312V23.9998H24.0017V6.10352e-05Z" fill="#F5F5F5"/>
<path d="M24.0003 2.6667H9.10547V5.33335H24.0003V2.6667Z" fill="#4173CD"/>
<path d="M24.0017 5.33345H0.00195312V8.00009H24.0017V5.33345Z" fill="#F5F5F5"/>
<path d="M24.0003 8.00014H9.10547V10.6668H24.0003V8.00014Z" fill="#4173CD"/>
<path d="M24.0017 10.6668H0.00195312V13.3335H24.0017V10.6668Z" fill="#F5F5F5"/>
<path d="M24.0017 13.3331H0.00195312V15.9997H24.0017V13.3331Z" fill="#4173CD"/>
<path d="M24.0017 15.9998H0.00195312V18.6664H24.0017V15.9998Z" fill="#F5F5F5"/>
<path d="M24.0017 18.6664H0.00195312V21.3331H24.0017V18.6664Z" fill="#4173CD"/>
<path d="M4.57812 1.67184L5.63472 6.56067L7.28794 5.87588L4.57812 1.67184Z" fill="#FFE15A"/>
<path d="M4.57812 1.67184L6.46131 6.21825L5.63472 6.56067L4.57812 1.67184Z" fill="#FFCD5A"/>
<path d="M8.68638 11.5913L7.62983 6.70251L5.97656 7.3873L8.68638 11.5913Z" fill="#FFE15A"/>
<path d="M8.68787 11.5913L6.80469 7.04489L7.63132 6.70251L8.68787 11.5913Z" fill="#FFCD5A"/>
<path d="M11.5919 4.57717L6.70312 5.63377L7.38791 7.28699L11.5919 4.57717Z" fill="#FFE15A"/>
<path d="M11.5919 4.57717L7.0455 6.46036L6.70312 5.63377L11.5919 4.57717Z" fill="#FFCD5A"/>
<path d="M1.67383 8.68596L6.56266 7.62941L5.87787 5.97614L1.67383 8.68596Z" fill="#FFE15A"/>
<path d="M1.67383 8.68596L6.22024 6.80277L6.56266 7.62941L1.67383 8.68596Z" fill="#FFCD5A"/>
<path d="M8.68638 1.67184L5.97656 5.87588L7.62983 6.56067L8.68638 1.67184Z" fill="#FFE15A"/>
<path d="M8.68638 1.67184L6.8032 6.21825L5.97656 5.87588L8.68638 1.67184Z" fill="#FFCD5A"/>
<path d="M4.57812 11.5913L7.28794 7.3873L5.63472 6.70251L4.57812 11.5913Z" fill="#FFE15A"/>
<path d="M4.57812 11.5913L6.46131 7.04488L7.28794 7.3873L4.57812 11.5913Z" fill="#FFCD5A"/>
<path d="M11.5919 8.68596L7.38791 5.97614L6.70312 7.62941L11.5919 8.68596Z" fill="#FFE15A"/>
<path d="M11.5933 8.68596L7.04688 6.80277L7.38929 5.97614L11.5933 8.68596Z" fill="#FFCD5A"/>
<path d="M1.67383 4.57717L5.87787 7.28699L6.56266 5.63377L1.67383 4.57717Z" fill="#FFE15A"/>
<path d="M1.67383 4.57717L6.22024 6.46036L5.87787 7.28699L1.67383 4.57717Z" fill="#FFCD5A"/>
<path d="M13.2674 6.10352e-05H0.00195312V13.3124H13.2674V6.10352e-05Z" fill="#F5F5F5"/>
<path d="M6.63302 1.26319L5.73828 6.18422H7.52772L6.63302 1.26319Z" fill="#FFE15A"/>
<path d="M6.63302 1.26319V6.18422H5.73828L6.63302 1.26319Z" fill="#FFCD5A"/>
<path d="M6.63302 11.9999L7.52772 7.07896H5.73828L6.63302 11.9999Z" fill="#FFE15A"/>
<path d="M6.63281 11.9999V7.07896H7.52751L6.63281 11.9999Z" fill="#FFCD5A"/>
<path d="M12.0011 6.63159L7.08008 5.73685V7.52628L12.0011 6.63159Z" fill="#FFE15A"/>
<path d="M12.0011 6.63159H7.08008V5.73685L12.0011 6.63159Z" fill="#FFCD5A"/>
<path d="M1.26562 6.63159L6.18665 7.52628V5.73685L1.26562 6.63159Z" fill="#FFE15A"/>
<path d="M1.26562 6.6316H6.18665V7.52629L1.26562 6.6316Z" fill="#FFCD5A"/>
<path d="M10.4288 2.83555L6.31641 5.68257L7.58174 6.9479L10.4288 2.83555Z" fill="#FFE15A"/>
<path d="M10.4288 2.83555L6.94907 6.31523L6.31641 5.68257L10.4288 2.83555Z" fill="#FFCD5A"/>
<path d="M2.83594 10.4276L6.94829 7.58057L5.68296 6.31524L2.83594 10.4276Z" fill="#FFE15A"/>
<path d="M2.83594 10.4276L6.31562 6.9479L6.94829 7.58056L2.83594 10.4276Z" fill="#FFCD5A"/>
<path d="M10.4288 10.4276L7.58174 6.31524L6.31641 7.58057L10.4288 10.4276Z" fill="#FFE15A"/>
<path d="M10.4289 10.4276L6.94922 6.9479L7.58188 6.31524L10.4289 10.4276Z" fill="#FFCD5A"/>
<path d="M2.83594 2.83555L5.68296 6.9479L6.94829 5.68257L2.83594 2.83555Z" fill="#FFE15A"/>
<path d="M2.83594 2.83555L6.31562 6.31523L5.68296 6.9479L2.83594 2.83555Z" fill="#FFCD5A"/>
<path d="M6.63295 8.42061C7.6211 8.42061 8.42215 7.61955 8.42215 6.6314C8.42215 5.64326 7.6211 4.8422 6.63295 4.8422C5.6448 4.8422 4.84375 5.64326 4.84375 6.6314C4.84375 7.61955 5.6448 8.42061 6.63295 8.42061Z" fill="#FFE15A"/>
</g>
<defs>
<clipPath id="clip0_72_4475">
<path d="M0 2C0 0.895432 0.895431 0 2 0H21.9998C23.1043 0 23.9998 0.895431 23.9998 2V21.9998C23.9998 23.1043 23.1043 23.9998 21.9998 23.9998H2C0.895432 23.9998 0 23.1043 0 21.9998V2Z" fill="white"/>
</clipPath>
</defs>
</svg>
