<svg width="24" height="24" viewBox="0 0 24 24" fill="none" xmlns="http://www.w3.org/2000/svg">
<g clip-path="url(#clip0_72_4541)">
<path d="M24.0013 0.00127411H0.00390625V23.9987H24.0013V0.00127411Z" fill="#464655"/>
<path d="M24.0012 11.3684H11.6954L0.00390625 1.52279V2.96572L10.7323 11.9999L0.00390625 21.0342V22.4771L11.6954 12.6315H24.0012V11.3684Z" fill="#FFE15A"/>
<path d="M0.00195312 23.9986H24.0017V13.8945H12.0031L0.00195312 23.9986Z" fill="#73AF00"/>
<path d="M24.0017 0.00127411H0.00195312L12.0031 10.1054H24.0017V0.00127411Z" fill="#FF4B55"/>
<path d="M4.42533 9.31948C3.04675 8.8858 2.00594 9.88755 1.7681 10.4032C1.56659 10.84 1.19244 12.8189 3.05785 13.1345C4.92323 13.45 4.90223 11.6898 4.90223 11.6898C4.81809 11.9703 4.66729 12.7698 3.32077 12.7698C2.81575 12.7698 2.09004 12.0194 2.22677 11.1919C2.35549 10.4133 3.05101 10.0149 3.57676 9.99269C4.07461 9.97169 5.23522 10.3153 5.23522 11.7284C5.23522 13.3168 3.59822 13.4955 3.59822 13.4955V14.4547C5.02326 14.3149 5.82959 13.5256 6.04311 12.2613C6.25568 11.0026 5.82706 9.76048 4.42533 9.31948Z" fill="#FFE15A"/>
<path d="M2.89891 11.6748C2.86638 11.7161 2.84904 11.7675 2.8482 11.8201L2.84416 12.078L2.79396 12.1656C2.77582 12.1973 2.7866 12.2376 2.8181 12.256C2.84998 12.2746 2.8909 12.2637 2.90923 12.2316L2.96069 12.1416L3.16671 12.0669C3.22914 12.0443 3.2793 11.9974 3.30644 11.9369C3.36025 11.8167 3.47585 11.5961 3.66311 11.3658C3.85042 11.596 3.96597 11.8167 4.01978 11.9369C4.04692 11.9974 4.09707 12.0443 4.15946 12.0669L4.36557 12.1416L4.41704 12.2316C4.43532 12.2637 4.47629 12.2747 4.50816 12.256C4.53966 12.2376 4.5504 12.1973 4.5323 12.1656L4.4821 12.078L4.47807 11.8201C4.47727 11.7675 4.45988 11.7161 4.42735 11.6748C4.25476 11.4557 4.0712 11.2833 3.89031 11.1309C4.03487 10.995 4.19823 10.8653 4.4041 10.7652C4.45173 10.742 4.47662 10.6886 4.46434 10.637C4.4476 10.5667 4.37068 10.5298 4.30515 10.5603C4.1672 10.6247 3.93001 10.7513 3.66316 10.9458C3.3963 10.7512 3.15911 10.6247 3.02116 10.5603C2.95563 10.5298 2.87871 10.5667 2.86198 10.637C2.8497 10.6886 2.87459 10.742 2.92216 10.7652C3.12804 10.8654 3.29144 10.9951 3.43605 11.1309C3.25507 11.2833 3.07146 11.4557 2.89891 11.6748Z" fill="#FFE15A"/>
</g>
<defs>
<clipPath id="clip0_72_4541">
<path d="M0 2C0 0.895428 0.895431 0 2 0H21.9999C23.1044 0 23.9999 0.895431 23.9999 2V21.9999C23.9999 23.1044 23.1044 23.9999 21.9999 23.9999H2C0.895428 23.9999 0 23.1044 0 21.9999V2Z" fill="white"/>
</clipPath>
</defs>
</svg>
