<svg width="24" height="24" viewBox="0 0 24 24" fill="none" xmlns="http://www.w3.org/2000/svg">
<g clip-path="url(#clip0_72_4603)">
<path d="M23.9998 6.10352e-05H0V8.01655H23.9998V6.10352e-05Z" fill="#FFE15A"/>
<path d="M23.9998 15.9833H0V23.9998H23.9998V15.9833Z" fill="#FF4B55"/>
<path d="M23.9998 7.99217H0V16.0077H23.9998V7.99217Z" fill="#41479B"/>
<path d="M7.21586 13.3437L7.35189 13.7515L7.78183 13.7548C7.83751 13.7553 7.86058 13.8263 7.81581 13.8594L7.46992 14.1148L7.59963 14.5247C7.61641 14.5778 7.55599 14.6217 7.5107 14.5893L7.16093 14.3393L6.81115 14.5893C6.76587 14.6217 6.70545 14.5778 6.72223 14.5247L6.85193 14.1148L6.50604 13.8594C6.46128 13.8263 6.48434 13.7553 6.54003 13.7548L6.96996 13.7515L7.10599 13.3437C7.12357 13.2909 7.19824 13.2909 7.21586 13.3437Z" fill="#F5F5F5"/>
<path d="M8.05191 12.0452L7.97902 12.469L8.35636 12.6751C8.4052 12.7018 8.39198 12.7753 8.3369 12.7833L7.91138 12.8449L7.83192 13.2675C7.82166 13.3222 7.74764 13.3323 7.72303 13.2824L7.53296 12.8968L7.10654 12.9517C7.05132 12.9589 7.01884 12.8916 7.05873 12.8528L7.36679 12.5528L7.18271 12.1643C7.1589 12.114 7.2128 12.0623 7.26207 12.0882L7.64255 12.2885L7.9552 11.9933C7.99552 11.9551 8.06133 11.9904 8.05191 12.0452Z" fill="#F5F5F5"/>
<path d="M9.10754 10.9088L8.90575 11.2885L9.19965 11.6024C9.23771 11.643 9.20213 11.7087 9.14729 11.699L8.72383 11.6244L8.51617 12.0009C8.48927 12.0497 8.41581 12.0361 8.40808 11.981L8.34817 11.5552L7.92593 11.4741C7.87127 11.4636 7.86143 11.3895 7.91144 11.3651L8.29788 11.1766L8.24458 10.7499C8.23769 10.6947 8.30505 10.6625 8.34372 10.7025L8.64245 11.0117L9.03174 10.8292C9.08218 10.8056 9.13365 10.8597 9.10754 10.9088Z" fill="#F5F5F5"/>
<path d="M10.379 10.2038L10.0823 10.515L10.2807 10.8964C10.3064 10.9458 10.2545 10.9994 10.2043 10.9754L9.81661 10.7895L9.51516 11.0961C9.47612 11.1358 9.40904 11.1029 9.41644 11.0477L9.47349 10.6215L9.08874 10.4296C9.03892 10.4048 9.04942 10.3308 9.10417 10.3208L9.52712 10.2433L9.59077 9.81807C9.59902 9.76304 9.67257 9.75015 9.69905 9.79913L9.90338 10.1775L10.3275 10.1066C10.3824 10.0975 10.4174 10.1635 10.379 10.2038Z" fill="#F5F5F5"/>
<path d="M11.8424 9.87709L11.4732 10.0975L11.5622 10.5181C11.5737 10.5726 11.5093 10.6104 11.4674 10.5737L11.1437 10.2907L10.7711 10.5054C10.7229 10.5331 10.6671 10.4836 10.689 10.4324L10.8581 10.0371L10.5388 9.74908C10.4975 9.71181 10.5274 9.64333 10.5828 9.64834L11.011 9.68706L11.1863 9.29444C11.209 9.24363 11.2833 9.25089 11.2957 9.30518L11.3912 9.72438L11.8188 9.7697C11.8741 9.77561 11.8902 9.84855 11.8424 9.87709Z" fill="#F5F5F5"/>
<path d="M16.7915 13.3437L16.6555 13.7515L16.2256 13.7548C16.1699 13.7553 16.1468 13.8263 16.1916 13.8594L16.5375 14.1148L16.4078 14.5247C16.391 14.5778 16.4514 14.6217 16.4967 14.5893L16.8465 14.3393L17.1963 14.5893C17.2415 14.6217 17.302 14.5778 17.2852 14.5247L17.1555 14.1148L17.5014 13.8594C17.5461 13.8263 17.5231 13.7553 17.4674 13.7548L17.0374 13.7515L16.9014 13.3437C16.8838 13.2909 16.8092 13.2909 16.7915 13.3437Z" fill="#F5F5F5"/>
<path d="M15.9557 12.0452L16.0286 12.469L15.6513 12.6751C15.6024 12.7018 15.6157 12.7753 15.6707 12.7833L16.0963 12.8449L16.1757 13.2675C16.186 13.3222 16.26 13.3323 16.2846 13.2824L16.4747 12.8968L16.9011 12.9517C16.9563 12.9589 16.9888 12.8916 16.9489 12.8528L16.6409 12.5528L16.8249 12.1643C16.8487 12.114 16.7948 12.0623 16.7456 12.0882L16.3651 12.2885L16.0524 11.9933C16.0121 11.9551 15.9463 11.9904 15.9557 12.0452Z" fill="#F5F5F5"/>
<path d="M14.899 10.9088L15.1008 11.2885L14.8069 11.6024C14.7688 11.643 14.8044 11.7087 14.8592 11.699L15.2827 11.6244L15.4904 12.0009C15.5173 12.0497 15.5907 12.0361 15.5984 11.981L15.6584 11.5552L16.0806 11.4741C16.1353 11.4636 16.1451 11.3895 16.0951 11.3651L15.7086 11.1766L15.7619 10.7499C15.7688 10.6947 15.7015 10.6625 15.6628 10.7025L15.3641 11.0117L14.9748 10.8292C14.9243 10.8056 14.8729 10.8597 14.899 10.9088Z" fill="#F5F5F5"/>
<path d="M13.6275 10.2038L13.9242 10.515L13.7258 10.8964C13.7001 10.9458 13.752 10.9994 13.8022 10.9754L14.1899 10.7895L14.4913 11.0961C14.5304 11.1358 14.5975 11.1029 14.59 11.0477L14.533 10.6215L14.9177 10.4296C14.9676 10.4048 14.9571 10.3308 14.9023 10.3208L14.4794 10.2433L14.4157 9.81807C14.4075 9.76304 14.3339 9.75015 14.3074 9.79913L14.1031 10.1775L13.679 10.1066C13.6241 10.0975 13.5891 10.1635 13.6275 10.2038Z" fill="#F5F5F5"/>
<path d="M12.165 9.87709L12.5342 10.0975L12.4452 10.5181C12.4337 10.5726 12.4981 10.6104 12.54 10.5737L12.8637 10.2907L13.2362 10.5054C13.2845 10.5331 13.3403 10.4836 13.3184 10.4324L13.1493 10.0371L13.4686 9.74908C13.5099 9.71181 13.48 9.64333 13.4245 9.64834L12.9963 9.68706L12.8211 9.29444C12.7984 9.24363 12.724 9.25089 12.7117 9.30518L12.6161 9.72438L12.1886 9.7697C12.1332 9.77561 12.1172 9.84855 12.165 9.87709Z" fill="#F5F5F5"/>
</g>
<defs>
<clipPath id="clip0_72_4603">
<path d="M0 2C0 0.895432 0.895431 0 2 0H21.9998C23.1043 0 23.9998 0.895431 23.9998 2V21.9998C23.9998 23.1043 23.1043 23.9998 21.9998 23.9998H2C0.895432 23.9998 0 23.1043 0 21.9998V2Z" fill="white"/>
</clipPath>
</defs>
</svg>
