<svg width="24" height="24" viewBox="0 0 24 24" fill="none" xmlns="http://www.w3.org/2000/svg">
<g clip-path="url(#clip0_72_4646)">
<path d="M23.9998 6.10352e-05H0V11.9999H23.9998V6.10352e-05Z" fill="#F5F5F5"/>
<path d="M23.9998 11.9999H0V23.9998H23.9998V11.9999Z" fill="#73AF00"/>
<path d="M18.2567 8.73924C18.2567 8.73924 18.5427 9.52378 18.5672 9.56466L18.5999 9.49927L18.796 8.47773L19.3027 7.52974L19.1556 7.5461L18.0033 8.10185C18.0033 8.10185 17.3168 8.85371 17.3086 8.87823C17.3005 8.90274 18.2567 8.73924 18.2567 8.73924Z" fill="#FF4B55"/>
<path d="M18.6625 16.2415C18.6244 16.236 18.0577 16.2632 18.0577 16.2632L17.8725 15.6421L17.7662 14.4681L17.9664 14.415L18.2157 14.5335L18.3056 14.0635C18.3056 14.0635 18.0891 13.8265 18.0482 13.8102C18.0073 13.7938 17.517 13.6835 17.517 13.6835L16.8591 12.8132L17.6437 12.3759L18.2566 11.5341L18.4037 10.7741L18.2811 10.1448L18.0024 9.67809C17.9983 9.66478 17.9951 9.65447 17.9951 9.65447C17.9931 9.65203 17.9862 9.64725 17.9818 9.64369L17.9297 9.55641L17.9289 9.60731C17.808 9.5318 17.5606 9.40045 17.4966 9.36844C17.4149 9.32756 16.9817 9.25402 16.8918 9.31941C16.8019 9.3848 16.3851 9.58092 16.3115 9.71986C16.2379 9.85879 16.189 10.3573 16.189 10.3573C16.189 10.3573 16.3115 10.6352 16.4668 10.7006C16.6221 10.766 16.9245 10.8395 16.9735 10.8231C17.0158 10.809 17.4955 10.6673 17.6264 10.6077L17.6845 10.7251L17.66 11.0601L17.3903 11.2481L16.8918 11.4442C16.8918 11.4442 16.1318 11.2317 16.099 11.2399C16.0664 11.2481 15.1265 10.962 15.1265 10.962L14.2439 10.7577L14.5381 10.6106L15.339 10.5534C15.339 10.5534 15.4943 9.64631 15.5188 9.62995C15.5434 9.61359 16.0664 9.19683 16.0664 9.19683L16.4995 9.09061L16.238 7.98189L16.6303 6.77239L15.606 7.06657L13.9824 7.46974L12.9472 7.40435L12.0319 7.69853L11.4435 8.23248L11.1057 8.69012L10.9859 9.42019L10.9096 10.39L10.6263 10.9239L10.3053 11.1755C10.2693 11.0805 10.1005 10.7169 10.1005 10.7169L10.5091 10.6188L10.4029 10.3491L10.1169 10.1367L10.2068 9.80976L10.5337 9.98957L10.6236 10.055L10.6808 9.71991L10.3212 9.21324L10.3784 8.95988L10.8115 9.18872L10.7625 8.60031L10.3784 8.36331L10.4029 8.03641L10.8224 8.1617L10.7788 7.85116L10.3212 7.51882L10.768 6.79967L10.2231 6.82695L10.1795 6.59267L10.0379 6.53815C10.0379 6.53815 9.28058 6.85962 9.22611 6.8487C9.17165 6.83782 8.56687 6.75607 8.49604 6.77243C8.42522 6.78879 8.17462 6.85414 8.17462 6.85414L8.1038 7.13201L7.64068 7.05574L6.9542 6.99856L6.74715 7.25191L7.07406 7.38269C7.07406 7.38269 6.99779 7.96019 7.01959 8.00378C7.04139 8.04737 7.23751 8.33068 7.23751 8.33068L6.79075 8.94085L7.24838 9.00624L7.88039 8.90818L7.8586 9.06076L8.69765 8.97357L8.5124 9.07163L8.27269 9.79078L7.57529 11.2073L7.33013 12.4659L6.93784 12.0573L6.67633 10.9785L6.28403 9.91607C6.28403 9.91607 6.20233 9.58917 6.15325 9.58102C6.10418 9.57286 5.89174 9.53198 5.89174 9.53198L5.62207 9.75262L5.27881 9.70359L5.08269 9.97326L5.30332 10.3165C5.30332 10.3165 4.93555 10.4636 4.93555 10.5045C4.93555 10.5454 4.96006 10.7824 4.98458 10.7905C5.00909 10.7987 5.56484 10.7824 5.56484 10.7824L5.8999 11.3789L5.63838 12.0654L5.76916 12.3269L5.99801 12.3596L6.21049 12.1144L6.946 14.3128C6.946 14.3128 6.88881 14.5988 6.84793 14.6234C6.80706 14.6479 6.61094 14.8685 6.65997 14.8685C6.709 14.8685 7.01139 14.9094 7.04406 14.893C7.07673 14.8767 7.50169 14.5498 7.50169 14.5498C7.50169 14.5498 8.17181 14.0349 8.21269 14.0758C8.25356 14.1166 8.89101 14.5089 8.89101 14.5089L8.59682 15.5223L7.90219 16.5357L7.46907 16.2741L7.15853 15.8328L6.92968 15.9064L6.84798 16.0453L6.88065 16.3395C6.88065 16.3395 6.64365 16.5274 6.64365 16.5683C6.64365 16.6092 6.66817 16.9034 6.66817 16.9034C6.66817 16.9034 6.82347 16.9769 6.83162 17.0178C6.83978 17.0587 6.92153 17.3529 6.92153 17.3529L7.08498 17.41L7.39552 17.2221H7.91039L8.22909 17.2711L8.90741 17.0586L9.89628 17.1077L9.80637 16.9197C9.80637 16.9197 9.40593 16.7154 9.26699 16.6745C9.12805 16.6337 8.98912 16.601 8.98912 16.601L8.93193 16.315L9.90444 15.1626L10.264 15.0891L10.3866 15.3915C10.3866 15.3915 10.7898 15.2934 10.7898 15.2607C10.7898 15.228 10.7898 14.8793 10.7898 14.8466C10.7898 14.8139 10.7026 14.5415 10.7026 14.5415C10.7026 14.5415 10.7014 14.5315 10.6997 14.5165L11.0077 14.4652L12.0755 13.9531L12.4515 14.4053L12.92 14.6287L12.337 15.6747L11.8358 16.0125L11.4762 15.8491L10.975 15.4786L10.7789 15.5984L10.8225 15.9689L10.5283 15.9471L10.3975 16.2087L10.6154 16.5246L10.5392 16.7753C10.5392 16.7753 10.5937 17.0041 10.6481 17.0041C10.7026 17.0041 11.0295 16.8843 11.0295 16.8843L11.9884 16.808L12.6858 16.5792L13.4159 16.6337C13.4159 16.6337 13.5576 16.1433 13.5249 16.1433C13.4922 16.1433 13.4813 16.1324 13.3941 16.1324C13.3069 16.1324 13.0018 16.1433 13.0018 16.1433L12.9909 16.0343L13.2306 15.5985L14.1568 14.8248L14.4292 14.8793L14.5273 15.021L14.7997 14.8139L14.7888 14.4652L14.549 14.2147L14.3093 13.9313L14.3856 13.5064L14.7996 13.7025C14.7996 13.7025 15.4534 14.1601 15.5079 14.182C15.5624 14.2037 16.8264 14.5306 16.8264 14.5306L17.0879 15.1517L16.9571 16.1324L16.554 16.0126L16.1726 15.5222C16.1726 15.5222 16.0636 15.4677 16.0091 15.4786C15.9547 15.4896 15.8239 15.7075 15.8239 15.7075L15.9547 16.0126L15.7803 16.067L15.6169 16.176L15.5842 16.4049L15.7368 16.5465C15.7368 16.5465 15.7368 16.808 15.7368 16.8407C15.7368 16.8734 15.8239 16.9933 15.8566 17.0042C15.8893 17.015 16.1399 17.0478 16.1999 17.0423C16.2598 17.0369 16.7065 16.8516 16.7065 16.8516C16.7065 16.8516 17.5455 16.8679 17.5673 16.8625C17.5891 16.8571 18.3138 16.6991 18.3138 16.6991L18.7224 16.7644C18.7224 16.7644 18.9948 16.5574 18.9839 16.5302C18.973 16.5029 18.7007 16.2469 18.6625 16.2415ZM17.0962 10.341C16.8755 10.3655 16.7611 10.4309 16.7447 10.3083C16.7284 10.1857 16.7284 9.94054 16.7529 9.93239C16.7774 9.92423 17.0308 9.77709 17.0389 9.80161C17.0471 9.82612 17.3004 9.9487 17.3004 9.9487L17.4547 10.2605C17.3733 10.3038 17.2478 10.3242 17.0962 10.341Z" fill="#FF4B55"/>
<path d="M5.95662 8.33879C5.95662 8.33879 6.04653 7.87295 6.07104 7.87295C6.09556 7.87295 6.43062 7.75037 6.43062 7.75037L5.43359 7.10477C5.43359 7.10477 5.6052 7.89751 5.62156 7.96286C5.63792 8.0282 5.95662 8.33879 5.95662 8.33879Z" fill="#FF4B55"/>
<path d="M8.49409 7.37995C8.49756 7.38075 8.51744 7.3852 8.54786 7.3912L8.54036 7.42387C8.52808 7.47646 8.56103 7.52934 8.6139 7.54134C8.62131 7.54312 8.62872 7.54387 8.63598 7.54387C8.68056 7.54387 8.72101 7.51321 8.73137 7.46774L8.74187 7.42209C8.81251 7.43085 8.89028 7.43761 8.96542 7.43761C9.02888 7.43761 9.09015 7.43301 9.14293 7.42073C9.19566 7.40845 9.22862 7.35586 9.21633 7.30326C9.20405 7.25039 9.15184 7.21668 9.09873 7.22972C8.94357 7.26623 8.64109 7.21237 8.53792 7.18884C8.48622 7.17656 8.43269 7.20951 8.42045 7.26239C8.4084 7.31531 8.44136 7.36795 8.49409 7.37995Z" fill="#464655"/>
<path d="M18.2033 8.96318L18.4504 9.71777C18.4637 9.75813 18.5014 9.78518 18.5437 9.78518C18.5451 9.78518 18.5465 9.78518 18.548 9.78518C18.5919 9.78311 18.6293 9.75222 18.6392 9.70933C18.82 8.9345 19.1819 7.70887 19.4377 7.50867C19.4733 7.48082 19.4851 7.43254 19.4666 7.3912C19.4483 7.35033 19.4044 7.32684 19.3595 7.335C19.3071 7.3447 18.0666 7.58629 17.2035 8.88087C17.1814 8.91406 17.1815 8.95723 17.2037 8.99018C17.2261 9.02314 17.2659 9.03847 17.305 9.03129L18.0237 8.8827C17.923 9.12537 17.8589 9.33879 17.8367 9.41721C17.5094 9.218 17.1403 9.18256 16.8843 9.24893C16.5921 9.32553 16.3466 9.51171 16.2105 9.75996C16.1061 9.95022 16.0786 10.1591 16.1348 10.333C16.2 10.5351 16.3742 10.7864 16.6675 10.8852C16.8618 10.9512 17.1759 10.9658 17.5898 10.7096C17.5898 10.7116 17.5901 10.7134 17.5901 10.7154C17.5873 10.8788 17.5034 11.0121 17.3404 11.112C17.0166 11.3104 16.4487 11.3237 16.075 11.1408C15.5822 10.9002 14.8411 10.7633 14.4271 10.7011C14.6838 10.6193 14.9941 10.5962 15.3671 10.6817C15.3721 10.6829 15.377 10.6809 15.3821 10.6813C15.3846 10.6815 15.3865 10.6842 15.389 10.6842C15.3917 10.6842 15.3938 10.6813 15.3966 10.681C15.4192 10.6793 15.4409 10.6724 15.4574 10.6563C15.4577 10.6561 15.4577 10.6557 15.458 10.6555C15.4581 10.6554 15.4582 10.6554 15.4582 10.6554C15.4587 10.655 15.4585 10.6543 15.4589 10.654C15.4747 10.6375 15.4818 10.6164 15.4837 10.5942C15.4842 10.5889 15.4848 10.5848 15.4844 10.5796C15.4841 10.5751 15.4859 10.5709 15.4851 10.5665C15.4839 10.5609 15.3752 10.0041 15.6744 9.62051C15.8542 9.38988 16.1483 9.26398 16.5485 9.24584C16.5548 9.24556 16.56 9.24195 16.5661 9.24049C16.5747 9.23843 16.5833 9.23721 16.5912 9.23285C16.5983 9.22892 16.6033 9.22264 16.6093 9.21701C16.6143 9.21237 16.6204 9.20956 16.6245 9.20375C16.6253 9.20253 16.6254 9.20107 16.6262 9.19981C16.6269 9.19873 16.6282 9.19826 16.6288 9.19714C16.6306 9.19409 16.6302 9.19048 16.6317 9.18734C16.6361 9.17754 16.6392 9.1677 16.6402 9.15739C16.6407 9.15242 16.6407 9.14787 16.6404 9.1429C16.6399 9.13184 16.6373 9.12143 16.6332 9.11117C16.6321 9.10859 16.6326 9.10568 16.6313 9.1032C16.6234 9.08764 15.8539 7.54893 17.1076 6.52149C17.1484 6.48802 17.1554 6.42826 17.1236 6.3864C17.0917 6.34477 17.0326 6.33507 16.9891 6.36545C15.7513 7.23455 14.0404 7.32825 13.3624 7.32825C12.153 7.32825 11.3889 7.78359 11.0263 8.72009C10.9886 8.81741 10.9619 8.93281 10.9395 9.05637C10.9516 8.88312 10.9199 8.73116 10.8418 8.60413C10.7301 8.423 10.5595 8.34716 10.4827 8.32082C10.4827 8.27638 10.4824 8.23236 10.4811 8.18915C10.6135 8.16876 10.7707 8.27155 10.8226 8.31524C10.8407 8.33057 10.8633 8.33872 10.8862 8.33872C10.9012 8.33872 10.9165 8.33516 10.9304 8.32799C10.9656 8.31013 10.9868 8.2731 10.984 8.23377C10.952 7.77773 10.6426 7.55611 10.4303 7.48111C10.6175 7.33237 10.8169 7.08909 10.9391 6.69225C10.9508 6.65396 10.9382 6.61233 10.907 6.5873C10.8758 6.56204 10.8324 6.55819 10.7977 6.5776C10.7944 6.57943 10.5947 6.68752 10.2946 6.77668L10.3221 6.42029C10.3247 6.38429 10.3075 6.34955 10.2769 6.33015C10.2464 6.31046 10.2073 6.30971 10.176 6.32762C10.1709 6.33038 9.66882 6.61229 9.15676 6.76102C8.77023 6.6638 8.26717 6.58824 8.07649 6.7868C8.0305 6.83457 7.98775 6.91219 7.99835 7.03247C7.66929 6.96375 6.91386 6.85139 6.45528 7.14792C6.41914 7.17117 6.40255 7.21533 6.41418 7.25672C6.42594 7.29811 6.46321 7.32722 6.50624 7.32825C6.65183 7.33181 6.87683 7.36528 6.97067 7.42734C6.92928 7.53895 6.86084 7.77543 6.92061 8.00348C6.72158 8.06113 6.51275 8.07008 6.25883 7.93265L6.48022 7.87832C6.51993 7.86862 6.54941 7.83515 6.55428 7.79456C6.55902 7.75396 6.53807 7.71463 6.50178 7.69598C6.49616 7.69293 5.93788 7.40254 5.47359 6.91449C5.44729 6.88716 5.40731 6.87722 5.37066 6.88946C5.33437 6.90197 5.30873 6.93441 5.30503 6.97247C5.30109 7.0118 5.2178 7.93963 5.92242 8.48971C5.94004 8.50325 5.96137 8.51038 5.98284 8.51038C5.99624 8.51038 6.00965 8.50756 6.0224 8.50194C6.05535 8.48736 6.0778 8.45596 6.08062 8.41996L6.10794 8.06952C6.45946 8.27999 6.7505 8.25983 7.00015 8.18399C7.03142 8.23175 7.07126 8.27722 7.12147 8.31885C7.12953 8.32555 7.14059 8.33282 7.15179 8.34013C6.99134 8.71578 6.67269 8.81258 6.6591 8.81633C6.61939 8.82781 6.59089 8.86283 6.58808 8.90394C6.58513 8.94504 6.60814 8.98362 6.64578 9.00045C6.66955 9.0109 7.18273 9.23285 7.75798 9.02801L7.74893 9.09364C7.74509 9.1212 7.75329 9.14932 7.77152 9.17051C7.78966 9.19198 7.8161 9.2045 7.84404 9.20501C7.84647 9.20501 7.85299 9.20525 7.86321 9.20525C7.92926 9.20525 8.14835 9.20023 8.39673 9.14318C8.35919 9.49404 8.14544 9.9123 7.918 10.3535C7.61013 10.9512 7.26701 11.6252 7.2725 12.306C7.15503 12.1539 7.00878 11.9168 6.93641 11.6021C6.91137 11.4928 6.89478 11.3947 6.87969 11.3051C6.84303 11.0882 6.81139 10.9008 6.68319 10.7246C6.53825 10.5254 6.33332 10.0808 6.34227 9.83786C6.35071 9.61338 6.20362 9.48134 6.05418 9.44993C6.04345 9.44768 6.03323 9.45049 6.02254 9.44923C5.98715 9.37793 5.89129 9.24139 5.67112 9.22568C5.61811 9.21851 5.57011 9.26248 5.56626 9.31662C5.56242 9.37053 5.60306 9.41749 5.65706 9.42134C5.73384 9.42677 5.78151 9.45607 5.81081 9.48537C5.7389 9.52235 5.68059 9.58408 5.64004 9.66307C5.50879 9.58741 5.37609 9.56843 5.27461 9.59168C5.24836 9.59763 5.22844 9.61184 5.20575 9.62257C5.13933 9.58788 4.96247 9.52193 4.74924 9.65754C4.70354 9.68641 4.68999 9.74716 4.7191 9.79291C4.73776 9.8223 4.76954 9.83838 4.80197 9.83838C4.81983 9.83838 4.83811 9.8335 4.85447 9.82305C4.9306 9.77472 4.99561 9.7684 5.04328 9.77444C5.00831 9.83918 4.98849 9.91057 4.99186 9.97703C4.99861 10.1091 5.07497 10.2115 5.193 10.2549C5.05228 10.2817 4.93303 10.3471 4.86929 10.4355C4.85902 10.4498 4.85686 10.4661 4.8495 10.4813C4.75988 10.4905 4.62202 10.5509 4.53488 10.735C4.51163 10.7838 4.53259 10.8423 4.58148 10.8655C4.59512 10.8719 4.60932 10.875 4.62338 10.875C4.66018 10.875 4.69538 10.8543 4.71211 10.8188C4.75097 10.7368 4.79663 10.7043 4.83075 10.6894C4.92389 10.9966 5.22675 10.9267 5.40942 10.8839L5.48259 10.8673C5.58501 10.8469 5.76557 11.1459 5.81409 11.3401C5.84779 11.4749 5.79009 11.6399 5.60826 11.9285C5.49783 12.1042 5.52961 12.2314 5.57582 12.3072C5.57672 12.3088 5.57826 12.3096 5.5792 12.3111C5.5499 12.3198 5.51372 12.3262 5.46487 12.3197C5.41214 12.309 5.3617 12.3499 5.35444 12.4035C5.34717 12.4571 5.38472 12.5067 5.43834 12.5138C5.46337 12.5174 5.487 12.5189 5.50936 12.5189C5.6234 12.5189 5.69939 12.48 5.74504 12.4481C5.80879 12.4754 5.87446 12.4857 5.92293 12.4819C6.05816 12.4707 6.14971 12.3522 6.21163 12.2051C6.39205 13.1998 6.8067 14.1236 6.8787 14.2793C6.86412 14.6318 6.48374 14.7145 6.46729 14.7181C6.425 14.7267 6.39336 14.762 6.38938 14.8052C6.38544 14.848 6.40982 14.8884 6.44966 14.9048C6.61517 14.9725 6.75997 14.9995 6.88573 14.9995C7.27367 14.9995 7.47874 14.7436 7.54334 14.645C7.82983 14.5452 8.16569 14.3116 8.2968 14.216C8.51542 14.3798 8.69715 14.4707 8.7579 14.4991C8.65225 15.5389 8.04264 16.2413 7.86424 16.4256C7.74344 16.3563 7.47668 16.1855 7.3886 15.9819C7.30526 15.7896 7.15072 15.7354 7.02467 15.7467C6.98234 15.692 6.88737 15.59 6.75411 15.5754C6.68863 15.5685 6.58925 15.5805 6.48824 15.6817C6.44994 15.72 6.44994 15.782 6.48824 15.8203C6.52644 15.8586 6.58846 15.8589 6.62689 15.8206C6.6823 15.7652 6.71999 15.7685 6.73222 15.7703C6.76995 15.7743 6.80647 15.8016 6.83534 15.8297C6.76386 15.8906 6.71961 15.9759 6.72674 16.069C6.7318 16.1344 6.75631 16.1959 6.79086 16.2532C6.71942 16.2903 6.63336 16.3513 6.57669 16.4478C6.57463 16.4513 6.57238 16.4567 6.57022 16.4605C6.45313 16.468 6.24243 16.5507 6.20957 16.8234C6.20319 16.8773 6.24149 16.9261 6.29526 16.9325C6.29933 16.933 6.30318 16.9332 6.30711 16.9332C6.356 16.9332 6.39843 16.8967 6.40443 16.8469C6.41614 16.7492 6.46349 16.7022 6.50783 16.6787C6.50671 16.719 6.51003 16.7608 6.52447 16.8045C6.55832 16.9074 6.63833 16.9909 6.75777 17.0558C6.74511 17.0961 6.73695 17.1389 6.73583 17.1852C6.67278 17.217 6.57978 17.2763 6.53216 17.3774C6.49653 17.4527 6.49438 17.537 6.52564 17.6212C6.54032 17.6608 6.57772 17.6851 6.61756 17.6851C6.62891 17.6851 6.64053 17.683 6.65178 17.6789C6.70259 17.6601 6.72842 17.6036 6.70949 17.5528C6.69238 17.5071 6.70119 17.4787 6.70935 17.4614C6.72383 17.4305 6.75261 17.4045 6.78205 17.3843C6.81842 17.4496 6.87336 17.4994 6.94686 17.5236C6.98042 17.5346 7.0153 17.54 7.05031 17.54C7.16703 17.54 7.28525 17.481 7.36114 17.3783C7.45193 17.2552 7.62954 17.3257 7.64102 17.3306C8.01236 17.4654 8.51406 17.3638 8.81772 17.1932C8.98614 17.0984 9.57952 17.1495 9.9142 17.2044C9.94036 17.208 9.9682 17.2016 9.98981 17.1855C10.0113 17.1689 10.0249 17.1444 10.0276 17.1173C10.0614 16.7787 9.6233 16.6888 9.27127 16.6165C9.17537 16.5968 9.08406 16.5782 8.99799 16.5414C8.96364 16.3427 9.47991 15.6195 9.97177 15.2579C10.0923 15.1692 10.1894 15.1337 10.238 15.1598C10.3075 15.1979 10.3296 15.3751 10.3225 15.4829C10.3223 15.4857 10.324 15.4882 10.324 15.491C10.3242 15.5017 10.3261 15.5119 10.3299 15.5223C10.3315 15.5267 10.3327 15.5308 10.3349 15.5349C10.3362 15.5375 10.3364 15.5404 10.338 15.5429C10.3436 15.5515 10.3512 15.5578 10.3588 15.564C10.3603 15.5653 10.3608 15.5672 10.3624 15.5684C10.3627 15.5687 10.3632 15.5687 10.3632 15.5687C10.3759 15.5777 10.3899 15.583 10.4047 15.5855C10.4085 15.5861 10.412 15.5855 10.4158 15.5857C10.4268 15.5862 10.4374 15.5851 10.4482 15.5818C10.4507 15.5811 10.4534 15.5819 10.4559 15.5809C10.4639 15.5778 10.4725 15.5734 10.4806 15.5702C10.5329 15.5434 10.6216 15.5733 10.6836 15.605C10.672 15.6407 10.6651 15.6782 10.6684 15.7186C10.6724 15.7692 10.6882 15.8195 10.7127 15.8678C10.6155 15.8568 10.5246 15.8678 10.4588 15.9183C10.4353 15.9363 10.4168 15.959 10.3981 15.9814C10.26 15.9951 10.0874 16.0821 10.0463 16.2877C10.0357 16.3408 10.0701 16.3924 10.1232 16.4031C10.1297 16.4044 10.1362 16.4049 10.1426 16.4049C10.1883 16.4049 10.2293 16.3727 10.2387 16.326C10.2485 16.2769 10.2736 16.2472 10.3013 16.2248C10.3005 16.2606 10.3043 16.2961 10.3149 16.3295C10.3341 16.3902 10.3859 16.4807 10.5177 16.5312C10.5059 16.5514 10.4956 16.5729 10.4866 16.5948C10.3884 16.6264 10.2406 16.7282 10.2406 16.9442C10.2406 16.9984 10.2845 17.0423 10.3387 17.0423C10.3928 17.0423 10.4367 16.9984 10.4367 16.9442C10.4367 16.906 10.4462 16.8784 10.4587 16.8555C10.4618 16.8697 10.464 16.8842 10.4692 16.8975C10.4929 16.9596 10.5643 17.076 10.7643 17.076C10.8302 17.076 10.9099 17.0635 11.0064 17.0321C11.2404 16.9562 11.4063 16.9483 11.5667 16.9404C11.7585 16.9312 11.9397 16.9222 12.1942 16.8043C12.561 16.6339 13.0152 16.6916 13.2532 16.7415C13.3821 16.768 13.5083 16.7047 13.5603 16.5864C13.5782 16.5462 13.5898 16.5108 13.6022 16.475C13.7131 16.4883 13.7361 16.5961 13.7391 16.6199C13.7446 16.6699 13.787 16.7072 13.8364 16.7072C13.8397 16.7072 13.8431 16.707 13.8466 16.7067C13.9005 16.701 13.9397 16.6528 13.9341 16.5989C13.9235 16.4964 13.8475 16.3126 13.6443 16.2807C13.6469 16.2111 13.6334 16.1539 13.5993 16.1116C13.562 16.0657 13.4878 16.0174 13.3425 16.0473C13.1921 16.0785 13.1229 16.0846 13.0917 16.0818C13.0965 16.0626 13.1076 16.0287 13.1335 15.9707C13.2211 15.7735 13.8027 15.2536 14.1836 14.9423C14.2755 14.9216 14.3919 14.9203 14.4188 14.9509C14.4283 14.9614 14.4283 14.9974 14.4068 15.0544C14.3915 15.0948 14.4044 15.1402 14.4384 15.1665C14.4722 15.1928 14.5195 15.1941 14.5547 15.1696C14.5699 15.1588 14.9257 14.9063 14.9185 14.5985C14.9148 14.443 14.8242 14.3079 14.649 14.1971C14.5005 14.1033 14.4151 13.9948 14.3952 13.8747C14.3744 13.7492 14.4279 13.6378 14.4637 13.5785C14.6042 13.6458 14.7452 13.7329 14.8856 13.849C15.7138 14.5337 16.4185 14.6428 16.7992 14.641C16.879 14.8174 17.1135 15.4194 16.9134 16.0376C16.8069 16.0187 16.5977 15.9508 16.4542 15.7115C16.3146 15.4791 16.1472 15.4209 16.0311 15.4132C15.8507 15.3992 15.6593 15.5019 15.5089 15.6898C15.4767 15.7302 15.4812 15.7884 15.5189 15.8231C15.5569 15.8581 15.6155 15.8579 15.6526 15.8226C15.6777 15.7989 15.7243 15.77 15.7443 15.7856L15.7646 15.8423C15.7755 15.8737 15.7866 15.9054 15.7999 15.9361C15.7219 15.9475 15.6468 15.9795 15.5881 16.0459C15.5495 16.0896 15.5252 16.1402 15.5076 16.1922C15.328 16.2243 15.2301 16.3606 15.226 16.3669C15.1961 16.4116 15.2082 16.4716 15.2527 16.5018C15.2694 16.5133 15.2885 16.5189 15.3074 16.5189C15.3387 16.5189 15.3695 16.5041 15.3887 16.4765C15.3906 16.474 15.4268 16.4248 15.4916 16.3973C15.4998 16.4343 15.5129 16.47 15.5331 16.5026C15.5669 16.5571 15.615 16.5937 15.6695 16.6131C15.6621 16.6415 15.6558 16.6724 15.6518 16.7057C15.6497 16.7064 15.6475 16.7061 15.6455 16.7069C15.4106 16.8058 15.4585 17.0977 15.5166 17.2381C15.5323 17.2759 15.5687 17.2986 15.6071 17.2986C15.6196 17.2986 15.6323 17.2961 15.6444 17.2912C15.6944 17.2705 15.7183 17.2133 15.6979 17.1632C15.6972 17.1614 15.642 17.0172 15.6775 16.9351C15.6784 16.9373 15.6786 16.9396 15.6796 16.9418C15.7202 17.0335 15.7985 17.0989 15.9059 17.131C15.9588 17.1469 16.0093 17.1535 16.0577 17.1535C16.2182 17.1535 16.3545 17.0792 16.4691 17.0163C16.5584 16.9675 16.6428 16.9229 16.7093 16.9275C16.7577 16.932 16.8132 16.9407 16.8739 16.9502C17.1033 16.986 17.4176 17.0345 17.7296 16.9341C17.7877 16.9155 17.8403 16.8973 17.8885 16.8807C18.1419 16.7939 18.2367 16.7615 18.3916 16.8495C18.5792 16.9568 18.821 16.8848 18.9456 16.7533C18.9847 16.712 19.0072 16.6661 19.0193 16.6195C19.0832 16.645 19.135 16.6725 19.1434 16.6879C19.1251 16.739 19.1517 16.7949 19.2028 16.8133C19.2137 16.8171 19.2248 16.8189 19.2358 16.8189C19.276 16.8189 19.3138 16.7939 19.3281 16.7538C19.3465 16.7025 19.342 16.6496 19.3155 16.6011C19.2506 16.483 19.0608 16.4197 18.9659 16.3945C18.8089 16.1812 18.5697 16.1148 18.1744 16.1774C18.1587 16.1797 18.1464 16.1768 18.1329 16.1656C17.9886 16.0489 17.9568 15.4426 17.9379 15.0807C17.9227 14.7911 17.9124 14.6231 17.8679 14.5424C17.8907 14.5237 18.0148 14.5214 18.0922 14.5779C18.1294 14.6054 18.1331 14.6302 18.1242 14.6583C18.1227 14.6624 18.1213 14.6662 18.1199 14.6701C18.1007 14.7201 18.1255 14.7766 18.1754 14.7962C18.2253 14.8154 18.2819 14.7918 18.3022 14.7421C18.3052 14.7352 18.3077 14.728 18.31 14.7211C18.345 14.6218 18.4883 14.1718 18.3195 13.8867C18.2436 13.7588 18.1202 13.6824 17.9522 13.6597C17.5244 13.602 17.1985 13.3287 16.9792 12.8524C17.3113 12.7357 18.2891 12.2925 18.4719 11.0693C18.5934 10.2562 18.3019 9.80079 18.036 9.56201C18.0233 9.55057 18.0095 9.5419 17.9965 9.53112C18.0042 9.52118 18.014 9.51293 18.0175 9.49995C18.0184 9.49573 18.0856 9.24837 18.2033 8.96318ZM17.5108 8.78839C18.0698 8.06104 18.7552 7.73723 19.1259 7.60645C18.8828 8.04444 18.6511 8.86372 18.5304 9.33157L18.3263 8.70842C18.3255 8.70598 18.323 8.70495 18.322 8.70266C18.3819 8.58463 18.4491 8.47035 18.5233 8.37388C18.5563 8.33099 18.5482 8.26944 18.5053 8.23649C18.4623 8.2033 18.4009 8.21146 18.3678 8.25435C18.2752 8.37472 18.1937 8.51745 18.1232 8.66164L17.5108 8.78839ZM5.90043 8.20508C5.59832 7.88507 5.51967 7.46981 5.50162 7.21748C5.76009 7.45706 6.0208 7.63631 6.19668 7.74562L6.04045 7.78401C6.01059 7.76006 5.98124 7.73793 5.95012 7.7099C5.91013 7.6739 5.84821 7.67746 5.8117 7.71731C5.77542 7.75767 5.77874 7.81973 5.8191 7.85596C5.85412 7.88741 5.88735 7.91165 5.92129 7.9386L5.90043 8.20508ZM13.2978 11.4401C13.1145 10.951 12.5614 9.78007 11.2062 8.80039C11.2072 8.79753 11.2079 8.79378 11.209 8.79097C11.2264 8.74606 11.2491 8.70739 11.2686 8.66492C13.3203 9.18921 14.5692 10.0422 15.068 10.4394C14.0488 10.3642 13.5097 11.0663 13.2978 11.4401ZM15.5189 9.50093C15.3023 9.77932 15.2645 10.1185 15.2688 10.3475C14.8189 9.9708 13.5542 9.05412 11.3548 8.4853C11.3832 8.43594 11.4173 8.39305 11.4492 8.34753C11.4563 8.34918 11.4631 8.35175 11.4705 8.35218C14.1766 8.23593 15.6864 8.81698 16.2393 9.09082C15.9291 9.15368 15.6846 9.28788 15.5189 9.50093ZM13.3623 7.52423C13.9605 7.52423 15.3413 7.45247 16.5323 6.86227C16.0211 7.63228 16.2049 8.4966 16.3493 8.92362C15.8008 8.6427 14.3155 8.05921 11.6063 8.15263C11.9971 7.73404 12.575 7.52423 13.3623 7.52423ZM11.0622 9.6138C11.0866 9.39213 11.111 9.18129 11.1495 9.00368C12.4519 9.96911 12.9763 11.1361 13.1316 11.5592C12.8118 11.4875 12.522 11.5108 12.2723 11.6395C12.0679 11.7451 11.9253 11.9001 11.8276 12.0421C11.784 11.5486 11.6211 10.668 11.026 9.97469C11.0241 9.97244 11.0214 9.9715 11.0193 9.96949C11.0352 9.85015 11.0493 9.73066 11.0622 9.6138ZM10.9383 12.6077C10.4826 12.5015 10.2912 12.0423 10.2824 12.0206C10.2704 11.991 10.2447 11.9687 10.2135 11.9616C10.2061 11.96 10.1987 11.959 10.1913 11.959C10.1675 11.959 10.1441 11.968 10.1258 11.9843C9.79842 12.2788 9.39788 12.3564 9.19791 12.3768C9.35598 11.8803 9.80049 11.6224 10.3985 11.2753L10.4261 11.2592C10.5751 11.1727 10.6827 11.0414 10.7668 10.8869C10.7667 11.1336 10.7799 11.4086 10.8252 11.64C10.8344 11.6867 10.8754 11.7192 10.9214 11.7192C10.9276 11.7192 10.934 11.7187 10.9404 11.7174C10.9935 11.7069 11.0281 11.6553 11.0178 11.6022C10.9197 11.1017 10.9818 10.349 10.9908 10.2475C11.5612 11.0174 11.6367 11.989 11.6452 12.3059C11.3106 12.248 11.1242 11.988 11.1223 11.9853C11.104 11.9587 11.074 11.9429 11.0419 11.9429H11.0415C11.0096 11.9429 10.9798 11.9582 10.9613 11.9843C10.8163 12.1897 10.8728 12.4427 10.9383 12.6077ZM10.591 9.92463C10.515 9.83116 10.4128 9.72832 10.3116 9.68308C10.3345 9.59173 10.356 9.49446 10.3755 9.39232C10.4804 9.47852 10.6392 9.65608 10.591 9.92463ZM10.1492 10.2751C10.1786 10.2794 10.3574 10.3139 10.4315 10.5434C10.3484 10.5291 10.2504 10.5366 10.1517 10.5898C10.136 10.4979 10.1329 10.393 10.1492 10.2751ZM10.4994 10.7781C10.5278 10.8 10.5654 10.8026 10.5977 10.7887C10.5408 10.8943 10.4693 10.9816 10.3814 11.0472C10.3333 10.9987 10.2626 10.9119 10.2093 10.7862C10.3546 10.6803 10.4849 10.7676 10.4994 10.7781ZM10.8374 9.33237C10.8717 9.32356 10.8981 9.29642 10.9071 9.26215C10.8928 9.36888 10.8797 9.47857 10.8672 9.59238C10.8261 9.96527 10.7813 10.3691 10.6543 10.6756C10.6182 10.2635 10.3492 10.1118 10.1917 10.0844C10.2001 10.0559 10.2077 10.0279 10.2184 9.99817C10.2323 9.95941 10.246 9.91779 10.2595 9.87382C10.3491 9.93035 10.4729 10.0834 10.5423 10.1899C10.5606 10.218 10.5915 10.2346 10.6245 10.2346C10.6268 10.2346 10.6291 10.2346 10.6314 10.2344C10.6671 10.2318 10.6985 10.2101 10.7134 10.1779C10.9481 9.6731 10.6321 9.31315 10.4122 9.17726C10.4178 9.14131 10.4233 9.10545 10.4283 9.06893C10.5558 9.12884 10.6919 9.25217 10.7409 9.30453C10.7596 9.32468 10.7857 9.3357 10.8125 9.3357C10.8209 9.3357 10.8291 9.33467 10.8374 9.33237ZM10.6747 8.70692C10.7306 8.79786 10.7541 8.9097 10.7451 9.04095C10.6655 8.97486 10.5604 8.90342 10.4527 8.86536C10.4642 8.75389 10.4729 8.642 10.4779 8.53156C10.5375 8.56128 10.6177 8.61463 10.6747 8.70692ZM10.7455 8.0406C10.665 8.0054 10.5682 7.98159 10.4688 7.99246C10.4587 7.88334 10.4429 7.78185 10.4206 7.68998C10.5237 7.73845 10.6718 7.83974 10.7455 8.0406ZM10.1127 6.5829L10.0938 6.82847C9.94163 6.86236 9.77424 6.88777 9.59691 6.89194C9.57033 6.88275 9.5333 6.87033 9.49018 6.85646C9.74269 6.76303 9.96942 6.65574 10.1127 6.5829ZM7.24686 8.16805C7.2267 8.15118 7.20893 8.13332 7.19347 8.11466C7.21273 8.10702 7.2319 8.09933 7.25065 8.09193C7.38678 8.03727 7.51521 7.98566 7.63882 7.97877C7.91655 7.96166 7.99764 8.07149 8.01579 8.10519C8.0343 8.13969 8.03135 8.17007 8.02038 8.18511C7.97416 8.24793 7.9001 8.28575 7.80012 8.29799C7.5717 8.3241 7.29982 8.21225 7.24686 8.16805ZM7.93586 8.79017C7.90624 8.7687 7.86715 8.76542 7.83485 8.78225C7.49838 8.95029 7.16356 8.92911 6.95094 8.88669C7.07862 8.79964 7.22825 8.65377 7.32837 8.42342C7.44303 8.465 7.58548 8.49852 7.72643 8.49852C7.7591 8.49852 7.79168 8.49646 7.82374 8.49266C7.97721 8.474 8.09983 8.40786 8.17835 8.30164C8.23745 8.22121 8.2413 8.11012 8.18828 8.01205C8.14717 7.93593 8.01039 7.76048 7.62809 7.78321C7.47218 7.79165 7.32251 7.85165 7.17772 7.90987C7.15447 7.91905 7.13122 7.92852 7.10811 7.93743C7.05551 7.70526 7.17298 7.44937 7.17462 7.44604C7.1892 7.41487 7.18648 7.37836 7.16745 7.34976C7.11294 7.26778 7.00437 7.21669 6.89023 7.18476C7.41888 7.07419 8.09758 7.25676 8.10588 7.25906C8.14216 7.26853 8.18017 7.25803 8.20497 7.22995C8.22972 7.20239 8.23675 7.16306 8.22311 7.12833C8.18364 7.029 8.18186 6.95977 8.21777 6.9225C8.37025 6.76364 9.08799 6.92072 9.54858 7.08263C9.55955 7.08647 9.57183 7.08544 9.58266 7.08825C10.0365 7.08108 10.4331 6.95138 10.6679 6.8543C10.4029 7.42997 9.95199 7.51092 9.93075 7.51448C9.8775 7.52292 9.84113 7.5727 9.84928 7.62609C9.85744 7.67971 9.90764 7.71726 9.96113 7.70831C9.97149 7.70667 10.0673 7.68998 10.1978 7.62721C10.392 8.16444 10.2399 9.35885 10.0336 9.93171C9.80283 10.573 10.0589 10.9802 10.2156 11.155C9.59621 11.5154 9.11195 11.8215 8.97643 12.4506C8.97624 12.4512 8.97578 12.4515 8.97559 12.4521C8.97235 12.4624 8.93917 12.5726 8.90092 12.7692C8.66087 12.6096 8.21355 11.9549 8.45434 11.1874C8.51997 10.978 8.59712 10.7732 8.6717 10.575C8.89337 9.98664 9.1021 9.43043 8.94667 8.90951C9.00732 8.86601 9.06413 8.81726 9.11326 8.75998C9.28426 8.56077 9.34402 8.30614 9.29087 8.00301C9.28168 7.94938 9.23096 7.9131 9.17734 7.92332C9.12409 7.93251 9.08832 7.98332 9.09779 8.03671C9.14082 8.28266 9.09727 8.47724 8.96462 8.63202C8.70822 8.93131 8.18683 8.99314 7.95893 9.00565L7.9758 8.88308C7.98082 8.84712 7.96535 8.81136 7.93586 8.79017ZM8.81617 13.2618C8.64728 13.4682 8.30449 13.7428 8.17136 13.8466C8.04846 13.7294 7.92536 13.5904 7.8169 13.4273C8.31869 13.3422 8.61986 13.0307 8.73273 12.8864C8.77037 12.9184 8.80614 12.9441 8.83773 12.9609C8.84687 12.9658 8.85671 12.9664 8.86642 12.9681C8.8532 13.0521 8.84073 13.1473 8.82887 13.2514C8.82475 13.255 8.81982 13.2574 8.81617 13.2618ZM7.6227 11.4743C7.70168 11.4966 7.90647 11.5489 8.09547 11.5489C8.13007 11.5489 8.1611 11.5425 8.19353 11.5385C8.1866 11.6593 8.1925 11.7755 8.20938 11.886C8.053 11.9879 7.6886 11.9964 7.49182 11.988C7.51821 11.8163 7.56335 11.6446 7.6227 11.4743ZM7.86813 10.8891C7.94041 10.9063 8.08211 10.9352 8.22522 10.9352C8.26235 10.9352 8.29928 10.9329 8.33524 10.9283C8.31217 10.9948 8.28855 11.0608 8.26722 11.1287C8.24472 11.2006 8.22916 11.271 8.21664 11.3407C8.21589 11.3408 8.21519 11.3406 8.21449 11.3407C8.06894 11.3767 7.81915 11.3247 7.6916 11.2899C7.74579 11.1547 7.80485 11.0206 7.86813 10.8891ZM8.09228 10.4433C8.11764 10.3941 8.14263 10.3454 8.16752 10.2967C8.25283 10.3173 8.42116 10.3558 8.539 10.3705C8.52217 10.4155 8.50562 10.4601 8.48828 10.5061C8.46222 10.5753 8.43602 10.6464 8.40991 10.7172C8.39772 10.7162 8.3852 10.7172 8.37288 10.7211C8.25663 10.757 8.07508 10.7325 7.95747 10.708C8.00247 10.6185 8.04771 10.5299 8.09228 10.4433ZM8.40344 9.80336C8.47403 9.83008 8.58705 9.86561 8.70114 9.86561C8.7047 9.86561 8.70798 9.86407 8.71154 9.86402C8.68201 9.96658 8.64653 10.0723 8.60814 10.1801C8.55353 10.1795 8.39336 10.1477 8.25813 10.1163C8.31063 10.0102 8.35928 9.90593 8.40344 9.80336ZM8.53891 9.4286C8.59436 9.43249 8.64569 9.43507 8.68914 9.43507C8.73189 9.43507 8.76597 9.43226 8.797 9.42846C8.79015 9.50468 8.77928 9.58193 8.76245 9.66091C8.68801 9.68294 8.56637 9.6544 8.47628 9.62107C8.50028 9.55591 8.52123 9.49174 8.53891 9.4286ZM7.61777 12.1868C7.8056 12.1868 8.06833 12.1655 8.24983 12.0811C8.27524 12.1739 8.30739 12.2614 8.344 12.3427C8.00707 12.5768 7.63066 12.6307 7.49749 12.6418C7.48287 12.5607 7.47223 12.4768 7.46726 12.3893C7.46332 12.3209 7.46595 12.2521 7.46998 12.1833C7.50799 12.1851 7.55815 12.1868 7.61777 12.1868ZM8.43512 12.5176C8.48575 12.6036 8.53966 12.6806 8.59384 12.7451C8.51045 12.8556 8.21646 13.1935 7.70993 13.2484C7.64238 13.1226 7.58543 12.9846 7.54296 12.835C7.71387 12.8183 8.08685 12.7521 8.43512 12.5176ZM8.76962 9.01456C8.78715 9.08553 8.79723 9.15771 8.80089 9.23098C8.776 9.23895 8.68295 9.23974 8.5825 9.23445C8.59056 9.18415 8.5952 9.1347 8.59726 9.0859C8.65539 9.06589 8.71323 9.04193 8.76962 9.01456ZM7.44898 14.4695C7.42357 14.4776 7.40238 14.4956 7.39048 14.5193C7.38242 14.5353 7.21629 14.8582 6.77806 14.7951C6.93308 14.6929 7.07506 14.5211 7.07506 14.2583C7.07506 14.2437 7.07187 14.2294 7.06559 14.2164C7.05922 14.2028 6.42125 12.8421 6.33379 11.625C6.33008 11.5739 6.28771 11.5343 6.23647 11.534H6.23596C6.18501 11.534 6.14249 11.5731 6.13827 11.6239C6.11287 11.9302 6.01148 12.2774 5.90638 12.2861C5.86771 12.2902 5.77715 12.2611 5.74321 12.2052C5.71795 12.1635 5.7284 12.1056 5.7741 12.033C5.95251 11.7495 6.0599 11.5154 6.00421 11.2924C5.95762 11.1057 5.73965 10.6149 5.442 10.6751L5.36437 10.6928C5.11139 10.7528 5.04628 10.74 5.01488 10.6256C5.0071 10.597 5.01131 10.5737 5.02842 10.55C5.07131 10.4902 5.18114 10.4455 5.3018 10.4387C5.5282 10.4264 5.61848 10.5229 5.62092 10.5257C5.65078 10.562 5.70173 10.5717 5.74289 10.55C5.78399 10.528 5.80406 10.48 5.79065 10.4354C5.78681 10.4229 5.69414 10.1282 5.29992 10.0801C5.21142 10.0694 5.19009 10.0124 5.18766 9.96696C5.18381 9.89163 5.23144 9.80224 5.31792 9.78255C5.47294 9.74805 5.76215 9.87958 5.88754 10.3809C5.90071 10.4338 5.95509 10.4642 6.00641 10.4524C6.05901 10.4392 6.09093 10.386 6.0778 10.3334C6.01363 10.0768 5.90962 9.90091 5.79342 9.78236C5.79543 9.77871 5.79853 9.77604 5.80007 9.7721C5.84704 9.65257 5.94384 9.62782 6.01382 9.64184C6.08062 9.6559 6.1506 9.71285 6.14624 9.83055C6.1341 10.1554 6.39088 10.6562 6.52447 10.8399C6.62563 10.9788 6.65103 11.1292 6.68614 11.3376C6.70184 11.4306 6.71909 11.5322 6.74516 11.6459C6.87519 12.2118 7.21695 12.5546 7.29739 12.6292C7.40351 13.3099 7.78694 13.7852 8.1385 14.0877C7.987 14.1952 7.68598 14.3956 7.44898 14.4695ZM8.32033 13.9793C8.43358 13.8902 8.63303 13.7272 8.80018 13.5642C8.78612 13.7552 8.77581 13.965 8.77492 14.2034C8.77483 14.2312 8.77248 14.2578 8.77164 14.2852C8.67475 14.2331 8.50675 14.1333 8.32033 13.9793ZM14.3779 13.3257L14.5487 12.8198C14.7158 12.8791 14.8732 12.947 15.0211 13.0213L14.6948 13.4766C14.5912 13.4159 14.4855 13.3656 14.3779 13.3257ZM14.1904 13.2676C14.0987 13.2441 14.0061 13.2268 13.9122 13.2177L13.9756 12.6644C13.9985 12.6686 14.0218 12.6711 14.0445 12.6759C14.1541 12.6996 14.2592 12.7282 14.362 12.7593L14.1904 13.2676ZM13.7157 13.2094C13.619 13.2103 13.5212 13.2191 13.4225 13.2348L13.3686 12.6151C13.5072 12.6132 13.6455 12.619 13.7817 12.6344L13.7157 13.2094ZM13.1725 12.6231L13.229 13.2741C13.1278 13.2999 13.0256 13.3344 12.9228 13.3754L12.7498 12.6693C12.8885 12.6479 13.0298 12.6321 13.1725 12.6231ZM12.8706 14.5071C12.792 14.4794 12.7182 14.4419 12.6485 14.4002L12.9991 13.7348C13.0073 13.7442 13.0163 13.7521 13.0231 13.7636C13.0579 13.8223 13.0631 13.8997 13.0386 13.9937C13.006 14.1187 12.9475 14.3027 12.8706 14.5071ZM12.4361 13.855C12.5574 13.7741 12.6909 13.6965 12.8333 13.629L12.4852 14.2897C12.3512 14.186 12.2474 14.0778 12.1887 14.0103C12.2704 13.9616 12.353 13.9104 12.4361 13.855ZM12.556 12.7023L12.7406 13.4556C12.646 13.5012 12.5508 13.5531 12.4552 13.6115L12.1712 12.7875C12.2939 12.7561 12.4232 12.7275 12.556 12.7023ZM11.9815 12.8389L12.2808 13.7072C12.2821 13.7111 12.286 13.7128 12.2877 13.7164C12.1681 13.7946 12.0499 13.8646 11.9336 13.929L11.6436 12.9447C11.747 12.9097 11.8596 12.8737 11.9815 12.8389ZM11.4583 13.0098L11.7564 14.0218C11.7566 14.0225 11.7574 14.0228 11.7576 14.0235C11.6274 14.0902 11.5025 14.1491 11.3877 14.1988L11.0634 13.1867C11.0676 13.1796 11.0721 13.1705 11.0761 13.1639C11.1298 13.1398 11.2656 13.0807 11.4583 13.0098ZM10.9385 13.4393L11.206 14.2741C11.0018 14.3551 10.8424 14.4067 10.763 14.4304C10.712 14.1059 10.8186 13.7219 10.9385 13.4393ZM10.8808 15.2334C10.9472 15.0738 10.9275 14.8771 10.8208 14.6329C10.8188 14.6286 10.8169 14.6243 10.8151 14.6197C10.9797 14.5716 11.4611 14.4145 12.0149 14.1087C12.1138 14.2286 12.4066 14.5487 12.799 14.6892C12.5762 15.2342 12.2435 15.8451 11.9083 15.8994C11.6274 15.9438 11.4753 15.7763 11.3285 15.6131C11.2004 15.4711 11.0549 15.3102 10.8486 15.419C10.8325 15.4275 10.8204 15.4383 10.8064 15.448C10.7904 15.4387 10.7684 15.4273 10.7423 15.4153C10.7987 15.3661 10.8494 15.309 10.8808 15.2334ZM14.2012 13.9043C14.2299 14.0828 14.3452 14.2371 14.544 14.363C14.6601 14.4363 14.72 14.517 14.7221 14.6028C14.7244 14.6945 14.6645 14.79 14.5967 14.8674C14.5874 14.8482 14.5761 14.8324 14.5644 14.8196C14.4393 14.6807 14.1672 14.7432 14.1138 14.7573C14.1002 14.7606 14.0876 14.7672 14.0768 14.776C13.9763 14.8577 13.0903 15.5843 12.954 15.891C12.9029 16.0059 12.8588 16.1251 12.9278 16.2107C12.9997 16.3001 13.1373 16.2901 13.3824 16.2393C13.4035 16.2349 13.4187 16.2337 13.4289 16.2337C13.4407 16.2337 13.4464 16.2337 13.4464 16.2349C13.4547 16.249 13.4602 16.3279 13.3808 16.5072C13.3663 16.5396 13.3298 16.5567 13.2932 16.5493C13.0315 16.4952 12.5297 16.4329 12.1116 16.6264C11.8918 16.7283 11.7367 16.7357 11.5572 16.7444C11.3919 16.7523 11.2047 16.7615 10.9458 16.8456C10.8861 16.8647 10.6883 16.9212 10.6522 16.8272C10.622 16.7482 10.6808 16.61 10.7433 16.5694C11.1293 16.5844 11.2866 16.5846 11.2866 16.5846C11.3407 16.5846 11.3847 16.5406 11.3847 16.4865C11.3847 16.4324 11.3407 16.3884 11.2866 16.3884C11.285 16.3884 11.1223 16.3884 10.7185 16.3721C10.6488 16.3693 10.5278 16.3524 10.5018 16.2702C10.4824 16.2091 10.5166 16.121 10.5781 16.0741C10.6315 16.0327 10.8114 16.0781 10.9873 16.154C11.043 16.1892 11.1012 16.2176 11.1575 16.2362C11.2052 16.2533 11.258 16.229 11.2783 16.1826C11.2987 16.1361 11.2803 16.0819 11.2359 16.0574C11.201 16.038 11.1441 16.0081 11.0754 15.9775C10.9612 15.9001 10.8708 15.7893 10.8638 15.7027C10.8613 15.6715 10.8675 15.6307 10.94 15.5927C11.003 15.5597 11.0481 15.5955 11.1828 15.7446C11.3392 15.918 11.5528 16.1535 11.9397 16.0929C12.6932 15.9709 13.2235 14.0623 13.2284 14.0432C13.2666 13.8969 13.2543 13.7692 13.1918 13.6637C13.1556 13.6027 13.1091 13.5631 13.0647 13.5328C13.4347 13.3997 13.8517 13.3542 14.2799 13.5025C14.2309 13.5924 14.1744 13.7383 14.2012 13.9043ZM14.8602 13.5827L15.1955 13.1146C15.3176 13.1832 15.4323 13.2552 15.5401 13.3296L15.1099 13.7741C15.0765 13.7481 15.0441 13.7257 15.0102 13.6977C14.9608 13.6568 14.9107 13.6185 14.8602 13.5827ZM15.7008 14.1565L16.1315 13.8132C16.2145 13.8934 16.2902 13.9717 16.357 14.0456L16.0086 14.2931C15.9109 14.2566 15.8082 14.2113 15.7008 14.1565ZM15.5136 14.0549C15.4333 14.0072 15.3509 13.9538 15.2667 13.8943L15.7009 13.4456C15.803 13.5228 15.8986 13.6009 15.986 13.6785L15.5136 14.0549ZM16.2421 14.3679L16.4857 14.1948C16.5655 14.291 16.6302 14.3764 16.6767 14.4422C16.5555 14.435 16.4078 14.4124 16.2421 14.3679ZM18.2777 11.0401C18.1044 12.2003 17.1746 12.5849 16.8979 12.6747C16.6651 12.1512 16.2793 11.7108 16.0226 11.5778C15.9748 11.5532 15.9155 11.5719 15.8904 11.6197C15.8655 11.6679 15.8843 11.7269 15.9324 11.7519C16.128 11.8533 16.5242 12.2658 16.7529 12.8294C16.9997 13.4375 17.3944 13.7823 17.9257 13.8543C18.0326 13.8686 18.106 13.912 18.1505 13.9865C18.2156 14.0964 18.2123 14.2613 18.1884 14.4064C18.0633 14.327 17.8596 14.3014 17.7486 14.3865C17.6794 14.4394 17.6596 14.5233 17.6955 14.6112C17.7198 14.6707 17.731 14.8842 17.7419 15.0909C17.7731 15.6887 17.8129 16.1589 18.0092 16.318C18.066 16.364 18.1343 16.3829 18.2049 16.3709C18.5926 16.3096 18.734 16.3918 18.8263 16.5345C18.8319 16.5432 18.8491 16.5695 18.8031 16.6183C18.7334 16.6919 18.5871 16.735 18.4887 16.6793C18.2567 16.5465 18.0939 16.6025 17.8246 16.6952C17.7775 16.7113 17.7258 16.7289 17.669 16.7475C17.4017 16.8339 17.1258 16.791 16.9039 16.7562C16.8388 16.7463 16.7795 16.737 16.7278 16.7322C16.6014 16.7202 16.4862 16.783 16.3747 16.8441C16.2398 16.9179 16.1123 16.9886 15.9621 16.9429C15.8924 16.9219 15.8698 16.887 15.8587 16.8622C15.8257 16.7884 15.8501 16.6815 15.8736 16.6135C15.9577 16.5987 16.0333 16.6014 16.1165 16.6101C16.2365 16.6221 16.3732 16.6364 16.5453 16.5731C16.5961 16.5544 16.622 16.498 16.6034 16.4472C16.5847 16.3964 16.5286 16.3711 16.4774 16.3892C16.348 16.4364 16.2497 16.427 16.1367 16.415C16.0337 16.4045 15.9175 16.3928 15.7777 16.4298C15.7564 16.4354 15.7243 16.4387 15.6996 16.3989C15.6672 16.3468 15.6686 16.2505 15.735 16.1754C15.7861 16.1175 15.885 16.1192 15.9764 16.1386C16.0276 16.1672 16.0928 16.1907 16.1769 16.2068C16.2249 16.2171 16.2725 16.1882 16.2883 16.142C16.304 16.0955 16.283 16.0447 16.2392 16.0227C16.2318 16.0192 16.1547 15.9813 16.0519 15.9553C15.9978 15.916 15.9785 15.8606 15.9495 15.7776L15.9276 15.7165C15.9146 15.6818 15.8979 15.6555 15.8796 15.6356C15.9268 15.6152 15.9729 15.606 16.0177 15.6088C16.1186 15.6157 16.2087 15.6841 16.2856 15.8126C16.5401 16.2365 16.9621 16.2414 16.98 16.2414C17.0207 16.2414 17.0572 16.2161 17.0717 16.1781C17.3889 15.3399 16.9648 14.5295 16.9465 14.4953C16.9462 14.4948 16.9457 14.4945 16.9454 14.494C16.9452 14.4935 16.9452 14.493 16.945 14.4925C16.9073 14.4274 16.0022 12.8974 14.0858 12.4844C12.7053 12.1859 11.0371 12.9648 10.9667 12.9982C10.9501 13.0059 10.9362 13.0182 10.9262 13.0335C10.7278 13.3402 10.3969 14.1541 10.6409 14.7116C10.724 14.9017 10.7438 15.0518 10.6996 15.1583C10.67 15.2296 10.6123 15.2868 10.5141 15.3396C10.5009 15.217 10.4587 15.0574 10.3325 14.988C10.2091 14.9206 10.0487 14.9581 9.85542 15.1001C9.39788 15.4364 8.74511 16.2309 8.80464 16.575C8.81922 16.6595 8.87218 16.7195 8.95365 16.744C9.03245 16.7675 9.12948 16.7877 9.23162 16.8086C9.43365 16.8502 9.67191 16.899 9.77761 16.9866C9.49233 16.9501 8.93968 16.8995 8.7212 17.0221C8.46353 17.1672 8.02057 17.2596 7.71218 17.148C7.60006 17.1013 7.34904 17.0642 7.20307 17.2619C7.1487 17.3357 7.06325 17.3559 7.00808 17.3372C6.94395 17.3163 6.93055 17.2496 6.93055 17.1975C6.93055 16.97 7.14954 16.9524 7.21657 16.9524C7.27071 16.9524 7.31464 16.9085 7.31464 16.8543C7.31464 16.8002 7.27071 16.7563 7.21657 16.7563C7.06639 16.7563 6.94283 16.8052 6.85798 16.8885C6.77961 16.8475 6.72894 16.7992 6.71056 16.7432C6.68539 16.6669 6.72153 16.5877 6.74544 16.5473C6.79086 16.4701 6.87125 16.4292 6.92047 16.4094C7.0318 16.514 7.16131 16.5888 7.22632 16.6173C7.27536 16.6385 7.33348 16.6163 7.35556 16.5668C7.37726 16.5172 7.35453 16.4592 7.30498 16.4375C7.17373 16.38 6.9335 16.2028 6.92216 16.0542C6.91794 15.9998 6.96814 15.9584 7.01998 15.9454C7.05739 15.9359 7.15165 15.9285 7.20832 16.0595C7.35171 16.3913 7.81807 16.6247 7.83785 16.6344C7.85163 16.6413 7.86644 16.6446 7.88126 16.6446C7.90511 16.6446 7.92865 16.6359 7.94716 16.6193C7.98865 16.5816 8.96537 15.6795 8.97099 14.2039C8.97437 13.3119 9.0984 12.7554 9.14443 12.5785C9.31777 12.5701 9.76088 12.5168 10.1588 12.2116C10.274 12.4157 10.5663 12.8118 11.1043 12.8253C11.105 12.8253 11.1059 12.8253 11.1067 12.8253C11.1419 12.8253 11.1745 12.8061 11.192 12.7755C11.2099 12.7439 11.2089 12.705 11.1895 12.6747C11.1876 12.6716 11.0369 12.4305 11.0712 12.2226C11.1948 12.3419 11.42 12.5033 11.7407 12.5148H11.7408C11.7419 12.5148 11.7431 12.5148 11.7443 12.5148C11.7612 12.5148 11.7765 12.5092 11.7905 12.5015C11.7969 12.4979 11.8025 12.4953 11.8078 12.4902C11.8204 12.4793 11.8295 12.4655 11.8353 12.4493C11.8358 12.4478 11.8374 12.4471 11.8378 12.4456C11.8391 12.4412 11.9749 12.014 12.3621 11.814C12.6095 11.686 12.9078 11.6781 13.2498 11.7908C13.2583 11.7935 13.2668 11.7934 13.2752 11.7938C13.2771 11.7939 13.2786 11.7956 13.2805 11.7956C13.282 11.7956 13.2835 11.795 13.285 11.795C13.2876 11.7949 13.29 11.7943 13.2925 11.794C13.2969 11.7934 13.3012 11.7935 13.3055 11.7923C13.3085 11.7915 13.3107 11.7893 13.3136 11.7883C13.3201 11.786 13.3259 11.7831 13.3318 11.7794C13.3369 11.7762 13.3416 11.7728 13.346 11.7688C13.3506 11.7646 13.3545 11.76 13.3583 11.7548C13.3621 11.7497 13.3654 11.7446 13.3681 11.7389C13.3694 11.7362 13.3716 11.7343 13.3726 11.7315C13.3857 11.6958 13.5885 11.1662 14.0943 10.8536C14.0962 10.8539 14.0976 10.8551 14.0994 10.8553C14.1116 10.8565 15.3201 10.9904 15.9889 11.317C16.1928 11.4166 16.4417 11.4659 16.688 11.4659C16.9662 11.4659 17.2408 11.4031 17.443 11.2792C17.6636 11.1441 17.7822 10.95 17.7862 10.7186C17.7943 10.2441 17.5022 9.87893 17.2234 9.7765C17.0484 9.71238 16.88 9.75096 16.7735 9.88094C16.6409 10.0423 16.6488 10.2515 16.7922 10.3784C16.9409 10.5102 17.2157 10.5311 17.4906 10.288C17.5228 10.3504 17.5485 10.4194 17.5659 10.493C17.2557 10.7073 16.9664 10.7788 16.7302 10.6992C16.5058 10.6236 16.372 10.4292 16.3214 10.2727C16.2817 10.1498 16.3041 9.9971 16.3825 9.85408C16.4928 9.65285 16.6938 9.5014 16.9339 9.43882C17.1841 9.3732 17.5947 9.42963 17.9047 9.70802C18.1349 9.91464 18.3863 10.3133 18.2777 11.0401ZM17.3797 10.1238C17.187 10.3051 17.0097 10.3092 16.9222 10.2316C16.8578 10.1746 16.859 10.0857 16.9251 10.0055C16.9643 9.95777 17.0128 9.94169 17.06 9.94169C17.094 9.94169 17.1273 9.95013 17.1559 9.96058C17.2335 9.98922 17.3115 10.0459 17.3797 10.1238Z" fill="#464655"/>
</g>
<defs>
<clipPath id="clip0_72_4646">
<path d="M0 2C0 0.895432 0.895431 0 2 0H21.9998C23.1043 0 23.9998 0.895431 23.9998 2V21.9998C23.9998 23.1043 23.1043 23.9998 21.9998 23.9998H2C0.895432 23.9998 0 23.1043 0 21.9998V2Z" fill="white"/>
</clipPath>
</defs>
</svg>
