<svg width="24" height="24" viewBox="0 0 24 24" fill="none" xmlns="http://www.w3.org/2000/svg">
<g clip-path="url(#clip0_72_4668)">
<path d="M23.9978 6.10352e-05H-0.00195312V3.42846H23.9978V6.10352e-05Z" fill="#73AF00"/>
<path d="M23.9978 3.42846H-0.00195312V6.85686H23.9978V3.42846Z" fill="#FFE15A"/>
<path d="M23.9978 6.85734H-0.00195312V10.2857H23.9978V6.85734Z" fill="#FF4B55"/>
<path d="M23.9978 20.5714H-0.00195312V23.9998H23.9978V20.5714Z" fill="#73AF00"/>
<path d="M23.9978 17.1425H-0.00195312V20.571H23.9978V17.1425Z" fill="#FFE15A"/>
<path d="M23.9978 13.7141H-0.00195312V17.1426H23.9978V13.7141Z" fill="#FF4B55"/>
<path d="M23.9978 10.2856H10.8168L0.783852 6.10352e-05H-0.00195312V23.9998H0.783852L10.8168 13.7142H23.9978V10.2856Z" fill="#464655"/>
<path d="M-0.00195312 23.9998L11.4279 12.2822C11.5811 12.1252 11.5811 11.8747 11.4279 11.7177L-0.00195312 6.10352e-05V23.9998Z" fill="#F5F5F5"/>
<path d="M4.62415 7.89721L5.78753 10.2545L8.38893 10.6325L6.50654 12.4673L6.95091 15.0582L4.62415 13.835L2.29739 15.0582L2.74176 12.4673L0.859375 10.6325L3.46077 10.2545L4.62415 7.89721Z" fill="#FF4B55"/>
<path d="M7.64288 12.2346L4.55118 9.84127C4.18945 8.99359 3.67528 8.44685 3.23883 8.44685C2.8681 8.44685 2.68679 8.79053 2.63481 8.99697C2.36772 9.12062 2.30509 9.36672 2.30247 9.37745C2.29815 9.39512 2.30223 9.41378 2.31343 9.42812C2.32468 9.44237 2.34184 9.45072 2.36003 9.45072L2.41534 9.44973C2.66373 9.44401 3.07763 9.43309 3.18347 10.2223C3.24952 10.715 3.15146 11.5976 2.83965 12.2629C2.62178 12.7277 2.69377 13.1035 2.69692 13.1192C2.70287 13.1489 2.73048 13.1683 2.76127 13.1665C2.76605 13.166 2.77759 13.1656 2.79216 13.1651L3.04229 14.5793C3.0473 14.6076 3.07182 14.6282 3.1006 14.6282H6.83312C6.86045 14.6282 6.88417 14.6095 6.89069 14.583L7.30764 12.8704C7.30778 12.8699 7.30834 12.8697 7.30848 12.8692C7.30871 12.8682 7.30843 12.8673 7.30867 12.8664L7.44113 12.3224C7.5391 12.334 7.59746 12.3401 7.60065 12.3404C7.62896 12.344 7.65193 12.328 7.66168 12.3035C7.67143 12.2789 7.66379 12.2508 7.64288 12.2346Z" fill="#FFE15A"/>
<path d="M7.63898 12.2347L4.54727 9.84135C4.18554 8.99367 3.67137 8.44692 3.23493 8.44692C2.86419 8.44692 2.68288 8.79061 2.6309 8.99704C2.36381 9.1207 2.30118 9.36679 2.29856 9.37752C2.29425 9.3952 2.29833 9.41385 2.30953 9.4282C2.32078 9.44245 2.33793 9.45079 2.35612 9.45079L2.41143 9.44981C2.65982 9.44409 3.07372 9.43316 3.17957 10.2223C3.24561 10.715 3.14755 11.5976 2.83574 12.2629C2.61787 12.7277 2.68987 13.1036 2.69301 13.1193C2.69896 13.149 2.72657 13.1684 2.75737 13.1666C2.76215 13.1661 2.77368 13.1656 2.78826 13.1651L3.03838 14.5794C3.0434 14.6077 3.06791 14.6283 3.09669 14.6283H6.82922C6.85655 14.6283 6.88027 14.6096 6.88678 14.5831L7.30373 12.8705C7.30387 12.87 7.30443 12.8698 7.30457 12.8693C7.30481 12.8683 7.30453 12.8674 7.30476 12.8664L7.43723 12.3225C7.5352 12.334 7.59355 12.3401 7.59674 12.3405C7.62505 12.3441 7.64802 12.328 7.65777 12.3035C7.66752 12.279 7.65988 12.2509 7.63898 12.2347ZM2.94294 12.3132C3.22513 11.7114 3.37728 10.8057 3.29694 10.2066C3.18238 9.35221 2.70285 9.3254 2.44387 9.33056C2.48057 9.25921 2.55688 9.15435 2.70431 9.09426C2.72259 9.08686 2.73595 9.07064 2.73993 9.05128C2.7441 9.03145 2.84493 8.56542 3.23488 8.56542C3.62005 8.56542 4.10604 9.10251 4.44424 9.90177C4.44818 9.91119 4.45451 9.91935 4.46252 9.92554L7.3987 12.1986C6.8812 12.1358 5.52887 11.9495 4.72788 11.6339C4.30924 11.4689 4.21381 11.218 4.12957 10.9965C4.11799 10.9659 4.08359 10.9508 4.05312 10.9622C4.02256 10.9739 4.00714 11.0081 4.01881 11.0387C4.10253 11.2587 4.21713 11.5601 4.68447 11.7442C4.77972 11.7817 4.88252 11.8174 4.99066 11.8513C4.97181 11.9084 4.852 12.1994 4.32073 12.3903C3.89018 12.545 3.58386 12.8058 3.54195 13.0414C3.3846 13.0408 3.24421 13.041 3.12622 13.0418V12.8707C3.12622 12.7408 3.25143 12.5525 3.38394 12.3533C3.56863 12.0755 3.77792 11.7608 3.77792 11.4389C3.77792 11.4062 3.75139 11.3796 3.71867 11.3796C3.68595 11.3796 3.65942 11.4062 3.65942 11.4389C3.65942 11.725 3.46063 12.0239 3.28527 12.2876C3.1363 12.5116 3.00772 12.705 3.00772 12.8707V13.0427C2.91829 13.0437 2.84821 13.0449 2.80251 13.0462C2.79196 12.9347 2.78587 12.6483 2.94294 12.3132ZM5.29258 11.938C5.22405 12.1284 5.02117 12.193 4.87071 12.2136C5.03378 12.0687 5.08877 11.9347 5.10424 11.8857C5.16569 11.9037 5.22873 11.921 5.29258 11.938ZM5.40681 11.9673C5.47201 11.9837 5.53787 11.9995 5.60429 12.0147C5.54382 12.1378 5.3822 12.1981 5.20567 12.2233C5.29319 12.1679 5.36734 12.086 5.40681 11.9673ZM7.08178 13.2813C6.48113 13.0962 4.74785 13.0489 3.66148 13.042C3.69828 12.9075 3.86872 12.7307 4.15746 12.5891C4.16042 12.5896 4.16309 12.5909 4.16618 12.5909C5.78785 12.5966 6.91659 12.8372 7.17515 12.8977L7.08178 13.2813ZM7.00533 13.5953L6.76838 13.331C6.88134 13.3507 6.97753 13.3726 7.05365 13.3968L7.00533 13.5953ZM3.94062 13.6371L4.05579 13.7455C4.02031 13.7452 3.98539 13.7449 3.94911 13.7446C3.94601 13.7099 3.94343 13.6731 3.94062 13.6371ZM6.9345 13.8863L6.63352 13.5564C6.61369 13.5347 6.58092 13.5307 6.55683 13.5472L6.20335 13.7838L5.93734 13.4923C5.91676 13.4697 5.88188 13.4666 5.85756 13.4853L5.53801 13.7303L5.24809 13.444C5.22634 13.4225 5.19156 13.4211 5.16831 13.4409L4.85617 13.7034L4.56372 13.4321C4.5416 13.4115 4.50724 13.4111 4.48437 13.431L4.17926 13.6991L3.92843 13.4631C3.92407 13.3927 3.92018 13.3201 3.91676 13.2455L4.14129 13.4659C4.16318 13.4875 4.19801 13.4885 4.22145 13.4685L4.53555 13.1981L4.82252 13.4806C4.84418 13.5019 4.87858 13.5033 4.90207 13.484L5.2172 13.2214L5.51959 13.5063C5.54087 13.5262 5.57345 13.5279 5.59628 13.5101L5.91259 13.2676L6.17719 13.5712C6.19716 13.5942 6.23143 13.5982 6.25627 13.5805L6.60806 13.3299L6.95784 13.72C6.96201 13.7247 6.96726 13.7275 6.97237 13.7305L6.9345 13.8863ZM6.75661 13.8672C6.6623 13.8553 6.53063 13.8412 6.35218 13.8268L6.58031 13.674L6.75661 13.8672ZM6.06329 13.8061C5.94432 13.7986 5.81096 13.7914 5.66204 13.7845L5.88652 13.6124L6.06329 13.8061ZM5.41384 13.7742C5.27823 13.7691 5.13086 13.7645 4.97256 13.7604L5.20333 13.5663L5.41384 13.7742ZM4.73758 13.755C4.60099 13.7521 4.45582 13.7498 4.30315 13.748L4.52243 13.5553L4.73758 13.755ZM4.00339 13.1644C4.12639 13.1661 4.25445 13.1682 4.38546 13.171L4.18549 13.3432L4.00339 13.1644ZM4.68438 13.1782C4.81169 13.1818 4.94036 13.186 5.06875 13.1909L4.86752 13.3585L4.68438 13.1782ZM5.37156 13.2039C5.5075 13.2104 5.64175 13.2178 5.77187 13.2262L5.56426 13.3854L5.37156 13.2039ZM6.05176 13.2468C6.19801 13.2587 6.33629 13.2721 6.46364 13.2873L6.23129 13.4528L6.05176 13.2468ZM2.90807 13.1626C3.0861 13.1601 3.40527 13.1586 3.79456 13.1621C3.81678 13.7252 3.866 14.1776 3.94072 14.5098H3.14633L2.90807 13.1626ZM6.78267 14.5098H4.06198C4.0204 14.3316 3.98665 14.1152 3.96087 13.8632C5.94273 13.8763 6.69563 13.9747 6.88378 14.0054C6.88936 14.0109 6.8955 14.0153 6.90239 14.0181L6.78267 14.5098ZM7.20318 12.7826C6.95269 12.724 5.91854 12.5045 4.42671 12.4759C4.53185 12.4341 4.62143 12.3887 4.69699 12.3418C4.73229 12.3462 4.83611 12.3576 4.96633 12.3576C5.2367 12.3576 5.61648 12.3065 5.72139 12.0409C6.33713 12.1757 6.9683 12.2642 7.31878 12.308L7.20318 12.7826Z" fill="#464655"/>
<path d="M3.40278 8.97027C3.40278 8.86134 3.31423 8.77279 3.20529 8.77279C3.09636 8.77279 3.00781 8.86134 3.00781 8.97027C3.00781 9.07921 3.09636 9.16776 3.20529 9.16776C3.31423 9.16776 3.40278 9.07921 3.40278 8.97027ZM3.20529 9.04926C3.1617 9.04926 3.12631 9.01387 3.12631 8.97027C3.12631 8.92668 3.1617 8.89129 3.20529 8.89129C3.24889 8.89129 3.28428 8.92668 3.28428 8.97027C3.28428 9.01387 3.24889 9.04926 3.20529 9.04926Z" fill="#464655"/>
<path d="M4.86212 12.6423C4.75506 12.6423 4.66797 12.7294 4.66797 12.8365C4.66797 12.9435 4.75506 13.0306 4.86212 13.0306C4.96918 13.0306 5.05637 12.9435 5.05637 12.8365C5.05637 12.7294 4.96918 12.6423 4.86212 12.6423ZM4.86212 12.9122C4.8204 12.9122 4.78647 12.8783 4.78647 12.8365C4.78647 12.7947 4.8204 12.7608 4.86212 12.7608C4.90384 12.7608 4.93787 12.7948 4.93787 12.8365C4.93787 12.8782 4.90389 12.9122 4.86212 12.9122Z" fill="#464655"/>
<path d="M5.44229 12.6754C5.33523 12.6754 5.24805 12.7626 5.24805 12.8697C5.24805 12.9767 5.33523 13.0638 5.44229 13.0638C5.54936 13.0638 5.63645 12.9767 5.63645 12.8697C5.63645 12.7626 5.54936 12.6754 5.44229 12.6754ZM5.44229 12.9453C5.40058 12.9453 5.36655 12.9114 5.36655 12.8696C5.36655 12.8279 5.40058 12.7939 5.44229 12.7939C5.48401 12.7939 5.51795 12.8279 5.51795 12.8696C5.518 12.9114 5.48401 12.9453 5.44229 12.9453Z" fill="#464655"/>
</g>
<defs>
<clipPath id="clip0_72_4668">
<path d="M0 2C0 0.895432 0.895431 0 2 0H21.9998C23.1043 0 23.9998 0.895431 23.9998 2V21.9998C23.9998 23.1043 23.1043 23.9998 21.9998 23.9998H2C0.895432 23.9998 0 23.1043 0 21.9998V2Z" fill="white"/>
</clipPath>
</defs>
</svg>
