<svg width="24" height="24" viewBox="0 0 24 24" fill="none" xmlns="http://www.w3.org/2000/svg">
<g clip-path="url(#clip0_72_179)">
<path d="M24.001 0.0187149H0.0012207V3.44337H24.001V0.0187149Z" fill="#73AF00"/>
<path d="M24.001 3.44308H0.0012207V6.86774H24.001V3.44308Z" fill="#F5F5F5"/>
<path d="M24.001 6.86868H0.0012207V10.2933H24.001V6.86868Z" fill="#73AF00"/>
<path d="M24.001 10.2933H0.0012207V13.718H24.001V10.2933Z" fill="#F5F5F5"/>
<path d="M24.001 13.718H0.0012207V17.1426H24.001V13.718Z" fill="#73AF00"/>
<path d="M24.001 17.1426H0.0012207V20.5673H24.001V17.1426Z" fill="#F5F5F5"/>
<path d="M24.001 20.5673H0.0012207V23.992H24.001V20.5673Z" fill="#73AF00"/>
<path d="M16.0637 0.00793457H0.0012207V10.2739H16.0637V0.00793457Z" fill="#FF4B55"/>
<path d="M8.64958 9.46368H7.63315C7.54071 9.46368 7.45803 9.40612 7.42592 9.31945L7.09869 8.43596C6.97096 8.09105 6.91358 7.72403 6.92999 7.35658L7.04389 4.80477C7.0468 4.73999 7.08838 4.68337 7.14931 4.6612C7.25389 4.62318 7.36451 4.70062 7.36451 4.8119V5.97396C7.36451 6.00645 7.39086 6.03279 7.42334 6.03279C7.4547 6.03279 7.48057 6.00818 7.48212 5.97687L7.57348 4.12397C7.57718 4.04873 7.63371 3.98667 7.70829 3.97603C7.80073 3.96281 7.88426 4.03266 7.88768 4.12598L7.95073 5.85345C7.95199 5.88814 7.9827 5.91429 8.01715 5.90998C8.0463 5.90633 8.06834 5.88186 8.06894 5.85247L8.10682 3.93291C8.10888 3.8281 8.21201 3.7553 8.31143 3.78849C8.37232 3.80878 8.41446 3.86438 8.41755 3.9285L8.51121 5.86873C8.51224 5.89029 8.52485 5.90965 8.54416 5.91931C8.58316 5.93881 8.62928 5.91129 8.63064 5.8677L8.67761 4.36439C8.68117 4.25086 8.80009 4.17834 8.90261 4.22719C8.9544 4.25184 8.98867 4.30275 8.99209 4.35998L9.10145 6.2051L9.39418 7.05897C9.41063 7.10692 9.47799 7.10781 9.49543 7.06024C9.57835 6.83393 9.76651 6.41135 10.0685 6.22521C10.122 6.19226 10.1905 6.19653 10.2408 6.23421C10.3147 6.28966 10.3234 6.39659 10.2601 6.4639C10.113 6.62055 9.89841 6.9498 9.91393 7.52875C9.9159 7.60239 9.89457 7.67485 9.85102 7.73434L9.02626 8.86111C8.94367 8.97394 8.8907 9.1057 8.87223 9.24426L8.86853 9.27192C8.854 9.38174 8.76034 9.46368 8.64958 9.46368Z" fill="#F5F5F5"/>
<path d="M8.14409 0.871301L8.30969 1.36789L8.83314 1.37197C8.87369 1.3723 8.89052 1.42405 8.85789 1.44814L8.43677 1.7591L8.59469 2.25818C8.60692 2.29685 8.56291 2.32882 8.52991 2.30524L8.10405 2.00084L7.6782 2.30524C7.6452 2.32882 7.60118 2.29685 7.61342 2.25818L7.77134 1.7591L7.35022 1.44814C7.31759 1.42405 7.33442 1.3723 7.37497 1.37197L7.89842 1.36789L8.06402 0.871301C8.07682 0.832817 8.13124 0.832817 8.14409 0.871301Z" fill="#F5F5F5"/>
<path d="M5.68168 1.5858L5.84729 2.08239L6.37074 2.08647C6.41129 2.0868 6.42811 2.13855 6.39549 2.16264L5.97437 2.47361L6.13229 2.97268C6.14452 3.01135 6.10051 3.04332 6.06751 3.01974L5.64165 2.71534L5.2158 3.01974C5.1828 3.04332 5.13878 3.01135 5.15102 2.97268L5.30894 2.47361L4.88782 2.16264C4.85519 2.13855 4.87202 2.0868 4.91257 2.08647L5.43601 2.08239L5.60162 1.5858C5.61446 1.54732 5.66889 1.54732 5.68168 1.5858Z" fill="#F5F5F5"/>
<path d="M10.6665 1.5858L10.8322 2.08239L11.3556 2.08647C11.3961 2.0868 11.413 2.13855 11.3804 2.16264L10.9592 2.47361L11.1172 2.97268C11.1294 3.01135 11.0854 3.04332 11.0524 3.01974L10.6265 2.71534L10.2007 3.01974C10.1677 3.04332 10.1236 3.01135 10.1359 2.97268L10.2938 2.47361L9.87268 2.16264C9.84005 2.13855 9.85688 2.0868 9.89743 2.08647L10.4209 2.08239L10.5865 1.5858C10.5993 1.54732 10.6537 1.54732 10.6665 1.5858Z" fill="#F5F5F5"/>
<path d="M12.3179 3.46356L12.4835 3.96014L13.007 3.96422C13.0475 3.96455 13.0643 4.0163 13.0317 4.04039L12.6106 4.35136L12.7685 4.85043C12.7808 4.8891 12.7367 4.92107 12.7037 4.89749L12.2779 4.59309L11.852 4.89749C11.819 4.92107 11.775 4.8891 11.7872 4.85043L11.9452 4.35136L11.524 4.04039C11.4914 4.0163 11.5082 3.96455 11.5488 3.96422L12.0722 3.96014L12.2379 3.46356C12.2506 3.42507 12.3051 3.42507 12.3179 3.46356Z" fill="#F5F5F5"/>
<path d="M3.89287 3.46356L4.05847 3.96014L4.58192 3.96422C4.62247 3.96455 4.6393 4.0163 4.60667 4.04039L4.18555 4.35136L4.34347 4.85043C4.3557 4.8891 4.31169 4.92107 4.27869 4.89749L3.85283 4.59309L3.42698 4.89749C3.39398 4.92107 3.34996 4.8891 3.3622 4.85043L3.52012 4.35136L3.099 4.04039C3.06637 4.0163 3.0832 3.96455 3.12375 3.96422L3.6472 3.96014L3.8128 3.46356C3.82565 3.42507 3.88002 3.42507 3.89287 3.46356Z" fill="#F5F5F5"/>
<path d="M12.7928 5.92653L12.9584 6.42312L13.4818 6.4272C13.5224 6.42752 13.5392 6.47927 13.5066 6.50337L13.0855 6.81433L13.2434 7.31345C13.2556 7.35212 13.2116 7.38409 13.1786 7.36051L12.7527 7.05611L12.3269 7.36051C12.2939 7.38409 12.2499 7.35212 12.2621 7.31345L12.42 6.81433L11.9989 6.50337C11.9663 6.47927 11.9831 6.42752 12.0236 6.4272L12.5471 6.42312L12.7127 5.92653C12.7255 5.88809 12.7799 5.88809 12.7928 5.92653Z" fill="#F5F5F5"/>
<path d="M3.25102 5.92653L3.41663 6.42312L3.94007 6.4272C3.98062 6.42752 3.99745 6.47927 3.96482 6.50337L3.5437 6.81433L3.70162 7.31345C3.71386 7.35212 3.66984 7.38409 3.63684 7.36051L3.21099 7.05611L2.78513 7.36051C2.75213 7.38409 2.70812 7.35212 2.72035 7.31345L2.87827 6.81433L2.45715 6.50337C2.42453 6.47927 2.44136 6.42752 2.4819 6.4272L3.00535 6.42312L3.17096 5.92653C3.1838 5.88809 3.23818 5.88809 3.25102 5.92653Z" fill="#F5F5F5"/>
</g>
<defs>
<clipPath id="clip0_72_179">
<path d="M0 2C0 0.895432 0.895431 0 2 0H21.9998C23.1043 0 23.9998 0.895431 23.9998 2V21.9998C23.9998 23.1043 23.1043 23.9998 21.9998 23.9998H2C0.895432 23.9998 0 23.1043 0 21.9998V2Z" fill="white"/>
</clipPath>
</defs>
</svg>
