<svg width="24" height="24" viewBox="0 0 24 24" fill="none" xmlns="http://www.w3.org/2000/svg">
<g clip-path="url(#clip0_72_197)">
<path d="M8.00081 6.10352e-05H0.000732422V23.9998H8.00081V6.10352e-05Z" fill="#464655"/>
<path d="M16.0008 6.10352e-05H8.00073V23.9998H16.0008V6.10352e-05Z" fill="#FF4B55"/>
<path d="M24.0006 6.10352e-05H16.0005V23.9998H24.0006V6.10352e-05Z" fill="#73AF00"/>
<path d="M13.0787 12.8111H10.9189L11.0389 12.5712H12.9587L13.0787 12.8111Z" fill="#F5F5F5"/>
<path d="M13.0787 10.8914H10.9189L11.0389 11.1314H12.9587L13.0787 10.8914Z" fill="#F5F5F5"/>
<path d="M12.5988 11.0114H11.3989L11.6389 10.7714H12.3588L12.5988 11.0114Z" fill="#F5F5F5"/>
<path d="M11.399 12.2113H11.0391V12.4512H11.399V12.2113Z" fill="#F5F5F5"/>
<path d="M11.399 11.8513H11.0391V12.0913H11.399V11.8513Z" fill="#F5F5F5"/>
<path d="M11.399 11.2513H11.0391V11.4913H11.399V11.2513Z" fill="#F5F5F5"/>
<path d="M11.399 11.6113H11.0391V11.7313H11.399V11.6113Z" fill="#F5F5F5"/>
<path d="M12.9588 12.2113H12.5989V12.4512H12.9588V12.2113Z" fill="#F5F5F5"/>
<path d="M12.9588 11.8513H12.5989V12.0913H12.9588V11.8513Z" fill="#F5F5F5"/>
<path d="M12.9588 11.2513H12.5989V11.4913H12.9588V11.2513Z" fill="#F5F5F5"/>
<path d="M12.9588 11.6113H12.5989V11.7313H12.9588V11.6113Z" fill="#F5F5F5"/>
<path d="M11.3989 10.2913H11.1589V10.7713H11.3989V10.2913Z" fill="#F5F5F5"/>
<path d="M11.3989 10.1715H11.1589V10.0402C11.1589 9.98016 11.2076 9.93146 11.2677 9.93146H11.2902C11.3502 9.93146 11.3989 9.98016 11.3989 10.0402L11.3989 10.1715Z" fill="#F5F5F5"/>
<path d="M12.8388 10.2913H12.5989V10.7713H12.8388V10.2913Z" fill="#F5F5F5"/>
<path d="M12.8388 10.1715H12.5989V10.0402C12.5989 9.98016 12.6476 9.93146 12.7076 9.93146H12.7301C12.7902 9.93146 12.8389 9.98016 12.8389 10.0402V10.1715H12.8388Z" fill="#F5F5F5"/>
<path d="M12.044 11.2513H11.954C11.7138 11.2513 11.519 11.446 11.519 11.6863V12.4512H12.4789V11.6863C12.4789 11.4461 12.2842 11.2513 12.044 11.2513Z" fill="#F5F5F5"/>
<path d="M11.2047 12.0072L10.5514 11.245C10.5557 11.2327 10.5592 11.22 10.5592 11.2063C10.5592 11.14 10.5055 11.0863 10.4392 11.0863C10.3729 11.0863 10.3192 11.14 10.3192 11.2063C10.3192 11.2726 10.3729 11.3263 10.4392 11.3263C10.4464 11.3263 10.4527 11.3234 10.4596 11.3222L10.5272 11.4011L10.1992 12.1662L10.5592 12.5262L10.8699 11.801L11.1136 12.0853L11.2047 12.0072ZM10.621 12.2579L10.3338 11.9706L10.4634 11.6683L10.7506 11.9555L10.621 12.2579Z" fill="#F5F5F5"/>
<path d="M12.8875 12.0853L13.1311 11.801L13.4419 12.5262L13.8018 12.1662L13.4739 11.4011L13.5415 11.3222C13.5484 11.3234 13.5546 11.3263 13.5618 11.3263C13.6281 11.3263 13.6818 11.2726 13.6818 11.2063C13.6818 11.14 13.6281 11.0863 13.5618 11.0863C13.4956 11.0863 13.4418 11.14 13.4418 11.2063C13.4418 11.22 13.4454 11.2327 13.4497 11.245L12.7964 12.0072L12.8875 12.0853ZM13.2506 11.9555L13.5378 11.6683L13.6674 11.9706L13.3802 12.2579L13.2506 11.9555Z" fill="#F5F5F5"/>
<path d="M12.1348 10.0724C12.0971 10.0613 12.0635 10.0407 12.0422 10.0076C12.0279 9.98555 12.0135 9.96048 11.999 9.93146C11.9845 9.96048 11.9701 9.98555 11.9558 10.0076C11.9345 10.0407 11.9009 10.0613 11.8632 10.0724C11.6644 10.1309 11.519 10.3136 11.519 10.5314C11.519 10.5731 11.526 10.6128 11.536 10.6514H12.462C12.472 10.6128 12.4789 10.5731 12.4789 10.5314C12.4789 10.3136 12.3335 10.1309 12.1348 10.0724Z" fill="#F5F5F5"/>
<path d="M9.2493 11.8371C9.2432 11.7626 9.23927 11.6874 9.23927 11.6113C9.23927 11.4571 9.25323 11.3055 9.27798 11.1568C9.31258 11.1808 9.34881 11.2071 9.38645 11.2367C9.36887 11.3597 9.35922 11.4847 9.35922 11.6113C9.35922 11.7 9.36376 11.7877 9.37234 11.8742L9.62598 11.9504C9.61014 11.8393 9.59917 11.7267 9.59917 11.6113C9.59917 11.554 9.60259 11.4972 9.60714 11.4408C9.7396 11.5877 9.84413 11.7651 9.84413 11.9613C9.84413 11.9663 10.2291 11.3913 9.52918 10.7564L9.52417 11.0264L9.12105 11.0221C9.08472 11.0217 9.0528 11.0475 9.04642 11.0833C9.01577 11.2557 8.99927 11.4321 8.99927 11.6113C8.99927 11.6622 9.00058 11.7128 9.00311 11.7632L9.2493 11.8371Z" fill="#F5F5F5"/>
<path d="M10.3139 9.42643C10.3663 9.38603 10.376 9.31065 10.3355 9.25816C10.2949 9.20566 10.2196 9.19619 10.1672 9.23659C9.62413 9.65598 9.25148 10.2322 9.09009 10.8776L9.3374 10.8808C9.49307 10.3096 9.82986 9.80031 10.3139 9.42643Z" fill="#F5F5F5"/>
<path d="M10.1532 9.72572C9.89222 9.98128 9.69469 10.2821 9.5603 10.6088C9.63451 10.6697 9.6953 10.7314 9.74579 10.7926C9.86672 10.4595 10.0593 10.1536 10.3211 9.89729C10.3685 9.85088 10.3693 9.77494 10.3229 9.7276C10.2764 9.68012 10.2005 9.67932 10.1532 9.72572Z" fill="#F5F5F5"/>
<path d="M9.73611 13.1844C9.55817 12.9291 9.42219 12.6427 9.33782 12.3352L9.47727 12.3864C9.56441 12.6671 9.6966 12.9281 9.866 13.1606L10.1308 13.1121C9.98126 12.9263 9.85836 12.7182 9.76855 12.4934L9.92511 12.551C10.0144 12.7472 10.1289 12.9275 10.2652 13.0875L10.5408 13.037C10.4324 12.9264 10.3377 12.8019 10.256 12.6675L10.0963 12.3483C10.047 12.2496 9.95919 12.1758 9.85358 12.1441L9.47582 12.0306L9.38849 12.0043L9.26272 11.9665L9.01265 11.8914L8.87915 11.8513L8.96179 12.0991C8.97993 12.1536 9.01659 12.1989 9.06435 12.2288C9.14071 12.5914 9.28232 12.9301 9.47685 13.2319L9.73611 13.1844Z" fill="#F5F5F5"/>
<path d="M14.4737 11.0264L14.4687 10.7564C13.7687 11.3913 14.1537 11.9663 14.1537 11.9613C14.1537 11.7651 14.2583 11.5877 14.3907 11.4408C14.3953 11.4973 14.3987 11.554 14.3987 11.6113C14.3987 11.7267 14.3877 11.8393 14.3719 11.9504L14.6255 11.8742C14.6341 11.7877 14.6386 11.7 14.6386 11.6113C14.6386 11.4847 14.6289 11.3597 14.6114 11.2367C14.6491 11.2071 14.6853 11.1808 14.7199 11.1568C14.7447 11.3055 14.7586 11.4571 14.7586 11.6113C14.7586 11.6874 14.7547 11.7626 14.7486 11.8371L14.9947 11.7632C14.9972 11.7128 14.9986 11.6622 14.9986 11.6113C14.9986 11.4321 14.982 11.2557 14.9514 11.0833C14.945 11.0475 14.9131 11.0217 14.8768 11.0221L14.4737 11.0264Z" fill="#F5F5F5"/>
<path d="M14.6606 10.8808L14.9079 10.8776C14.7464 10.2322 14.3738 9.65603 13.8308 9.23664C13.7783 9.19623 13.7031 9.2057 13.6625 9.2582C13.622 9.3107 13.6317 9.38603 13.6841 9.42648C14.1681 9.80031 14.5049 10.3096 14.6606 10.8808Z" fill="#F5F5F5"/>
<path d="M14.4377 10.6088C14.3033 10.2821 14.1058 9.98129 13.8448 9.72573C13.7975 9.67932 13.7216 9.68017 13.6751 9.72761C13.6287 9.77495 13.6296 9.85089 13.6769 9.89729C13.9386 10.1536 14.1312 10.4595 14.2522 10.7926C14.3027 10.7314 14.3635 10.6697 14.4377 10.6088Z" fill="#F5F5F5"/>
<path d="M14.9852 11.8914L14.7351 11.9665L14.6093 12.0043L14.522 12.0306L14.1443 12.1441C14.0387 12.1758 13.9508 12.2496 13.9015 12.3483L13.7418 12.6675C13.6602 12.8019 13.5654 12.9264 13.457 13.037L13.7327 13.0875C13.869 12.9275 13.9834 12.7472 14.0727 12.551L14.2293 12.4934C14.1395 12.7182 14.0166 12.9263 13.867 13.1121L14.1318 13.1606C14.3012 12.928 14.4334 12.667 14.5206 12.3864L14.66 12.3352C14.5756 12.6427 14.4396 12.9291 14.2617 13.1844L14.5209 13.2319C14.7155 12.9301 14.8571 12.5913 14.9334 12.2287C14.9812 12.1989 15.0179 12.1535 15.036 12.0991L15.1186 11.8512L14.9852 11.8914Z" fill="#F5F5F5"/>
<path d="M13.2495 13.218L13.2434 13.2235C12.8942 13.4929 12.4607 13.6511 11.9991 13.6511C11.5374 13.6511 11.1039 13.4929 10.7548 13.2235L10.7486 13.218C10.7033 13.1682 10.6352 13.1458 10.5692 13.1592L9.35938 13.4111L9.62783 13.6464C9.69964 13.7093 9.79189 13.7387 9.88362 13.7333C10.0997 13.9484 10.3478 14.1313 10.6206 14.2734L10.542 14.4184C10.9755 14.6542 11.4719 14.7882 11.9991 14.7882C12.5262 14.7882 13.0227 14.6542 13.4561 14.4184L13.3775 14.2734C13.6503 14.1313 13.8985 13.9484 14.1145 13.7333C14.2062 13.7387 14.2985 13.7093 14.3703 13.6464L14.6388 13.4111L13.429 13.1592C13.363 13.1458 13.2948 13.1682 13.2495 13.218ZM10.7353 14.0616C10.5178 13.9484 10.3187 13.8055 10.1396 13.6412L10.256 13.5856C10.4188 13.7296 10.5978 13.8557 10.7922 13.9566L10.7353 14.0616ZM13.8586 13.6412C13.6794 13.8055 13.4803 13.9484 13.2628 14.0616L13.2059 13.9566C13.4004 13.8557 13.5793 13.7296 13.7421 13.5856L13.8586 13.6412ZM11.9991 14.011C11.4276 14.011 10.9039 13.8083 10.4916 13.4732L10.6114 13.4161C11.0007 13.716 11.4844 13.891 11.9991 13.891C12.5137 13.891 12.9974 13.716 13.3867 13.4161L13.5065 13.4732C13.0942 13.8083 12.5706 14.011 11.9991 14.011Z" fill="#F5F5F5"/>
<path d="M10.6824 13.0479C10.7339 13.0915 10.7873 13.1327 10.843 13.1711H13.155C13.2106 13.1327 13.2641 13.0915 13.3156 13.0479L13.1988 12.9311H10.7991L10.6824 13.0479Z" fill="#F5F5F5"/>
</g>
<defs>
<clipPath id="clip0_72_197">
<path d="M-0.000244141 2C-0.000244141 0.895432 0.895186 0 1.99976 0H21.9995C23.1041 0 23.9995 0.895431 23.9995 2V21.9998C23.9995 23.1043 23.1041 23.9998 21.9995 23.9998H1.99976C0.895188 23.9998 -0.000244141 23.1043 -0.000244141 21.9998V2Z" fill="white"/>
</clipPath>
</defs>
</svg>
