<svg width="24" height="24" viewBox="0 0 24 24" fill="none" xmlns="http://www.w3.org/2000/svg">
<g clip-path="url(#clip0_72_235)">
<path d="M23.9995 6.10352e-05H-0.000244141V23.9998H23.9995V6.10352e-05Z" fill="#FF4B55"/>
<path d="M18.9075 14.99C18.5621 14.7729 18.3549 15.1183 18.3549 15.1183L17.3483 15.2367L17.8516 14.8124C18.2167 14.842 18.2661 14.7335 18.3647 14.5855C18.4634 14.4374 18.8779 14.5065 18.8779 14.5065C18.8187 14.0526 18.2463 14.3091 18.2463 14.3091C17.7825 14.2598 17.7035 14.6348 17.7035 14.6348L16.9832 15.1874L15.3978 14.7177C15.5623 14.5365 15.6913 14.358 15.7102 14.2499C15.7418 14.0684 14.5391 13.763 14.1707 13.3815C13.8023 12.9999 13.6707 12.3947 13.8418 12.2368C14.0129 12.0789 14.1576 12.5262 14.3418 12.8947C14.526 13.2631 14.8681 13.5526 15.0918 13.3684C15.3155 13.1842 14.8549 12.9079 14.6444 12.5131C14.4339 12.1184 14.8023 11.9736 14.9733 12.0131C15.1444 12.0525 15.2496 12.8684 15.6575 13.2894C16.0654 13.7104 16.4338 13.6315 16.4733 13.3684C16.5128 13.1053 15.8001 12.781 15.6553 12.5572C15.5106 12.3336 15.4733 11.8947 15.7101 11.8816C15.947 11.8684 16.8153 13.1626 17.5523 13.6579C18.3548 14.1973 18.9996 13.5658 18.8944 13.3026C18.7891 13.0394 18.3022 13.1448 17.7365 13C17.1707 12.8553 16.5918 12.0921 16.4207 11.6711C16.2497 11.25 16.3911 11.25 16.4898 11.2895C16.5885 11.329 16.9635 11.8816 17.6839 12.3059C18.4042 12.7303 18.9075 12.3257 18.9667 12.227C19.0259 12.1283 19.2535 11.6853 18.5128 11.7895C17.6707 11.9079 17.1905 11.4079 16.8451 11.1415C16.4997 10.8751 16.3615 10.5099 16.5194 10.3619C16.6773 10.2138 17.197 10.8816 17.9866 11.0921C18.7117 11.2855 19.0063 10.9737 18.9865 10.6875C18.9668 10.4013 18.799 10.5197 17.9799 10.4408C17.1609 10.3619 16.5885 9.59214 16.5589 9.54279C16.5293 9.49343 16.5392 9.21715 16.9536 9.48358C17.3681 9.75002 18.1082 9.90794 18.5424 9.8882C18.9766 9.86847 19.0655 9.28624 18.8582 9.18757C18.651 9.0889 18.6016 9.23693 18.128 9.3356C17.6543 9.43427 16.7661 8.95071 16.549 8.72375C16.3319 8.49678 16.5688 8.34875 16.6773 8.36848C16.7859 8.38822 17.4964 8.80268 18.128 8.78295C18.7595 8.76321 19.026 8.18099 19.0063 8.00333C18.9865 7.82572 18.8089 7.67769 18.5424 7.8553C18.276 8.03291 17.9207 8.24019 17.3286 8.14147C16.7365 8.0428 16.4602 7.64807 16.5392 7.50004C16.6181 7.35201 17.1905 7.6086 18.0983 7.50993C19.0062 7.41126 19.0457 6.61191 18.9569 6.45403C18.8681 6.29616 18.651 6.34547 18.345 6.63164C18.0391 6.91781 17.447 6.97701 16.9832 6.97701C16.5194 6.97701 16.5095 6.75005 16.5786 6.59213C16.6477 6.43425 17.1411 6.47372 17.8319 6.2566C18.5227 6.03948 18.9174 5.48687 19.0259 5.1415C19.1345 4.79613 18.8681 4.52965 18.7595 4.52965C18.6509 4.52965 18.72 4.37177 18.2464 5.05267C17.7727 5.73357 16.5293 6.00001 16.5293 6.00001C16.4404 5.83224 16.3023 5.77304 16.3023 5.77304C15.4635 5.9408 14.4517 6.66506 14.4517 6.66506C14.4517 6.66506 14.6301 7.23712 14.4071 7.68294C14.1202 8.25683 13.1365 7.89843 13.404 6.99192C13.6267 6.23715 14.4888 5.78082 15.217 5.69903C15.9452 5.61732 15.9823 5.34236 15.9823 5.34236C15.9823 5.34236 15.2177 5.5914 15.204 5.24959C15.3619 5.28166 15.5946 5.29562 15.9897 5.26061C16.5768 5.20862 16.9037 4.79247 16.6436 4.70336C16.3836 4.61426 16.495 4.88167 16.0492 5.08975C15.7312 5.23816 15.3974 5.17131 15.2304 5.12059C15.3847 4.78366 16.0343 4.95597 16.0343 4.95597C16.0418 4.36896 15.2628 4.57891 15.2628 4.57891C14.9207 3.84204 12.9207 4.69732 12.9207 4.69732L13.3944 5.07888C12.2365 5.72368 11.9997 6.94739 11.9997 6.94739C11.9997 6.94739 11.7628 5.72373 10.605 5.07897L11.0786 4.69741C11.0786 4.69741 9.07865 3.84209 8.73656 4.57901C8.73656 4.57901 7.9576 4.36905 7.96505 4.95606C7.96505 4.95606 8.61469 4.78375 8.769 5.12069C8.60199 5.17141 8.26819 5.23825 7.9502 5.08984C7.50432 4.88177 7.61584 4.6143 7.35573 4.70346C7.09567 4.79257 7.42262 5.20877 8.00963 5.2607C8.40474 5.29572 8.63747 5.28175 8.79534 5.24969C8.7817 5.59145 8.01704 5.34245 8.01704 5.34245C8.01704 5.34245 8.05421 5.61737 8.78236 5.69912C9.51056 5.78092 10.3726 6.23724 10.5954 6.99201C10.8628 7.89852 9.87922 8.25692 9.59226 7.68304C9.36932 7.23717 9.54768 6.66516 9.54768 6.66516C9.54768 6.66516 8.53585 5.9409 7.69707 5.77313C7.69707 5.77313 7.55893 5.83234 7.47011 6.0001C7.47011 6.0001 6.22671 5.73367 5.753 5.05272C5.27928 4.37177 5.34838 4.52969 5.23986 4.52969C5.13135 4.52969 4.86487 4.79613 4.97343 5.14155C5.08199 5.48697 5.47672 6.03957 6.16751 6.25665C6.8583 6.47377 7.3517 6.43425 7.42079 6.59217C7.48989 6.75005 7.48 6.97706 7.01617 6.97706C6.55235 6.97706 5.96028 6.91786 5.65433 6.63169C5.34842 6.34552 5.1313 6.29616 5.04247 6.45408C4.95365 6.61195 4.99311 7.41131 5.90103 7.50998C6.80889 7.60865 7.38128 7.3521 7.46022 7.50009C7.53915 7.64812 7.26287 8.04285 6.67075 8.14152C6.07868 8.24019 5.72337 8.03296 5.45694 7.85535C5.1905 7.67774 5.01285 7.82572 4.99311 8.00338C4.97338 8.18099 5.23982 8.76326 5.8714 8.783C6.50299 8.80273 7.21351 8.38827 7.32203 8.36853C7.43054 8.3488 7.6674 8.49683 7.45033 8.72379C7.2332 8.95076 6.34507 9.43432 5.8714 9.33565C5.39774 9.23698 5.34838 9.08895 5.14114 9.18762C4.93391 9.28629 5.02274 9.86852 5.45694 9.88825C5.89114 9.90798 6.63129 9.75011 7.04575 9.48363C7.46022 9.21719 7.47011 9.49352 7.44048 9.54283C7.41086 9.59214 6.83852 10.3619 6.01943 10.4409C5.20035 10.5198 5.03258 10.4014 5.01285 10.6876C4.99311 10.9737 5.28763 11.2855 6.01282 11.0922C6.80228 10.8816 7.32203 10.2139 7.47995 10.3619C7.63787 10.5099 7.49973 10.875 7.15436 11.1414C6.80899 11.4078 6.32871 11.9078 5.48661 11.7894C4.74585 11.6852 4.97347 12.1282 5.03268 12.2269C5.09188 12.3256 5.59517 12.7302 6.31554 12.3059C7.03591 11.8815 7.4109 11.3289 7.50962 11.2894C7.60829 11.25 7.74976 11.25 7.57871 11.671C7.40767 12.092 6.82872 12.8552 6.26295 12.9999C5.69712 13.1447 5.21033 13.0393 5.10505 13.3025C4.99982 13.5657 5.64453 14.1972 6.44716 13.6578C7.18403 13.1625 8.05243 11.8683 8.28929 11.8815C8.52614 11.8946 8.48883 12.3335 8.34408 12.5571C8.19933 12.7809 7.48665 13.1052 7.52612 13.3683C7.56559 13.6314 7.93398 13.7104 8.34188 13.2893C8.74978 12.8683 8.85501 12.0524 9.02611 12.013C9.19715 11.9735 9.56554 12.1183 9.35503 12.513C9.14451 12.9078 8.68397 13.1841 8.9077 13.3683C9.13134 13.5524 9.47348 13.263 9.65769 12.8946C9.84186 12.5262 9.98661 12.0788 10.1577 12.2367C10.3288 12.3946 10.1971 12.9998 9.82874 13.3814C9.46035 13.763 8.25769 14.0684 8.28929 14.2498C8.30808 14.3579 8.43717 14.5364 8.60166 14.7176L7.01617 15.1874L6.2958 14.6348C6.2958 14.6348 6.21687 14.2598 5.75304 14.3092C5.75304 14.3092 5.18066 14.0526 5.12146 14.5066C5.12146 14.5066 5.53592 14.4375 5.63459 14.5855C5.73326 14.7335 5.78262 14.8421 6.14773 14.8125L6.65102 15.2368L5.64444 15.1184C5.64444 15.1184 5.4372 14.773 5.09183 14.9901C5.09183 14.9901 4.65763 14.852 4.54907 15.2664C4.54907 15.2664 4.92407 15.1974 5.02274 15.2467C5.02274 15.2467 5.17077 15.5822 5.64444 15.3849L6.64113 15.4342L6.07864 15.7105C6.07864 15.7105 5.36811 15.4836 5.39774 16.0756C5.39774 16.0756 5.1905 16.3125 5.378 16.5493C5.378 16.5493 5.41747 16.2927 5.60497 16.1842C5.60497 16.1842 5.97007 16.3322 6.20693 15.898L6.9273 15.4638L7.63782 15.8092C7.63782 15.8092 7.61809 16.1941 8.14112 16.0362C8.14112 16.0362 8.31872 16.1546 8.36808 16.3125C8.36808 16.3125 8.59505 16.0658 8.22994 15.7796C8.22994 15.7796 8.14112 15.4441 7.70692 15.5724L7.30229 15.3652L8.79937 14.9209C9.05854 15.1678 9.33824 15.3702 9.43621 15.3362C9.62943 15.2694 9.77802 15.0688 9.91175 14.7864C10.0455 14.504 10.6474 13.5233 10.9446 13.5307C11.2418 13.5381 11.3756 13.7759 11.3013 14.1994C11.227 14.623 10.6477 15.4342 10.2727 15.602C9.89774 15.7697 9.83854 15.8487 9.49312 15.8191C9.14775 15.7895 9.02929 15.9375 9.10823 16.1349C9.18717 16.3323 9.57566 16.4578 9.95689 16.3125C10.3714 16.1546 10.5293 15.9375 10.6872 16.0658C10.845 16.1941 10.5194 16.6579 10.0753 16.7961C9.63121 16.9342 9.29568 16.8454 9.36477 17.1217C9.43387 17.398 9.90754 17.4178 10.2134 17.2401C10.5193 17.0625 10.8648 16.569 10.9535 16.727C11.0424 16.8848 10.9832 17.2895 10.6871 17.5066C10.391 17.7237 10.0543 17.5959 9.98647 17.7928C9.8878 18.0789 10.2332 18.2664 10.4996 18.1579C10.766 18.0493 11.072 17.7138 11.2101 17.4178C11.3483 17.1217 11.6049 17.3783 11.5259 17.6546C11.447 17.9309 11.5128 18.1579 10.947 18.5921L11.9997 20.2104L13.0523 18.592C12.4865 18.1578 12.5523 17.9308 12.4734 17.6545C12.3944 17.3782 12.651 17.1216 12.7891 17.4177C12.9273 17.7137 13.2332 18.0492 13.4997 18.1578C13.7661 18.2663 14.1115 18.0788 14.0128 17.7927C13.945 17.5958 13.6082 17.7236 13.3122 17.5065C13.0161 17.2894 12.9569 16.8848 13.0457 16.7269C13.1346 16.569 13.4799 17.0624 13.7858 17.24C14.0917 17.4176 14.5654 17.3979 14.6345 17.1216C14.7036 16.8453 14.3681 16.9341 13.924 16.796C13.4799 16.6578 13.1543 16.194 13.3121 16.0657C13.47 15.9374 13.6279 16.1545 14.0424 16.3124C14.4236 16.4577 14.8121 16.3321 14.891 16.1348C14.97 15.9374 14.8516 15.7894 14.5062 15.819C14.1608 15.8486 14.1015 15.7696 13.7265 15.6019C13.3515 15.4341 12.7723 14.6228 12.698 14.1993C12.6237 13.7758 12.7575 13.538 13.0547 13.5306C13.3519 13.5231 13.9537 14.5039 14.0875 14.7863C14.2213 15.0687 14.3699 15.2693 14.5631 15.3362C14.661 15.3701 14.9407 15.1677 15.1999 14.9208L16.6969 15.3651L16.2924 15.5723C15.8582 15.444 15.7693 15.7795 15.7693 15.7795C15.4042 16.0657 15.6312 16.3124 15.6312 16.3124C15.6806 16.1545 15.8582 16.0361 15.8582 16.0361C16.3812 16.194 16.3615 15.8091 16.3615 15.8091L17.072 15.4637L17.7923 15.8979C18.0292 16.3321 18.3943 16.1841 18.3943 16.1841C18.5818 16.2927 18.6213 16.5492 18.6213 16.5492C18.8088 16.3124 18.6015 16.0755 18.6015 16.0755C18.6312 15.4834 17.9206 15.7104 17.9206 15.7104L17.3582 15.4341L18.3548 15.3848C18.8285 15.5821 18.9765 15.2466 18.9765 15.2466C19.0752 15.1973 19.4502 15.2664 19.4502 15.2664C19.3417 14.8519 18.9075 14.99 18.9075 14.99Z" fill="#464655"/>
</g>
<defs>
<clipPath id="clip0_72_235">
<path d="M-0.000732422 2C-0.000732422 0.895432 0.894698 0 1.99927 0H21.999C23.1036 0 23.999 0.895431 23.999 2V21.9998C23.999 23.1043 23.1036 23.9998 21.999 23.9998H1.99927C0.8947 23.9998 -0.000732422 23.1043 -0.000732422 21.9998V2Z" fill="white"/>
</clipPath>
</defs>
</svg>
