<svg width="24" height="24" viewBox="0 0 24 24" fill="none" xmlns="http://www.w3.org/2000/svg">
<g clip-path="url(#clip0_72_238)">
<path d="M11.9989 0H-0.000976562V23.9998H11.9989V0Z" fill="#73AF00"/>
<path d="M23.9992 6.10352e-05H11.9993V23.9998H23.9992V6.10352e-05Z" fill="#F5F5F5"/>
<path d="M15.0439 9.70387L13.9489 11.1363L12.2392 10.564C12.1436 10.532 12.0623 10.6401 12.1195 10.7231L13.1435 12.2072L12.0709 13.6564C12.0109 13.7374 12.0886 13.8481 12.1852 13.8194L13.913 13.3041L14.9599 14.7721C15.0184 14.8542 15.1477 14.8145 15.1502 14.7137L15.1941 12.9113L16.9137 12.3693C17.0098 12.339 17.0121 12.2037 16.917 12.1703L15.2163 11.5715L15.2322 9.76861C15.2331 9.66769 15.1052 9.62376 15.0439 9.70387Z" fill="#FF4B55"/>
<path d="M13.1305 16.3378C10.7367 16.3378 8.79486 14.396 8.79486 12C8.79486 9.60843 10.7367 7.66225 13.1305 7.66225C14.0211 7.66225 14.8425 7.93618 15.5269 8.39977C15.6317 8.47079 15.7514 8.33302 15.6636 8.24176C14.6407 7.17822 13.1928 6.52938 11.5876 6.58418C8.82968 6.6783 6.54652 8.88947 6.37032 11.6434C6.16848 14.7977 8.66614 17.4191 11.7758 17.4191C13.3077 17.4191 14.6843 16.7787 15.6675 15.7548C15.7543 15.6643 15.6344 15.5286 15.5306 15.599C14.8454 16.0636 14.0227 16.3378 13.1305 16.3378Z" fill="#FF4B55"/>
</g>
<defs>
<clipPath id="clip0_72_238">
<path d="M-0.000976562 2C-0.000976562 0.895432 0.894454 0 1.99902 0H21.9988C23.1034 0 23.9988 0.895431 23.9988 2V21.9998C23.9988 23.1043 23.1034 23.9998 21.9988 23.9998H1.99902C0.894455 23.9998 -0.000976562 23.1043 -0.000976562 21.9998V2Z" fill="white"/>
</clipPath>
</defs>
</svg>
