<svg width="24" height="24" viewBox="0 0 24 24" fill="none" xmlns="http://www.w3.org/2000/svg">
<g clip-path="url(#clip0_72_244)">
<path d="M23.9985 0H-0.0012207V23.9998H23.9985V0Z" fill="#41479B"/>
<path d="M23.9985 22.6705L2.65718 11.9999L23.9985 1.32922V0L-0.0012207 11.9999L23.9985 23.9998V22.6705Z" fill="#FF4B55"/>
<path d="M2.65723 11.9999L23.9986 22.6706V1.32928L2.65723 11.9999Z" fill="#F5F5F5"/>
<path d="M21.1196 9.90142C21.1196 9.90142 22.595 9.96395 22.7326 9.85141C22.8701 9.73886 22.8951 8.98863 22.4075 8.87613C21.9199 8.76359 20.5945 9.48883 20.5945 9.48883L21.1196 9.90142Z" fill="#FFF5DC"/>
<path d="M18.2306 11.0642C18.2306 11.0642 18.2139 11.1059 18.2056 11.2893C18.1972 11.4726 18.2306 11.9478 18.8057 12.1562L18.6724 12.7147L19.2809 13.0815C19.2809 13.0815 19.731 12.4146 19.756 11.8562C19.7811 11.2976 18.2306 11.0642 18.2306 11.0642Z" fill="#D27D69"/>
<path d="M16.4052 10.6891L16.6427 10.4515C16.6427 10.4515 16.1564 10.7482 15.9717 10.4807C15.73 10.1306 16.0551 9.76379 16.3926 9.60128C16.7302 9.43871 17.4055 9.56378 17.4055 9.56378L17.8306 10.6516L16.5427 11.4644L16.4052 10.6891Z" fill="#D27D69"/>
<path d="M20.3936 8.61348L21.544 8.47595C21.544 8.47595 21.2064 8.96359 20.5437 9.32621C20.5437 9.32621 21.2314 9.32621 21.4314 9.56377C21.6315 9.80133 21.2314 10.0264 21.0813 10.1014C20.9313 10.1764 19.6309 10.9767 19.6309 10.9767L18.468 10.8391L20.3936 8.61348Z" fill="#D27D69"/>
<path d="M21.2481 7.7299C21.2481 7.7299 21.4982 7.14641 21.4898 6.73794L20.6479 7.32144C20.6479 7.32144 20.8396 7.22975 20.7729 6.89633L18.0221 8.38844L17.4636 9.3804L19.1641 9.90554L21.2481 7.7299Z" fill="#D27D69"/>
<path d="M19.1752 12.2771L18.8877 12.7335C18.8877 12.7335 18.375 12.6209 18.2 12.746C18.0249 12.8711 18.0061 13.3399 18.3125 13.3774C18.3125 13.3774 18.5251 13.5087 18.6501 13.4025C18.6501 13.4025 18.9064 13.5025 18.9502 13.3399C18.994 13.1774 18.9377 13.0399 18.9377 13.0399H19.119L19.4378 12.4709L19.1752 12.2771Z" fill="#FFE15A"/>
<path d="M16.6057 11.2893C16.6057 11.2893 17.4059 10.8892 17.4059 10.289C17.4059 9.68884 16.664 9.65551 16.0639 9.85557C16.0639 9.85557 15.7054 9.57217 16.0055 9.28872C16.4169 8.90018 18.2062 8.08836 18.2062 8.08836L18.0061 9.08866C18.0061 9.08866 18.7188 9.46375 19.0064 9.28872C19.2481 9.14163 21.6072 7.28811 21.6072 7.28811C21.6072 7.28811 21.4071 8.28842 20.0067 9.28872L19.8583 10.0307C19.8257 10.1936 19.7197 10.3325 19.571 10.4068L19.0064 10.6891C19.0064 10.6891 20.6068 10.8892 20.6068 11.0892C20.6068 11.2893 20.2067 12.2896 19.4065 12.6897L19.0064 12.2896L19.2064 11.6894C19.2064 11.6894 18.6062 11.4893 18.2061 11.2893C18.2061 11.2893 17.6059 11.4893 17.2058 11.4893C16.8057 11.4893 16.6057 11.2893 16.6057 11.2893Z" fill="#B95546"/>
<path d="M15.4055 12.2896V11.8739C15.4055 11.7558 15.4524 11.6425 15.536 11.559L16.4058 10.6891L16.6059 11.0893H17.4061L17.2061 11.2893V11.4894L16.2058 12.0896L15.4055 12.2896Z" fill="#FFF5DC"/>
<path d="M15.8052 12.0895H15.4051C15.4051 12.0895 15.005 12.6897 15.4051 12.6897C15.4051 12.6897 16.0053 12.2895 16.2054 12.0895C16.2054 12.0895 16.2054 11.8894 15.8052 12.0895Z" fill="#FFE15A"/>
<path d="M20.6852 12.9769H17.9195C17.8968 12.9524 17.8648 12.9365 17.8287 12.9365C17.8287 12.9365 17.3443 12.7357 17.2753 12.7357H17.2186C17.1497 12.7357 17.0938 12.7916 17.0938 12.8605V12.9769H16.4616V12.8605C16.4616 12.7916 16.4058 12.7357 16.3369 12.7357H16.2801C16.2112 12.7357 16.1554 12.7916 16.1554 12.8605V12.8626C15.8844 12.8515 15.3051 12.817 15.005 12.717L13.4045 13.1171L15.005 13.5172C15.3051 13.4172 15.8844 13.3827 16.1554 13.3716V13.3737C16.1554 13.4426 16.2112 13.4984 16.2801 13.4984H16.3369C16.4058 13.4984 16.4616 13.4426 16.4616 13.3737V13.2573H17.0938V13.3737C17.0938 13.4426 17.1497 13.4984 17.2186 13.4984H17.2753C17.3443 13.4984 17.8287 13.2977 17.8287 13.2977C17.8648 13.2977 17.8967 13.2818 17.9195 13.2573H20.6852C20.7626 13.2573 20.8254 13.1945 20.8254 13.1171C20.8254 13.0397 20.7627 12.9769 20.6852 12.9769Z" fill="#FFE15A"/>
<path d="M20.5651 13.5149C20.3984 13.4815 18.4895 13.815 18.4895 13.815C18.4895 13.815 18.3728 13.6983 18.7229 13.3732L18.5562 13.3315C18.5562 13.3315 18.1894 13.5899 18.0394 13.6233C17.9101 13.652 17.6215 13.7923 17.5595 13.9797L16.3972 14.1734L16.4222 14.2735L17.5622 14.1399C17.6167 14.315 17.7958 14.3507 17.9227 14.2985C17.9227 14.2985 18.0894 14.3652 18.2394 14.2485C18.2394 14.2485 18.5395 14.2985 18.5562 14.0234L20.6485 13.7067C20.6485 13.7067 20.7318 13.5483 20.5651 13.5149Z" fill="#FFE15A"/>
<path d="M19.3815 14.9237C19.3815 14.9237 19.2231 15.1321 18.8313 14.9486C18.4395 14.7652 17.9811 14.9653 17.731 14.907C17.4809 14.8486 17.1058 14.6986 16.7557 14.832C16.4056 14.9653 16.2139 14.957 16.2889 14.7903C16.3639 14.6236 16.4056 14.4986 16.2889 14.4402L16.4222 14.2735L16.3973 14.1734C16.3973 14.1734 15.7304 13.915 15.2803 14.2735C14.8302 14.6319 14.9635 15.4488 15.7137 15.5072C15.7137 15.5072 15.9471 15.7989 16.5223 15.7156C16.5223 15.7156 16.8974 15.974 17.5393 15.8573C17.5393 15.8573 17.5642 15.9323 17.9811 15.8989C18.3979 15.8656 18.8646 15.9156 18.7813 16.199C18.7813 16.199 19.0897 16.1407 18.9063 15.8573C18.9063 15.8573 19.2731 15.8406 19.5232 16.0573C19.5232 16.0573 19.5399 15.8072 19.2981 15.6739C19.2981 15.6739 19.7066 15.5322 19.9316 15.6739C19.9316 15.6739 19.7816 15.3571 19.3815 15.3988C19.3815 15.3988 19.6732 15.1654 19.8066 15.2238C19.8066 15.2238 19.6816 15.0738 19.3148 15.2238C19.3148 15.2238 19.5482 15.082 19.3815 14.9237Z" fill="#FFE15A"/>
</g>
<defs>
<clipPath id="clip0_72_244">
<path d="M-0.0012207 2C-0.0012207 0.895432 0.89421 0 1.99878 0H21.9985C23.1031 0 23.9985 0.895431 23.9985 2V21.9998C23.9985 23.1043 23.1031 23.9998 21.9985 23.9998H1.99878C0.894211 23.9998 -0.0012207 23.1043 -0.0012207 21.9998V2Z" fill="white"/>
</clipPath>
</defs>
</svg>
