<svg width="24" height="24" viewBox="0 0 24 24" fill="none" xmlns="http://www.w3.org/2000/svg">
<g clip-path="url(#clip0_72_328)">
<path d="M23.9968 0.00012207H-0.00292969V23.9999H23.9968V0.00012207Z" fill="#41479B"/>
<path d="M4.41809 0.00227356H-0.00292969V0.938686L4.41809 3.83521V0.00227356Z" fill="#41479B"/>
<path d="M-0.00292969 3.20376V4.4233H1.85846L-0.00292969 3.20376Z" fill="#41479B"/>
<path d="M-0.00292969 7.58114V8.80068L1.85846 7.58114H-0.00292969Z" fill="#41479B"/>
<path d="M11.9969 0.938686V0.00227356H7.57593V3.83521L11.9969 0.938686Z" fill="#41479B"/>
<path d="M11.9969 8.80068V7.58114H10.1355L11.9969 8.80068Z" fill="#41479B"/>
<path d="M7.57593 8.16922V12.0022H11.9969V11.0657L7.57593 8.16922Z" fill="#41479B"/>
<path d="M11.9969 4.4233V3.20376L10.1355 4.4233H11.9969Z" fill="#41479B"/>
<path d="M-0.00292969 11.0657V12.0022H4.41809V8.16922L-0.00292969 11.0657Z" fill="#41479B"/>
<path d="M11.9969 11.0657V10.1299L8.07031 7.58109H9.23036L11.9969 9.3769V8.80062L10.1355 7.58109H11.9969V6.9495H6.94434V12.0021H7.57588V8.16918L11.9969 11.0657Z" fill="#F5F5F5"/>
<path d="M-0.00292969 6.9495V7.58109H1.85846L-0.00292969 8.80062V9.6866L3.24065 7.58109H4.4007L-0.00292969 10.4396V11.0657L4.41809 8.16918V12.0021H5.04963V6.9495H-0.00292969Z" fill="#F5F5F5"/>
<path d="M5.04963 0.00222778H4.41809V3.83516L-0.00292969 0.938641V1.96341L3.7865 4.42325H2.62645L-0.00292969 2.71645V3.20371L1.85846 4.42325H-0.00292969V5.05483H5.04963V0.00222778Z" fill="#F5F5F5"/>
<path d="M11.9969 5.05483V4.42325H10.1355L11.9969 3.20371V2.30644L8.73593 4.42325H7.57588L11.9969 1.55345V0.938641L7.57588 3.83516V0.00222778H6.94434V5.05483H11.9969Z" fill="#F5F5F5"/>
<path d="M11.997 6.9495V5.05483H6.94439V0.00222778H5.04963V5.05483H-0.00292969V6.9495H5.04963V12.0021H6.94439V6.9495H11.997Z" fill="#FF4B55"/>
<path d="M3.24065 7.58109L-0.00292969 9.68661V10.4396L4.4007 7.58109H3.24065Z" fill="#FF4B55"/>
<path d="M8.07031 7.58109L11.9969 10.1299V9.37691L9.23036 7.58109H8.07031Z" fill="#FF4B55"/>
<path d="M3.7865 4.42325L-0.00292969 1.96342V2.71646L2.62645 4.42325H3.7865Z" fill="#FF4B55"/>
<path d="M8.73598 4.42325L11.9969 2.30644V1.55345L7.57593 4.42325H8.73598Z" fill="#FF4B55"/>
<path d="M15.5561 13.5773C15.4902 14.4561 15.2174 20.0407 18.7606 21.3031C22.3051 20.0404 22.0313 14.4559 21.9652 13.5773C21.5359 13.7456 19.9819 14.2556 18.7606 13.3864C17.5394 14.2555 15.9856 13.7457 15.5561 13.5773Z" fill="#F5F5F5"/>
<path d="M20.504 14.704C20.3098 14.5529 19.95 14.8335 19.5472 14.8047C19.1735 14.778 18.713 14.3996 18.1144 14.5627C17.9491 14.4104 18.0291 14.0565 18.0291 14.0565C17.6135 14.325 17.5838 14.6928 17.6099 14.8922C17.3135 15.2838 17.3336 15.8813 17.3888 16.0637C17.4608 16.3011 17.5975 16.3299 17.619 16.596C17.6406 16.8622 17.7413 16.7687 17.7413 16.7687C17.9494 16.652 17.9797 16.4319 18.0672 16.0715C18.4052 16.1147 18.6263 15.8119 18.6263 15.8119C18.4044 15.8815 18.2646 15.7592 18.1883 15.6515C18.2002 15.6159 18.2097 15.5831 18.2234 15.5457C18.4752 14.855 19.68 15.0449 19.7917 15.2363C19.9932 15.5816 20.2594 15.7111 20.2594 15.7111C20.2594 15.3511 19.9932 15.0349 19.9932 15.0349C20.3961 14.963 20.504 14.704 20.504 14.704ZM17.6047 16.186C17.565 16.186 17.5328 16.1538 17.5328 16.1141C17.5328 16.0743 17.565 16.0421 17.6047 16.0421C17.6445 16.0421 17.6767 16.0743 17.6767 16.1141C17.6767 16.1538 17.6445 16.186 17.6047 16.186Z" fill="#FFA028"/>
<path d="M19.3176 19.1235C19.5522 19.0492 19.5253 18.5938 19.7775 18.2784C20.0115 17.9859 20.5844 17.8213 20.7897 17.2359C21.0089 17.1861 21.2549 17.4528 21.2549 17.4528C21.2695 16.9582 20.9836 16.7251 20.8045 16.6334C20.6502 16.1673 20.1468 15.8447 19.9653 15.7868C19.729 15.7113 19.6277 15.8076 19.3963 15.6743C19.1648 15.5411 19.1847 15.6771 19.1847 15.6771C19.1627 15.9147 19.3268 16.0645 19.5739 16.3409C19.3465 16.5949 19.4706 16.9486 19.4706 16.9486C19.5391 16.7264 19.7191 16.6807 19.8511 16.6789C19.8736 16.7089 19.8952 16.7354 19.9183 16.7679C20.3442 17.3671 19.5043 18.2515 19.2833 18.2349C18.8846 18.2049 18.627 18.3506 18.627 18.3506C18.9234 18.5548 19.3349 18.5151 19.3349 18.5151C19.1655 18.8876 19.3176 19.1235 19.3176 19.1235ZM19.7421 15.8951C19.7646 15.8624 19.8095 15.8541 19.8422 15.8767C19.8749 15.8992 19.8831 15.944 19.8606 15.9768C19.8381 16.0095 19.7933 16.0177 19.7606 15.9952C19.7278 15.9726 19.7196 15.9278 19.7421 15.8951Z" fill="#FFA028"/>
<path d="M16.1457 15.9256C16.1143 16.1697 16.5388 16.3369 16.7187 16.6985C16.8857 17.0338 16.7938 17.6228 17.2386 18.0553C17.1915 18.2751 16.846 18.3861 16.846 18.3861C17.2885 18.6075 17.6203 18.4462 17.7788 18.3223C18.2666 18.3785 18.771 18.0576 18.9 17.9173C19.0679 17.7347 19.0232 17.6024 19.2415 17.4485C19.4598 17.2946 19.328 17.2554 19.328 17.2554C19.1217 17.1355 18.9168 17.2213 18.562 17.3291C18.4273 17.0161 18.0542 16.9797 18.0542 16.9797C18.2269 17.1354 18.1927 17.3179 18.1387 17.4384C18.102 17.4462 18.0689 17.4547 18.0297 17.4619C17.307 17.5961 16.858 16.462 16.9661 16.2685C17.1611 15.9195 17.1374 15.6245 17.1374 15.6245C16.8273 15.8074 16.6903 16.1974 16.6903 16.1974C16.4236 15.8869 16.1457 15.9256 16.1457 15.9256ZM18.8956 17.6692C18.9158 17.7034 18.9044 17.7475 18.8702 17.7677C18.836 17.7879 18.7919 17.7766 18.7717 17.7423C18.7514 17.7081 18.7628 17.664 18.7971 17.6438C18.8313 17.6237 18.8754 17.635 18.8956 17.6692Z" fill="#FFA028"/>
<path d="M18.7604 21.4861L18.7321 21.4763C14.7423 20.0884 15.387 13.5094 15.394 13.443L15.4065 13.3242L15.5155 13.3736C15.5343 13.3821 17.3854 14.2031 18.7087 13.2103L18.7604 13.1716L18.8122 13.2103C20.1374 14.2045 21.9868 13.382 22.0053 13.3736L22.1144 13.324L22.1268 13.443C22.1338 13.5094 22.7785 20.0884 18.7887 21.4763L18.7604 21.4861ZM15.5559 13.5773C15.49 14.4561 15.2172 20.0407 18.7604 21.3031C22.305 20.0404 22.0311 14.4559 21.965 13.5773C21.5357 13.7456 19.9817 14.2556 18.7604 13.3864C17.5392 14.2555 15.9854 13.7457 15.5559 13.5773Z" fill="#CDCE0C"/>
<path d="M16.5383 19.3227C17.0223 20.2004 17.7288 20.9355 18.7606 21.3031C19.7926 20.9354 20.4993 20.2003 20.9833 19.3227H16.5383Z" fill="#82AFFF"/>
</g>
<defs>
<clipPath id="clip0_72_328">
<path d="M-0.00146484 2C-0.00146484 0.895432 0.893966 0 1.99854 0H21.9983C23.1029 0 23.9983 0.895431 23.9983 2V21.9998C23.9983 23.1043 23.1029 23.9998 21.9983 23.9998H1.99854C0.893967 23.9998 -0.00146484 23.1043 -0.00146484 21.9998V2Z" fill="white"/>
</clipPath>
</defs>
</svg>
