<svg width="24" height="24" viewBox="0 0 24 24" fill="none" xmlns="http://www.w3.org/2000/svg">
<g clip-path="url(#clip0_72_357)">
<path d="M23.9974 0.00127411H0V23.9987H23.9974V0.00127411Z" fill="#464655"/>
<path d="M11.9987 2.92963L12.6331 6.24385L14.4875 3.42467L13.8053 6.72942L16.5974 4.83447L14.7024 7.62655L18.0072 6.94439L15.188 8.79879L18.5023 9.43319L15.188 10.0676L18.0072 11.922L14.7024 11.2398L16.5974 14.0319L13.8053 12.137L14.4875 15.4418L12.6331 12.6225L11.9987 15.9368L11.3643 12.6225L9.50987 15.4418L10.1921 12.137L7.39996 14.0319L9.29495 11.2398L5.99016 11.922L8.80938 10.0676L5.49512 9.43319L8.80938 8.79879L5.99016 6.94439L9.29495 7.62655L7.39996 4.83447L10.1921 6.72942L9.50987 3.42467L11.3643 6.24385L11.9987 2.92963Z" fill="#FFE15A"/>
<path d="M-0.00341797 23.9987H11.9977L-0.00341797 0.00132751V23.9987Z" fill="#FF4B55"/>
<path d="M11.9976 23.9987H23.9938L23.9962 0.00132751L11.9976 23.9987Z" fill="#FF4B55"/>
<path d="M7.26235 14.526H16.735L19.261 9.47388H4.73633L7.26235 14.526Z" fill="#4173CD"/>
<path d="M7.26245 14.526L11.9987 23.9986L16.7351 14.526H7.26245Z" fill="#F5F5F5"/>
</g>
<defs>
<clipPath id="clip0_72_357">
<path d="M-0.00146484 2C-0.00146484 0.895428 0.893966 0 1.99854 0H21.9984C23.103 0 23.9984 0.895431 23.9984 2V21.9999C23.9984 23.1044 23.103 23.9999 21.9984 23.9999H1.99853C0.893964 23.9999 -0.00146484 23.1044 -0.00146484 21.9999V2Z" fill="white"/>
</clipPath>
</defs>
</svg>
