<svg width="24" height="24" viewBox="0 0 24 24" fill="none" xmlns="http://www.w3.org/2000/svg">
<g clip-path="url(#clip0_72_376)">
<path d="M23.9966 6.10352e-05H-0.00317383V23.9998H23.9966V6.10352e-05Z" fill="#4173CD"/>
<path d="M23.9949 16.4212H-0.00488281V17.6843H23.9949V16.4212Z" fill="#FFE15A"/>
<path d="M23.9949 18.9472H-0.00488281V20.2104H23.9949V18.9472Z" fill="#FFE15A"/>
<path d="M4.66387 6.27216L2.31372 5.46967L4.66387 4.66717L5.46636 2.31731L6.26885 4.66717L8.619 5.46967L6.26885 6.27216L5.46636 8.62203L4.66387 6.27216Z" fill="#FF4B55"/>
<path d="M5.46644 2.73959L6.1614 4.77465L8.19651 5.46961L6.1614 6.16457L5.46644 8.19963L4.77148 6.16457L2.73637 5.46961L4.77148 4.77465L5.46644 2.73959ZM5.46644 1.89477L5.20807 2.65133L4.55642 4.55964L2.64816 5.21129L1.8916 5.46961L2.64816 5.72794L4.55642 6.37959L5.20807 8.2879L5.46644 9.04445L5.72481 8.2879L6.37646 6.37959L8.28473 5.72794L9.04128 5.46961L8.28473 5.21129L6.37646 4.55964L5.72481 2.65133L5.46644 1.89477Z" fill="#F5F5F5"/>
</g>
<defs>
<clipPath id="clip0_72_376">
<path d="M-0.00146484 2C-0.00146484 0.895432 0.893966 0 1.99854 0H21.9983C23.1029 0 23.9983 0.895431 23.9983 2V21.9998C23.9983 23.1043 23.1029 23.9998 21.9983 23.9998H1.99854C0.893967 23.9998 -0.00146484 23.1043 -0.00146484 21.9998V2Z" fill="white"/>
</clipPath>
</defs>
</svg>
