<svg width="24" height="24" viewBox="0 0 24 24" fill="none" xmlns="http://www.w3.org/2000/svg">
<g clip-path="url(#clip0_72_460)">
<path d="M9.80948 6.10352e-05H-0.00463867V23.9998H9.80948V6.10352e-05Z" fill="#F5F5F5"/>
<path d="M4.75684 6.10352e-05L9.8094 1.50005L4.75684 3.00003L9.8094 4.50002L4.75684 6L9.8094 7.49999L4.75684 8.99997L9.8094 10.5L4.75684 11.9999L9.8094 13.4999L4.75684 14.9999L9.8094 16.4999L4.75684 17.9999L9.8094 19.4999L4.75684 20.9999L9.8094 22.4998L4.75684 23.9998H23.9951V6.10352e-05H4.75684Z" fill="#FF4B55"/>
</g>
<defs>
<clipPath id="clip0_72_460">
<path d="M-0.00146484 2C-0.00146484 0.895432 0.893966 0 1.99854 0H21.9983C23.1029 0 23.9983 0.895431 23.9983 2V21.9998C23.9983 23.1043 23.1029 23.9998 21.9983 23.9998H1.99854C0.893967 23.9998 -0.00146484 23.1043 -0.00146484 21.9998V2Z" fill="white"/>
</clipPath>
</defs>
</svg>
