<svg width="24" height="24" viewBox="0 0 24 24" fill="none" xmlns="http://www.w3.org/2000/svg">
<g clip-path="url(#clip0_72_463)">
<path d="M23.9949 0.000106812H-0.00488281V2.66675H23.9949V0.000106812Z" fill="#FFE15A"/>
<path d="M23.9949 2.66681H-0.00488281V5.33345H23.9949V2.66681Z" fill="#FF4B55"/>
<path d="M23.9949 5.33349H-0.00488281V8.00014H23.9949V5.33349Z" fill="#FFE15A"/>
<path d="M23.9949 8.00018H-0.00488281V10.6668H23.9949V8.00018Z" fill="#FF4B55"/>
<path d="M23.9915 10.6668H-0.00830078V13.3334H23.9915V10.6668Z" fill="#FFE15A"/>
<path d="M23.9915 21.333H-0.00830078V23.9997H23.9915V21.333Z" fill="#FFE15A"/>
<path d="M23.9949 13.3331H-0.00488281V15.9997H23.9949V13.3331Z" fill="#FF4B55"/>
<path d="M23.9949 15.9998H-0.00488281V18.6664H23.9949V15.9998Z" fill="#FFE15A"/>
<path d="M23.9949 18.6665H-0.00488281V21.3331H23.9949V18.6665Z" fill="#FF4B55"/>
<path d="M16.0902 11.9999H-0.00488281V6.10352e-05H16.5764V11.5139C16.5764 11.7823 16.3587 11.9999 16.0902 11.9999Z" fill="#64466E"/>
<path d="M14.8538 5.42719H13.5895V3.98229H13.7702V3.62107H13.5895H12.1446H11.964V3.98229H12.1446V5.42719H11.4221V3.98229H11.6027V3.62107H11.4221H9.9772H9.7966V3.98229H9.9772V5.42719H8.89351V3.62107H9.07412V3.25981H7.26795V3.62102H7.44856V5.42719H6.36486V3.98229H6.54547V3.62107H6.36486H4.91996H4.73935V3.98229H4.91996V5.42719H4.19748V3.98229H4.37809V3.62107H4.19748H2.75252H2.57192V3.98229H2.75252V5.42719H1.48822H1.30762V5.78841H1.48822V9.03949H2.75252H4.01682V7.95579C4.01682 7.7563 4.17854 7.59458 4.37804 7.59458C4.57754 7.59458 4.73926 7.75634 4.73926 7.95579V9.03949H4.91986H6.36477H6.54538V7.95579C6.54538 7.7563 6.7071 7.59458 6.90659 7.59458C7.10609 7.59458 7.26781 7.75634 7.26781 7.95579V9.03949H7.44842H7.62902V7.77514C7.62902 7.47589 7.8716 7.23327 8.17089 7.23327C8.47019 7.23327 8.71276 7.47589 8.71276 7.77514V9.03944H8.89337H9.07398V7.95575C9.07398 7.75625 9.2357 7.59453 9.43519 7.59453C9.63469 7.59453 9.79641 7.7563 9.79641 7.95575V9.03944H9.97702H11.4219H11.6025V7.95575C11.6025 7.75625 11.7642 7.59453 11.9637 7.59453C12.1632 7.59453 12.325 7.7563 12.325 7.95575V9.03944H13.5893H14.8536V5.78836H15.0342V5.42715L14.8538 5.42719ZM3.83626 6.8721H3.11379V5.78841C3.11379 5.58891 3.2755 5.42719 3.475 5.42719C3.6745 5.42719 3.83622 5.58896 3.83622 5.78841L3.83626 6.8721ZM6.00365 6.8721H5.28117V5.78841C5.28117 5.58891 5.44289 5.42719 5.64239 5.42719C5.84189 5.42719 6.0036 5.58896 6.0036 5.78841L6.00365 6.8721ZM8.53225 5.78846H7.80977V5.06598C7.80977 4.86648 7.97149 4.70476 8.17099 4.70476C8.37049 4.70476 8.5322 4.86653 8.5322 5.06598L8.53225 5.78846ZM11.0609 6.8721H10.3384V5.78841C10.3384 5.58891 10.5001 5.42719 10.6996 5.42719C10.8991 5.42719 11.0609 5.58896 11.0609 5.78841V6.8721H11.0609ZM13.2283 6.8721H12.5058V5.78841C12.5058 5.58891 12.6675 5.42719 12.867 5.42719C13.0665 5.42719 13.2282 5.58896 13.2282 5.78841V6.8721H13.2283Z" fill="#F5F5F5"/>
</g>
<defs>
<clipPath id="clip0_72_463">
<path d="M-0.00146484 2C-0.00146484 0.895432 0.893966 0 1.99854 0H21.9983C23.1029 0 23.9983 0.895431 23.9983 2V21.9998C23.9983 23.1043 23.1029 23.9998 21.9983 23.9998H1.99854C0.893967 23.9998 -0.00146484 23.1043 -0.00146484 21.9998V2Z" fill="white"/>
</clipPath>
</defs>
</svg>
