<svg width="24" height="24" viewBox="0 0 24 24" fill="none" xmlns="http://www.w3.org/2000/svg">
<g clip-path="url(#clip0_72_484)">
<path d="M24.0017 6.10352e-05H0.00195312V23.9998H24.0017V6.10352e-05Z" fill="#FF4B55"/>
<path d="M24.0017 2.90605L12.0018 10.7634L0.00195312 2.89433V5.37456L10.1144 11.9999L0.00195312 18.6253V21.1051L12.0018 13.2366L24.0017 21.1168V18.6253L13.8893 11.9999L24.0017 5.37456V2.90605Z" fill="#73AF00"/>
<path d="M24.0017 10.9655H13.0363V6.10352e-05H10.9674V10.9655H0.00195312V13.0344H10.9674V23.9998H13.0363V13.0344H24.0017V10.9655Z" fill="#F5F5F5"/>
</g>
<defs>
<clipPath id="clip0_72_484">
<path d="M-0.00146484 2C-0.00146484 0.895432 0.893966 0 1.99854 0H21.9983C23.1029 0 23.9983 0.895431 23.9983 2V21.9998C23.9983 23.1043 23.1029 23.9998 21.9983 23.9998H1.99854C0.893967 23.9998 -0.00146484 23.1043 -0.00146484 21.9998V2Z" fill="white"/>
</clipPath>
</defs>
</svg>
