<svg width="24" height="24" viewBox="0 0 24 24" fill="none" xmlns="http://www.w3.org/2000/svg">
<g clip-path="url(#clip0_72_650)">
<path d="M24.0007 6.10352e-05H0.000976562V23.9998H24.0007V6.10352e-05Z" fill="#FF4B55"/>
<path d="M14.3201 12.2761C14.2194 12.2761 14.1377 12.3577 14.1377 12.4585V19.2065C14.1377 19.7537 14.5025 21.5774 17.9677 22.1246C21.4329 21.5775 21.7977 19.7537 21.7977 19.2065V12.4585C21.7977 12.3577 21.716 12.2761 21.6153 12.2761H14.3201Z" fill="#F5F5F5"/>
<path d="M17.9679 22.1246C20.8606 21.6679 21.5922 20.322 21.7552 19.5713H14.1807C14.3436 20.322 15.0752 21.6679 17.9679 22.1246Z" fill="#73AF00"/>
<path d="M20.3388 16.1061C20.3388 16.1061 20.5212 15.9237 20.3388 15.5589L17.9679 15.4529L15.5969 15.5589C15.4146 15.9237 15.5969 16.1061 15.5969 16.1061C15.4146 16.2885 15.4146 16.4708 15.4146 16.4708H15.7793L16.1745 17.1244L17.9679 18.1123L19.7612 17.1244L20.1564 16.4708H20.5212C20.5212 16.4708 20.5211 16.2885 20.3388 16.1061Z" fill="#82AFFF"/>
<path d="M19.7612 17.1244C19.7612 17.1244 19.6472 16.8736 19.3433 16.904C19.3433 16.904 19.1761 16.6836 18.8949 16.7444C18.8949 16.7444 18.5681 16.5545 18.3782 16.904C18.3782 16.904 17.774 16.8426 17.7417 17.3026C17.7417 17.3026 18.6821 18.7202 18.7049 18.7354C18.7277 18.7506 19.8296 18.743 19.8296 18.743L20.3388 18.1812L19.8372 17.4587L19.7612 17.1244Z" fill="#F5F5F5"/>
<path d="M17.9906 17.5727C17.9906 17.5727 17.1929 16.2695 17.0787 16.1593C16.9685 16.0529 16.752 15.9541 16.5316 16.1365C16.5316 16.1365 15.8705 16.0833 15.9617 16.5848L16.1516 17.3448C16.1516 17.3448 15.9844 17.8691 15.9085 17.9223C15.8325 17.9755 15.5513 18.1199 15.5513 18.1199L15.7108 18.7506L17.8386 18.6442L17.9906 17.5727Z" fill="#F0C850"/>
<path d="M18.9104 17.0028L18.9079 17.0038L18.849 16.865C18.8443 16.8538 18.8352 16.8449 18.8239 16.8404C18.8125 16.8359 18.8 16.8361 18.7886 16.8411L18.3928 17.0156L17.9221 16.2449C17.9429 16.227 17.952 16.1977 17.9422 16.1704C17.9294 16.1347 17.8902 16.1162 17.8547 16.1289L17.7498 16.1664L17.6788 15.9567C17.6707 15.9328 17.645 15.9203 17.621 15.928C17.5972 15.9362 17.5843 15.962 17.5924 15.9859L17.6639 16.1972L17.5517 16.2374C17.5162 16.2502 17.4977 16.2893 17.5104 16.3248C17.5204 16.3528 17.5467 16.3702 17.5748 16.3702C17.5788 16.3702 17.5828 16.3689 17.5868 16.3682L17.742 17.3027L17.6419 17.3468C17.6201 17.3564 17.6093 17.3813 17.6174 17.4038L17.6742 17.5618C17.6755 17.5885 17.6755 17.6333 17.6664 17.6902L17.0298 16.5981C17.0565 16.5814 17.0698 16.5488 17.0588 16.5181C17.046 16.4825 17.0072 16.4638 16.9713 16.4766L16.8664 16.5141L16.7955 16.3044C16.7875 16.2805 16.7615 16.2677 16.7377 16.2757C16.7138 16.2839 16.701 16.3097 16.7091 16.3336L16.7806 16.5449L16.6684 16.5851C16.6329 16.5979 16.6143 16.6371 16.6271 16.6725C16.6361 16.698 16.6594 16.7131 16.6846 16.7158L16.961 18.4405C16.9253 18.4555 16.8903 18.4707 16.851 18.4847C16.851 18.4847 16.7218 19.1002 16.8206 19.1306C16.9195 19.161 17.9377 19.4725 17.9377 19.4725C17.9377 19.4725 19.3436 18.8038 19.3739 18.7886C19.4043 18.7734 19.4651 18.3326 19.4651 18.3326L18.9104 17.0028ZM18.8241 17.0398L18.7064 17.0904L18.6674 16.9942L18.7831 16.9431L18.8241 17.0398ZM18.1126 17.2388L18.2093 17.1962L18.2465 17.2879L18.1441 17.3319L18.1126 17.2388ZM18.06 17.3679L17.9455 17.4171L17.9095 17.3284L18.0288 17.2758L18.06 17.3679ZM18.3303 17.2519L18.2928 17.1594L18.3961 17.1138L18.4341 17.2073L18.3303 17.2519ZM18.4795 17.077L18.5841 17.0309L18.6227 17.1263L18.5178 17.1713L18.4795 17.077ZM17.8371 16.2806L18.3087 17.0527L18.0833 17.1521L17.7937 16.2962L17.8371 16.2806ZM17.6744 16.3389L17.7078 16.3269L17.9995 17.189L17.8281 17.2646L17.6744 16.3389ZM17.8262 17.3651L17.8619 17.453L17.7493 17.5014L17.7176 17.413L17.8262 17.3651ZM16.9439 16.6318L17.6345 17.8165C17.5997 17.917 17.5342 18.0336 17.4192 18.1481L16.9103 16.6439L16.9439 16.6318ZM16.7734 16.6928L16.8244 16.6746L17.3456 18.2152C17.2666 18.2808 17.1683 18.3441 17.0473 18.4021L16.7734 16.6928Z" fill="#965032"/>
<path d="M20.5039 15.2825C20.4554 15.2056 20.3 15.2385 20.3 15.2385C20.3 15.2385 20.2557 15.1498 20.1384 15.1412C20.0211 15.1326 19.9996 15.2371 19.9996 15.2371C19.9996 15.2371 19.9777 15.2207 19.8485 15.2245C19.7193 15.2283 19.7459 15.4411 19.7459 15.4411C19.7459 15.4411 19.6965 15.4411 19.5293 15.3879C19.3621 15.3347 19.252 15.3727 19.252 15.3727C19.2444 15.2853 19.1988 15.2207 19.1988 15.2207C19.0582 15.2777 18.948 15.2131 18.9214 15.1637C18.8948 15.1144 18.9632 15.0384 18.9632 14.9738C18.9632 14.9092 18.8739 14.912 18.8426 14.855C18.8112 14.798 18.8426 14.7667 18.9252 14.7296C19.0079 14.6926 19.0848 14.5558 19.0335 14.4447C18.9822 14.3335 18.834 14.3535 18.834 14.3535C18.8853 14.362 18.928 14.4589 18.8454 14.4789C18.7628 14.4989 18.6886 14.1968 18.6886 14.1968C18.8796 14.325 19.0192 14.248 19.0591 14.1369C19.099 14.0258 18.9936 13.9488 18.9936 13.9488C18.9109 14.0828 18.7684 13.966 18.8454 13.8805C18.9223 13.795 18.929 13.6515 18.929 13.6515C18.758 13.7351 18.6516 13.6287 18.6516 13.6287C18.8758 13.473 18.8112 13.2526 18.8112 13.2526C18.7276 13.2146 18.549 13.245 18.549 13.245C18.587 13.169 18.5794 13.0322 18.5794 13.0322C18.4844 13.017 18.3781 13.0778 18.3781 13.0778C18.4085 12.9714 18.3667 12.7852 18.3667 12.7852C18.2983 12.7966 18.1691 12.8346 18.1691 12.8346C18.1159 12.713 17.9677 12.6409 17.9677 12.6409C17.9677 12.6409 17.8195 12.713 17.7663 12.8346C17.7663 12.8346 17.6372 12.7966 17.5688 12.7852C17.5688 12.7852 17.527 12.9714 17.5574 13.0778C17.5574 13.0778 17.451 13.017 17.356 13.0322C17.356 13.0322 17.3484 13.169 17.3864 13.245C17.3864 13.245 17.2078 13.2146 17.1243 13.2526C17.1243 13.2526 17.0597 13.473 17.2838 13.6287C17.2838 13.6287 17.1774 13.7351 17.0065 13.6515C17.0065 13.6515 17.0131 13.795 17.09 13.8805C17.167 13.966 17.0245 14.0828 16.9419 13.9488C16.9419 13.9488 16.8364 14.0258 16.8763 14.1369C16.9162 14.248 17.0559 14.325 17.2468 14.1968C17.2468 14.1968 17.1727 14.4988 17.09 14.4789C17.0074 14.4589 17.0501 14.362 17.1014 14.3535C17.1014 14.3535 16.9533 14.3335 16.9019 14.4447C16.8506 14.5558 16.9276 14.6926 17.0102 14.7296C17.0928 14.7667 17.1242 14.798 17.0928 14.855C17.0615 14.912 16.9722 14.9092 16.9722 14.9738C16.9722 15.0384 17.0406 15.1143 17.014 15.1637C16.9874 15.2131 16.8772 15.2777 16.7366 15.2207C16.7366 15.2207 16.691 15.2853 16.6834 15.3727C16.6834 15.3727 16.5732 15.3347 16.406 15.3879C16.2388 15.4411 16.1895 15.4411 16.1895 15.4411C16.1895 15.4411 16.2161 15.2283 16.0869 15.2245C15.9577 15.2207 15.9358 15.2371 15.9358 15.2371C15.9358 15.2371 15.9143 15.1326 15.797 15.1412C15.6797 15.1498 15.6354 15.2385 15.6354 15.2385C15.6354 15.2385 15.4799 15.2056 15.4315 15.2825C15.3831 15.3594 15.3773 15.4763 15.4685 15.5247C15.5597 15.5731 15.8019 15.7755 15.8019 15.7755L16.1439 15.9237L17.3408 15.3937L17.9677 15.5589L18.5947 15.3937L19.7915 15.9237L20.1335 15.7755C20.1335 15.7755 20.3757 15.5732 20.4669 15.5248C20.558 15.4763 20.5523 15.3594 20.5039 15.2825Z" fill="#FF4B55"/>
<path d="M17.5947 13.3511C17.5947 13.3511 17.6076 13.512 17.8458 13.4691C17.8458 13.4691 17.8393 13.3017 17.5947 13.3511Z" fill="#F5F5F5"/>
<path d="M16.7134 19.7081C16.7134 19.7081 16.5424 19.7024 16.3657 19.8335C16.189 19.9646 16.1111 19.8715 15.9345 19.8715C15.7578 19.8715 15.716 20.0558 15.716 20.0558C15.716 20.0558 15.374 20.1413 15.5108 20.392C15.5973 20.5507 15.7177 20.5473 15.7947 20.5235C15.7908 20.63 15.8151 20.7472 15.9383 20.7682C16.1719 20.8081 16.2745 20.6827 16.2232 20.4889C16.2232 20.4889 16.2517 20.6884 16.4056 20.6827C16.5595 20.677 16.662 20.5915 16.645 20.3863C16.6279 20.1811 16.9014 20.3065 17.1123 20.0045L16.7134 19.7081Z" fill="#FF4B55"/>
<path d="M15.7117 20.4415C15.7117 20.4415 15.6053 20.582 15.6357 20.7188C15.6357 20.7188 15.4078 20.6466 15.5293 20.3085C15.5293 20.3085 15.6851 20.2667 15.7117 20.4415Z" fill="#82AFFF"/>
<path d="M16.0696 20.6257C16.0696 20.6257 16.007 20.8024 16.0924 20.9591C16.0924 20.9591 15.8075 20.9506 15.8645 20.6001C15.8645 20.6001 15.9556 20.5061 16.0696 20.6257Z" fill="#82AFFF"/>
<path d="M16.3545 20.6086C16.3545 20.6086 16.4058 20.7568 16.3545 20.8993C16.3545 20.8993 16.5882 20.885 16.5483 20.5488C16.5483 20.5488 16.4229 20.5032 16.3545 20.6086Z" fill="#82AFFF"/>
<path d="M16.1482 17.2003C16.1266 17.0246 15.0254 16.9211 15.0938 17.8463C15.0938 17.8463 14.9716 17.844 14.9115 17.9577C14.8514 18.0714 14.7227 18.0436 14.6841 18.0028C14.6841 18.0028 14.6927 18.2087 14.948 18.2002C14.948 18.2002 14.8672 18.2638 14.8786 18.3568C14.89 18.4498 14.9573 18.5671 14.953 18.6472C14.9487 18.7273 14.8729 18.8389 14.8729 18.8389C14.8729 18.8389 15.0689 18.7717 15.0817 18.6315C15.0946 18.4913 15.0631 18.374 15.1017 18.3024C15.1017 18.3024 15.0831 18.4012 15.1704 18.5256C15.2576 18.6501 15.262 18.8017 15.2262 18.8961C15.2262 18.8961 15.4436 18.7888 15.4021 18.5814C15.3606 18.374 15.3163 18.3926 15.3363 18.2767C15.3363 18.2767 15.5623 18.507 15.5237 18.703C15.5237 18.703 15.5959 18.6165 15.5895 18.4534C15.5831 18.2903 15.4699 18.1806 15.4699 18.1806C15.4699 18.1806 16.2223 17.8045 16.1482 17.2003Z" fill="#FF4B55"/>
<path d="M19.2212 19.7081C19.2212 19.7081 19.3922 19.7024 19.5689 19.8335C19.7456 19.9646 19.8235 19.8715 20.0001 19.8715C20.1768 19.8715 20.2186 20.0557 20.2186 20.0557C20.2186 20.0557 20.5606 20.1412 20.4238 20.392C20.3373 20.5506 20.2169 20.5473 20.1399 20.5235C20.1438 20.63 20.1195 20.7471 19.9963 20.7682C19.7627 20.8081 19.6601 20.6827 19.7114 20.4889C19.7114 20.4889 19.6829 20.6884 19.529 20.6827C19.3751 20.677 19.2725 20.5915 19.2896 20.3863C19.3067 20.1811 19.0332 20.3065 18.8223 20.0045L19.2212 19.7081Z" fill="#FF4B55"/>
<path d="M20.2207 20.4415C20.2207 20.4415 20.3271 20.582 20.2967 20.7188C20.2967 20.7188 20.5246 20.6466 20.4031 20.3085C20.4031 20.3085 20.2473 20.2667 20.2207 20.4415Z" fill="#82AFFF"/>
<path d="M19.8626 20.6257C19.8626 20.6257 19.9253 20.8024 19.8398 20.9591C19.8398 20.9591 20.1248 20.9506 20.0678 20.6001C20.0678 20.6001 19.9766 20.5061 19.8626 20.6257Z" fill="#82AFFF"/>
<path d="M19.5778 20.6086C19.5778 20.6086 19.5265 20.7568 19.5778 20.8993C19.5778 20.8993 19.3441 20.885 19.384 20.5488C19.384 20.5488 19.5094 20.5032 19.5778 20.6086Z" fill="#82AFFF"/>
<path d="M19.7869 17.2003C19.8084 17.0246 20.9097 16.9211 20.8413 17.8463C20.8413 17.8463 20.9634 17.844 21.0235 17.9577C21.0836 18.0715 21.2123 18.0436 21.251 18.0028C21.251 18.0028 21.2424 18.2088 20.9871 18.2002C20.9871 18.2002 21.0679 18.2638 21.0564 18.3568C21.045 18.4498 20.9778 18.5671 20.982 18.6472C20.9863 18.7273 21.0621 18.8389 21.0621 18.8389C21.0621 18.8389 20.8662 18.7717 20.8533 18.6315C20.8404 18.4913 20.8719 18.374 20.8333 18.3025C20.8333 18.3025 20.8519 18.4012 20.7646 18.5256C20.6774 18.6501 20.6731 18.8017 20.7089 18.8961C20.7089 18.8961 20.4914 18.7888 20.5329 18.5814C20.5744 18.374 20.6188 18.3926 20.5987 18.2767C20.5987 18.2767 20.3727 18.507 20.4113 18.703C20.4113 18.703 20.3391 18.6165 20.3455 18.4534C20.3519 18.2903 20.4651 18.1806 20.4651 18.1806C20.4651 18.1806 19.7128 17.8045 19.7869 17.2003Z" fill="#FF4B55"/>
<path d="M20.2371 15.6234C20.1952 15.5953 20.1386 15.607 20.1107 15.6492C20.053 15.7363 19.977 15.7873 19.8785 15.8049C19.5522 15.8615 19.0817 15.5402 18.9451 15.4398C18.7471 15.2942 18.5025 15.269 18.3401 15.369C18.2753 15.3904 18.0772 15.4529 17.9679 15.4529C17.8585 15.4529 17.6605 15.3904 17.5956 15.369C17.4333 15.269 17.1886 15.2942 16.9906 15.4398C16.854 15.5402 16.3835 15.8615 16.0572 15.8049C15.9587 15.7873 15.8827 15.7363 15.825 15.6492C15.7971 15.607 15.7405 15.5953 15.6986 15.6234C15.6566 15.6512 15.6451 15.7078 15.6729 15.7497C15.7584 15.879 15.8769 15.9579 16.0253 15.9844C16.0628 15.9912 16.1011 15.9942 16.1401 15.9942C16.4881 15.9942 16.8819 15.7459 17.0986 15.5869C17.2597 15.4686 17.4403 15.4688 17.5216 15.5374C17.5421 15.5548 17.5655 15.5822 17.5599 15.6145C17.5568 15.6321 17.5452 15.648 17.5259 15.6613C17.5306 15.6333 17.5221 15.6036 17.5006 15.5819C17.4649 15.5462 17.4072 15.5462 17.3716 15.5819C17.3252 15.628 17.3201 15.703 17.3592 15.7639C17.3985 15.825 17.4831 15.8697 17.5837 15.8325C17.6348 15.8134 17.6756 15.777 17.7039 15.7325C17.8424 15.6922 17.9679 15.6919 17.9679 15.6919C17.9679 15.6919 18.0934 15.6922 18.2319 15.7325C18.2602 15.777 18.3011 15.8134 18.3521 15.8325C18.4527 15.8697 18.5373 15.825 18.5766 15.7639C18.6157 15.703 18.6106 15.628 18.5642 15.5819C18.5286 15.5462 18.4709 15.5462 18.4352 15.5819C18.4137 15.6036 18.4052 15.6333 18.4099 15.6613C18.3906 15.648 18.379 15.6321 18.3759 15.6145C18.3703 15.5822 18.3937 15.5548 18.4142 15.5374C18.4956 15.4688 18.6761 15.4686 18.8372 15.5869C19.0539 15.7459 19.4477 15.9942 19.7957 15.9942C19.8347 15.9942 19.873 15.9912 19.9105 15.9844C20.0589 15.9579 20.1774 15.879 20.2629 15.7497C20.2906 15.7078 20.2791 15.6512 20.2371 15.6234Z" fill="#FFE15A"/>
<path d="M15.6411 15.7242C15.6411 15.7242 15.6261 15.5203 15.6196 15.4538C15.6132 15.3873 15.4887 15.3379 15.4415 15.4045C15.3943 15.471 15.3814 15.5933 15.6411 15.7242Z" fill="#82AFFF"/>
<path d="M15.6852 15.6587C15.6852 15.6587 15.8647 15.5134 15.8419 15.4365C15.8192 15.3595 15.7707 15.3196 15.7108 15.3424C15.651 15.3653 15.6225 15.5049 15.6852 15.6587Z" fill="#82AFFF"/>
<path d="M16.0357 15.5448C16.0615 15.5189 16.0699 15.3937 15.9987 15.3795C15.9274 15.3652 15.8334 15.4764 15.8391 15.6131C15.8391 15.6131 15.9872 15.5932 16.0357 15.5448Z" fill="#82AFFF"/>
<path d="M15.9617 15.616C15.879 15.6424 15.7993 15.7129 15.7993 15.7129C15.7993 15.7129 15.9475 15.8212 16.0501 15.787C16.1527 15.7528 16.1042 15.5704 15.9617 15.616Z" fill="#82AFFF"/>
<path d="M18.3414 13.3511C18.3414 13.3511 18.3285 13.512 18.0903 13.4691C18.0903 13.4691 18.0968 13.3017 18.3414 13.3511Z" fill="#F5F5F5"/>
<path d="M20.293 15.7242C20.293 15.7242 20.308 15.5203 20.3144 15.4538C20.3209 15.3873 20.4453 15.3379 20.4925 15.4045C20.5397 15.471 20.5526 15.5933 20.293 15.7242Z" fill="#82AFFF"/>
<path d="M20.2491 15.6587C20.2491 15.6587 20.0695 15.5134 20.0923 15.4365C20.1151 15.3595 20.1636 15.3196 20.2234 15.3424C20.2833 15.3653 20.3118 15.5049 20.2491 15.6587Z" fill="#82AFFF"/>
<path d="M19.8986 15.5448C19.8728 15.5189 19.8644 15.3937 19.9356 15.3795C20.0069 15.3652 20.1009 15.4764 20.0952 15.6131C20.0952 15.6131 19.947 15.5932 19.8986 15.5448Z" fill="#82AFFF"/>
<path d="M19.9727 15.616C20.0554 15.6424 20.1351 15.7129 20.1351 15.7129C20.1351 15.7129 19.9869 15.8212 19.8843 15.787C19.7817 15.7528 19.8302 15.5704 19.9727 15.616Z" fill="#82AFFF"/>
<path d="M17.8744 13.7303L17.9467 13.8026C17.9589 13.8147 17.9786 13.8147 17.9907 13.8026L18.0631 13.7303C18.0827 13.7107 18.0688 13.6772 18.0411 13.6772H17.8964C17.8687 13.6772 17.8548 13.7107 17.8744 13.7303Z" fill="#464655"/>
<path d="M17.8366 14.0268C17.783 14.0268 17.7366 14.0076 17.7051 13.9721C17.6725 13.9353 17.6586 13.8845 17.6669 13.8329C17.6699 13.8156 17.6872 13.8051 17.7035 13.8065C17.7209 13.8094 17.7327 13.8258 17.7299 13.8432C17.7247 13.8758 17.733 13.9074 17.7529 13.9298C17.7734 13.9528 17.8047 13.9635 17.8431 13.963C17.9233 13.9598 17.9367 13.8814 17.9372 13.8782L17.9368 13.7351C17.9368 13.7175 17.9511 13.7033 17.9687 13.7033C17.9863 13.7033 18.0006 13.7175 18.0006 13.7351V13.8831C17.9929 13.9343 17.9511 14.0224 17.8455 14.0267C17.8426 14.0268 17.8396 14.0268 17.8366 14.0268Z" fill="#464655"/>
<path d="M18.1011 14.0268C18.0981 14.0268 18.0951 14.0268 18.0921 14.0267C17.9866 14.0224 17.9448 13.9342 17.9374 13.8881L17.937 13.7351C17.937 13.7175 17.9513 13.7032 17.9689 13.7032C17.9865 13.7032 18.0008 13.7175 18.0008 13.7351V13.8831C18.0018 13.8863 18.0168 13.9599 18.0945 13.9629C18.1341 13.9636 18.1642 13.9531 18.1847 13.9297C18.2046 13.9073 18.2129 13.8758 18.2077 13.8431C18.2049 13.8257 18.2167 13.8093 18.2341 13.8064C18.2507 13.8043 18.2679 13.8154 18.2707 13.8328C18.279 13.8844 18.2651 13.9352 18.2325 13.9721C18.2011 14.0076 18.1547 14.0268 18.1011 14.0268Z" fill="#464655"/>
<path d="M19.0662 18.6593C19.0662 18.6593 18.8382 18.2945 18.5722 18.5377C18.3062 18.7809 18.2074 19.0772 17.9035 19.0545C17.7367 19.0419 17.6515 18.9658 17.6073 18.8992C17.688 18.8327 17.7453 18.7317 17.6831 18.5833C17.5464 18.2565 17.0448 18.3553 16.908 18.7125C16.908 18.7125 17.0676 18.1881 16.5129 18.3629C16.5129 18.3629 16.4445 17.9981 16.1253 18.097C15.9518 18.1507 15.8876 18.2575 15.8637 18.3445C15.7966 18.3289 15.7103 18.3294 15.6313 18.3933L16.0341 19.48L16.642 19.4876L16.7788 19.6927L17.5767 20.1943L17.7211 20.4983H18.2226C18.2226 20.4983 18.2606 20.1868 18.5266 20.0955C18.7926 20.0044 19.2257 19.8143 19.2713 19.6472C19.3169 19.48 19.3169 19.48 19.3169 19.48L19.8033 19.4876C19.8565 19.4496 20.2136 18.8645 20.2136 18.8645L20.3794 18.1109C20.288 18.0976 19.2406 17.9617 19.0662 18.6593Z" fill="#F5F5F5"/>
<path d="M20.3808 18.1046L20.3794 18.1109C20.3836 18.1115 20.3884 18.1122 20.3884 18.1122L20.3808 18.1046Z" fill="#F5F5F5"/>
<path d="M17.0665 19.8246C16.8695 19.7451 16.7991 19.6339 16.7748 19.5745C16.7521 19.5197 16.7566 19.4808 16.7628 19.4666C16.7754 19.4375 16.7906 19.419 16.8047 19.4155C16.8181 19.4123 16.835 19.4199 16.8381 19.4219C16.8445 19.4292 16.8479 19.4524 16.8417 19.458C16.805 19.4926 16.8033 19.5503 16.8378 19.587C16.8724 19.6237 16.9299 19.6253 16.9667 19.5909C17.0042 19.5557 17.0257 19.5063 17.0272 19.452C17.0289 19.3938 17.0076 19.3357 16.9704 19.2965C16.9331 19.2569 16.8564 19.221 16.7746 19.2356C16.7578 19.2386 16.7388 19.2455 16.7194 19.2548C16.7322 19.1285 16.6835 19.0638 16.6478 19.0377C16.5877 18.9941 16.5021 18.993 16.4301 19.0352C16.3565 19.0785 16.3167 19.1542 16.3264 19.2326C16.3326 19.2826 16.3828 19.3125 16.4317 19.3058C16.4817 19.2997 16.521 19.2481 16.5148 19.1982C16.5251 19.1888 16.5388 19.1855 16.5384 19.1834C16.5385 19.1836 16.5505 19.2035 16.5361 19.2679C16.5134 19.3687 16.46 19.4307 16.3775 19.4524C16.2749 19.4807 16.1433 19.4374 16.0656 19.3521C15.9575 19.2331 15.7312 18.6017 15.5966 18.1812C16.1734 17.9077 16.2443 17.4531 16.2334 17.1998C16.2167 16.8141 15.9859 16.4194 15.7293 16.338C15.6283 16.3061 15.477 16.2995 15.3671 16.3562C15.305 16.3886 15.2618 16.4383 15.2424 16.5001C15.2028 16.6262 15.2821 16.7304 15.3769 16.7644C15.4751 16.7997 15.5743 16.7573 15.6124 16.6635C15.6313 16.6168 15.6107 16.5634 15.564 16.5445C15.5171 16.5251 15.4661 16.5479 15.4472 16.5944C15.4433 16.5965 15.4307 16.5917 15.4212 16.581C15.4144 16.5732 15.4129 16.5655 15.4164 16.555C15.4194 16.5454 15.4263 16.5311 15.4514 16.5181C15.511 16.4869 15.6106 16.4918 15.6742 16.5119C15.821 16.5584 16.0355 16.8456 16.0511 17.2077C16.0605 17.4241 15.9947 17.8207 15.4502 18.0468C15.4066 18.065 15.384 18.1132 15.3981 18.1583C15.4337 18.2721 15.7509 19.2771 15.9306 19.4747C16.0272 19.581 16.1733 19.6428 16.313 19.6428C16.3508 19.6428 16.3882 19.6384 16.424 19.6289C16.4849 19.6128 16.5358 19.5814 16.58 19.5419C16.5844 19.5754 16.5921 19.6096 16.6062 19.6439C16.6415 19.7297 16.7393 19.8893 17.0123 19.9994C17.5646 20.221 17.6171 20.3691 17.614 20.4228C17.6123 20.4521 17.5955 20.4675 17.5818 20.4751C17.5758 20.4785 17.5699 20.4806 17.5649 20.4819C17.5852 20.4539 17.5889 20.4156 17.5709 20.3834C17.5463 20.3394 17.4909 20.3237 17.4469 20.3483C17.3848 20.383 17.3415 20.4648 17.3787 20.5541C17.4076 20.6236 17.4753 20.6657 17.5536 20.6657C17.5661 20.6657 17.5789 20.6646 17.592 20.6623C17.7055 20.6431 17.7894 20.5488 17.796 20.4333C17.812 20.1564 17.3951 19.9564 17.0665 19.8246Z" fill="#FFE15A"/>
<path d="M18.8686 19.8246C19.0656 19.7451 19.136 19.6339 19.1603 19.5745C19.183 19.5197 19.1785 19.4808 19.1724 19.4666C19.1598 19.4375 19.1446 19.419 19.1304 19.4155C19.1171 19.4123 19.1001 19.4199 19.0971 19.4219C19.0907 19.4292 19.0873 19.4524 19.0934 19.458C19.1301 19.4926 19.1318 19.5503 19.0974 19.587C19.0627 19.6237 19.0052 19.6253 18.9684 19.5909C18.9309 19.5557 18.9095 19.5063 18.908 19.452C18.9063 19.3938 18.9275 19.3357 18.9648 19.2965C19.0021 19.2569 19.0788 19.221 19.1605 19.2356C19.1773 19.2386 19.1963 19.2455 19.2157 19.2548C19.2029 19.1285 19.2516 19.0638 19.2874 19.0377C19.3475 18.9941 19.4331 18.993 19.505 19.0352C19.5787 19.0785 19.6185 19.1542 19.6088 19.2326C19.6025 19.2826 19.5523 19.3125 19.5034 19.3058C19.4535 19.2997 19.4142 19.2481 19.4203 19.1982C19.41 19.1888 19.3964 19.1855 19.3968 19.1834C19.3966 19.1836 19.3846 19.2035 19.3991 19.2679C19.4218 19.3687 19.4751 19.4307 19.5576 19.4524C19.6603 19.4807 19.7918 19.4374 19.8696 19.3521C19.9777 19.2331 20.204 18.6017 20.3385 18.1812C19.7617 17.9077 19.6909 17.4531 19.7018 17.1998C19.7184 16.8141 19.9493 16.4194 20.2059 16.338C20.3069 16.3061 20.4582 16.2995 20.568 16.3562C20.6302 16.3886 20.6733 16.4383 20.6928 16.5001C20.7324 16.6262 20.6531 16.7304 20.5582 16.7644C20.46 16.7997 20.3609 16.7573 20.3228 16.6635C20.3039 16.6168 20.3245 16.5634 20.3711 16.5445C20.4181 16.5251 20.4691 16.5479 20.488 16.5944C20.4918 16.5965 20.5045 16.5917 20.5139 16.581C20.5208 16.5732 20.5222 16.5655 20.5188 16.555C20.5158 16.5454 20.5089 16.5311 20.4838 16.5181C20.4242 16.4869 20.3245 16.4918 20.261 16.5119C20.1141 16.5584 19.8997 16.8456 19.884 17.2077C19.8747 17.4241 19.9404 17.8207 20.485 18.0468C20.5286 18.065 20.5511 18.1132 20.537 18.1583C20.5015 18.2721 20.1843 19.2771 20.0046 19.4747C19.908 19.581 19.7618 19.6428 19.6222 19.6428C19.5844 19.6428 19.5469 19.6384 19.5111 19.6289C19.4502 19.6128 19.3993 19.5814 19.3551 19.5419C19.3507 19.5754 19.343 19.6096 19.3289 19.6439C19.2937 19.7297 19.1959 19.8893 18.9229 19.9994C18.3705 20.221 18.3181 20.3691 18.3211 20.4228C18.3228 20.4521 18.3396 20.4675 18.3534 20.4751C18.3593 20.4785 18.3652 20.4806 18.3703 20.4819C18.3499 20.4539 18.3463 20.4156 18.3643 20.3834C18.3888 20.3394 18.4442 20.3237 18.4883 20.3483C18.5503 20.383 18.5936 20.4648 18.5565 20.5541C18.5276 20.6236 18.4599 20.6657 18.3816 20.6657C18.369 20.6657 18.3562 20.6646 18.3432 20.6623C18.2297 20.6431 18.1458 20.5488 18.1391 20.4333C18.1231 20.1564 18.5401 19.9564 18.8686 19.8246Z" fill="#FFE15A"/>
<path d="M4.42541 0.00012207H0.00439453V0.936535L4.42541 3.83305V0.00012207Z" fill="#41479B"/>
<path d="M0.00439453 3.20161V4.42115H1.86578L0.00439453 3.20161Z" fill="#41479B"/>
<path d="M0.00439453 7.57899V8.79852L1.86578 7.57899H0.00439453Z" fill="#41479B"/>
<path d="M12.004 0.936535V0.00012207H7.58301V3.83305L12.004 0.936535Z" fill="#41479B"/>
<path d="M12.004 8.79852V7.57899H10.1426L12.004 8.79852Z" fill="#41479B"/>
<path d="M7.58301 8.16707V12H12.004V11.0636L7.58301 8.16707Z" fill="#41479B"/>
<path d="M12.004 4.42115V3.20161L10.1426 4.42115H12.004Z" fill="#41479B"/>
<path d="M0.00439453 11.0636V12H4.42541V8.16707L0.00439453 11.0636Z" fill="#41479B"/>
<path d="M12.0042 11.0636V10.1278L8.07763 7.57898H9.23768L12.0042 9.37479V8.79852L10.1428 7.57898H12.0042V6.9474H6.95166V12H7.5832V8.16707L12.0042 11.0636Z" fill="#F5F5F5"/>
<path d="M0.00439453 6.9474V7.57898H1.86578L0.00439453 8.79852V9.68449L3.24802 7.57898H4.40802L0.00439453 10.4375V11.0636L4.42541 8.16707V12H5.057V6.9474H0.00439453Z" fill="#F5F5F5"/>
<path d="M5.057 0.00012207H4.42541V3.83305L0.00439453 0.936535V1.96131L3.79383 4.42114H2.63378L0.00439453 2.71435V3.20161L1.86578 4.42114H0.00439453V5.05273H5.057V0.00012207Z" fill="#F5F5F5"/>
<path d="M12.0042 5.05273V4.42114H10.1428L12.0042 3.20161V2.30433L8.74325 4.42114H7.5832L12.0042 1.55134V0.936535L7.5832 3.83305V0.00012207H6.95166V5.05273H12.0042Z" fill="#F5F5F5"/>
<path d="M12.0043 6.9474V5.05273H6.95172V0.00012207H5.057V5.05273H0.00439453V6.9474H5.057V12H6.95172V6.9474H12.0043Z" fill="#FF4B55"/>
<path d="M3.24802 7.57899L0.00439453 9.6845V10.4375L4.40802 7.57899H3.24802Z" fill="#FF4B55"/>
<path d="M8.07764 7.57899L12.0042 10.1278V9.3748L9.23769 7.57899H8.07764Z" fill="#FF4B55"/>
<path d="M3.79383 4.42115L0.00439453 1.96131V2.71435L2.63378 4.42115H3.79383Z" fill="#FF4B55"/>
<path d="M8.74306 4.42114L12.004 2.30433V1.55134L7.58301 4.42114H8.74306Z" fill="#FF4B55"/>
</g>
<defs>
<clipPath id="clip0_72_650">
<path d="M-0.00146484 2C-0.00146484 0.895432 0.893966 0 1.99854 0H21.9983C23.1029 0 23.9983 0.895431 23.9983 2V21.9998C23.9983 23.1043 23.1029 23.9998 21.9983 23.9998H1.99854C0.893967 23.9998 -0.00146484 23.1043 -0.00146484 21.9998V2Z" fill="white"/>
</clipPath>
</defs>
</svg>
