<svg width="24" height="24" viewBox="0 0 24 24" fill="none" xmlns="http://www.w3.org/2000/svg">
<g clip-path="url(#clip0_72_715)">
<path d="M24.0007 6.10352e-05H0.000976562V23.9998H24.0007V6.10352e-05Z" fill="#FF6E55"/>
<path d="M0.000976562 23.9998L24.0007 6.10352e-05H0.169069C0.0762571 6.10352e-05 0.000976562 0.114951 0.000976562 0.256652V23.9998Z" fill="#FFE15A"/>
<path d="M13.8256 6.42127C13.5083 6.48929 13.0097 6.31927 13.0097 6.31927C13.1124 6.49618 13.3871 6.61529 13.6349 6.69033C13.4348 6.7103 13.2066 6.7216 12.953 6.71597C11.933 6.69329 11.457 7.36195 11.457 7.36195C11.8197 7.13527 12.1937 7.13527 12.749 7.21458C13.3043 7.29389 14.4829 6.94257 14.4829 6.94257L14.5849 6.48924C14.5849 6.48924 14.1429 6.35326 13.8256 6.42127Z" fill="#FFF5DC"/>
<path d="M14.874 4.29631C14.874 4.29631 15.4014 4.40806 15.9367 4.71518C15.9045 4.7321 15.8737 4.75277 15.8443 4.77701C15.6713 4.69099 15.4624 4.62143 15.1913 4.59378C15.1913 4.59378 15.4719 4.66667 15.7414 4.87784C15.6715 4.96005 15.6141 5.05352 15.5698 5.13668C14.9769 4.50092 14.3357 4.92523 14.3357 4.92523C15.1311 4.86471 15.3187 5.37583 15.3635 5.62263C15.2095 5.51969 15.0643 5.43485 14.9282 5.36575C14.9482 5.3508 14.9583 5.33735 14.9817 5.32193C14.9817 5.32193 14.9318 5.32394 14.8628 5.33421C13.8477 4.84634 13.3497 5.23122 13.3497 5.23122C13.8005 5.1761 14.217 5.29338 14.5477 5.43925C14.4023 5.52288 14.304 5.67016 14.3852 5.92061C13.8159 5.76569 13.1004 5.61311 12.749 5.70719C12.1143 5.8772 12.3183 6.46651 12.3183 6.46651C12.3183 6.46651 12.3297 6.06986 12.7603 5.97915C13.0827 5.91128 14.687 6.42113 14.687 6.42113L15.2083 6.17185L14.993 5.9905C14.993 5.9905 14.5791 5.82442 14.7566 5.53895C15.0533 5.69711 15.2423 5.85451 15.2423 5.85451L15.3698 5.66809C15.376 5.71628 15.3783 5.75252 15.3783 5.75252L15.7409 5.59389L15.8202 5.48055C15.852 5.30847 15.9046 5.18622 15.965 5.09468C16.0699 5.22649 16.1567 5.38938 16.1999 5.59103L16.5286 5.62502C16.5286 5.62502 16.4752 5.2451 16.1075 4.94299C16.1401 4.91974 16.1723 4.90062 16.2041 4.88773C16.4463 5.06149 16.6721 5.27885 16.8289 5.55138L17.4353 5.54289C17.4353 5.54299 16.438 4.43229 14.874 4.29631Z" fill="#FFF5DC"/>
<path d="M21.2709 9.17427C21.7582 9.93912 20.9472 10.7501 20.1823 10.2628C20.1283 10.2284 20.082 10.1822 20.0476 10.1281C19.5603 9.36326 20.3713 8.55229 21.1362 9.03955C21.1902 9.074 21.2365 9.12027 21.2709 9.17427Z" fill="#FFF5DC"/>
<path d="M19.7036 15.3967C20.3662 16.4264 19.2709 17.5217 18.2413 16.8591C18.1727 16.815 18.114 16.7563 18.0699 16.6877C17.4073 15.6581 18.5026 14.5628 19.5323 15.2254C19.6008 15.2695 19.6595 15.3281 19.7036 15.3967Z" fill="#FFF5DC"/>
<path d="M11.7717 15.0414C12.2898 15.8546 11.4275 16.7169 10.6143 16.1988C10.5568 16.1622 10.5076 16.113 10.471 16.0555C9.95285 15.2423 10.8152 14.38 11.6284 14.8981C11.6859 14.9347 11.7351 14.9839 11.7717 15.0414Z" fill="#FFF5DC"/>
<path d="M10.0154 18.7977C10.6136 19.7365 9.61813 20.7321 8.67918 20.1339C8.61286 20.0917 8.55609 20.0349 8.51381 19.9685C7.91564 19.0296 8.91112 18.0341 9.85006 18.6323C9.91639 18.6746 9.9732 18.7313 10.0154 18.7977Z" fill="#FFF5DC"/>
<path d="M18.1435 7.66795C18.1435 7.66795 19.8893 8.29011 20.3109 8.50091C20.9059 8.79842 21.8408 7.93143 22.4954 8.60291C22.4954 8.60291 22.382 8.15525 21.838 8.12127C21.838 8.12127 21.8494 7.67929 21.3394 7.70193C21.3394 7.70193 21.7134 7.97394 21.498 8.1666C21.498 8.1666 21.3507 7.83796 20.9314 7.89458C20.9314 7.89458 21.2487 8.01927 21.1694 8.21192C21.1694 8.21192 20.665 8.45558 20.4384 8.29691C20.2118 8.13824 18.4211 7.17211 17.8545 7.14942L18.1435 7.66795Z" fill="#FFF5DC"/>
<path d="M17.6968 8.21196C17.6968 8.21196 18.0708 8.32245 18.6148 8.89193C18.8669 9.15588 19.5157 9.17242 19.4137 8.66243C19.3117 8.15243 18.0538 7.83795 17.9178 7.83795C17.7818 7.83795 17.6968 8.21196 17.6968 8.21196Z" fill="#F5F5F5"/>
<path d="M20.4195 7.09008L19.7055 7.32807C19.7055 7.32807 19.7848 7.81256 19.3768 8.02504C19.1255 8.15592 18.9575 8.49534 18.9688 8.74466C18.9688 8.74466 19.2068 8.41602 19.5468 8.23467C19.6268 8.19196 19.7006 8.15451 19.7679 8.11654C19.7544 8.28642 19.7507 8.46482 19.7734 8.62002C19.8415 9.08464 19.6941 9.24331 19.6941 9.24331C19.6941 9.24331 20.0907 8.93732 20.0454 8.43871C20.028 8.24714 20.0594 8.11139 20.1082 8.00836C20.1433 8.3556 20.3287 8.51807 20.3287 8.51807C20.1927 8.24606 20.476 7.95136 20.5894 7.71337C20.7028 7.47535 20.4195 7.09008 20.4195 7.09008Z" fill="#FFF5DC"/>
<path d="M22.2242 6.10412C21.9431 6.0085 21.6717 6.18062 21.5102 6.32513C21.4415 6.38663 21.2602 6.4179 21.0748 6.43468C21.1986 6.34707 21.3303 6.24371 21.3997 6.15512C21.5527 5.95961 21.8332 5.92562 22.0711 5.84912C22.3091 5.77262 22.4111 5.46663 22.4111 5.46663C22.4111 5.46663 22.2836 5.65361 21.9266 5.63664C21.5696 5.61963 21.4507 5.60266 21.2126 5.85765C21.1395 5.93603 21.037 5.99668 20.9307 6.04539C20.933 5.93397 20.9426 5.79226 20.9747 5.69617C21.0341 5.51767 21.3062 5.37316 21.3232 5.01621C21.3402 4.65921 21.3572 4.6932 21.5612 4.48071C21.7652 4.26823 21.8246 3.86872 21.7652 3.99622C21.7057 4.12372 21.4337 4.27672 21.2042 4.4892C20.9747 4.70168 21.1361 4.93966 21.0172 5.12669C20.8982 5.31367 20.6177 5.35619 20.6007 5.70466C20.5837 6.05317 20.3372 6.25712 20.3372 6.25712C20.3372 6.25712 19.7337 6.58862 20.4562 6.8521C21.1787 7.11558 21.7632 6.38251 22.1222 6.40163C22.9212 6.44415 23.1337 6.18062 23.1337 6.18062C22.9977 6.18062 22.6492 6.24859 22.2242 6.10412Z" fill="#FFF5DC"/>
<path d="M13.461 11.7026C13.4157 11.6686 12.6337 10.8073 12.3731 10.6826L12.4297 10.898C12.4297 10.898 12.2597 10.8866 11.9538 10.5127C11.6478 10.1387 11.4211 10.0367 11.4211 10.0367C11.4211 10.0367 11.6365 10.3767 11.6251 10.592C11.6251 10.592 11.1605 10.558 10.6618 10.796C10.6618 10.796 10.4352 10.354 10.2425 10.2747C10.2425 10.2747 10.3105 10.7394 10.1518 10.8526C9.99314 10.966 11.6478 11.7479 11.8745 11.7706C12.101 11.7933 13.461 11.7026 13.461 11.7026Z" fill="#FFF5DC"/>
<path d="M14.4922 10.014C14.4761 10.01 14.3924 10.0688 14.2845 10.1459C14.2368 9.87067 14.1409 9.31422 14.1409 9.28868C14.1409 9.25469 13.3702 8.17808 13.3476 8.1327C13.3472 8.13191 13.3446 8.13186 13.3441 8.13111C13.4189 7.95008 13.4995 7.64193 13.0416 7.88338C12.4183 8.21206 12.1689 8.97134 12.1689 8.97134C12.3111 8.82307 12.559 8.70996 12.7569 8.63637C12.761 8.72881 12.7618 8.83859 12.6336 9.02801C12.3729 9.41327 12.5203 9.56064 12.5203 9.56064C12.7243 9.20932 13.1776 9.17529 13.1776 9.17529C13.1096 9.59463 13.3476 9.83261 13.3476 9.83261L13.5403 9.60597C13.5165 9.93044 13.6902 10.2786 13.7981 10.4615C13.7554 10.4821 13.7165 10.4979 13.6876 10.5012C13.4949 10.5239 13.1889 10.6712 13.1889 10.6712C13.1889 10.6712 13.4369 10.6184 13.5777 10.7272C13.7185 10.8359 13.9425 10.9192 14.0641 10.8936C14.0641 10.8936 14.0065 11.1879 14.0705 11.2968C14.0705 11.2968 13.9105 11.2519 13.7249 11.2583C13.5393 11.2648 13.4042 11.136 13.4042 11.136C13.4042 11.136 13.7442 11.6232 13.9936 11.7252C14.2429 11.8272 14.6735 11.4532 14.6735 11.4532C14.6735 11.4532 14.5376 10.0253 14.4922 10.014Z" fill="#FFF5DC"/>
<path d="M8.63338 17.1198C8.63338 17.1198 8.41804 17.1425 8.21404 17.4484L8.12339 17.1311C8.12339 17.1311 7.87406 17.3124 7.60205 17.1991C7.60205 17.1991 7.85138 17.1424 7.8967 16.9158C7.94203 16.6891 8.03269 16.6664 8.03269 16.6664C8.03269 16.6664 7.86267 16.4851 7.68136 16.4964C7.68136 16.4964 8.18001 16.2358 8.45203 16.4851C8.72404 16.7345 8.63338 17.1198 8.63338 17.1198Z" fill="#FFF5DC"/>
<path d="M14.6285 14.6152C14.6285 14.6152 14.4132 14.6379 14.2092 14.9438L14.1185 14.6265C14.1185 14.6265 13.8692 14.8078 13.5972 14.6945C13.5972 14.6945 13.8465 14.6378 13.8918 14.4112C13.9371 14.1845 14.0278 14.1619 14.0278 14.1619C14.0278 14.1619 13.8578 13.9805 13.6765 13.9918C13.6765 13.9918 14.1751 13.7312 14.4471 13.9805C14.7192 14.2299 14.6285 14.6152 14.6285 14.6152Z" fill="#FFF5DC"/>
<path d="M18.3041 11.391C18.3041 11.391 18.199 11.5803 18.3323 11.923L18.0205 11.815C18.0205 11.815 18.0257 12.1232 17.7767 12.2808C17.7767 12.2808 17.8735 12.0442 17.714 11.8769C17.5545 11.7096 17.588 11.6223 17.588 11.6223C17.588 11.6223 17.3419 11.6573 17.2471 11.8123C17.2471 11.8123 17.3201 11.2544 17.6804 11.1749C18.0408 11.0955 18.3041 11.391 18.3041 11.391Z" fill="#FFF5DC"/>
<path d="M19.3984 15.2209L19.6179 15.3518C19.554 15.2969 19.4783 15.2557 19.3984 15.2209Z" fill="#FF6E55"/>
<path d="M7.0268 16.315C7.0268 16.315 6.01816 17.7317 4.86218 18.0377L5.27018 17.5163C5.27018 17.5163 4.7262 17.9923 4.1142 18.0943L4.85084 17.2443C4.85084 17.2443 3.20756 18.7743 1.09961 19.0916C1.09961 19.0916 2.73155 18.0603 3.06023 17.6976C3.06023 17.6976 2.26693 18.015 1.55293 18.0263C1.55293 18.0263 3.60421 17.233 3.94419 16.9156C3.94419 16.9156 3.1282 17.0969 2.61825 16.927C2.61825 16.927 4.38622 16.417 4.63554 16.485C4.63554 16.485 3.61555 16.077 3.00361 16.1223C3.00361 16.1223 4.04624 15.873 5.25888 16.1223L4.99821 15.839C4.99821 15.839 5.68952 15.6577 6.36953 15.6124C7.04949 15.5671 6.70951 15.5104 6.70951 15.5104L6.78882 15.2837C6.78882 15.2837 6.34684 15.3404 5.98417 15.2837C5.98417 15.2837 7.07213 14.6718 7.37813 14.3998C7.68412 14.1278 7.48013 14.2525 7.48013 14.2525C7.48013 14.2525 6.91346 14.4451 6.70946 14.4791C6.70946 14.4791 7.21946 13.8898 7.37813 13.5045C7.37813 13.5045 6.91346 13.6858 6.51681 13.5045C6.51681 13.5045 6.99277 13.3685 7.2308 13.1305C7.46883 12.8924 7.82011 12.3003 7.82011 12.3003L7.41211 12.4788C7.41211 12.4788 7.76911 11.8668 8.08359 11.7138C8.08359 11.7138 7.54809 11.7563 7.37813 11.6288C7.37813 11.6288 7.94761 11.4929 8.11762 11.3568C8.28763 11.2208 8.6616 10.8639 9.04409 10.9998C9.04409 10.9998 9.57959 10.5069 9.40109 10.1838C9.40109 10.1838 9.7496 10.2093 9.92805 10.4218C10.1066 10.6343 10.387 10.8128 10.387 10.8128L8.93075 11.9518L7.82011 15.5557L7.0268 16.315Z" fill="#FFF5DC"/>
<path d="M21.2917 9.51523C21.7111 10.1952 21.1897 10.2632 21.1897 10.2632C21.1104 9.61723 20.5664 9.69659 20.5664 9.69659L20.7138 10.1726C19.8072 10.2859 19.8751 9.3792 19.8751 9.3792C19.7392 9.49254 19.5125 9.95716 19.5125 9.95716C19.5125 9.95716 17.0645 10.7732 15.4099 8.34791C15.4099 8.34791 15.3646 7.91723 15.5006 7.71323L14.4806 6.94262L13.1659 7.12397C13.1659 7.12397 12.6446 8.30259 13.2793 9.02792C13.9139 9.75321 14.6619 10.7732 14.5259 11.2492C14.4453 11.5313 14.2054 11.6462 13.8723 11.6222C13.6434 11.6057 13.3706 11.5236 13.0753 11.3852C12.3499 11.0452 10.582 10.3199 9.31271 10.9092C8.04344 11.4985 7.90572 12.5183 7.65809 13.3118C7.4389 14.0143 6.95244 15.8076 3.48705 17.4438C3.32154 17.5219 3.40572 17.7735 3.58338 17.7294C5.08556 17.3558 7.13347 16.7336 7.76576 15.9977L8.27575 16.0148L8.08877 16.7967C8.08877 16.7967 8.75176 17.0007 8.85376 17.9697C8.85376 17.9697 7.69212 18.287 8.34944 19.2843C8.34944 19.2843 8.45144 18.559 9.25604 18.525C9.25604 18.525 9.4374 18.763 9.834 18.797C9.834 18.797 10.038 19.1257 9.936 19.3977C9.936 19.3977 10.7406 19.1484 10.0607 18.185C10.0607 18.185 10.82 18.0037 10.922 18.9557C10.922 18.9557 11.4094 17.4144 9.66971 17.5278C9.66971 17.5278 9.66971 17.2558 9.21071 16.7628C9.21071 16.7628 9.09742 16.4851 9.21071 16.0998C9.24479 15.9839 9.27563 15.8635 9.30141 15.7408C9.39587 15.7932 9.54127 15.8552 9.732 15.8618C9.732 15.8618 10.0154 16.3264 10.854 16.2471C10.854 16.2471 10.242 15.9638 10.2987 15.4198C10.3553 14.8759 11.0693 14.5812 11.3753 14.7965C11.3753 14.7965 11.296 14.0825 10.1854 14.5472C10.1854 14.5472 10.1854 14.0145 10.7747 13.9805C10.7747 13.9805 9.82271 13.2552 9.60741 14.6379L9.21348 14.7364C9.02101 14.2028 8.77722 12.9641 9.85669 12.513C10.9956 12.037 12.1856 13.1079 14.2936 13.2099C14.2936 13.2099 14.0896 14.4509 14.7695 14.7569C15.4495 15.0629 17.1154 15.3519 17.1154 15.3519C17.0984 17.1425 18.4017 16.9044 18.4017 16.9044C17.7692 16.5254 17.7692 15.8022 18.1596 15.3798C18.6917 14.8041 19.6144 15.3519 19.6144 15.3519C19.6014 14.4803 18.3791 14.6152 18.3791 14.6152C18.5717 14.0486 19.3311 13.9012 19.3311 13.9012C18.2771 13.5159 17.4044 14.6549 17.4044 14.6549L15.6195 14.1449C15.6195 14.1449 15.5515 13.7879 15.9765 13.3119C16.4015 12.836 16.7585 12.037 16.6395 11.187C16.6395 11.187 17.1325 10.8413 17.7445 11.1813C18.3565 11.5213 19.6711 10.7733 19.6711 10.7733C20.2378 11.4986 21.5863 11.3627 21.7677 10.49C21.9491 9.61723 21.2917 9.51523 21.2917 9.51523Z" fill="#F5F5F5"/>
<path d="M19.4217 7.42997C19.0846 7.23334 18.4811 7.06731 18.2771 7.52063C18.0731 7.97395 17.8464 8.42728 17.1438 8.40459C16.4411 8.3819 16.1238 8.98255 15.6365 8.81259C15.6365 8.81259 16.0898 8.66526 16.1805 8.44992C16.2711 8.23458 16.6338 7.83792 16.6338 7.83792L16.5885 7.42993C16.5885 7.42993 15.7498 7.47516 15.5005 7.71319C15.2512 7.95122 14.3105 7.50924 14.3105 7.50924L14.4239 6.52328C14.4239 6.52328 15.1492 5.41264 16.1578 5.49199C17.1665 5.57135 17.3364 5.31068 17.8238 5.34467C18.3111 5.37865 18.5604 5.8773 19.0818 5.99065C19.6031 6.10399 20.6457 5.88865 20.7817 6.20599C20.9177 6.52333 20.521 6.64797 20.419 7.08995C20.317 7.53197 20.1017 7.82663 19.4217 7.42997Z" fill="#F5F5F5"/>
<path d="M16.4754 7.14665C16.4754 7.14665 15.9881 7.47528 15.5801 7.3393C15.1721 7.20332 14.8094 7.24865 14.3901 7.38463C14.3901 7.38463 15.1608 7.29397 15.4781 7.58863C15.7954 7.88328 16.6001 7.69063 16.6567 7.56594L16.4754 7.14665Z" fill="#FFF5DC"/>
<path d="M16.7243 7.90597C16.7243 7.90597 16.2484 8.24596 15.7724 8.1553C15.2964 8.06464 14.8657 8.2573 14.8657 8.2573C14.8657 8.2573 15.217 7.87199 15.693 7.93996C16.169 8.00797 16.339 7.54331 16.339 7.54331L16.6563 7.56599L16.7243 7.90597Z" fill="#FFF5DC"/>
<path d="M17.6238 7.09246C18.0242 7.72897 17.3521 8.40106 16.7156 8.00066C16.6673 7.97033 16.6261 7.92903 16.5957 7.8808C16.1953 7.24429 16.8674 6.5722 17.5039 6.9726C17.5522 7.00298 17.5934 7.04423 17.6238 7.09246Z" fill="#FFF5DC"/>
<path d="M16.7361 7.01066C16.7361 7.01066 16.4868 6.69332 15.8634 6.81801C15.2401 6.9427 15.0928 6.71601 15.0928 6.71601C15.0928 6.71601 15.3874 7.16934 15.8521 7.11266C16.3168 7.05599 16.5094 7.37333 16.5094 7.37333L16.7361 7.01066Z" fill="#FFF5DC"/>
<path d="M18.8329 6.21708C18.8889 6.13983 18.9594 6.06629 19.0557 6.01023C19.1125 5.97718 19.171 5.95627 19.2288 5.93912C19.2417 5.8531 19.229 5.76024 19.18 5.67601C19.0729 5.49212 18.8501 5.42233 18.6824 5.51997C18.5148 5.61765 18.4657 5.84584 18.5728 6.02973C18.633 6.13299 18.73 6.19519 18.8329 6.21708Z" fill="#FFF5DC"/>
<path d="M18.2763 6.94725C18.3081 6.8573 18.3549 6.76683 18.4314 6.68579C18.4766 6.63797 18.5267 6.60146 18.5773 6.5686C18.5653 6.48244 18.5269 6.39699 18.456 6.33005C18.3012 6.18399 18.0679 6.18006 17.9347 6.32115C17.8015 6.46224 17.819 6.69502 17.9738 6.84108C18.0607 6.92316 18.1714 6.95536 18.2763 6.94725Z" fill="#FFF5DC"/>
</g>
<defs>
<clipPath id="clip0_72_715">
<path d="M-0.00146484 2C-0.00146484 0.895432 0.893966 0 1.99854 0H21.9983C23.1029 0 23.9983 0.895431 23.9983 2V21.9998C23.9983 23.1043 23.1029 23.9998 21.9983 23.9998H1.99854C0.893967 23.9998 -0.00146484 23.1043 -0.00146484 21.9998V2Z" fill="white"/>
</clipPath>
</defs>
</svg>
