<svg width="24" height="24" viewBox="0 0 24 24" fill="none" xmlns="http://www.w3.org/2000/svg">
<g clip-path="url(#clip0_72_747)">
<path d="M24.0017 15.9998H0.00195312V23.9998H24.0017V15.9998Z" fill="#73AF00"/>
<path d="M24.0017 6.10352e-05H0.00195312V8.00014H24.0017V6.10352e-05Z" fill="#FF4B55"/>
<path d="M24.0017 8.00014H0.00195312V16.0002H24.0017V8.00014Z" fill="#FFE15A"/>
<path d="M11.1865 8.41953C11.1865 8.41953 11.1702 8.43987 11.1397 8.47798C11.1143 8.51314 11.0762 8.56733 11.0346 8.63928C10.9526 8.78229 10.8666 9.00401 10.8643 9.26833C10.8635 9.39719 10.8901 9.55366 10.9341 9.67811C10.9817 9.81545 11.0608 9.94684 11.1607 10.0642C11.2609 10.1826 11.3946 10.2738 11.5375 10.3412C11.6084 10.3772 11.6863 10.3979 11.7635 10.417C11.8018 10.4287 11.8425 10.4293 11.8818 10.437C11.9015 10.4407 11.922 10.439 11.942 10.4406L11.9721 10.4419L11.9872 10.4427L11.9947 10.4431L11.9985 10.4433L12.0004 10.4434C11.9943 10.4436 12.0166 10.4431 11.9872 10.4439C12.0361 10.441 12.0955 10.4406 12.1359 10.4357C12.1711 10.4275 12.2007 10.429 12.241 10.417C12.3183 10.3979 12.3961 10.3772 12.467 10.3412C12.61 10.2738 12.7437 10.1825 12.8438 10.0642C12.9437 9.94684 13.0228 9.8155 13.0705 9.67811C13.1161 9.53833 13.1404 9.40469 13.1401 9.26777C13.1379 9.00462 13.0519 8.7821 12.9699 8.63928C12.9285 8.56761 12.8902 8.51309 12.863 8.47639C12.8347 8.4402 12.8196 8.42089 12.8196 8.42089L12.8158 8.41606C12.7886 8.38133 12.7947 8.33108 12.8295 8.30389C12.8569 8.28242 12.8941 8.28181 12.9219 8.29953C12.9219 8.29953 12.9452 8.31448 12.9889 8.34252C13.0302 8.3735 13.0943 8.41747 13.1634 8.48839C13.3019 8.62554 13.4818 8.86999 13.5467 9.22521C13.5788 9.39518 13.5823 9.60082 13.538 9.80299C13.4951 10.0072 13.408 10.2183 13.2675 10.4031C13.1294 10.5886 12.9439 10.7528 12.7233 10.8635C12.6146 10.9216 12.4961 10.9637 12.3746 10.993C12.3163 11.0101 12.2424 11.0172 12.1766 11.0275C12.1149 11.0343 12.071 11.0345 12.0173 11.0382L11.9964 11.0383L11.9905 11.038L11.9788 11.0375L11.9553 11.0363L11.9084 11.0338C11.8772 11.0312 11.8458 11.0317 11.8148 11.0263C11.7531 11.0154 11.6902 11.0104 11.63 10.9929C11.5085 10.9636 11.39 10.9215 11.2812 10.8635C11.0606 10.7528 10.8751 10.5886 10.737 10.403C10.5965 10.2182 10.5094 10.0071 10.4665 9.80294C10.4205 9.58544 10.4263 9.40258 10.4579 9.2246C10.5226 8.87056 10.7026 8.62526 10.8412 8.48834C10.91 8.4177 10.9742 8.37341 11.0174 8.34087C11.0589 8.31477 11.0811 8.30084 11.0811 8.30084C11.1187 8.27722 11.1683 8.28856 11.192 8.32616C11.2107 8.35597 11.2072 8.39356 11.1865 8.41953Z" fill="#73AF00"/>
<path d="M11.8433 14.7091V15.7086C11.8433 15.8083 11.7227 15.8583 11.6522 15.7878L11.5972 15.7328C11.5515 15.6871 11.5259 15.6251 11.5259 15.5605V14.7091L11.8433 14.7091Z" fill="#FF4B55"/>
<path d="M11.3672 14.5503V15.2758C11.3672 15.3195 11.3845 15.3613 11.4154 15.3921L11.5259 15.5026V14.5503H11.3672V14.5503Z" fill="#FFE15A"/>
<path d="M11.2085 14.5503V14.9397C11.2085 14.9953 11.2306 15.0486 11.2699 15.0879L11.3672 15.1853V14.5504H11.2085V14.5503Z" fill="#73AF00"/>
<path d="M12.1606 14.7091V15.7086C12.1606 15.8083 12.2812 15.8583 12.3517 15.7878L12.4067 15.7328C12.4524 15.6871 12.478 15.6251 12.478 15.5605V14.7091L12.1606 14.7091Z" fill="#FF4B55"/>
<path d="M12.6367 14.5503V15.2758C12.6367 15.3195 12.6194 15.3613 12.5886 15.3921L12.478 15.5026V14.5503H12.6367V14.5503Z" fill="#FFE15A"/>
<path d="M12.7954 14.5503V14.9397C12.7954 14.9953 12.7734 15.0486 12.7341 15.0879L12.6367 15.1853V14.5504H12.7954V14.5503Z" fill="#73AF00"/>
<path d="M12.7956 11.6933L14.5416 10.4236V13.0348C14.5416 13.7841 13.9341 14.3916 13.1848 14.3916C12.9305 14.3916 12.6813 14.3201 12.4657 14.1853L11.5259 13.5979V11.6713L12.7956 11.6933Z" fill="#FF4B55"/>
<path d="M13.9067 10.8853V12.7174C13.9067 13.4667 13.2992 14.0741 12.5499 14.0741C12.4373 14.0741 12.3261 14.0579 12.2179 14.0305L11.5259 13.5979V11.6713L12.7957 11.6933L13.9067 10.8853Z" fill="#FFE15A"/>
<path d="M13.4305 11.2316V12.4144C13.4305 13.1637 12.8231 13.7711 12.0737 13.7711C11.9611 13.7711 11.85 13.7549 11.7418 13.7275L11.5259 13.5925V11.6713L12.7957 11.6933L13.4305 11.2316Z" fill="#73AF00"/>
<path d="M14.6367 10.1379L15.3351 9.78868L14.8272 10.4236H14.5415L14.6367 10.1379Z" fill="#F5F5F5"/>
<path d="M13.7478 12.487L15.4937 11.2172V13.8284C15.4937 14.5778 14.8863 15.1852 14.1369 15.1852C13.8826 15.1852 13.6334 15.1137 13.4178 14.979L12.478 14.3916V12.4649L13.7478 12.487Z" fill="#FF4B55"/>
<path d="M14.3827 12.0253V13.208C14.3827 13.9573 13.7752 14.5648 13.0259 14.5648C12.9133 14.5648 12.8021 14.5485 12.6939 14.5211L12.478 14.3862V12.4649L13.7478 12.487L14.3827 12.0253Z" fill="#73AF00"/>
<path d="M15.5889 10.9315L16.2873 10.5823L15.7794 11.2172H15.4937L15.5889 10.9315Z" fill="#F5F5F5"/>
<path d="M13.2717 12.1695L15.0177 10.8998V13.511C15.0177 14.2603 14.4102 14.8678 13.6609 14.8678C13.4066 14.8678 13.1574 14.7963 12.9418 14.6615L12.002 14.0742V12.1475L13.2717 12.1695Z" fill="#FF4B55"/>
<path d="M14.3828 11.3615V13.1936C14.3828 13.9429 13.7754 14.5503 13.026 14.5503C12.9134 14.5503 12.8022 14.5341 12.6941 14.5067L12.002 14.0742V12.1475L13.2717 12.1695L14.3828 11.3615Z" fill="#FFE15A"/>
<path d="M13.9066 11.7078V12.8905C13.9066 13.6399 13.2992 14.2473 12.5498 14.2473C12.4372 14.2473 12.326 14.231 12.2179 14.2037L12.002 14.0688V12.1475L13.2717 12.1695L13.9066 11.7078Z" fill="#73AF00"/>
<path d="M15.1128 10.6141L15.8112 10.2649L15.3033 10.8998H15.0176L15.1128 10.6141Z" fill="#F5F5F5"/>
<path d="M11.2083 11.6933L9.4624 10.4236V13.0348C9.4624 13.7841 10.0698 14.3916 10.8192 14.3916C11.0735 14.3916 11.3227 14.3201 11.5383 14.1853L12.4781 13.5979V11.6713L11.2083 11.6933Z" fill="#FF4B55"/>
<path d="M10.0972 10.8853V12.7174C10.0972 13.4667 10.7046 14.0741 11.454 14.0741C11.5666 14.0741 11.6777 14.0579 11.7859 14.0305L12.478 13.5979V11.6713L11.2082 11.6933L10.0972 10.8853Z" fill="#FFE15A"/>
<path d="M10.5737 11.2316V12.4144C10.5737 13.1637 11.1812 13.7711 11.9305 13.7711C12.0432 13.7711 12.1543 13.7549 12.2625 13.7275L12.4784 13.5925V11.6713L11.2086 11.6933L10.5737 11.2316Z" fill="#73AF00"/>
<path d="M9.36733 10.1379L8.66895 9.78868L9.17688 10.4236H9.46258L9.36733 10.1379Z" fill="#F5F5F5"/>
<path d="M10.2562 12.487L8.51025 11.2172V13.8284C8.51025 14.5778 9.1177 15.1852 9.86704 15.1852C10.1213 15.1852 10.3705 15.1137 10.5861 14.979L11.5259 14.3916V12.4649L10.2562 12.487Z" fill="#FF4B55"/>
<path d="M9.62109 12.0253V13.208C9.62109 13.9573 10.2285 14.5648 10.9779 14.5648C11.0905 14.5648 11.2017 14.5485 11.3098 14.5211L11.5257 14.3862V12.4649L10.256 12.487L9.62109 12.0253Z" fill="#73AF00"/>
<path d="M8.41469 10.9315L7.71631 10.5823L8.22419 11.2172H8.50989L8.41469 10.9315Z" fill="#F5F5F5"/>
<path d="M10.7323 12.1695L8.98633 10.8998V13.511C8.98633 14.2603 9.59378 14.8678 10.3431 14.8678C10.5974 14.8678 10.8466 14.7963 11.0622 14.6615L12.002 14.0742V12.1475L10.7323 12.1695Z" fill="#FF4B55"/>
<path d="M9.62109 11.3615V13.1936C9.62109 13.9429 10.2285 14.5503 10.9779 14.5503C11.0905 14.5503 11.2017 14.5341 11.3098 14.5067L12.0019 14.0742V12.1475L10.7321 12.1695L9.62109 11.3615Z" fill="#FFE15A"/>
<path d="M10.0972 11.7078V12.8905C10.0972 13.6399 10.7046 14.2473 11.454 14.2473C11.5666 14.2473 11.6777 14.231 11.7859 14.2037L12.0018 14.0687V12.1474L10.732 12.1694L10.0972 11.7078Z" fill="#73AF00"/>
<path d="M9.91941 14.5294L9.71017 14.3201C9.58328 14.1932 9.5867 13.9864 9.71776 13.8638L13.1818 10.6088L13.6307 11.0577L10.3757 14.5218C10.2531 14.6528 10.0463 14.6563 9.91941 14.5294Z" fill="#FFBE5A"/>
<path d="M9.97574 14.4448C9.93463 14.6297 9.69514 14.6297 9.65404 14.4448C9.65113 14.4318 9.65113 14.4177 9.65404 14.4047C9.69514 14.2198 9.93463 14.2198 9.97574 14.4047C9.97864 14.4177 9.97864 14.4318 9.97574 14.4448Z" fill="#FFBE5A"/>
<path d="M13.522 10.7211C13.398 10.5972 13.2473 10.5469 13.1853 10.6089C13.1233 10.6709 13.1736 10.8216 13.2975 10.9456C13.4215 11.0695 13.5722 11.1198 13.6342 11.0578C13.6962 10.9958 13.6459 10.8451 13.522 10.7211Z" fill="#F5F5F5"/>
<path d="M14.0824 14.5294L14.2916 14.3201C14.4185 14.1932 14.4151 13.9864 14.284 13.8638L10.82 10.6088L10.3711 11.0577L13.6261 14.5218C13.7487 14.6528 13.9555 14.6563 14.0824 14.5294Z" fill="#FFBE5A"/>
<path d="M14.0261 14.4448C14.0672 14.6297 14.3067 14.6297 14.3478 14.4448C14.3507 14.4318 14.3507 14.4177 14.3478 14.4047C14.3067 14.2198 14.0672 14.2198 14.0261 14.4047C14.0232 14.4177 14.0232 14.4318 14.0261 14.4448Z" fill="#FFBE5A"/>
<path d="M10.7062 10.946C10.8302 10.822 10.8805 10.6713 10.8185 10.6093C10.7565 10.5473 10.6057 10.5976 10.4818 10.7215C10.3578 10.8455 10.3076 10.9962 10.3696 11.0582C10.4315 11.1202 10.5823 11.07 10.7062 10.946Z" fill="#F5F5F5"/>
<path d="M12.0021 14.3917C12.7771 14.3917 13.4055 13.6455 13.4055 12.7251C13.4055 11.8047 12.7771 11.0585 12.0021 11.0585C11.227 11.0585 10.5986 11.8047 10.5986 12.7251C10.5986 13.6455 11.227 14.3917 12.0021 14.3917Z" fill="#FFBE5A"/>
<path d="M12.0021 11.2172L12.0766 11.5405L12.2473 11.256L12.2183 11.5866L12.4686 11.3688L12.3388 11.6741L12.6441 11.5443L12.4263 11.7946L12.7569 11.7656L12.4724 11.9363L12.7957 12.0108L12.4724 12.0853L12.7569 12.256L12.4263 12.227L12.6441 12.4773L12.3388 12.3475L12.4686 12.6529L12.2183 12.4351L12.2473 12.7655L12.0766 12.4811L12.0021 12.8044L11.9276 12.4811L11.7568 12.7655L11.7859 12.4351L11.5356 12.6529L11.6654 12.3475L11.36 12.4773L11.5778 12.227L11.2473 12.256L11.5318 12.0853L11.2085 12.0108L11.5318 11.9363L11.2473 11.7656L11.5778 11.7946L11.36 11.5443L11.6654 11.6741L11.5356 11.3688L11.7859 11.5866L11.7568 11.256L11.9276 11.5405L12.0021 11.2172Z" fill="#FF4B55"/>
<path d="M13.7576 12.6953C13.7576 12.6953 13.2319 12.8342 12.8896 12.5465C12.5093 12.2268 12.224 12.0758 12.1019 12.0191C12.0601 11.9997 12.0133 11.9997 11.9714 12.019C11.8838 12.0594 11.7227 12.1432 11.5802 12.2688C11.3719 12.4523 10.732 12.8144 10.603 12.8144V13.6034L11.6099 14.476L12.8003 14.4413L13.7576 12.6953Z" fill="#73AF00"/>
<path d="M12.0021 14.7884C10.9956 14.7884 10.1768 13.8627 10.1768 12.725C10.1768 11.5874 10.9956 10.6617 12.0021 10.6617C13.0085 10.6617 13.8273 11.5874 13.8273 12.725C13.8273 13.8627 13.0085 14.7884 12.0021 14.7884ZM12.0021 11.1378C11.2581 11.1378 10.6529 11.8499 10.6529 12.725C10.6529 13.6002 11.2582 14.3123 12.0021 14.3123C12.746 14.3123 13.3512 13.6002 13.3512 12.725C13.3512 11.8499 12.746 11.1378 12.0021 11.1378Z" fill="#3CC8FF"/>
<path d="M11.7322 14.3571L11.7671 14.4619L11.8777 14.4628C11.892 14.4629 11.8979 14.4811 11.8864 14.4896L11.7975 14.5553L11.8308 14.6607C11.8351 14.6743 11.8196 14.6856 11.8079 14.6773L11.718 14.613L11.628 14.6773C11.6164 14.6856 11.6008 14.6743 11.6051 14.6607L11.6385 14.5553L11.5495 14.4896C11.538 14.4811 11.544 14.4629 11.5583 14.4628L11.6688 14.4619L11.7038 14.3571C11.7084 14.3435 11.7277 14.3435 11.7322 14.3571Z" fill="#FFBE5A"/>
<path d="M11.2356 14.1438L11.2705 14.2486L11.3811 14.2495C11.3954 14.2496 11.4013 14.2679 11.3898 14.2764L11.3009 14.342L11.3342 14.4474C11.3385 14.461 11.323 14.4723 11.3113 14.464L11.2214 14.3997L11.1314 14.464C11.1198 14.4723 11.1042 14.461 11.1086 14.4474L11.1419 14.342L11.053 14.2764C11.0414 14.2679 11.0474 14.2496 11.0617 14.2495L11.1722 14.2486L11.2072 14.1438C11.2119 14.1302 11.231 14.1302 11.2356 14.1438Z" fill="#FFBE5A"/>
<path d="M10.8371 13.7817L10.8721 13.8866L10.9826 13.8874C10.9969 13.8875 11.0029 13.9058 10.9914 13.9143L10.9024 13.98L10.9358 14.0853C10.9401 14.099 10.9246 14.1103 10.9129 14.1019L10.8229 14.0377L10.733 14.1019C10.7214 14.1103 10.7058 14.099 10.7101 14.0853L10.7434 13.98L10.6545 13.9143C10.643 13.9058 10.6489 13.8875 10.6632 13.8874L10.7738 13.8866L10.8087 13.7817C10.8134 13.7681 10.8326 13.7681 10.8371 13.7817Z" fill="#FFBE5A"/>
<path d="M10.5657 13.2998L10.6006 13.4046L10.7112 13.4055C10.7255 13.4056 10.7314 13.4238 10.7199 13.4323L10.631 13.498L10.6643 13.6034C10.6686 13.617 10.6531 13.6283 10.6414 13.62L10.5515 13.5557L10.4615 13.62C10.4499 13.6283 10.4343 13.617 10.4386 13.6034L10.472 13.498L10.383 13.4323C10.3715 13.4238 10.3775 13.4056 10.3918 13.4055L10.5023 13.4046L10.5373 13.2998C10.5419 13.2862 10.5611 13.2862 10.5657 13.2998Z" fill="#FFBE5A"/>
<path d="M10.4455 12.7393L10.4805 12.8441L10.591 12.845C10.6053 12.8451 10.6113 12.8634 10.5998 12.8719L10.5108 12.9375L10.5442 13.0429C10.5485 13.0565 10.533 13.0678 10.5213 13.0595L10.4313 12.9952L10.3414 13.0595C10.3298 13.0678 10.3142 13.0565 10.3185 13.0429L10.3518 12.9375L10.2629 12.8719C10.2514 12.8634 10.2573 12.8451 10.2716 12.845L10.3822 12.8441L10.4171 12.7393C10.4218 12.7257 10.441 12.7257 10.4455 12.7393Z" fill="#FFBE5A"/>
<path d="M12.278 14.3571L12.243 14.4619L12.1325 14.4628C12.1182 14.4629 12.1122 14.4811 12.1238 14.4896L12.2127 14.5553L12.1794 14.6607C12.175 14.6743 12.1906 14.6856 12.2022 14.6773L12.2921 14.613L12.3821 14.6773C12.3937 14.6856 12.4093 14.6743 12.405 14.6607L12.3716 14.5553L12.4606 14.4896C12.4721 14.4811 12.4661 14.4629 12.4518 14.4628L12.3413 14.4619L12.3063 14.3571C12.3017 14.3435 12.2825 14.3435 12.278 14.3571Z" fill="#FFBE5A"/>
<path d="M12.7746 14.1438L12.7396 14.2486L12.6291 14.2495C12.6148 14.2496 12.6088 14.2679 12.6203 14.2764L12.7093 14.342L12.6759 14.4474C12.6716 14.461 12.6871 14.4723 12.6988 14.464L12.7888 14.3997L12.8787 14.464C12.8903 14.4723 12.9059 14.461 12.9016 14.4474L12.8683 14.342L12.9572 14.2764C12.9687 14.2679 12.9628 14.2496 12.9485 14.2495L12.8379 14.2486L12.803 14.1438C12.7983 14.1302 12.7791 14.1302 12.7746 14.1438Z" fill="#FFBE5A"/>
<path d="M13.173 13.7817L13.138 13.8866L13.0275 13.8874C13.0132 13.8875 13.0072 13.9058 13.0188 13.9143L13.1077 13.98L13.0744 14.0853C13.0701 14.099 13.0856 14.1103 13.0972 14.1019L13.1872 14.0377L13.2771 14.1019C13.2887 14.1103 13.3043 14.099 13.3 14.0853L13.2667 13.98L13.3556 13.9143C13.3671 13.9058 13.3612 13.8875 13.3469 13.8874L13.2363 13.8866L13.2014 13.7817C13.1968 13.7681 13.1775 13.7681 13.173 13.7817Z" fill="#FFBE5A"/>
<path d="M13.4445 13.2998L13.4095 13.4046L13.299 13.4055C13.2847 13.4056 13.2787 13.4238 13.2903 13.4323L13.3792 13.498L13.3459 13.6034C13.3415 13.617 13.3571 13.6283 13.3687 13.62L13.4587 13.5557L13.5486 13.62C13.5603 13.6283 13.5758 13.617 13.5715 13.6034L13.5382 13.498L13.6271 13.4323C13.6386 13.4238 13.6327 13.4056 13.6184 13.4055L13.5079 13.4046L13.4729 13.2998C13.4682 13.2862 13.449 13.2862 13.4445 13.2998Z" fill="#FFBE5A"/>
<path d="M13.5646 12.7393L13.5296 12.8441L13.4191 12.845C13.4048 12.8451 13.3988 12.8634 13.4104 12.8719L13.4993 12.9375L13.466 13.0429C13.4617 13.0565 13.4772 13.0678 13.4888 13.0595L13.5788 12.9952L13.6688 13.0595C13.6804 13.0678 13.6959 13.0565 13.6916 13.0429L13.6583 12.9375L13.7472 12.8719C13.7588 12.8634 13.7528 12.8451 13.7385 12.845L13.628 12.8441L13.593 12.7393C13.5883 12.7257 13.5691 12.7257 13.5646 12.7393Z" fill="#FFBE5A"/>
<path d="M11.3122 13.7426L11.3649 13.9948H11.3876V13.8228C11.3876 13.8228 11.4252 13.9428 11.4782 13.9948H11.5212C11.5006 13.9685 11.4637 13.9136 11.4637 13.857C11.4637 13.7789 11.5258 13.7683 11.5258 13.6849H11.5791V13.9948H11.6102L11.6678 13.7186C11.6678 13.7186 11.7153 13.8913 11.8048 13.9948H11.8446C11.8159 13.9526 11.7563 13.8439 11.7672 13.6795C11.7672 13.6795 11.8524 13.6369 11.8524 13.5215V13.3574C11.8524 13.3267 11.8773 13.3018 11.908 13.3018H11.9463C11.9463 13.3018 11.8894 13.1914 11.8285 13.1754V13.1062L11.7826 13.1755C11.7388 13.1849 11.713 13.2254 11.713 13.2688V13.3687C11.713 13.3994 11.6881 13.4244 11.6573 13.4244H11.4584C11.3995 13.4244 11.3052 13.4833 11.3052 13.5587C11.3052 13.6341 11.3618 13.6836 11.3618 13.6836L11.3122 13.7426Z" fill="#F5F5F5"/>
<path d="M12.2035 13.4912H12.1852C12.041 13.4991 11.9604 13.5939 11.9604 13.5939L12.1068 13.7402V14.0155H12.2819V13.7402L12.4283 13.5939C12.4283 13.5939 12.3477 13.4991 12.2035 13.4912Z" fill="#FFBE5A"/>
<path d="M12.5617 13.041H12.5088V14.0165H12.5617V13.041Z" fill="#F5F5F5"/>
<path d="M12.5369 13.0334L12.2517 13.3781C12.2517 13.3781 12.2145 13.2119 12.3807 13.0483L12.0137 13.1152C12.0137 13.1152 12.1253 12.9069 12.4179 12.9292L12.1178 12.6787C12.1178 12.6787 12.3757 12.6638 12.5072 12.8572C12.5072 12.8572 12.5816 12.634 12.7899 12.6241L12.6179 12.8854C12.6179 12.8854 12.7899 12.7978 13.0279 12.8746L12.6733 12.9688C12.6733 12.9688 12.8717 12.9887 12.9536 13.2788L12.646 13.068C12.646 13.068 12.7402 13.1796 12.7055 13.3979L12.5369 13.0334Z" fill="#F5F5F5"/>
<path d="M8.88881 10.6141L8.19043 10.2649L8.69836 10.8998H8.98406L8.88881 10.6141Z" fill="#F5F5F5"/>
<path d="M12.4984 10.2098L14.3828 9.62997L13.3824 9.25488C13.2042 9.18803 13.0155 9.15381 12.8252 9.15381H12.6368C12.5492 9.15381 12.4781 9.22488 12.4781 9.31253V9.47125H12.0019H11.5257V9.31253C11.5257 9.22488 11.4547 9.15381 11.367 9.15381H11.1787C10.9884 9.15381 10.7996 9.18803 10.6214 9.25488L9.62109 9.62997L11.5054 10.2098C11.5992 10.2386 11.6445 10.3447 11.6007 10.4325L11.367 10.8998H12.6368L12.4031 10.4325C12.3593 10.3447 12.4047 10.2386 12.4984 10.2098Z" fill="#825546"/>
<path d="M12.2545 9.42568C12.466 9.74851 12.1206 10.094 11.7977 9.88252C11.7786 9.87001 11.762 9.85346 11.7495 9.83433C11.538 9.51151 11.8835 9.16604 12.2063 9.37749C12.2255 9.39001 12.242 9.40651 12.2545 9.42568Z" fill="#F5F5F5"/>
<path d="M12.1608 9.62997C12.1608 9.71762 12.0897 9.78868 12.0021 9.78868H11.3672L11.6381 9.51775C11.6679 9.48798 11.7082 9.47125 11.7503 9.47125H12.0021C12.0897 9.47125 12.1608 9.54231 12.1608 9.62997Z" fill="#FFBE5A"/>
</g>
<defs>
<clipPath id="clip0_72_747">
<path d="M0 2C0 0.895432 0.895431 0 2 0H21.9998C23.1043 0 23.9998 0.895431 23.9998 2V21.9998C23.9998 23.1043 23.1043 23.9998 21.9998 23.9998H2C0.895432 23.9998 0 23.1043 0 21.9998V2Z" fill="white"/>
</clipPath>
</defs>
</svg>
