<svg width="24" height="24" viewBox="0 0 24 24" fill="none" xmlns="http://www.w3.org/2000/svg">
<g clip-path="url(#clip0_72_817)">
<path d="M24.0012 6.10352e-05H0.00146484V23.9998H24.0012V6.10352e-05Z" fill="#41479B"/>
<path d="M20.6913 6.10352e-05V23.9998L4.96729 6.10352e-05H20.6913Z" fill="#FFE15A"/>
<path d="M9.9257 9.22272L10.2689 10.2517L11.3535 10.2601C11.4375 10.2607 11.4724 10.368 11.4048 10.4179L10.5323 11.0622L10.8594 12.0964C10.8848 12.1765 10.7936 12.2428 10.7252 12.1939L9.84278 11.5632L8.96037 12.1939C8.89203 12.2428 8.80081 12.1765 8.82612 12.0964L9.15331 11.0622L8.28078 10.4179C8.21319 10.368 8.24802 10.2607 8.33206 10.2601L9.41669 10.2517L9.75986 9.22272C9.78639 9.14303 9.89913 9.14303 9.9257 9.22272Z" fill="#F5F5F5"/>
<path d="M7.95695 6.35016L8.30012 7.3791L9.38475 7.38749C9.4688 7.38815 9.50363 7.4954 9.43603 7.54532L8.56351 8.18966L8.8907 9.2238C8.91605 9.30391 8.82484 9.37019 8.75645 9.32135L7.87403 8.6906L6.99162 9.32135C6.92328 9.37019 6.83206 9.30396 6.85737 9.2238L7.18456 8.18966L6.31203 7.54532C6.24444 7.4954 6.27927 7.38815 6.36331 7.38749L7.44794 7.3791L7.79111 6.35016C7.81764 6.27047 7.93038 6.27047 7.95695 6.35016Z" fill="#F5F5F5"/>
<path d="M6.22263 3.43344L6.5658 4.46238L7.65043 4.47077C7.73447 4.47143 7.7693 4.57868 7.70171 4.6286L6.82918 5.27293L7.15637 6.30708C7.18173 6.38719 7.09051 6.45347 7.02212 6.40463L6.13971 5.77388L5.25725 6.40458C5.1889 6.45342 5.09768 6.38719 5.123 6.30703L5.45018 5.27289L4.57766 4.62855C4.51007 4.57863 4.54489 4.47138 4.62894 4.47072L5.71357 4.46233L6.05674 3.43339C6.08332 3.3537 6.19605 3.3537 6.22263 3.43344Z" fill="#F5F5F5"/>
<path d="M4.21481 0.560864L4.55798 1.58981L5.64261 1.5982C5.72666 1.59885 5.76149 1.7061 5.69389 1.75602L4.82137 2.40036L5.14856 3.43451C5.17391 3.51462 5.0827 3.5809 5.01431 3.53205L4.13185 2.90126L3.24943 3.53201C3.18109 3.58085 3.08987 3.51462 3.11518 3.43446L3.44237 2.40032L2.56985 1.75602C2.50225 1.7061 2.53708 1.59885 2.62113 1.5982L3.70576 1.58981L4.04893 0.560864C4.0755 0.481131 4.18824 0.481131 4.21481 0.560864Z" fill="#F5F5F5"/>
<path d="M17.3134 20.4495L17.6566 21.4785L18.7412 21.4869C18.8253 21.4875 18.8601 21.5948 18.7925 21.6447L17.92 22.289L18.2472 23.3232C18.2725 23.4033 18.1813 23.4696 18.1129 23.4207L17.2305 22.79L16.3481 23.4207C16.2797 23.4695 16.1885 23.4033 16.2138 23.3231L16.541 22.289L15.6685 21.6447C15.6009 21.5947 15.6357 21.4875 15.7198 21.4868L16.8044 21.4784L17.1476 20.4495C17.1741 20.3698 17.2869 20.3698 17.3134 20.4495Z" fill="#F5F5F5"/>
<path d="M15.5585 17.6653L15.9017 18.6943L16.9863 18.7027C17.0704 18.7033 17.1052 18.8106 17.0376 18.8605L16.1651 19.5048L16.4923 20.539C16.5176 20.6191 16.4264 20.6854 16.358 20.6365L15.4756 20.0058L14.5932 20.6365C14.5248 20.6854 14.4336 20.6191 14.4589 20.539L14.7861 19.5048L13.9136 18.8605C13.846 18.8106 13.8808 18.7033 13.9649 18.7027L15.0495 18.6943L15.3927 17.6653C15.4192 17.5856 15.5319 17.5856 15.5585 17.6653Z" fill="#F5F5F5"/>
<path d="M13.6366 14.837L13.9798 15.8659L15.0644 15.8743C15.1485 15.875 15.1833 15.9822 15.1157 16.0321L14.2432 16.6765L14.5704 17.7106C14.5957 17.7907 14.5045 17.857 14.4361 17.8082L13.5537 17.1774L12.6713 17.8082C12.603 17.857 12.5117 17.7908 12.5371 17.7106L12.8642 16.6765L11.9917 16.0321C11.9241 15.9822 11.959 15.875 12.043 15.8743L13.1276 15.8659L13.4708 14.837C13.4973 14.7573 13.6101 14.7573 13.6366 14.837Z" fill="#F5F5F5"/>
<path d="M11.6679 12.0528L12.0111 13.0818L13.0957 13.0902C13.1797 13.0908 13.2146 13.1981 13.147 13.248L12.2744 13.8923L12.6016 14.9265C12.627 15.0066 12.5358 15.0729 12.4674 15.024L11.585 14.3933L10.7026 15.024C10.6342 15.0729 10.543 15.0066 10.5683 14.9265L10.8955 13.8923L10.023 13.248C9.95538 13.1981 9.99021 13.0908 10.0743 13.0902L11.1589 13.0818L11.5021 12.0528C11.5286 11.9731 11.6413 11.9731 11.6679 12.0528Z" fill="#F5F5F5"/>
</g>
<defs>
<clipPath id="clip0_72_817">
<path d="M0 2C0 0.895432 0.895431 0 2 0H21.9998C23.1043 0 23.9998 0.895431 23.9998 2V21.9998C23.9998 23.1043 23.1043 23.9998 21.9998 23.9998H2C0.895432 23.9998 0 23.1043 0 21.9998V2Z" fill="white"/>
</clipPath>
</defs>
</svg>
