<svg width="24" height="24" viewBox="0 0 24 24" fill="none" xmlns="http://www.w3.org/2000/svg">
<g clip-path="url(#clip0_72_852)">
<path d="M23.9986 0.00169754H0.00488281V12.0002H23.9986V0.00169754Z" fill="#41479B"/>
<path d="M0.00537109 11.9999H23.9992V23.6232C23.9992 23.8303 23.8313 23.9982 23.6242 23.9982H0.380321C0.173276 23.9982 0.00537109 23.8303 0.00537109 23.6232V11.9999Z" fill="#F5F5F5"/>
<path d="M23.9979 0.0016861H21.1034L13.4395 3.8341V0.0016861H10.5651V3.8341L2.90122 0.0016861H0.00146484L0.00540231 1.13408L6.58068 4.4221H0.00540231V7.57952H6.58068L0.00540231 10.8675V11.9999H2.90122L10.5651 8.16751V11.9999H13.4395V8.16751L21.1034 11.9999H23.9992V10.8675L17.4239 7.57952H23.9992V4.4221H17.4239L23.9992 1.13408L23.9979 0.0016861Z" fill="#F5F5F5"/>
<path d="M23.9956 5.05359H0.00195312V6.94779H23.9956V5.05359Z" fill="#FF4B55"/>
<path d="M12.619 0.0016861H11.3779V12.0002H12.619V0.0016861Z" fill="#FF4B55"/>
<path d="M15.24 4.9007L14.3084 5.38233L13.9405 4.5264C13.9025 4.43809 13.7502 4.42225 13.6836 4.49973L12.9248 5.38233L12.1314 4.15192C12.0782 4.06947 11.9264 4.06947 11.8733 4.15192L11.0799 5.38233L10.3211 4.49973C10.2545 4.42225 10.1021 4.43809 10.0642 4.5264L9.69624 5.38233L8.76466 4.9007C8.64152 4.83704 8.48941 4.94119 8.5556 5.04385L9.46567 6.45529H9.42629C9.32064 6.45529 9.23509 6.52171 9.23509 6.6036V7.02233C9.23509 7.10427 9.32073 7.17064 9.42629 7.17064H14.5784C14.684 7.17064 14.7696 7.10422 14.7696 7.02233V6.6036C14.7696 6.52171 14.6839 6.45529 14.5784 6.45529H14.539L15.4491 5.04385C15.5152 4.94119 15.363 4.83704 15.24 4.9007Z" fill="#FFE15A"/>
<path d="M8.388 7.57948L0.00195312 11.7329V11.9999H0.985381L9.90767 7.57948H8.388Z" fill="#FF4B55"/>
<path d="M23.9956 11.9999V11.4246L16.2346 7.57948H14.7148L23.6351 11.9999H23.9956Z" fill="#FF4B55"/>
<path d="M23.9978 15.4732C22.7964 15.4732 22.7964 14.9206 21.595 14.9206C20.3944 14.9206 20.3944 15.4732 19.1938 15.4732C17.9943 15.4732 17.9943 14.9206 16.7948 14.9206C15.5954 14.9206 15.5954 15.4732 14.3961 15.4732C13.1964 15.4732 13.1964 14.9206 11.9967 14.9206C10.797 14.9206 10.797 15.4732 9.5973 15.4732C8.39764 15.4732 8.39759 14.9206 7.19793 14.9206C5.99879 14.9206 5.99879 15.4732 4.79959 15.4732C3.60101 15.4732 3.60101 14.9206 2.40248 14.9206C1.20314 14.9206 1.20314 15.4732 0.00390625 15.4732V13.8155C1.20324 13.8155 1.20324 13.263 2.40248 13.263C3.60106 13.263 3.60106 13.8155 4.79959 13.8155C5.99874 13.8155 5.99874 13.263 7.19793 13.263C8.39764 13.263 8.39764 13.8155 9.5973 13.8155C10.797 13.8155 10.797 13.263 11.9967 13.263C13.1964 13.263 13.1964 13.8155 14.3961 13.8155C15.5954 13.8155 15.5954 13.263 16.7948 13.263C17.9943 13.263 17.9943 13.8155 19.1938 13.8155C20.3944 13.8155 20.3944 13.263 21.595 13.263C22.7963 13.263 22.7963 13.8155 23.9978 13.8155V15.4732Z" fill="#41479B"/>
<path d="M23.9978 18.7885C22.7964 18.7885 22.7964 18.2359 21.595 18.2359C20.3944 18.2359 20.3944 18.7885 19.1938 18.7885C17.9943 18.7885 17.9943 18.2359 16.7948 18.2359C15.5954 18.2359 15.5954 18.7885 14.3961 18.7885C13.1964 18.7885 13.1964 18.2359 11.9967 18.2359C10.797 18.2359 10.797 18.7885 9.5973 18.7885C8.39764 18.7885 8.39759 18.2359 7.19793 18.2359C5.99879 18.2359 5.99879 18.7885 4.79959 18.7885C3.60101 18.7885 3.60101 18.2359 2.40248 18.2359C1.20314 18.2359 1.20314 18.7885 0.00390625 18.7885V17.1308C1.20324 17.1308 1.20324 16.5783 2.40248 16.5783C3.60106 16.5783 3.60106 17.1308 4.79959 17.1308C5.99874 17.1308 5.99874 16.5783 7.19793 16.5783C8.39764 16.5783 8.39764 17.1308 9.5973 17.1308C10.797 17.1308 10.797 16.5783 11.9967 16.5783C13.1964 16.5783 13.1964 17.1308 14.3961 17.1308C15.5954 17.1308 15.5954 16.5783 16.7948 16.5783C17.9943 16.5783 17.9943 17.1308 19.1938 17.1308C20.3944 17.1308 20.3944 16.5783 21.595 16.5783C22.7963 16.5783 22.7963 17.1308 23.9978 17.1308V18.7885Z" fill="#41479B"/>
<path d="M23.9978 22.1038C22.7964 22.1038 22.7964 21.5513 21.595 21.5513C20.3944 21.5513 20.3944 22.1038 19.1938 22.1038C17.9943 22.1038 17.9943 21.5513 16.7948 21.5513C15.5954 21.5513 15.5954 22.1038 14.3961 22.1038C13.1964 22.1038 13.1964 21.5513 11.9967 21.5513C10.797 21.5513 10.797 22.1038 9.5973 22.1038C8.39764 22.1038 8.39759 21.5513 7.19793 21.5513C5.99879 21.5513 5.99879 22.1038 4.79959 22.1038C3.60101 22.1038 3.60101 21.5513 2.40248 21.5513C1.20314 21.5513 1.20314 22.1038 0.00390625 22.1038V20.4462C1.20324 20.4462 1.20324 19.8937 2.40248 19.8937C3.60106 19.8937 3.60106 20.4462 4.79959 20.4462C5.99874 20.4462 5.99874 19.8937 7.19793 19.8937C8.39764 19.8937 8.39764 20.4462 9.5973 20.4462C10.797 20.4462 10.797 19.8937 11.9967 19.8937C13.1964 19.8937 13.1964 20.4462 14.3961 20.4462C15.5954 20.4462 15.5954 19.8937 16.7948 19.8937C17.9943 19.8937 17.9943 20.4462 19.1938 20.4462C20.3944 20.4462 20.3944 19.8937 21.595 19.8937C22.7963 19.8937 22.7963 20.4462 23.9978 20.4462V22.1038Z" fill="#41479B"/>
<path d="M9.10647 4.4221L0.183057 0.0016861H0.00146484V0.663461L7.5868 4.4221H9.10647Z" fill="#FF4B55"/>
<path d="M15.5905 4.4221L23.998 0.265074L23.9993 0.0016861H22.9929L14.0708 4.4221H15.5905Z" fill="#FF4B55"/>
<path d="M20.084 23.3381C21.1133 22.808 21.4836 22.0129 21.6185 21.7175C21.8227 21.2701 22.7704 20.9092 22.7704 20.9092C22.7704 20.9092 21.5997 20.9147 20.9732 21.7281C20.3956 22.478 19.3557 22.5425 18.3528 23.1162C18.2571 22.996 18.1588 22.8782 18.0567 22.7637L21.1818 18.9807L17.3988 22.1058C17.2506 21.9737 17.0976 21.8473 16.94 21.7262C17.0397 21.4673 17.2362 21.067 17.622 20.6113C18.3701 19.7276 18.4079 18.8513 18.4195 18.5269C18.4369 18.0353 19.1743 17.3392 19.1743 17.3392C19.1743 17.3392 18.0949 17.7923 17.8273 18.7835C17.5808 19.6968 16.6455 20.1545 15.9387 21.0674C15.8045 20.9927 15.6686 20.9207 15.5299 20.8536L16.9686 16.1655L14.6702 20.4991C14.4832 20.4339 14.2933 20.3748 14.1004 20.3233C14.0935 20.0458 14.1222 19.6016 14.3038 19.0343C14.6568 17.9316 14.3564 17.1075 14.2429 16.8033C14.071 16.3425 14.4857 15.4173 14.4857 15.4173C14.4857 15.4173 13.6619 16.2489 13.7941 17.2671C13.9158 18.2055 13.2265 18.9863 12.9229 20.1009C12.771 20.0836 12.6182 20.0699 12.464 20.0611L11.9988 15.1769L11.5336 20.0611C11.3339 20.0724 11.1365 20.0924 10.9409 20.1179C10.8282 19.8643 10.6841 19.4423 10.6347 18.8472C10.5388 17.6933 9.94595 17.0469 9.7247 16.8093C9.38945 16.4494 9.41866 15.4359 9.41866 15.4359C9.41866 15.4359 8.97579 16.5195 9.48752 17.4095C9.95907 18.2298 9.62125 19.2148 9.76698 20.3603C9.61867 20.4026 9.47209 20.4487 9.32744 20.4992L7.02899 16.1656L8.46767 20.8537C8.28833 20.9406 8.11372 21.0354 7.94202 21.1348C7.74092 20.9436 7.44651 20.6089 7.17332 20.0784C6.64322 19.0491 5.84808 18.6788 5.55273 18.5439C5.10526 18.3397 4.74438 17.3921 4.74438 17.3921C4.74438 17.3921 4.74986 18.5627 5.56327 19.1892C6.31317 19.7668 6.37767 20.8068 6.95142 21.8097C6.83123 21.9053 6.71339 22.0037 6.59887 22.1058L2.81568 18.9807L5.9408 22.7637C5.80871 22.9117 5.68233 23.0649 5.56126 23.2224C5.30232 23.1228 4.90206 22.9263 4.44635 22.5404C3.56272 21.7923 2.6864 21.7545 2.36193 21.7429C1.87036 21.7254 1.17432 20.9882 1.17432 20.9882C1.17432 20.9882 1.62736 22.0675 2.61861 22.3351C3.43793 22.5562 3.89313 23.3305 4.63666 23.9981H19.1395C19.3397 23.8069 19.6401 23.5668 20.084 23.3381Z" fill="#FFE15A"/>
<path d="M22.4804 23.9982L23.9968 23.1938L21.376 23.9982H22.4804Z" fill="#FFE15A"/>
<path d="M0.000488281 23.1938L1.51697 23.9982H2.62138L0.000488281 23.1938Z" fill="#FFE15A"/>
</g>
<defs>
<clipPath id="clip0_72_852">
<path d="M0 2C0 0.895432 0.895431 0 2 0H21.9998C23.1043 0 23.9998 0.895431 23.9998 2V21.9998C23.9998 23.1043 23.1043 23.9998 21.9998 23.9998H2C0.895432 23.9998 0 23.1043 0 21.9998V2Z" fill="white"/>
</clipPath>
</defs>
</svg>
