<svg width="24" height="24" viewBox="0 0 24 24" fill="none" xmlns="http://www.w3.org/2000/svg">
<g clip-path="url(#clip0_72_875)">
<path d="M23.6253 23.9999H0.375485C0.168393 23.9999 0.000488281 23.832 0.000488281 23.6249V0.375103C0.000488281 0.168011 0.168393 0.000106812 0.375485 0.000106812H23.6253C23.8323 0.000106812 24.0003 0.168011 24.0003 0.375103V23.6249C24.0003 23.832 23.8323 23.9999 23.6253 23.9999Z" fill="#F5F5F5"/>
<path d="M24.0008 18.9474C22.7995 18.9474 22.7995 18.3158 21.5981 18.3158C20.3968 18.3158 20.3968 18.9474 19.1955 18.9474C17.995 18.9474 17.995 18.3158 16.7945 18.3158C15.5951 18.3158 15.5951 18.9474 14.3956 18.9474C13.1955 18.9474 13.1956 18.3158 11.9954 18.3158C10.7956 18.3158 10.7956 18.9474 9.59587 18.9474C8.39611 18.9474 8.39611 18.3158 7.19631 18.3158C5.99656 18.3158 5.99656 18.9474 4.79676 18.9474C3.59752 18.9474 3.59752 18.3158 2.39828 18.3158C1.19961 18.3158 1.19961 18.9474 0.000976562 18.9474V17.0526C1.19965 17.0526 1.19965 16.4211 2.39828 16.4211C3.59752 16.4211 3.59752 17.0526 4.79676 17.0526C5.99651 17.0526 5.99651 16.4211 7.19631 16.4211C8.39607 16.4211 8.39607 17.0526 9.59587 17.0526C10.7957 17.0526 10.7957 16.4211 11.9954 16.4211C13.1955 16.4211 13.1955 17.0526 14.3956 17.0526C15.5951 17.0526 15.5951 16.4211 16.7945 16.4211C17.995 16.4211 17.995 17.0526 19.1955 17.0526C20.3968 17.0526 20.3968 16.4211 21.5981 16.4211C22.7994 16.4211 22.7994 17.0526 24.0008 17.0526V18.9474Z" fill="#41479B"/>
<path d="M24.0008 11.3685C22.7995 11.3685 22.7995 10.7369 21.5981 10.7369C20.3968 10.7369 20.3968 11.3685 19.1955 11.3685C17.995 11.3685 17.995 10.7369 16.7945 10.7369C15.5951 10.7369 15.5951 11.3685 14.3956 11.3685C13.1955 11.3685 13.1956 10.7369 11.9954 10.7369C10.7956 10.7369 10.7956 11.3685 9.59587 11.3685C8.39611 11.3685 8.39611 10.7369 7.19631 10.7369C5.99656 10.7369 5.99656 11.3685 4.79676 11.3685C3.59752 11.3685 3.59752 10.7369 2.39828 10.7369C1.19961 10.7369 1.19961 11.3685 0.000976562 11.3685V9.47374C1.19965 9.47374 1.19965 8.84216 2.39828 8.84216C3.59752 8.84216 3.59752 9.47374 4.79676 9.47374C5.99651 9.47374 5.99651 8.84216 7.19631 8.84216C8.39607 8.84216 8.39607 9.47374 9.59587 9.47374C10.7957 9.47374 10.7957 8.84216 11.9954 8.84216C13.1955 8.84216 13.1955 9.47374 14.3956 9.47374C15.5951 9.47374 15.5951 8.84216 16.7945 8.84216C17.995 8.84216 17.995 9.47374 19.1955 9.47374C20.3968 9.47374 20.3968 8.84216 21.5981 8.84216C22.7994 8.84216 22.7994 9.47374 24.0008 9.47374V11.3685Z" fill="#41479B"/>
<path d="M24.0008 7.57903C22.7995 7.57903 22.7995 6.94744 21.5981 6.94744C20.3968 6.94744 20.3968 7.57903 19.1955 7.57903C17.995 7.57903 17.995 6.94744 16.7945 6.94744C15.5951 6.94744 15.5951 7.57903 14.3956 7.57903C13.1955 7.57903 13.1956 6.94744 11.9954 6.94744C10.7956 6.94744 10.7956 7.57903 9.59587 7.57903C8.39611 7.57903 8.39611 6.94744 7.19631 6.94744C5.99656 6.94744 5.99656 7.57903 4.79676 7.57903C3.59752 7.57903 3.59752 6.94744 2.39828 6.94744C1.19961 6.94744 1.19961 7.57903 0.000976562 7.57903V5.68431C1.19965 5.68431 1.19965 5.05272 2.39828 5.05272C3.59752 5.05272 3.59752 5.68431 4.79676 5.68431C5.99651 5.68431 5.99651 5.05272 7.19631 5.05272C8.39607 5.05272 8.39607 5.68431 9.59587 5.68431C10.7957 5.68431 10.7957 5.05272 11.9954 5.05272C13.1955 5.05272 13.1955 5.68431 14.3956 5.68431C15.5951 5.68431 15.5951 5.05272 16.7945 5.05272C17.995 5.05272 17.995 5.68431 19.1955 5.68431C20.3968 5.68431 20.3968 5.05272 21.5981 5.05272C22.7994 5.05272 22.7994 5.68431 24.0008 5.68431V7.57903Z" fill="#41479B"/>
<path d="M24.0007 3.78959C22.7994 3.78959 22.7994 3.15801 21.5981 3.15801C20.3968 3.15801 20.3968 3.78959 19.1954 3.78959C17.9949 3.78959 17.9949 3.15801 16.7945 3.15801C15.5951 3.15801 15.5951 3.78959 14.3956 3.78959C13.1955 3.78959 13.1955 3.15801 11.9954 3.15801C10.7956 3.15801 10.7956 3.78959 9.59582 3.78959C8.39607 3.78959 8.39607 3.15801 7.19627 3.15801C5.99651 3.15801 5.99651 3.78959 4.79671 3.78959C3.59747 3.78959 3.59747 3.15801 2.39823 3.15801C1.19965 3.15801 1.19965 3.78959 0.000976562 3.78959V1.89488C1.19965 1.89488 1.19965 1.26329 2.39828 1.26329C3.59752 1.26329 3.59752 1.89488 4.79676 1.89488C5.99651 1.89488 5.99651 1.26329 7.19631 1.26329C8.39607 1.26329 8.39607 1.89488 9.59587 1.89488C10.7957 1.89488 10.7957 1.26329 11.9954 1.26329C13.1955 1.26329 13.1955 1.89488 14.3956 1.89488C15.5951 1.89488 15.5951 1.26329 16.7945 1.26329C17.995 1.26329 17.995 1.89488 19.1955 1.89488C20.3968 1.89488 20.3968 1.26329 21.5981 1.26329C22.7994 1.26329 22.7994 1.89488 24.0008 1.89488V3.78959H24.0007Z" fill="#41479B"/>
<path d="M24.0008 15.1579C22.7995 15.1579 22.7995 14.5263 21.5981 14.5263C20.3968 14.5263 20.3968 15.1579 19.1955 15.1579C17.995 15.1579 17.995 14.5263 16.7945 14.5263C15.5951 14.5263 15.5951 15.1579 14.3956 15.1579C13.1955 15.1579 13.1956 14.5263 11.9954 14.5263C10.7956 14.5263 10.7956 15.1579 9.59587 15.1579C8.39611 15.1579 8.39611 14.5263 7.19631 14.5263C5.99656 14.5263 5.99656 15.1579 4.79676 15.1579C3.59752 15.1579 3.59752 14.5263 2.39828 14.5263C1.19961 14.5263 1.19961 15.1579 0.000976562 15.1579V13.2632C1.19965 13.2632 1.19965 12.6316 2.39828 12.6316C3.59752 12.6316 3.59752 13.2632 4.79676 13.2632C5.99651 13.2632 5.99651 12.6316 7.19631 12.6316C8.39607 12.6316 8.39607 13.2632 9.59587 13.2632C10.7957 13.2632 10.7957 12.6316 11.9954 12.6316C13.1955 12.6316 13.1955 13.2632 14.3956 13.2632C15.5951 13.2632 15.5951 12.6316 16.7945 12.6316C17.995 12.6316 17.995 13.2632 19.1955 13.2632C20.3968 13.2632 20.3968 12.6316 21.5981 12.6316C22.7994 12.6316 22.7994 13.2632 24.0008 13.2632V15.1579Z" fill="#41479B"/>
<path d="M24.0008 22.7368C22.7995 22.7368 22.7995 22.1052 21.5981 22.1052C20.3968 22.1052 20.3968 22.7368 19.1955 22.7368C17.995 22.7368 17.995 22.1052 16.7945 22.1052C15.5951 22.1052 15.5951 22.7368 14.3956 22.7368C13.1955 22.7368 13.1956 22.1052 11.9954 22.1052C10.7956 22.1052 10.7956 22.7368 9.59587 22.7368C8.39611 22.7368 8.39611 22.1052 7.19631 22.1052C5.99656 22.1052 5.99656 22.7368 4.79676 22.7368C3.59752 22.7368 3.59752 22.1052 2.39828 22.1052C1.19961 22.1052 1.19961 22.7368 0.000976562 22.7368V20.8421C1.19965 20.8421 1.19965 20.2105 2.39828 20.2105C3.59752 20.2105 3.59752 20.8421 4.79676 20.8421C5.99651 20.8421 5.99651 20.2105 7.19631 20.2105C8.39607 20.2105 8.39607 20.8421 9.59587 20.8421C10.7957 20.8421 10.7957 20.2105 11.9954 20.2105C13.1955 20.2105 13.1955 20.8421 14.3956 20.8421C15.5951 20.8421 15.5951 20.2105 16.7945 20.2105C17.995 20.2105 17.995 20.8421 19.1955 20.8421C20.3968 20.8421 20.3968 20.2105 21.5981 20.2105C22.7994 20.2105 22.7994 20.8421 24.0008 20.8421V22.7368Z" fill="#41479B"/>
<path d="M18.5736 21.6528H18.4193C18.2759 21.6528 18.1597 21.5366 18.1597 21.3932V10.5394H18.8332V21.3932C18.8332 21.5366 18.717 21.6528 18.5736 21.6528Z" fill="#965032"/>
<path d="M23.2113 11.8865L22.5378 11.5497L20.0579 11.2397L21.5923 9.26697L21.8304 8.55261L21.116 8.79073L19.1433 10.325L18.8333 7.84522L18.4965 7.17168L18.1598 7.84522L17.8498 10.325L15.8771 8.79073L15.1627 8.55261L15.4008 9.26697L16.9351 11.2397L14.4553 11.5497L13.7817 11.8865L14.4553 12.2233L16.9351 12.5332L15.4008 14.5059L15.1627 15.2203L15.8771 14.9822L18.0203 13.3153L18.4965 12.56L18.9728 13.3153L21.116 14.9822L21.8304 15.2203L21.5923 14.5059L20.0579 12.5332L22.5378 12.2233L23.2113 11.8865Z" fill="#73AF00"/>
<path d="M19.9624 15.8086C19.6598 15.5066 19.0117 15.6176 18.6647 15.7052V15.4225C18.6647 15.3295 18.5893 15.2542 18.4963 15.2542C18.4033 15.2542 18.3279 15.3295 18.3279 15.4225V15.7051C17.981 15.6173 17.333 15.5063 17.0301 15.8086C16.7415 16.0972 16.9506 16.7928 17.1492 17.2764V17.7242C17.1492 17.848 17.2495 17.9483 17.3733 17.9483H19.6193C19.7431 17.9483 19.8434 17.848 19.8434 17.7242V17.2764C20.042 16.7928 20.2511 16.0972 19.9624 15.8086ZM19.7243 16.0468C19.8528 16.1754 19.7089 16.7393 19.4769 17.2748H18.6647V16.053C19.0428 15.946 19.5606 15.8828 19.7243 16.0468ZM17.2683 16.0468C17.4319 15.8828 17.9497 15.946 18.3279 16.053V17.2748H17.5157C17.2837 16.7393 17.1397 16.1754 17.2683 16.0468Z" fill="#FFE15A"/>
<path d="M4.42248 0.000213623H0.00146484V0.936626L4.42248 3.83315V0.000213623Z" fill="#41479B"/>
<path d="M0.00146484 3.2017V4.42124H1.86285L0.00146484 3.2017Z" fill="#41479B"/>
<path d="M0.00146484 7.57908V8.79862L1.86285 7.57908H0.00146484Z" fill="#41479B"/>
<path d="M12.0011 0.936626V0.000213623H7.58008V3.83315L12.0011 0.936626Z" fill="#41479B"/>
<path d="M12.001 8.79862V7.57908H10.1396L12.001 8.79862Z" fill="#41479B"/>
<path d="M7.58008 8.16716V12.0001H12.0011V11.0637L7.58008 8.16716Z" fill="#41479B"/>
<path d="M12.001 4.42124V3.2017L10.1396 4.42124H12.001Z" fill="#41479B"/>
<path d="M0.00146484 11.0637V12.0001H4.42248V8.16716L0.00146484 11.0637Z" fill="#41479B"/>
<path d="M12.0013 11.0637V10.1279L8.0747 7.57907H9.23475L12.0013 9.37489V8.79861L10.1399 7.57907H12.0013V6.94749H6.94873V12.0001H7.58027V8.16716L12.0013 11.0637Z" fill="#F5F5F5"/>
<path d="M0.00146484 6.94749V7.57907H1.86285L0.00146484 8.79861V9.68459L3.24504 7.57907H4.40509L0.00146484 10.4376V11.0637L4.42248 8.16716V12.0001H5.05402V6.94749H0.00146484Z" fill="#F5F5F5"/>
<path d="M5.05402 0.000213623H4.42248V3.83315L0.00146484 0.936626V1.9614L3.7909 4.42123H2.63085L0.00146484 2.71444V3.2017L1.86285 4.42123H0.00146484V5.05282H5.05402V0.000213623Z" fill="#F5F5F5"/>
<path d="M12.0013 5.05282V4.42123H10.1399L12.0013 3.2017V2.30443L8.74032 4.42123H7.58027L12.0013 1.55143V0.936626L7.58027 3.83315V0.000213623H6.94873V5.05282H12.0013Z" fill="#F5F5F5"/>
<path d="M12.0013 6.94749V5.05282H6.94879V0.000213623H5.05402V5.05282H0.00146484V6.94749H5.05402V12.0001H6.94879V6.94749H12.0013Z" fill="#FF4B55"/>
<path d="M3.24504 7.57908L0.00146484 9.68459V10.4376L4.40509 7.57908H3.24504Z" fill="#FF4B55"/>
<path d="M8.07471 7.57908L12.0013 10.1279V9.37489L9.23476 7.57908H8.07471Z" fill="#FF4B55"/>
<path d="M3.7909 4.42124L0.00146484 1.9614V2.71444L2.63085 4.42124H3.7909Z" fill="#FF4B55"/>
<path d="M8.74013 4.42123L12.0011 2.30443V1.55143L7.58008 4.42123H8.74013Z" fill="#FF4B55"/>
</g>
<defs>
<clipPath id="clip0_72_875">
<path d="M0 2C0 0.895428 0.895431 0 2 0H21.9999C23.1044 0 23.9999 0.895431 23.9999 2V21.9999C23.9999 23.1044 23.1044 23.9999 21.9999 23.9999H2C0.895428 23.9999 0 23.1044 0 21.9999V2Z" fill="white"/>
</clipPath>
</defs>
</svg>
