<svg width="24" height="24" viewBox="0 0 24 24" fill="none" xmlns="http://www.w3.org/2000/svg">
<g clip-path="url(#clip0_72_1015)">
<path d="M7.99861 6.10352e-05H-0.00146484V23.9998H7.99861V6.10352e-05Z" fill="#F5F5F5"/>
<path d="M15.9986 6.10352e-05H7.99854V23.9998H15.9986V6.10352e-05Z" fill="#4173CD"/>
<path d="M23.9981 6.10352e-05H15.998V23.9998H23.9981V6.10352e-05Z" fill="#FFE15A"/>
<path d="M10.7509 12.4568C10.7462 12.5804 10.5608 12.6326 10.5608 12.6326C10.5419 12.4236 10.7557 12.0387 10.7985 12.0054C10.8412 11.9721 11.0123 11.8153 10.8412 11.8486C10.6702 11.8818 10.5038 12.2668 10.4658 12.3333C10.4278 12.3998 10.3375 12.3951 10.3375 12.3951C10.3375 12.3951 10.3375 12.0862 10.3375 12.0197C10.3375 11.9532 10.6321 11.8106 10.6321 11.8106C10.6321 11.8106 10.6797 11.5255 10.6369 11.497C10.5941 11.4685 10.5038 11.5493 10.3756 11.5588C10.2473 11.5683 10.0905 11.5731 9.95739 11.6966C9.82436 11.8202 9.81957 11.9057 9.81957 12.1148C9.81957 12.3239 9.81957 12.1148 9.81957 12.6185C9.81957 13.1221 9.34914 13.4738 9.17336 13.6496C9.1255 13.6974 9.10713 13.7559 9.10563 13.8174C9.07033 13.8505 8.99238 13.8987 8.92722 13.8847C8.82715 13.8632 8.81224 13.6873 8.81224 13.5843C8.81224 13.5528 8.78674 13.5273 8.75524 13.5273C8.72374 13.5273 8.69824 13.5528 8.69824 13.5843C8.69824 13.9326 8.84651 13.9947 8.93491 14.0007C8.93974 14.001 8.94466 14.0011 8.94963 14.0011C9.00818 14.0011 9.07108 13.9779 9.12339 13.9458C9.15738 14.0688 9.22896 14.183 9.24949 14.2293C9.2875 14.3148 9.07844 14.4526 9.07844 14.4526L9.24949 14.98H9.48231C9.48231 14.8494 9.32313 14.8755 9.29936 14.8422C9.2756 14.8089 9.2471 14.5072 9.2471 14.5072L9.57747 14.2308C9.60297 14.2095 9.61773 14.1779 9.61773 14.1447V13.9976C9.61773 13.9976 9.86007 14.0367 9.92064 14.0902C9.9812 14.1437 9.92776 14.3041 9.92776 14.3254C9.92776 14.3468 10.2342 14.6177 10.2342 14.6177H10.4445C10.4445 14.5214 10.3447 14.525 10.2948 14.5072C10.245 14.4894 10.0952 14.304 10.0952 14.304C10.0952 14.304 10.176 14.0533 10.176 13.9916C10.176 13.9299 9.82914 13.678 9.82914 13.678C9.82914 13.678 9.87667 13.5973 10.2283 13.3787C10.5799 13.1601 10.5514 12.913 10.5514 12.913L10.8555 12.5709V12.3238C10.8555 12.3238 10.7557 12.3333 10.7509 12.4568Z" fill="#C17400"/>
<path d="M13.2576 12.4568C13.2623 12.5804 13.4477 12.6326 13.4477 12.6326C13.4667 12.4236 13.2529 12.0387 13.2101 12.0054C13.1673 11.9721 12.9962 11.8153 13.1673 11.8486C13.3384 11.8818 13.5047 12.2668 13.5427 12.3333C13.5807 12.3998 13.671 12.3951 13.671 12.3951C13.671 12.3951 13.671 12.0862 13.671 12.0197C13.671 11.9532 13.3764 11.8106 13.3764 11.8106C13.3764 11.8106 13.3289 11.5255 13.3716 11.497C13.4144 11.4685 13.5047 11.5493 13.633 11.5588C13.7613 11.5683 13.9181 11.5731 14.0511 11.6966C14.1842 11.8202 14.189 11.9057 14.189 12.1148C14.189 12.3239 14.189 12.1148 14.189 12.6185C14.189 13.1221 14.6594 13.4738 14.8352 13.6496C14.883 13.6974 14.9014 13.7559 14.9029 13.8174C14.9382 13.8505 15.0161 13.8987 15.0813 13.8847C15.1814 13.8632 15.1963 13.6873 15.1963 13.5843C15.1963 13.5528 15.2218 13.5273 15.2533 13.5273C15.2848 13.5273 15.3103 13.5528 15.3103 13.5843C15.3103 13.9326 15.162 13.9947 15.0736 14.0007C15.0688 14.001 15.0639 14.0011 15.0589 14.0011C15.0003 14.0011 14.9374 13.9779 14.8851 13.9458C14.8511 14.0688 14.7796 14.183 14.759 14.2293C14.721 14.3148 14.9301 14.4526 14.9301 14.4526L14.759 14.98H14.5262C14.5262 14.8494 14.6854 14.8755 14.7092 14.8422C14.7329 14.8089 14.7614 14.5072 14.7614 14.5072L14.4311 14.2308C14.4056 14.2095 14.3908 14.1779 14.3908 14.1447V13.9976C14.3908 13.9976 14.1485 14.0367 14.0879 14.0902C14.0273 14.1437 14.0808 14.3041 14.0808 14.3254C14.0808 14.3468 13.7743 14.6177 13.7743 14.6177H13.564C13.564 14.5214 13.6638 14.525 13.7137 14.5072C13.7636 14.4894 13.9133 14.304 13.9133 14.304C13.9133 14.304 13.8325 14.0533 13.8325 13.9916C13.8325 13.9299 14.1794 13.678 14.1794 13.678C14.1794 13.678 14.1319 13.5973 13.7803 13.3787C13.4286 13.1601 13.4571 12.913 13.4571 12.913L13.153 12.5709V12.3238C13.153 12.3238 13.2528 12.3333 13.2576 12.4568Z" fill="#C17400"/>
<path d="M11.5453 12.1313L11.2031 12.4734H11.8874L11.5453 12.1313Z" fill="#C8C8C8"/>
<path d="M12.4578 12.1313L12.1157 12.4734H12.7999L12.4578 12.1313Z" fill="#C8C8C8"/>
<path d="M11.5453 12.7015L11.2031 13.0436H11.8874L11.5453 12.7015Z" fill="#C8C8C8"/>
<path d="M12.4578 12.7015L12.1157 13.0436H12.7999L12.4578 12.7015Z" fill="#C8C8C8"/>
<path d="M11.5453 13.2717L11.2031 13.6138H11.8874L11.5453 13.2717Z" fill="#C8C8C8"/>
<path d="M12.4578 13.2717L12.1157 13.6138H12.7999L12.4578 13.2717Z" fill="#C8C8C8"/>
<path d="M12.0013 13.8419L11.6592 14.184H12.3434L12.0013 13.8419Z" fill="#C8C8C8"/>
<path d="M12.0574 10.3068H11.9434V10.991H12.0574V10.3068Z" fill="#FFE15A"/>
<path d="M11.375 11.0046C11.3731 10.9973 11.3311 10.8222 11.449 10.6946C11.5529 10.5821 11.7418 10.5479 12.0099 10.5925L11.9912 10.705C11.7663 10.6673 11.6078 10.6906 11.5328 10.7719C11.4575 10.8536 11.4853 10.9758 11.4856 10.977L11.375 11.0046Z" fill="#FFE15A"/>
<path d="M11.0624 11.384C10.9199 11.3127 10.8499 11.1058 10.9095 10.9321C10.9345 10.8592 11.0467 10.6278 11.4413 10.7069L11.4189 10.8187C11.2105 10.7767 11.0644 10.832 11.0174 10.969C10.9767 11.0874 11.0225 11.2365 11.1134 11.282L11.0624 11.384Z" fill="#FFE15A"/>
<path d="M12.6255 11.0046L12.515 10.977L12.5703 10.9909L12.5149 10.9773C12.5152 10.976 12.5435 10.8531 12.4672 10.7713C12.3918 10.6904 12.2335 10.6675 12.0094 10.705L11.9907 10.5925C12.2591 10.5477 12.4478 10.5821 12.5516 10.6946C12.6695 10.8223 12.6274 10.9973 12.6255 11.0046Z" fill="#FFE15A"/>
<path d="M12.9379 11.384L12.8869 11.282C12.9778 11.2366 13.0236 11.0874 12.983 10.9691C12.9359 10.832 12.7896 10.7768 12.5815 10.8187L12.5591 10.7069C12.9538 10.628 13.0658 10.8594 13.0909 10.9321C13.1505 11.1058 13.0804 11.3127 12.9379 11.384Z" fill="#FFE15A"/>
<path d="M12.4576 10.9909C12.4576 10.9909 12.2296 10.8769 12.0015 10.8769C11.7734 10.8769 11.5453 10.9909 11.5453 10.9909C11.3172 10.8769 10.9751 10.9909 10.9751 11.219C10.9751 11.4471 11.3172 11.7892 11.3172 11.7892H12.0015H12.6857C12.6857 11.7892 13.0278 11.4471 13.0278 11.219C13.0279 10.9909 12.6857 10.8769 12.4576 10.9909Z" fill="#FF4B55"/>
<path d="M12.1153 10.3636H11.8872V10.4776H12.1153V10.3636Z" fill="#FFE15A"/>
<path d="M13.1412 9.73641H10.8604V10.1926H13.1412V9.73641Z" fill="#C8C8C8"/>
<path d="M11.1418 10.3546L11.0337 10.0301L10.3494 10.258L10.4576 10.5826L11.1418 10.3546Z" fill="#C8C8C8"/>
<path d="M13.6515 10.2584L12.9673 10.0303L12.8591 10.3548L13.5434 10.5829L13.6515 10.2584Z" fill="#C8C8C8"/>
<path d="M12.0016 14.5832C11.3414 14.5832 10.8042 14.2507 10.8042 13.8419V11.9032C10.8042 11.8089 10.8809 11.7322 10.9752 11.7322H13.028C13.1223 11.7322 13.199 11.8089 13.199 11.9032V13.8419C13.199 14.2507 12.6618 14.5832 12.0016 14.5832ZM10.9752 11.8462C10.9438 11.8462 10.9182 11.8718 10.9182 11.9032V13.8419C10.9182 14.1877 11.4042 14.4691 12.0017 14.4691C12.599 14.4691 13.085 14.1877 13.085 13.8419V11.9032C13.085 11.8718 13.0595 11.8462 13.028 11.8462H10.9752Z" fill="#464655"/>
</g>
<defs>
<clipPath id="clip0_72_1015">
<path d="M0 2C0 0.895432 0.895431 0 2 0H21.9998C23.1043 0 23.9998 0.895431 23.9998 2V21.9998C23.9998 23.1043 23.1043 23.9998 21.9998 23.9998H2C0.895432 23.9998 0 23.1043 0 21.9998V2Z" fill="white"/>
</clipPath>
</defs>
</svg>
