<svg width="24" height="24" viewBox="0 0 24 24" fill="none" xmlns="http://www.w3.org/2000/svg">
<g clip-path="url(#clip0_72_1060)">
<path d="M23.9978 6.10352e-05H-0.00195312V23.9998H23.9978V6.10352e-05Z" fill="#41479B"/>
<path d="M18.5356 12.2508C18.5356 12.2508 18.3379 11.4598 17.7446 11.0643C17.7446 11.0643 18.3379 12.0531 18.3379 12.8441L18.5356 12.2508Z" fill="#FFE15A"/>
<path d="M17.6211 11.3918C17.6211 11.3918 18.0351 11.6452 18.2576 12.0592L18.0784 12.4733C18.0784 12.4733 17.9301 11.8862 17.6211 11.3918Z" fill="#FFE15A"/>
<path d="M17.1636 11.4845C17.1636 11.4845 17.8804 11.707 18.2203 12.1705L18.0164 12.4795C18.0164 12.4795 17.7445 11.9542 17.1636 11.4845Z" fill="#FFE15A"/>
<path d="M17.0586 11.8429C17.0586 11.8429 17.8125 11.9604 18.1524 12.3188L18.0659 12.6587C18.0659 12.6587 17.6519 12.1643 17.0586 11.8429Z" fill="#FFE15A"/>
<path d="M17.0835 12.0901C17.0835 12.0901 17.8127 12.1643 18.1464 12.5475C18.4801 12.9306 18.0228 12.8132 18.0228 12.8132C18.0228 12.8132 17.6397 12.3744 17.0835 12.0901Z" fill="#FFE15A"/>
<path d="M18.5356 12.2508C18.5356 12.2508 18.7334 11.4598 19.3267 11.0643C19.3267 11.0643 18.7334 12.0531 18.7334 12.8441L18.5356 12.2508Z" fill="#FFE15A"/>
<path d="M19.45 11.3918C19.45 11.3918 19.0359 11.6452 18.8135 12.0592L18.9927 12.4733C18.9927 12.4733 19.141 11.8862 19.45 11.3918Z" fill="#FFE15A"/>
<path d="M19.9073 11.4845C19.9073 11.4845 19.1905 11.707 18.8506 12.1705L19.0545 12.4795C19.0545 12.4795 19.3265 11.9542 19.9073 11.4845Z" fill="#FFE15A"/>
<path d="M20.0123 11.8429C20.0123 11.8429 19.2583 11.9604 18.9185 12.3188L19.005 12.6587C19.005 12.6587 19.419 12.1643 20.0123 11.8429Z" fill="#FFE15A"/>
<path d="M19.9875 12.0901C19.9875 12.0901 19.2583 12.1643 18.9246 12.5475C18.5909 12.9306 19.0482 12.8132 19.0482 12.8132C19.0482 12.8132 19.4314 12.3744 19.9875 12.0901Z" fill="#FFE15A"/>
<path d="M18.5356 11.0643C18.5356 11.0643 18.3379 11.4804 18.5356 11.6885C18.7334 11.4804 18.5356 11.0643 18.5356 11.0643Z" fill="#FFE15A"/>
<path d="M18.3386 11.1676C18.3386 11.1676 18.3121 11.6275 18.5736 11.7458C18.6785 11.4786 18.3386 11.1676 18.3386 11.1676Z" fill="#FFE15A"/>
<path d="M18.7326 11.1676C18.7326 11.1676 18.7591 11.6275 18.4976 11.7458C18.3928 11.4786 18.7326 11.1676 18.7326 11.1676Z" fill="#FFE15A"/>
<path d="M18.7974 11.4329C18.7974 11.4329 18.6249 11.86 18.3379 11.8553C18.3572 11.5689 18.7974 11.4329 18.7974 11.4329Z" fill="#FFE15A"/>
<path d="M18.2739 11.4329C18.2739 11.4329 18.4465 11.86 18.7335 11.8553C18.7141 11.5689 18.2739 11.4329 18.2739 11.4329Z" fill="#FFE15A"/>
<path d="M18.5376 13.2395C18.8652 13.2395 19.1308 12.8854 19.1308 12.4485C19.1308 12.0117 18.8652 11.6575 18.5376 11.6575C18.2099 11.6575 17.9443 12.0117 17.9443 12.4485C17.9443 12.8854 18.2099 13.2395 18.5376 13.2395Z" fill="#FFD255"/>
<path d="M17.179 13.256L17.0431 13.0459C17.0431 13.0459 16.6476 13.1407 16.5528 12.844L16.4004 12.8317C16.4004 12.8317 16.421 12.6298 16.5982 12.6009C16.5982 12.6009 16.7053 12.4691 16.8948 12.4938C17.0843 12.5185 17.1831 12.6792 17.2924 12.7204C17.4015 12.7616 17.4139 12.8976 17.4139 12.8976L18.2461 13.7504C18.2461 13.7504 18.0072 14.0553 17.7929 14.1541C17.5786 14.253 16.7917 13.771 17.179 13.256Z" fill="#73AF00"/>
<path d="M19.8819 13.4126C19.8819 13.4126 20.2279 13.6474 20.2403 14.2963H19.6656C19.6656 14.2963 19.6718 13.8576 19.5605 13.6227L19.8819 13.4126Z" fill="#73AF00"/>
<path d="M19.8076 13.4373C19.8076 13.4373 20.2402 13.5794 20.506 13.2395L20.0548 13.1777L19.8076 13.4373Z" fill="#73AF00"/>
<path d="M19.6778 12.9615L20.1171 13.1095C20.1725 13.1282 20.192 13.1968 20.1532 13.2405C19.9866 13.4282 19.4891 13.8781 18.687 13.8781C17.6426 13.8781 17.3728 13.221 17.3604 13.1716C17.3481 13.1221 17.2925 12.7205 17.2925 12.7205L17.7374 12.671L19.6778 12.9615Z" fill="#73AF00"/>
<path d="M15.4079 19.0119H16.5581L15.9649 20.1611L15.3716 19.3701L15.4079 19.0119Z" fill="#FF4B55"/>
<path d="M21.6635 19.0119H20.5132L21.1065 20.1611L21.6997 19.3701L21.6635 19.0119Z" fill="#FF4B55"/>
<path d="M15.403 20.9521C14.8356 20.9521 14.4013 20.6475 14.3789 20.6317L14.8362 19.9861C14.84 19.9886 15.2231 20.2489 15.6138 20.1305C16.0092 20.0112 16.2687 19.5446 16.4169 19.174L17.1513 19.468C16.8397 20.247 16.3954 20.7258 15.8308 20.8913C15.6831 20.9345 15.5391 20.9521 15.403 20.9521Z" fill="#FFD25A"/>
<path d="M21.6682 20.9521C22.2357 20.9521 22.67 20.6475 22.6924 20.6317L22.2351 19.9861C22.2313 19.9886 21.8482 20.2489 21.4575 20.1305C21.0621 20.0112 20.8026 19.5446 20.6544 19.174L19.9199 19.468C20.2315 20.247 20.6759 20.7258 21.2405 20.8913C21.3881 20.9345 21.5321 20.9521 21.6682 20.9521Z" fill="#FFD25A"/>
<path d="M21.1084 16.7992H15.9668V14.8012C15.9668 14.5941 16.1347 14.4262 16.3418 14.4262H20.7334C20.9405 14.4262 21.1084 14.5941 21.1084 14.8012V16.7992Z" fill="#FF4B55"/>
<path d="M17.3701 15.8106L17.3084 15.415C17.0179 15.4027 16.8511 15.0628 16.8511 15.0628L16.6162 15.1926C16.8634 15.7859 17.3701 15.8106 17.3701 15.8106Z" fill="#FFE15A"/>
<path d="M20.4662 15.4027C20.5527 15.3368 20.7422 15.3121 20.7422 15.3121C20.6063 15.172 20.4579 15.2709 20.4579 15.2709C20.5815 15.1555 20.5115 14.9907 20.5115 14.9907C20.5115 15.0443 20.425 15.0814 20.425 15.0814C20.4291 14.9742 20.3179 14.8713 20.3179 14.8713L20.2601 14.966C20.2231 14.8754 20.0913 14.8053 20.0913 14.8053L20.0377 15.0278C19.9141 14.9207 19.6957 14.9289 19.6957 14.9289L19.7369 15.0319C19.6051 15.0361 19.2467 15.1102 19.0365 15.1349C18.8264 15.1596 18.6575 15.102 18.6575 15.0072C18.6575 14.9279 18.8412 14.918 18.9206 14.9169C18.9768 14.9294 19.0475 14.9496 19.1467 14.9794C19.3321 15.0351 19.4407 14.9545 19.4407 14.9545C19.3759 14.9298 19.3686 14.901 19.3686 14.901C19.5076 14.8206 19.638 14.8404 19.638 14.8404C19.5917 14.7384 19.3909 14.7446 19.3909 14.7446C19.4434 14.7168 19.4836 14.6303 19.4836 14.6303C19.4712 14.6427 19.357 14.6707 19.2011 14.6916C19.0838 14.7074 18.9736 14.7966 18.9281 14.8378C18.8044 14.8284 18.4812 14.8244 18.538 15.0485C18.6081 15.3245 19.1643 15.2257 19.5062 15.1721C19.8482 15.1186 20.0253 15.1638 20.0995 15.2092C20.1736 15.2545 20.0679 15.408 19.7204 15.3451C19.4202 15.2908 19.2548 15.2892 19.164 15.2987C19.0634 15.3052 18.9775 15.3323 18.9171 15.3451C18.7811 15.3739 18.2579 15.5594 18.159 15.2916C18.0601 15.0238 17.5781 15.7283 17.5781 15.7283L17.6157 15.7731L17.4874 15.7427C17.3144 15.9744 16.7953 16.0455 16.7953 16.0455C16.7953 16.0455 16.718 15.9065 16.6532 15.8879C16.5883 15.8693 16.5604 15.9713 16.5604 15.9713C16.5604 15.9713 16.4832 15.9744 16.477 16.0455C16.4708 16.1166 16.5326 16.1227 16.5326 16.1227C16.5326 16.1227 16.4585 16.2309 16.5821 16.2618C16.5821 16.2618 16.5728 16.4132 16.7551 16.3081C17.2966 16.3764 17.6916 16.0983 17.8626 15.9466C17.9744 15.9538 18.1486 15.9503 18.2826 15.8807C18.4968 15.7695 18.744 15.6294 18.8882 15.683C18.8882 15.683 19.0035 16.0373 18.5504 16.0455C18.5504 16.0455 18.4833 15.9607 18.4158 15.9607C18.3867 15.9607 18.3565 15.9957 18.3658 16.0271C18.3658 16.0271 18.2867 16.0224 18.2728 16.069C18.2614 16.107 18.289 16.1504 18.3472 16.1434C18.3472 16.1434 18.3076 16.2016 18.3472 16.2365C18.3868 16.2713 18.4356 16.2365 18.4356 16.2365C18.4356 16.2365 18.4147 16.3086 18.4635 16.3156C18.5054 16.3215 18.5607 16.2533 18.5765 16.2325C18.649 16.2438 19.1439 16.3009 19.2507 15.7819C19.2507 15.7819 19.4979 15.889 19.741 15.8684C19.9841 15.8478 20.223 15.8849 20.2024 16.0043C20.1754 16.0909 20.1223 16.0852 20.1223 16.0852C20.0642 16.062 19.9664 16.0643 19.9525 16.1481C19.9385 16.2318 20.0525 16.2341 20.0525 16.2341C20.0851 16.3109 20.1782 16.2783 20.1782 16.2783C20.2596 16.3365 20.3131 16.2737 20.3131 16.2737C20.348 16.3039 20.3841 16.3096 20.4178 16.2807C20.4504 16.2528 20.4321 16.0666 20.429 16.0002C20.4239 15.8897 20.4084 15.6006 20.2478 15.5965C20.0871 15.5924 19.8811 15.6871 19.5968 15.4482C19.582 15.4357 19.5675 15.4278 19.5528 15.4171C19.6873 15.4296 19.7837 15.4661 19.8769 15.4811C20.0047 15.5016 20.3796 15.4686 20.4662 15.4027Z" fill="#FFE15A"/>
<path d="M16.6161 15.1926C16.6161 15.1926 16.5373 15.1947 16.4987 15.1833C16.4326 15.1638 16.4245 15.0597 16.4956 15.0412C16.4956 15.0412 16.4101 14.983 16.4492 14.9176C16.4806 14.8652 16.5606 14.8653 16.5884 14.8962C16.5884 14.8962 16.5623 14.8101 16.6377 14.7816C16.6977 14.759 16.7459 14.828 16.7459 14.9176C16.7459 14.9176 16.8355 14.8446 16.8818 14.8929C16.9141 14.9265 16.9048 14.9707 16.8509 15.0628C16.796 15.1568 16.6161 15.1926 16.6161 15.1926Z" fill="#FFE15A"/>
<path d="M16.5183 15.1544C16.5183 15.1544 16.4765 15.2265 16.3555 15.1823C16.3555 15.1823 16.4601 15.1335 16.4741 15.0916L16.5183 15.1544Z" fill="#41479B"/>
<path d="M16.4742 14.9427C16.4742 14.9427 16.409 14.9008 16.3369 14.9031C16.3369 14.9031 16.4439 14.824 16.5347 14.8938L16.4742 14.9427Z" fill="#41479B"/>
<path d="M16.6254 14.831C16.6254 14.831 16.6464 14.7542 16.6045 14.7124C16.6045 14.7124 16.6906 14.7496 16.7022 14.8194L16.6254 14.831Z" fill="#41479B"/>
<path d="M16.8164 14.9101C16.8164 14.9101 16.8583 14.817 16.821 14.7728C16.821 14.7728 16.9327 14.838 16.8862 14.945L16.8164 14.9101Z" fill="#41479B"/>
<path d="M16.5982 15.9441C16.5982 15.9441 16.5534 15.8524 16.4956 15.8528C16.4956 15.8528 16.6171 15.8086 16.6696 15.9128L16.5982 15.9441Z" fill="#41479B"/>
<path d="M16.5006 16.0608C16.5006 16.0608 16.4207 15.9973 16.3687 16.0225C16.3687 16.0225 16.4593 15.9303 16.5516 16.0017L16.5006 16.0608Z" fill="#41479B"/>
<path d="M16.5564 16.2257C16.5564 16.2257 16.4544 16.2245 16.4287 16.2763C16.4287 16.2763 16.4438 16.1479 16.5604 16.1478L16.5564 16.2257Z" fill="#41479B"/>
<path d="M16.6497 16.3316C16.6497 16.3316 16.6078 16.4038 16.4868 16.3596C16.4868 16.3596 16.5915 16.3107 16.6055 16.2688L16.6497 16.3316Z" fill="#41479B"/>
<path d="M18.4884 16.295C18.4884 16.295 18.4541 16.3541 18.355 16.3179C18.355 16.3179 18.4354 16.2891 18.4469 16.2548L18.4884 16.295Z" fill="#41479B"/>
<path d="M17.4415 15.0195C17.4415 15.0195 17.2189 15.3985 17.2725 15.9464C17.2725 15.9464 17.9286 15.8507 18.2128 15.1956C18.2128 15.1956 18.2821 15.1676 18.3091 15.1004C18.3321 15.0431 18.3302 14.949 18.22 14.9495C18.22 14.9495 18.2529 14.8836 18.2931 14.8681C18.2931 14.8681 18.2221 14.8403 18.1386 14.8588C18.1386 14.8588 18.2035 14.7939 18.2035 14.7105C18.2035 14.7105 18.1046 14.7754 18.0428 14.7816C18.0428 14.7816 18.0366 14.6796 18.0614 14.6672C18.0614 14.6672 17.9316 14.6796 17.8667 14.7476C17.8667 14.7476 17.8234 14.6889 17.8265 14.6271C17.8265 14.6271 17.706 14.6796 17.6597 14.7569C17.6597 14.7569 17.6226 14.7167 17.6257 14.6765C17.6257 14.6765 17.5391 14.7816 17.5206 14.8372C17.5206 14.8372 17.4391 14.8148 17.4032 14.8805C17.3774 14.9278 17.3833 14.9799 17.4415 15.0195Z" fill="#FFD255"/>
<path d="M18.3882 16.0191C18.3882 16.0191 18.3618 15.9694 18.2827 15.9586C18.2827 15.9586 18.3835 15.9121 18.4471 15.9788L18.3882 16.0191Z" fill="#41479B"/>
<path d="M20.0235 16.2075C20.0235 16.2075 19.9657 16.2257 19.9387 16.3075C19.9387 16.3075 19.9091 16.1915 19.9923 16.1371L20.0235 16.2075Z" fill="#41479B"/>
<path d="M20.1452 16.2502C20.1452 16.2502 20.0905 16.3034 20.0931 16.3895C20.0931 16.3895 20.0255 16.2906 20.0851 16.2109L20.1452 16.2502Z" fill="#41479B"/>
<path d="M20.4065 16.2455C20.4065 16.2455 20.3899 16.3019 20.4399 16.362C20.4399 16.362 20.3363 16.329 20.3345 16.2388L20.4065 16.2455Z" fill="#41479B"/>
<path d="M20.2839 16.2674C20.2839 16.2674 20.24 16.3092 20.2516 16.3945C20.2516 16.3945 20.1699 16.3228 20.2208 16.2374L20.2839 16.2674Z" fill="#41479B"/>
<path d="M18.3038 16.1207C18.3038 16.1207 18.2509 16.1017 18.1851 16.1469C18.1851 16.1469 18.2283 16.0446 18.3202 16.0511L18.3038 16.1207Z" fill="#41479B"/>
<path d="M18.3762 16.2332C18.3762 16.2332 18.3218 16.219 18.2603 16.2698C18.2603 16.2698 18.2697 16.1711 18.3619 16.1696L18.3762 16.2332Z" fill="#41479B"/>
<path d="M21.1084 17.1179C20.6796 17.1179 20.6796 17.5048 20.2507 17.5048C19.8219 17.5048 19.8219 17.1179 19.393 17.1179C18.9644 17.1179 18.9644 17.5048 18.5359 17.5048C18.1077 17.5048 18.1077 17.1179 17.6795 17.1179C17.2514 17.1179 17.2514 17.5048 16.8233 17.5048C16.395 17.5048 16.395 17.1179 15.9668 17.1179V16.4038C16.395 16.4038 16.395 16.7906 16.8233 16.7906C17.2514 16.7906 17.2514 16.4038 17.6795 16.4038C18.1077 16.4038 18.1077 16.7906 18.5359 16.7906C18.9645 16.7906 18.9645 16.4038 19.393 16.4038C19.8219 16.4038 19.8219 16.7906 20.2507 16.7906C20.6796 16.7906 20.6796 16.4038 21.1084 16.4038V17.1179Z" fill="#F5F5F5"/>
<path d="M20.2508 17.5048C19.8219 17.5048 19.8219 17.1179 19.393 17.1179C18.9645 17.1179 18.9645 17.5048 18.5359 17.5048C18.1077 17.5048 18.1077 17.1179 17.6796 17.1179C17.2515 17.1179 17.2515 17.5048 16.8233 17.5048C16.396 17.5048 16.3948 17.1198 15.9692 17.1182C15.9752 17.2892 15.9948 17.543 16.0449 17.8412C16.3928 17.8873 16.4245 18.219 16.8234 18.219C17.2515 18.219 17.2515 17.8321 17.6796 17.8321C18.1078 17.8321 18.1078 18.219 18.536 18.219C18.9646 18.219 18.9646 17.8321 19.3931 17.8321C19.822 17.8321 19.822 18.219 20.2508 18.219C20.6503 18.219 20.682 17.8872 21.0305 17.8412C21.0806 17.543 21.1002 17.2892 21.1062 17.1182C20.6799 17.1198 20.6787 17.5048 20.2508 17.5048Z" fill="#41479B"/>
<path d="M20.2503 18.219C19.8214 18.219 19.8214 17.8321 19.3926 17.8321C18.964 17.8321 18.964 18.219 18.5355 18.219C18.1073 18.219 18.1073 17.8321 17.6791 17.8321C17.251 17.8321 17.251 18.219 16.8229 18.219C16.424 18.219 16.3923 17.8873 16.0444 17.8412C16.0842 18.0775 16.1435 18.341 16.2309 18.6136C16.4236 18.7242 16.5076 18.9331 16.8229 18.9331C17.251 18.9331 17.251 18.5462 17.6791 18.5462C18.1073 18.5462 18.1073 18.9331 18.5355 18.9331C18.9641 18.9331 18.9641 18.5462 19.3926 18.5462C19.8214 18.5462 19.8214 18.9331 20.2503 18.9331C20.5663 18.9331 20.6502 18.7238 20.8436 18.6132C20.931 18.3408 20.9902 18.0774 21.0299 17.8412C20.6815 17.8872 20.6498 18.219 20.2503 18.219Z" fill="#F5F5F5"/>
<path d="M20.2504 18.9331C19.8215 18.9331 19.8215 18.5463 19.3927 18.5463C18.9641 18.5463 18.9641 18.9331 18.5356 18.9331C18.1074 18.9331 18.1074 18.5463 17.6792 18.5463C17.2511 18.5463 17.2511 18.9331 16.823 18.9331C16.5077 18.9331 16.4238 18.7242 16.231 18.6136C16.3398 18.9531 16.4926 19.3052 16.7059 19.6336C16.7419 19.641 16.7789 19.6473 16.823 19.6473C17.2511 19.6473 17.2511 19.2605 17.6793 19.2605C18.1075 19.2605 18.1075 19.6473 18.5356 19.6473C18.9642 19.6473 18.9642 19.2605 19.3927 19.2605C19.8216 19.2605 19.8216 19.6473 20.2504 19.6473C20.295 19.6473 20.3325 19.641 20.3688 19.6335C20.5822 19.305 20.7349 18.9528 20.8438 18.6133C20.6503 18.7238 20.5664 18.9331 20.2504 18.9331Z" fill="#41479B"/>
<path d="M20.2506 19.6473C19.8217 19.6473 19.8217 19.2605 19.3929 19.2605C18.9643 19.2605 18.9643 19.6473 18.5358 19.6473C18.1076 19.6473 18.1076 19.2605 17.6794 19.2605C17.2513 19.2605 17.2513 19.6473 16.8231 19.6473C16.7791 19.6473 16.742 19.641 16.7061 19.6336C16.8416 19.8423 17.0021 20.0407 17.1911 20.2202C17.322 20.1096 17.426 19.9746 17.6794 19.9746C18.1076 19.9746 18.1076 20.3615 18.5358 20.3615C18.9643 20.3615 18.9643 19.9746 19.3929 19.9746C19.6473 19.9746 19.7513 20.1103 19.883 20.221C20.0723 20.0412 20.2331 19.8425 20.3689 19.6335C20.3326 19.641 20.2951 19.6473 20.2506 19.6473Z" fill="#F5F5F5"/>
<path d="M19.8828 20.2211C19.7512 20.1103 19.6471 19.9747 19.3927 19.9747C18.9641 19.9747 18.9641 20.3615 18.5356 20.3615C18.1074 20.3615 18.1074 19.9747 17.6793 19.9747C17.4259 19.9747 17.3219 20.1097 17.1909 20.2203C17.5354 20.5476 17.9746 20.8114 18.5373 20.9521C19.0996 20.8115 19.5385 20.548 19.8828 20.2211Z" fill="#41479B"/>
<path d="M19.391 16.4038C18.9625 16.4038 18.9625 16.7906 18.5339 16.7906C18.1057 16.7906 18.1057 16.4038 17.6776 16.4038C17.2495 16.4038 17.2495 16.7906 16.8213 16.7906C16.3931 16.7906 16.3931 16.4038 15.9648 16.4038C15.9648 16.6478 15.9648 16.8597 15.9648 16.997C15.9648 17.0305 15.9656 17.0717 15.9672 17.1182C16.3928 17.1198 16.394 17.5048 16.8213 17.5048C17.2494 17.5048 17.2494 17.1179 17.6776 17.1179C18.1058 17.1179 18.1058 17.5048 18.5339 17.5048C18.9625 17.5048 18.9625 17.1179 19.391 17.1179C19.8199 17.1179 19.8199 17.5048 20.2488 17.5048C20.6767 17.5048 20.6779 17.1198 21.1041 17.1182C21.1057 17.0717 21.1065 17.0305 21.1065 16.997C21.1065 16.8597 21.1065 16.6478 21.1065 16.4038C20.6776 16.4038 20.6776 16.7906 20.2488 16.7906C19.8199 16.7906 19.8199 16.4038 19.391 16.4038Z" fill="#F5F5F5"/>
<path d="M20.9086 14.4262C21.0178 14.4262 21.1063 14.5148 21.1063 14.624V16.4038V16.7993C21.1063 16.8743 21.1063 16.9428 21.1063 16.9971C21.1063 17.0305 21.1056 17.0717 21.1039 17.1182C21.098 17.2892 21.0784 17.5431 21.0282 17.8413C20.9885 18.0775 20.9292 18.3409 20.842 18.6133C20.7331 18.9529 20.5804 19.3051 20.367 19.6335C20.2312 19.8426 20.0704 20.0413 19.881 20.2211C19.5367 20.548 19.0978 20.8115 18.5355 20.9521C17.9728 20.8114 17.5336 20.5476 17.1891 20.2203C17.0002 20.0407 16.8397 19.8423 16.7041 19.6337C16.4908 19.3053 16.338 18.9531 16.2291 18.6136C16.1418 18.3411 16.0825 18.0776 16.0427 17.8413C15.9926 17.5431 15.973 17.2892 15.967 17.1182C15.9654 17.0717 15.9646 17.0305 15.9646 16.9971C15.9646 16.9428 15.9646 16.8743 15.9646 16.7993V16.4038V14.624C15.9646 14.5148 16.0532 14.4262 16.1624 14.4262H20.9086ZM20.9086 14.2779H16.1625C15.9717 14.2779 15.8164 14.4331 15.8164 14.624V16.4037V16.7993V16.997C15.8164 17.0319 15.8172 17.0749 15.8189 17.1233C15.8245 17.2847 15.8425 17.5446 15.8965 17.8658C15.9425 18.1394 16.0069 18.4062 16.088 18.6589C16.2133 19.0499 16.3788 19.405 16.5798 19.7144C16.7278 19.9422 16.8984 20.1486 17.0869 20.3277C17.4803 20.7015 17.9555 20.9599 18.4995 21.096L18.5355 21.105L18.5714 21.096C19.115 20.9601 19.59 20.7019 19.9831 20.3286C20.1721 20.1491 20.3431 19.9425 20.4913 19.7142C20.6923 19.4048 20.8578 19.0496 20.9832 18.6585C21.0641 18.406 21.1285 18.1393 21.1745 17.8658C21.2285 17.5445 21.2465 17.2847 21.2521 17.1233C21.2538 17.0748 21.2546 17.0319 21.2546 16.997V16.7992V16.4037V14.6239C21.2547 14.4331 21.0994 14.2779 20.9086 14.2779Z" fill="#F5F5F5"/>
<path d="M18.5376 19.7562L17.995 20.1338L18.1864 19.5009L17.6597 19.1016L18.3206 19.0882L18.5376 18.4637L18.7548 19.0882L19.4156 19.1016L18.8889 19.5009L19.0803 20.1338L18.5376 19.7562Z" fill="#73AF00"/>
<path d="M18.5375 18.5857L18.7258 19.1276L19.2994 19.1394L18.8423 19.4859L19.0084 20.0351L18.5375 19.7074L18.0666 20.0351L18.2327 19.4859L17.7755 19.1394L18.3491 19.1276L18.5375 18.5857ZM18.5375 18.3417L18.4618 18.5594L18.2918 19.0487L17.7739 19.0592L17.5435 19.0639L17.7271 19.2032L18.1398 19.5161L17.9898 20.0118L17.9231 20.2324L18.1123 20.1008L18.5374 19.8049L18.9626 20.1008L19.1518 20.2324L19.085 20.0118L18.935 19.5161L19.3478 19.2032L19.5314 19.0639L19.301 19.0592L18.7831 19.0487L18.613 18.5594L18.5375 18.3417Z" fill="#FFE15A"/>
<path d="M17.3457 18.2137L16.8031 18.5913L16.9945 17.9585L16.4678 17.5592L17.1287 17.5457L17.3457 16.9212L17.5629 17.5457L18.2237 17.5592L17.697 17.9585L17.8884 18.5913L17.3457 18.2137Z" fill="#73AF00"/>
<path d="M17.3456 17.0433L17.5339 17.5852L18.1075 17.5969L17.6504 17.9435L17.8165 18.4926L17.3456 18.1649L16.8747 18.4926L17.0408 17.9435L16.5836 17.5969L17.1572 17.5852L17.3456 17.0433ZM17.3456 16.7992L17.2699 17.0169L17.0999 17.5062L16.582 17.5167L16.3516 17.5214L16.5352 17.6607L16.9479 17.9736L16.7979 18.4693L16.7312 18.6899L16.9204 18.5583L17.3455 18.2624L17.7707 18.5583L17.9599 18.6899L17.8931 18.4693L17.7431 17.9736L18.1559 17.6607L18.3395 17.5214L18.1091 17.5167L17.5912 17.5062L17.4211 17.0169L17.3456 16.7992Z" fill="#FFE15A"/>
<path d="M19.7188 18.2137L19.1762 18.5913L19.3676 17.9585L18.8408 17.5592L19.5017 17.5457L19.7188 16.9212L19.936 17.5457L20.5968 17.5592L20.0701 17.9585L20.2615 18.5913L19.7188 18.2137Z" fill="#73AF00"/>
<path d="M19.7206 17.0432L19.9089 17.5851L20.4825 17.5968L20.0254 17.9434L20.1915 18.4926L19.7206 18.1649L19.2497 18.4926L19.4158 17.9434L18.9586 17.5968L19.5322 17.5851L19.7206 17.0432ZM19.7206 16.7992L19.6449 17.0168L19.4749 17.5061L18.957 17.5166L18.7266 17.5213L18.9102 17.6606L19.3229 17.9735L19.1729 18.4693L19.1062 18.6898L19.2954 18.5582L19.7205 18.2624L20.1457 18.5582L20.3349 18.6898L20.2681 18.4693L20.1181 17.9735L20.5309 17.6606L20.7145 17.5213L20.4841 17.5166L19.9662 17.5061L19.7961 17.0168L19.7206 16.7992Z" fill="#FFE15A"/>
<path d="M21.6673 19.0119C21.1765 20.2615 19.9611 21.1498 18.5395 21.1498C17.1179 21.1498 15.9024 20.2615 15.4117 19.0119L14.6758 19.2998C15.282 20.8434 16.7834 21.9408 18.5395 21.9408C20.2956 21.9408 21.797 20.8434 22.4032 19.2998L21.6673 19.0119Z" fill="#FFE15A"/>
<path d="M18.9316 14.4261H18.3384L18.1406 13.8328H18.7339L18.9316 14.4261Z" fill="#F5F5F5"/>
<path d="M19.9205 14.4261H19.5249L19.3931 14.0306H19.5736C19.702 14.0306 19.816 14.1128 19.8566 14.2346L19.9205 14.4261Z" fill="#F5F5F5"/>
<path d="M17.7449 14.4261H17.3493L17.3043 14.2909C17.2615 14.1628 17.3569 14.0306 17.4918 14.0306H17.613L17.7449 14.4261Z" fill="#F5F5F5"/>
<path d="M19.5298 14.4262H18.9365L18.7388 13.8329H19.1895C19.2746 13.8329 19.3502 13.8874 19.3771 13.9682L19.5298 14.4262Z" fill="#41479B"/>
<path d="M18.3434 14.4262H17.7501L17.6165 14.0254C17.5849 13.9307 17.6554 13.8329 17.7553 13.8329H18.1456L18.3434 14.4262Z" fill="#41479B"/>
<path d="M19.9895 13.0543C19.835 13.2768 19.4024 13.5425 18.6979 13.5425C18.1175 13.5425 17.7441 13.192 17.6195 13.0538C17.5891 13.0201 17.5732 12.9771 17.5732 12.9318V12.797C17.5732 12.7389 17.6033 12.6861 17.6535 12.6569C17.7791 12.5839 18.0694 12.4672 18.6424 12.4672C19.353 12.4672 19.9895 13.0543 19.9895 13.0543Z" fill="#509664"/>
<path d="M4.41711 0.00222778H-0.00390625V0.938641L4.41711 3.83516V0.00222778Z" fill="#41479B"/>
<path d="M-0.00390625 3.20372V4.42325H1.85748L-0.00390625 3.20372Z" fill="#41479B"/>
<path d="M-0.00390625 7.58109V8.80063L1.85748 7.58109H-0.00390625Z" fill="#41479B"/>
<path d="M11.9957 0.938641V0.00222778H7.57471V3.83516L11.9957 0.938641Z" fill="#41479B"/>
<path d="M11.9957 8.80063V7.58109H10.1343L11.9957 8.80063Z" fill="#41479B"/>
<path d="M7.57471 8.16918V12.0021H11.9957V11.0657L7.57471 8.16918Z" fill="#41479B"/>
<path d="M11.9957 4.42325V3.20372L10.1343 4.42325H11.9957Z" fill="#41479B"/>
<path d="M-0.00390625 11.0657V12.0021H4.41711V8.16918L-0.00390625 11.0657Z" fill="#41479B"/>
<path d="M11.9959 11.0657V10.1299L8.06933 7.58109H9.22938L11.9959 9.3769V8.80062L10.1345 7.58109H11.9959V6.9495H6.94336V12.0021H7.5749V8.16918L11.9959 11.0657Z" fill="#F5F5F5"/>
<path d="M-0.00390625 6.9495V7.58109H1.85748L-0.00390625 8.80062V9.6866L3.23967 7.58109H4.39972L-0.00390625 10.4396V11.0657L4.41711 8.16918V12.0021H5.04865V6.9495H-0.00390625Z" fill="#F5F5F5"/>
<path d="M5.04865 0.00222778H4.41711V3.83516L-0.00390625 0.938641V1.96341L3.78553 4.42325H2.62547L-0.00390625 2.71645V3.20371L1.85748 4.42325H-0.00390625V5.05483H5.04865V0.00222778Z" fill="#F5F5F5"/>
<path d="M11.9959 5.05483V4.42325H10.1345L11.9959 3.20371V2.30644L8.73495 4.42325H7.5749L11.9959 1.55345V0.938641L7.5749 3.83516V0.00222778H6.94336V5.05483H11.9959Z" fill="#F5F5F5"/>
<path d="M11.996 6.9495V5.05483H6.94342V0.00222778H5.04865V5.05483H-0.00390625V6.9495H5.04865V12.0021H6.94342V6.9495H11.996Z" fill="#FF4B55"/>
<path d="M3.23967 7.58109L-0.00390625 9.68661V10.4396L4.39972 7.58109H3.23967Z" fill="#FF4B55"/>
<path d="M8.06934 7.58109L11.9959 10.1299V9.37691L9.22939 7.58109H8.06934Z" fill="#FF4B55"/>
<path d="M3.78553 4.42325L-0.00390625 1.96342V2.71646L2.62547 4.42325H3.78553Z" fill="#FF4B55"/>
<path d="M8.73476 4.42325L11.9957 2.30644V1.55345L7.57471 4.42325H8.73476Z" fill="#FF4B55"/>
</g>
<defs>
<clipPath id="clip0_72_1060">
<path d="M0 2C0 0.895432 0.895431 0 2 0H21.9998C23.1043 0 23.9998 0.895431 23.9998 2V21.9998C23.9998 23.1043 23.1043 23.9998 21.9998 23.9998H2C0.895432 23.9998 0 23.1043 0 21.9998V2Z" fill="white"/>
</clipPath>
</defs>
</svg>
