<svg width="24" height="24" viewBox="0 0 24 24" fill="none" xmlns="http://www.w3.org/2000/svg">
<g clip-path="url(#clip0_72_1159)">
<path d="M23.9973 17.9999H-0.00244141V23.9998H23.9973V17.9999Z" fill="#FFE15A"/>
<path d="M23.9973 11.9999H-0.00244141V17.9999H23.9973V11.9999Z" fill="#73AF00"/>
<path d="M23.9973 6H-0.00244141V11.9999H23.9973V6Z" fill="#F5F5F5"/>
<path d="M23.9973 6.10352e-05H-0.00244141V6H23.9973V6.10352e-05Z" fill="#41479B"/>
<path d="M14.9975 6.10352e-05H8.99756V23.9998H14.9975V6.10352e-05Z" fill="#FF4B55"/>
<path d="M4.26605 0.808407L4.79306 2.38855L6.45874 2.40144C6.58779 2.40242 6.64132 2.56714 6.53749 2.64378L5.19754 3.6333L5.69999 5.22146C5.73889 5.3445 5.59883 5.44627 5.49383 5.37122L4.13869 4.40261L2.78355 5.37122C2.67855 5.44627 2.53849 5.3445 2.57739 5.22146L3.07979 3.6333L1.73984 2.64378C1.63601 2.56714 1.68954 2.40242 1.81859 2.40144L3.48427 2.38855L4.01128 0.808407C4.05206 0.68597 4.22522 0.68597 4.26605 0.808407Z" fill="#FFE15A"/>
</g>
<defs>
<clipPath id="clip0_72_1159">
<path d="M0 2C0 0.895432 0.895431 0 2 0H21.9998C23.1043 0 23.9998 0.895431 23.9998 2V21.9998C23.9998 23.1043 23.1043 23.9998 21.9998 23.9998H2C0.895432 23.9998 0 23.1043 0 21.9998V2Z" fill="white"/>
</clipPath>
</defs>
</svg>
