<svg width="24" height="24" viewBox="0 0 24 24" fill="none" xmlns="http://www.w3.org/2000/svg">
<g clip-path="url(#clip0_72_1166)">
<path d="M23.9974 0.00127411H0V23.9987H23.9974V0.00127411Z" fill="#F5F5F5"/>
<path d="M11.9959 12V0.00132751H0.410994C0.310354 0.00132751 0.221574 0.0628738 0.149902 0.153998L11.9959 12Z" fill="#464655"/>
<path d="M23.9923 0.00132751L11.9961 12H23.9948L23.9923 0.00132751Z" fill="#464655"/>
<path d="M-0.00488281 23.9987L11.9962 12H-0.00244534L-0.00488281 23.9987Z" fill="#464655"/>
<path d="M11.9961 12V23.9987H23.9923L11.9961 12Z" fill="#464655"/>
<path d="M13.5143 11.1158V13.1367C13.5143 13.9724 12.8344 14.6523 11.9987 14.6523C11.163 14.6523 10.483 13.9724 10.483 13.1367V11.1158H13.5143ZM14.0195 10.1054H9.97787C9.69887 10.1054 9.47266 10.3316 9.47266 10.6106V13.1367C9.47266 14.5318 10.6036 15.6628 11.9987 15.6628C13.3938 15.6628 14.5247 14.5318 14.5247 13.1367V10.6106C14.5247 10.3316 14.2985 10.1054 14.0195 10.1054Z" fill="#FF4B55"/>
<path d="M13.5142 11.1158V13.1367C13.5142 13.9724 12.8343 14.6523 11.9986 14.6523C11.1628 14.6523 10.4829 13.9724 10.4829 13.1367V11.1158H13.5142Z" fill="#F5F5F5"/>
<path d="M10.1779 10.4492C10.3445 10.7054 10.0709 10.9789 9.81473 10.8123C9.79879 10.802 9.78496 10.7882 9.7746 10.7722C9.60801 10.516 9.88152 10.2425 10.1377 10.4091C10.1537 10.4194 10.1675 10.4333 10.1779 10.4492Z" fill="#FFE15A"/>
<path d="M14.2194 10.4492C14.386 10.7054 14.1124 10.9789 13.8562 10.8123C13.8403 10.802 13.8265 10.7882 13.8161 10.7722C13.6495 10.516 13.923 10.2425 14.1792 10.4091C14.1952 10.4194 14.209 10.4333 14.2194 10.4492Z" fill="#FFE15A"/>
<path d="M10.1779 12.4701C10.3445 12.7263 10.0709 12.9998 9.81473 12.8332C9.79879 12.8228 9.78496 12.809 9.7746 12.7931C9.60801 12.5369 9.88152 12.2633 10.1377 12.4299C10.1537 12.4403 10.1675 12.4541 10.1779 12.4701Z" fill="#FFE15A"/>
<path d="M14.2194 12.4701C14.386 12.7263 14.1124 12.9998 13.8562 12.8332C13.8403 12.8228 13.8265 12.809 13.8161 12.7931C13.6495 12.5369 13.923 12.2633 14.1792 12.4299C14.1952 12.4403 14.209 12.4541 14.2194 12.4701Z" fill="#FFE15A"/>
<path d="M12.1989 10.4492C12.3655 10.7054 12.0919 10.9789 11.8357 10.8123C11.8198 10.802 11.806 10.7882 11.7956 10.7722C11.629 10.516 11.9025 10.2425 12.1587 10.4091C12.1747 10.4194 12.1885 10.4333 12.1989 10.4492Z" fill="#FFE15A"/>
<path d="M12.1989 15.0159C12.3655 15.2721 12.0919 15.5456 11.8357 15.379C11.8198 15.3686 11.806 15.3548 11.7956 15.3389C11.629 15.0827 11.9025 14.8091 12.1587 14.9757C12.1747 14.9861 12.1885 15 12.1989 15.0159Z" fill="#FFE15A"/>
<path d="M13.7155 14.333C13.8821 14.5892 13.6085 14.8627 13.3523 14.6961C13.3364 14.6858 13.3226 14.6719 13.3122 14.656C13.1456 14.3998 13.4191 14.1263 13.6753 14.2929C13.6913 14.3032 13.7051 14.3171 13.7155 14.333Z" fill="#FFE15A"/>
<path d="M10.712 14.333C10.8786 14.5892 10.6051 14.8627 10.3489 14.6961C10.333 14.6858 10.3191 14.6719 10.3088 14.656C10.1422 14.3998 10.4157 14.1263 10.6719 14.2929C10.6879 14.3032 10.7017 14.3171 10.712 14.333Z" fill="#FFE15A"/>
<path d="M12.3214 12.5035V12.9385C12.3214 13.1185 12.1751 13.2647 11.9952 13.2647C11.8153 13.2647 11.6689 13.1184 11.6689 12.9385V12.5035H12.3214Z" fill="#41479B"/>
<path d="M12.3214 11.472V11.907C12.3214 12.087 12.1751 12.2333 11.9952 12.2333C11.8153 12.2333 11.6689 12.0869 11.6689 11.907V11.472H12.3214Z" fill="#41479B"/>
<path d="M12.3214 13.5454V13.9805C12.3214 14.1604 12.1751 14.3067 11.9952 14.3067C11.8153 14.3067 11.6689 14.1603 11.6689 13.9805V13.5454H12.3214Z" fill="#41479B"/>
<path d="M13.2003 12.5035V12.9385C13.2003 13.1185 13.054 13.2647 12.8741 13.2647C12.6942 13.2647 12.5479 13.1184 12.5479 12.9385V12.5035H13.2003Z" fill="#41479B"/>
<path d="M11.4425 12.5035V12.9385C11.4425 13.1185 11.2961 13.2647 11.1163 13.2647C10.9363 13.2647 10.79 13.1184 10.79 12.9385V12.5035H11.4425Z" fill="#41479B"/>
<path d="M14.565 10.1054H9.45724C9.35979 10.1054 9.28076 10.0264 9.28076 9.92893V9.50172C9.28076 9.40426 9.35979 9.32523 9.45724 9.32523H14.565C14.6625 9.32523 14.7415 9.40426 14.7415 9.50172V9.92893C14.7415 10.0264 14.6624 10.1054 14.565 10.1054Z" fill="#FFE15A"/>
<path d="M12.0111 9.52033L11.6211 9.71538L12.0111 9.91042L12.4012 9.71538L12.0111 9.52033Z" fill="#FF4B55"/>
<path d="M13.2769 9.9103C13.4384 9.9103 13.5694 9.82298 13.5694 9.71526C13.5694 9.60754 13.4384 9.52021 13.2769 9.52021C13.1153 9.52021 12.9844 9.60754 12.9844 9.71526C12.9844 9.82298 13.1153 9.9103 13.2769 9.9103Z" fill="#4173CD"/>
<path d="M10.7412 9.9103C10.9028 9.9103 11.0337 9.82298 11.0337 9.71526C11.0337 9.60754 10.9028 9.52021 10.7412 9.52021C10.5797 9.52021 10.4487 9.60754 10.4487 9.71526C10.4487 9.82298 10.5797 9.9103 10.7412 9.9103Z" fill="#4173CD"/>
<path d="M12.771 9.65519C12.8319 9.75274 12.7291 9.85549 12.6316 9.7946C12.624 9.78986 12.6172 9.78311 12.6125 9.77552C12.5516 9.67797 12.6544 9.57522 12.7519 9.63611C12.7595 9.64085 12.7663 9.6476 12.771 9.65519Z" fill="#F5F5F5"/>
<path d="M13.9414 9.65519C14.0023 9.75274 13.8995 9.85549 13.802 9.7946C13.7944 9.78986 13.7877 9.78311 13.7829 9.77552C13.722 9.67797 13.8248 9.57522 13.9223 9.63611C13.9299 9.64085 13.9367 9.6476 13.9414 9.65519Z" fill="#F5F5F5"/>
<path d="M11.4063 9.65519C11.4671 9.75274 11.3644 9.85549 11.2668 9.7946C11.2593 9.78986 11.2525 9.78311 11.2478 9.77552C11.1869 9.67797 11.2896 9.57522 11.3872 9.63611C11.3948 9.64085 11.4015 9.6476 11.4063 9.65519Z" fill="#F5F5F5"/>
<path d="M10.2358 9.65519C10.2967 9.75274 10.194 9.85549 10.0964 9.7946C10.0888 9.78986 10.0821 9.78311 10.0774 9.77552C10.0165 9.67797 10.1192 9.57522 10.2168 9.63611C10.2244 9.64085 10.2311 9.6476 10.2358 9.65519Z" fill="#F5F5F5"/>
<path d="M9.28027 9.61794V9.81299L9.47527 9.91049L9.86536 9.71544L9.47527 9.5204L9.28027 9.61794Z" fill="#FF4B55"/>
<path d="M14.7413 9.81299V9.61794L14.5463 9.5204L14.1562 9.71544L14.5463 9.91049L14.7413 9.81299Z" fill="#FF4B55"/>
<path d="M10.7117 8.05679C10.6495 8.02614 10.5755 8.04503 10.5133 8.09317C10.5452 8.04587 10.5636 7.98282 10.5601 7.91415C10.553 7.77465 10.46 7.666 10.3524 7.67148C10.2449 7.67697 10.1634 7.79448 10.1705 7.93393C10.1743 8.00809 10.2032 8.07184 10.2448 8.11609C10.1608 8.07507 10.0689 8.0791 10.0128 8.13526C9.93666 8.21138 9.95499 8.35327 10.0538 8.45199C10.1525 8.5508 10.2943 8.56913 10.3705 8.49296C10.3918 8.47168 10.4039 8.44477 10.4108 8.41562C10.4263 8.4564 10.4502 8.49179 10.4882 8.51054C10.5848 8.55816 10.7132 8.49516 10.7749 8.36987C10.8367 8.24457 10.8084 8.10437 10.7117 8.05679ZM10.425 8.19746C10.4107 8.22648 10.4023 8.25629 10.3974 8.28559C10.3829 8.2471 10.3624 8.20923 10.3295 8.17627C10.3238 8.17056 10.3169 8.16788 10.311 8.16268C10.3323 8.17154 10.3546 8.17787 10.3782 8.1767C10.4098 8.17506 10.4378 8.16165 10.4633 8.14304C10.4497 8.1602 10.4353 8.17651 10.425 8.19746Z" fill="#F5F5F5"/>
<path d="M13.2192 8.36987C13.2809 8.49516 13.4093 8.55816 13.5059 8.51054C13.5439 8.49183 13.5678 8.4564 13.5834 8.41562C13.5902 8.44477 13.6024 8.47168 13.6236 8.49296C13.6998 8.56913 13.8417 8.5508 13.9404 8.45199C14.0391 8.35323 14.0575 8.21143 13.9813 8.13526C13.9251 8.07906 13.8333 8.07507 13.7493 8.11609C13.7908 8.07188 13.8198 8.00809 13.8236 7.93393C13.8306 7.79443 13.7492 7.67692 13.6416 7.67148C13.5341 7.666 13.4411 7.77465 13.434 7.91415C13.4305 7.98282 13.4488 8.04587 13.4808 8.09317C13.4185 8.04498 13.3446 8.02614 13.2824 8.05679C13.1857 8.10437 13.1575 8.24457 13.2192 8.36987ZM13.5309 8.14299C13.5564 8.1616 13.5844 8.17506 13.616 8.17665C13.6395 8.17782 13.6618 8.17149 13.6832 8.16263C13.6772 8.16779 13.6703 8.17051 13.6647 8.17623C13.6317 8.20918 13.6113 8.2471 13.5967 8.28554C13.5918 8.25624 13.5835 8.22643 13.5691 8.19741C13.5588 8.17651 13.5444 8.1602 13.5309 8.14299Z" fill="#F5F5F5"/>
<path d="M15.5576 7.48382C15.2767 7.38383 14.6857 7.3303 14.4607 7.84091C14.4173 7.93958 14.4619 8.05461 14.5605 8.09801C14.6558 8.14006 14.7654 8.09844 14.8119 8.00633L14.8854 8.09342C14.8239 8.26629 14.7992 8.42089 14.7923 8.47414C14.6919 8.8901 14.3058 8.93524 14.1435 8.93524C13.8817 8.93524 13.7337 8.65474 13.7323 8.65188C13.7056 8.60028 13.6569 8.56273 13.6 8.55035C13.543 8.53798 13.4834 8.5511 13.4377 8.58692C13.3309 8.67092 12.9985 8.89774 12.7476 8.93773C12.6267 8.95713 12.528 8.93698 12.4614 8.87984C12.4074 8.83376 12.3883 8.77582 12.3883 8.7402C12.3883 8.65277 12.4958 8.54515 12.5833 8.54515C12.6496 8.54515 12.675 8.58762 12.675 8.58762C12.7213 8.68554 12.8377 8.72684 12.9349 8.68095C13.0323 8.63468 13.0738 8.51848 13.0278 8.42117C12.9899 8.34115 12.8856 8.21778 12.7145 8.17315C12.8185 8.00802 12.9141 7.80739 12.9734 7.57007L12.3883 7.37502C12.3883 7.37502 12.5833 6.78993 11.9983 6.78993C11.4132 6.78993 11.6082 7.37502 11.6082 7.37502L11.0231 7.57007C11.0825 7.80735 11.178 8.00806 11.2821 8.17315C11.1108 8.21783 11.0066 8.3412 10.9688 8.42117C10.9227 8.51848 10.9642 8.63468 11.0616 8.68095C11.1588 8.72684 11.2752 8.68554 11.3213 8.58799C11.3213 8.58799 11.3469 8.54515 11.4132 8.54515C11.5007 8.54515 11.6083 8.65277 11.6083 8.7402C11.6083 8.77582 11.5891 8.83371 11.5351 8.87984C11.4685 8.93698 11.3698 8.95718 11.2489 8.93773C10.9981 8.89774 10.6657 8.67092 10.5588 8.58692C10.5131 8.5511 10.4536 8.53798 10.3965 8.55035C10.3396 8.56273 10.2909 8.60028 10.2642 8.65188C10.2628 8.65474 10.1148 8.93524 9.85304 8.93524C9.69076 8.93524 9.30461 8.8901 9.20425 8.47414C9.19736 8.42089 9.17266 8.26625 9.11111 8.09342L9.18466 8.00633C9.23125 8.09844 9.34075 8.14006 9.436 8.09801C9.53458 8.05461 9.57925 7.93953 9.5358 7.84091C9.31085 7.3303 8.7199 7.38383 8.43893 7.48382C8.35845 7.51241 8.3059 7.58989 8.30923 7.67525C8.31247 7.76056 8.37097 7.83374 8.45342 7.856C8.69234 7.92017 8.79954 8.37692 8.81824 8.53175C8.81909 8.5384 8.82035 8.54548 8.82176 8.55214C8.93079 9.02904 9.32599 9.32538 9.853 9.32538C10.1551 9.32538 10.3639 9.15433 10.4851 9.01268C10.656 9.12527 10.9309 9.28216 11.1875 9.32289C11.2367 9.33072 11.2849 9.33471 11.332 9.33471C11.5082 9.33471 11.6667 9.28043 11.7883 9.1766C11.9198 9.06443 11.9983 8.90121 11.9983 8.74029C11.9983 8.90126 12.0768 9.06443 12.2083 9.1766C12.3299 9.28043 12.4884 9.33471 12.6646 9.33471C12.7117 9.33471 12.7599 9.33072 12.8091 9.32289C13.0657 9.28211 13.3407 9.12518 13.5115 9.01268C13.6327 9.15438 13.8415 9.32538 14.1436 9.32538C14.6706 9.32538 15.0658 9.02904 15.1749 8.55214C15.1763 8.54548 15.1775 8.5384 15.1784 8.53175C15.197 8.37687 15.3043 7.92017 15.5432 7.856C15.6256 7.83374 15.6841 7.76056 15.6874 7.67525C15.6907 7.58994 15.6381 7.51241 15.5576 7.48382Z" fill="#FFE15A"/>
<path d="M8.61379 7.88522C8.51429 7.92648 8.4838 8.0809 8.54568 8.23012C8.60757 8.37933 8.7384 8.46684 8.8379 8.42557C8.9374 8.38431 8.9679 8.22989 8.90601 8.08067C8.84412 7.93146 8.71329 7.84395 8.61379 7.88522Z" fill="#4173CD"/>
<path d="M15.1636 8.42502C15.2631 8.46629 15.3939 8.37878 15.4558 8.22957C15.5177 8.08035 15.4872 7.92593 15.3877 7.88466C15.2882 7.8434 15.1574 7.93091 15.0955 8.08012C15.0336 8.22934 15.0641 8.38376 15.1636 8.42502Z" fill="#4173CD"/>
<path d="M12 8.34983C12.1616 8.34983 12.2925 8.1752 12.2925 7.95979C12.2925 7.74437 12.1616 7.56974 12 7.56974C11.8385 7.56974 11.7075 7.74437 11.7075 7.95979C11.7075 8.1752 11.8385 8.34983 12 8.34983Z" fill="#4173CD"/>
</g>
<defs>
<clipPath id="clip0_72_1166">
<path d="M0 2C0 0.895428 0.895431 0 2 0H21.9999C23.1044 0 23.9999 0.895431 23.9999 2V21.9999C23.9999 23.1044 23.1044 23.9999 21.9999 23.9999H2C0.895428 23.9999 0 23.1044 0 21.9999V2Z" fill="white"/>
</clipPath>
</defs>
</svg>
