<svg width="24" height="24" viewBox="0 0 24 24" fill="none" xmlns="http://www.w3.org/2000/svg">
<g clip-path="url(#clip0_72_1220)">
<path d="M23.9968 6.10352e-05H-0.00292969V23.9998H23.9968V6.10352e-05Z" fill="#FF4B55"/>
<path d="M5.34257 4.0867L5.93891 5.87477L7.82374 5.8894C8.06777 5.89127 8.16897 6.20271 7.97266 6.34769L6.45636 7.46738L7.0249 9.2645C7.0985 9.49719 6.83361 9.68966 6.63505 9.54772L5.10159 8.45165L3.56814 9.54772C3.36963 9.68961 3.10469 9.49714 3.17828 9.2645L3.74682 7.46738L2.23053 6.34769C2.03422 6.20271 2.13542 5.89132 2.37945 5.8894L4.26427 5.87477L4.86061 4.0867C4.93791 3.85523 5.26537 3.85523 5.34257 4.0867Z" fill="#FFE15A"/>
<path d="M12.1871 4.52737L12.6147 5.11049L13.3049 4.89468C13.3942 4.86674 13.4677 4.9686 13.413 5.04458L12.9906 5.63145L13.4091 6.22113C13.4633 6.29749 13.3891 6.39883 13.2999 6.37033L12.6112 6.14993L12.1797 6.73014C12.1239 6.80528 12.0045 6.76605 12.0041 6.67244L12.001 5.94935L11.3158 5.71831C11.2271 5.6884 11.2275 5.56278 11.3164 5.53344L12.0031 5.30698L12.0111 4.58394C12.0122 4.49029 12.1318 4.45185 12.1871 4.52737Z" fill="#FFE15A"/>
<path d="M9.58335 2.78921L10.3022 2.86735L10.6089 2.21251C10.6486 2.12772 10.7734 2.1423 10.7925 2.23394L10.9403 2.94174L11.6579 3.03104C11.7508 3.04262 11.7755 3.16575 11.6943 3.21225L11.0667 3.57155L11.2036 4.28156C11.2213 4.37348 11.1118 4.43507 11.0425 4.37217L10.5068 3.8864L9.87383 4.23595C9.7919 4.28118 9.69951 4.1961 9.73785 4.1107L10.0343 3.45117L9.50624 2.95716C9.4379 2.89323 9.49031 2.77909 9.58335 2.78921Z" fill="#FFE15A"/>
<path d="M10.7197 9.79677L10.2922 10.3799L9.60202 10.1641C9.51268 10.1361 9.43918 10.238 9.49388 10.314L9.91632 10.9009L9.49782 11.4905C9.44363 11.5669 9.51779 11.6682 9.60699 11.6397L10.2957 11.4193L10.7272 11.9995C10.783 12.0747 10.9024 12.0354 10.9027 11.9418L10.9059 11.2188L11.5911 10.9877C11.6798 10.9578 11.6794 10.8322 11.5905 10.8029L10.9038 10.5764L10.8958 9.85339C10.8947 9.75969 10.7751 9.72125 10.7197 9.79677Z" fill="#FFE15A"/>
<path d="M13.3235 8.16337L12.6047 8.24151L12.298 7.58668C12.2583 7.50188 12.1335 7.51646 12.1144 7.6081L11.9666 8.3159L11.249 8.4052C11.1561 8.41678 11.1314 8.53992 11.2127 8.58641L11.8402 8.94571L11.7034 9.65572C11.6856 9.74764 11.7951 9.80923 11.8645 9.74633L12.4001 9.26056L13.0331 9.61011C13.115 9.65534 13.2074 9.57027 13.1691 9.48486L12.8726 8.82533L13.4007 8.33132C13.469 8.26743 13.4166 8.15325 13.3235 8.16337Z" fill="#FFE15A"/>
</g>
<defs>
<clipPath id="clip0_72_1220">
<path d="M0 2C0 0.895432 0.895431 0 2 0H21.9998C23.1043 0 23.9998 0.895431 23.9998 2V21.9998C23.9998 23.1043 23.1043 23.9998 21.9998 23.9998H2C0.895432 23.9998 0 23.1043 0 21.9998V2Z" fill="white"/>
</clipPath>
</defs>
</svg>
