<svg width="24" height="24" viewBox="0 0 24 24" fill="none" xmlns="http://www.w3.org/2000/svg">
<g clip-path="url(#clip0_72_1240)">
<path d="M23.9963 6.10352e-05H-0.00341797V23.9998H23.9963V6.10352e-05Z" fill="#73AF00"/>
<path d="M12.8093 17.4349C11.4724 17.4349 10.3885 16.3511 10.3885 15.0141C10.3885 13.6771 11.4724 12.5934 12.8093 12.5934C12.9867 12.5934 13.1586 12.6146 13.3243 12.6526C13.3904 12.6677 13.4254 12.5791 13.3678 12.5434C12.8608 12.229 12.2502 12.066 11.5985 12.119C10.18 12.2344 9.03952 13.3909 8.94296 14.8109C8.82756 16.5072 10.1694 17.9191 11.841 17.9191C12.4014 17.9191 12.9243 17.7599 13.3679 17.4849C13.4255 17.4491 13.3906 17.3605 13.3245 17.3756C13.1587 17.4137 12.9867 17.4349 12.8093 17.4349Z" fill="#FFE15A"/>
<path d="M14.9194 12.9644L15.1012 13.4249L15.5745 13.2799C15.6008 13.2718 15.6234 13.3001 15.6097 13.324L15.3631 13.7532L15.7716 14.0329C15.7942 14.0485 15.7862 14.0838 15.759 14.0879L15.2696 14.1627L15.3056 14.6564C15.3076 14.6839 15.275 14.6996 15.2548 14.6809L14.8912 14.3449L14.5276 14.6809C14.5074 14.6996 14.4747 14.6839 14.4767 14.6564L14.5127 14.1627L14.0233 14.0879C13.9961 14.0837 13.9881 14.0484 14.0108 14.0329L14.4193 13.7532L14.1726 13.324C14.1589 13.3001 14.1815 13.2718 14.2078 13.2799L14.6812 13.4249L14.8629 12.9644C14.8731 12.9388 14.9093 12.9388 14.9194 12.9644Z" fill="#FFE15A"/>
<path d="M21.5399 11.723L21.7217 12.1835L22.1951 12.0385C22.2214 12.0305 22.244 12.0588 22.2303 12.0827L21.9836 12.5119L22.3921 12.7916C22.4148 12.8071 22.4067 12.8424 22.3796 12.8466L21.8902 12.9213L21.9262 13.4151C21.9282 13.4425 21.8956 13.4582 21.8754 13.4396L21.5118 13.1036L21.1482 13.4396C21.128 13.4582 21.0953 13.4425 21.0974 13.4151L21.1334 12.9213L20.6439 12.8466C20.6167 12.8424 20.6087 12.8071 20.6314 12.7916L21.0398 12.5119L20.7932 12.0827C20.7795 12.0588 20.802 12.0305 20.8283 12.0385L21.3017 12.1835L21.4835 11.723C21.4936 11.6974 21.5298 11.6974 21.5399 11.723Z" fill="#FFE15A"/>
<path d="M18.2299 8.73778L18.4117 9.19827L18.885 9.05329C18.9113 9.04523 18.9339 9.07354 18.9202 9.0974L18.6736 9.52663L19.0821 9.80633C19.1048 9.82185 19.0967 9.85719 19.0695 9.86131L18.5801 9.93608L18.6161 10.4299C18.6181 10.4573 18.5855 10.473 18.5653 10.4543L18.2017 10.1183L17.8381 10.4543C17.8179 10.473 17.7852 10.4573 17.7872 10.4299L17.8232 9.93608L17.3339 9.86131C17.3067 9.85714 17.2986 9.82185 17.3213 9.80633L17.7298 9.52663L17.4832 9.0974C17.4695 9.07354 17.492 9.04523 17.5183 9.05329L17.9917 9.19827L18.1735 8.73778C18.1836 8.71219 18.2198 8.71219 18.2299 8.73778Z" fill="#FFE15A"/>
<path d="M18.2299 19.585L18.4117 20.0455L18.885 19.9005C18.9113 19.8925 18.9339 19.9208 18.9202 19.9446L18.6736 20.3739L19.0821 20.6536C19.1048 20.6691 19.0967 20.7044 19.0695 20.7086L18.5801 20.7833L18.6161 21.2771C18.6181 21.3045 18.5855 21.3202 18.5653 21.3016L18.2017 20.9656L17.8381 21.3016C17.8179 21.3202 17.7852 21.3045 17.7872 21.2771L17.8232 20.7833L17.3339 20.7086C17.3067 20.7044 17.2986 20.6691 17.3213 20.6536L17.7298 20.3739L17.4832 19.9446C17.4695 19.9208 17.492 19.8925 17.5183 19.9005L17.9917 20.0455L18.1735 19.585C18.1836 19.5594 18.2198 19.5594 18.2299 19.585Z" fill="#FFE15A"/>
<path d="M19.5848 13.3811L19.7118 13.7616L20.1129 13.7647C20.144 13.7649 20.1569 13.8046 20.1319 13.8231L19.8092 14.0614L19.9302 14.4438C19.9396 14.4734 19.9058 14.498 19.8806 14.4799L19.5542 14.2467L19.2279 14.4799C19.2026 14.498 19.1689 14.4735 19.1783 14.4438L19.2992 14.0614L18.9766 13.8231C18.9516 13.8046 18.9645 13.7649 18.9955 13.7647L19.3967 13.7616L19.5236 13.3811C19.5333 13.3516 19.5751 13.3516 19.5848 13.3811Z" fill="#FFE15A"/>
<path d="M7.651 3.39746C9.42707 6.5404 6.21471 9.75276 3.07178 7.97668C2.69191 7.762 2.37653 7.44662 2.16185 7.06675C0.385771 3.92381 3.59813 0.711455 6.74107 2.48753C7.12094 2.70222 7.43631 3.01759 7.651 3.39746Z" fill="#FFE15A"/>
<path d="M4.56934 7.76567H5.44762C5.44762 7.76567 5.94665 5.53008 5.48756 4.73162L5.2081 4.91124C5.2081 4.91124 5.66718 6.44826 4.56934 7.76567Z" fill="#964B50"/>
<path d="M4.60248 4.83147C4.60248 4.83147 4.09679 5.17745 4.2565 6.20213C4.2565 6.20213 4.64241 5.88277 4.85532 5.1775C4.85532 5.1775 4.54927 5.76301 4.97508 6.22875C4.97508 6.22875 5.42752 5.59 5.361 5.03111C5.361 5.03111 6.86516 6.60188 6.54533 6.20213C6.49208 6.13562 6.62516 5.47023 6.10621 4.92466C6.10621 4.92466 6.95788 5.13756 7.27723 5.05774C7.27723 5.05774 7.30386 4.37909 6.49213 4.25932L6.67841 3.72701C6.67841 3.72701 6.05296 3.68708 5.72029 4.00648C5.72029 4.00648 5.64047 3.18144 5.97314 2.78221C5.97314 2.78221 4.9884 2.63582 4.94851 3.92661C4.94851 3.92661 4.58921 3.10157 3.48471 3.30116C3.48471 3.30116 4.11015 3.75359 4.21661 3.95323C4.21661 3.95323 3.33832 3.35441 2.92582 4.19276C2.92582 4.19276 3.6311 4.00648 3.88394 4.33915C3.88394 4.33915 2.75281 4.21938 2.65967 5.19081C2.65967 5.19081 3.71088 4.69839 4.60248 4.83147Z" fill="#73AF00"/>
</g>
<defs>
<clipPath id="clip0_72_1240">
<path d="M0 2C0 0.895432 0.895431 0 2 0H21.9998C23.1043 0 23.9998 0.895431 23.9998 2V21.9998C23.9998 23.1043 23.1043 23.9998 21.9998 23.9998H2C0.895432 23.9998 0 23.1043 0 21.9998V2Z" fill="white"/>
</clipPath>
</defs>
</svg>
