<svg width="24" height="24" viewBox="0 0 24 24" fill="none" xmlns="http://www.w3.org/2000/svg">
<g clip-path="url(#clip0_72_1310)">
<path d="M24.0027 8.2106H0.00292969V15.7893H24.0027V8.2106Z" fill="#FF4B55"/>
<path d="M24.0027 6.10352e-05H0.00292969V4.10533H24.0027V6.10352e-05Z" fill="#41479B"/>
<path d="M24.0027 4.10534H0.00292969V8.21061H24.0027V4.10534Z" fill="#F5F5F5"/>
<path d="M24.0027 19.8946H0.00292969V23.9998H24.0027V19.8946Z" fill="#41479B"/>
<path d="M24.0056 15.7892H0.00585938V19.8945H24.0056V15.7892Z" fill="#F5F5F5"/>
<path d="M5.49114 15.1578C7.12261 15.1578 8.44518 13.744 8.44518 11.9999C8.44518 10.2558 7.12261 8.84196 5.49114 8.84196C3.85968 8.84196 2.53711 10.2558 2.53711 11.9999C2.53711 13.744 3.85968 15.1578 5.49114 15.1578Z" fill="#F5F5F5"/>
<path d="M7.01571 10.7775H3.95996V12.3055H7.01571V10.7775Z" fill="#3CC8FF"/>
<path d="M4.36779 11.6464L4.40267 11.9835L4.54001 11.6737L4.46899 12.0051L4.69535 11.7529L4.52543 12.0461L4.81863 11.8761L4.5664 12.1025L4.89776 12.0315L4.58796 12.1688L4.92504 12.2037L4.58796 12.2385L4.89776 12.3759L4.5664 12.3049L4.81863 12.5312L4.52543 12.3613L4.69535 12.6545L4.46899 12.4023L4.54001 12.7337L4.40267 12.4238L4.36779 12.7609L4.33292 12.4238L4.19562 12.7337L4.26659 12.4023L4.04023 12.6545L4.2102 12.3613L3.91695 12.5312L4.16918 12.3049L3.83783 12.3759L4.14762 12.2385L3.81055 12.2037L4.14762 12.1688L3.83783 12.0315L4.16918 12.1025L3.91695 11.8761L4.2102 12.0461L4.04023 11.7529L4.26659 12.0051L4.19562 11.6737L4.33292 11.9835L4.36779 11.6464Z" fill="#FFE15A"/>
<path d="M6.09928 14.4447H4.87688L3.75635 13.528V12.2037H7.32167V13.528L6.09928 14.4447Z" fill="#41479B"/>
<path d="M6.71082 11.7962H6.71068C6.71035 11.7684 6.68776 11.7459 6.65987 11.7459C6.63197 11.7459 6.60938 11.7684 6.60905 11.7962H6.60891C6.60891 11.973 6.50649 12.2175 6.38082 12.3927C6.20542 12.1712 6.13942 11.9143 6.11457 11.7526C6.10271 11.6754 6.01932 11.6326 5.94948 11.6676C5.91587 11.6844 5.89323 11.7172 5.88742 11.7543C5.80942 12.2539 5.57392 12.4662 5.42144 12.5535C5.19311 12.3327 5.11788 11.9755 5.09308 11.7643C5.08343 11.6823 4.99558 11.6351 4.92166 11.6721C4.89321 11.6863 4.87207 11.712 4.86213 11.7423C4.54264 12.7162 3.65479 12.8149 3.65479 12.8149V13.1205H7.22011V13.0187V12.9168V12.8149V12.7131V12.6112C6.81268 12.5093 6.71082 11.7962 6.71082 11.7962Z" fill="#73AF00"/>
<path d="M7.21626 10.8794C6.80877 10.6757 6.80877 10.472 6.80877 10.472C6.80877 10.472 6.29944 10.2682 5.89196 10.2682C5.89196 10.2682 5.99381 10.0645 5.7901 10.0645C5.58638 10.0645 5.48448 10.0645 5.48448 10.0645C5.48448 10.0645 5.38262 10.0645 5.17885 10.0645C4.97509 10.0645 5.07699 10.2682 5.07699 10.2682C4.66951 10.2682 4.16018 10.472 4.16018 10.472C4.16018 10.472 4.16018 10.6757 3.75269 10.8794C3.34521 11.0832 3.34521 11.5416 3.34521 11.5416C3.34521 11.626 3.4136 11.6944 3.49803 11.6944C3.58245 11.6944 3.65084 11.626 3.65084 11.5416C3.65084 11.5242 3.64732 11.5077 3.64193 11.4921L3.65084 11.4906L4.66951 10.7776H5.48443H6.29934L7.31802 11.4906L7.32693 11.4921C7.32158 11.5077 7.31802 11.5242 7.31802 11.5416C7.31802 11.626 7.38641 11.6944 7.47083 11.6944C7.55525 11.6944 7.62364 11.626 7.62364 11.5416C7.62374 11.5416 7.62374 11.0832 7.21626 10.8794Z" fill="#F0AA00"/>
<path d="M7.52204 12.1018C7.42018 12.1018 7.11456 12.1018 7.11456 11.7962C7.11456 11.4906 7.52204 11.4906 7.52204 11.4906L6.91084 11.2869C6.70708 12 7.11456 12 7.11456 12.9168C7.11456 13.7381 6.19774 14.241 5.89216 14.241C5.58654 14.241 5.48468 14.4448 5.48468 14.4448C5.48468 14.4448 5.38282 14.241 5.0772 14.241C4.77158 14.241 3.85481 13.738 3.85481 12.9168C3.85481 12 4.26229 12 4.05852 11.2869L3.44733 11.4906C3.44733 11.4906 3.85481 11.4906 3.85481 11.7963C3.85481 12.1019 3.54919 12.1019 3.44733 12.1019C3.34547 12.1019 2.93799 12.1019 2.93799 12.6112C2.93799 13.1206 3.44733 13.7318 4.16038 14.1392C4.87344 14.5467 4.56786 14.9541 5.48464 14.9541C6.40141 14.9541 6.09583 14.5467 6.80889 14.1392C7.52194 13.7318 8.03128 13.1206 8.03128 12.6112C8.03128 12.1019 7.6239 12.1018 7.52204 12.1018Z" fill="#F0AA00"/>
<path d="M5.28441 10.5073L5.03799 10.3966C4.99711 10.3783 4.95174 10.3739 4.90805 10.384C4.74919 10.4207 4.35517 10.5414 4.06201 10.8793L4.36763 10.9812L5.28441 10.5073Z" fill="#73AF00"/>
<path d="M5.69189 10.5073L5.93831 10.3966C5.97919 10.3783 6.02456 10.3739 6.06825 10.384C6.22711 10.4207 6.62114 10.5414 6.91429 10.8793L6.60867 10.9812L5.69189 10.5073Z" fill="#73AF00"/>
<path d="M5.52396 10.5738L5.70968 10.3881C5.71961 10.3781 5.71961 10.362 5.70968 10.3521C5.69974 10.3421 5.68361 10.3421 5.67368 10.3521L5.48796 10.5378L5.30224 10.3521C5.2923 10.3421 5.27618 10.3421 5.26624 10.3521C5.2563 10.362 5.2563 10.3781 5.26624 10.3881L5.45196 10.5738L5.26624 10.7595C5.2563 10.7694 5.2563 10.7855 5.26624 10.7955C5.27121 10.8005 5.27773 10.8029 5.28424 10.8029C5.29076 10.8029 5.29727 10.8005 5.30224 10.7955L5.48796 10.6098L5.67368 10.7955C5.67864 10.8005 5.68516 10.8029 5.69168 10.8029C5.69819 10.8029 5.70471 10.8005 5.70968 10.7955C5.71961 10.7855 5.71961 10.7694 5.70968 10.7595L5.52396 10.5738Z" fill="#73AF00"/>
<path d="M7.52593 11.4906C7.52593 11.3173 7.36215 11.2424 7.22031 11.2099V11.1292C7.02854 11.1113 6.92153 11.0392 6.73558 10.9125C6.66395 10.8637 6.58272 10.8083 6.4847 10.7488C6.12654 10.5312 5.8512 10.4998 5.69229 10.5074V10.6756H5.28481V10.5074C5.12591 10.4998 4.85056 10.5312 4.4924 10.7488C4.39438 10.8083 4.31315 10.8637 4.24152 10.9125C4.05557 11.0392 3.9486 11.1113 3.75679 11.1292V11.2099C3.61495 11.2424 3.45117 11.3173 3.45117 11.4906L3.75679 11.3887V11.4352C4.04587 11.4139 4.2112 11.3029 4.41355 11.1651C4.48213 11.1184 4.55985 11.0655 4.65107 11.01C4.8837 10.8686 5.0645 10.8248 5.18295 10.8145V10.9813H5.79415V10.8145C5.91255 10.8248 6.0934 10.8686 6.32603 11.01C6.41725 11.0654 6.49497 11.1183 6.56355 11.1651C6.76591 11.3029 6.93123 11.4139 7.22031 11.4352V11.3887L7.52593 11.4906Z" fill="#F5F5F5"/>
<path d="M6.7106 9.88491V9.75887H6.42683C6.47642 9.71631 6.50684 9.66615 6.50684 9.60606C6.50684 9.32462 5.86653 9.24953 5.48816 9.24953C5.10979 9.24953 4.46949 9.32462 4.46949 9.60606C4.46949 9.66615 4.49995 9.71631 4.5495 9.75887H4.26572V9.88491C4.01635 9.94055 3.81245 10.0744 3.80176 10.0816L3.91477 10.2511C3.91754 10.2492 4.19785 10.0644 4.46949 10.0644V9.96259H6.50679V10.0644C6.77843 10.0644 7.05869 10.2492 7.06151 10.2511L7.17452 10.0816C7.16388 10.0744 6.96002 9.94055 6.7106 9.88491ZM5.89569 9.7307V9.65331C5.89569 9.60343 5.84882 9.56687 5.80044 9.57897L5.48821 9.65701L5.17598 9.57897C5.1276 9.56687 5.08073 9.60348 5.08073 9.65331V9.7307C4.85189 9.69709 4.71656 9.64112 4.67967 9.60611C4.7348 9.55379 5.0047 9.45329 5.48821 9.45329C5.97172 9.45329 6.24162 9.55375 6.29675 9.60611C6.25986 9.64107 6.12453 9.69709 5.89569 9.7307Z" fill="#3CC8FF"/>
<path d="M5.49955 11.0198L5.52538 11.0972L5.60694 11.0978C5.61749 11.0979 5.62189 11.1113 5.61336 11.1176L5.54774 11.1661L5.57235 11.2438C5.57553 11.2539 5.56405 11.2623 5.55547 11.2561L5.4891 11.2087L5.42272 11.2561C5.41414 11.2623 5.40266 11.2539 5.40585 11.2438L5.43046 11.1661L5.36483 11.1176C5.35635 11.1113 5.36071 11.0979 5.37125 11.0978L5.45282 11.0972L5.47864 11.0198C5.48207 11.0097 5.49622 11.0097 5.49955 11.0198Z" fill="#F5F5F5"/>
<path d="M5.10033 11.0458L5.13413 11.1201L5.21531 11.1122C5.22581 11.1111 5.23158 11.1241 5.2238 11.1312L5.16361 11.1863L5.19624 11.261C5.20045 11.2707 5.18995 11.2802 5.18072 11.275L5.10975 11.2348L5.04872 11.2889C5.0408 11.296 5.02857 11.2888 5.03068 11.2785L5.04699 11.1986L4.97663 11.1573C4.96754 11.152 4.97044 11.1381 4.98094 11.1369L5.06199 11.1277L5.07952 11.048C5.08186 11.0377 5.09597 11.0362 5.10033 11.0458Z" fill="#F5F5F5"/>
<path d="M4.6901 11.1551L4.73918 11.2203L4.81675 11.1949C4.82679 11.1917 4.83522 11.203 4.82918 11.2117L4.78235 11.2785L4.83039 11.3445C4.83663 11.353 4.82838 11.3645 4.8183 11.3614L4.7403 11.3376L4.69244 11.4037C4.68626 11.4122 4.67271 11.408 4.67257 11.3974L4.67116 11.3158L4.59354 11.2908C4.58351 11.2875 4.58337 11.2733 4.59335 11.2699L4.67051 11.2434L4.67037 11.1618C4.67032 11.1512 4.68372 11.1467 4.6901 11.1551Z" fill="#F5F5F5"/>
<path d="M4.27919 11.3283L4.33647 11.3865L4.40997 11.3511C4.41949 11.3465 4.42938 11.3567 4.4245 11.366L4.38696 11.4384L4.4433 11.4974C4.45061 11.5051 4.44396 11.5176 4.43355 11.5158L4.35307 11.5025L4.3144 11.5743C4.30938 11.5836 4.29541 11.5812 4.29386 11.5707L4.28168 11.4901L4.20143 11.4755C4.19102 11.4736 4.18901 11.4595 4.19848 11.4549L4.27146 11.4183L4.26054 11.3375C4.25908 11.3271 4.27179 11.3208 4.27919 11.3283Z" fill="#F5F5F5"/>
<path d="M5.87804 11.0458L5.84424 11.1201L5.76306 11.1122C5.75256 11.1111 5.74679 11.1241 5.75457 11.1312L5.81476 11.1863L5.78214 11.261C5.77792 11.2707 5.78842 11.2802 5.79765 11.275L5.86862 11.2348L5.92965 11.2889C5.93757 11.296 5.94981 11.2888 5.9477 11.2785L5.93138 11.1986L6.00174 11.1573C6.01084 11.152 6.00793 11.1381 5.99743 11.1369L5.91638 11.1277L5.89885 11.048C5.89651 11.0377 5.8824 11.0362 5.87804 11.0458Z" fill="#F5F5F5"/>
<path d="M6.28796 11.1551L6.23889 11.2203L6.16131 11.1949C6.15128 11.1917 6.14284 11.203 6.14889 11.2117L6.19571 11.2785L6.14767 11.3445C6.14143 11.353 6.14968 11.3645 6.15976 11.3614L6.23776 11.3376L6.28562 11.4037C6.29181 11.4122 6.30535 11.408 6.3055 11.3974L6.3069 11.3158L6.38453 11.2908C6.39456 11.2875 6.3947 11.2733 6.38471 11.2699L6.30756 11.2434L6.3077 11.1618C6.30775 11.1512 6.29429 11.1467 6.28796 11.1551Z" fill="#F5F5F5"/>
<path d="M6.69893 11.3283L6.64165 11.3865L6.56815 11.3511C6.55864 11.3465 6.54875 11.3567 6.55362 11.366L6.59117 11.4384L6.53483 11.4974C6.52751 11.5051 6.53417 11.5176 6.54458 11.5158L6.62506 11.5025L6.66373 11.5743C6.66875 11.5836 6.68271 11.5812 6.68426 11.5707L6.69645 11.4901L6.7767 11.4755C6.7871 11.4736 6.78912 11.4595 6.77965 11.4549L6.70667 11.4183L6.71759 11.3375C6.71904 11.3271 6.70634 11.3208 6.69893 11.3283Z" fill="#F5F5F5"/>
<path d="M4.78467 13.4643L5.30352 13.8113H5.93066L6.22034 13.563L5.9975 13.6521H5.25894L4.78467 13.4643Z" fill="#8C5A28"/>
<path d="M5.13836 13.0165L5.0883 13.5215L4.86035 13.4345C4.86035 13.4345 4.96521 13.1912 5.13836 13.0165Z" fill="#F5F5F5"/>
<path d="M5.6255 12.8166H5.5918V13.6767H5.6255V12.8166Z" fill="#8C5A28"/>
<path d="M5.93751 12.8892H5.90381V13.6765H5.93751V12.8892Z" fill="#8C5A28"/>
<path d="M5.31495 12.8892H5.28125V13.6765H5.31495V12.8892Z" fill="#8C5A28"/>
<path d="M5.72319 13.5948H5.48591C5.4732 13.5948 5.46289 13.5845 5.46289 13.5718V13.4363C5.46289 13.4236 5.4732 13.4133 5.48591 13.4133H5.72319C5.73589 13.4133 5.7462 13.4236 5.7462 13.4363V13.5718C5.74615 13.5845 5.73589 13.5948 5.72319 13.5948Z" fill="#F5F5F5"/>
<path d="M5.72319 13.3528H5.48591C5.4732 13.3528 5.46289 13.3425 5.46289 13.3298V13.1944C5.46289 13.1817 5.4732 13.1714 5.48591 13.1714H5.72319C5.73589 13.1714 5.7462 13.1817 5.7462 13.1944V13.3298C5.74615 13.3425 5.73589 13.3528 5.72319 13.3528Z" fill="#F5F5F5"/>
<path d="M5.72319 13.13H5.48591C5.4732 13.13 5.46289 13.1197 5.46289 13.107V12.9716C5.46289 12.9589 5.4732 12.9486 5.48591 12.9486H5.72319C5.73589 12.9486 5.7462 12.9589 5.7462 12.9716V13.107C5.74615 13.1197 5.73589 13.13 5.72319 13.13Z" fill="#F5F5F5"/>
<path d="M6.01604 13.5948H5.81696C5.80426 13.5948 5.79395 13.5845 5.79395 13.5718V13.4363C5.79395 13.4236 5.80426 13.4133 5.81696 13.4133H6.01604C6.02874 13.4133 6.03905 13.4236 6.03905 13.4363V13.5718C6.03905 13.5845 6.02874 13.5948 6.01604 13.5948Z" fill="#F5F5F5"/>
<path d="M6.01604 13.372H5.81696C5.80426 13.372 5.79395 13.3617 5.79395 13.349V13.242C5.79395 13.2293 5.80426 13.219 5.81696 13.219H6.01604C6.02874 13.219 6.03905 13.2293 6.03905 13.242V13.349C6.03905 13.3617 6.02874 13.372 6.01604 13.372Z" fill="#F5F5F5"/>
<path d="M6.01604 13.1512H5.81696C5.80426 13.1512 5.79395 13.1409 5.79395 13.1282V13.0458C5.79395 13.0331 5.80426 13.0228 5.81696 13.0228H6.01604C6.02874 13.0228 6.03905 13.0331 6.03905 13.0458V13.1282C6.03905 13.1409 6.02874 13.1512 6.01604 13.1512Z" fill="#F5F5F5"/>
<path d="M5.39348 13.5948H5.1944C5.1817 13.5948 5.17139 13.5845 5.17139 13.5718V13.4363C5.17139 13.4236 5.1817 13.4133 5.1944 13.4133H5.39348C5.40618 13.4133 5.41649 13.4236 5.41649 13.4363V13.5718C5.41649 13.5845 5.40618 13.5948 5.39348 13.5948Z" fill="#F5F5F5"/>
<path d="M5.39348 13.372H5.1944C5.1817 13.372 5.17139 13.3617 5.17139 13.349V13.242C5.17139 13.2293 5.1817 13.219 5.1944 13.219H5.39348C5.40618 13.219 5.41649 13.2293 5.41649 13.242V13.349C5.41649 13.3617 5.40618 13.372 5.39348 13.372Z" fill="#F5F5F5"/>
<path d="M5.39348 13.1512H5.1944C5.1817 13.1512 5.17139 13.1409 5.17139 13.1282V13.0458C5.17139 13.0331 5.1817 13.0228 5.1944 13.0228H5.39348C5.40618 13.0228 5.41649 13.0331 5.41649 13.0458V13.1282C5.41649 13.1409 5.40618 13.1512 5.39348 13.1512Z" fill="#F5F5F5"/>
<path d="M5.31055 12.8892V12.9909L5.46031 12.9391L5.31055 12.8892Z" fill="#F5F5F5"/>
<path d="M5.93262 12.8892V12.9909L6.08238 12.9391L5.93262 12.8892Z" fill="#F5F5F5"/>
<path d="M5.62109 12.8161V12.9179L5.77086 12.8661L5.62109 12.8161Z" fill="#F5F5F5"/>
<path d="M5.22363 12.1288L5.40391 12.2493H5.62178L5.72242 12.163L5.64503 12.194H5.38844L5.22363 12.1288Z" fill="#8C5A28"/>
<path d="M5.34656 11.9732L5.32917 12.1487L5.25 12.1184C5.25 12.1184 5.28642 12.0339 5.34656 11.9732Z" fill="#F5F5F5"/>
<path d="M5.51807 11.9039H5.50635V12.2027H5.51807V11.9039Z" fill="#8C5A28"/>
<path d="M5.62646 11.9292H5.61475V12.2027H5.62646V11.9292Z" fill="#8C5A28"/>
<path d="M5.41016 11.9292H5.39844V12.2027H5.41016V11.9292Z" fill="#8C5A28"/>
<path d="M5.55189 12.174H5.46944C5.46504 12.174 5.46143 12.1704 5.46143 12.1659V12.1189C5.46143 12.1145 5.46499 12.1109 5.46944 12.1109H5.55189C5.5563 12.1109 5.55991 12.1144 5.55991 12.1189V12.1659C5.55991 12.1704 5.5563 12.174 5.55189 12.174Z" fill="#F5F5F5"/>
<path d="M5.55189 12.0899H5.46944C5.46504 12.0899 5.46143 12.0864 5.46143 12.0819V12.0348C5.46143 12.0304 5.46499 12.0268 5.46944 12.0268H5.55189C5.5563 12.0268 5.55991 12.0304 5.55991 12.0348V12.0819C5.55991 12.0864 5.5563 12.0899 5.55189 12.0899Z" fill="#F5F5F5"/>
<path d="M5.55189 12.0125H5.46944C5.46504 12.0125 5.46143 12.009 5.46143 12.0045V11.9574C5.46143 11.953 5.46499 11.9494 5.46944 11.9494H5.55189C5.5563 11.9494 5.55991 11.953 5.55991 11.9574V12.0045C5.55991 12.0089 5.5563 12.0125 5.55189 12.0125Z" fill="#F5F5F5"/>
<path d="M5.65386 12.174H5.58468C5.58027 12.174 5.57666 12.1704 5.57666 12.1659V12.1189C5.57666 12.1145 5.58022 12.1109 5.58468 12.1109H5.65386C5.65827 12.1109 5.66188 12.1144 5.66188 12.1189V12.1659C5.66183 12.1704 5.65827 12.174 5.65386 12.174Z" fill="#F5F5F5"/>
<path d="M5.65386 12.0966H5.58468C5.58027 12.0966 5.57666 12.0931 5.57666 12.0886V12.0514C5.57666 12.047 5.58022 12.0434 5.58468 12.0434H5.65386C5.65827 12.0434 5.66188 12.047 5.66188 12.0514V12.0886C5.66183 12.093 5.65827 12.0966 5.65386 12.0966Z" fill="#F5F5F5"/>
<path d="M5.65386 12.0199H5.58468C5.58027 12.0199 5.57666 12.0163 5.57666 12.0119V11.9832C5.57666 11.9788 5.58022 11.9752 5.58468 11.9752H5.65386C5.65827 11.9752 5.66188 11.9788 5.66188 11.9832V12.0119C5.66183 12.0163 5.65827 12.0199 5.65386 12.0199Z" fill="#F5F5F5"/>
<path d="M5.43755 12.174H5.36837C5.36396 12.174 5.36035 12.1704 5.36035 12.1659V12.1189C5.36035 12.1145 5.36391 12.1109 5.36837 12.1109H5.43755C5.44196 12.1109 5.44557 12.1144 5.44557 12.1189V12.1659C5.44557 12.1704 5.44201 12.174 5.43755 12.174Z" fill="#F5F5F5"/>
<path d="M5.43755 12.0966H5.36837C5.36396 12.0966 5.36035 12.0931 5.36035 12.0886V12.0514C5.36035 12.047 5.36391 12.0434 5.36837 12.0434H5.43755C5.44196 12.0434 5.44557 12.047 5.44557 12.0514V12.0886C5.44557 12.093 5.44201 12.0966 5.43755 12.0966Z" fill="#F5F5F5"/>
<path d="M5.43755 12.0199H5.36837C5.36396 12.0199 5.36035 12.0163 5.36035 12.0119V11.9832C5.36035 11.9788 5.36391 11.9752 5.36837 11.9752H5.43755C5.44196 11.9752 5.44557 11.9788 5.44557 11.9832V12.0119C5.44557 12.0163 5.44201 12.0199 5.43755 12.0199Z" fill="#F5F5F5"/>
<path d="M5.40869 11.9289V11.9642L5.46072 11.9462L5.40869 11.9289Z" fill="#F5F5F5"/>
<path d="M5.62451 11.9289V11.9642L5.67654 11.9462L5.62451 11.9289Z" fill="#F5F5F5"/>
<path d="M5.5166 11.9034V11.9388L5.56863 11.9208L5.5166 11.9034Z" fill="#F5F5F5"/>
<path d="M5.1335 11.5923H4.93086C4.90255 11.5923 4.87939 11.5692 4.87939 11.5409V11.4704C4.87939 11.4421 4.90255 11.419 4.93086 11.419H5.1335C5.16181 11.419 5.18497 11.4421 5.18497 11.4704V11.5409C5.18502 11.5692 5.16181 11.5923 5.1335 11.5923Z" fill="#F5F5F5"/>
<path d="M6.13879 11.5923H5.98116C5.95275 11.5923 5.92969 11.5693 5.92969 11.5409V11.4704C5.92969 11.442 5.95275 11.419 5.98116 11.419H6.13879C6.1672 11.419 6.19026 11.442 6.19026 11.4704V11.5409C6.19026 11.5693 6.1672 11.5923 6.13879 11.5923Z" fill="#F5F5F5"/>
<path d="M6.74316 11.7229H6.62612C6.60985 11.7229 6.59668 11.7097 6.59668 11.6935V11.645C6.59668 11.6287 6.60985 11.6155 6.62612 11.6155H6.74316C6.75943 11.6155 6.7726 11.6287 6.7726 11.645V11.6935C6.7726 11.7097 6.75943 11.7229 6.74316 11.7229Z" fill="#F5F5F5"/>
</g>
<defs>
<clipPath id="clip0_72_1310">
<path d="M0 2C0 0.895432 0.895431 0 2 0H21.9998C23.1043 0 23.9998 0.895431 23.9998 2V21.9998C23.9998 23.1043 23.1043 23.9998 21.9998 23.9998H2C0.895432 23.9998 0 23.1043 0 21.9998V2Z" fill="white"/>
</clipPath>
</defs>
</svg>
