<svg width="24" height="24" viewBox="0 0 24 24" fill="none" xmlns="http://www.w3.org/2000/svg">
<g clip-path="url(#clip0_72_1380)">
<path d="M24.0027 15.9998H0.00292969V23.9998H24.0027V15.9998Z" fill="#41479B"/>
<path d="M24.0027 6.10352e-05H0.00292969V8.00014H24.0027V6.10352e-05Z" fill="#FF4B55"/>
<path d="M24.0027 8.00014H0.00292969V16.0002H24.0027V8.00014Z" fill="#F5F5F5"/>
<path d="M9.35286 8.21051H7.58447V10.2317H9.35286V8.21051Z" fill="#FF4B55"/>
<path d="M12.89 8.21051H11.1216V10.2317H12.89V8.21051Z" fill="#FF4B55"/>
<path d="M11.1214 10.2313H9.35303V12.2525H11.1214V10.2313Z" fill="#FF4B55"/>
<path d="M16.4266 8.21051H14.6582V10.2317H16.4266V8.21051Z" fill="#FF4B55"/>
<path d="M14.658 10.2313H12.8896V12.2525H14.658V10.2313Z" fill="#FF4B55"/>
<path d="M11.1214 8.21051H9.35303V10.2317H11.1214V8.21051Z" fill="#F5F5F5"/>
<path d="M14.658 8.21051H12.8896V10.2317H14.658V8.21051Z" fill="#F5F5F5"/>
<path d="M9.35286 10.2313H7.58447V12.2525H9.35286V10.2313Z" fill="#F5F5F5"/>
<path d="M12.89 10.2313H11.1216V12.2525H12.89V10.2313Z" fill="#F5F5F5"/>
<path d="M16.4266 10.2313H14.6582V12.2525H16.4266V10.2313Z" fill="#F5F5F5"/>
<path d="M12.8851 12.2525H11.1167V14.2738H12.8851V12.2525Z" fill="#FF4B55"/>
<path d="M11.1165 14.2733H9.34814V16.2945H11.1165V14.2733Z" fill="#FF4B55"/>
<path d="M14.6532 14.2733H12.8848V16.2945H14.6532V14.2733Z" fill="#FF4B55"/>
<path d="M11.1165 12.2525H9.34814V14.2738H11.1165V12.2525Z" fill="#F5F5F5"/>
<path d="M14.6532 12.2525H12.8848V14.2738H14.6532V12.2525Z" fill="#F5F5F5"/>
<path d="M12.8851 14.2733H11.1167V16.2945H12.8851V14.2733Z" fill="#F5F5F5"/>
<path d="M16.4235 8.21051V13.8947C16.4235 16.3363 14.4441 18.3157 12.0024 18.3157C9.56079 18.3157 7.58142 16.3363 7.58142 13.8947V8.21051H16.4235ZM16.7393 7.89471H16.4235H7.58142H7.26562V8.21051V13.8947C7.26562 16.5065 9.39054 18.6315 12.0024 18.6315C14.6143 18.6315 16.7393 16.5066 16.7393 13.8947V8.21051V7.89471Z" fill="#FF4B55"/>
<path d="M9.34993 14.2735V12.2525H7.58154V13.8946C7.58154 14.0225 7.59003 14.1484 7.60067 14.2735H9.34993Z" fill="#FF4B55"/>
<path d="M16.4036 14.2735H14.6543V16.2945H15.7113C16.0948 15.7029 16.3405 15.0148 16.4036 14.2735Z" fill="#F5F5F5"/>
<path d="M8.29239 16.2945H9.34936V14.2735H7.6001C7.66319 15.0148 7.90881 15.7029 8.29239 16.2945Z" fill="#F5F5F5"/>
<path d="M14.6592 14.2737H16.4084C16.4191 14.1485 16.4276 14.0227 16.4276 13.8948V12.2527H14.6592V14.2737Z" fill="#FF4B55"/>
<path d="M9.35385 17.4255V16.2947H8.29688C8.58009 16.7316 8.93882 17.1132 9.35385 17.4255Z" fill="#FF4B55"/>
<path d="M15.7162 16.2947H14.6592V17.4255C15.0742 17.1132 15.4329 16.7316 15.7162 16.2947Z" fill="#FF4B55"/>
<path d="M9.34814 17.4254C9.86287 17.8128 10.4619 18.094 11.1165 18.2269V16.2946H9.34814V17.4254Z" fill="#F5F5F5"/>
<path d="M12.8853 18.2269C13.5399 18.094 14.1389 17.8128 14.6536 17.4254V16.2946H12.8853V18.2269Z" fill="#F5F5F5"/>
<path d="M12.8866 16.2946H11.1182V18.2269C11.4039 18.2849 11.6995 18.3157 12.0024 18.3157C12.3052 18.3157 12.6009 18.2849 12.8866 18.2269V16.2946H12.8866Z" fill="#FF4B55"/>
<path d="M8.80356 4.8663C8.41882 4.80676 8.02512 4.76383 7.62387 4.73903C7.31351 4.99454 7.01764 5.26089 6.73682 5.53674C7.01881 6.21745 7.30076 6.89821 7.58271 7.57897C8.14887 7.34451 8.72898 7.15687 9.31749 7.01615C9.14621 6.29953 8.97484 5.58291 8.80356 4.8663Z" fill="#4173CD"/>
<path d="M13.0774 4.531C12.7317 4.35607 12.3736 4.1943 12.004 4.04698C11.6345 4.19435 11.2764 4.35612 10.9307 4.531C10.9881 5.26553 11.0456 6.0001 11.1031 6.73476C11.7028 6.6878 12.3053 6.6878 12.905 6.73476C12.9625 6.00019 13.02 5.26562 13.0774 4.531Z" fill="#4173CD"/>
<path d="M17.2707 5.53674C16.9898 5.26089 16.694 4.99454 16.3836 4.73903C15.9824 4.76387 15.5887 4.80681 15.2039 4.8663C15.0326 5.58296 14.8613 6.29953 14.6899 7.0162C15.2785 7.15691 15.8586 7.34451 16.4247 7.57902C16.7067 6.89821 16.9887 6.21745 17.2707 5.53674Z" fill="#4173CD"/>
<path d="M10.9271 4.53091C10.5584 4.41195 10.179 4.30779 9.78991 4.2199C9.44669 4.42315 9.1166 4.63905 8.80029 4.86616C8.97162 5.58283 9.14295 6.2994 9.31427 7.01606C9.90283 6.87534 10.4997 6.7816 11.0995 6.73467C11.042 6.0001 10.9846 5.26553 10.9271 4.53091Z" fill="#41479B"/>
<path d="M15.2006 4.86621C14.8842 4.63905 14.5541 4.4232 14.2109 4.21995C13.8219 4.30784 13.4425 4.41199 13.0738 4.53096C13.0163 5.26548 12.9588 6.00006 12.9014 6.73472C13.5011 6.78164 14.0981 6.87539 14.6866 7.01611C14.8579 6.29944 15.0293 5.58283 15.2006 4.86621Z" fill="#41479B"/>
<path d="M10.9972 5.41247C10.3287 5.46473 9.66315 5.56926 9.00709 5.72615C8.97283 5.58281 8.93856 5.43951 8.9043 5.29612C9.5829 5.13394 10.2712 5.0258 10.9627 4.97166C10.9743 5.11866 10.9858 5.26552 10.9972 5.41247Z" fill="#FF4B55"/>
<path d="M11.0662 6.29394C10.4435 6.34264 9.82372 6.44005 9.21266 6.58611C9.17835 6.44281 9.14413 6.29942 9.10986 6.15613C9.74342 6.00463 10.3861 5.90361 11.0317 5.85318C11.0432 6.00008 11.0547 6.14708 11.0662 6.29394Z" fill="#FF4B55"/>
<path d="M14.1009 6.44236C13.9467 6.41494 13.7921 6.39061 13.6372 6.36928C13.3824 6.33408 13.1926 6.11775 13.2146 5.87452C13.2367 5.63147 13.4803 5.45509 13.7577 5.49334C13.924 5.51621 14.09 5.54237 14.2556 5.5718C14.5316 5.62055 14.7104 5.86378 14.6565 6.10172C14.6027 6.34003 14.3547 6.48708 14.1009 6.44236Z" fill="#FFE15A"/>
<path d="M16.5927 7.17046C16.0049 6.92704 15.4025 6.73218 14.7915 6.58612C14.8258 6.44283 14.86 6.29944 14.8943 6.15614C15.5279 6.30755 16.1524 6.50953 16.7619 6.762C16.7055 6.89817 16.6491 7.03434 16.5927 7.17046Z" fill="#FF4B55"/>
<path d="M16.4336 5.84418C16.3711 6.0164 16.1605 6.09833 15.9614 6.0336C15.7625 5.96882 15.6407 5.77959 15.6911 5.60348C15.7415 5.42737 15.9547 5.33414 16.1659 5.40271C16.3771 5.4712 16.496 5.67206 16.4336 5.84418Z" fill="#FFE15A"/>
<path d="M8.31139 5.60348C8.36174 5.77982 8.23982 5.96901 8.04102 6.0336C7.84209 6.09805 7.63143 6.01612 7.5689 5.84418C7.50632 5.67197 7.62543 5.4712 7.8366 5.40272C8.04758 5.33437 8.26114 5.42751 8.31139 5.60348Z" fill="#FFE15A"/>
<path d="M11.9003 5.31403C11.9007 5.46051 11.769 5.57976 11.606 5.58473C11.4429 5.58998 11.3039 5.4788 11.2953 5.33287C11.2868 5.18691 11.4184 5.06063 11.5895 5.05505C11.7606 5.04971 11.8996 5.16755 11.9003 5.31403Z" fill="#FFE15A"/>
<path d="M12.707 5.33287C12.6983 5.47903 12.5593 5.58993 12.3964 5.58473C12.2333 5.57971 12.1016 5.46046 12.1021 5.31403C12.1027 5.16773 12.2417 5.04956 12.4129 5.05505C12.5841 5.06025 12.7155 5.18681 12.707 5.33287Z" fill="#FFE15A"/>
<path d="M12.2884 5.99591C12.2843 6.14239 12.156 6.25756 12.0017 6.25752C11.8474 6.25742 11.7191 6.14239 11.7149 5.99591C11.7109 5.8499 11.8392 5.72722 12.0017 5.7276C12.1641 5.72732 12.2924 5.8498 12.2884 5.99591Z" fill="#FFE15A"/>
</g>
<defs>
<clipPath id="clip0_72_1380">
<path d="M0 2C0 0.895432 0.895431 0 2 0H21.9998C23.1043 0 23.9998 0.895431 23.9998 2V21.9998C23.9998 23.1043 23.1043 23.9998 21.9998 23.9998H2C0.895432 23.9998 0 23.1043 0 21.9998V2Z" fill="white"/>
</clipPath>
</defs>
</svg>
