<svg width="24" height="24" viewBox="0 0 24 24" fill="none" xmlns="http://www.w3.org/2000/svg">
<g clip-path="url(#clip0_72_1455)">
<path d="M24.0012 6.10352e-05H0.00146484V23.9998H24.0012V6.10352e-05Z" fill="#82AFFF"/>
<path d="M22.4032 0.00012207L0.00341797 17.6842V18.9473L24.0032 0.00012207H22.4032Z" fill="#FFE15A"/>
<path d="M1.60339 23.9999L24.0032 6.31586V5.05268L0.00341797 23.9999H1.60339Z" fill="#FFE15A"/>
<path d="M24.0012 6.10352e-05L0.00146484 18.9473V23.9998L24.0012 5.05262V6.10352e-05Z" fill="#FF4B55"/>
<path d="M5.7521 2.8626L6.34825 4.65016L8.23256 4.66478C8.33794 4.66558 8.38163 4.80006 8.29688 4.86264L6.78105 5.982L7.34945 7.77861C7.38123 7.87906 7.26686 7.96217 7.18112 7.90091L5.64809 6.80517L4.11506 7.90091C4.02932 7.96217 3.91495 7.87906 3.94673 7.77861L4.51513 5.982L2.9993 4.86264C2.91455 4.80006 2.95824 4.66558 3.06362 4.66478L4.94792 4.65016L5.54412 2.8626C5.57736 2.76266 5.71878 2.76266 5.7521 2.8626Z" fill="#FFE15A"/>
</g>
<defs>
<clipPath id="clip0_72_1455">
<path d="M0 2C0 0.895432 0.895431 0 2 0H21.9998C23.1043 0 23.9998 0.895431 23.9998 2V21.9998C23.9998 23.1043 23.1043 23.9998 21.9998 23.9998H2C0.895432 23.9998 0 23.1043 0 21.9998V2Z" fill="white"/>
</clipPath>
</defs>
</svg>
