<svg width="24" height="24" viewBox="0 0 24 24" fill="none" xmlns="http://www.w3.org/2000/svg">
<g clip-path="url(#clip0_72_1502)">
<path d="M24.0003 6.10352e-05H0.000488281V23.9998H24.0003V6.10352e-05Z" fill="#F5F5F5"/>
<path d="M9.47481 0.00012207H0.00146484V9.47347H9.47481V0.00012207Z" fill="#41479B"/>
<path d="M24.0007 14.5261H14.5273V23.9994H24.0007V14.5261Z" fill="#41479B"/>
<path d="M24.0007 0.00012207H14.5273V9.47347H24.0007V0.00012207Z" fill="#FF4B55"/>
<path d="M9.47481 14.5261H0.00146484V23.9994H9.47481V14.5261Z" fill="#FF4B55"/>
<path d="M11.6411 13.8007C11.6411 13.8007 12.0185 13.9389 11.9692 14.4126L12.1218 14.4098C12.1218 14.4098 12.0255 13.8624 11.946 13.7967C11.8665 13.7311 11.6411 13.8007 11.6411 13.8007Z" fill="#64B496"/>
<path d="M12.0195 13.7276C11.8595 13.7276 11.5797 13.7274 11.2856 13.648C11.3511 13.5797 11.4418 13.4422 11.4418 13.2025C11.4418 12.827 11.1831 13.0665 11.1831 13.0665C11.1831 13.0665 11.0129 13.2096 11.1158 13.5924C11.0154 13.5542 10.916 13.5048 10.821 13.4416C10.8801 13.3675 10.9978 13.1947 11.0663 12.9209C11.0663 12.9209 10.6352 12.8357 10.5172 13.1603C10.445 13.0686 10.3832 12.9655 10.3316 12.8514C10.4424 12.8528 10.597 12.7797 10.597 12.3577C10.597 12.3577 10.3155 12.3581 10.2402 12.6024C10.2106 12.5003 10.188 12.3909 10.1714 12.2753C10.2838 12.3079 10.5744 12.3313 10.5744 11.7007C10.5744 11.7007 10.2255 11.7013 10.1447 12.0104C10.1403 11.9313 10.1385 11.8496 10.1393 11.7653C10.3087 11.6768 10.5427 11.4816 10.5183 11.0813C10.5183 11.0813 10.3574 11.1178 10.2099 11.2415C10.239 11.0897 10.2269 10.8676 9.99422 10.6822C9.99422 10.6822 9.78033 11.0607 10.0927 11.3679C10.0656 11.4062 10.0419 11.4496 10.0223 11.498C9.95213 11.3911 9.83953 11.2917 9.65832 11.2313C9.65832 11.2313 9.57483 11.7383 10.0481 11.9503C10.0593 12.2464 10.1057 12.5079 10.1852 12.7354C10.0497 12.6159 9.93989 12.4515 9.93989 12.4515C9.93989 11.8883 9.47823 11.8741 9.47823 11.8741C9.39202 12.517 9.86733 12.543 9.86733 12.543L10.1276 12.827C9.56443 12.7332 9.56443 13.2025 9.56443 13.2025C9.93989 13.2963 10.1276 13.1086 10.1276 13.1086L10.3307 13.213C9.97055 13.2235 9.84605 13.5779 9.84605 13.5779C10.2987 13.6534 10.6297 13.5471 10.7423 13.5023C11.1982 13.8211 11.76 13.8215 12.0195 13.8215V13.7276Z" fill="#64B496"/>
<path d="M11.9878 13.7276C12.1478 13.7276 12.4276 13.7274 12.7218 13.648C12.6562 13.5797 12.5656 13.4422 12.5656 13.2025C12.5656 12.827 12.8243 13.0665 12.8243 13.0665C12.8243 13.0665 12.9944 13.2096 12.8915 13.5924C12.9919 13.5542 13.0913 13.5048 13.1863 13.4416C13.1272 13.3675 13.0095 13.1947 12.941 12.9209C12.941 12.9209 13.3721 12.8357 13.4901 13.1603C13.5623 13.0686 13.6241 12.9655 13.6757 12.8514C13.5649 12.8528 13.4103 12.7797 13.4103 12.3577C13.4103 12.3577 13.6919 12.3581 13.7672 12.6024C13.7967 12.5003 13.8193 12.3909 13.8359 12.2753C13.7235 12.3079 13.4329 12.3313 13.4329 11.7007C13.4329 11.7007 13.7818 11.7013 13.8626 12.0104C13.867 11.9313 13.8688 11.8496 13.868 11.7653C13.6986 11.6768 13.4647 11.4816 13.489 11.0813C13.489 11.0813 13.65 11.1178 13.7975 11.2415C13.7684 11.0897 13.7805 10.8676 14.0131 10.6822C14.0131 10.6822 14.227 11.0607 13.9147 11.3679C13.9418 11.4062 13.9655 11.4496 13.9851 11.498C14.0552 11.3911 14.1678 11.2917 14.3491 11.2313C14.3491 11.2313 14.4325 11.7383 13.9592 11.9503C13.948 12.2464 13.9017 12.5079 13.8222 12.7354C13.9577 12.6159 14.0675 12.4515 14.0675 12.4515C14.0675 11.8883 14.5291 11.8741 14.5291 11.8741C14.6153 12.517 14.14 12.543 14.14 12.543L13.8797 12.827C14.4429 12.7332 14.4429 13.2025 14.4429 13.2025C14.0675 13.2963 13.8797 13.1086 13.8797 13.1086L13.6767 13.213C14.0368 13.2235 14.1613 13.5779 14.1613 13.5779C13.7087 13.6534 13.3777 13.5471 13.2651 13.5023C12.8092 13.8211 12.2473 13.8215 11.9878 13.8215V13.7276H11.9878Z" fill="#64B496"/>
<path d="M10.4166 9.63568C10.0865 9.84723 9.79555 10.1166 9.56104 10.4346C9.66177 10.5089 9.7625 10.5832 9.86324 10.6575C10.0701 10.3768 10.3269 10.1391 10.6181 9.95228L10.4166 9.63568Z" fill="#41479B"/>
<path d="M12.0015 12.0762H13.3156V12.8271C13.3156 13.0345 13.1475 13.2026 12.9401 13.2026H12.3769C12.2227 13.2026 12.087 13.278 12.0015 13.3929V12.0762H12.0015Z" fill="#FF6B71"/>
<path d="M12.2832 11.2314V10.1989H13.6912L13.3157 10.5743V11.6069H12.2832V11.2314Z" fill="#5F64B9"/>
<path d="M13.3159 11.6067H12.8467V12.0759H13.3159V11.6067Z" fill="#F5F5F5"/>
<path d="M12.0016 12.0762H10.6875V12.8271C10.6875 13.0345 10.8556 13.2026 11.063 13.2026H11.6262C11.7804 13.2026 11.9161 13.278 12.0016 13.3929V12.0762Z" fill="#FF6B71"/>
<path d="M11.7671 13.2252C11.8607 13.2552 11.9415 13.3135 11.9996 13.3903H12.0039C12.062 13.3134 12.1428 13.2552 12.2364 13.2252V12.4517H11.7671V13.2252Z" fill="#F5F5F5"/>
<path d="M11.72 11.2314V10.1989H10.312L10.6875 10.5743V11.6069H11.72V11.2314Z" fill="#5F64B9"/>
<path d="M11.1567 11.6067H10.6875V12.0759H11.1567V11.6067Z" fill="#F5F5F5"/>
<path d="M11.1567 10.6682V10.9498L11.4384 11.1376V10.9498L11.1567 10.6682Z" fill="#41479B"/>
<path d="M11.4385 10.9498V11.2314L11.8139 11.4191V11.3253L11.4385 10.9498Z" fill="#F5F5F5"/>
<path d="M12.8461 10.6682V10.9498L12.5645 11.1376V10.9498L12.8461 10.6682Z" fill="#41479B"/>
<path d="M12.5649 10.9498V11.2314L12.1895 11.4191V11.3253L12.5649 10.9498Z" fill="#F5F5F5"/>
<path d="M12.5682 12.7332H11.4358C11.1784 12.7332 10.9697 12.5231 10.9697 12.2639V10.8121L12.0089 11.513L13.0344 10.8121V12.2639C13.0343 12.5231 12.8256 12.7332 12.5682 12.7332Z" fill="#FF4B55"/>
<path d="M11.3451 11.0438L10.9697 10.7622V11.7947L11.3451 11.9824V11.0438Z" fill="#41479B"/>
<path d="M12.6592 11.0438L13.0346 10.7622V11.7947L12.6592 11.9824V11.0438Z" fill="#41479B"/>
<path d="M12.5654 11.9823H11.439V12.4515H12.5654V11.9823Z" fill="#41479B"/>
<path d="M11.4385 11.1375L12.0017 11.4191L12.5648 11.1375V11.9823H11.4385V11.1375Z" fill="#FF4B55"/>
<path d="M12.4247 11.2263V12.1701C12.4247 12.2477 12.3616 12.3109 12.2839 12.3109H11.7207C11.6431 12.3109 11.5799 12.2477 11.5799 12.1701V11.2301L11.2983 11.0416V12.1701C11.2983 12.403 11.4878 12.5925 11.7207 12.5925H12.2839C12.5168 12.5925 12.7063 12.403 12.7063 12.1701V11.0352L12.4247 11.2263Z" fill="#F5F5F5"/>
<path d="M12.523 11.882C12.3649 11.8962 12.1869 11.9121 12.0023 11.9764C11.8177 11.9121 11.6397 11.8962 11.4816 11.882C11.2171 11.8582 11.0601 11.8351 10.9702 11.6755V11.9464C11.1082 12.0361 11.283 12.0526 11.4648 12.069C11.628 12.0837 11.7967 12.0988 11.9691 12.1641L12.0023 12.1766L12.0355 12.1641C12.2079 12.0988 12.3766 12.0837 12.5398 12.069C12.7218 12.0526 12.8968 12.0364 13.0348 11.9466V11.6749C12.945 11.835 12.7879 11.8581 12.523 11.882Z" fill="#F5F5F5"/>
<path d="M12.1894 10.9967H12.0486V10.8559H11.9547V10.9967H11.814V11.0906H11.9547V11.513H12.0486V11.0906H12.1894V10.9967Z" fill="#FFE15A"/>
<path d="M11.1277 10.5704L11.0762 10.6219L11.901 11.4467L11.9525 11.3952L11.1277 10.5704Z" fill="#464655"/>
<path d="M10.9473 10.4417L11.0503 10.6479L11.1535 10.5448L10.9473 10.4417Z" fill="#FFE15A"/>
<path d="M11.3172 10.4369L11.2583 10.4799L11.9451 11.4227L12.004 11.3798L11.3172 10.4369Z" fill="#464655"/>
<path d="M11.1582 10.2816L11.228 10.5014L11.3459 10.4155L11.1582 10.2816Z" fill="#FFE15A"/>
<path d="M10.9636 10.7434L10.9219 10.8031L11.8783 11.4709L11.92 11.4112L10.9636 10.7434Z" fill="#464655"/>
<path d="M10.7637 10.6483L10.9013 10.8333L10.9847 10.7138L10.7637 10.6483Z" fill="#FFE15A"/>
<path d="M12.05 11.3957L12.1016 11.4472L12.9264 10.6224L12.8748 10.5709L12.05 11.3957Z" fill="#464655"/>
<path d="M13.0553 10.4417L12.9522 10.6479L12.8491 10.5448L13.0553 10.4417Z" fill="#FFE15A"/>
<path d="M11.9992 11.3793L12.0581 11.4222L12.7449 10.4794L12.686 10.4365L11.9992 11.3793Z" fill="#464655"/>
<path d="M12.8444 10.2816L12.7746 10.5014L12.6567 10.4155L12.8444 10.2816Z" fill="#FFE15A"/>
<path d="M12.0833 11.4115L12.125 11.4712L13.0814 10.8034L13.0397 10.7437L12.0833 11.4115Z" fill="#464655"/>
<path d="M13.2391 10.6483L13.1015 10.8333L13.0181 10.7138L13.2391 10.6483Z" fill="#FFE15A"/>
<path d="M11.954 13.1759C11.954 13.1759 11.591 12.786 11.6614 12.4282C11.718 12.1404 11.8898 11.8231 12.0243 11.7459C12.0243 11.7459 12.2144 11.7342 12.1667 11.8993C12.119 12.0644 12.061 12.1071 12.0779 12.2698C12.1072 12.5514 12.1527 12.8852 11.954 13.1759Z" fill="#F5F5F5"/>
<path d="M12.0642 11.7479C12.0415 11.7449 12.0242 11.7458 12.0242 11.7458C11.8898 11.8231 11.718 12.1403 11.6614 12.4281C11.6294 12.5909 11.6872 12.76 11.7596 12.8963C11.7138 12.3062 11.8861 12.0969 12.0642 11.7479Z" fill="#41479B"/>
<path d="M12.0781 12.2698C12.0611 12.1071 12.1191 12.0645 12.1669 11.8993C12.2002 11.7837 12.1173 11.7548 12.0643 11.7479C12.0643 11.7479 11.9432 12.0263 11.9353 12.213C11.9284 12.3774 11.9705 13.0461 11.9542 13.1758C12.1529 12.8852 12.1074 12.5514 12.0781 12.2698Z" fill="#FF4B55"/>
<path d="M11.8317 11.8871C11.9074 11.8134 12.0137 11.7804 12.1178 11.7982C12.0684 11.6393 12.019 11.4804 11.9697 11.3215C11.8656 11.3036 11.7592 11.3367 11.6836 11.4104C11.733 11.5693 11.7824 11.7282 11.8317 11.8871Z" fill="#F5F0F0"/>
<path d="M12.1178 11.7982C12.1935 11.7246 12.2998 11.6915 12.4039 11.7094C12.3546 11.5505 12.3052 11.3915 12.2558 11.2326C12.1517 11.2147 12.0454 11.2478 11.9697 11.3215C12.0191 11.4804 12.0684 11.6393 12.1178 11.7982Z" fill="#F5F5F5"/>
<path d="M11.5726 9.73586C11.0631 9.72409 10.5598 9.84939 10.1152 10.0987C10.054 9.9895 9.99281 9.88033 9.93164 9.77115C10.4348 9.48902 11.0046 9.34722 11.5813 9.36049C11.5784 9.48559 11.5755 9.6107 11.5726 9.73586Z" fill="#5F64B9"/>
<path d="M13.5862 9.63568C13.9163 9.84723 14.2073 10.1166 14.4418 10.4346C14.3411 10.5089 14.2404 10.5832 14.1396 10.6575C13.9327 10.3768 13.676 10.1391 13.3848 9.95228L13.5862 9.63568Z" fill="#41479B"/>
<path d="M12.4305 9.73586C12.9401 9.72409 13.4434 9.84939 13.8879 10.0987C13.9491 9.9895 14.0104 9.88033 14.0715 9.77115C13.5683 9.48902 12.9986 9.34722 12.4219 9.36049C12.4248 9.48559 12.4276 9.6107 12.4305 9.73586Z" fill="#5F64B9"/>
<path d="M12.7528 9.63568C12.2612 9.5012 11.7425 9.5012 11.2509 9.63568C11.2179 9.51498 11.1849 9.39423 11.1519 9.27353C11.7083 9.12133 12.2954 9.12133 12.8519 9.27353C12.8188 9.39423 12.7858 9.51498 12.7528 9.63568Z" fill="#41479B"/>
<path d="M10.7426 13.8426C10.3374 13.9484 9.94138 14.0911 9.56006 14.2708C9.6134 14.384 9.66675 14.4972 9.72009 14.6104C10.0881 14.437 10.4706 14.3001 10.862 14.1996L10.7426 13.8426Z" fill="#FF6B71"/>
<path d="M13.2585 13.8426C13.6637 13.9484 14.0597 14.0911 14.4411 14.2708C14.3877 14.384 14.3344 14.4972 14.281 14.6104C13.9131 14.437 13.5305 14.3001 13.1392 14.1996L13.2585 13.8426Z" fill="#FF6B71"/>
<path d="M13.5098 14.1332C12.5226 13.8962 11.4933 13.8962 10.5061 14.1332C10.4769 14.0115 10.4477 13.8898 10.4185 13.7681C11.4632 13.5172 12.5526 13.5172 13.5974 13.7681C13.5682 13.8897 13.539 14.0114 13.5098 14.1332Z" fill="#FF4B55"/>
<path d="M12 14.2351L11.7411 14.2998C11.6819 14.3146 11.6245 14.2698 11.6245 14.2087V14.0737C11.6245 14.0127 11.6819 13.9678 11.7411 13.9827L12 14.0473V14.2351Z" fill="#FF4B55"/>
<path d="M12 14.0474L12.2588 13.9827C12.3181 13.9679 12.3755 14.0127 12.3755 14.0738V14.2088C12.3755 14.2699 12.3181 14.3147 12.2588 14.2999L12 14.2352V14.0474Z" fill="#FF4B55"/>
<path d="M12.0217 14.2351H11.9814C11.9407 14.2351 11.9077 14.2021 11.9077 14.1613V14.1211C11.9077 14.0803 11.9407 14.0473 11.9814 14.0473H12.0217C12.0624 14.0473 12.0954 14.0803 12.0954 14.1211V14.1613C12.0954 14.2021 12.0624 14.2351 12.0217 14.2351Z" fill="#FF6B71"/>
</g>
<defs>
<clipPath id="clip0_72_1502">
<path d="M0 2C0 0.895432 0.895431 0 2 0H21.9998C23.1043 0 23.9998 0.895431 23.9998 2V21.9998C23.9998 23.1043 23.1043 23.9998 21.9998 23.9998H2C0.895432 23.9998 0 23.1043 0 21.9998V2Z" fill="white"/>
</clipPath>
</defs>
</svg>
