<svg width="24" height="24" viewBox="0 0 24 24" fill="none" xmlns="http://www.w3.org/2000/svg">
<g clip-path="url(#clip0_72_1703)">
<path d="M23.9988 6.10352e-05H-0.000976562V8.00014H23.9988V6.10352e-05Z" fill="#73AF00"/>
<path d="M23.9988 15.9998H-0.000976562V23.9998H23.9988V15.9998Z" fill="#FF4B55"/>
<path d="M23.9988 8.00014H-0.000976562V16.0002H23.9988V8.00014Z" fill="#F5F5F5"/>
<path d="M6.51398 11.4504L-0.000976562 6.10352e-05V23.9998L6.51398 12.5495C6.6973 12.2273 6.6973 11.7726 6.51398 11.4504Z" fill="#4173CD"/>
<path d="M11.8476 12.5649C11.8476 12.5803 11.8425 14.0651 11.4628 14.7954H12.5297C12.15 14.0651 12.145 12.5803 12.145 12.5649C12.145 12.0533 12.6752 11.6468 12.6805 11.6428L12.5018 11.4051C12.4879 11.4155 12.3112 11.5509 12.145 11.771V11.3753H11.8476V11.771C11.6812 11.5509 11.5046 11.4155 11.4907 11.4051L11.312 11.6428C11.3174 11.6468 11.8476 12.0533 11.8476 12.5649Z" fill="#B46446"/>
<path d="M13.4834 10.7805C13.4743 10.7805 13.4659 10.7828 13.457 10.7834C13.3964 10.609 13.2324 10.4831 13.0373 10.4831C12.967 10.4831 12.9014 10.5008 12.8422 10.5298C12.7793 10.4139 12.658 10.3344 12.5169 10.3344C12.4763 10.3344 12.438 10.3425 12.4014 10.3545C12.3223 10.1679 12.1375 10.0369 11.922 10.0369C11.6573 10.0369 11.4411 10.2354 11.4082 10.4912C11.3817 10.487 11.355 10.483 11.3272 10.483C11.0398 10.483 10.8068 10.7161 10.8068 11.0035C10.8068 11.0372 10.8105 11.0701 10.8167 11.1021C10.685 11.1454 10.5814 11.2472 10.5358 11.3779C10.527 11.3771 10.5184 11.3752 10.5093 11.3752C10.3451 11.3752 10.2119 11.5084 10.2119 11.6727C10.2119 11.8369 10.3451 11.9701 10.5093 11.9701C10.5852 11.9701 10.6537 11.9408 10.7063 11.894C10.7774 11.942 10.8631 11.9701 10.9554 11.9701C11.0371 11.9701 11.1127 11.9466 11.1785 11.9082C11.2444 11.9465 11.3199 11.9701 11.4016 11.9701C11.648 11.9701 11.8477 11.7704 11.8477 11.524C11.8477 11.5051 11.8444 11.4872 11.8422 11.469C11.9114 11.5031 11.9883 11.524 12.0708 11.524C12.1742 11.524 12.27 11.493 12.351 11.441C12.427 11.5785 12.5717 11.6727 12.74 11.6727C12.7761 11.6727 12.8108 11.6672 12.8445 11.6591C12.9263 11.7575 13.0481 11.8214 13.1861 11.8214C13.3194 11.8214 13.4376 11.7618 13.5194 11.6691C13.7486 11.6505 13.9296 11.4607 13.9296 11.2266C13.9295 10.9802 13.7298 10.7805 13.4834 10.7805Z" fill="#73AF00"/>
<path d="M13.0371 11.1522C13.0371 11.1367 13.0403 11.1221 13.0416 11.107C12.9621 11.1806 12.8565 11.2265 12.7396 11.2265C12.5843 11.2265 12.4478 11.1469 12.3679 11.0265C12.288 11.1469 12.1515 11.2265 11.9961 11.2265C11.8767 11.2265 11.7688 11.1789 11.6887 11.1025C11.6424 11.3425 11.4317 11.5239 11.1783 11.5239C11.1525 11.5239 11.1279 11.5199 11.1032 11.5163C11.1032 11.5189 11.1039 11.5213 11.1039 11.5239C11.1039 11.7183 10.9788 11.882 10.8052 11.9431C10.8522 11.9599 10.9024 11.97 10.9552 11.97C11.0368 11.97 11.1124 11.9465 11.1783 11.9081C11.2441 11.9464 11.3196 11.97 11.4013 11.97C11.6477 11.97 11.8474 11.7703 11.8474 11.5239C11.8474 11.505 11.8442 11.4871 11.8419 11.4689C11.9112 11.503 11.9881 11.5239 12.0705 11.5239C12.1739 11.5239 12.2697 11.4929 12.3507 11.4409C12.4267 11.5784 12.5715 11.6726 12.7397 11.6726C12.7759 11.6726 12.8106 11.6671 12.8442 11.659C12.9261 11.7574 13.0478 11.8213 13.1858 11.8213C13.3191 11.8213 13.4374 11.7617 13.5191 11.669L13.5201 11.6689C13.2504 11.6493 13.0371 11.4268 13.0371 11.1522Z" fill="#5FA000"/>
<path d="M11.9963 15.7433C11.9724 15.7433 11.9512 15.728 11.9434 15.7055C11.9377 15.6888 11.7978 15.2973 11.2527 15.2973H10.5092C10.0685 15.2973 9.70996 14.9388 9.70996 14.4981V9.59083C9.70996 9.56003 9.73495 9.53505 9.76574 9.53505H14.3755C14.4063 9.53505 14.4313 9.56003 14.4313 9.59083V14.498C14.4313 14.9387 14.0728 15.2973 13.632 15.2973H12.7398C12.1915 15.2973 12.0505 15.7012 12.0492 15.7052C12.0416 15.728 12.0204 15.7433 11.9965 15.7433H11.9963ZM9.82148 9.64656V14.498C9.82148 14.8772 10.13 15.1857 10.5092 15.1857H11.2527C11.6941 15.1857 11.9078 15.4227 11.9963 15.5652C12.0848 15.4227 12.2984 15.1857 12.7398 15.1857H13.632C14.0112 15.1857 14.3197 14.8772 14.3197 14.498V9.64656H9.82148Z" fill="#464655"/>
<path d="M11.4229 8.26487L11.5642 8.49109L11.8308 8.50032L11.7055 8.73577L11.8308 8.97122L11.5642 8.98046L11.4229 9.20663L11.2817 8.98046L11.0151 8.97122L11.1404 8.73577L11.0151 8.50032L11.2817 8.49109L11.4229 8.26487Z" fill="#FFE15A"/>
<path d="M10.1668 8.46995L10.3569 8.65693L10.6183 8.60363L10.5515 8.86182L10.7282 9.0615L10.4713 9.13275L10.3867 9.38569L10.1965 9.19875L9.93521 9.252L10.002 8.99382L9.8252 8.79413L10.0822 8.72293L10.1668 8.46995Z" fill="#FFE15A"/>
<path d="M8.96128 8.82671L9.18736 8.96818L9.43101 8.85976L9.4215 9.12629L9.63726 9.28308L9.40167 9.4081L9.37373 9.67336L9.14766 9.53185L8.904 9.64031L8.91352 9.37378L8.69775 9.21699L8.93335 9.09193L8.96128 8.82671Z" fill="#FFE15A"/>
<path d="M12.5699 8.26487L12.4287 8.49109L12.1621 8.50032L12.2874 8.73577L12.1621 8.97122L12.4287 8.98046L12.5699 9.20663L12.7112 8.98046L12.9777 8.97122L12.8525 8.73577L12.9777 8.50032L12.7112 8.49109L12.5699 8.26487Z" fill="#FFE15A"/>
<path d="M13.8262 8.46995L13.636 8.65693L13.3747 8.60363L13.4415 8.86182L13.2646 9.0615L13.5217 9.13275L13.6062 9.38569L13.7964 9.19875L14.0577 9.252L13.9909 8.99382L14.1677 8.79413L13.9107 8.72293L13.8262 8.46995Z" fill="#FFE15A"/>
<path d="M15.0314 8.82671L14.8054 8.96818L14.5617 8.85976L14.5712 9.12629L14.3555 9.28308L14.5911 9.4081L14.619 9.67336L14.8451 9.53185L15.0887 9.64031L15.0792 9.37378L15.295 9.21699L15.0594 9.09193L15.0314 8.82671Z" fill="#FFE15A"/>
</g>
<defs>
<clipPath id="clip0_72_1703">
<path d="M0 2C0 0.895432 0.895431 0 2 0H21.9998C23.1043 0 23.9998 0.895431 23.9998 2V21.9998C23.9998 23.1043 23.1043 23.9998 21.9998 23.9998H2C0.895432 23.9998 0 23.1043 0 21.9998V2Z" fill="white"/>
</clipPath>
</defs>
</svg>
