<svg width="24" height="24" viewBox="0 0 24 24" fill="none" xmlns="http://www.w3.org/2000/svg">
<g clip-path="url(#clip0_72_1728)">
<path d="M23.9983 6.10352e-05H-0.00146484V8.00014H23.9983V6.10352e-05Z" fill="#73AF00"/>
<path d="M23.9983 15.9998H-0.00146484V23.9998H23.9983V15.9998Z" fill="#FF4B55"/>
<path d="M23.9983 8.00014H-0.00146484V16.0002H23.9983V8.00014Z" fill="#FFE15A"/>
<path d="M19.5782 12.007C19.5782 16.1871 16.1845 19.5869 11.9984 19.5869C7.81217 19.5869 4.41846 16.1871 4.41846 12.007C4.41846 7.81475 7.81217 4.42103 11.9984 4.42103C16.1845 4.42103 19.5782 7.81479 19.5782 12.007Z" fill="#4173CD"/>
<path d="M6.23633 10.1013H10.6404L11.6369 7.03435L11.9016 7.85699L10.4544 12.3154L10.0232 12.0009L10.474 10.6156H6.93209L6.23633 10.1013ZM8.43681 16.8827L9.7979 12.6965L7.18919 10.7969H8.04962L11.8412 13.5495L11.4102 13.864L10.2291 13.005L9.13261 16.3806L8.43681 16.8827ZM15.566 16.8827L12.0015 14.2937L9.39417 16.1871L9.66037 15.3765L13.4488 12.6179L13.6107 13.126L12.4325 13.979L15.2984 16.0661L15.566 16.8827ZM17.7665 10.1013L14.2049 12.6965L15.2016 15.7636L14.5059 15.2553L13.0601 10.7969H13.5894L14.04 12.1884L16.9076 10.1013L17.7665 10.1013ZM12.0015 5.91512L13.3626 10.1013H16.5884L15.8912 10.6156H11.2059L11.3709 10.1013H12.8317L11.7353 6.73172L12.0015 5.91512Z" fill="#F2DD30"/>
<path d="M12.1287 18.0685H11.8761V14.7837H12.1287V18.0685ZM17.729 13.991L14.606 12.9809L14.6846 12.745L17.8092 13.7552L17.729 13.991ZM6.27299 13.991L6.19434 13.7552L9.32031 12.745L9.3976 12.9809L6.27299 13.991ZM13.7395 9.82906L13.5337 9.68393L15.465 7.02816L15.6662 7.17343L13.7395 9.82906ZM10.2687 9.82906L8.33425 7.17343L8.53853 7.02816L10.4683 9.68393L10.2687 9.82906Z" fill="#F2DD30"/>
</g>
<defs>
<clipPath id="clip0_72_1728">
<path d="M0 2C0 0.895432 0.895431 0 2 0H21.9998C23.1043 0 23.9998 0.895431 23.9998 2V21.9998C23.9998 23.1043 23.1043 23.9998 21.9998 23.9998H2C0.895432 23.9998 0 23.1043 0 21.9998V2Z" fill="white"/>
</clipPath>
</defs>
</svg>
