<svg width="24" height="24" viewBox="0 0 24 24" fill="none" xmlns="http://www.w3.org/2000/svg">
<g clip-path="url(#clip0_72_1871)">
<path d="M23.9934 17.684H-0.00634766V23.9999H23.9934V17.684Z" fill="#FF4B55"/>
<path d="M23.9934 0.00012207H-0.00634766V6.316H23.9934V0.00012207Z" fill="#FF4B55"/>
<path d="M23.9968 6.31594H-0.00292969V17.6844H23.9968V6.31594Z" fill="#F5F5F5"/>
<path d="M16.1602 10.3872L12.1511 12.0237C12.1495 12.0196 12.1476 12.0159 12.1457 12.012L16.0176 10.073C15.8645 9.7674 15.6786 9.48118 15.4628 9.22023L12.1247 11.9808C12.1213 11.9766 12.1194 11.9713 12.1157 11.9675L15.1757 8.90449C14.9574 8.68615 14.7161 8.49101 14.4568 8.32113L12.0877 11.9475C12.0823 11.9439 12.0774 11.9397 12.0717 11.9367L14.0073 8.06248C13.6964 7.90672 13.3651 7.78625 13.0182 7.70562L12.0345 11.9244C12.022 11.9214 12.0101 11.9168 11.9966 11.9168C11.9832 11.9168 11.9713 11.9214 11.9587 11.9244L10.975 7.70562C10.6282 7.78625 10.2968 7.90672 9.98594 8.06248L11.9216 11.9367C11.9158 11.9397 11.9109 11.9439 11.9056 11.9475L9.53646 8.32113C9.27715 8.49105 9.03588 8.68615 8.81754 8.90449L11.8775 11.9675C11.8738 11.9713 11.8719 11.9766 11.8686 11.9808L8.53048 9.22023C8.31472 9.48118 8.12872 9.7674 7.97563 10.073L11.8475 12.012C11.8456 12.0159 11.8437 12.0196 11.8422 12.0237L7.83304 10.3872C7.71219 10.6836 7.62234 10.9957 7.56688 11.3197L11.8351 12.0587C11.8345 12.0624 11.8332 12.0658 11.8329 12.0696L7.52455 11.6208C7.50904 11.7728 7.50098 11.9271 7.50098 12.0832C7.50098 12.3531 7.5261 12.6171 7.57171 12.874L11.9966 12.4162L16.4215 12.8739C16.4671 12.617 16.4923 12.3531 16.4923 12.0831C16.4923 11.927 16.4842 11.7728 16.4687 11.6208L12.1604 12.0696C12.16 12.0658 12.1587 12.0624 12.1582 12.0587L16.4264 11.3197C16.371 10.9957 16.2811 10.6836 16.1602 10.3872Z" fill="#FFB955"/>
<path d="M7.65479 13.2388C7.68563 13.3551 7.72121 13.4693 7.76096 13.5817H16.2386C16.2783 13.4694 16.3139 13.3551 16.3448 13.2388C15.9294 13.1851 15.8778 12.9157 15.3719 12.9157C14.8102 12.9157 14.8102 13.2487 14.2485 13.2487C13.6868 13.2487 13.6867 12.9157 13.125 12.9157C12.5631 12.9157 12.5631 13.2487 12.0012 13.2487C11.4397 13.2487 11.4397 12.9157 10.8781 12.9157C10.316 12.9157 10.316 13.2487 9.75392 13.2487C9.19147 13.2487 9.19147 12.9157 8.62903 12.9157C8.12241 12.9157 8.07084 13.1851 7.65479 13.2388Z" fill="#4173CD"/>
<path d="M15.2398 14.0812C14.6991 14.0811 14.699 13.7482 14.1581 13.7482C13.6172 13.7482 13.6172 14.0812 13.0763 14.0812C12.5354 14.0812 12.5354 13.7482 11.9944 13.7482C11.4533 13.7482 11.4533 14.0812 10.9123 14.0812C10.3715 14.0812 10.3715 13.7482 9.83069 13.7482C9.28943 13.7482 9.28943 14.0812 8.74817 14.0812C8.26794 14.0812 8.21272 13.82 7.8291 13.7606C7.92069 13.9881 8.02926 14.207 8.15521 14.4142H15.2395H15.24H15.8449C15.9711 14.2064 16.0799 13.987 16.1716 13.7589C15.7765 13.8145 15.725 14.0811 15.2398 14.0812Z" fill="#4173CD"/>
<path d="M15.6692 14.6786C15.5646 14.6237 15.4406 14.5808 15.2468 14.5808C14.7059 14.5808 14.7059 14.9138 14.165 14.9138C13.624 14.9138 13.624 14.5808 13.0831 14.5808C12.542 14.5808 12.542 14.9138 12.001 14.9138C11.4602 14.9138 11.4602 14.5808 10.9194 14.5808C10.3781 14.5808 10.3781 14.9138 9.83686 14.9138C9.29523 14.9138 9.29523 14.5808 8.75364 14.5808C8.55925 14.5808 8.43498 14.6239 8.33008 14.6789C8.47333 14.881 8.63214 15.0713 8.80604 15.2468H15.193C15.367 15.0711 15.5259 14.8808 15.6692 14.6786Z" fill="#4173CD"/>
<path d="M14.7701 15.6225C14.6067 15.5277 14.4752 15.4133 14.1579 15.4133C13.6169 15.4133 13.6169 15.7463 13.076 15.7463C12.5351 15.7463 12.5351 15.4133 11.9941 15.4133C11.4531 15.4133 11.4531 15.7463 10.912 15.7463C10.3712 15.7463 10.3712 15.4133 9.83042 15.4133C9.51725 15.4133 9.38506 15.5246 9.22461 15.6186C9.44745 15.7937 9.68712 15.9482 9.94104 16.0793H14.0586C14.3106 15.9492 14.5486 15.796 14.7701 15.6225Z" fill="#4173CD"/>
<path d="M10.9197 16.2458C10.7424 16.2458 10.6236 16.2818 10.5244 16.3298C10.9867 16.4904 11.4829 16.5788 11.9999 16.5788H12.0007C11.4605 16.5786 11.4603 16.2458 10.9197 16.2458Z" fill="#4173CD"/>
<path d="M12.0039 16.5787C12.5202 16.5782 13.0156 16.4898 13.4773 16.3292C13.3784 16.2814 13.2599 16.2458 13.0835 16.2458C12.5433 16.2458 12.5422 16.5776 12.0039 16.5787Z" fill="#4173CD"/>
<path d="M12.5845 11.5141L11.1599 11.1023C11.08 11.0792 11.0247 11.0071 11.0236 10.9239C11.0171 10.3964 10.9941 8.53887 10.9941 8.25364C10.9941 7.92065 11.3271 7.4211 11.9932 7.4211H12.5183C12.568 7.4211 12.583 7.48874 12.5373 7.50834C12.2968 7.61146 11.9932 7.82629 11.9932 8.25364C11.9932 8.76106 12.4764 8.97851 12.7065 9.05332C12.7777 9.07643 12.8257 9.14178 12.8257 9.21659V11.3327C12.8257 11.4584 12.7052 11.549 12.5845 11.5141Z" fill="#FF4B55"/>
<path d="M11.328 13.3776C11.3802 13.346 11.4422 13.3988 11.4187 13.4552C11.2792 13.7899 10.9375 14.4144 10.3281 14.4144C9.4956 14.4144 9.3291 13.7483 9.3291 13.2488V9.71702C9.3291 9.6445 9.38788 9.58572 9.4604 9.58572H9.6973C9.76982 9.58572 9.8286 9.6445 9.8286 9.71702V13.0823C9.82864 13.5325 10.7754 13.7122 11.328 13.3776Z" fill="#FF4B55"/>
<path d="M12.5885 13.3776C12.5362 13.346 12.4743 13.3988 12.4978 13.4552C12.6373 13.7899 12.979 14.4144 13.5883 14.4144C14.4209 14.4144 14.5874 13.7483 14.5874 13.2488V9.71702C14.5874 9.6445 14.5286 9.58572 14.4561 9.58572H14.2192C14.1467 9.58572 14.0879 9.6445 14.0879 9.71702V13.0823C14.0878 13.5325 13.1411 13.7122 12.5885 13.3776Z" fill="#FF4B55"/>
<path d="M13.7775 12.8326H10.2098C10.1835 12.8326 10.1621 12.8112 10.1621 12.7848V12.7138C10.1621 12.6874 10.1835 12.6661 10.2098 12.6661H13.7775C13.8038 12.6661 13.8252 12.6874 13.8252 12.7138V12.7848C13.8252 12.8112 13.8038 12.8326 13.7775 12.8326Z" fill="#AA4650"/>
<path d="M10.5159 12.204L10.6962 11.9636C10.7238 11.9269 10.7163 11.8747 10.6795 11.847C10.6427 11.8196 10.5906 11.8272 10.563 11.8638L10.4928 11.9573V11.8927C10.4928 11.8467 10.4556 11.8095 10.4096 11.8095C10.3635 11.8095 10.3263 11.8467 10.3263 11.8927V11.9513L10.2607 11.8638C10.2331 11.8271 10.181 11.8194 10.1442 11.8471C10.1074 11.8747 10.0999 11.9269 10.1275 11.9636L10.3078 12.2041L10.1275 12.4445C10.0999 12.4812 10.1074 12.5334 10.1442 12.5611C10.1592 12.5723 10.1767 12.5777 10.194 12.5777C10.2194 12.5777 10.2444 12.5661 10.2607 12.5443L10.4118 12.3428L10.5629 12.5443C10.5793 12.5661 10.6042 12.5777 10.6296 12.5777C10.647 12.5777 10.6645 12.5723 10.6794 12.5611C10.7163 12.5334 10.7237 12.4812 10.6961 12.4445L10.5159 12.204Z" fill="#AA4650"/>
<path d="M12.0701 12.204L12.2504 11.9636C12.278 11.9269 12.2705 11.8747 12.2337 11.847C12.1969 11.8196 12.1448 11.8272 12.1172 11.8638L12.047 11.9573V11.8927C12.047 11.8467 12.0098 11.8095 11.9638 11.8095C11.9177 11.8095 11.8805 11.8467 11.8805 11.8927V11.9513L11.8149 11.8638C11.7873 11.8271 11.7351 11.8194 11.6984 11.8471C11.6616 11.8747 11.6541 11.9269 11.6817 11.9636L11.862 12.2041L11.6817 12.4445C11.6541 12.4812 11.6616 12.5334 11.6984 12.5611C11.7134 12.5723 11.7309 12.5777 11.7482 12.5777C11.7736 12.5777 11.7986 12.5661 11.8149 12.5443L11.966 12.3428L12.1171 12.5443C12.1335 12.5661 12.1584 12.5777 12.1838 12.5777C12.2012 12.5777 12.2187 12.5723 12.2336 12.5611C12.2705 12.5334 12.2779 12.4812 12.2503 12.4445L12.0701 12.204Z" fill="#AA4650"/>
<path d="M11.2927 12.204L11.473 11.9636C11.5007 11.9269 11.4932 11.8747 11.4563 11.847C11.4196 11.8196 11.3674 11.8272 11.3398 11.8638L11.2697 11.9573V11.8927C11.2697 11.8467 11.2325 11.8095 11.1864 11.8095C11.1404 11.8095 11.1032 11.8467 11.1032 11.8927V11.9513L11.0376 11.8638C11.01 11.8271 10.9578 11.8194 10.9211 11.8471C10.8842 11.8747 10.8768 11.9269 10.9044 11.9636L11.0847 12.2041L10.9044 12.4445C10.8767 12.4812 10.8842 12.5334 10.9211 12.5611C10.936 12.5723 10.9535 12.5777 10.9709 12.5777C10.9963 12.5777 11.0212 12.5661 11.0376 12.5443L11.1887 12.3428L11.3398 12.5443C11.3562 12.5661 11.3811 12.5777 11.4065 12.5777C11.4238 12.5777 11.4413 12.5723 11.4563 12.5611C11.4931 12.5334 11.5006 12.4812 11.473 12.4445L11.2927 12.204Z" fill="#AA4650"/>
<path d="M12.8469 12.204L13.0272 11.9636C13.0549 11.9269 13.0474 11.8747 13.0105 11.847C12.9738 11.8196 12.9216 11.8272 12.894 11.8638L12.8239 11.9573V11.8927C12.8239 11.8467 12.7867 11.8095 12.7406 11.8095C12.6946 11.8095 12.6574 11.8467 12.6574 11.8927V11.9513L12.5918 11.8638C12.5642 11.8271 12.512 11.8194 12.4753 11.8471C12.4384 11.8747 12.431 11.9269 12.4586 11.9636L12.6389 12.2041L12.4586 12.4445C12.4309 12.4812 12.4384 12.5334 12.4753 12.5611C12.4902 12.5723 12.5077 12.5777 12.5251 12.5777C12.5505 12.5777 12.5754 12.5661 12.5918 12.5443L12.7429 12.3428L12.894 12.5443C12.9104 12.5661 12.9353 12.5777 12.9607 12.5777C12.978 12.5777 12.9955 12.5723 13.0105 12.5611C13.0473 12.5334 13.0548 12.4812 13.0272 12.4445L12.8469 12.204Z" fill="#AA4650"/>
<path d="M13.6243 12.204L13.8046 11.9636C13.8322 11.9269 13.8247 11.8747 13.7879 11.847C13.7511 11.8196 13.699 11.8272 13.6714 11.8638L13.6012 11.9573V11.8927C13.6012 11.8467 13.564 11.8095 13.518 11.8095C13.4719 11.8095 13.4347 11.8467 13.4347 11.8927V11.9513L13.3691 11.8638C13.3415 11.8271 13.2893 11.8194 13.2526 11.8471C13.2158 11.8747 13.2083 11.9269 13.2359 11.9636L13.4162 12.2041L13.2359 12.4445C13.2083 12.4812 13.2158 12.5334 13.2526 12.5611C13.2676 12.5723 13.2851 12.5777 13.3024 12.5777C13.3278 12.5777 13.3528 12.5661 13.3691 12.5443L13.5202 12.3428L13.6713 12.5443C13.6877 12.5661 13.7126 12.5777 13.738 12.5777C13.7554 12.5777 13.7729 12.5723 13.7878 12.5611C13.8247 12.5334 13.8321 12.4812 13.8045 12.4445L13.6243 12.204Z" fill="#AA4650"/>
<path d="M10.3623 13.3468C10.4854 13.4006 11.2088 13.4083 11.3935 13.2159C11.5782 13.0236 11.5397 12.9389 11.5397 12.9389L10.6624 12.9466L10.3623 13.3468Z" fill="#AA4650"/>
<path d="M13.5899 13.3468C13.4668 13.4006 12.7434 13.4083 12.5587 13.2159C12.374 13.0236 12.4125 12.9389 12.4125 12.9389L13.2898 12.9466L13.5899 13.3468Z" fill="#AA4650"/>
</g>
<defs>
<clipPath id="clip0_72_1871">
<path d="M0 2C0 0.895432 0.895431 0 2 0H21.9998C23.1043 0 23.9998 0.895431 23.9998 2V21.9998C23.9998 23.1043 23.1043 23.9998 21.9998 23.9998H2C0.895432 23.9998 0 23.1043 0 21.9998V2Z" fill="white"/>
</clipPath>
</defs>
</svg>
