<svg width="24" height="24" viewBox="0 0 24 24" fill="none" xmlns="http://www.w3.org/2000/svg">
<g clip-path="url(#clip0_72_1924)">
<path d="M24.0027 6.10352e-05H0.00292969V8.00014H24.0027V6.10352e-05Z" fill="#FF4B55"/>
<path d="M24.0027 15.9998H0.00292969V23.9998H24.0027V15.9998Z" fill="#73AF00"/>
<path d="M24.0027 8.00014H0.00292969V16.0002H24.0027V8.00014Z" fill="#FFE15A"/>
<path d="M12.2694 8.98849L12.9285 10.9648L15.0117 10.9809C15.2814 10.9831 15.3933 11.3273 15.1763 11.4875L13.5004 12.7251L14.1288 14.7113C14.2102 14.9685 13.9173 15.1812 13.6979 15.0243L12.0031 13.8129L10.3082 15.0243C10.0888 15.1812 9.79595 14.9685 9.87732 14.7113L10.5057 12.7251L8.82982 11.4875C8.61284 11.3273 8.72468 10.9831 8.99439 10.9809L11.0776 10.9648L11.7367 8.98849C11.8221 8.73265 12.184 8.73265 12.2694 8.98849Z" fill="#464655"/>
</g>
<defs>
<clipPath id="clip0_72_1924">
<path d="M0 2C0 0.895432 0.895431 0 2 0H21.9998C23.1043 0 23.9998 0.895431 23.9998 2V21.9998C23.9998 23.1043 23.1043 23.9998 21.9998 23.9998H2C0.895432 23.9998 0 23.1043 0 21.9998V2Z" fill="white"/>
</clipPath>
</defs>
</svg>
