<svg width="24" height="24" viewBox="0 0 24 24" fill="none" xmlns="http://www.w3.org/2000/svg">
<g clip-path="url(#clip0_72_1929)">
<path d="M24.0027 6.10352e-05H0.00292969V23.9998H24.0027V6.10352e-05Z" fill="#F5F5F5"/>
<path d="M24.0056 15.7893H0.00585938V23.9999H24.0056V15.7893Z" fill="#FF4B55"/>
<path d="M18.2163 9.3045V8.17529H17.0871V5.35223H17.6517V4.22302H14.264V5.35223H14.8286V8.17529H13.1348V4.22302H13.6994V3.09381H10.3118V4.22302H10.8764V8.17529H9.18254V5.35223H9.74715V4.22302H6.35953V5.35223H6.92413V8.17529H5.79492V9.3045H6.35953V13.8214H5.79492V14.9506H18.2163V13.8214H17.6517V9.3045H18.2163Z" fill="#FF4B55"/>
<path d="M13.1334 14.386H10.875V11.7483C10.875 11.3341 11.2108 10.9983 11.625 10.9983H12.3834C12.7977 10.9983 13.1334 11.3341 13.1334 11.7483V14.386Z" fill="#464655"/>
<path d="M12.0041 6.48146C11.6922 6.48146 11.4395 6.73425 11.4395 7.04606V8.73987H12.5687V7.04606C12.5687 6.7342 12.3159 6.48146 12.0041 6.48146Z" fill="#464655"/>
<path d="M15.9567 7.04606C15.6449 7.04606 15.3921 7.29885 15.3921 7.61066V8.73987H16.5213V7.61066C16.5213 7.2988 16.2685 7.04606 15.9567 7.04606Z" fill="#464655"/>
<path d="M8.05191 7.04606C7.7401 7.04606 7.4873 7.29885 7.4873 7.61066V8.73987H8.61651V7.61066C8.61651 7.2988 8.36372 7.04606 8.05191 7.04606Z" fill="#464655"/>
<path d="M16.5211 14.386H14.2627V12.3129C14.2627 11.8987 14.5985 11.5629 15.0127 11.5629H15.7711C16.1853 11.5629 16.5211 11.8987 16.5211 12.3129V14.386Z" fill="#464655"/>
<path d="M9.74572 14.386H7.4873V12.3129C7.4873 11.8987 7.82307 11.5629 8.2373 11.5629H8.99573C9.40996 11.5629 9.74572 11.8987 9.74572 12.3129V14.386Z" fill="#464655"/>
<path d="M13.7397 16.7368C13.7397 16.6313 13.687 16.5326 13.5991 16.474L12.3187 15.6204V15.353L13.4073 14.8087C13.5633 14.7307 13.6265 14.541 13.5485 14.385C13.4702 14.2286 13.2811 14.1657 13.1248 14.2438L12.0029 14.8047L10.881 14.2438C10.7256 14.1658 10.5353 14.2287 10.4573 14.385C10.3793 14.5411 10.4425 14.7307 10.5985 14.8087L11.6872 15.353V15.6204L10.4067 16.474C10.3188 16.5326 10.2661 16.6313 10.2661 16.7368C10.2661 16.8422 10.3188 16.9409 10.4067 16.9995L11.6872 17.8531V20.5262H10.424V21.0097C10.424 21.1843 10.5653 21.3255 10.7398 21.3255C10.8607 21.3255 10.9659 21.2577 11.0189 21.1578H11.6872V21.7894H11.0134C10.9588 21.695 10.8567 21.6315 10.7398 21.6315C10.5653 21.6315 10.424 21.7727 10.424 21.9473V22.4209H11.6872V22.7367C11.6872 22.9113 11.8284 23.0525 12.003 23.0525C12.1775 23.0525 12.3187 22.9113 12.3187 22.7367V22.4209V20.5262V17.8532L13.5992 16.9995C13.687 16.9409 13.7397 16.8422 13.7397 16.7368ZM12.0029 17.3045L11.1511 16.7367L12.0029 16.169L12.8546 16.7367L12.0029 17.3045Z" fill="#FFE15A"/>
</g>
<defs>
<clipPath id="clip0_72_1929">
<path d="M0 2C0 0.895432 0.895431 0 2 0H21.9998C23.1043 0 23.9998 0.895431 23.9998 2V21.9998C23.9998 23.1043 23.1043 23.9998 21.9998 23.9998H2C0.895432 23.9998 0 23.1043 0 21.9998V2Z" fill="white"/>
</clipPath>
</defs>
</svg>
