<svg width="24" height="24" viewBox="0 0 24 24" fill="none" xmlns="http://www.w3.org/2000/svg">
<g clip-path="url(#clip0_72_1959)">
<path d="M24.0017 6.10352e-05H0.00195312V23.9998H24.0017V6.10352e-05Z" fill="#FF4B55"/>
<path d="M20.908 3.09378V20.9061H3.0957V3.09378H20.908Z" fill="#FFE15A"/>
<path d="M3.09766 3.09381L12.0038 12L3.09766 20.9061V3.09381Z" fill="#73AF00"/>
<path d="M20.9101 3.09381L12.0039 12L20.9101 20.9061V3.09381Z" fill="#73AF00"/>
<path d="M13.7094 10.8436C14.834 12.8128 12.8152 14.8316 10.846 13.707C10.6169 13.5761 10.4261 13.3854 10.2953 13.1563C9.17064 11.1871 11.1895 9.1683 13.1587 10.2929C13.3878 10.4238 13.5785 10.6145 13.7094 10.8436Z" fill="#FF4B55"/>
<path d="M12.1291 10.5124L12.4466 11.4644L13.4501 11.4722C13.5801 11.4732 13.6339 11.639 13.5294 11.7162L12.7221 12.3123L13.0248 13.2692C13.064 13.3931 12.9229 13.4955 12.8172 13.42L12.0008 12.8364L11.1843 13.42C11.0786 13.4956 10.9376 13.3931 10.9767 13.2692L11.2795 12.3124L10.4721 11.7162C10.3676 11.639 10.4215 11.4732 10.5514 11.4722L11.5549 11.4644L11.8725 10.5124C11.9136 10.3891 12.088 10.3891 12.1291 10.5124Z" fill="#FFE15A"/>
<path d="M12.063 0.790042L12.2159 1.24866L12.6993 1.25241C12.7619 1.25288 12.7879 1.33276 12.7375 1.36997L12.3486 1.65717L12.4945 2.11809C12.5133 2.17776 12.4454 2.22712 12.3945 2.19075L12.0012 1.90959L11.6079 2.1907C11.557 2.22708 11.489 2.17772 11.5079 2.11805L11.6538 1.65713L11.2648 1.36993C11.2145 1.33276 11.2405 1.25288 11.303 1.25237L11.7865 1.24862L11.9394 0.789996C11.9592 0.730699 12.0432 0.730699 12.063 0.790042Z" fill="#FFE15A"/>
<path d="M17.5069 0.790048L17.6598 1.24867L18.1432 1.25242C18.2058 1.25289 18.2318 1.33276 18.1814 1.36998L17.7925 1.65718L17.9383 2.1181C17.9572 2.17777 17.8893 2.22713 17.8384 2.19075L17.4451 1.90965L17.0518 2.19075C17.0009 2.22713 16.9329 2.17777 16.9518 2.1181L17.0976 1.65718L16.7087 1.36998C16.6583 1.33281 16.6843 1.25293 16.7469 1.25242L17.2303 1.24867L17.3833 0.790048C17.4031 0.730705 17.4871 0.730705 17.5069 0.790048Z" fill="#FFE15A"/>
<path d="M6.61917 0.790048L6.77212 1.24867L7.25554 1.25242C7.31812 1.25289 7.34408 1.33276 7.29374 1.36998L6.90482 1.65718L7.05065 2.1181C7.06954 2.17777 7.00157 2.22713 6.95067 2.19075L6.55739 1.90965L6.16406 2.19075C6.11316 2.22713 6.04519 2.17777 6.06408 2.1181L6.20991 1.65718L5.82099 1.36998C5.77065 1.33281 5.79662 1.25293 5.85919 1.25242L6.34261 1.24867L6.49556 0.790048C6.51539 0.730705 6.59939 0.730705 6.61917 0.790048Z" fill="#FFE15A"/>
<path d="M12.063 21.6492L12.2159 22.1078L12.6993 22.1116C12.7619 22.1121 12.7879 22.1919 12.7375 22.2291L12.3486 22.5163L12.4945 22.9773C12.5133 23.0369 12.4454 23.0863 12.3945 23.0499L12.0012 22.7688L11.6079 23.0499C11.557 23.0862 11.489 23.0369 11.5079 22.9772L11.6538 22.5163L11.2648 22.2291C11.2145 22.1919 11.2405 22.1121 11.303 22.1115L11.7865 22.1078L11.9394 21.6492C11.9592 21.5899 12.0432 21.5899 12.063 21.6492Z" fill="#FFE15A"/>
<path d="M17.5069 21.6492L17.6598 22.1078L18.1432 22.1116C18.2058 22.112 18.2318 22.1919 18.1814 22.2291L17.7925 22.5163L17.9383 22.9773C17.9572 23.0369 17.8893 23.0863 17.8384 23.0499L17.4451 22.7688L17.0518 23.0499C17.0009 23.0863 16.9329 23.0369 16.9518 22.9773L17.0976 22.5163L16.7087 22.2291C16.6583 22.192 16.6843 22.1121 16.7469 22.1116L17.2303 22.1078L17.3833 21.6492C17.4031 21.5899 17.4871 21.5899 17.5069 21.6492Z" fill="#FFE15A"/>
<path d="M6.61917 21.6492L6.77212 22.1078L7.25554 22.1116C7.31812 22.112 7.34408 22.1919 7.29374 22.2291L6.90482 22.5163L7.05065 22.9773C7.06954 23.0369 7.00157 23.0863 6.95067 23.0499L6.55739 22.7688L6.16406 23.0499C6.11316 23.0863 6.04519 23.0369 6.06408 22.9773L6.20991 22.5163L5.82099 22.2291C5.77065 22.192 5.79662 22.1121 5.85919 22.1116L6.34261 22.1078L6.49556 21.6492C6.51539 21.5899 6.59939 21.5899 6.61917 21.6492Z" fill="#FFE15A"/>
<path d="M6.18713 10.9654H4.87305V12.2795C4.87305 13.0053 5.46142 13.5936 6.18713 13.5936C6.91284 13.5936 7.50126 13.0053 7.50126 12.2796C7.50126 11.5537 6.91289 10.9654 6.18713 10.9654Z" fill="#FFE15A"/>
<path d="M7.50212 13.5937L6.77978 13.4536L6.18799 12.2796L7.36205 12.8713L7.50212 13.5937Z" fill="#FF4B55"/>
</g>
<defs>
<clipPath id="clip0_72_1959">
<path d="M0 2C0 0.895432 0.895431 0 2 0H21.9998C23.1043 0 23.9998 0.895431 23.9998 2V21.9998C23.9998 23.1043 23.1043 23.9998 21.9998 23.9998H2C0.895432 23.9998 0 23.1043 0 21.9998V2Z" fill="white"/>
</clipPath>
</defs>
</svg>
