<svg width="24" height="24" viewBox="0 0 24 24" fill="none" xmlns="http://www.w3.org/2000/svg">
<g clip-path="url(#clip0_72_1976)">
<path d="M24.0018 0.00127411H0.00439453V23.9987H24.0018V0.00127411Z" fill="#41479B"/>
<path d="M12.0031 5.68487C9.60305 6.94753 7.98438 9.95495 7.98438 11.9999C7.98438 14.0449 9.60305 17.0524 12.0031 18.315C14.4031 17.0524 16.0218 14.0449 16.0218 11.9999C16.0218 9.95495 14.4031 6.94753 12.0031 5.68487Z" fill="#3CC8FF"/>
<path d="M12.5215 9.83758C12.9092 9.63316 13.5712 9.40825 14.3235 9.6843C14.3235 9.6843 13.599 8.8773 12.5936 9.53481C12.8641 9.20683 13.2704 8.80076 13.7102 8.68765C13.7102 8.68765 12.8348 8.36075 12.3051 9.5282C12.4077 8.93937 12.3889 8.01228 11.4399 7.47407C11.4399 7.47407 11.9706 8.61293 12.0227 9.55787C11.9919 9.3902 11.9301 9.21494 11.7672 9.04497C11.2654 8.52134 10.8291 8.4777 10.8291 8.4777C10.8291 8.4777 11.5249 9.24874 11.8667 9.97829C11.6698 9.7427 11.3227 9.44088 10.7636 9.45953C9.45454 9.50317 9.1709 10.2886 9.1709 10.2886C9.71361 10.0601 10.5748 9.94632 11.2425 10.0028C10.3805 10.1546 10.0744 11.2285 10.0744 11.2285C10.7664 10.3654 11.5219 10.2253 11.8236 10.2047C11.2726 10.6606 11.3062 11.4999 11.3062 11.4999C11.4342 11.0273 11.9303 10.4888 12.172 10.2475C12.8229 10.9516 12.8999 11.7432 12.8999 11.7432C12.8999 11.7432 13.0423 11.505 12.9766 11.0204C12.9144 10.5628 12.6274 10.2624 12.4082 10.0859C13.5574 10.2443 14.3072 11.0779 14.3072 11.0779C13.9312 9.98073 12.9904 9.8379 12.5215 9.83758Z" fill="#73AF00"/>
<path d="M22.7387 1.26431V22.7356H1.26743V1.26431H22.7387ZM23.9993 0.00127411H0.00195312V23.9986H23.9993V0.00127411Z" fill="#FF4B55"/>
<path d="M10.7207 13.5261L11.2996 12.5262L16.0556 12.421L15.7399 13.7366L10.7207 13.5261Z" fill="#FF965A"/>
<path d="M8.1582 13.263C8.63487 15.1339 10.0633 17.2943 12.0034 18.315C13.9435 17.2943 15.3719 15.1338 15.8485 13.263H8.1582Z" fill="#4173CD"/>
<path d="M8.84668 15.1576C8.84668 15.1576 10.2241 15.0894 11.0517 15.4292C11.2584 15.5141 11.2851 15.7933 11.0985 15.9162C10.6954 16.1814 10.1097 16.638 10.1097 17.0522L8.84668 15.1576Z" fill="#FFE15A"/>
<path d="M11.2677 17.6836C11.2151 17.1574 11.6807 16.7745 12.3202 16.5259C13.1491 16.2036 12.6952 15.6904 12.2808 15.355C11.7865 14.9549 12.4255 14.8419 15.1094 14.7893L13.7938 16.8417L12.0045 18.3152L11.2677 17.6836Z" fill="#FFE15A"/>
<path d="M12.003 18.6721L11.8559 18.5944C9.35111 17.2771 7.66846 14.1208 7.66846 11.9999C7.66846 9.87906 9.35111 6.72276 11.8559 5.40549L12.003 5.32777L12.1501 5.40549C14.6549 6.72276 16.3375 9.87906 16.3375 11.9999C16.3375 14.1208 14.6549 17.2771 12.1501 18.5944L12.003 18.6721ZM12.003 6.04439C9.78133 7.29875 8.29995 10.1048 8.29995 11.9999C8.29995 13.8951 9.78128 16.7011 12.003 17.9555C14.2247 16.7011 15.706 13.8951 15.706 11.9999C15.706 10.1048 14.2247 7.2988 12.003 6.04439Z" fill="#FF4B55"/>
<path d="M13.3423 15.6046C13.3134 15.6046 13.2843 15.597 13.2585 15.5806C12.4003 15.0413 11.9082 14.1486 11.9082 13.1313V10.2238C11.9082 10.1365 11.9788 10.0659 12.0661 10.0659C12.1534 10.0659 12.2239 10.1366 12.2239 10.2238V13.1313C12.2239 14.0376 12.6621 14.8328 13.4262 15.3129C13.5002 15.3594 13.5224 15.4569 13.4762 15.5306C13.4459 15.5784 13.3947 15.6046 13.3423 15.6046Z" fill="#A54B37"/>
<path d="M12.3408 10.0114C12.5708 10.3626 12.195 10.7384 11.8438 10.5084C11.823 10.4948 11.805 10.4768 11.7913 10.4559C11.5613 10.1047 11.9371 9.72891 12.2883 9.95893C12.3092 9.97257 12.3272 9.99052 12.3408 10.0114Z" fill="#A54B37"/>
</g>
<defs>
<clipPath id="clip0_72_1976">
<path d="M0 2C0 0.895428 0.895431 0 2 0H21.9999C23.1044 0 23.9999 0.895431 23.9999 2V21.9999C23.9999 23.1044 23.1044 23.9999 21.9999 23.9999H2C0.895428 23.9999 0 23.1044 0 21.9999V2Z" fill="white"/>
</clipPath>
</defs>
</svg>
