<svg width="24" height="24" viewBox="0 0 24 24" fill="none" xmlns="http://www.w3.org/2000/svg">
<g clip-path="url(#clip0_72_2081)">
<path d="M23.9998 6.10352e-05H0V3.00003H23.9998V6.10352e-05Z" fill="#F5F5F5"/>
<path d="M23.9998 3.00003H0V6H23.9998V3.00003Z" fill="#FF4B55"/>
<path d="M23.9998 6H0V8.99997H23.9998V6Z" fill="#41479B"/>
<path d="M23.9998 8.99997H0V11.9999H23.9998V8.99997Z" fill="#F5F5F5"/>
<path d="M23.9998 14.9999H0V11.3684H0.517261L0.517214 11.9999H23.9998V14.9999Z" fill="#FF4B55"/>
<path d="M23.9998 17.9999H0V20.9999H23.9998V17.9999Z" fill="#F5F5F5"/>
<path d="M23.9998 20.9999H0V23.9998H23.9998V20.9999Z" fill="#FF4B55"/>
<path d="M24.0007 15H0.000976562V17.9999H24.0007V15Z" fill="#41479B"/>
<path d="M4.422 0.00012207H0.000976562V0.936535L4.422 3.83305V0.00012207Z" fill="#41479B"/>
<path d="M0.000976562 3.20161V4.42115H1.86236L0.000976562 3.20161Z" fill="#41479B"/>
<path d="M0.000976562 7.57899V8.79852L1.86236 7.57899H0.000976562Z" fill="#41479B"/>
<path d="M12.0011 0.936535V0.00012207H7.58008V3.83305L12.0011 0.936535Z" fill="#41479B"/>
<path d="M12.001 8.79852V7.57899H10.1396L12.001 8.79852Z" fill="#41479B"/>
<path d="M7.58008 8.16707V12H12.0011V11.0636L7.58008 8.16707Z" fill="#41479B"/>
<path d="M12.001 4.42115V3.20161L10.1396 4.42115H12.001Z" fill="#41479B"/>
<path d="M0.000976562 11.0636V12H4.422V8.16707L0.000976562 11.0636Z" fill="#41479B"/>
<path d="M12.0008 11.0636V10.1278L8.07422 7.57898H9.23427L12.0008 9.37479V8.79852L10.1394 7.57898H12.0008V6.9474H6.94824V12H7.57978V8.16707L12.0008 11.0636Z" fill="#F5F5F5"/>
<path d="M0.000976562 6.9474V7.57898H1.86236L0.000976562 8.79852V9.68449L3.24455 7.57898H4.4046L0.000976562 10.4375V11.0636L4.422 8.16707V12H5.05354V6.9474H0.000976562Z" fill="#F5F5F5"/>
<path d="M5.05354 0.00012207H4.422V3.83305L0.000976562 0.936535V1.96131L3.79041 4.42114H2.63036L0.000976562 2.71435V3.20161L1.86236 4.42114H0.000976562V5.05273H5.05354V0.00012207Z" fill="#F5F5F5"/>
<path d="M12.0008 5.05273V4.42114H10.1394L12.0008 3.20161V2.30433L8.73983 4.42114H7.57978L12.0008 1.55134V0.936535L7.57978 3.83305V0.00012207H6.94824V5.05273H12.0008Z" fill="#F5F5F5"/>
<path d="M12.0009 6.9474V5.05273H6.9483V0.00012207H5.05354V5.05273H0.000976562V6.9474H5.05354V12H6.9483V6.9474H12.0009Z" fill="#FF4B55"/>
<path d="M3.24455 7.57899L0.000976562 9.6845V10.4375L4.40461 7.57899H3.24455Z" fill="#FF4B55"/>
<path d="M8.07422 7.57899L12.0008 10.1278V9.3748L9.23427 7.57899H8.07422Z" fill="#FF4B55"/>
<path d="M3.79041 4.42115L0.000976562 1.96131V2.71435L2.63036 4.42115H3.79041Z" fill="#FF4B55"/>
<path d="M8.74013 4.42114L12.0011 2.30433V1.55134L7.58008 4.42114H8.74013Z" fill="#FF4B55"/>
</g>
<defs>
<clipPath id="clip0_72_2081">
<path d="M0 2C0 0.895432 0.895431 0 2 0H21.9998C23.1043 0 23.9998 0.895431 23.9998 2V21.9998C23.9998 23.1043 23.1043 23.9998 21.9998 23.9998H2C0.895432 23.9998 0 23.1043 0 21.9998V2Z" fill="white"/>
</clipPath>
</defs>
</svg>
