<svg width="24" height="24" viewBox="0 0 24 24" fill="none" xmlns="http://www.w3.org/2000/svg">
<g clip-path="url(#clip0_72_2133)">
<path d="M23.9998 6.10352e-05H0V23.9998H23.9998V6.10352e-05Z" fill="#41479B"/>
<path d="M23.9998 9.93099H10.7585V6.10352e-05H6.62061V9.93099H0V14.0689H6.62061V23.9998H10.7585V14.0689H23.9998V9.93099Z" fill="#F5F5F5"/>
<path d="M23.9998 10.7586H9.93093V6.10352e-05H7.44822V10.7586H0V13.2413H7.44822V23.9998H9.93093V13.2413H23.9998V10.7586Z" fill="#FF4B55"/>
</g>
<defs>
<clipPath id="clip0_72_2133">
<path d="M0 2C0 0.895432 0.895431 0 2 0H21.9998C23.1043 0 23.9998 0.895431 23.9998 2V21.9998C23.9998 23.1043 23.1043 23.9998 21.9998 23.9998H2C0.895432 23.9998 0 23.1043 0 21.9998V2Z" fill="white"/>
</clipPath>
</defs>
</svg>
