<svg width="24" height="24" viewBox="0 0 24 24" fill="none" xmlns="http://www.w3.org/2000/svg">
<g clip-path="url(#clip0_72_2165)">
<path d="M23.9988 6.10352e-05H-0.000976562V8.00529H23.9988V6.10352e-05Z" fill="#73AF00"/>
<path d="M23.9923 23.9998H0.005539C0.00192966 23.9998 -0.000976562 23.9969 -0.000976562 23.9933V15.9945H23.9988V23.9933C23.9988 23.9969 23.9959 23.9998 23.9923 23.9998Z" fill="#FF4B55"/>
<path d="M23.9968 7.99726H-0.00292969V16.0025H23.9968V7.99726Z" fill="#F5F5F5"/>
<path d="M0.427051 6.64052V6.6296C0.427051 6.57471 0.38252 6.53018 0.32763 6.53018H-0.00292969V6.73994H0.32763C0.382567 6.73994 0.427051 6.69541 0.427051 6.64052Z" fill="#F5F5F5"/>
<path d="M0.427051 7.47414V7.46842C0.427051 7.41353 0.38252 7.369 0.32763 7.369H0.117538C0.0626478 7.369 0.018117 7.32447 0.018117 7.26958V7.2588C0.018117 7.2039 0.0626478 7.15937 0.117538 7.15937H0.529518C0.584408 7.15937 0.628939 7.2039 0.628939 7.2588V7.47414C0.628939 7.52903 0.67347 7.57356 0.72836 7.57356H1.5571C1.61199 7.57356 1.65652 7.52903 1.65652 7.47414V6.62955C1.65652 6.57466 1.61199 6.53013 1.5571 6.53013H1.55152C1.49663 6.53013 1.4521 6.57466 1.4521 6.62955V7.26958C1.4521 7.32447 1.40757 7.369 1.35268 7.369H1.34443C1.28954 7.369 1.24501 7.32447 1.24501 7.26958V6.62955C1.24501 6.57466 1.20048 6.53013 1.14559 6.53013H1.14259C1.0877 6.53013 1.04317 6.57466 1.04317 6.62955V7.26958C1.04317 7.32447 0.998639 7.369 0.943749 7.369H0.935499C0.880609 7.369 0.836078 7.32447 0.836078 7.26958V6.62955C0.836078 6.57466 0.791547 6.53013 0.736657 6.53013H0.728407C0.673517 6.53013 0.628986 6.57466 0.628986 6.62955V6.85014C0.628986 6.90503 0.584455 6.94956 0.529565 6.94956H-0.00292969V7.57356H0.32763C0.382567 7.57356 0.427051 7.52907 0.427051 7.47414Z" fill="#F5F5F5"/>
<path d="M5.65156 6.53013H5.64598C5.59109 6.53013 5.54656 6.57466 5.54656 6.62955V7.26958C5.54656 7.32447 5.50203 7.369 5.44714 7.369H5.44414C5.38925 7.369 5.34472 7.32447 5.34472 7.26958V6.62955C5.34472 6.57466 5.30019 6.53013 5.2453 6.53013H5.23705C5.18216 6.53013 5.13763 6.57466 5.13763 6.62955V7.26958C5.13763 7.32447 5.0931 7.369 5.03821 7.369H5.02996C4.97507 7.369 4.93054 7.32447 4.93054 7.26958V6.62955C4.93054 6.57466 4.88601 6.53013 4.83112 6.53013H4.8254C4.77051 6.53013 4.72598 6.57466 4.72598 6.62955V6.85014C4.72598 6.90503 4.68145 6.94956 4.62656 6.94956H4.00762C3.95273 6.94956 3.9082 6.99409 3.9082 7.04898V7.47414C3.9082 7.52903 3.95273 7.57356 4.00762 7.57356H4.42485C4.47974 7.57356 4.52428 7.52903 4.52428 7.47414V7.46842C4.52428 7.41353 4.47974 7.369 4.42485 7.369H4.21204C4.15715 7.369 4.11262 7.32447 4.11262 7.26958V7.2588C4.11262 7.2039 4.15715 7.15937 4.21204 7.15937H4.6266C4.68149 7.15937 4.72602 7.2039 4.72602 7.2588V7.47414C4.72602 7.52903 4.77055 7.57356 4.82544 7.57356H5.65161C5.7065 7.57356 5.75103 7.52903 5.75103 7.47414V6.62955C5.75103 6.57466 5.7065 6.53013 5.65156 6.53013Z" fill="#F5F5F5"/>
<path d="M2.37551 7.57356C2.4304 7.57356 2.47493 7.52903 2.47493 7.47414V7.46842C2.47493 7.41353 2.4304 7.369 2.37551 7.369H2.36993C2.31504 7.369 2.27051 7.41353 2.27051 7.46842V7.47414C2.27051 7.52903 2.31504 7.57356 2.36993 7.57356H2.37551Z" fill="#F5F5F5"/>
<path d="M1.96075 6.73994H4.42537C4.48026 6.73994 4.52479 6.69541 4.52479 6.64052V6.6296C4.52479 6.57471 4.48026 6.53018 4.42537 6.53018H1.96075C1.90586 6.53018 1.86133 6.57471 1.86133 6.6296V6.64052C1.86133 6.69541 1.90581 6.73994 1.96075 6.73994Z" fill="#F5F5F5"/>
<path d="M3.60473 6.94956H3.19022C3.13533 6.94956 3.0908 6.99409 3.0908 7.04898V7.05991C3.0908 7.1148 3.13533 7.15933 3.19022 7.15933H3.40036C3.45525 7.15933 3.49978 7.20386 3.49978 7.25875V7.26953C3.49978 7.32442 3.45525 7.36895 3.40036 7.36895H2.98313C2.92824 7.36895 2.88371 7.32442 2.88371 7.26953V7.04894C2.88371 6.99405 2.83918 6.94952 2.78429 6.94952H1.96075C1.90586 6.94952 1.86133 6.99405 1.86133 7.04894V7.47409C1.86133 7.52898 1.90586 7.57351 1.96075 7.57351H1.96633C2.02122 7.57351 2.06575 7.52898 2.06575 7.47409V7.25875C2.06575 7.20386 2.11028 7.15933 2.16517 7.15933H2.57982C2.63471 7.15933 2.67924 7.20386 2.67924 7.25875V7.47409C2.67924 7.52898 2.72377 7.57351 2.77866 7.57351H3.60473C3.65962 7.57351 3.70415 7.52898 3.70415 7.47409V7.04894C3.70415 6.99409 3.65962 6.94956 3.60473 6.94956Z" fill="#F5F5F5"/>
<path d="M6.46926 7.57356C6.52415 7.57356 6.56868 7.52903 6.56868 7.47414V7.46842C6.56868 7.41353 6.52415 7.369 6.46926 7.369H6.46368C6.40879 7.369 6.36426 7.41353 6.36426 7.46842V7.47414C6.36426 7.52903 6.40879 7.57356 6.46368 7.57356H6.46926Z" fill="#F5F5F5"/>
<path d="M6.05548 6.73994H8.51737C8.57226 6.73994 8.61679 6.69541 8.61679 6.64052V6.6296C8.61679 6.57471 8.57226 6.53018 8.51737 6.53018H6.05548C6.00059 6.53018 5.95605 6.57471 5.95605 6.6296V6.64052C5.95605 6.69541 6.00059 6.73994 6.05548 6.73994Z" fill="#F5F5F5"/>
<path d="M9.74705 6.53013H9.74147C9.68658 6.53013 9.64205 6.57466 9.64205 6.62955V7.26958C9.64205 7.32447 9.59752 7.369 9.54263 7.369H9.53691C9.48202 7.369 9.43749 7.32447 9.43749 7.26958V6.62955C9.43749 6.57466 9.39296 6.53013 9.33807 6.53013H9.32982C9.27493 6.53013 9.2304 6.57466 9.2304 6.62955V7.26958C9.2304 7.32447 9.18587 7.369 9.13098 7.369H9.12798C9.07309 7.369 9.02856 7.32447 9.02856 7.26958V6.62955C9.02856 6.57466 8.98403 6.53013 8.92914 6.53013H8.92356C8.86867 6.53013 8.82414 6.57466 8.82414 6.62955V6.85014C8.82414 6.90503 8.77961 6.94956 8.72472 6.94956H8.1004C8.04551 6.94956 8.00098 6.99409 8.00098 7.04898V7.47414C8.00098 7.52903 8.04551 7.57356 8.1004 7.57356H8.51763C8.57252 7.57356 8.61705 7.52903 8.61705 7.47414V7.46842C8.61705 7.41353 8.57252 7.369 8.51763 7.369H8.30749C8.2526 7.369 8.20807 7.32447 8.20807 7.26958V7.2588C8.20807 7.2039 8.2526 7.15937 8.30749 7.15937H8.72472C8.77961 7.15937 8.82414 7.2039 8.82414 7.2588V7.47414C8.82414 7.52903 8.86867 7.57356 8.92356 7.57356H9.74705C9.80194 7.57356 9.84647 7.52903 9.84647 7.47414V6.62955C9.84647 6.57466 9.80194 6.53013 9.74705 6.53013Z" fill="#F5F5F5"/>
<path d="M7.69941 6.94956H7.28218C7.22729 6.94956 7.18276 6.99409 7.18276 7.04898V7.05991C7.18276 7.1148 7.22729 7.15933 7.28218 7.15933H7.49232C7.54721 7.15933 7.59174 7.20386 7.59174 7.25875V7.26953C7.59174 7.32442 7.54721 7.36895 7.49232 7.36895H7.07781C7.02292 7.36895 6.97839 7.32442 6.97839 7.26953V7.04894C6.97839 6.99405 6.93386 6.94952 6.87897 6.94952H6.05548C6.00059 6.94952 5.95605 6.99405 5.95605 7.04894V7.47409C5.95605 7.52898 6.00059 7.57351 6.05548 7.57351H6.06105C6.11594 7.57351 6.16047 7.52898 6.16047 7.47409V7.25875C6.16047 7.20386 6.20501 7.15933 6.2599 7.15933H6.67441C6.7293 7.15933 6.77383 7.20386 6.77383 7.25875V7.47409C6.77383 7.52898 6.81836 7.57351 6.87325 7.57351H7.69941C7.7543 7.57351 7.79883 7.52898 7.79883 7.47409V7.04894C7.79883 6.99409 7.75435 6.94956 7.69941 6.94956Z" fill="#F5F5F5"/>
<path d="M13.8412 6.53013H13.8355C13.7806 6.53013 13.7361 6.57466 13.7361 6.62955V7.26958C13.7361 7.32447 13.6916 7.369 13.6367 7.369H13.6311C13.5762 7.369 13.5317 7.32447 13.5317 7.26958V6.62955C13.5317 6.57466 13.4872 6.53013 13.4323 6.53013H13.4267C13.3718 6.53013 13.3273 6.57466 13.3273 6.62955V7.26958C13.3273 7.32447 13.2827 7.369 13.2278 7.369H13.2221C13.1672 7.369 13.1227 7.32447 13.1227 7.26958V6.62955C13.1227 6.57466 13.0782 6.53013 13.0233 6.53013H13.0177C12.9628 6.53013 12.9183 6.57466 12.9183 6.62955V6.85014C12.9183 6.90503 12.8738 6.94956 12.8189 6.94956H12.1971C12.1422 6.94956 12.0977 6.99409 12.0977 7.04898V7.47414C12.0977 7.52903 12.1422 7.57356 12.1971 7.57356H12.6143C12.6692 7.57356 12.7137 7.52903 12.7137 7.47414V7.46842C12.7137 7.41353 12.6692 7.369 12.6143 7.369H12.4016C12.3467 7.369 12.3022 7.32447 12.3022 7.26958V7.2588C12.3022 7.2039 12.3467 7.15937 12.4016 7.15937H12.8189C12.8738 7.15937 12.9183 7.2039 12.9183 7.2588V7.47414C12.9183 7.52903 12.9628 7.57356 13.0177 7.57356H13.8412C13.8961 7.57356 13.9406 7.52903 13.9406 7.47414V6.62955C13.9407 6.57466 13.8961 6.53013 13.8412 6.53013Z" fill="#F5F5F5"/>
<path d="M11.7943 6.94956H11.3771C11.3222 6.94956 11.2777 6.99409 11.2777 7.04898V7.05991C11.2777 7.1148 11.3222 7.15933 11.3771 7.15933H11.5898C11.6447 7.15933 11.6892 7.20386 11.6892 7.25875V7.26953C11.6892 7.32442 11.6447 7.36895 11.5898 7.36895H11.1752C11.1203 7.36895 11.0758 7.32442 11.0758 7.26953V7.04894C11.0758 6.99405 11.0313 6.94952 10.9764 6.94952H10.1502C10.0953 6.94952 10.0508 6.99405 10.0508 7.04894V7.47409C10.0508 7.52898 10.0953 7.57351 10.1502 7.57351H10.1559C10.2108 7.57351 10.2553 7.52898 10.2553 7.47409V7.25875C10.2553 7.20386 10.2999 7.15933 10.3548 7.15933H10.7693C10.8242 7.15933 10.8687 7.20386 10.8687 7.25875V7.47409C10.8687 7.52898 10.9132 7.57351 10.9681 7.57351H11.7943C11.8492 7.57351 11.8937 7.52898 11.8937 7.47409V7.04894C11.8937 6.99409 11.8492 6.94956 11.7943 6.94956Z" fill="#F5F5F5"/>
<path d="M10.1502 6.73994H12.6148C12.6697 6.73994 12.7142 6.69541 12.7142 6.64052V6.6296C12.7142 6.57471 12.6697 6.53018 12.6148 6.53018H10.1502C10.0953 6.53018 10.0508 6.57471 10.0508 6.6296V6.64052C10.0508 6.69541 10.0953 6.73994 10.1502 6.73994Z" fill="#F5F5F5"/>
<path d="M10.5643 7.57356C10.6192 7.57356 10.6638 7.52903 10.6638 7.47414V7.46842C10.6638 7.41353 10.6192 7.369 10.5643 7.369H10.5613C10.5064 7.369 10.4619 7.41353 10.4619 7.46842V7.47414C10.4619 7.52903 10.5064 7.57356 10.5613 7.57356H10.5643Z" fill="#F5F5F5"/>
<path d="M15.889 6.94956H15.4744C15.4195 6.94956 15.3749 6.99409 15.3749 7.04898V7.05991C15.3749 7.1148 15.4195 7.15933 15.4744 7.15933H15.6819C15.7368 7.15933 15.7813 7.20386 15.7813 7.25875V7.26953C15.7813 7.32442 15.7368 7.36895 15.6819 7.36895H15.2699C15.215 7.36895 15.1705 7.32442 15.1705 7.26953V7.04894C15.1705 6.99405 15.126 6.94952 15.0711 6.94952H14.2449C14.19 6.94952 14.1455 6.99405 14.1455 7.04894V7.47409C14.1455 7.52898 14.19 7.57351 14.2449 7.57351H14.2506C14.3055 7.57351 14.3501 7.52898 14.3501 7.47409V7.25875C14.3501 7.20386 14.3946 7.15933 14.4495 7.15933H14.864C14.9189 7.15933 14.9635 7.20386 14.9635 7.25875V7.47409C14.9635 7.52898 15.008 7.57351 15.0629 7.57351H15.8891C15.9439 7.57351 15.9885 7.52898 15.9885 7.47409V7.04894C15.9885 6.99409 15.9439 6.94956 15.889 6.94956Z" fill="#F5F5F5"/>
<path d="M17.9362 6.53013H17.9305C17.8756 6.53013 17.831 6.57466 17.831 6.62955V7.26958C17.831 7.32447 17.7865 7.369 17.7316 7.369H17.726C17.6712 7.369 17.6266 7.32447 17.6266 7.26958V6.62955C17.6266 6.57466 17.5821 6.53013 17.5272 6.53013H17.5215C17.4666 6.53013 17.4221 6.57466 17.4221 6.62955V7.26958C17.4221 7.32447 17.3775 7.369 17.3226 7.369H17.3171C17.2622 7.369 17.2176 7.32447 17.2176 7.26958V6.62955C17.2176 6.57466 17.1731 6.53013 17.1182 6.53013H17.1125C17.0576 6.53013 17.0131 6.57466 17.0131 6.62955V6.85014C17.0131 6.90503 16.9686 6.94956 16.9137 6.94956H16.2947C16.2398 6.94956 16.1953 6.99409 16.1953 7.04898V7.47414C16.1953 7.52903 16.2398 7.57356 16.2947 7.57356H16.7092C16.7641 7.57356 16.8087 7.52903 16.8087 7.47414V7.46842C16.8087 7.41353 16.7641 7.369 16.7092 7.369H16.4966C16.4417 7.369 16.3972 7.32447 16.3972 7.26958V7.2588C16.3972 7.2039 16.4417 7.15937 16.4966 7.15937H16.9137C16.9686 7.15937 17.0131 7.2039 17.0131 7.2588V7.47414C17.0131 7.52903 17.0576 7.57356 17.1125 7.57356H17.9361C17.991 7.57356 18.0356 7.52903 18.0356 7.47414V6.62955C18.0356 6.57466 17.9911 6.53013 17.9362 6.53013Z" fill="#F5F5F5"/>
<path d="M14.6591 7.57356C14.714 7.57356 14.7585 7.52903 14.7585 7.47414V7.46842C14.7585 7.41353 14.714 7.369 14.6591 7.369H14.6561C14.6012 7.369 14.5566 7.41353 14.5566 7.46842V7.47414C14.5566 7.52903 14.6012 7.57356 14.6561 7.57356H14.6591Z" fill="#F5F5F5"/>
<path d="M14.2449 6.73994H16.7095C16.7644 6.73994 16.809 6.69541 16.809 6.64052V6.6296C16.809 6.57471 16.7644 6.53018 16.7095 6.53018H14.2449C14.19 6.53018 14.1455 6.57471 14.1455 6.6296V6.64052C14.1455 6.69541 14.19 6.73994 14.2449 6.73994Z" fill="#F5F5F5"/>
<path d="M18.7561 7.57356C18.811 7.57356 18.8555 7.52903 18.8555 7.47414V7.46842C18.8555 7.41353 18.811 7.369 18.7561 7.369H18.7479C18.693 7.369 18.6484 7.41353 18.6484 7.46842V7.47414C18.6484 7.52903 18.693 7.57356 18.7479 7.57356H18.7561Z" fill="#F5F5F5"/>
<path d="M18.3397 6.73994H20.8042C20.8591 6.73994 20.9036 6.69541 20.9036 6.64052V6.6296C20.9036 6.57471 20.8591 6.53018 20.8042 6.53018H18.3397C18.2848 6.53018 18.2402 6.57471 18.2402 6.6296V6.64052C18.2402 6.69541 18.2848 6.73994 18.3397 6.73994Z" fill="#F5F5F5"/>
<path d="M22.0308 6.53013H22.0279C21.973 6.53013 21.9284 6.57466 21.9284 6.62955V7.26958C21.9284 7.32447 21.8839 7.369 21.829 7.369H21.8208C21.7659 7.369 21.7214 7.32447 21.7214 7.26958V6.62955C21.7214 6.57466 21.6768 6.53013 21.6219 6.53013H21.6162C21.5613 6.53013 21.5168 6.57466 21.5168 6.62955V7.26958C21.5168 7.32447 21.4723 7.369 21.4174 7.369H21.4118C21.3569 7.369 21.3124 7.32447 21.3124 7.26958V6.62955C21.3124 6.57466 21.2678 6.53013 21.213 6.53013H21.2072C21.1523 6.53013 21.1078 6.57466 21.1078 6.62955V6.85014C21.1078 6.90503 21.0633 6.94956 21.0084 6.94956H20.3895C20.3346 6.94956 20.29 6.99409 20.29 7.04898V7.47414C20.29 7.52903 20.3346 7.57356 20.3895 7.57356H20.804C20.8589 7.57356 20.9034 7.52903 20.9034 7.47414V7.46842C20.9034 7.41353 20.8589 7.369 20.804 7.369H20.5964C20.5415 7.369 20.497 7.32447 20.497 7.26958V7.2588C20.497 7.2039 20.5415 7.15937 20.5964 7.15937H21.0084C21.0633 7.15937 21.1078 7.2039 21.1078 7.2588V7.47414C21.1078 7.52903 21.1523 7.57356 21.2072 7.57356H22.0307C22.0856 7.57356 22.1301 7.52903 22.1301 7.47414V6.62955C22.1302 6.57466 22.0857 6.53013 22.0308 6.53013Z" fill="#F5F5F5"/>
<path d="M19.9837 6.94956H19.5691C19.5142 6.94956 19.4697 6.99409 19.4697 7.04898V7.05991C19.4697 7.1148 19.5142 7.15933 19.5691 7.15933H19.7819C19.8368 7.15933 19.8813 7.20386 19.8813 7.25875V7.26953C19.8813 7.32442 19.8368 7.36895 19.7819 7.36895H19.362C19.3071 7.36895 19.2626 7.32442 19.2626 7.26953V7.04894C19.2626 6.99405 19.218 6.94952 19.1631 6.94952H18.3397C18.2848 6.94952 18.2402 6.99405 18.2402 7.04894V7.47409C18.2402 7.52898 18.2848 7.57351 18.3397 7.57351H18.3454C18.4003 7.57351 18.4448 7.52898 18.4448 7.47409V7.25875C18.4448 7.20386 18.4893 7.15933 18.5442 7.15933H18.9613C19.0162 7.15933 19.0607 7.20386 19.0607 7.25875V7.47409C19.0607 7.52898 19.1053 7.57351 19.1601 7.57351H19.9838C20.0387 7.57351 20.0832 7.52898 20.0832 7.47409V7.04894C20.0832 6.99409 20.0386 6.94956 19.9837 6.94956Z" fill="#F5F5F5"/>
<path d="M23.5665 7.04898V7.05991C23.5665 7.1148 23.611 7.15933 23.6659 7.15933H23.8759C23.9308 7.15933 23.9753 7.20386 23.9753 7.25875V7.26953C23.9753 7.32442 23.9308 7.36895 23.8759 7.36895H23.4588C23.4039 7.36895 23.3594 7.32442 23.3594 7.26953V7.04894C23.3594 6.99405 23.3149 6.94952 23.26 6.94952H22.4363C22.3814 6.94952 22.3369 6.99405 22.3369 7.04894V7.47409C22.3369 7.52898 22.3814 7.57351 22.4363 7.57351H22.4393C22.4942 7.57351 22.5388 7.52898 22.5388 7.47409V7.25875C22.5388 7.20386 22.5833 7.15933 22.6382 7.15933H23.0528C23.1077 7.15933 23.1522 7.20386 23.1522 7.25875V7.47409C23.1522 7.52898 23.1968 7.57351 23.2517 7.57351H23.9965V6.94952H23.6659C23.611 6.94956 23.5665 6.99409 23.5665 7.04898Z" fill="#F5F5F5"/>
<path d="M22.3369 6.62955V6.64047C22.3369 6.69536 22.3814 6.73989 22.4363 6.73989H23.9965V6.53013H22.4363C22.3814 6.53013 22.3369 6.57466 22.3369 6.62955Z" fill="#F5F5F5"/>
<path d="M22.8455 7.57356H22.8512C22.9061 7.57356 22.9507 7.52903 22.9507 7.47414V7.46842C22.9507 7.41353 22.9061 7.369 22.8512 7.369H22.8455C22.7906 7.369 22.7461 7.41353 22.7461 7.46842V7.47414C22.7461 7.52907 22.7906 7.57356 22.8455 7.57356Z" fill="#F5F5F5"/>
<path d="M1.65652 8.10844V7.88785C1.65652 7.83296 1.61199 7.78843 1.5571 7.78843H-0.00292969V8.20786H1.5571C1.61199 8.20786 1.65652 8.16338 1.65652 8.10844Z" fill="#F5F5F5"/>
<path d="M3.60473 7.78843H1.96075C1.90586 7.78843 1.86133 7.83296 1.86133 7.88785V8.10844C1.86133 8.16333 1.90586 8.20786 1.96075 8.20786H3.60473C3.65962 8.20786 3.70415 8.16333 3.70415 8.10844V7.88785C3.70415 7.83296 3.65962 7.78843 3.60473 7.78843Z" fill="#F5F5F5"/>
<path d="M5.65156 7.78843H4.00762C3.95273 7.78843 3.9082 7.83296 3.9082 7.88785V8.10844C3.9082 8.16333 3.95273 8.20786 4.00762 8.20786H5.65161C5.7065 8.20786 5.75103 8.16333 5.75103 8.10844V7.88785C5.75103 7.83296 5.7065 7.78843 5.65156 7.78843Z" fill="#F5F5F5"/>
<path d="M7.69946 7.78843H6.05548C6.00059 7.78843 5.95605 7.83296 5.95605 7.88785V8.10844C5.95605 8.16333 6.00059 8.20786 6.05548 8.20786H7.69946C7.75435 8.20786 7.79888 8.16333 7.79888 8.10844V7.88785C7.79888 7.83296 7.7544 7.78843 7.69946 7.78843Z" fill="#F5F5F5"/>
<path d="M9.74705 7.78843H8.1004C8.04551 7.78843 8.00098 7.83296 8.00098 7.88785V8.10844C8.00098 8.16333 8.04551 8.20786 8.1004 8.20786H9.74705C9.80194 8.20786 9.84647 8.16333 9.84647 8.10844V7.88785C9.84647 7.83296 9.80194 7.78843 9.74705 7.78843Z" fill="#F5F5F5"/>
<path d="M11.7943 7.78843H10.1502C10.0953 7.78843 10.0508 7.83296 10.0508 7.88785V8.10844C10.0508 8.16333 10.0953 8.20786 10.1502 8.20786H11.7943C11.8492 8.20786 11.8937 8.16333 11.8937 8.10844V7.88785C11.8937 7.83296 11.8492 7.78843 11.7943 7.78843Z" fill="#F5F5F5"/>
<path d="M13.8412 7.78843H12.1971C12.1422 7.78843 12.0977 7.83296 12.0977 7.88785V8.10844C12.0977 8.16333 12.1422 8.20786 12.1971 8.20786H13.8412C13.8961 8.20786 13.9406 8.16333 13.9406 8.10844V7.88785C13.9406 7.83296 13.8961 7.78843 13.8412 7.78843Z" fill="#F5F5F5"/>
<path d="M17.9361 7.78843H16.2947C16.2398 7.78843 16.1953 7.83296 16.1953 7.88785V8.10844C16.1953 8.16333 16.2398 8.20786 16.2947 8.20786H17.9361C17.991 8.20786 18.0356 8.16333 18.0356 8.10844V7.88785C18.0356 7.83296 17.9911 7.78843 17.9361 7.78843Z" fill="#F5F5F5"/>
<path d="M15.8891 7.78843H14.2449C14.19 7.78843 14.1455 7.83296 14.1455 7.88785V8.10844C14.1455 8.16333 14.19 8.20786 14.2449 8.20786H15.8891C15.9439 8.20786 15.9885 8.16333 15.9885 8.10844V7.88785C15.9885 7.83296 15.944 7.78843 15.8891 7.78843Z" fill="#F5F5F5"/>
<path d="M19.9838 7.78843H18.3397C18.2848 7.78843 18.2402 7.83296 18.2402 7.88785V8.10844C18.2402 8.16333 18.2848 8.20786 18.3397 8.20786H19.9838C20.0387 8.20786 20.0832 8.16333 20.0832 8.10844V7.88785C20.0832 7.83296 20.0387 7.78843 19.9838 7.78843Z" fill="#F5F5F5"/>
<path d="M22.0308 7.78843H20.3895C20.3346 7.78843 20.29 7.83296 20.29 7.88785V8.10844C20.29 8.16333 20.3346 8.20786 20.3895 8.20786H22.0308C22.0857 8.20786 22.1302 8.16333 22.1302 8.10844V7.88785C22.1302 7.83296 22.0857 7.78843 22.0308 7.78843Z" fill="#F5F5F5"/>
<path d="M22.3369 7.88785V8.10844C22.3369 8.16333 22.3814 8.20786 22.4363 8.20786H23.9965V7.78843H22.4363C22.3814 7.78843 22.3369 7.83296 22.3369 7.88785Z" fill="#F5F5F5"/>
<path d="M23.5673 16.5256V16.5313C23.5673 16.5862 23.6118 16.6307 23.6667 16.6307H23.8769C23.9318 16.6307 23.9763 16.6753 23.9763 16.7302V16.7409C23.9763 16.7958 23.9318 16.8404 23.8769 16.8404H23.4649C23.41 16.8404 23.3655 16.7958 23.3655 16.7409V16.5256C23.3655 16.4707 23.3209 16.4262 23.2661 16.4262H22.4373C22.3824 16.4262 22.3379 16.4707 22.3379 16.5256V17.3702C22.3379 17.4251 22.3824 17.4696 22.4373 17.4696H22.4429C22.4978 17.4696 22.5423 17.4251 22.5423 17.3702V16.7302C22.5423 16.6753 22.5868 16.6307 22.6417 16.6307H22.65C22.7049 16.6307 22.7494 16.6753 22.7494 16.7302V17.3702C22.7494 17.4251 22.7939 17.4696 22.8488 17.4696H22.8518C22.9067 17.4696 22.9512 17.4251 22.9512 17.3702V16.7302C22.9512 16.6753 22.9958 16.6307 23.0507 16.6307H23.0589C23.1138 16.6307 23.1583 16.6753 23.1583 16.7302V17.3702C23.1583 17.4251 23.2029 17.4696 23.2578 17.4696H23.266C23.3209 17.4696 23.3654 17.4251 23.3654 17.3702V17.1496C23.3654 17.0947 23.41 17.0502 23.4648 17.0502H23.9973V16.4262H23.6667C23.6118 16.4262 23.5673 16.4707 23.5673 16.5256Z" fill="#F5F5F5"/>
<path d="M23.5674 17.3592V17.3702C23.5674 17.425 23.6119 17.4696 23.6668 17.4696H23.9974V17.2598H23.6668C23.6119 17.2598 23.5674 17.3043 23.5674 17.3592Z" fill="#F5F5F5"/>
<path d="M21.6245 16.6307C21.6794 16.6307 21.724 16.5862 21.724 16.5313V16.5256C21.724 16.4707 21.6794 16.4262 21.6245 16.4262H21.619C21.5641 16.4262 21.5195 16.4707 21.5195 16.5256V16.5313C21.5195 16.5862 21.5641 16.6307 21.619 16.6307H21.6245Z" fill="#F5F5F5"/>
<path d="M20.085 16.9508V16.5256C20.085 16.4707 20.0404 16.4262 19.9855 16.4262H19.5683C19.5134 16.4262 19.4689 16.4707 19.4689 16.5256V16.5313C19.4689 16.5862 19.5134 16.6307 19.5683 16.6307H19.7811C19.836 16.6307 19.8805 16.6753 19.8805 16.7302V16.7409C19.8805 16.7958 19.836 16.8404 19.7811 16.8404H19.3666C19.3117 16.8404 19.2672 16.7958 19.2672 16.7409V16.5256C19.2672 16.4707 19.2227 16.4262 19.1678 16.4262H18.3416C18.2867 16.4262 18.2422 16.4707 18.2422 16.5256V17.3702C18.2422 17.4251 18.2867 17.4696 18.3416 17.4696H18.3472C18.4021 17.4696 18.4466 17.4251 18.4466 17.3702V16.7302C18.4466 16.6753 18.4911 16.6307 18.546 16.6307H18.549C18.6039 16.6307 18.6485 16.6753 18.6485 16.7302V17.3702C18.6485 17.4251 18.693 17.4696 18.7479 17.4696H18.7561C18.811 17.4696 18.8555 17.4251 18.8555 17.3702V16.7302C18.8555 16.6753 18.9001 16.6307 18.955 16.6307H18.9632C19.0181 16.6307 19.0626 16.6753 19.0626 16.7302V17.3702C19.0626 17.4251 19.1072 17.4696 19.1621 17.4696H19.1678C19.2227 17.4696 19.2672 17.4251 19.2672 17.3702V17.1496C19.2672 17.0947 19.3117 17.0502 19.3666 17.0502H19.9855C20.0404 17.0502 20.085 17.0056 20.085 16.9508Z" fill="#F5F5F5"/>
<path d="M22.0338 17.2598H19.5691C19.5143 17.2598 19.4697 17.3043 19.4697 17.3592V17.3702C19.4697 17.425 19.5143 17.4696 19.5691 17.4696H22.0338C22.0887 17.4696 22.1332 17.425 22.1332 17.3702V17.3592C22.1332 17.3043 22.0887 17.2598 22.0338 17.2598Z" fill="#F5F5F5"/>
<path d="M22.0334 16.4262H22.0279C21.973 16.4262 21.9284 16.4707 21.9284 16.5256V16.7409C21.9284 16.7958 21.8839 16.8404 21.829 16.8404H21.4144C21.3595 16.8404 21.315 16.7958 21.315 16.7409V16.5256C21.315 16.4707 21.2704 16.4262 21.2155 16.4262H20.3895C20.3346 16.4262 20.29 16.4707 20.29 16.5256V16.9508C20.29 17.0056 20.3346 17.0502 20.3895 17.0502H20.804C20.8589 17.0502 20.9034 17.0056 20.9034 16.9508V16.9398C20.9034 16.8849 20.8589 16.8404 20.804 16.8404H20.5938C20.5389 16.8404 20.4944 16.7959 20.4944 16.741V16.7302C20.4944 16.6753 20.5389 16.6308 20.5938 16.6308H21.0111C21.066 16.6308 21.1105 16.6753 21.1105 16.7302V16.9508C21.1105 17.0057 21.155 17.0502 21.2099 17.0502H22.0334C22.0883 17.0502 22.1328 17.0057 22.1328 16.9508V16.5257C22.1329 16.4707 22.0884 16.4262 22.0334 16.4262Z" fill="#F5F5F5"/>
<path d="M15.9939 16.9508V16.5256C15.9939 16.4707 15.9494 16.4262 15.8945 16.4262H15.4773C15.4224 16.4262 15.3779 16.4707 15.3779 16.5256V16.5313C15.3779 16.5862 15.4224 16.6307 15.4773 16.6307H15.6874C15.7423 16.6307 15.7868 16.6753 15.7868 16.7302V16.7409C15.7868 16.7958 15.7423 16.8404 15.6874 16.8404H15.2702C15.2153 16.8404 15.1708 16.7958 15.1708 16.7409V16.5256C15.1708 16.4707 15.1262 16.4262 15.0714 16.4262H14.2479C14.193 16.4262 14.1484 16.4707 14.1484 16.5256V17.3702C14.1484 17.4251 14.193 17.4696 14.2479 17.4696H14.2534C14.3083 17.4696 14.3529 17.4251 14.3529 17.3702V16.7302C14.3529 16.6753 14.3974 16.6307 14.4523 16.6307H14.458C14.5129 16.6307 14.5574 16.6753 14.5574 16.7302V17.3702C14.5574 17.4251 14.6019 17.4696 14.6568 17.4696H14.6651C14.72 17.4696 14.7645 17.4251 14.7645 17.3702V16.7302C14.7645 16.6753 14.809 16.6307 14.8639 16.6307H14.8669C14.9218 16.6307 14.9664 16.6753 14.9664 16.7302V17.3702C14.9664 17.4251 15.0109 17.4696 15.0658 17.4696H15.0714C15.1262 17.4696 15.1708 17.4251 15.1708 17.3702V17.1496C15.1708 17.0947 15.2153 17.0502 15.2702 17.0502H15.8945C15.9495 17.0502 15.9939 17.0056 15.9939 16.9508Z" fill="#F5F5F5"/>
<path d="M17.9383 17.2598H15.4764C15.4215 17.2598 15.377 17.3043 15.377 17.3592V17.3702C15.377 17.425 15.4215 17.4696 15.4764 17.4696H17.9383C17.9932 17.4696 18.0377 17.425 18.0377 17.3702V17.3592C18.0377 17.3043 17.9932 17.2598 17.9383 17.2598Z" fill="#F5F5F5"/>
<path d="M17.5298 16.6307C17.5847 16.6307 17.6292 16.5862 17.6292 16.5313V16.5256C17.6292 16.4707 17.5847 16.4262 17.5298 16.4262H17.5242C17.4693 16.4262 17.4248 16.4707 17.4248 16.5256V16.5313C17.4248 16.5862 17.4693 16.6307 17.5242 16.6307H17.5298Z" fill="#F5F5F5"/>
<path d="M17.9387 16.4262H17.9331C17.8782 16.4262 17.8337 16.4707 17.8337 16.5256V16.7409C17.8337 16.7958 17.7892 16.8404 17.7343 16.8404H17.3197C17.2648 16.8404 17.2203 16.7958 17.2203 16.7409V16.5256C17.2203 16.4707 17.1758 16.4262 17.1209 16.4262H16.2947C16.2398 16.4262 16.1953 16.4707 16.1953 16.5256V16.9508C16.1953 17.0056 16.2398 17.0502 16.2947 17.0502H16.712C16.7669 17.0502 16.8114 17.0056 16.8114 16.9508V16.9398C16.8114 16.8849 16.7669 16.8404 16.712 16.8404H16.5018C16.4469 16.8404 16.4024 16.7959 16.4024 16.741V16.7302C16.4024 16.6753 16.4469 16.6308 16.5018 16.6308H16.9163C16.9712 16.6308 17.0158 16.6753 17.0158 16.7302V16.9508C17.0158 17.0057 17.0603 17.0502 17.1152 17.0502H17.9387C17.9936 17.0502 18.0381 17.0057 18.0381 16.9508V16.5257C18.0381 16.4707 17.9936 16.4262 17.9387 16.4262Z" fill="#F5F5F5"/>
<path d="M11.8957 16.9508V16.5256C11.8957 16.4707 11.8512 16.4262 11.7963 16.4262H11.379C11.3242 16.4262 11.2796 16.4707 11.2796 16.5256V16.5313C11.2796 16.5862 11.3242 16.6307 11.379 16.6307H11.5917C11.6466 16.6307 11.6911 16.6753 11.6911 16.7302V16.7409C11.6911 16.7958 11.6466 16.8404 11.5917 16.8404H11.1745C11.1196 16.8404 11.0751 16.7958 11.0751 16.7409V16.5256C11.0751 16.4707 11.0305 16.4262 10.9756 16.4262H10.1522C10.0973 16.4262 10.0527 16.4707 10.0527 16.5256V17.3702C10.0527 17.4251 10.0973 17.4696 10.1522 17.4696H10.1579C10.2128 17.4696 10.2573 17.4251 10.2573 17.3702V16.7302C10.2573 16.6753 10.3018 16.6307 10.3567 16.6307H10.3623C10.4172 16.6307 10.4617 16.6753 10.4617 16.7302V17.3702C10.4617 17.4251 10.5062 17.4696 10.5611 17.4696H10.5667C10.6216 17.4696 10.6661 17.4251 10.6661 17.3702V16.7302C10.6661 16.6753 10.7107 16.6307 10.7656 16.6307H10.7713C10.8262 16.6307 10.8707 16.6753 10.8707 16.7302V17.3702C10.8707 17.4251 10.9152 17.4696 10.9701 17.4696H10.9757C11.0306 17.4696 11.0751 17.4251 11.0751 17.3702V17.1496C11.0751 17.0947 11.1196 17.0502 11.1745 17.0502H11.7963C11.8512 17.0502 11.8957 17.0056 11.8957 16.9508Z" fill="#F5F5F5"/>
<path d="M13.4325 16.6307C13.4874 16.6307 13.5319 16.5862 13.5319 16.5313V16.5256C13.5319 16.4707 13.4874 16.4262 13.4325 16.4262H13.4295C13.3746 16.4262 13.3301 16.4707 13.3301 16.5256V16.5313C13.3301 16.5862 13.3746 16.6307 13.4295 16.6307H13.4325Z" fill="#F5F5F5"/>
<path d="M13.8441 16.4262H13.8384C13.7835 16.4262 13.739 16.4707 13.739 16.5256V16.7409C13.739 16.7958 13.6945 16.8404 13.6396 16.8404H13.2251C13.1702 16.8404 13.1256 16.7958 13.1256 16.7409V16.5256C13.1256 16.4707 13.0811 16.4262 13.0262 16.4262H12.2C12.1451 16.4262 12.1006 16.4707 12.1006 16.5256V16.9508C12.1006 17.0056 12.1451 17.0502 12.2 17.0502H12.6172C12.6721 17.0502 12.7167 17.0056 12.7167 16.9508V16.9398C12.7167 16.8849 12.6721 16.8404 12.6172 16.8404H12.4046C12.3497 16.8404 12.3051 16.7959 12.3051 16.741V16.7302C12.3051 16.6753 12.3497 16.6308 12.4046 16.6308H12.8191C12.874 16.6308 12.9185 16.6753 12.9185 16.7302V16.9508C12.9185 17.0057 12.9631 17.0502 13.018 17.0502H13.8441C13.899 17.0502 13.9436 17.0057 13.9436 16.9508V16.5257C13.9436 16.4707 13.899 16.4262 13.8441 16.4262Z" fill="#F5F5F5"/>
<path d="M13.8443 17.2598H11.3797C11.3248 17.2598 11.2803 17.3043 11.2803 17.3592V17.3702C11.2803 17.425 11.3248 17.4696 11.3797 17.4696H13.8443C13.8992 17.4696 13.9437 17.425 13.9437 17.3702V17.3592C13.9437 17.3043 13.8992 17.2598 13.8443 17.2598Z" fill="#F5F5F5"/>
<path d="M9.7494 16.4262H9.74369C9.6888 16.4262 9.64427 16.4707 9.64427 16.5256V16.7409C9.64427 16.7958 9.59973 16.8404 9.54484 16.8404H9.13029C9.0754 16.8404 9.03087 16.7958 9.03087 16.7409V16.5256C9.03087 16.4707 8.98633 16.4262 8.93144 16.4262H8.10528C8.05039 16.4262 8.00586 16.4707 8.00586 16.5256V16.9508C8.00586 17.0056 8.05039 17.0502 8.10528 17.0502H8.51993C8.57482 17.0502 8.61935 17.0056 8.61935 16.9508V16.9398C8.61935 16.8849 8.57482 16.8404 8.51993 16.8404H8.31237C8.25748 16.8404 8.21295 16.7959 8.21295 16.741V16.7302C8.21295 16.6753 8.25748 16.6308 8.31237 16.6308H8.72435C8.77924 16.6308 8.82377 16.6753 8.82377 16.7302V16.9508C8.82377 17.0057 8.8683 17.0502 8.92319 17.0502H9.74936C9.80425 17.0502 9.84878 17.0057 9.84878 16.9508V16.5257C9.84883 16.4707 9.80434 16.4262 9.7494 16.4262Z" fill="#F5F5F5"/>
<path d="M9.33777 16.6307C9.39266 16.6307 9.43719 16.5862 9.43719 16.5313V16.5256C9.43719 16.4707 9.39266 16.4262 9.33777 16.4262H9.33477C9.27988 16.4262 9.23535 16.4707 9.23535 16.5256V16.5313C9.23535 16.5862 9.27988 16.6307 9.33477 16.6307H9.33777Z" fill="#F5F5F5"/>
<path d="M9.74958 17.2598H7.28497C7.23008 17.2598 7.18555 17.3043 7.18555 17.3592V17.3702C7.18555 17.425 7.23008 17.4696 7.28497 17.4696H9.74958C9.80447 17.4696 9.84901 17.425 9.84901 17.3702V17.3592C9.84901 17.3043 9.80452 17.2598 9.74958 17.2598Z" fill="#F5F5F5"/>
<path d="M7.79923 16.9508V16.5256C7.79923 16.4707 7.7547 16.4262 7.69981 16.4262H7.2853C7.23041 16.4262 7.18588 16.4707 7.18588 16.5256V16.5313C7.18588 16.5862 7.23041 16.6307 7.2853 16.6307H7.49797C7.55286 16.6307 7.59739 16.6753 7.59739 16.7302V16.7409C7.59739 16.7958 7.55286 16.8404 7.49797 16.8404H7.08088C7.02599 16.8404 6.98146 16.7958 6.98146 16.7409V16.5256C6.98146 16.4707 6.93693 16.4262 6.88204 16.4262H6.05841C6.00351 16.4262 5.95898 16.4707 5.95898 16.5256V17.3702C5.95898 17.4251 6.00351 17.4696 6.05841 17.4696H6.06412C6.11901 17.4696 6.16354 17.4251 6.16354 17.3702V16.7302C6.16354 16.6753 6.20808 16.6307 6.26297 16.6307H6.26854C6.32343 16.6307 6.36796 16.6753 6.36796 16.7302V17.3702C6.36796 17.4251 6.4125 17.4696 6.46739 17.4696H6.4731C6.52799 17.4696 6.57253 17.4251 6.57253 17.3702V16.7302C6.57253 16.6753 6.61706 16.6307 6.67195 16.6307H6.67752C6.73241 16.6307 6.77695 16.6753 6.77695 16.7302V17.3702C6.77695 17.4251 6.82148 17.4696 6.87637 17.4696H6.88208C6.93697 17.4696 6.98151 17.4251 6.98151 17.3702V17.1496C6.98151 17.0947 7.02604 17.0502 7.08093 17.0502H7.69986C7.75475 17.0502 7.79923 17.0056 7.79923 16.9508Z" fill="#F5F5F5"/>
<path d="M5.24537 16.6307C5.30026 16.6307 5.34479 16.5862 5.34479 16.5313V16.5256C5.34479 16.4707 5.30026 16.4262 5.24537 16.4262H5.23712C5.18223 16.4262 5.1377 16.4707 5.1377 16.5256V16.5313C5.1377 16.5862 5.18223 16.6307 5.23712 16.6307H5.24537Z" fill="#F5F5F5"/>
<path d="M5.65468 16.4262H5.64896C5.59407 16.4262 5.54954 16.4707 5.54954 16.5256V16.7409C5.54954 16.7958 5.50501 16.8404 5.45012 16.8404H5.03303C4.97814 16.8404 4.93361 16.7958 4.93361 16.7409V16.5256C4.93361 16.4707 4.88908 16.4262 4.83419 16.4262H4.01055C3.95566 16.4262 3.91113 16.4707 3.91113 16.5256V16.9508C3.91113 17.0056 3.95566 17.0502 4.01055 17.0502H4.42521C4.4801 17.0502 4.52463 17.0056 4.52463 16.9508V16.9398C4.52463 16.8849 4.4801 16.8404 4.42521 16.8404H4.2124C4.15751 16.8404 4.11297 16.7959 4.11297 16.741V16.7302C4.11297 16.6753 4.15751 16.6308 4.2124 16.6308H4.6323C4.68719 16.6308 4.73172 16.6753 4.73172 16.7302V16.9508C4.73172 17.0057 4.77625 17.0502 4.83114 17.0502H5.65463C5.70952 17.0502 5.75405 17.0057 5.75405 16.9508V16.5257C5.7541 16.4707 5.70957 16.4262 5.65468 16.4262Z" fill="#F5F5F5"/>
<path d="M3.70344 16.9508V16.5256C3.70344 16.4707 3.6589 16.4262 3.60401 16.4262H3.1895C3.13461 16.4262 3.09008 16.4707 3.09008 16.5256V16.5313C3.09008 16.5862 3.13461 16.6307 3.1895 16.6307H3.39706C3.45195 16.6307 3.49648 16.6753 3.49648 16.7302V16.7409C3.49648 16.7958 3.45195 16.8404 3.39706 16.8404H2.98508C2.93019 16.8404 2.88566 16.7958 2.88566 16.7409V16.5256C2.88566 16.4707 2.84113 16.4262 2.78624 16.4262H1.9627C1.90781 16.4262 1.86328 16.4707 1.86328 16.5256V17.3702C1.86328 17.4251 1.90781 17.4696 1.9627 17.4696H1.96561C2.0205 17.4696 2.06503 17.4251 2.06503 17.3702V16.7302C2.06503 16.6753 2.10956 16.6307 2.16445 16.6307H2.1727C2.22759 16.6307 2.27212 16.6753 2.27212 16.7302V17.3702C2.27212 17.4251 2.31665 17.4696 2.37154 17.4696H2.37726C2.43215 17.4696 2.47668 17.4251 2.47668 17.3702V16.7302C2.47668 16.6753 2.52121 16.6307 2.5761 16.6307H2.58168C2.63657 16.6307 2.6811 16.6753 2.6811 16.7302V17.3702C2.6811 17.4251 2.72563 17.4696 2.78052 17.4696H2.78624C2.84113 17.4696 2.88566 17.4251 2.88566 17.3702V17.1496C2.88566 17.0947 2.93019 17.0502 2.98508 17.0502H3.60401C3.6589 17.0502 3.70344 17.0056 3.70344 16.9508Z" fill="#F5F5F5"/>
<path d="M5.65486 17.2598H3.19024C3.13535 17.2598 3.09082 17.3043 3.09082 17.3592V17.3702C3.09082 17.425 3.13535 17.4696 3.19024 17.4696H5.65486C5.70975 17.4696 5.75428 17.425 5.75428 17.3702V17.3592C5.75428 17.3043 5.70975 17.2598 5.65486 17.2598Z" fill="#F5F5F5"/>
<path d="M0.427051 16.9508V16.9398C0.427051 16.8849 0.38252 16.8404 0.32763 16.8404H0.117632C0.0627415 16.8404 0.0182107 16.7959 0.0182107 16.741V16.7302C0.0182107 16.6753 0.0627415 16.6308 0.117632 16.6308H0.534721C0.589611 16.6308 0.634142 16.6753 0.634142 16.7302V16.9508C0.634142 17.0057 0.678673 17.0502 0.733563 17.0502H1.5572C1.61209 17.0502 1.65662 17.0057 1.65662 16.9508V16.5257C1.65662 16.4708 1.61209 16.4262 1.5572 16.4262H1.5542C1.49931 16.4262 1.45477 16.4708 1.45477 16.5257V16.741C1.45477 16.7959 1.41024 16.8404 1.35535 16.8404H0.940702C0.885812 16.8404 0.841281 16.7959 0.841281 16.741V16.5257C0.841281 16.4708 0.79675 16.4262 0.74186 16.4262H-0.00292969V17.0502H0.32763C0.382567 17.0502 0.427051 17.0056 0.427051 16.9508Z" fill="#F5F5F5"/>
<path d="M1.65666 17.3702V17.3593C1.65666 17.3044 1.61213 17.2599 1.55724 17.2599H-0.00292969V17.4696H1.55724C1.61213 17.4696 1.65666 17.4251 1.65666 17.3702Z" fill="#F5F5F5"/>
<path d="M1.14811 16.4262H1.14239C1.0875 16.4262 1.04297 16.4707 1.04297 16.5256V16.5313C1.04297 16.5862 1.0875 16.6307 1.14239 16.6307H1.14811C1.203 16.6307 1.24753 16.5862 1.24753 16.5313V16.5256C1.24753 16.4707 1.203 16.4262 1.14811 16.4262Z" fill="#F5F5F5"/>
<path d="M22.3379 15.8913V16.1119C22.3379 16.1668 22.3824 16.2113 22.4373 16.2113H23.9973V15.7919H22.4373C22.3824 15.7919 22.3379 15.8364 22.3379 15.8913Z" fill="#F5F5F5"/>
<path d="M18.3416 16.2113H19.9856C20.0405 16.2113 20.085 16.1668 20.085 16.1119V15.8913C20.085 15.8364 20.0405 15.7919 19.9856 15.7919H18.3416C18.2867 15.7919 18.2422 15.8364 18.2422 15.8913V16.1119C18.2421 16.1668 18.2867 16.2113 18.3416 16.2113Z" fill="#F5F5F5"/>
<path d="M22.0334 15.7919H20.3895C20.3346 15.7919 20.29 15.8364 20.29 15.8913V16.1119C20.29 16.1668 20.3346 16.2113 20.3895 16.2113H22.0334C22.0883 16.2113 22.1329 16.1668 22.1329 16.1119V15.8913C22.1329 15.8364 22.0884 15.7919 22.0334 15.7919Z" fill="#F5F5F5"/>
<path d="M17.9387 15.7919H16.2947C16.2398 15.7919 16.1953 15.8364 16.1953 15.8913V16.1119C16.1953 16.1668 16.2398 16.2113 16.2947 16.2113H17.9387C17.9936 16.2113 18.0381 16.1668 18.0381 16.1119V15.8913C18.0381 15.8364 17.9936 15.7919 17.9387 15.7919Z" fill="#F5F5F5"/>
<path d="M14.2479 16.2113H15.8945C15.9494 16.2113 15.9939 16.1668 15.9939 16.1119V15.8913C15.9939 15.8364 15.9494 15.7919 15.8945 15.7919H14.2479C14.193 15.7919 14.1484 15.8364 14.1484 15.8913V16.1119C14.1484 16.1668 14.193 16.2113 14.2479 16.2113Z" fill="#F5F5F5"/>
<path d="M10.1522 16.2113H11.7963C11.8512 16.2113 11.8957 16.1668 11.8957 16.1119V15.8913C11.8957 15.8364 11.8512 15.7919 11.7963 15.7919H10.1522C10.0973 15.7919 10.0527 15.8364 10.0527 15.8913V16.1119C10.0527 16.1668 10.0973 16.2113 10.1522 16.2113Z" fill="#F5F5F5"/>
<path d="M13.8441 15.7919H12.2C12.1451 15.7919 12.1006 15.8364 12.1006 15.8913V16.1119C12.1006 16.1668 12.1451 16.2113 12.2 16.2113H13.8441C13.899 16.2113 13.9436 16.1668 13.9436 16.1119V15.8913C13.9436 15.8364 13.899 15.7919 13.8441 15.7919Z" fill="#F5F5F5"/>
<path d="M9.7494 15.7919H8.10528C8.05039 15.7919 8.00586 15.8364 8.00586 15.8913V16.1119C8.00586 16.1668 8.05039 16.2113 8.10528 16.2113H9.7494C9.80429 16.2113 9.84883 16.1668 9.84883 16.1119V15.8913C9.84883 15.8364 9.80434 15.7919 9.7494 15.7919Z" fill="#F5F5F5"/>
<path d="M6.05841 16.2113H7.69981C7.7547 16.2113 7.79923 16.1668 7.79923 16.1119V15.8913C7.79923 15.8364 7.7547 15.7919 7.69981 15.7919H6.05841C6.00351 15.7919 5.95898 15.8364 5.95898 15.8913V16.1119C5.95898 16.1668 6.00347 16.2113 6.05841 16.2113Z" fill="#F5F5F5"/>
<path d="M5.65468 15.7919H4.01055C3.95566 15.7919 3.91113 15.8364 3.91113 15.8913V16.1119C3.91113 16.1668 3.95566 16.2113 4.01055 16.2113H5.65468C5.70957 16.2113 5.7541 16.1668 5.7541 16.1119V15.8913C5.7541 15.8364 5.70957 15.7919 5.65468 15.7919Z" fill="#F5F5F5"/>
<path d="M1.9627 16.2113H3.60401C3.6589 16.2113 3.70344 16.1668 3.70344 16.1119V15.8913C3.70344 15.8364 3.6589 15.7919 3.60401 15.7919H1.9627C1.90781 15.7919 1.86328 15.8364 1.86328 15.8913V16.1119C1.86328 16.1668 1.90781 16.2113 1.9627 16.2113Z" fill="#F5F5F5"/>
<path d="M1.65666 16.1119V15.8913C1.65666 15.8364 1.61213 15.7919 1.55724 15.7919H-0.00292969V16.2113H1.55724C1.61213 16.2113 1.65666 16.1668 1.65666 16.1119Z" fill="#F5F5F5"/>
<path d="M11.5876 9.65992C11.7344 9.6991 11.8911 9.65598 11.9987 9.54634C12.1612 9.71082 12.4274 9.71471 12.5958 9.55426C12.7055 9.44851 12.7505 9.28792 12.7113 9.14312C12.5685 9.37417 12.2669 9.44856 12.0359 9.30367C12.0241 9.29575 12.0085 9.28792 11.9986 9.28014C11.7813 9.44068 11.474 9.39761 11.3095 9.18231C11.3036 9.17045 11.2919 9.15484 11.2841 9.14312C11.2254 9.37023 11.3624 9.60507 11.5876 9.65992Z" fill="#FF4B55"/>
<path d="M12.4993 14.2339C13.0256 13.945 13.4647 13.4898 13.7055 12.8902C14.1156 11.8625 13.8573 10.7025 13.073 9.95008C13.046 9.9242 13.005 9.95879 13.0246 9.99067C13.7982 11.2523 13.4935 12.9103 12.2963 13.8188L12.3535 10.1539C12.3543 10.1041 12.3321 10.0568 12.2934 10.0254L12.0988 9.86809C12.0391 9.81991 11.9539 9.82014 11.8945 9.86865L11.7027 10.0255C11.6644 10.0568 11.6425 10.1039 11.6433 10.1533L11.6989 13.8208C10.5016 12.9127 10.1961 11.2533 10.9686 9.99076C10.9881 9.95889 10.9471 9.92434 10.9201 9.95022C10.1372 10.7026 9.87738 11.8626 10.2874 12.8902C10.5282 13.4898 10.9673 13.945 11.4937 14.2338C11.1587 14.3486 10.8066 14.4095 10.4506 14.3993C10.413 14.3982 10.4054 14.4512 10.4414 14.4621C10.8937 14.5994 11.3589 14.6088 11.7964 14.5108L11.9681 14.844C11.98 14.867 12.0129 14.8671 12.0248 14.8441L12.1978 14.5111C12.6352 14.6089 13.1006 14.5993 13.5533 14.4621C13.5893 14.4512 13.5817 14.3983 13.5441 14.3994C13.1878 14.4095 12.8348 14.3486 12.4993 14.2339Z" fill="#FF4B55"/>
<path d="M14.6422 10.8268C14.3729 10.3235 13.9256 9.94215 13.3931 9.75531C13.3598 9.74359 13.3337 9.78765 13.361 9.81011C14.5365 10.7784 14.7722 12.503 13.8631 13.7517C13.8161 13.8144 13.7652 13.8809 13.7162 13.9356C14.8322 13.3366 15.2452 11.9427 14.6422 10.8268Z" fill="#FF4B55"/>
<path d="M10.1332 13.7517C9.22417 12.5031 9.45793 10.7785 10.6332 9.8102C10.6605 9.7877 10.6345 9.74368 10.6011 9.7554C10.0693 9.94229 9.62514 10.3236 9.35401 10.8268C8.74718 11.9428 9.16417 13.3367 10.282 13.9357C10.2292 13.8809 10.1783 13.8144 10.1332 13.7517Z" fill="#FF4B55"/>
</g>
<defs>
<clipPath id="clip0_72_2165">
<path d="M0 2C0 0.895432 0.895431 0 2 0H21.9998C23.1043 0 23.9998 0.895431 23.9998 2V21.9998C23.9998 23.1043 23.1043 23.9998 21.9998 23.9998H2C0.895432 23.9998 0 23.1043 0 21.9998V2Z" fill="white"/>
</clipPath>
</defs>
</svg>
