<svg width="24" height="24" viewBox="0 0 24 24" fill="none" xmlns="http://www.w3.org/2000/svg">
<g clip-path="url(#clip0_72_2249)">
<path d="M23.9978 6.10352e-05H-0.00195312V8.0067H23.9978V6.10352e-05Z" fill="#FF4B55"/>
<path d="M23.9978 16.0138H-0.00195312V23.9998H23.9978V16.0138Z" fill="#464655"/>
<path d="M23.9978 8.0067H-0.00195312V16.0133H23.9978V8.0067Z" fill="#F5F5F5"/>
<path d="M14.4403 10.9464C14.3968 10.9237 14.3453 10.8427 14.3614 10.8073C14.3783 10.7701 14.352 10.7733 14.4409 10.7998C14.6017 10.8414 14.7057 10.8224 14.8079 10.7355L14.8986 10.6636L15.0046 10.7166C15.0632 10.743 15.1237 10.7619 15.1407 10.7581C15.19 10.7467 15.2846 10.6257 15.2826 10.584C15.2807 10.5274 15.3223 10.5425 15.3431 10.603C15.3866 10.7166 15.3066 10.9124 15.1969 10.9388C15.144 10.9539 15.0948 10.9501 15.0115 10.9237C14.9132 10.8858 14.898 10.8858 14.8451 10.9237C14.7355 11.0107 14.5785 11.0183 14.4403 10.9464Z" fill="#73AF00"/>
<path d="M14.8544 10.5084C14.8014 10.4341 14.7376 10.1737 14.7562 10.1101C14.7747 10.0516 14.7934 10.041 14.8438 10.0569C14.9342 10.0887 14.9555 10.1472 14.9448 10.3598C14.9288 10.519 14.9076 10.5722 14.8544 10.5084Z" fill="#73AF00"/>
<path d="M11.297 11.6591C11.079 11.7831 10.7547 11.8045 10.7547 12.1482C10.2799 12.1659 9.71997 12.1872 9.2149 12.1765C9.35178 11.9998 10.2181 11.199 10.5783 10.8817C10.6379 10.8292 10.6582 10.7275 10.6235 10.656L10.6142 10.6368C10.5622 10.5297 10.4209 10.5042 10.3349 10.5865C9.97596 10.9298 9.62023 11.2499 9.56229 11.3047C9.09753 11.7744 8.96126 11.9113 8.88823 11.9848C8.83625 12.0371 8.80733 12.1079 8.8077 12.1817L8.80775 12.1865C8.80855 12.3397 8.933 12.4635 9.08628 12.4635H11.1197C11.235 12.4635 11.0933 12.0631 11.242 12.0631C11.3455 12.0631 11.355 12.2068 11.3505 12.359C11.347 12.4747 11.2516 12.5663 11.1358 12.5665C10.2567 12.5677 9.34151 12.5761 8.48033 12.5769C8.40917 12.5769 8.35208 12.5192 8.35208 12.4481V12.2932C8.35208 12.1619 8.20621 12.0855 8.09643 12.1576C8.0924 12.1603 8.08846 12.1628 8.08452 12.1653C8.02719 12.2011 7.9978 12.2713 8.02021 12.3351C8.03474 12.3765 8.04102 12.427 8.04248 12.4798C8.04435 12.5495 7.98759 12.6069 7.91788 12.6091C7.63307 12.6178 7.32356 12.6203 7.23562 12.4524C7.18603 12.3577 7.08052 12.313 6.98489 12.3608L6.97214 12.3672C6.87146 12.4175 6.8311 12.542 6.88631 12.6402C6.99122 12.8267 7.08694 13.043 7.03725 13.3461C6.99675 13.4416 6.92044 13.5014 6.83775 13.5552C6.74592 13.6151 6.80353 13.755 6.9113 13.7351C7.17258 13.6868 7.35258 13.4799 7.40765 13.2362H11.4586C11.6071 13.2362 11.7276 13.1158 11.7276 12.9672V12.088C11.6903 11.8257 11.4086 11.8363 11.297 11.6591Z" fill="#73AF00"/>
<path d="M16.435 10.4974C16.4947 10.5359 16.5547 10.5744 16.6213 10.6062C16.6942 10.641 16.7221 10.73 16.6794 10.7987C16.6682 10.8169 16.6588 10.8371 16.6534 10.8618V12.6054C16.7725 12.6301 16.8409 12.6067 16.8953 12.5692C16.9565 12.527 17.0395 12.5577 17.0588 12.6296C17.0999 12.7826 17.1672 12.932 17.2031 13.068C17.2256 13.153 17.1617 13.2362 17.0738 13.2362H16.3907C16.3303 13.2362 16.2812 13.1871 16.2812 13.1267V10.5814C16.2812 10.5025 16.3686 10.4547 16.435 10.4974Z" fill="#73AF00"/>
<path d="M15.6078 10.922C15.6083 11.4035 15.6139 11.9221 15.6147 12.4382C15.6148 12.5051 15.5606 12.5593 15.4937 12.5593H15.4859C15.4191 12.5593 15.3649 12.5052 15.3649 12.4384V11.2154C15.3649 11.1488 15.2867 11.1132 15.2366 11.1571L15.0763 11.2956C15.0436 11.3239 15.0247 11.3647 15.0246 11.408C15.024 11.6069 15.0223 12.1861 15.0216 12.4389C15.0214 12.5056 14.9673 12.5593 14.9007 12.5593H14.8897C14.8232 12.5593 14.7692 12.506 14.7687 12.4395C14.7676 12.2712 14.7655 11.9592 14.7646 11.7253C14.7644 11.6579 14.6847 11.6228 14.6341 11.6671C14.468 11.8127 14.4297 11.8456 14.3426 11.9356C14.3496 11.9817 14.3851 11.9356 14.4064 11.971V12.205C13.8013 12.0911 13.7561 12.5744 13.7788 13.0931C13.7822 13.171 13.8462 13.2327 13.9242 13.2327H15.8238C15.8943 13.2327 15.9514 13.1756 15.9514 13.1052V10.7436C15.9514 10.6647 15.8578 10.6242 15.7996 10.6774C15.7532 10.7199 15.7037 10.7624 15.6611 10.8009C15.6268 10.8319 15.6077 10.8757 15.6078 10.922ZM14.2097 12.5416C14.1725 12.4353 14.3817 12.3962 14.4064 12.4919C14.4153 12.6089 14.2558 12.6125 14.2097 12.5416Z" fill="#73AF00"/>
<path d="M7.9355 13.424C8.00815 13.424 8.06661 13.4842 8.06661 13.5551C8.06661 13.6295 8.0082 13.6863 7.9355 13.6863C7.86111 13.6863 7.80078 13.6295 7.80078 13.5551C7.80078 13.4842 7.86111 13.424 7.9355 13.424Z" fill="#73AF00"/>
<path d="M12.2545 10.5509C12.29 10.5722 12.3265 10.5926 12.3653 10.6109C12.4354 10.6441 12.4631 10.7312 12.4202 10.7958C12.4073 10.8153 12.3963 10.8374 12.3898 10.8653V12.6053C12.5161 12.6334 12.5852 12.6059 12.6402 12.5652C12.695 12.5246 12.7739 12.5526 12.7915 12.6185C12.8231 12.7366 12.8705 12.8534 12.9071 12.9643C12.9519 13.0999 12.8513 13.2397 12.7085 13.2397H12.1758C12.0895 13.2397 12.0195 13.1697 12.0195 13.0834V10.6857C12.0195 10.5651 12.1511 10.4887 12.2545 10.5509Z" fill="#73AF00"/>
</g>
<defs>
<clipPath id="clip0_72_2249">
<path d="M0 2C0 0.895432 0.895431 0 2 0H21.9998C23.1043 0 23.9998 0.895431 23.9998 2V21.9998C23.9998 23.1043 23.1043 23.9998 21.9998 23.9998H2C0.895432 23.9998 0 23.1043 0 21.9998V2Z" fill="white"/>
</clipPath>
</defs>
</svg>
