<svg width="24" height="24" viewBox="0 0 24 24" fill="none" xmlns="http://www.w3.org/2000/svg">
<g clip-path="url(#clip0_72_2346)">
<path d="M23.9959 6.10352e-05H-0.00390625V23.9998H23.9959V6.10352e-05Z" fill="#F5F5F5"/>
<path d="M23.9959 6.10352e-05H22.4857L11.996 10.4898L1.5062 6.10352e-05H-0.00390625V1.51017L10.4859 11.9999L-0.00390625 22.4897V23.9998H1.5062L11.996 13.5101L22.4857 23.9998H23.9959V22.4897L13.5061 11.9999L23.9959 1.51017V6.10352e-05Z" fill="#FF4B55"/>
<path d="M13.2411 2.56728C13.2411 2.56728 13.1101 2.37074 12.9135 2.50175C12.9135 2.50175 13.1408 2.66553 12.9872 2.83751C12.8247 3.01953 12.6013 2.8415 12.5873 2.71105C12.6469 2.7065 12.694 2.65723 12.694 2.59648C12.694 2.53274 12.6423 2.48103 12.5786 2.48103C12.5148 2.48103 12.4631 2.53274 12.4631 2.59648C12.4631 2.64627 12.4948 2.68831 12.5389 2.70453C12.5108 2.81619 12.2179 2.90164 12.1335 2.71672C12.0384 2.5085 12.1887 2.33183 12.3914 2.35639C12.3914 2.35639 12.3525 2.09844 12.0782 2.20691C12.0782 2.20691 12.1928 1.91207 11.9963 1.71552C11.7997 1.91207 11.9144 2.20691 11.9144 2.20691C11.64 2.0984 11.6011 2.35639 11.6011 2.35639C11.8038 2.33183 11.9541 2.5085 11.8591 2.71672C11.7747 2.90164 11.4818 2.81619 11.4536 2.70453C11.4978 2.68831 11.5295 2.64627 11.5295 2.59648C11.5295 2.53274 11.4778 2.48103 11.414 2.48103C11.3503 2.48103 11.2986 2.53274 11.2986 2.59648C11.2986 2.65728 11.3457 2.7065 11.4053 2.71105C11.3913 2.8415 11.1679 3.01948 11.0054 2.83751C10.8518 2.66553 11.079 2.50175 11.079 2.50175C10.8825 2.37074 10.7514 2.56728 10.7514 2.56728C10.6859 2.30521 10.4238 2.37074 10.4238 2.37074C10.6859 2.69834 10.8786 3.37404 10.8786 3.37404H13.1139C13.1139 3.37404 13.3066 2.69834 13.5686 2.37074C13.5687 2.37074 13.3067 2.30521 13.2411 2.56728Z" fill="#FFE15A"/>
<path d="M13.1139 3.37404C12.7523 3.24659 12.3743 3.18288 11.9963 3.18288C11.6183 3.18288 11.2402 3.24659 10.8786 3.37404C10.2924 5.94276 11.9963 6.62933 11.9963 6.62933C11.9963 6.62933 13.7001 5.94272 13.1139 3.37404Z" fill="#FF4B55"/>
<path d="M11.1818 4.28789C11.1818 4.28789 11.128 4.27776 11.0814 4.31512C11.0814 4.31512 11.065 4.25053 11.1491 4.23492C11.2331 4.21936 11.1818 4.28789 11.1818 4.28789Z" fill="#82AFFF"/>
<path d="M11.117 4.20613C11.117 4.20613 11.0745 4.17182 11.0156 4.1827C11.0156 4.1827 11.0317 4.11801 11.1132 4.14402C11.1947 4.17004 11.117 4.20613 11.117 4.20613Z" fill="#82AFFF"/>
<path d="M11.1522 4.23961C11.1522 4.23961 11.0935 4.22948 11.0424 4.26684C11.0424 4.26684 11.0246 4.20225 11.1164 4.18664C11.2084 4.17108 11.1522 4.23961 11.1522 4.23961Z" fill="#82AFFF"/>
<path d="M12.1697 4.41126C12.1697 4.41126 12.1151 4.41384 12.0783 4.46099C12.0783 4.46099 12.0474 4.40193 12.1256 4.36729C12.2038 4.33265 12.1697 4.41126 12.1697 4.41126Z" fill="#82AFFF"/>
<path d="M12.0894 4.34085C12.0894 4.34085 12.0401 4.31732 11.9854 4.34151C11.9854 4.34151 11.9861 4.27486 12.0713 4.28132C12.1566 4.28779 12.0894 4.34085 12.0894 4.34085Z" fill="#82AFFF"/>
<path d="M12.1299 4.37108C12.1299 4.37108 12.0705 4.37483 12.0294 4.42297C12.0294 4.42297 11.9971 4.36424 12.0829 4.32782C12.1687 4.29144 12.1299 4.37108 12.1299 4.37108Z" fill="#82AFFF"/>
<path d="M12.7928 4.44492C12.7928 4.44492 12.7724 4.44492 12.7357 4.47937C12.7357 4.47937 12.7095 4.42078 12.7867 4.39205C12.8639 4.36331 12.7928 4.44492 12.7928 4.44492Z" fill="#82AFFF"/>
<path d="M12.7544 4.36449C12.7544 4.36449 12.7083 4.33899 12.6543 4.35905C12.6543 4.35905 12.6588 4.29502 12.7405 4.30617C12.8222 4.31738 12.7544 4.36449 12.7544 4.36449Z" fill="#82AFFF"/>
<path d="M12.7915 4.39593C12.7915 4.39593 12.7341 4.39607 12.6918 4.43999C12.6918 4.43999 12.6641 4.38163 12.7488 4.35159C12.8334 4.32159 12.7915 4.39593 12.7915 4.39593Z" fill="#82AFFF"/>
<path d="M11.0924 3.88247C11.0924 3.88247 11.043 3.84966 10.9805 3.86709C10.9805 3.86709 10.9916 3.79584 11.0822 3.81595C11.1728 3.83601 11.0924 3.88247 11.0924 3.88247Z" fill="#82AFFF"/>
<path d="M11.0882 3.75956C11.0882 3.75956 11.0563 3.70941 10.9883 3.70505C10.9883 3.70505 11.0323 3.6375 11.1096 3.68935C11.1869 3.74119 11.0882 3.75956 11.0882 3.75956Z" fill="#82AFFF"/>
<path d="M11.0886 3.82486C11.0886 3.82486 11.0365 3.78643 10.9678 3.80063C10.9678 3.80063 10.9832 3.72549 11.0806 3.75324C11.1781 3.78099 11.0886 3.82486 11.0886 3.82486Z" fill="#82AFFF"/>
<path d="M12.6324 4.04974C12.7188 4.05209 12.8216 4.01782 12.8379 3.92829C12.8567 3.8254 12.7687 3.77337 12.6503 3.77806C12.564 3.78148 12.3453 3.83107 12.1886 3.82554C12.0337 3.8201 12.0295 3.66678 12.2641 3.68309C12.6121 3.70723 12.6674 3.66209 12.6674 3.66209C12.4806 3.69711 12.4058 3.63172 12.2073 3.63172C12.0088 3.63172 11.9707 3.7692 12.0509 3.84425C12.1407 3.92834 12.4666 3.87228 12.553 3.85592C12.6394 3.83956 12.7491 3.83871 12.7577 3.89951C12.7655 3.95403 12.6207 3.95107 12.5182 3.94713C12.3549 3.94085 12.1174 3.98515 11.906 3.99607C11.73 4.00517 11.7054 3.95553 11.6654 3.90467C11.6747 3.88774 11.6801 3.8689 11.6801 3.84893C11.6801 3.83885 11.6784 3.8291 11.6759 3.81968C11.6892 3.80506 11.7032 3.78176 11.7096 3.74384C11.7096 3.74384 11.6646 3.73592 11.6305 3.75312C11.6033 3.73161 11.5672 3.71815 11.5271 3.71815C11.4871 3.71815 11.451 3.73161 11.4237 3.75312C11.3897 3.73596 11.3447 3.74384 11.3447 3.74384C11.3511 3.78176 11.365 3.80506 11.3783 3.81968C11.3758 3.8291 11.3741 3.83885 11.3741 3.84893C11.3741 3.88559 11.3918 3.91873 11.4202 3.94249C11.4339 3.95393 11.4441 3.96907 11.4476 3.98665L11.4525 4.01154C11.4547 4.02242 11.4617 4.03099 11.4708 4.0362C11.3257 4.02124 11.257 3.93003 11.2217 3.87931C11.1819 3.82212 11.1571 3.69556 11.0964 3.68159L11.0605 3.87232C11.0605 3.87232 11.1373 4.04979 11.2801 4.12221C11.4412 4.20396 11.4716 4.2063 11.5245 4.22965C11.5307 4.25768 11.4249 4.27479 11.3174 4.25299C11.2424 4.23776 11.1414 4.12887 11.0837 4.13665L11.1508 4.28566C11.333 4.40088 11.4922 4.40332 11.6288 4.37908C11.7253 4.36197 11.7621 4.28337 11.7684 4.24976C11.8078 4.24244 11.8507 4.23429 11.9838 4.20162C12.0395 4.18793 12.1036 4.18071 12.1675 4.17771C12.1855 4.21877 12.2267 4.27141 12.3684 4.27633C12.3684 4.27633 12.4027 4.33085 12.2859 4.31993C12.1691 4.30905 12.1391 4.27263 12.0706 4.28041L12.1318 4.42582C12.1318 4.42582 12.2813 4.37444 12.465 4.3931C12.465 4.3931 12.4992 4.40243 12.5195 4.37285C12.5397 4.34327 12.5303 4.32616 12.5117 4.29968C12.5012 4.28477 12.4951 4.23644 12.4918 4.19698C12.5591 4.2139 12.7656 4.17199 12.8402 4.17823C12.915 4.18446 12.9259 4.27165 12.9088 4.30123C12.8917 4.3308 12.7351 4.30549 12.7351 4.30549L12.7877 4.44911C12.7877 4.44911 12.8034 4.44152 12.8433 4.40397C12.8758 4.37346 13.0084 4.38372 13.0084 4.36038V4.09432C13.0084 4.08171 12.9974 4.07187 12.9848 4.07299C12.6922 4.09849 12.6324 4.04974 12.6324 4.04974Z" fill="#FFE15A"/>
<path d="M11.4658 3.95515C11.4702 3.96372 11.4735 3.97305 11.4752 3.98294L11.4796 4.00783C11.4812 4.01655 11.4881 4.02288 11.4961 4.02288H11.5639C11.5719 4.02288 11.5787 4.01655 11.5803 4.00783L11.5847 3.98294C11.5864 3.9731 11.5897 3.96377 11.5941 3.95515H11.4658Z" fill="#FF4B55"/>
<path d="M11.5264 4.00425C11.5107 4.00425 11.4985 4.00612 11.5001 4.02797L11.5065 4.12101C11.5076 4.13526 11.5161 4.14609 11.5264 4.14609C11.5366 4.14609 11.5451 4.13526 11.5462 4.12101L11.5526 4.02797C11.5542 4.00617 11.542 4.00425 11.5264 4.00425Z" fill="#82AFFF"/>
<path d="M11.3242 5.20681C11.3242 5.20681 11.2804 5.19856 11.2423 5.22903C11.2423 5.22903 11.2289 5.17634 11.2975 5.16364C11.3661 5.15094 11.3242 5.20681 11.3242 5.20681Z" fill="#82AFFF"/>
<path d="M11.2721 5.14016C11.2721 5.14016 11.2374 5.11218 11.1895 5.12104C11.1895 5.12104 11.2026 5.0683 11.269 5.08949C11.3355 5.11072 11.2721 5.14016 11.2721 5.14016Z" fill="#82AFFF"/>
<path d="M11.3006 5.16744C11.3006 5.16744 11.2527 5.15919 11.2111 5.18966C11.2111 5.18966 11.1965 5.13698 11.2715 5.12427C11.3464 5.11157 11.3006 5.16744 11.3006 5.16744Z" fill="#82AFFF"/>
<path d="M12.1302 5.30745C12.1302 5.30745 12.0857 5.30956 12.0557 5.34804C12.0557 5.34804 12.0305 5.29986 12.0943 5.27164C12.1581 5.24337 12.1302 5.30745 12.1302 5.30745Z" fill="#82AFFF"/>
<path d="M12.0644 5.25003C12.0644 5.25003 12.0241 5.23086 11.9795 5.25055C11.9795 5.25055 11.9801 5.19617 12.0496 5.20147C12.1192 5.20672 12.0644 5.25003 12.0644 5.25003Z" fill="#82AFFF"/>
<path d="M12.0976 5.27473C12.0976 5.27473 12.049 5.27778 12.0156 5.31706C12.0156 5.31706 11.9892 5.26915 12.0592 5.23943C12.1292 5.20976 12.0976 5.27473 12.0976 5.27473Z" fill="#82AFFF"/>
<path d="M12.6389 5.33492C12.6389 5.33492 12.6222 5.33492 12.5924 5.363C12.5924 5.363 12.571 5.31518 12.634 5.29175C12.6969 5.26836 12.6389 5.33492 12.6389 5.33492Z" fill="#82AFFF"/>
<path d="M12.607 5.26935C12.607 5.26935 12.5695 5.24853 12.5254 5.26494C12.5254 5.26494 12.5291 5.21268 12.5957 5.22182C12.6623 5.23086 12.607 5.26935 12.607 5.26935Z" fill="#82AFFF"/>
<path d="M12.6366 5.29494C12.6366 5.29494 12.5897 5.29503 12.5553 5.33089C12.5553 5.33089 12.5327 5.28332 12.6017 5.2588C12.6708 5.23433 12.6366 5.29494 12.6366 5.29494Z" fill="#82AFFF"/>
<path d="M11.2514 4.87616C11.2514 4.87616 11.2112 4.84939 11.1602 4.86359C11.1602 4.86359 11.1692 4.80547 11.2432 4.82187C11.3171 4.83823 11.2514 4.87616 11.2514 4.87616Z" fill="#82AFFF"/>
<path d="M11.2475 4.77589C11.2475 4.77589 11.2215 4.73497 11.166 4.73141C11.166 4.73141 11.2019 4.67633 11.265 4.71856C11.328 4.7608 11.2475 4.77589 11.2475 4.77589Z" fill="#82AFFF"/>
<path d="M11.2479 4.82915C11.2479 4.82915 11.2055 4.79779 11.1494 4.80937C11.1494 4.80937 11.162 4.7481 11.2415 4.77074C11.3209 4.79338 11.2479 4.82915 11.2479 4.82915Z" fill="#82AFFF"/>
<path d="M12.5135 5.01259C12.584 5.01451 12.6678 4.98657 12.6811 4.91354C12.6964 4.82963 12.6246 4.78717 12.528 4.79096C12.4576 4.79373 12.2793 4.83418 12.1515 4.82968C12.0251 4.82523 12.0217 4.70021 12.2131 4.71348C12.497 4.73317 12.542 4.69632 12.542 4.69632C12.3896 4.72492 12.3286 4.67157 12.1667 4.67157C12.0048 4.67157 11.9738 4.7837 12.0391 4.84492C12.1124 4.91354 12.3782 4.86779 12.4487 4.85443C12.5192 4.84112 12.6086 4.84037 12.6157 4.89001C12.622 4.93445 12.5039 4.93206 12.4203 4.92887C12.2871 4.92376 12.0934 4.9599 11.921 4.96876C11.7773 4.97616 11.7573 4.93566 11.7247 4.89423C11.7323 4.88045 11.7367 4.86507 11.7367 4.84876C11.7367 4.84051 11.7353 4.83259 11.7333 4.8249C11.7441 4.81299 11.7555 4.79396 11.7608 4.76303C11.7608 4.76303 11.724 4.7566 11.6963 4.77057C11.674 4.75304 11.6446 4.74207 11.6119 4.74207C11.5793 4.74207 11.5498 4.75304 11.5276 4.77057C11.4998 4.75656 11.4631 4.76303 11.4631 4.76303C11.4683 4.79396 11.4797 4.81299 11.4906 4.8249C11.4885 4.83259 11.4872 4.84051 11.4872 4.84876C11.4872 4.87867 11.5016 4.90571 11.5248 4.92507C11.536 4.9344 11.5443 4.94677 11.5471 4.96107L11.5511 4.98137C11.5529 4.99027 11.5586 4.99721 11.566 5.00148C11.4477 4.98929 11.3916 4.91485 11.3629 4.87351C11.3304 4.82687 11.3102 4.72365 11.2606 4.71221L11.2314 4.86779C11.2314 4.86779 11.2941 5.01254 11.4105 5.07165C11.5419 5.1383 11.5667 5.14023 11.6099 5.15926C11.615 5.18213 11.5286 5.1961 11.441 5.17829C11.3798 5.16587 11.2974 5.07704 11.2504 5.08341L11.3051 5.20496C11.4537 5.29894 11.5836 5.30091 11.695 5.28118C11.7737 5.26721 11.8037 5.20308 11.8088 5.17566C11.841 5.16971 11.876 5.16305 11.9845 5.13638C12.03 5.12523 12.0823 5.11932 12.1344 5.11688C12.1491 5.1504 12.1827 5.19329 12.2982 5.19732C12.2982 5.19732 12.3262 5.24176 12.2309 5.2329C12.1357 5.22399 12.1112 5.19432 12.0553 5.20069L12.1051 5.31929C12.1051 5.31929 12.2271 5.27738 12.3769 5.29261C12.3769 5.29261 12.4049 5.30025 12.4214 5.27611C12.4379 5.25197 12.4303 5.23801 12.415 5.21644C12.4065 5.2043 12.4015 5.16488 12.3988 5.13268C12.4537 5.14646 12.6221 5.11233 12.683 5.1174C12.744 5.12246 12.7529 5.19362 12.7389 5.21771C12.7249 5.24185 12.5973 5.22122 12.5973 5.22122L12.6401 5.33836C12.6401 5.33836 12.653 5.33218 12.6855 5.30152C12.712 5.27663 12.8202 5.28502 12.8202 5.26594V5.04891C12.8202 5.0386 12.8112 5.03059 12.801 5.03152C12.5623 5.05238 12.5135 5.01259 12.5135 5.01259Z" fill="#FFE15A"/>
<path d="M11.5615 4.93544C11.5651 4.94247 11.5678 4.95006 11.5692 4.95808L11.5728 4.97838C11.5741 4.9855 11.5797 4.99066 11.5862 4.99066H11.6415C11.648 4.99066 11.6536 4.9855 11.6549 4.97838L11.6585 4.95808C11.6599 4.95002 11.6626 4.94242 11.6661 4.93544H11.5615Z" fill="#FF4B55"/>
<path d="M11.6162 4.97553C11.6034 4.97553 11.5935 4.97708 11.5949 4.99489L11.6 5.07078C11.6009 5.08241 11.6079 5.09122 11.6162 5.09122C11.6246 5.09122 11.6316 5.08241 11.6324 5.07078L11.6376 4.99489C11.639 4.97708 11.629 4.97553 11.6162 4.97553Z" fill="#82AFFF"/>
<path d="M11.4957 5.93725C11.4957 5.93725 11.4629 5.93107 11.4344 5.95389C11.4344 5.95389 11.4244 5.91443 11.4757 5.90491C11.527 5.8954 11.4957 5.93725 11.4957 5.93725Z" fill="#82AFFF"/>
<path d="M11.4555 5.88734C11.4555 5.88734 11.4295 5.86639 11.3936 5.87305C11.3936 5.87305 11.4034 5.83353 11.4531 5.84942C11.5029 5.86531 11.4555 5.88734 11.4555 5.88734Z" fill="#82AFFF"/>
<path d="M11.4771 5.90777C11.4771 5.90777 11.4412 5.90159 11.41 5.92441C11.41 5.92441 11.3991 5.88495 11.4553 5.87543C11.5113 5.86592 11.4771 5.90777 11.4771 5.90777Z" fill="#82AFFF"/>
<path d="M12.0986 6.01259C12.0986 6.01259 12.0652 6.01418 12.0427 6.04296C12.0427 6.04296 12.0239 6.00687 12.0716 5.98573C12.1194 5.96459 12.0986 6.01259 12.0986 6.01259Z" fill="#82AFFF"/>
<path d="M12.0489 5.9696C12.0489 5.9696 12.0188 5.95521 11.9854 5.96998C11.9854 5.96998 11.9858 5.92929 12.0379 5.93323C12.0899 5.93721 12.0489 5.9696 12.0489 5.9696Z" fill="#82AFFF"/>
<path d="M12.0738 5.98807C12.0738 5.98807 12.0375 5.99036 12.0124 6.01975C12.0124 6.01975 11.9927 5.98389 12.0451 5.96163C12.0975 5.93946 12.0738 5.98807 12.0738 5.98807Z" fill="#82AFFF"/>
<path d="M12.4789 6.03316C12.4789 6.03316 12.4664 6.03316 12.444 6.05421C12.444 6.05421 12.428 6.0184 12.4752 6.00087C12.5223 5.98329 12.4789 6.03316 12.4789 6.03316Z" fill="#82AFFF"/>
<path d="M12.4557 5.98404C12.4557 5.98404 12.4275 5.96847 12.3945 5.98071C12.3945 5.98071 12.3973 5.94157 12.4472 5.94841C12.497 5.95526 12.4557 5.98404 12.4557 5.98404Z" fill="#82AFFF"/>
<path d="M12.4785 6.00326C12.4785 6.00326 12.4435 6.00335 12.4177 6.03016C12.4177 6.03016 12.4008 5.99454 12.4525 5.97616C12.5042 5.95779 12.4785 6.00326 12.4785 6.00326Z" fill="#82AFFF"/>
<path d="M11.4404 5.68966C11.4404 5.68966 11.4103 5.6696 11.3721 5.68024C11.3721 5.68024 11.3789 5.63674 11.4342 5.64902C11.4895 5.6613 11.4404 5.68966 11.4404 5.68966Z" fill="#82AFFF"/>
<path d="M11.4379 5.61457C11.4379 5.61457 11.4185 5.58396 11.377 5.58124C11.377 5.58124 11.4038 5.53999 11.4511 5.57163C11.4982 5.60332 11.4379 5.61457 11.4379 5.61457Z" fill="#82AFFF"/>
<path d="M11.438 5.65446C11.438 5.65446 11.4063 5.63098 11.3643 5.63965C11.3643 5.63965 11.3737 5.59376 11.4332 5.61073C11.4927 5.62765 11.438 5.65446 11.438 5.65446Z" fill="#82AFFF"/>
<path d="M12.3808 5.79179C12.4336 5.7932 12.4963 5.77229 12.5063 5.71763C12.5178 5.65482 12.464 5.62299 12.3917 5.62585C12.339 5.62792 12.2054 5.65824 12.1098 5.65487C12.0151 5.65154 12.0125 5.55793 12.1559 5.56787C12.3684 5.58259 12.4022 5.55503 12.4022 5.55503C12.2881 5.5764 12.2424 5.53646 12.1212 5.53646C11.9999 5.53646 11.9766 5.62042 12.0256 5.66626C12.0804 5.71763 12.2795 5.68337 12.3322 5.67339C12.385 5.6634 12.452 5.66289 12.4573 5.70001C12.462 5.73329 12.3736 5.73151 12.311 5.72907C12.2113 5.72523 12.0662 5.75228 11.9372 5.75893C11.8296 5.76446 11.8146 5.73418 11.7902 5.7031C11.7959 5.69279 11.7992 5.68126 11.7992 5.66907C11.7992 5.66289 11.7982 5.65698 11.7966 5.65121C11.8048 5.64231 11.8133 5.62806 11.8172 5.6049C11.8172 5.6049 11.7897 5.60007 11.7689 5.61057C11.7523 5.59745 11.7302 5.58925 11.7058 5.58925C11.6814 5.58925 11.6593 5.59745 11.6427 5.61057C11.6219 5.60007 11.5944 5.6049 11.5944 5.6049C11.5983 5.62806 11.6068 5.64231 11.615 5.65121C11.6134 5.65698 11.6124 5.66293 11.6124 5.66907C11.6124 5.69148 11.6232 5.71168 11.6406 5.72621C11.649 5.7332 11.6552 5.74248 11.6573 5.75317L11.6603 5.76835C11.6616 5.77501 11.6659 5.78021 11.6714 5.78345C11.5828 5.77431 11.5409 5.71862 11.5193 5.68764C11.4951 5.65271 11.4799 5.57542 11.4428 5.56689L11.4209 5.68337C11.4209 5.68337 11.4678 5.79174 11.555 5.83599C11.6534 5.88591 11.6719 5.88732 11.7043 5.90162C11.7081 5.91873 11.6434 5.92918 11.5778 5.91587C11.532 5.90659 11.4703 5.84007 11.4351 5.84481L11.4761 5.93584C11.5874 6.00619 11.6846 6.00769 11.768 5.99288C11.827 5.98243 11.8494 5.93443 11.8533 5.9139C11.8773 5.90945 11.9036 5.90443 11.9848 5.88451C12.0189 5.87616 12.0581 5.87171 12.0971 5.86993C12.1081 5.89501 12.1332 5.92716 12.2197 5.93016C12.2197 5.93016 12.2406 5.96345 12.1693 5.95679C12.098 5.95013 12.0797 5.92791 12.0379 5.93265L12.0752 6.02143C12.0752 6.02143 12.1665 5.99007 12.2787 6.00146C12.2787 6.00146 12.2996 6.00718 12.3119 5.98909C12.3243 5.97104 12.3186 5.96054 12.3072 5.94441C12.3008 5.93532 12.2971 5.90579 12.2951 5.8817C12.3362 5.89201 12.4623 5.86646 12.5079 5.87026C12.5535 5.87406 12.5602 5.9273 12.5497 5.9454C12.5393 5.96344 12.4437 5.94802 12.4437 5.94802L12.4758 6.03573C12.4758 6.03573 12.4854 6.03108 12.5098 6.00816C12.5296 5.98951 12.6106 5.99579 12.6106 5.98154V5.81902C12.6106 5.81129 12.6039 5.80534 12.5962 5.80599C12.4174 5.8216 12.3808 5.79179 12.3808 5.79179Z" fill="#FFE15A"/>
<path d="M11.668 5.73403C11.6706 5.73928 11.6727 5.745 11.6737 5.751L11.6764 5.76619C11.6773 5.77153 11.6816 5.77538 11.6864 5.77538H11.7279C11.7327 5.77538 11.7369 5.77153 11.7379 5.76619L11.7405 5.751C11.7416 5.745 11.7436 5.73928 11.7463 5.73403H11.668Z" fill="#FF4B55"/>
<path d="M11.7075 5.76408C11.698 5.76408 11.6905 5.76526 11.6915 5.77857L11.6953 5.83538C11.696 5.8441 11.7012 5.85066 11.7075 5.85066C11.7137 5.85066 11.719 5.84405 11.7196 5.83538L11.7235 5.77857C11.7245 5.76521 11.7171 5.76408 11.7075 5.76408Z" fill="#82AFFF"/>
</g>
<defs>
<clipPath id="clip0_72_2346">
<path d="M0 2C0 0.895432 0.895431 0 2 0H21.9998C23.1043 0 23.9998 0.895431 23.9998 2V21.9998C23.9998 23.1043 23.1043 23.9998 21.9998 23.9998H2C0.895432 23.9998 0 23.1043 0 21.9998V2Z" fill="white"/>
</clipPath>
</defs>
</svg>
