<svg width="24" height="24" viewBox="0 0 24 24" fill="none" xmlns="http://www.w3.org/2000/svg">
<g clip-path="url(#clip0_72_2405)">
<path d="M24.0037 6.10352e-05H0.00390625V23.9998H24.0037V6.10352e-05Z" fill="#82C3D2"/>
<path d="M3.25717 2.25913C3.19637 2.00189 3.18133 1.90706 3.29673 1.79165C3.35303 1.73536 3.35303 1.64419 3.29673 1.58789C3.24044 1.53159 3.14927 1.53159 3.09297 1.58789C2.8593 1.82156 2.91503 2.06413 2.97555 2.32087C2.79138 2.26068 2.60041 2.3053 2.49799 2.43449C2.44718 2.49894 2.34898 2.67964 2.53305 2.96811C2.57585 3.03509 2.66435 3.05478 2.73204 3.01231C2.79916 2.96952 2.81871 2.88031 2.77596 2.81333C2.70686 2.70468 2.7049 2.63769 2.72416 2.61322C2.74694 2.58425 2.81772 2.56902 2.89178 2.59522C2.93964 2.61182 3.05078 2.66924 3.05078 2.84263C3.05078 2.98109 2.98675 3.10803 2.87514 3.19048C2.76325 3.27322 2.61846 3.29661 2.47887 3.25325C2.30646 3.20061 2.18618 3.01906 2.18618 2.81164C2.18618 2.66333 2.21796 2.51329 2.27637 2.38185C2.28565 2.36244 2.50587 1.90621 2.56258 1.7362C2.67475 1.39988 2.56076 1.23071 2.48294 1.16007C2.37879 1.06524 2.22668 1.04157 2.09567 1.09899C2.07579 1.1078 2.05934 1.1206 2.04204 1.1325C2.02475 1.1206 2.00829 1.1078 1.98842 1.09899C1.85754 1.04157 1.70544 1.06519 1.60114 1.16007C1.52333 1.23071 1.40933 1.39988 1.5215 1.7362C1.57822 1.90621 1.79843 2.3624 1.80575 2.37763C1.86612 2.51329 1.8979 2.66329 1.8979 2.81164C1.8979 3.01906 1.77758 3.20061 1.60522 3.25325C1.4652 3.29661 1.32083 3.2735 1.20894 3.19048C1.09733 3.10803 1.0333 2.98109 1.0333 2.84263C1.0333 2.66924 1.14449 2.61186 1.1923 2.59522C1.2666 2.56907 1.33696 2.58425 1.35992 2.61322C1.37919 2.63769 1.37722 2.70468 1.30813 2.81333C1.26533 2.88031 1.28492 2.96952 1.35205 3.01231C1.41974 3.05511 1.50852 3.03509 1.55103 2.96811C1.73511 2.67964 1.63686 2.49894 1.58609 2.43449C1.48367 2.3053 1.29271 2.26068 1.10854 2.32087C1.16905 2.06413 1.22478 1.82156 0.991115 1.58789C0.934818 1.53159 0.843647 1.53159 0.787351 1.58789C0.731055 1.64419 0.731055 1.73536 0.787351 1.79165C0.902756 1.90706 0.88771 2.00189 0.826913 2.25913C0.790445 2.41335 0.745164 2.60558 0.745164 2.84258C0.745164 3.00031 0.80057 3.15106 0.893897 3.2749H0.889256C0.809617 3.2749 0.745164 3.33936 0.745164 3.419C0.745164 3.49864 0.809617 3.56309 0.889256 3.56309H0.893897C0.800617 3.68693 0.745164 3.83768 0.745164 3.99541C0.745164 4.23241 0.790492 4.42464 0.826913 4.57886C0.88771 4.83611 0.902756 4.93093 0.787351 5.04634C0.731055 5.10264 0.731055 5.19381 0.787351 5.2501C0.815476 5.27823 0.852366 5.29234 0.889256 5.29234C0.926147 5.29234 0.96299 5.27828 0.991162 5.2501C1.22483 5.01643 1.1691 4.77381 1.10858 4.51713C1.29275 4.57708 1.48372 4.53269 1.58614 4.4035C1.63695 4.33905 1.73515 4.15835 1.55108 3.86988C1.50842 3.8029 1.41936 3.78293 1.3521 3.82568C1.28497 3.86848 1.26542 3.95768 1.30817 4.02466C1.37727 4.13332 1.37924 4.2003 1.35997 4.22477C1.33705 4.25346 1.26669 4.26869 1.19235 4.24277C1.14449 4.22618 1.03335 4.16875 1.03335 3.99537C1.03335 3.8569 1.09738 3.72996 1.20899 3.64751C1.32088 3.56478 1.46553 3.5411 1.60527 3.58474C1.77767 3.63738 1.89795 3.81893 1.89795 4.02635C1.89795 4.17466 1.86617 4.32471 1.80579 4.46036L0.862069 6.58354C0.784539 6.75806 0.745117 6.94349 0.745117 7.1346C0.745117 7.38046 0.856913 7.60499 1.03283 7.74195C0.856913 7.87897 0.745117 8.10345 0.745117 8.34931C0.745117 8.54042 0.784539 8.7259 0.862069 8.90037L1.80575 11.0236C1.86612 11.1592 1.8979 11.3092 1.8979 11.4576C1.8979 11.665 1.77758 11.8466 1.60522 11.8992C1.4652 11.9429 1.32083 11.9195 1.20894 11.8364C1.09733 11.754 1.0333 11.6271 1.0333 11.4886C1.0333 11.3152 1.14449 11.2578 1.1923 11.2412C1.2666 11.2153 1.33696 11.2302 1.35992 11.2592C1.37919 11.2837 1.37722 11.3506 1.30813 11.4593C1.26533 11.5263 1.28492 11.6155 1.35205 11.6583C1.41974 11.7011 1.50852 11.6813 1.55103 11.6141C1.73511 11.3256 1.63686 11.1449 1.58609 11.0805C1.48367 10.9513 1.29271 10.9069 1.10854 10.9668C1.16905 10.7101 1.22478 10.4675 0.991115 10.2339C0.934818 10.1776 0.843647 10.1776 0.787351 10.2339C0.731055 10.2901 0.731055 10.3813 0.787351 10.4376C0.902756 10.553 0.88771 10.6478 0.826913 10.9051C0.790445 11.0593 0.745164 11.2515 0.745164 11.4885C0.745164 11.6463 0.80057 11.797 0.893897 11.9209H0.889256C0.809617 11.9209 0.745164 11.9853 0.745164 12.065C0.745164 12.1446 0.809617 12.2091 0.889256 12.2091H0.893897C0.800617 12.3329 0.745164 12.4836 0.745164 12.6414C0.745164 12.8784 0.790492 13.0706 0.826913 13.2248C0.88771 13.4821 0.902756 13.5769 0.787351 13.6923C0.731055 13.7486 0.731055 13.8398 0.787351 13.8961C0.815476 13.9242 0.852366 13.9383 0.889256 13.9383C0.926147 13.9383 0.96299 13.9242 0.991162 13.8961C1.22483 13.6624 1.1691 13.4198 1.10858 13.1631C1.29275 13.223 1.48372 13.1787 1.58614 13.0495C1.63695 12.985 1.73515 12.8043 1.55108 12.5158C1.50842 12.4489 1.41936 12.4289 1.3521 12.4716C1.28497 12.5144 1.26542 12.6036 1.30817 12.6706C1.37727 12.7793 1.37924 12.8463 1.35997 12.8707C1.33705 12.8997 1.26669 12.9149 1.19235 12.8887C1.14449 12.8721 1.03335 12.8147 1.03335 12.6413C1.03335 12.5029 1.09738 12.3759 1.20899 12.2935C1.32088 12.2107 1.46553 12.1871 1.60527 12.2307C1.77767 12.2833 1.89795 12.4649 1.89795 12.6723C1.89795 12.8206 1.86617 12.9707 1.80579 13.1063L0.862116 15.2296C0.784586 15.4041 0.745164 15.5895 0.745164 15.7806C0.745164 16.0265 0.85696 16.251 1.03288 16.388C0.85696 16.525 0.745164 16.7495 0.745164 16.9953C0.745164 17.1864 0.784586 17.3719 0.862116 17.5464L1.80579 19.6696C1.86617 19.8053 1.89795 19.9553 1.89795 20.1036C1.89795 20.311 1.77762 20.4926 1.60527 20.5452C1.46525 20.5889 1.32088 20.5652 1.20899 20.4825C1.09738 20.4 1.03335 20.2731 1.03335 20.1346C1.03335 19.9612 1.14454 19.9038 1.19235 19.8872C1.26664 19.8613 1.337 19.8762 1.35997 19.9052C1.37924 19.9297 1.37727 19.9966 1.30817 20.1053C1.26538 20.1723 1.28497 20.2615 1.3521 20.3043C1.41978 20.3471 1.50856 20.3273 1.55108 20.2601C1.73515 19.9716 1.63691 19.7909 1.58614 19.7265C1.48372 19.597 1.29275 19.5527 1.10858 19.6128C1.1691 19.3561 1.22483 19.1135 0.991162 18.8799C0.934865 18.8236 0.843694 18.8236 0.787398 18.8799C0.731102 18.9362 0.731102 19.0273 0.787398 19.0836C0.902803 19.199 0.887756 19.2939 0.82696 19.5511C0.790492 19.7053 0.745211 19.8976 0.745211 20.1346C0.745211 20.3604 0.853444 20.5755 1.03433 20.711C0.853444 20.8465 0.745211 21.0615 0.745211 21.2874C0.745211 21.5244 0.790539 21.7166 0.82696 21.8708C0.887756 22.1281 0.902803 22.2229 0.787398 22.3383C0.731102 22.3946 0.731102 22.4858 0.787398 22.5421C0.815523 22.5702 0.852413 22.5843 0.889303 22.5843C0.926194 22.5843 0.963037 22.5702 0.991208 22.5421C1.22488 22.3084 1.16914 22.0658 1.10863 21.8091C1.2928 21.8691 1.48377 21.8247 1.58619 21.6955C1.637 21.631 1.7352 21.4503 1.55112 21.1619C1.50847 21.0949 1.41941 21.0752 1.35214 21.1177C1.28502 21.1604 1.26547 21.2497 1.30822 21.3166C1.37731 21.4253 1.37928 21.4923 1.36002 21.5167C1.3371 21.5457 1.26674 21.5607 1.19239 21.5347C1.14454 21.5181 1.0334 21.4607 1.0334 21.2873C1.0334 21.1489 1.09743 21.0219 1.20903 20.9395C1.32092 20.8567 1.46558 20.8334 1.60531 20.8767C1.77772 20.9294 1.898 21.1109 1.898 21.3183C1.898 21.4666 1.86622 21.6167 1.80781 21.7481C1.79853 21.7675 1.57831 22.2238 1.52159 22.3938C1.40942 22.7301 1.52342 22.8993 1.60123 22.9699C1.6678 23.0304 1.75348 23.0622 1.84104 23.0622C1.89073 23.0622 1.94112 23.0518 1.98851 23.031C2.00839 23.0222 2.02484 23.0094 2.04214 22.9975C2.05943 23.0094 2.07589 23.0222 2.09576 23.031C2.1432 23.0518 2.19354 23.0622 2.24323 23.0622C2.3306 23.0622 2.41648 23.0304 2.48304 22.9699C2.56085 22.8993 2.67485 22.7301 2.56268 22.3938C2.50596 22.2238 2.28574 21.7676 2.27843 21.7523C2.21806 21.6167 2.18627 21.4667 2.18627 21.3183C2.18627 21.1109 2.3066 20.9294 2.47896 20.8767C2.61911 20.8334 2.76335 20.8567 2.87524 20.9395C2.98685 21.0219 3.05088 21.1489 3.05088 21.2873C3.05088 21.4607 2.93969 21.5181 2.89188 21.5347C2.81786 21.5606 2.74708 21.5457 2.72425 21.5167C2.70499 21.4923 2.70696 21.4253 2.77605 21.3166C2.81885 21.2497 2.79925 21.1604 2.73213 21.1177C2.66486 21.0754 2.57608 21.0952 2.53315 21.1619C2.34907 21.4503 2.44732 21.631 2.49808 21.6955C2.60051 21.8247 2.79147 21.8691 2.97564 21.8091C2.91513 22.0658 2.85939 22.3084 3.09306 22.5421C3.12119 22.5702 3.15808 22.5843 3.19497 22.5843C3.23186 22.5843 3.2687 22.5702 3.29687 22.5421C3.35317 22.4858 3.35317 22.3946 3.29687 22.3383C3.18147 22.2229 3.19652 22.1281 3.25731 21.8708C3.29378 21.7166 3.33906 21.5244 3.33906 21.2874C3.33906 21.0615 3.23083 20.8465 3.04994 20.711C3.23083 20.5755 3.33906 20.3604 3.33906 20.1346C3.33906 19.8976 3.29373 19.7054 3.25731 19.5511C3.19652 19.2939 3.18147 19.199 3.29687 19.0836C3.35317 19.0273 3.35317 18.9362 3.29687 18.8799C3.24058 18.8236 3.14941 18.8236 3.09311 18.8799C2.85944 19.1135 2.91517 19.3561 2.97569 19.6128C2.79152 19.5527 2.60055 19.597 2.49813 19.7265C2.44732 19.7909 2.34912 19.9716 2.53319 20.2601C2.57599 20.3271 2.66449 20.3468 2.73218 20.3043C2.7993 20.2615 2.81885 20.1723 2.7761 20.1053C2.707 19.9966 2.70504 19.9297 2.7243 19.9052C2.74708 19.8762 2.81786 19.8613 2.89192 19.8872C2.93978 19.9038 3.05092 19.9612 3.05092 20.1346C3.05092 20.2731 2.98689 20.4 2.87528 20.4825C2.76339 20.5652 2.6186 20.5889 2.47901 20.5452C2.3066 20.4926 2.18632 20.311 2.18632 20.1036C2.18632 19.9553 2.2181 19.8053 2.27848 19.6696L3.22216 17.5464C3.29969 17.3719 3.33911 17.1864 3.33911 16.9953C3.33911 16.7495 3.22731 16.5249 3.05139 16.388C3.22731 16.2509 3.33911 16.0265 3.33911 15.7806C3.33911 15.5895 3.29969 15.404 3.22216 15.2296L2.27848 13.1063C2.2181 12.9707 2.18632 12.8207 2.18632 12.6723C2.18632 12.4649 2.30665 12.2833 2.47901 12.2307C2.61916 12.1873 2.76339 12.2107 2.87528 12.2935C2.98689 12.3759 3.05092 12.5029 3.05092 12.6413C3.05092 12.8147 2.93974 12.8721 2.89192 12.8887C2.81791 12.9149 2.74713 12.8997 2.7243 12.8707C2.70504 12.8463 2.707 12.7793 2.7761 12.6706C2.81889 12.6036 2.7993 12.5144 2.73218 12.4716C2.66491 12.4294 2.57613 12.4491 2.53319 12.5158C2.34912 12.8043 2.44737 12.985 2.49813 13.0495C2.60055 13.1787 2.79152 13.223 2.97569 13.1631C2.91517 13.4198 2.85944 13.6624 3.09311 13.8961C3.12123 13.9242 3.15812 13.9383 3.19502 13.9383C3.23191 13.9383 3.26875 13.9242 3.29692 13.8961C3.35322 13.8398 3.35322 13.7486 3.29692 13.6923C3.18152 13.5769 3.19656 13.4821 3.25736 13.2248C3.29383 13.0706 3.33911 12.8784 3.33911 12.6414C3.33911 12.4836 3.2837 12.3329 3.19037 12.2091H3.19502C3.27466 12.2091 3.33911 12.1446 3.33911 12.065C3.33911 11.9853 3.27466 11.9209 3.19502 11.9209H3.19037C3.28366 11.797 3.33911 11.6463 3.33911 11.4885C3.33911 11.2515 3.29378 11.0594 3.25736 10.9051C3.19656 10.6478 3.18152 10.553 3.29692 10.4376C3.35322 10.3813 3.35322 10.2901 3.29692 10.2339C3.24062 10.1776 3.14945 10.1776 3.09316 10.2339C2.85949 10.4675 2.91522 10.7101 2.97574 10.9668C2.79157 10.9069 2.6006 10.9513 2.49818 11.0805C2.44737 11.1449 2.34916 11.3256 2.53324 11.6141C2.57604 11.6811 2.66454 11.7005 2.73222 11.6583C2.79935 11.6155 2.81889 11.5263 2.77614 11.4593C2.70705 11.3506 2.70508 11.2837 2.72435 11.2592C2.74713 11.2302 2.81791 11.2153 2.89197 11.2412C2.93983 11.2578 3.05097 11.3152 3.05097 11.4886C3.05097 11.6271 2.98694 11.754 2.87533 11.8364C2.76344 11.9192 2.61865 11.9426 2.47905 11.8992C2.30665 11.8466 2.18637 11.665 2.18637 11.4576C2.18637 11.3093 2.21815 11.1592 2.27852 11.0236L3.2222 8.90037C3.29973 8.72585 3.33915 8.54042 3.33915 8.34931C3.33915 8.10345 3.22736 7.87892 3.05144 7.74195C3.22736 7.60494 3.33915 7.38046 3.33915 7.1346C3.33915 6.94349 3.29973 6.75801 3.2222 6.58354L2.27829 4.46031C2.21792 4.32466 2.18613 4.17466 2.18613 4.0263C2.18613 3.81888 2.30646 3.63734 2.47882 3.5847C2.61897 3.54134 2.76321 3.56473 2.8751 3.64746C2.9867 3.72992 3.05074 3.85685 3.05074 3.99532C3.05074 4.16871 2.93955 4.22613 2.89174 4.24272C2.81772 4.2686 2.74694 4.25341 2.72411 4.22472C2.70485 4.20025 2.70682 4.13327 2.77591 4.02462C2.81871 3.95763 2.79911 3.86843 2.73199 3.82563C2.66472 3.7834 2.57594 3.80285 2.53301 3.86984C2.34893 4.1583 2.44718 4.339 2.49794 4.40346C2.60036 4.53264 2.79133 4.57703 2.9755 4.51708C2.91499 4.77376 2.85925 5.01639 3.09292 5.25006C3.12105 5.27818 3.15794 5.29229 3.19483 5.29229C3.23172 5.29229 3.26856 5.27823 3.29673 5.25006C3.35303 5.19376 3.35303 5.10259 3.29673 5.04629C3.18133 4.93089 3.19637 4.83606 3.25717 4.57881C3.29364 4.4246 3.33892 4.23236 3.33892 3.99537C3.33892 3.83763 3.28351 3.68688 3.19019 3.56304H3.19483C3.27447 3.56304 3.33892 3.49859 3.33892 3.41895C3.33892 3.33931 3.27447 3.27486 3.19483 3.27486H3.19019C3.28347 3.15101 3.33892 3.00027 3.33892 2.84253C3.33892 2.60558 3.29364 2.41335 3.25717 2.25913ZM1.79478 1.64498C1.74354 1.49133 1.7614 1.40377 1.7952 1.37311C1.81728 1.3523 1.85079 1.35314 1.87189 1.3627C1.8979 1.37424 1.8979 1.39252 1.8979 1.40156C1.8979 1.4812 1.96236 1.54566 2.042 1.54566C2.12163 1.54566 2.18609 1.4812 2.18609 1.40156C2.18609 1.39256 2.18609 1.37428 2.2121 1.3627C2.23292 1.35314 2.26615 1.3523 2.28879 1.37311C2.32259 1.40377 2.34045 1.49133 2.28921 1.64498C2.25195 1.75645 2.11709 2.04642 2.042 2.20387C1.96859 2.05012 1.83233 1.7572 1.79478 1.64498ZM2.04204 7.59083C2.08343 7.64708 2.13017 7.69935 2.18707 7.74195C2.13017 7.78461 2.08343 7.83683 2.04204 7.89308C2.00065 7.83683 1.95392 7.78456 1.89701 7.74195C1.95387 7.69935 2.00065 7.64708 2.04204 7.59083ZM2.04204 16.2369C2.08343 16.2931 2.13017 16.3454 2.18707 16.388C2.13017 16.4307 2.08343 16.4829 2.04204 16.5391C2.00065 16.4829 1.95392 16.4306 1.89701 16.388C1.95387 16.3454 2.00065 16.2931 2.04204 16.2369ZM2.28926 22.485C2.34049 22.6387 2.32263 22.7262 2.28884 22.7569C2.2662 22.7774 2.23296 22.7766 2.21215 22.7673C2.18613 22.7558 2.18613 22.7375 2.18613 22.7284C2.18613 22.6488 2.12168 22.5844 2.04204 22.5844C1.9624 22.5844 1.89795 22.6488 1.89795 22.7284C1.89795 22.7374 1.89795 22.7557 1.87193 22.7673C1.85084 22.7766 1.81733 22.7774 1.79525 22.7569C1.76145 22.7262 1.74359 22.6387 1.79483 22.485C1.83209 22.3736 1.96695 22.0836 2.04204 21.9261C2.11545 22.0799 2.25171 22.3728 2.28926 22.485ZM2.18567 20.7111C2.1311 20.7535 2.08278 20.8043 2.04204 20.8617C2.00131 20.8043 1.95298 20.7535 1.89842 20.7111C1.95298 20.6686 2.00131 20.6178 2.04204 20.5604C2.08273 20.6178 2.1311 20.6686 2.18567 20.7111ZM2.95853 17.4294L2.042 19.4915L1.1255 17.4294C1.06513 17.2937 1.03335 17.1437 1.03335 16.9954C1.03335 16.7879 1.15368 16.6064 1.32603 16.5538C1.46605 16.5104 1.61056 16.5338 1.72231 16.6165C1.83392 16.699 1.89795 16.8259 1.89795 16.9644C1.89795 17.1378 1.78676 17.1951 1.73895 17.2118C1.66466 17.2377 1.59402 17.2228 1.57133 17.1938C1.55206 17.1693 1.55403 17.1023 1.62312 16.9937C1.66592 16.9267 1.64633 16.8375 1.5792 16.7947C1.51194 16.7525 1.42316 16.7722 1.38022 16.8389C1.19614 17.1274 1.29439 17.3081 1.34516 17.3725C1.44945 17.5042 1.64576 17.5496 1.83345 17.484C1.85487 17.4766 1.87648 17.4674 1.8979 17.4565V17.821C1.89786 17.8209 1.89767 17.8208 1.89767 17.8208C1.89326 17.7449 1.8305 17.685 1.75381 17.685C1.67417 17.685 1.60972 17.7494 1.60972 17.8291C1.60972 17.9231 1.67544 18.0861 1.8979 18.1366V18.4055C1.8979 18.4851 1.96236 18.5496 2.042 18.5496C2.12163 18.5496 2.18609 18.4851 2.18609 18.4055V18.1366C2.40855 18.0861 2.47427 17.9231 2.47427 17.8291C2.47427 17.7494 2.40996 17.6802 2.33046 17.6802C2.25082 17.6802 2.18665 17.7399 2.18665 17.8195C2.1866 17.8198 2.18613 17.8201 2.18609 17.8204V17.4566C2.20751 17.4674 2.22912 17.4766 2.25054 17.484C2.43827 17.5496 2.63444 17.5043 2.73883 17.3726C2.78964 17.3081 2.88785 17.1274 2.70377 16.8389C2.66097 16.772 2.57205 16.7523 2.50479 16.7947C2.43766 16.8375 2.41812 16.9267 2.46087 16.9937C2.52996 17.1024 2.53193 17.1694 2.51266 17.1938C2.48988 17.2228 2.41924 17.2378 2.34504 17.2118C2.29718 17.1952 2.18604 17.1378 2.18604 16.9644C2.18604 16.826 2.25007 16.699 2.36168 16.6166C2.47357 16.5338 2.61836 16.5102 2.75796 16.5538C2.93036 16.6064 3.05064 16.788 3.05064 16.9954C3.05074 17.1437 3.01891 17.2937 2.95853 17.4294ZM2.95853 15.3467C3.01891 15.4823 3.05069 15.6323 3.05069 15.7807C3.05069 15.9881 2.93036 16.1697 2.758 16.2223C2.61813 16.266 2.47348 16.2423 2.36173 16.1595C2.25012 16.0771 2.18609 15.9502 2.18609 15.8117C2.18609 15.6383 2.29727 15.5809 2.34509 15.5643C2.41924 15.5384 2.48988 15.5533 2.51271 15.5823C2.53197 15.6068 2.53001 15.6737 2.46091 15.7824C2.41812 15.8494 2.43771 15.9386 2.50483 15.9814C2.57252 16.0242 2.6613 16.0044 2.70382 15.9372C2.88789 15.6487 2.78964 15.468 2.73888 15.4036C2.63444 15.2718 2.43827 15.2271 2.25059 15.2921C2.22917 15.2995 2.20756 15.3087 2.18613 15.3196V14.9551L2.18642 14.9554C2.19078 15.0311 2.25354 15.0911 2.33023 15.0911C2.40987 15.0911 2.47432 15.0266 2.47432 14.947C2.47432 14.853 2.4086 14.69 2.18613 14.6395V14.3706C2.18613 14.2909 2.12168 14.2265 2.04204 14.2265C1.9624 14.2265 1.89795 14.2909 1.89795 14.3706V14.6395C1.67548 14.69 1.60976 14.853 1.60976 14.947C1.60976 15.0266 1.67408 15.0959 1.75358 15.0959C1.83322 15.0959 1.89739 15.0362 1.89739 14.9566C1.89743 14.9563 1.8979 14.956 1.8979 14.956L1.89795 15.3195C1.87653 15.3086 1.85492 15.2994 1.8335 15.292C1.64576 15.227 1.44945 15.2718 1.34521 15.4035C1.29439 15.468 1.19619 15.6487 1.38027 15.9371C1.42306 16.0041 1.51198 16.0235 1.57925 15.9813C1.64637 15.9385 1.66592 15.8493 1.62317 15.7823C1.55408 15.6737 1.55211 15.6067 1.57137 15.5822C1.59402 15.5533 1.66466 15.5383 1.739 15.5642C1.78686 15.5808 1.898 15.6383 1.898 15.8116C1.898 15.9501 1.83397 16.077 1.72236 16.1595C1.61047 16.2422 1.46595 16.2659 1.32608 16.2223C1.15368 16.1696 1.0334 15.9881 1.0334 15.7807C1.0334 15.6323 1.06518 15.4823 1.12555 15.3466L2.04209 13.2845L2.95853 15.3467ZM2.18567 12.065C2.1311 12.1075 2.08278 12.1582 2.04204 12.2157C2.00131 12.1582 1.95298 12.1075 1.89842 12.065C1.95298 12.0225 2.00131 11.9718 2.04204 11.9144C2.08273 11.9718 2.1311 12.0225 2.18567 12.065ZM2.95853 8.78332L2.042 10.8454L1.12546 8.78332C1.06508 8.64766 1.0333 8.49767 1.0333 8.34931C1.0333 8.14189 1.15363 7.96034 1.32599 7.9077C1.466 7.86434 1.61051 7.88773 1.72226 7.97047C1.83387 8.05292 1.8979 8.17986 1.8979 8.31832C1.8979 8.49171 1.78672 8.54909 1.7389 8.56573C1.66461 8.59188 1.59397 8.5767 1.57128 8.54773C1.55202 8.52326 1.55398 8.45628 1.62308 8.34762C1.66587 8.28064 1.64628 8.19143 1.57916 8.14864C1.51189 8.10612 1.42311 8.12586 1.38017 8.19284C1.1961 8.48131 1.29435 8.66201 1.34511 8.72646C1.44941 8.85818 1.64572 8.90322 1.8334 8.83793C1.85483 8.83052 1.87643 8.82133 1.89786 8.81046V9.17496L1.89757 9.17458C1.89322 9.09888 1.83045 9.03893 1.75376 9.03893C1.67412 9.03893 1.60967 9.10338 1.60967 9.18302C1.60967 9.277 1.67539 9.44003 1.89786 9.49056V9.75943C1.89786 9.83908 1.96231 9.90353 2.04195 9.90353C2.12159 9.90353 2.18604 9.83908 2.18604 9.75943V9.49056C2.40851 9.44003 2.47423 9.277 2.47423 9.18302C2.47423 9.10338 2.40991 9.03414 2.33041 9.03414C2.25077 9.03414 2.1866 9.09382 2.1866 9.17346C2.18656 9.17374 2.18609 9.17402 2.18609 9.17402L2.18599 8.81051C2.20742 8.82138 2.22902 8.83057 2.25045 8.83798C2.43818 8.90327 2.63435 8.85823 2.73874 8.72651C2.78955 8.66206 2.88775 8.48135 2.70368 8.19289C2.66088 8.12562 2.57196 8.10594 2.50469 8.14868C2.43757 8.19148 2.41802 8.28068 2.46077 8.34767C2.52987 8.45632 2.53183 8.52331 2.51257 8.54778C2.48979 8.57674 2.41915 8.59198 2.34495 8.56577C2.29709 8.54918 2.18595 8.49176 2.18595 8.31837C2.18595 8.1799 2.24998 8.05297 2.36159 7.97051C2.47348 7.88778 2.61827 7.86439 2.75786 7.90775C2.93027 7.96039 3.05055 8.14194 3.05055 8.34936C3.05074 8.49767 3.01891 8.64766 2.95853 8.78332ZM2.95853 6.70064C3.01891 6.83629 3.05069 6.98629 3.05069 7.13465C3.05069 7.34207 2.93036 7.52361 2.758 7.57625C2.61813 7.61989 2.47348 7.59622 2.36173 7.51349C2.25012 7.43104 2.18609 7.3041 2.18609 7.16563C2.18609 6.99224 2.29727 6.93487 2.34509 6.91823C2.41924 6.89235 2.48988 6.90726 2.51271 6.93623C2.53197 6.9607 2.53001 7.02768 2.46091 7.13634C2.41812 7.20332 2.43771 7.29252 2.50483 7.33532C2.57252 7.37783 2.6613 7.35838 2.70382 7.29112C2.88789 7.00265 2.78964 6.82195 2.73888 6.75749C2.63444 6.62578 2.43827 6.58073 2.25059 6.64603C2.22917 6.65343 2.20756 6.66262 2.18613 6.6735V6.309C2.18618 6.30909 2.18637 6.30923 2.18637 6.30923C2.19078 6.38508 2.25354 6.44503 2.33023 6.44503C2.40987 6.44503 2.47432 6.38058 2.47432 6.30094C2.47432 6.20695 2.4086 6.04392 2.18613 5.99339V5.72452C2.18613 5.64488 2.12168 5.58043 2.04204 5.58043C1.9624 5.58043 1.89795 5.64488 1.89795 5.72452V5.99339C1.67548 6.04392 1.60976 6.20695 1.60976 6.30094C1.60976 6.38058 1.67408 6.44981 1.75358 6.44981C1.83322 6.44981 1.89739 6.39014 1.89739 6.3105C1.89743 6.31022 1.8979 6.30994 1.89795 6.30966V6.67345C1.87653 6.66257 1.85492 6.65339 1.8335 6.64598C1.64576 6.58068 1.44945 6.62573 1.34521 6.75745C1.29439 6.8219 1.19619 7.0026 1.38027 7.29107C1.42306 7.35805 1.51198 7.37746 1.57925 7.33527C1.64637 7.29247 1.66592 7.20327 1.62317 7.13629C1.55408 7.02763 1.55211 6.96065 1.57137 6.93618C1.59402 6.90721 1.66466 6.89226 1.739 6.91818C1.78686 6.93477 1.898 6.9922 1.898 7.16559C1.898 7.30405 1.83397 7.43099 1.72236 7.51344C1.61047 7.59617 1.46595 7.61985 1.32608 7.57621C1.15368 7.52357 1.0334 7.34202 1.0334 7.1346C1.0334 6.98629 1.06518 6.83624 1.12555 6.70059L2.04209 4.63848L2.95853 6.70064ZM1.89842 3.41895C1.95298 3.37648 2.00131 3.32572 2.04204 3.26829C2.08278 3.32572 2.1311 3.37648 2.18567 3.41895C2.1311 3.46142 2.08278 3.51218 2.04204 3.5696C2.00131 3.51218 1.95293 3.46142 1.89842 3.41895Z" fill="#FFE15A"/>
<path d="M12.6711 13.4164C14.182 13.4164 15.4067 12.1917 15.4067 10.6808C15.4067 9.17002 14.182 7.94525 12.6711 7.94525C11.1603 7.94525 9.93555 9.17002 9.93555 10.6808C9.93555 12.1917 11.1603 13.4164 12.6711 13.4164Z" fill="#FFE15A"/>
<path d="M12.8762 7.19259C12.8762 7.30588 12.7843 7.39776 12.671 7.39776C12.5577 7.39776 12.4658 7.30588 12.4658 7.19259C12.4658 7.07929 12.671 6.57703 12.671 6.57703C12.671 6.57703 12.8762 7.07929 12.8762 7.19259Z" fill="#FFE15A"/>
<path d="M12.4658 14.1687C12.4658 14.0554 12.5577 13.9636 12.671 13.9636C12.7843 13.9636 12.8762 14.0554 12.8762 14.1687C12.8762 14.282 12.671 14.7843 12.671 14.7843C12.671 14.7843 12.4658 14.2821 12.4658 14.1687Z" fill="#FFE15A"/>
<path d="M16.1593 10.8859C16.046 10.8859 15.9541 10.794 15.9541 10.6807C15.9541 10.5674 16.046 10.4755 16.1593 10.4755C16.2726 10.4755 16.7748 10.6807 16.7748 10.6807C16.7748 10.6807 16.2726 10.8859 16.1593 10.8859Z" fill="#FFE15A"/>
<path d="M9.18294 10.4755C9.29624 10.4755 9.38811 10.5674 9.38811 10.6807C9.38811 10.794 9.29624 10.8858 9.18294 10.8858C9.06964 10.8858 8.56738 10.6807 8.56738 10.6807C8.56738 10.6807 9.06964 10.4755 9.18294 10.4755Z" fill="#FFE15A"/>
<path d="M15.2829 8.35933C15.2027 8.43944 15.0728 8.43944 14.9927 8.35933C14.9126 8.27922 14.9126 8.14929 14.9927 8.06918C15.0728 7.98907 15.5731 7.77903 15.5731 7.77903C15.5731 7.77903 15.363 8.27918 15.2829 8.35933Z" fill="#FFE15A"/>
<path d="M10.0597 13.002C10.1398 12.9219 10.2698 12.9219 10.3499 13.002C10.43 13.0821 10.43 13.2121 10.3499 13.2922C10.2698 13.3723 9.76953 13.5823 9.76953 13.5823C9.76953 13.5823 9.97962 13.0821 10.0597 13.002Z" fill="#FFE15A"/>
<path d="M14.9927 13.2922C14.9126 13.2121 14.9126 13.0821 14.9927 13.002C15.0728 12.9219 15.2027 12.9219 15.2829 13.002C15.363 13.0821 15.573 13.5824 15.573 13.5824C15.573 13.5824 15.0728 13.3723 14.9927 13.2922Z" fill="#FFE15A"/>
<path d="M10.3498 8.06914C10.4299 8.14924 10.4299 8.27918 10.3498 8.35929C10.2697 8.4394 10.1398 8.4394 10.0597 8.35929C9.97958 8.27918 9.76953 7.77893 9.76953 7.77893C9.76953 7.77893 10.2697 7.98903 10.3498 8.06914Z" fill="#FFE15A"/>
<path d="M11.5257 7.37962C11.5691 7.48429 11.5194 7.60434 11.4146 7.64769C11.3099 7.69105 11.1899 7.64137 11.1466 7.53665C11.1032 7.43198 11.1006 6.88945 11.1006 6.88945C11.1006 6.88945 11.4823 7.2749 11.5257 7.37962Z" fill="#FFE15A"/>
<path d="M13.8165 13.9817C13.7731 13.8771 13.8228 13.757 13.9275 13.7137C14.0322 13.6703 14.1522 13.72 14.1956 13.8247C14.2389 13.9294 14.2416 14.4719 14.2416 14.4719C14.2416 14.4719 13.8598 14.0864 13.8165 13.9817Z" fill="#FFE15A"/>
<path d="M15.9722 9.53542C15.8676 9.57878 15.7475 9.52909 15.7041 9.42438C15.6608 9.31971 15.7105 9.19966 15.8152 9.1563C15.9199 9.11294 16.4624 9.11032 16.4624 9.11032C16.4624 9.11032 16.0769 9.49206 15.9722 9.53542Z" fill="#FFE15A"/>
<path d="M9.37005 11.8259C9.47472 11.7826 9.59477 11.8323 9.63813 11.937C9.68148 12.0417 9.6318 12.1617 9.52708 12.2051C9.42241 12.2484 8.87988 12.2511 8.87988 12.2511C8.87988 12.2511 9.26538 11.8693 9.37005 11.8259Z" fill="#FFE15A"/>
<path d="M14.1956 7.53665C14.1522 7.64132 14.0322 7.69105 13.9275 7.64769C13.8228 7.60434 13.7731 7.48429 13.8164 7.37962C13.8598 7.27495 14.2416 6.88945 14.2416 6.88945C14.2416 6.88945 14.2389 7.43193 14.1956 7.53665Z" fill="#FFE15A"/>
<path d="M11.1466 13.8247C11.1899 13.7201 11.31 13.6703 11.4146 13.7137C11.5193 13.757 11.5691 13.8771 11.5257 13.9818C11.4823 14.0864 11.1006 14.4719 11.1006 14.4719C11.1006 14.4719 11.1032 13.9294 11.1466 13.8247Z" fill="#FFE15A"/>
<path d="M15.8152 12.2051C15.7105 12.1617 15.6608 12.0417 15.7041 11.937C15.7475 11.8323 15.8675 11.7826 15.9722 11.8259C16.0769 11.8693 16.4624 12.2511 16.4624 12.2511C16.4624 12.2511 15.9199 12.2484 15.8152 12.2051Z" fill="#FFE15A"/>
<path d="M9.52708 9.1563C9.63175 9.19966 9.68148 9.31971 9.63813 9.42438C9.59477 9.52905 9.47472 9.57878 9.37005 9.53542C9.26538 9.49206 8.87988 9.11032 8.87988 9.11032C8.87988 9.11032 9.42236 9.11294 9.52708 9.1563Z" fill="#FFE15A"/>
<path d="M12.1917 7.21958C12.2138 7.33072 12.1416 7.43872 12.0305 7.46084C11.9194 7.48297 11.8114 7.41078 11.7892 7.29964C11.7671 7.1885 11.8704 6.65591 11.8704 6.65591C11.8704 6.65591 12.1696 7.10844 12.1917 7.21958Z" fill="#FFE15A"/>
<path d="M13.1505 14.1417C13.1283 14.0306 13.2005 13.9226 13.3117 13.9005C13.4228 13.8783 13.5308 13.9505 13.5529 14.0617C13.5751 14.1728 13.4718 14.7054 13.4718 14.7054C13.4718 14.7054 13.1726 14.2529 13.1505 14.1417Z" fill="#FFE15A"/>
<path d="M16.132 10.2014C16.0208 10.2235 15.9128 10.1514 15.8907 10.0402C15.8686 9.92908 15.9408 9.82108 16.0519 9.79895C16.163 9.77683 16.6956 9.88009 16.6956 9.88009C16.6956 9.88009 16.2431 10.1793 16.132 10.2014Z" fill="#FFE15A"/>
<path d="M9.21015 11.1599C9.32129 11.1378 9.42929 11.21 9.45141 11.3211C9.47354 11.4322 9.40135 11.5402 9.29021 11.5624C9.17907 11.5845 8.64648 11.4812 8.64648 11.4812C8.64648 11.4812 9.09901 11.182 9.21015 11.1599Z" fill="#FFE15A"/>
<path d="M14.7801 7.89443C14.7171 7.98865 14.5897 8.01401 14.4955 7.95106C14.4013 7.88811 14.3759 7.7607 14.4389 7.66648C14.5018 7.57227 14.9515 7.26866 14.9515 7.26866C14.9515 7.26866 14.843 7.80022 14.7801 7.89443Z" fill="#FFE15A"/>
<path d="M10.563 13.4669C10.6259 13.3727 10.7533 13.3474 10.8475 13.4103C10.9418 13.4733 10.9671 13.6007 10.9042 13.6949C10.8412 13.7891 10.3916 14.0927 10.3916 14.0927C10.3916 14.0927 10.5 13.5612 10.563 13.4669Z" fill="#FFE15A"/>
<path d="M15.4574 12.7891C15.3632 12.7262 15.3379 12.5988 15.4008 12.5046C15.4638 12.4103 15.5912 12.385 15.6854 12.4479C15.7796 12.5109 16.0832 12.9605 16.0832 12.9605C16.0832 12.9605 15.5516 12.8521 15.4574 12.7891Z" fill="#FFE15A"/>
<path d="M9.88554 8.5722C9.97976 8.63515 10.0051 8.76255 9.94217 8.85677C9.87921 8.95099 9.75181 8.97635 9.65759 8.9134C9.56337 8.85044 9.25977 8.40082 9.25977 8.40082C9.25977 8.40082 9.79132 8.50924 9.88554 8.5722Z" fill="#FFE15A"/>
<path d="M10.9042 7.66644C10.9671 7.76066 10.9418 7.88806 10.8475 7.95101C10.7533 8.01397 10.6259 7.98861 10.563 7.89439C10.5 7.80017 10.3916 7.26861 10.3916 7.26861C10.3916 7.26861 10.8412 7.57222 10.9042 7.66644Z" fill="#FFE15A"/>
<path d="M14.4389 13.6949C14.3759 13.6007 14.4013 13.4733 14.4955 13.4103C14.5897 13.3474 14.7171 13.3727 14.7801 13.4669C14.843 13.5612 14.9515 14.0927 14.9515 14.0927C14.9515 14.0927 14.5018 13.7891 14.4389 13.6949Z" fill="#FFE15A"/>
<path d="M15.6854 8.9134C15.5912 8.97635 15.4638 8.95099 15.4008 8.85677C15.3379 8.76255 15.3632 8.63515 15.4574 8.5722C15.5516 8.50924 16.0832 8.40082 16.0832 8.40082C16.0832 8.40082 15.7796 8.85044 15.6854 8.9134Z" fill="#FFE15A"/>
<path d="M9.65759 12.4479C9.75181 12.385 9.87921 12.4103 9.94217 12.5046C10.0051 12.5988 9.97976 12.7262 9.88554 12.7891C9.79132 12.8521 9.25977 12.9605 9.25977 12.9605C9.25977 12.9605 9.56337 12.5109 9.65759 12.4479Z" fill="#FFE15A"/>
<path d="M13.5529 7.29964C13.5308 7.41078 13.4228 7.48297 13.3117 7.46084C13.2005 7.43872 13.1283 7.33072 13.1505 7.21958C13.1726 7.10844 13.4718 6.65591 13.4718 6.65591C13.4718 6.65591 13.5751 7.1885 13.5529 7.29964Z" fill="#FFE15A"/>
<path d="M11.7892 14.0617C11.8114 13.9505 11.9194 13.8783 12.0305 13.9005C12.1416 13.9226 12.2138 14.0306 12.1917 14.1417C12.1696 14.2529 11.8704 14.7054 11.8704 14.7054C11.8704 14.7054 11.7671 14.1728 11.7892 14.0617Z" fill="#FFE15A"/>
<path d="M16.0519 11.5624C15.9408 11.5403 15.8686 11.4323 15.8907 11.3212C15.9128 11.21 16.0208 11.1378 16.132 11.1599C16.2431 11.1821 16.6956 11.4813 16.6956 11.4813C16.6956 11.4813 16.163 11.5845 16.0519 11.5624Z" fill="#FFE15A"/>
<path d="M9.29021 9.79895C9.40135 9.82108 9.47354 9.92908 9.45141 10.0402C9.42929 10.1514 9.32129 10.2235 9.21015 10.2014C9.09901 10.1793 8.64648 9.88009 8.64648 9.88009C8.64648 9.88009 9.17907 9.77683 9.29021 9.79895Z" fill="#FFE15A"/>
<path d="M19.1067 11.4005C19.0266 11.3668 18.9349 11.4054 18.9015 11.485C18.9015 11.4854 18.9015 11.4854 18.9015 11.4854C18.9009 11.4869 18.8979 11.4943 18.8925 11.5068C18.7739 11.7838 18.5286 12.1886 18.2808 12.5695C18.5116 11.8267 18.7225 11.0334 18.7373 10.9776C18.7593 10.8943 18.71 10.8088 18.6268 10.7861C18.5434 10.7637 18.4578 10.8121 18.4345 10.8952C18.3268 11.2809 18.1066 11.7887 17.9035 12.2186C17.9407 11.7393 17.9478 11.2953 17.9482 11.2632C17.9494 11.1783 17.8829 11.1081 17.798 11.1041C17.7182 11.1066 17.6411 11.1648 17.6349 11.2497C17.434 14.013 14.775 15.2491 14.5161 15.3627C14.3807 15.3762 13.7498 15.4473 13.177 15.6462C13.1121 15.6688 13.0569 15.6913 13.0017 15.7137C12.9813 15.7061 12.9593 15.7018 12.9362 15.7031C11.1786 15.8303 9.77714 15.1093 8.76995 13.5646C8.00894 12.3975 7.77026 11.1724 7.76796 11.1601C7.75188 11.075 7.67037 11.0201 7.58473 11.0351C7.49956 11.0513 7.44364 11.1332 7.45971 11.2184C7.46609 11.2522 7.57076 11.7869 7.85923 12.4906C7.47331 11.8815 7.20448 11.1436 7.10979 10.7593C7.10792 10.7516 7.103 10.7458 7.10009 10.7387C7.09569 10.7278 7.09194 10.7169 7.08542 10.7075C7.08078 10.7009 7.07478 10.696 7.06925 10.6902C7.06067 10.6812 7.05242 10.6723 7.04201 10.6656C7.03601 10.6617 7.02926 10.6598 7.0228 10.6567C7.01117 10.6513 6.99987 10.646 6.98698 10.6436C6.97808 10.6418 6.96889 10.643 6.95966 10.6428C6.95028 10.6427 6.94137 10.6403 6.93177 10.642C6.92966 10.6423 6.92806 10.6438 6.92595 10.6442C6.92394 10.6446 6.92197 10.6439 6.91995 10.6444C6.91156 10.6465 6.90514 10.6517 6.89745 10.655C6.88766 10.6592 6.87763 10.6625 6.86905 10.6684C6.86061 10.6742 6.85433 10.6817 6.84725 10.689C6.84027 10.6962 6.83286 10.7026 6.82738 10.7109C6.8218 10.7194 6.81875 10.7289 6.81486 10.7383C6.81106 10.7475 6.8067 10.7561 6.80469 10.7661C6.80263 10.7762 6.80356 10.7867 6.80361 10.7972C6.80361 10.8057 6.80131 10.8138 6.80277 10.8225C6.80338 10.8261 6.80459 10.8299 6.8052 10.8335V10.8341C6.80539 10.8348 6.80563 10.8357 6.80581 10.8363C6.90284 11.4081 7.13417 12.0009 7.34328 12.4529C7.01112 12.076 6.73367 11.6418 6.63528 11.3847C6.63242 11.3772 6.62675 11.372 6.62291 11.3653C6.61705 11.3549 6.61199 11.3443 6.60411 11.3357C6.59858 11.3296 6.59174 11.3256 6.58541 11.3205C6.57589 11.3129 6.5668 11.3051 6.55578 11.2998C6.54871 11.2965 6.54107 11.2954 6.53357 11.2931C6.52199 11.2896 6.51079 11.2857 6.49846 11.285C6.48875 11.2844 6.47919 11.2868 6.46939 11.2881C6.46035 11.2892 6.45139 11.2881 6.44239 11.2909C6.44066 11.2914 6.43949 11.2928 6.4378 11.2934C6.43611 11.2939 6.43443 11.2936 6.43274 11.2942C6.42421 11.2975 6.41816 11.3038 6.41052 11.3083C6.40157 11.3137 6.39205 11.318 6.38446 11.3248C6.37663 11.3318 6.37129 11.3405 6.36515 11.3488C6.35933 11.3567 6.35282 11.3637 6.34855 11.3724C6.34405 11.3816 6.34241 11.3916 6.33979 11.4015C6.33721 11.4111 6.33379 11.4202 6.33313 11.4302C6.33243 11.4404 6.33491 11.4504 6.33627 11.4607C6.33744 11.4696 6.33622 11.4784 6.33899 11.4872C6.50966 12.0379 6.92028 12.693 7.24184 13.1545C6.97386 12.9479 6.77684 12.7246 6.7197 12.6571C6.71356 12.6498 6.70747 12.6424 6.70133 12.635C6.64602 12.5685 6.54828 12.5591 6.4813 12.6133C6.4145 12.6679 6.4041 12.7659 6.458 12.833C6.46091 12.8367 6.47272 12.8514 6.49232 12.8743C6.72763 13.1544 6.98412 13.4158 7.21639 13.6364L6.89862 13.501C6.82616 13.4697 6.74099 13.498 6.70128 13.5669C6.66158 13.6358 6.67953 13.7231 6.7431 13.771C6.77403 13.7939 7.33676 14.2143 7.82398 14.4629C7.77799 14.4656 7.72409 14.4623 7.66371 14.4577C7.59002 14.4506 7.51756 14.5033 7.4996 14.5781C7.48198 14.6532 7.52121 14.7298 7.59246 14.7592C7.60441 14.7641 7.75287 14.8254 7.93629 14.8906C7.89354 14.9081 7.85951 14.9439 7.84544 14.9905C7.8243 15.0601 7.85402 15.1354 7.91716 15.1716C7.93357 15.1811 8.15543 15.3083 8.42978 15.421C8.42242 15.4323 8.41647 15.4446 8.41202 15.4581C8.39055 15.5239 8.41506 15.5963 8.47225 15.6358C8.51987 15.6685 9.58547 16.3917 10.83 16.3917C10.9116 16.3917 10.9942 16.3887 11.0773 16.3819C11.1635 16.3752 11.228 16.2995 11.2211 16.2131C11.2142 16.1267 11.1393 16.0614 11.0521 16.0694C10.2703 16.1331 9.51713 15.8395 9.06915 15.6152C9.12831 15.6008 9.16229 15.5877 9.17073 15.5843C9.23982 15.5561 9.27966 15.4835 9.26616 15.4103C9.25266 15.337 9.18957 15.2834 9.11495 15.2819C8.93307 15.2782 8.68122 15.1896 8.46428 15.0946C8.54627 15.0536 8.59403 15.0144 8.59834 15.011C8.64555 14.9715 8.66547 14.9083 8.64934 14.8489C8.63312 14.7897 8.58377 14.7453 8.52311 14.7355C8.45645 14.7245 8.37344 14.703 8.28639 14.6767C8.37095 14.628 8.40695 14.5743 8.42074 14.5471C8.44248 14.5036 8.44295 14.4527 8.42209 14.4089C8.40109 14.365 8.36111 14.3335 8.31363 14.3234C8.27257 14.3145 8.22616 14.2995 8.17591 14.2799C8.1851 14.2707 8.19353 14.2603 8.20042 14.2483C8.24041 14.1806 8.22386 14.0936 8.1618 14.0448C8.15857 14.0424 8.03679 13.9468 7.85247 13.7877C7.88172 13.777 7.90765 13.7571 7.9263 13.7301C7.96582 13.6731 7.96305 13.5968 7.91969 13.5429C7.91622 13.5386 7.79426 13.3853 7.62621 13.1524C7.68166 13.1955 7.73716 13.2395 7.79252 13.2751C7.81859 13.2916 7.84812 13.2999 7.87741 13.2999C7.91712 13.2999 7.9563 13.2849 7.98649 13.2558C7.99891 13.2438 8.00861 13.2299 8.01625 13.2152C8.11141 13.3169 8.21144 13.4092 8.31649 13.488C8.33022 13.4983 8.34677 13.4981 8.36219 13.5032C8.40667 13.5778 8.45303 13.6526 8.50159 13.7273C9.45427 15.1932 10.7976 15.9783 12.4087 16.0255C12.2604 16.1156 12.0994 16.2087 11.8443 16.3079C11.7887 16.3296 11.7395 16.3514 11.69 16.3732C11.6661 16.3778 11.6437 16.3865 11.625 16.4013C11.18 16.6073 10.9957 16.8109 10.9209 16.9533C10.8463 17.0948 10.9106 17.2401 11.0018 17.3155C11.0301 17.3388 11.0661 17.3507 11.1023 17.3507C11.1271 17.3507 11.1519 17.3452 11.1744 17.3338C11.2299 17.3063 11.267 17.2477 11.2645 17.1861C11.2709 17.1791 11.2982 17.1564 11.3837 17.1537C11.4461 17.1485 11.5772 17.1626 11.7303 17.1748C11.8759 17.1868 12.0505 17.2004 12.2362 17.21C12.1201 17.3454 11.985 17.5024 11.985 17.5024C11.9444 17.5496 11.9355 17.6164 11.9625 17.6724C11.9897 17.7288 12.048 17.7637 12.1093 17.7616C12.2332 17.7573 12.3175 17.7548 12.3728 17.7536C12.4211 17.8167 12.4802 17.8419 12.5184 17.8517C12.6262 17.8792 12.7338 17.8361 12.8148 17.7849C12.8761 17.829 12.9374 17.8477 12.986 17.8547C13.0955 17.8697 13.197 17.8378 13.2703 17.8017C13.3463 17.8507 13.4208 17.8633 13.4775 17.8633C13.4782 17.8633 13.4792 17.8633 13.4801 17.8633C13.6025 17.8627 13.7096 17.8035 13.7854 17.7456C13.8524 17.7855 13.9164 17.7983 13.9659 17.8005C14.0782 17.8045 14.1714 17.7612 14.2333 17.7208C14.4543 17.7652 14.6449 17.661 14.7709 17.5461C14.8283 17.5796 14.883 17.5878 14.9265 17.5857C15.0385 17.5817 15.1239 17.5137 15.1786 17.4527C15.4292 17.483 15.6091 17.4367 15.7131 17.3133C15.7698 17.2461 15.7928 17.1705 15.7991 17.1015C16.4945 17.0976 16.5575 16.7179 16.5626 16.671C16.5672 16.6284 16.5541 16.5859 16.5264 16.5531C16.4989 16.5203 16.4589 16.5 16.4161 16.4976L14.5929 16.3879C14.5166 16.3824 14.4486 16.4336 14.4308 16.5081C14.4305 16.5093 14.3994 16.6251 14.3021 16.7176C14.1713 16.8426 13.9606 16.9086 13.7313 16.9435C13.7322 16.9225 13.7292 16.9011 13.7211 16.8803C13.6899 16.7994 13.5989 16.7602 13.5183 16.7906C13.1419 16.9366 12.5325 16.9183 12.0557 16.8851C12.1289 16.8253 12.2169 16.7661 12.2872 16.7275C12.3467 16.6947 12.3785 16.6276 12.366 16.5608C12.3568 16.5123 12.3218 16.4785 12.2794 16.4568C12.4121 16.3899 12.5207 16.3252 12.6238 16.2623C12.8028 16.1527 12.9719 16.0494 13.2799 15.9424C13.8744 15.7359 14.5622 15.6731 14.5691 15.6725C14.5847 15.6713 14.6001 15.6673 14.6146 15.6615C14.6392 15.6513 16.5796 14.8384 17.4938 12.9628C17.4818 13.0195 17.469 13.0713 17.455 13.1167C17.4311 13.1939 17.4697 13.2763 17.5442 13.3076C17.6018 13.3318 17.6672 13.3192 17.7115 13.2782C17.6537 13.4305 17.6014 13.5503 17.5589 13.6211C17.5154 13.6931 17.5364 13.7865 17.6064 13.8331C17.6228 13.8438 17.6404 13.8512 17.6584 13.8555C17.5877 13.9591 17.5159 14.0571 17.4444 14.1469C17.3968 14.2067 17.3995 14.2918 17.4493 14.3482C17.3265 14.4769 17.2175 14.5829 17.1348 14.6503C17.0807 14.6942 17.0631 14.7674 17.0879 14.8299C17.0081 14.8756 16.9425 14.9077 16.897 14.9215C16.8207 14.9445 16.7738 15.0214 16.7882 15.0999C16.7957 15.1412 16.819 15.1762 16.8512 15.1992C16.7553 15.2249 16.6503 15.2498 16.5363 15.2724C16.4721 15.2853 16.4226 15.3364 16.412 15.4011C16.4016 15.4658 16.4323 15.5301 16.4891 15.5626C16.494 15.5654 16.5477 15.5957 16.6296 15.6306C16.3261 15.7529 15.7842 15.9125 14.895 16.0002C14.8088 16.0087 14.7457 16.0857 14.7543 16.1718C14.7628 16.2579 14.8372 16.3177 14.9259 16.3127C16.614 16.1457 17.1352 15.7232 17.1565 15.7051C17.2052 15.6644 17.2245 15.5978 17.2052 15.5372C17.1923 15.4971 17.1642 15.4646 17.128 15.4459C17.6673 15.2761 17.8988 15.0883 17.9109 15.0782C17.9701 15.0292 17.9849 14.9443 17.946 14.8778C17.9067 14.8113 17.8251 14.7825 17.7538 14.8113C17.7338 14.8189 17.7018 14.8269 17.6613 14.8349C18.0232 14.587 18.4074 14.2919 18.5764 14.1602C18.6062 14.1381 18.6331 14.1169 18.6569 14.097C18.7224 14.0418 18.7316 13.9444 18.6775 13.8779C18.6238 13.8117 18.5259 13.8007 18.4588 13.8537C18.4343 13.8731 18.4088 13.893 18.3825 13.9135C18.3045 13.9714 18.2048 14.037 18.096 14.1044C18.5067 13.6381 18.9203 13.1325 19.0384 12.9872C19.0491 12.974 19.0597 12.9609 19.0704 12.9477C19.1246 12.8803 19.1141 12.7816 19.0466 12.7274C18.9791 12.6722 18.8802 12.6836 18.8262 12.7507L18.8259 12.751L18.8257 12.7513C18.8228 12.7547 18.8095 12.7713 18.7871 12.7988C18.6633 12.9499 18.5331 13.0961 18.4045 13.2327C18.8229 12.4743 19.1398 11.7279 19.1862 11.6173C19.1879 11.6133 19.1895 11.6093 19.1911 11.6053C19.2245 11.5255 19.1867 11.4336 19.1067 11.4005ZM11.7535 16.6889L11.7963 16.6944C11.7438 16.7436 11.701 16.7986 11.667 16.8554C11.5925 16.8494 11.525 16.8442 11.472 16.8418C11.545 16.7942 11.6389 16.7424 11.7535 16.6889Z" fill="#FFE15A"/>
</g>
<defs>
<clipPath id="clip0_72_2405">
<path d="M0 2C0 0.895432 0.895431 0 2 0H21.9998C23.1043 0 23.9998 0.895431 23.9998 2V21.9998C23.9998 23.1043 23.1043 23.9998 21.9998 23.9998H2C0.895432 23.9998 0 23.1043 0 21.9998V2Z" fill="white"/>
</clipPath>
</defs>
</svg>
