<svg width="24" height="24" viewBox="0 0 24 24" fill="none" xmlns="http://www.w3.org/2000/svg">
<g clip-path="url(#clip0_72_2511)">
<path d="M24.0037 0.00012207H0.00390625V5.06023H24.0037V0.00012207Z" fill="#FF4B55"/>
<path d="M24.0037 18.9398H0.00390625V23.9999H24.0037V18.9398Z" fill="#FF4B55"/>
<path d="M24.0017 5.06017H0.00195312V18.9397H24.0017V5.06017Z" fill="#41479B"/>
<path d="M12.002 16.3222C14.3891 16.3222 16.3243 14.3871 16.3243 11.9999C16.3243 9.61281 14.3891 7.67764 12.002 7.67764C9.61485 7.67764 7.67969 9.61281 7.67969 11.9999C7.67969 14.3871 9.61485 16.3222 12.002 16.3222Z" fill="#F5F5F5"/>
</g>
<defs>
<clipPath id="clip0_72_2511">
<path d="M0 2C0 0.895432 0.895431 0 2 0H21.9998C23.1043 0 23.9998 0.895431 23.9998 2V21.9998C23.9998 23.1043 23.1043 23.9998 21.9998 23.9998H2C0.895432 23.9998 0 23.1043 0 21.9998V2Z" fill="white"/>
</clipPath>
</defs>
</svg>
