<svg width="24" height="24" viewBox="0 0 24 24" fill="none" xmlns="http://www.w3.org/2000/svg">
<g clip-path="url(#clip0_72_2545)">
<path d="M24.0007 17.684H0.000976562V23.9998H24.0007V17.684Z" fill="#73AF00"/>
<path d="M24.0007 6.10352e-05H0.000976562V6.31594H24.0007V6.10352e-05Z" fill="#FF4B55"/>
<path d="M24.0007 6.31594H0.000976562V17.6844H24.0007V6.31594Z" fill="#464655"/>
<path d="M15.5832 9.95603L16.5337 11.1995L18.0179 10.7027C18.1009 10.6749 18.1714 10.7687 18.1218 10.8408L17.2329 12.129L18.164 13.387C18.2161 13.4574 18.1487 13.5535 18.0648 13.5285L16.565 13.0812L15.6562 14.3555C15.6054 14.4267 15.4932 14.3923 15.491 14.3048L15.4529 12.7402L13.9602 12.2697C13.8767 12.2434 13.8748 12.126 13.9573 12.0969L15.4336 11.5772L15.4198 10.0121C15.419 9.92467 15.53 9.88652 15.5832 9.95603Z" fill="#F5F5F5"/>
<path d="M13.003 15.0691C11.3093 15.0691 9.93542 13.6952 9.93542 12C9.93542 10.3079 11.3093 8.93093 13.003 8.93093C13.6331 8.93093 14.2142 9.12476 14.6985 9.45274C14.7726 9.50299 14.8573 9.40554 14.7952 9.34094C14.0714 8.58847 13.047 8.12942 11.9113 8.16814C9.96003 8.23475 8.34469 9.79919 8.22 11.7476C8.07718 13.9794 9.84435 15.8341 12.0445 15.8341C13.1283 15.8341 14.1023 15.381 14.798 14.6566C14.8594 14.5926 14.7746 14.4966 14.7011 14.5464C14.2163 14.875 13.6342 15.0691 13.003 15.0691Z" fill="#F5F5F5"/>
</g>
<defs>
<clipPath id="clip0_72_2545">
<path d="M0 2C0 0.895432 0.895431 0 2 0H21.9998C23.1043 0 23.9998 0.895431 23.9998 2V21.9998C23.9998 23.1043 23.1043 23.9998 21.9998 23.9998H2C0.895432 23.9998 0 23.1043 0 21.9998V2Z" fill="white"/>
</clipPath>
</defs>
</svg>
