<svg width="24" height="24" viewBox="0 0 24 24" fill="none" xmlns="http://www.w3.org/2000/svg">
<g clip-path="url(#clip0_72_2552)">
<path d="M24.0007 6.10352e-05H0.000976562V11.9999H24.0007V6.10352e-05Z" fill="#41479B"/>
<path d="M24.0007 11.9999H0.000976562V23.9998H24.0007V11.9999Z" fill="#FF4B55"/>
<path d="M11.5422 7.01483C11.5349 6.99323 11.5184 6.97574 11.4971 6.96716C11.4949 6.96632 11.4508 6.94954 11.3801 6.92962C11.4112 6.88748 11.4332 6.83812 11.4332 6.78187C11.4332 6.73363 11.4161 6.69107 11.3925 6.65259C11.4703 6.60914 11.5251 6.52917 11.5251 6.43401C11.5251 6.35859 11.4905 6.29269 11.438 6.24614C11.5009 6.19992 11.5444 6.12905 11.5444 6.04523C11.5444 5.95177 11.4912 5.8733 11.4158 5.82928C11.4554 5.78447 11.4815 5.72714 11.4815 5.66279C11.4815 5.55071 11.4073 5.45841 11.3062 5.4249C11.3293 5.38669 11.3461 5.34441 11.3461 5.2966C11.3461 5.15888 11.2354 5.04756 11.0984 5.04409C11.1042 5.02299 11.1115 5.00242 11.1115 4.97949C11.1115 4.83957 10.9977 4.72572 10.8576 4.72572C10.834 4.72572 10.8127 4.73312 10.791 4.73922C10.7914 4.73359 10.7943 4.72881 10.7943 4.72309C10.7943 4.58317 10.6805 4.46931 10.5405 4.46931C10.4924 4.46931 10.45 4.48633 10.4116 4.50962C10.382 4.40233 10.2878 4.32166 10.1712 4.32166C10.1013 4.32166 10.0379 4.35011 9.99196 4.396C9.94902 4.31669 9.86788 4.26077 9.77155 4.26077C9.68362 4.26077 9.60979 4.30839 9.56423 4.37645C9.51792 4.32724 9.45328 4.2956 9.38053 4.2956C9.28654 4.2956 9.2077 4.34922 9.16383 4.42525C9.11733 4.37322 9.05161 4.339 8.97647 4.339C8.88356 4.339 8.80571 4.39155 8.76146 4.46617C8.71828 4.43219 8.66625 4.40866 8.60714 4.40866C8.50046 4.40866 8.40985 4.47522 8.37235 4.56864C8.32665 4.52444 8.26496 4.49664 8.19657 4.49664C8.09982 4.49664 8.01831 4.55298 7.97551 4.63286C7.95685 4.62128 7.93773 4.61214 7.91626 4.60567C7.96974 4.52659 8.00101 4.4313 8.00101 4.32888C8.00101 4.13003 7.88251 3.95932 7.71306 3.88057L7.78421 3.73826C7.79523 3.71627 7.79523 3.69021 7.78421 3.66818L7.69858 3.4969C7.70481 3.49118 7.71072 3.48532 7.71639 3.47909L7.88785 3.56473C7.89887 3.57021 7.91078 3.57288 7.92278 3.57288C7.93478 3.57288 7.94673 3.57002 7.9577 3.56454L8.37479 3.356C8.40137 3.34278 8.41805 3.31568 8.41805 3.28615C8.41805 3.25662 8.40137 3.22953 8.37479 3.21631L7.9577 3.00776C7.93571 2.99675 7.90984 2.99675 7.88785 3.00776L7.71658 3.09331C7.71081 3.08703 7.70486 3.08108 7.69858 3.07526L7.78421 2.90398C7.79523 2.882 7.79523 2.85594 7.78421 2.83391L7.57567 2.41682C7.54919 2.36385 7.46223 2.36385 7.43575 2.41682L7.22721 2.83391C7.21619 2.85589 7.21619 2.88195 7.22721 2.90398L7.31284 3.07526C7.30661 3.08098 7.3007 3.08684 7.29503 3.09308L7.12357 3.00744C7.10158 2.99642 7.07571 2.99665 7.05372 3.00762L6.63663 3.21617C6.61005 3.22939 6.59337 3.25648 6.59337 3.28601C6.59337 3.31554 6.61005 3.34264 6.63663 3.35585L7.05372 3.5644C7.06474 3.56988 7.07664 3.57274 7.08864 3.57274C7.10064 3.57274 7.1126 3.56988 7.12357 3.5644L7.29489 3.47876C7.30066 3.48504 7.30661 3.49099 7.31289 3.49681L7.22725 3.66809C7.21624 3.69007 7.21624 3.71613 7.22725 3.73816L7.29841 3.88047C7.12896 3.95922 7.01046 4.12994 7.01046 4.32878C7.01046 4.42909 7.04093 4.52228 7.09239 4.60037C7.06141 4.60628 7.03328 4.61669 7.00741 4.63276C6.96461 4.55294 6.8831 4.49655 6.78635 4.49655C6.71791 4.49655 6.65623 4.52439 6.61057 4.56855C6.57312 4.47508 6.48246 4.40856 6.37578 4.40856C6.31667 4.40856 6.26464 4.43209 6.22146 4.46608C6.17721 4.3915 6.09931 4.33891 6.00645 4.33891C5.93136 4.33891 5.86559 4.37313 5.81909 4.42516C5.77522 4.34913 5.69633 4.2955 5.60239 4.2955C5.52964 4.2955 5.465 4.32714 5.41869 4.37636C5.37313 4.3083 5.2993 4.26067 5.21137 4.26067C5.11504 4.26067 5.0339 4.31664 4.99096 4.39591C4.94502 4.35002 4.8816 4.32156 4.81171 4.32156C4.69514 4.32156 4.60087 4.40223 4.57129 4.50953C4.53295 4.48623 4.49048 4.46922 4.44239 4.46922C4.30247 4.46922 4.18861 4.58308 4.18861 4.723C4.18861 4.72872 4.19152 4.7335 4.19189 4.73912C4.17019 4.73308 4.14891 4.72562 4.12528 4.72562C3.98527 4.72562 3.87141 4.83948 3.87141 4.9794C3.87141 5.00232 3.87877 5.02285 3.88449 5.04399C3.74747 5.04746 3.6368 5.15879 3.6368 5.29651C3.6368 5.34432 3.65363 5.3866 3.67669 5.4248C3.57563 5.45832 3.50138 5.55057 3.50138 5.66269C3.50138 5.72705 3.52744 5.78442 3.56715 5.82919C3.49168 5.87321 3.43848 5.95167 3.43848 6.04514C3.43848 6.12895 3.48202 6.19983 3.54488 6.24604C3.49243 6.29254 3.45784 6.3585 3.45784 6.43392C3.45784 6.52907 3.51268 6.60904 3.5904 6.65249C3.56691 6.69093 3.54976 6.73354 3.54976 6.78177C3.54976 6.84102 3.57333 6.8932 3.60751 6.93641C3.55102 6.95315 3.51634 6.96637 3.51441 6.96707C3.49313 6.9756 3.47663 6.99313 3.46932 7.01474C3.46201 7.03654 3.46463 7.06035 3.47635 7.08013C3.48259 7.0903 4.09739 8.12285 4.30097 9.1405C4.30598 9.16572 4.32426 9.18189 4.34578 9.19211C4.50215 9.40328 5.85687 9.56837 7.50583 9.56837C9.15478 9.56837 10.5095 9.40328 10.6659 9.19211C10.6874 9.18189 10.7057 9.16572 10.7107 9.1405C10.914 8.12365 11.5291 7.0903 11.5353 7.08013C11.5469 7.06044 11.5495 7.03658 11.5422 7.01483Z" fill="#FFE15A"/>
<path d="M11.5422 7.01473C11.5349 6.99312 11.5184 6.97563 11.4971 6.96706C11.4949 6.96621 11.4508 6.94943 11.3801 6.92951C11.4112 6.88737 11.4332 6.83801 11.4332 6.78176C11.4332 6.73353 11.4161 6.69097 11.3925 6.65248C11.4703 6.60903 11.5251 6.52906 11.5251 6.43391C11.5251 6.35848 11.4905 6.29258 11.438 6.24603C11.5009 6.19981 11.5444 6.12894 11.5444 6.04513C11.5444 5.95166 11.4912 5.87319 11.4158 5.82918C11.4554 5.78436 11.4815 5.72704 11.4815 5.66268C11.4815 5.5506 11.4073 5.45831 11.3062 5.42479C11.3293 5.38659 11.3461 5.34431 11.3461 5.29649C11.3461 5.15878 11.2354 5.04745 11.0984 5.04398C11.1042 5.02289 11.1115 5.00231 11.1115 4.97939C11.1115 4.83947 10.9977 4.72561 10.8576 4.72561C10.834 4.72561 10.8127 4.73302 10.791 4.73911C10.7914 4.73348 10.7943 4.7287 10.7943 4.72298C10.7943 4.58306 10.6805 4.46921 10.5405 4.46921C10.4924 4.46921 10.45 4.48622 10.4116 4.50952C10.382 4.40222 10.2878 4.32155 10.1712 4.32155C10.1013 4.32155 10.0379 4.35 9.99196 4.39589C9.94902 4.31658 9.86788 4.26066 9.77155 4.26066C9.68362 4.26066 9.60979 4.30828 9.56423 4.37635C9.51792 4.32713 9.45328 4.29549 9.38053 4.29549C9.28654 4.29549 9.2077 4.34911 9.16383 4.42514C9.11733 4.37311 9.05161 4.33889 8.97647 4.33889C8.88356 4.33889 8.80571 4.39144 8.76146 4.46606C8.71828 4.43208 8.66625 4.40855 8.60714 4.40855C8.50046 4.40855 8.40985 4.47511 8.37235 4.56853C8.32665 4.52433 8.26496 4.49653 8.19657 4.49653C8.09982 4.49653 8.01831 4.55288 7.97551 4.63275C7.95685 4.62117 7.93773 4.61203 7.91626 4.60556C7.96974 4.52649 8.00101 4.43119 8.00101 4.32877C8.00101 4.12993 7.88251 3.95921 7.71306 3.88046L7.78421 3.73815C7.79523 3.71617 7.79523 3.6901 7.78421 3.66807L7.69858 3.49679C7.70481 3.49107 7.71072 3.48522 7.71639 3.47898L7.88785 3.56462C7.89887 3.5701 7.91078 3.57278 7.92278 3.57278C7.93478 3.57278 7.94673 3.56992 7.9577 3.56443L8.37479 3.35589C8.40137 3.34267 8.41805 3.31558 8.41805 3.28604C8.41805 3.25651 8.40137 3.22942 8.37479 3.2162L7.9577 3.00766C7.93571 2.99664 7.90984 2.99664 7.88785 3.00766L7.71658 3.0932C7.71081 3.08692 7.70486 3.08097 7.69858 3.07516L7.78421 2.90388C7.79523 2.88189 7.79523 2.85583 7.78421 2.8338L7.57567 2.41671C7.54919 2.36374 7.46223 2.36374 7.43575 2.41671L7.22721 2.8338C7.21619 2.85578 7.21619 2.88185 7.22721 2.90388L7.31284 3.07516C7.30661 3.08088 7.3007 3.08673 7.29503 3.09297L7.12357 3.00733C7.10158 2.99631 7.07571 2.99655 7.05372 3.00752L6.63663 3.21606C6.61005 3.22928 6.59337 3.25637 6.59337 3.2859C6.59337 3.31544 6.61005 3.34253 6.63663 3.35575L7.05372 3.56429C7.06474 3.56978 7.07664 3.57264 7.08864 3.57264C7.10064 3.57264 7.1126 3.56978 7.12357 3.56429L7.29489 3.47865C7.30066 3.48493 7.30661 3.49089 7.31289 3.4967L7.22725 3.66798C7.21624 3.68996 7.21624 3.71603 7.22725 3.73806L7.29841 3.88037C7.12896 3.95912 7.01046 4.12983 7.01046 4.32868C7.01046 4.42899 7.04093 4.52217 7.09239 4.60027C7.06141 4.60617 7.03328 4.61658 7.00741 4.63266C6.96461 4.55283 6.8831 4.49644 6.78635 4.49644C6.71791 4.49644 6.65623 4.52428 6.61057 4.56844C6.57312 4.47497 6.48246 4.40846 6.37578 4.40846C6.31667 4.40846 6.26464 4.43199 6.22146 4.46597C6.17721 4.39139 6.09931 4.3388 6.00645 4.3388C5.93136 4.3388 5.86559 4.37302 5.81909 4.42505C5.77522 4.34902 5.69633 4.29539 5.60239 4.29539C5.52964 4.29539 5.465 4.32703 5.41869 4.37625C5.37313 4.30819 5.2993 4.26057 5.21137 4.26057C5.11504 4.26057 5.0339 4.31653 4.99096 4.3958C4.94502 4.34991 4.8816 4.32146 4.81171 4.32146C4.69514 4.32146 4.60087 4.40213 4.57129 4.50942C4.53295 4.48613 4.49048 4.46911 4.44239 4.46911C4.30247 4.46911 4.18861 4.58297 4.18861 4.72289C4.18861 4.72861 4.19152 4.73339 4.19189 4.73902C4.17019 4.73297 4.14891 4.72552 4.12528 4.72552C3.98527 4.72552 3.87141 4.83937 3.87141 4.97929C3.87141 5.00222 3.87877 5.02275 3.88449 5.04389C3.74747 5.04736 3.6368 5.15868 3.6368 5.2964C3.6368 5.34421 3.65363 5.38649 3.67669 5.4247C3.57563 5.45821 3.50138 5.55046 3.50138 5.66258C3.50138 5.72694 3.52744 5.78432 3.56715 5.82908C3.49168 5.8731 3.43848 5.95157 3.43848 6.04503C3.43848 6.12885 3.48202 6.19972 3.54488 6.24594C3.49243 6.29244 3.45784 6.35839 3.45784 6.43381C3.45784 6.52897 3.51268 6.60893 3.5904 6.65239C3.56691 6.69082 3.54976 6.73343 3.54976 6.78167C3.54976 6.84092 3.57333 6.89309 3.60751 6.93631C3.55102 6.95304 3.51634 6.96626 3.51441 6.96696C3.49313 6.97549 3.47663 6.99302 3.46932 7.01463C3.46201 7.03643 3.46463 7.06024 3.47635 7.08002C3.48259 7.0902 4.09739 8.12275 4.30097 9.14039C4.30598 9.16561 4.32426 9.18178 4.34578 9.192C4.50215 9.40317 5.85687 9.56827 7.50583 9.56827C9.15478 9.56827 10.5095 9.40317 10.6659 9.192C10.6874 9.18178 10.7057 9.16561 10.7107 9.14039C10.914 8.12354 11.5291 7.0902 11.5353 7.08002C11.5469 7.06034 11.5495 7.03648 11.5422 7.01473ZM9.3314 6.51097V5.28712C9.43064 5.27854 9.52715 5.27582 9.61987 5.27906V6.55048C9.53362 6.50872 9.43612 6.49658 9.3314 6.51097ZM8.43132 4.84401C8.43347 4.84612 8.43652 4.84701 8.43877 4.84903C8.43544 4.84973 8.43216 4.85044 8.42879 4.85119C8.42982 4.84884 8.43033 4.84641 8.43132 4.84401ZM11.1794 6.68436C11.2331 6.68436 11.2767 6.72795 11.2767 6.78171C11.2767 6.83548 11.2331 6.87907 11.1794 6.87907C11.1257 6.87907 11.082 6.83548 11.082 6.78171C11.082 6.72795 11.1257 6.68436 11.1794 6.68436ZM11.2712 6.53122C11.2175 6.53122 11.1739 6.48762 11.1739 6.43386C11.1739 6.38009 11.2175 6.3365 11.2712 6.3365C11.325 6.3365 11.3687 6.38009 11.3687 6.43386C11.3687 6.48762 11.325 6.53122 11.2712 6.53122ZM11.1933 6.04508C11.1933 5.99132 11.237 5.94772 11.2907 5.94772C11.3443 5.94772 11.388 5.99132 11.388 6.04508C11.388 6.09885 11.3443 6.14244 11.2907 6.14244C11.237 6.14244 11.1933 6.09885 11.1933 6.04508ZM8.28521 7.01468C8.19184 6.65956 8.07057 6.12495 8.01943 5.59054C8.07324 5.57174 8.16563 5.54085 8.28521 5.50466V7.01468ZM6.98163 5.59691C6.9266 6.1656 6.79226 6.73526 6.69762 7.08593V5.50452C6.83177 5.54516 6.93236 5.57943 6.98163 5.59691ZM7.60304 4.95431C7.60304 5.00808 7.55936 5.05167 7.50569 5.05167C7.45201 5.05167 7.40833 5.00808 7.40833 4.95431C7.40833 4.90054 7.45201 4.85695 7.50569 4.85695C7.55936 4.85695 7.60304 4.90054 7.60304 4.95431ZM6.5516 4.84448L6.55099 4.84434C6.55099 4.84434 6.55137 4.84415 6.55151 4.84397C6.5516 4.84415 6.55155 4.84434 6.5516 4.84448ZM3.69216 5.94777C3.74583 5.94777 3.78952 5.99136 3.78952 6.04513C3.78952 6.09889 3.74583 6.14249 3.69216 6.14249C3.63849 6.14249 3.5948 6.09889 3.5948 6.04513C3.5948 5.99132 3.63849 5.94777 3.69216 5.94777ZM3.80893 6.43386C3.80893 6.48762 3.76524 6.53122 3.71157 6.53122C3.6578 6.53122 3.61412 6.48762 3.61412 6.43386C3.61412 6.38009 3.6578 6.3365 3.71157 6.3365C3.76524 6.33655 3.80893 6.38009 3.80893 6.43386ZM3.80344 6.68436C3.85711 6.68436 3.9008 6.72795 3.9008 6.78171C3.9008 6.83548 3.85711 6.87907 3.80344 6.87907C3.74977 6.87907 3.70608 6.83548 3.70608 6.78171C3.70608 6.72795 3.74977 6.68436 3.80344 6.68436ZM4.20506 5.36671C4.35811 5.11907 4.65698 4.82395 5.21174 4.82395C5.75342 4.82395 6.51762 4.98942 7.00708 5.11115C7.00732 5.21732 7.00244 5.32607 6.99494 5.43552C6.66096 5.31923 5.33277 4.89417 4.76784 5.28074C4.12856 5.71921 4.33055 6.55554 4.44998 6.9019C4.34831 6.87438 4.24547 6.86187 4.14699 6.8599C3.91608 6.39659 3.93928 5.79683 4.20506 5.36671ZM4.64559 6.97779C4.59061 6.84992 4.239 5.96568 4.76165 5.48756V7.04773C4.72406 7.02077 4.68515 6.99809 4.64559 6.97779ZM4.91807 5.37731C5.00066 5.33451 5.09802 5.30676 5.20654 5.29199V6.68365C5.04965 6.8427 4.9799 7.06146 4.9492 7.22608C4.93926 7.21362 4.92829 7.20359 4.91802 7.19187L4.91807 5.37731ZM5.36296 5.27892C5.45572 5.27568 5.55219 5.2784 5.65142 5.28698V6.50961C5.63436 6.50811 5.6165 6.50375 5.59991 6.50375C5.52303 6.50375 5.45094 6.51983 5.38536 6.55283C5.3773 6.55686 5.37079 6.56229 5.36296 6.56661V5.27892ZM5.80784 5.30371C5.90478 5.3166 6.00148 5.33343 6.09631 5.35242V6.69111C5.99703 6.62267 5.90047 6.57317 5.80784 6.54289V5.30371ZM6.25273 5.38602C6.35524 5.4096 6.45199 5.4344 6.5412 5.45924V7.11448C6.45499 7.0054 6.35562 6.90213 6.25273 6.81237V5.38602ZM7.16271 5.15067C7.28031 5.18118 7.37303 5.20664 7.4275 5.22192V6.54833C7.21553 6.56975 7.05358 6.67798 6.93002 6.81106C7.04018 6.35248 7.15863 5.72676 7.16271 5.15067ZM7.58392 5.22192C7.63694 5.20701 7.7259 5.18259 7.83896 5.15315C7.84332 5.72338 7.95953 6.34161 8.0686 6.79845C7.94659 6.67142 7.7889 6.569 7.58387 6.54833V5.22192H7.58392ZM8.44163 5.45938C8.53083 5.43454 8.62758 5.40974 8.7301 5.38617V6.8247C8.7301 6.82835 8.73169 6.83154 8.73221 6.83506C8.62688 6.93017 8.52718 7.03934 8.44163 7.15249V5.45938ZM8.88652 5.35256C8.98134 5.33357 9.07805 5.31674 9.17498 5.30385V6.5502C9.08222 6.58428 8.98538 6.63828 8.88652 6.70972V5.35256ZM9.77629 5.29209C9.8848 5.30681 9.98221 5.33451 10.0648 5.37731V7.20916C10.0648 7.21324 10.0665 7.2168 10.0671 7.22069C10.0656 7.22262 10.0638 7.22412 10.0622 7.22604C10.0298 7.05223 9.95254 6.81893 9.77629 6.65848V5.29209ZM10.2212 5.48756C10.7811 6.00017 10.3351 6.98327 10.3303 6.99373C10.3297 6.99481 10.3299 6.99593 10.3295 6.99696C10.2923 7.01815 10.2563 7.04285 10.2212 7.07023V5.48756ZM10.2149 5.28079C9.66121 4.90158 8.37122 5.30371 8.00626 5.42915C7.99909 5.3227 7.9944 5.21695 7.99459 5.11364C8.48358 4.99167 9.25439 4.824 9.79968 4.824C10.3544 4.824 10.6533 5.11907 10.8064 5.36676C11.0721 5.79688 11.0953 6.39664 10.8644 6.85995C10.7556 6.86215 10.6415 6.87743 10.5295 6.91146C10.6485 6.57101 10.86 5.72319 10.2149 5.28079ZM11.2276 5.75999C11.1739 5.75999 11.1303 5.7164 11.1303 5.66263C11.1303 5.60887 11.1739 5.56527 11.2276 5.56527C11.2814 5.56527 11.3251 5.60887 11.3251 5.66263C11.3251 5.7164 11.2814 5.75999 11.2276 5.75999ZM11.1896 5.29645C11.1896 5.35021 11.146 5.39399 11.0922 5.39399C11.0385 5.39399 10.9948 5.35021 10.9948 5.29645C10.9948 5.24268 11.0385 5.19909 11.0922 5.19909C11.146 5.19909 11.1896 5.24268 11.1896 5.29645ZM10.955 4.97939C10.955 5.03315 10.9114 5.07675 10.8576 5.07675C10.8039 5.07675 10.7602 5.03315 10.7602 4.97939C10.7602 4.92562 10.8039 4.88203 10.8576 4.88203C10.9114 4.88203 10.955 4.92558 10.955 4.97939ZM10.5405 4.62563C10.5942 4.62563 10.6378 4.66922 10.6378 4.72298C10.6378 4.77675 10.5942 4.82053 10.5405 4.82053C10.4867 4.82053 10.443 4.77675 10.443 4.72298C10.443 4.66917 10.4867 4.62563 10.5405 4.62563ZM10.1712 4.47797C10.2248 4.47797 10.2685 4.52156 10.2685 4.57533C10.2685 4.62909 10.2248 4.67269 10.1712 4.67269C10.1175 4.67269 10.0738 4.62909 10.0738 4.57533C10.0738 4.52156 10.1175 4.47797 10.1712 4.47797ZM9.77151 4.41708C9.82518 4.41708 9.86887 4.46067 9.86887 4.51444C9.86887 4.5682 9.82518 4.61199 9.77151 4.61199C9.71774 4.61199 9.67406 4.5682 9.67406 4.51444C9.67406 4.46067 9.71774 4.41708 9.77151 4.41708ZM9.38048 4.45191C9.43415 4.45191 9.47784 4.4955 9.47784 4.54927C9.47784 4.60303 9.43415 4.64663 9.38048 4.64663C9.32672 4.64663 9.28303 4.60303 9.28303 4.54927C9.28303 4.4955 9.32672 4.45191 9.38048 4.45191ZM8.97642 4.49527C9.03009 4.49527 9.07378 4.53886 9.07378 4.59263C9.07378 4.64639 9.03009 4.69017 8.97642 4.69017C8.92266 4.69017 8.87897 4.64639 8.87897 4.59263C8.87897 4.53886 8.92266 4.49527 8.97642 4.49527ZM8.6071 4.56492C8.66077 4.56492 8.70446 4.60852 8.70446 4.66228C8.70446 4.71605 8.66077 4.75964 8.6071 4.75964C8.55343 4.75964 8.50974 4.71605 8.50974 4.66228C8.50974 4.60852 8.55343 4.56492 8.6071 4.56492ZM8.19652 4.65291C8.2502 4.65291 8.29388 4.6965 8.29388 4.75027C8.29388 4.80403 8.2502 4.84762 8.19652 4.84762C8.14285 4.84762 8.09916 4.80403 8.09916 4.75027C8.09916 4.6965 8.14285 4.65291 8.19652 4.65291ZM7.84459 4.94208C7.79092 4.94208 7.74723 4.89848 7.74723 4.84472C7.74723 4.79095 7.79092 4.74736 7.84459 4.74736C7.89826 4.74736 7.94195 4.79095 7.94195 4.84472C7.94195 4.89848 7.89826 4.94208 7.84459 4.94208ZM7.37538 3.28595C7.37538 3.21405 7.43383 3.15559 7.50573 3.15559C7.57764 3.15559 7.63609 3.21405 7.63609 3.28595C7.63609 3.35786 7.57764 3.41631 7.50573 3.41631C7.43383 3.41631 7.37538 3.35786 7.37538 3.28595ZM7.92282 3.16478L8.16507 3.28595L7.92282 3.40712L7.78712 3.33925C7.7904 3.32195 7.79251 3.30419 7.79251 3.28595C7.79251 3.26767 7.7904 3.24995 7.78712 3.23261L7.92282 3.16478ZM7.38466 2.86886L7.50573 2.62671L7.62681 2.86886L7.55894 3.00456C7.54164 3.00128 7.52397 2.99917 7.50573 2.99917C7.4875 2.99917 7.46983 3.00128 7.45253 3.00456L7.38466 2.86886ZM7.08864 3.40712L6.8464 3.28595L7.08864 3.16478L7.22435 3.23265C7.22106 3.24995 7.21895 3.26772 7.21895 3.28595C7.21895 3.30423 7.22106 3.32195 7.22435 3.33929L7.08864 3.40712ZM7.38466 3.70304L7.45253 3.56734C7.46983 3.57062 7.4875 3.57273 7.50573 3.57273C7.52397 3.57273 7.54164 3.57062 7.55894 3.56734L7.62681 3.70304L7.55894 3.83874C7.54122 3.83682 7.52397 3.83335 7.50573 3.83335C7.4875 3.83335 7.47025 3.83682 7.45253 3.83874L7.38466 3.70304ZM7.50573 3.98982C7.69258 3.98982 7.84464 4.14174 7.84464 4.32872C7.84464 4.5157 7.69262 4.66763 7.50573 4.66763C7.31889 4.66763 7.16683 4.5157 7.16683 4.32872C7.16683 4.14174 7.31884 3.98982 7.50573 3.98982ZM7.13824 4.74741C7.19191 4.74741 7.2356 4.791 7.2356 4.84476C7.2356 4.89853 7.19191 4.94212 7.13824 4.94212C7.08457 4.94212 7.04088 4.89853 7.04088 4.84476C7.04088 4.791 7.08457 4.74741 7.13824 4.74741ZM6.7863 4.65291C6.83997 4.65291 6.88366 4.6965 6.88366 4.75027C6.88366 4.80403 6.83997 4.84762 6.7863 4.84762C6.73263 4.84762 6.68894 4.80403 6.68894 4.75027C6.68894 4.6965 6.73263 4.65291 6.7863 4.65291ZM6.37573 4.56492C6.4294 4.56492 6.47309 4.60852 6.47309 4.66228C6.47309 4.71605 6.4294 4.75964 6.37573 4.75964C6.32206 4.75964 6.27837 4.71605 6.27837 4.66228C6.27837 4.60852 6.32206 4.56492 6.37573 4.56492ZM6.0064 4.49527C6.06017 4.49527 6.10386 4.53886 6.10386 4.59263C6.10386 4.64639 6.06017 4.69017 6.0064 4.69017C5.95273 4.69017 5.90905 4.64639 5.90905 4.59263C5.90905 4.53886 5.95273 4.49527 6.0064 4.49527ZM5.60235 4.45191C5.65611 4.45191 5.6998 4.4955 5.6998 4.54927C5.6998 4.60303 5.65611 4.64663 5.60235 4.64663C5.54867 4.64663 5.50499 4.60303 5.50499 4.54927C5.50499 4.4955 5.54867 4.45191 5.60235 4.45191ZM5.21132 4.41708C5.26508 4.41708 5.30877 4.46067 5.30877 4.51444C5.30877 4.5682 5.26508 4.61199 5.21132 4.61199C5.15765 4.61199 5.11396 4.5682 5.11396 4.51444C5.11396 4.46067 5.15765 4.41708 5.21132 4.41708ZM4.81167 4.47797C4.86534 4.47797 4.90902 4.52156 4.90902 4.57533C4.90902 4.62909 4.86534 4.67269 4.81167 4.67269C4.75799 4.67269 4.71431 4.62909 4.71431 4.57533C4.71431 4.52156 4.75799 4.47797 4.81167 4.47797ZM4.44229 4.62563C4.49606 4.62563 4.53975 4.66922 4.53975 4.72298C4.53975 4.77675 4.49606 4.82053 4.44229 4.82053C4.38862 4.82053 4.34494 4.77675 4.34494 4.72298C4.34498 4.66917 4.38867 4.62563 4.44229 4.62563ZM4.12524 4.88203C4.17891 4.88203 4.22259 4.92562 4.22259 4.97939C4.22259 5.03315 4.17891 5.07675 4.12524 5.07675C4.07147 5.07675 4.02778 5.03315 4.02778 4.97939C4.02778 4.92562 4.07147 4.88203 4.12524 4.88203ZM3.89063 5.19909C3.9443 5.19909 3.98799 5.24268 3.98799 5.29645C3.98799 5.35021 3.9443 5.39399 3.89063 5.39399C3.83686 5.39399 3.79318 5.35021 3.79318 5.29645C3.79318 5.24268 3.83686 5.19909 3.89063 5.19909ZM3.75516 5.56527C3.80883 5.56527 3.85252 5.60887 3.85252 5.66263C3.85252 5.7164 3.80883 5.75999 3.75516 5.75999C3.7014 5.75999 3.65771 5.7164 3.65771 5.66263C3.65771 5.60887 3.7014 5.56527 3.75516 5.56527ZM10.5717 9.04411C10.211 8.86576 8.97698 8.73418 7.50569 8.73418C6.03439 8.73418 4.80037 8.86576 4.43972 9.04411C4.25325 8.18064 3.80724 7.34529 3.6586 7.08274C3.90624 7.00676 4.61526 6.85606 4.93316 7.49191C4.94948 7.5243 4.98599 7.54141 5.02105 7.53307C5.0564 7.52472 5.08134 7.49313 5.08134 7.45689C5.08134 7.45118 5.0856 6.87748 5.45516 6.69256C5.82111 6.5105 6.41318 7.11495 6.60152 7.49191C6.60152 7.49191 6.60171 7.49205 6.60176 7.49215C6.60799 7.50443 6.61821 7.5139 6.63016 7.52154C6.63265 7.52308 6.63494 7.52444 6.63757 7.52571C6.64094 7.52739 6.64362 7.53002 6.64732 7.53119C6.65538 7.53382 6.66349 7.53508 6.67146 7.53508C6.67296 7.53508 6.67409 7.53386 6.67559 7.53377C6.67718 7.53377 6.67835 7.53475 6.67994 7.53471C6.6873 7.53386 6.69269 7.52889 6.6993 7.52618C6.70629 7.52336 6.71337 7.52205 6.71932 7.51736C6.72658 7.51164 6.73043 7.50349 6.7353 7.49552C6.73854 7.49027 6.74398 7.48708 6.74594 7.48094C6.74824 7.47382 6.75794 7.4434 6.77233 7.39605C6.84068 7.19848 7.05724 6.70095 7.50569 6.70095C7.88621 6.70095 8.09982 7.0594 8.1976 7.28876C8.22952 7.39896 8.25198 7.4695 8.25568 7.48099C8.26646 7.51418 8.29712 7.53518 8.33012 7.53518C8.33804 7.53518 8.34619 7.53396 8.35426 7.53128C8.35571 7.53082 8.35665 7.52969 8.35805 7.52913C8.3798 7.52355 8.39949 7.51268 8.40985 7.49196C8.59833 7.1148 9.19087 6.51176 9.55621 6.69261C9.58078 6.70489 9.60346 6.71914 9.62488 6.73461C9.64607 6.75251 9.66042 6.76573 9.6846 6.78518C9.9254 7.02026 9.93004 7.45197 9.93004 7.45694C9.93013 7.49318 9.95507 7.52477 9.99032 7.53311C10.0258 7.54127 10.062 7.52435 10.0782 7.49196C10.3955 6.85756 11.1046 7.00727 11.3527 7.08302C11.204 7.34571 10.7582 8.18083 10.5717 9.04411Z" fill="#464655"/>
<path d="M7.81449 7.32489C7.80437 7.33328 7.79448 7.34205 7.78473 7.35119C7.70889 7.42258 7.58415 7.36647 7.58415 7.26231V7.2483C7.58415 7.20513 7.54914 7.17011 7.50597 7.17011C7.46279 7.17011 7.42778 7.20513 7.42778 7.2483V7.26231C7.42778 7.36647 7.30305 7.42258 7.2272 7.35119C7.2175 7.34205 7.20756 7.33328 7.19744 7.32489C7.16425 7.29761 7.11484 7.30169 7.08738 7.3353C7.05977 7.36848 7.06436 7.4178 7.09764 7.44545C7.3113 7.62245 7.42778 8.04095 7.42778 8.20632V8.29102C7.42778 8.33419 7.46279 8.36921 7.50597 8.36921C7.54914 8.36921 7.58415 8.33419 7.58415 8.29102V8.20632C7.58415 8.04095 7.70064 7.62245 7.91429 7.44545C7.94757 7.41775 7.95216 7.36848 7.92456 7.3353C7.89695 7.30188 7.84768 7.29756 7.81449 7.32489Z" fill="#464655"/>
<path d="M9.58713 7.65339C9.57794 7.65268 9.5688 7.6524 9.55961 7.65268C9.48639 7.65775 9.41482 7.55373 9.45035 7.47306C9.45185 7.46964 9.45335 7.46622 9.45485 7.4628C9.46853 7.43158 9.45808 7.38058 9.43202 7.34744C9.40596 7.31439 9.37221 7.31608 9.35608 7.35278C9.35435 7.35667 9.35266 7.36061 9.35093 7.36455C9.31404 7.44836 9.20772 7.42333 9.19094 7.30009C9.18883 7.2842 9.18668 7.26813 9.18419 7.25214C9.17599 7.20006 9.14599 7.16388 9.11402 7.17836C9.08224 7.19228 9.06082 7.25069 9.06846 7.30361C9.11365 7.65325 9.06185 8.02191 9.00255 8.15598C8.99215 8.17965 8.98174 8.20332 8.97129 8.22699C8.95521 8.26355 8.97574 8.29177 9.01774 8.28868C9.05974 8.28549 9.1054 8.25671 9.11913 8.22554C9.12822 8.20487 9.13732 8.18424 9.14641 8.16357C9.20247 8.03565 9.43769 7.75206 9.6303 7.76678C9.66128 7.76659 9.6745 7.74643 9.66213 7.71615C9.64975 7.68615 9.61708 7.65587 9.58713 7.65339Z" fill="#464655"/>
<path d="M10.7476 7.89672C10.7399 7.89672 10.7323 7.8971 10.7247 7.89803C10.6632 7.9083 10.6111 7.81281 10.6466 7.73214C10.6481 7.72872 10.6496 7.7253 10.6511 7.72188C10.6648 7.69066 10.6598 7.64205 10.6405 7.61191C10.6212 7.58182 10.5928 7.58594 10.5767 7.62264C10.575 7.62654 10.5733 7.63047 10.5716 7.63441C10.5347 7.71827 10.4478 7.70177 10.4428 7.58369C10.4422 7.5685 10.4416 7.55308 10.4407 7.5378C10.4377 7.48797 10.4152 7.45516 10.3875 7.47152C10.36 7.48732 10.3379 7.54544 10.3404 7.59607C10.3526 7.93122 10.2824 8.29183 10.2232 8.42589C10.2128 8.44956 10.2024 8.47323 10.192 8.4969C10.1759 8.53346 10.1909 8.55929 10.2262 8.55324C10.2615 8.5471 10.3017 8.51589 10.3154 8.48471C10.3245 8.46404 10.3336 8.44342 10.3427 8.42275C10.3988 8.29483 10.6157 8.00317 10.7753 8.00341C10.8012 8.00097 10.8136 7.98048 10.8055 7.95208C10.7974 7.92386 10.7723 7.89695 10.7476 7.89672Z" fill="#464655"/>
<path d="M6.00693 8.15608C5.94768 8.02202 5.89584 7.65335 5.94102 7.30371C5.94867 7.25079 5.92724 7.19239 5.89546 7.17846C5.86349 7.16398 5.83345 7.20017 5.82529 7.25224C5.82285 7.26823 5.82065 7.28431 5.81854 7.3002C5.80176 7.42343 5.69545 7.44846 5.65856 7.36465C5.65682 7.36071 5.65509 7.35677 5.6534 7.35288C5.63728 7.31618 5.60353 7.31445 5.57742 7.34754C5.55136 7.38068 5.5409 7.43168 5.55459 7.4629C5.55609 7.46632 5.55759 7.46974 5.55909 7.47316C5.59462 7.55383 5.52304 7.65785 5.44983 7.65279C5.44059 7.65251 5.4315 7.65279 5.42231 7.65349C5.3924 7.65597 5.35973 7.68621 5.34736 7.71635C5.33503 7.74663 5.3482 7.76679 5.37919 7.76697C5.57179 7.75226 5.80696 8.0358 5.86307 8.16377C5.87217 8.18444 5.88126 8.20506 5.89035 8.22573C5.90409 8.25691 5.9497 8.28573 5.99174 8.28887C6.03374 8.29192 6.05427 8.2637 6.0382 8.22719C6.02774 8.20342 6.01734 8.17975 6.00693 8.15608Z" fill="#464655"/>
<path d="M4.78695 8.42589C4.72775 8.29183 4.65762 7.93122 4.66981 7.59607C4.67234 7.54544 4.65017 7.48732 4.62265 7.47152C4.59495 7.45516 4.5725 7.48797 4.5695 7.5378C4.56861 7.55308 4.56795 7.5685 4.56734 7.58369C4.56233 7.70172 4.47551 7.71822 4.43858 7.63441C4.43684 7.63047 4.43511 7.62658 4.43342 7.62264C4.4173 7.58594 4.38898 7.58182 4.36967 7.61191C4.35036 7.64205 4.34534 7.69071 4.35903 7.72188C4.36053 7.7253 4.36203 7.72872 4.36353 7.73214C4.39906 7.81281 4.34694 7.9083 4.28549 7.89803C4.27775 7.8971 4.2702 7.89667 4.26256 7.89672C4.23777 7.89695 4.21274 7.92386 4.20458 7.95208C4.19652 7.98048 4.20899 8.00097 4.23486 8.00341C4.39447 8.00317 4.61136 8.29483 4.66747 8.42275C4.67656 8.44342 4.68565 8.46404 4.69475 8.48471C4.70848 8.51589 4.74865 8.5471 4.78395 8.55324C4.8192 8.55929 4.83429 8.53342 4.81821 8.4969C4.80776 8.47323 4.79736 8.44956 4.78695 8.42589Z" fill="#464655"/>
</g>
<defs>
<clipPath id="clip0_72_2552">
<path d="M0 2C0 0.895432 0.895431 0 2 0H21.9998C23.1043 0 23.9998 0.895431 23.9998 2V21.9998C23.9998 23.1043 23.1043 23.9998 21.9998 23.9998H2C0.895432 23.9998 0 23.1043 0 21.9998V2Z" fill="white"/>
</clipPath>
</defs>
</svg>
