<svg width="24" height="24" viewBox="0 0 24 24" fill="none" xmlns="http://www.w3.org/2000/svg">
<g clip-path="url(#clip0_72_2571)">
<path d="M23.9998 0H0V23.9998H23.9998V0Z" fill="#5AA587"/>
<path d="M13.5098 15.2628C14.2179 15.4321 14.9738 15.4453 15.7296 15.2576C17.0612 14.927 18.1145 14.0588 18.7266 12.9441C17.6641 12.2451 16.3271 11.9705 14.9955 12.3011C14.2796 12.4789 13.6515 12.8197 13.1223 13.2634C13.1272 13.2567 13.1315 13.2501 13.1364 13.2435C15.0973 11.4752 17.2863 12.0462 17.2863 12.0462L17.8042 11.6037C17.8042 11.6037 15.5962 10.8408 13.6184 12.4768C14.8425 10.107 13.5217 8.07402 13.5217 8.07402L13.2171 8.6833C13.2171 8.6833 14.3155 10.6976 13.0304 13.0478C13.0289 13.0495 13.0274 13.0514 13.0259 13.0531C13.3391 12.424 13.5217 11.7189 13.5217 10.968C13.5217 9.59599 12.9329 8.3645 11.9986 7.50178C11.0642 8.3645 10.4754 9.59594 10.4754 10.968C10.4754 11.7189 10.658 12.424 10.9712 13.0531C10.9697 13.0513 10.9682 13.0495 10.9667 13.0478C9.68159 10.6976 10.78 8.6833 10.78 8.6833L10.4754 8.07402C10.4754 8.07402 9.15463 10.1069 10.3787 12.4768C8.40088 10.8408 6.19286 11.6037 6.19286 11.6037L6.71078 12.0462C6.71078 12.0462 8.89982 11.4752 10.8607 13.2435C10.8657 13.2501 10.8699 13.2567 10.8748 13.2634C10.3455 12.8197 9.7175 12.4789 9.00163 12.3011C7.67002 11.9705 6.33297 12.2452 5.27051 12.9441C5.8826 14.0589 6.93591 14.927 8.26753 15.2576C9.02333 15.4453 9.77914 15.4321 10.4873 15.2628C7.84903 16.0005 6.12353 14.4114 6.12353 14.4114L5.4588 14.5602C5.4588 14.5602 8.12517 17.4195 11.9986 14.6147C15.8721 17.4195 18.5385 14.5602 18.5385 14.5602L17.8738 14.4114C17.8736 14.4114 16.1481 16.0005 13.5098 15.2628Z" fill="#F5F5F5"/>
<path d="M8.14941 18.5541C8.42471 18.725 8.71252 18.8773 9.01059 19.011H14.9874C15.2855 18.8773 15.5733 18.7249 15.8486 18.5541H8.14941Z" fill="#F5F5F5"/>
<path d="M9.5459 19.227C10.3128 19.5002 11.1382 19.6501 11.9988 19.6501C12.8595 19.6501 13.6849 19.5002 14.4518 19.227H9.5459Z" fill="#F5F5F5"/>
<path d="M6.52832 17.1874C6.62057 17.2914 6.71493 17.3935 6.8129 17.492H17.1841C17.2821 17.3935 17.3764 17.2914 17.4687 17.1874H6.52832Z" fill="#F5F5F5"/>
<path d="M7.19727 17.8497C7.34989 17.9827 7.50739 18.1102 7.67075 18.2305H16.3272C16.4905 18.1102 16.6481 17.9828 16.8006 17.8497H7.19727Z" fill="#F5F5F5"/>
<path d="M15.0451 16.3753C13.339 16.3753 12.1717 15.235 12.16 15.2234L11.9984 15.0627L11.8373 15.2237C11.8256 15.2353 10.6659 16.3753 8.95246 16.3753H5.90332C6.00743 16.5322 6.11801 16.6842 6.23355 16.8322H8.95246C10.4851 16.8322 11.5979 16.0305 11.9988 15.6925C12.3997 16.0305 13.5124 16.8322 15.0451 16.8322H17.764C17.8796 16.6842 17.9902 16.5322 18.0943 16.3753L15.0451 16.3753Z" fill="#F5F5F5"/>
<path d="M11.9207 4.40727L11.6534 5.20878L10.8084 5.21534C10.7274 5.21595 10.6938 5.31936 10.759 5.3675L11.4387 5.86943L11.1838 6.67502C11.1594 6.75227 11.2473 6.81616 11.3132 6.76905L12.0007 6.27771L12.6881 6.76905C12.754 6.81616 12.842 6.75227 12.8175 6.67502L12.5626 5.86943L13.2423 5.3675C13.3075 5.31936 13.2739 5.21595 13.1929 5.21534L12.3479 5.20878L12.0806 4.40727C12.055 4.3304 11.9463 4.3304 11.9207 4.40727Z" fill="#FFE15A"/>
<path d="M7.92266 6.04788L8.07739 6.60986L7.5958 6.93817C7.54963 6.96967 7.57007 7.04181 7.62594 7.04434L8.20822 7.07082L8.37167 7.63032C8.38733 7.68399 8.46228 7.6868 8.48197 7.63449L8.68709 7.08892L9.26969 7.10635C9.32557 7.10804 9.3514 7.03764 9.30776 7.00276L8.85228 6.63906L9.04891 6.09035C9.06776 6.03771 9.00879 5.9914 8.96215 6.02215L8.4755 6.34296L8.01439 5.98638C7.9701 5.95226 7.9078 5.99402 7.92266 6.04788Z" fill="#FFE15A"/>
<path d="M5.59141 8.87831L6.01286 9.28096L5.76831 9.81008C5.74488 9.8608 5.79949 9.91222 5.8487 9.88569L6.36189 9.60927L6.78952 10.0053C6.83054 10.0433 6.8963 10.0072 6.88627 9.95221L6.78198 9.37874L7.2908 9.0944C7.3396 9.06712 7.32558 8.99344 7.27022 8.98598L6.69259 8.90798L6.57943 8.33621C6.56856 8.28136 6.49417 8.2719 6.46993 8.32229L6.21723 8.84756L5.63847 8.77852C5.58297 8.77186 5.551 8.83969 5.59141 8.87831Z" fill="#FFE15A"/>
<path d="M16.2127 6.04788L16.058 6.60986L16.5396 6.93817C16.5858 6.96967 16.5653 7.04181 16.5094 7.04434L15.9272 7.07082L15.7637 7.63032C15.7481 7.68399 15.6731 7.6868 15.6534 7.63449L15.4483 7.08892L14.8657 7.10635C14.8098 7.10804 14.784 7.03764 14.8277 7.00276L15.2832 6.63906L15.0865 6.09035C15.0677 6.03771 15.1266 5.9914 15.1733 6.02215L15.6599 6.34296L16.121 5.98638C16.1652 5.95226 16.2275 5.99402 16.2127 6.04788Z" fill="#FFE15A"/>
<path d="M18.5437 8.87831L18.1222 9.28096L18.3668 9.81008C18.3902 9.8608 18.3356 9.91222 18.2864 9.88569L17.7732 9.60927L17.3456 10.0053C17.3045 10.0433 17.2388 10.0072 17.2488 9.95221L17.3531 9.37874L16.8443 9.0944C16.7955 9.06712 16.8095 8.99344 16.8649 8.98598L17.4425 8.90798L17.5557 8.33621C17.5665 8.28136 17.6409 8.2719 17.6652 8.32229L17.9179 8.84756L18.4966 8.77852C18.5521 8.77186 18.5841 8.83969 18.5437 8.87831Z" fill="#FFE15A"/>
</g>
<defs>
<clipPath id="clip0_72_2571">
<path d="M0 2C0 0.895432 0.895431 0 2 0H21.9998C23.1043 0 23.9998 0.895431 23.9998 2V21.9998C23.9998 23.1043 23.1043 23.9998 21.9998 23.9998H2C0.895432 23.9998 0 23.1043 0 21.9998V2Z" fill="white"/>
</clipPath>
</defs>
</svg>
