<svg width="24" height="24" viewBox="0 0 24 24" fill="none" xmlns="http://www.w3.org/2000/svg">
<g clip-path="url(#clip0_72_2590)">
<path d="M23.9991 6.10352e-05H15.999V23.9998H23.9991V6.10352e-05Z" fill="#41479B"/>
<path d="M15.9991 6.10352e-05H7.99902V23.9998H15.9991V6.10352e-05Z" fill="#FFE15A"/>
<path d="M7.9991 6.10352e-05H-0.000976562V23.9998H7.9991V6.10352e-05Z" fill="#41479B"/>
<path d="M14.068 10.9655H13.0335V9.931L13.6542 9.10343H13.0335H10.9646H10.3439L10.9646 9.931V10.9655H9.93011L9.10254 10.3448V10.9655V13.0344V13.6551L9.93011 13.0344H10.9646V14.0689L10.3439 14.8965H10.9646H13.0335H13.6542L13.0335 14.0689V13.0344H14.068L14.8956 13.6551V13.0344V10.9655V10.3448L14.068 10.9655Z" fill="#FF4B55"/>
<path d="M14.0676 11.5861H12.4124V9.931H11.5848V11.5861H9.92969V12.4138H11.5848V14.0689H12.4124V12.4138H14.0676V11.5861Z" fill="#F5F5F5"/>
</g>
<defs>
<clipPath id="clip0_72_2590">
<path d="M0 2C0 0.895432 0.895431 0 2 0H21.9998C23.1043 0 23.9998 0.895431 23.9998 2V21.9998C23.9998 23.1043 23.1043 23.9998 21.9998 23.9998H2C0.895432 23.9998 0 23.1043 0 21.9998V2Z" fill="white"/>
</clipPath>
</defs>
</svg>
