<svg width="24" height="24" viewBox="0 0 24 24" fill="none" xmlns="http://www.w3.org/2000/svg">
<g clip-path="url(#clip0_72_2596)">
<path d="M23.9988 6.10352e-05H-0.000976562V1.71431H23.9988V6.10352e-05Z" fill="#FF4B55"/>
<path d="M23.9988 1.71431H-0.000976562V3.42856H23.9988V1.71431Z" fill="#F5F5F5"/>
<path d="M23.9988 3.42846H-0.000976562V5.14271H23.9988V3.42846Z" fill="#FF4B55"/>
<path d="M23.9988 5.14267H-0.000976562V6.85691H23.9988V5.14267Z" fill="#F5F5F5"/>
<path d="M23.9988 6.85734H-0.000976562V8.57159H23.9988V6.85734Z" fill="#FF4B55"/>
<path d="M23.9988 8.57154H-0.000976562V10.2858H23.9988V8.57154Z" fill="#F5F5F5"/>
<path d="M23.9988 10.2857H-0.000976562V12H23.9988V10.2857Z" fill="#FF4B55"/>
<path d="M23.9988 11.9999H-0.000976562V13.7142H23.9988V11.9999Z" fill="#F5F5F5"/>
<path d="M23.9988 15.4285H-0.000976562V12.6315H0.630611L0.630752 13.7142H23.9988V15.4285Z" fill="#FF4B55"/>
<path d="M23.9988 15.4284H-0.000976562V17.1426H23.9988V15.4284Z" fill="#F5F5F5"/>
<path d="M23.9988 17.1425H-0.000976562V18.8568H23.9988V17.1425Z" fill="#FF4B55"/>
<path d="M23.9988 18.8572H-0.000976562V20.5715H23.9988V18.8572Z" fill="#F5F5F5"/>
<path d="M23.9988 20.5714H-0.000976562V22.2857H23.9988V20.5714Z" fill="#FF4B55"/>
<path d="M23.9988 22.2856H-0.000976562V23.9999H23.9988V22.2856Z" fill="#F5F5F5"/>
<path d="M13.7131 6.10352e-05H-0.000976562V13.7141H13.7131V6.10352e-05Z" fill="#41479B"/>
<path d="M2.94304 6.85036C2.94304 4.81216 4.59738 3.1588 6.6337 3.1588C7.14604 3.1588 7.63326 3.2637 8.07692 3.4527C8.13453 3.47722 8.17789 3.39706 8.12614 3.36186C7.39199 2.86208 6.49425 2.58833 5.53131 2.63835C3.41422 2.74841 1.6831 4.45361 1.54622 6.56915C1.38704 9.02988 3.33425 11.0684 5.75598 11.0684C6.63113 11.0684 7.44468 10.7987 8.12028 10.3415C8.17231 10.3063 8.12919 10.2259 8.07135 10.2504C7.62913 10.4379 7.14389 10.542 6.6337 10.542C4.59738 10.542 2.94304 8.88865 2.94304 6.85036Z" fill="#FFE15A"/>
<path d="M11.3796 6.85035L12.9399 6.24661C13.017 6.21675 12.9907 6.10158 12.9082 6.10819L11.2411 6.24169L12.3868 5.01709C12.4433 4.95672 12.3697 4.86442 12.2982 4.90609L10.8503 5.75077L11.3501 4.15282C11.3747 4.07393 11.2684 4.02274 11.2221 4.09127L10.2848 5.47979L10.0444 3.82245C10.0325 3.74056 9.91438 3.74051 9.90238 3.82235L9.74877 4.87103L9.68503 5.31479L9.66051 5.47979L8.72316 4.09244C8.67685 4.02391 8.57049 4.07519 8.59529 4.15413L9.09689 5.75077L7.64908 4.90609C7.57764 4.86442 7.50405 4.95672 7.56053 5.01709L8.7061 6.24174L7.03858 6.10824C6.95608 6.10163 6.92979 6.21684 7.00699 6.24666L8.56866 6.85035L7.00694 7.45419C6.92979 7.48405 6.95604 7.59922 7.03854 7.59261L8.7061 7.45911L7.56044 8.68685C7.504 8.74732 7.57778 8.83948 7.64912 8.79771L9.09684 7.95003L8.59524 9.54667C8.57044 9.62556 8.67685 9.67689 8.72311 9.60836L9.66042 8.22097L9.68493 8.38985L9.74868 8.82973L9.90229 9.88117C9.91424 9.96306 10.0324 9.96296 10.0443 9.88107L10.2847 8.22097L11.2221 9.60953C11.2684 9.67806 11.3747 9.62687 11.35 9.54798L10.8503 7.95003L12.2981 8.79766C12.3694 8.83943 12.4432 8.74727 12.3868 8.68681L11.2411 7.45907L12.9082 7.59257C12.9907 7.59918 13.017 7.484 12.9399 7.45415L11.3796 6.85035Z" fill="#FFE15A"/>
</g>
<defs>
<clipPath id="clip0_72_2596">
<path d="M0 2C0 0.89543 0.89543 0 2 0H21.9998C23.1044 0 23.9998 0.89543 23.9998 2V21.9998C23.9998 23.1044 23.1044 23.9998 21.9998 23.9998H2C0.89543 23.9998 0 23.1044 0 21.9998V2Z" fill="white"/>
</clipPath>
</defs>
</svg>
