<svg width="24" height="24" viewBox="0 0 24 24" fill="none" xmlns="http://www.w3.org/2000/svg">
<g clip-path="url(#clip0_72_2669)">
<path d="M23.9978 6.10352e-05H-0.00195312V23.9998H23.9978V6.10352e-05Z" fill="#41479B"/>
<path d="M23.9949 11.1724H12.8226V0.00012207H11.1674V11.1724H-0.00488281V12.8276H11.1674V23.9999H12.8226V12.8276H23.9949V11.1724Z" fill="#F5F5F5"/>
<path d="M8.07645 7.56023C8.06459 7.48983 8.03787 7.40644 8.00412 7.35277C7.93704 7.26 7.85942 7.19508 7.78423 7.15472C7.19179 6.88252 6.69581 6.93596 6.22247 6.93399C5.75499 6.94604 5.3177 7.02666 4.96267 7.10438C4.86629 7.12378 4.78281 7.13827 4.69351 7.15505C4.73767 7.06378 4.89953 6.94969 5.11749 6.8805C5.64882 6.69901 6.25542 6.62616 6.85157 6.50991C7.00213 6.48043 7.15476 6.44588 7.31104 6.40145C7.39522 6.37262 7.466 6.35012 7.5651 6.30414C7.6287 6.26818 7.69124 6.2229 7.74481 6.17462C7.80181 6.12334 7.7975 6.109 7.8268 6.0744C7.96212 5.81669 7.83401 5.63327 7.72658 5.53746C7.62303 5.45247 7.5358 5.41924 7.45278 5.38511C7.29163 5.32858 7.14233 5.29315 6.99824 5.2631C6.7206 5.20755 6.44761 5.1529 6.18047 5.09946C6.05353 5.07007 5.93077 5.03744 5.82305 4.99788C5.72789 4.97252 5.59355 4.87859 5.61347 4.90413C5.3679 4.8829 5.94975 4.60906 6.36937 4.45606C6.48089 4.40684 6.59175 4.35715 6.70532 4.28703C6.81674 4.21339 6.93159 4.15086 7.05538 3.94466C7.07971 3.90191 7.07863 3.89146 7.09143 3.86342L7.10558 3.82785C7.13633 3.71821 7.11937 3.74779 7.12654 3.70021C7.14102 3.58518 7.09588 3.46227 7.02444 3.3598C6.87862 3.20221 6.73363 3.15707 6.62587 3.12693C6.18037 3.02137 5.85985 3.05025 5.58136 3.05132C5.05328 3.07612 4.75145 3.09032 4.75145 3.09032L4.73106 3.09126C4.73045 3.09131 4.72984 3.09131 4.72928 3.09135C4.56048 3.10124 4.43172 3.24604 4.44156 3.41479C4.4425 3.43129 4.45024 3.44507 4.45366 3.46073C4.2145 3.52658 3.83604 3.59404 3.4617 3.50577C3.4047 3.4926 3.35206 3.52691 3.33889 3.58152C3.32572 3.63655 3.36003 3.69154 3.41464 3.70433C3.56173 3.73902 3.70765 3.75257 3.84682 3.75257C4.14236 3.75257 4.39483 3.69243 4.56723 3.6396C4.62283 3.68085 4.69042 3.70686 4.765 3.70255C4.765 3.70255 5.06996 3.68469 5.60372 3.65347C5.85361 3.64447 6.18942 3.6313 6.4665 3.69636C6.48942 3.69997 6.50175 3.7071 6.51689 3.71352C6.51909 3.68896 6.47212 3.75819 6.39895 3.79377C6.32784 3.83966 6.23531 3.88363 6.13903 3.92731C5.9422 4.01652 5.71688 4.0932 5.46718 4.22755C5.34662 4.2987 5.19751 4.37098 5.07371 4.58243C5.01587 4.6804 4.98836 4.83879 5.01878 4.95045L5.02778 4.99596L5.03293 5.01851L5.03565 5.02966C5.01648 4.98991 5.06481 5.09688 5.06101 5.08723L5.08599 5.12885C5.10817 5.16054 5.10474 5.17366 5.15795 5.22897C5.20065 5.27524 5.24888 5.31944 5.29862 5.35811C5.34221 5.38811 5.37474 5.40227 5.41398 5.42449C5.49127 5.47005 5.56144 5.49114 5.63471 5.51988C5.77908 5.57069 5.91966 5.60528 6.06005 5.63627C6.33103 5.68727 6.60792 5.73939 6.88949 5.79236C7.00762 5.81519 7.1181 5.84397 7.22019 5.87542C7.08937 5.92262 6.90627 5.97011 6.74835 6.00058C6.17391 6.12184 5.56472 6.19515 4.94518 6.4127C4.79008 6.47171 4.63126 6.54226 4.4755 6.66151C4.32878 6.77265 4.17471 6.99432 4.19439 7.23778C4.1418 7.24509 4.08147 7.25588 4.03291 7.26127C3.50735 7.33083 3.28648 7.2383 3.30068 7.23558C3.23206 7.19508 3.14361 7.21777 3.10311 7.28639C3.06256 7.35497 3.0853 7.44347 3.15387 7.48397C3.15387 7.48397 3.24397 7.54519 3.40479 7.58039C3.56482 7.61662 3.78996 7.63317 4.06413 7.61161C4.13964 7.6064 4.2281 7.59515 4.31116 7.58634C4.36858 7.66912 4.43542 7.76048 4.49777 7.80468C4.64251 7.92613 4.79589 8.00381 4.9487 8.07187C5.56383 8.30976 6.17864 8.35977 6.77807 8.33619C7.07901 8.31355 7.37521 8.27849 7.67933 8.14279C7.82112 8.07665 8.01575 7.97249 8.07584 7.67118C8.0757 7.63289 8.08231 7.61531 8.07645 7.56023ZM7.634 7.65515C7.62617 7.61062 7.60166 7.71164 7.48677 7.73948C7.2891 7.82634 7.01929 7.86609 6.75407 7.88006C6.21923 7.89763 5.63518 7.8352 5.13437 7.63209C5.05562 7.59572 4.99145 7.54992 4.9239 7.50614C4.96103 7.50047 4.99323 7.49653 5.03129 7.49053C5.40348 7.43128 5.79132 7.36139 6.23691 7.35408C6.66126 7.3463 7.20163 7.3522 7.56045 7.53065C7.60217 7.55306 7.62036 7.5765 7.63414 7.59061C7.63414 7.59061 7.62224 7.57636 7.6355 7.56722C7.64141 7.57626 7.63405 7.62712 7.634 7.65515Z" fill="#F5F5F5"/>
<path d="M20.9045 7.56023C20.8926 7.48983 20.8659 7.40644 20.8322 7.35277C20.7651 7.26 20.6875 7.19508 20.6123 7.15472C20.0198 6.88252 19.5238 6.93596 19.0505 6.93399C18.583 6.94604 18.1457 7.02666 17.7907 7.10438C17.6943 7.12378 17.6108 7.13827 17.5215 7.15505C17.5657 7.06378 17.7276 6.94969 17.9455 6.8805C18.4768 6.69901 19.0835 6.62616 19.6796 6.50991C19.8302 6.48043 19.9828 6.44588 20.1391 6.40145C20.2233 6.37262 20.294 6.35012 20.3931 6.30414C20.4567 6.26818 20.5193 6.2229 20.5728 6.17462C20.6298 6.12334 20.6255 6.109 20.6548 6.0744C20.7902 5.81669 20.662 5.63327 20.5546 5.53746C20.4511 5.45247 20.3638 5.41924 20.2808 5.38511C20.1197 5.32858 19.9704 5.29315 19.8263 5.2631C19.5486 5.20755 19.2756 5.1529 19.0085 5.09946C18.8816 5.07007 18.7588 5.03744 18.6511 4.99788C18.5559 4.97252 18.4216 4.87859 18.4416 4.90413C18.196 4.8829 18.7778 4.60906 19.1975 4.45606C19.309 4.40684 19.4198 4.35715 19.5334 4.28703C19.6448 4.21339 19.7597 4.15086 19.8835 3.94466C19.9078 3.90191 19.9067 3.89146 19.9195 3.86342L19.9337 3.82785C19.9644 3.71821 19.9474 3.74779 19.9546 3.70021C19.9691 3.58518 19.924 3.46227 19.8525 3.3598C19.7067 3.20221 19.5617 3.15707 19.4539 3.12693C19.0085 3.02137 18.6879 3.05025 18.4094 3.05132C17.8814 3.07612 17.5796 3.09032 17.5796 3.09032L17.5592 3.09126C17.5586 3.09131 17.558 3.09131 17.5574 3.09135C17.3886 3.10124 17.2598 3.24604 17.2697 3.41479C17.2706 3.43129 17.2784 3.44507 17.2818 3.46073C17.0426 3.52658 16.6642 3.59404 16.2898 3.50577C16.2328 3.4926 16.1802 3.52691 16.167 3.58152C16.1538 3.63655 16.1882 3.69154 16.2428 3.70433C16.3899 3.73902 16.5358 3.75257 16.6749 3.75257C16.9705 3.75257 17.223 3.69243 17.3954 3.6396C17.451 3.68085 17.5185 3.70686 17.5931 3.70255C17.5931 3.70255 17.8981 3.68469 18.4318 3.65347C18.6817 3.64447 19.0175 3.6313 19.2946 3.69636C19.3175 3.69997 19.3299 3.7071 19.345 3.71352C19.3472 3.68896 19.3002 3.75819 19.2271 3.79377C19.156 3.83966 19.0634 3.88363 18.9672 3.92731C18.7703 4.01652 18.545 4.0932 18.2953 4.22755C18.1747 4.2987 18.0256 4.37098 17.9018 4.58243C17.844 4.6804 17.8165 4.83879 17.8469 4.95045L17.8559 4.99596L17.8611 5.01851L17.8638 5.02966C17.8446 4.98991 17.8929 5.09688 17.8891 5.08723L17.9141 5.12885C17.9363 5.16054 17.9329 5.17366 17.9861 5.22897C18.0288 5.27524 18.077 5.31944 18.1267 5.35811C18.1703 5.38811 18.2029 5.40227 18.2421 5.42449C18.3194 5.47005 18.3896 5.49114 18.4628 5.51988C18.6072 5.57069 18.7478 5.60528 18.8882 5.63627C19.1592 5.68727 19.436 5.73939 19.7176 5.79236C19.8357 5.81519 19.9462 5.84397 20.0483 5.87542C19.9175 5.92262 19.7344 5.97011 19.5765 6.00058C19.002 6.12184 18.3928 6.19515 17.7733 6.4127C17.6182 6.47171 17.4594 6.54226 17.3036 6.66151C17.1569 6.77265 17.0028 6.99432 17.0225 7.23778C16.9699 7.24509 16.9096 7.25588 16.861 7.26127C16.3355 7.33083 16.1146 7.2383 16.1288 7.23558C16.0602 7.19508 15.9717 7.21777 15.9312 7.28639C15.8907 7.35497 15.9134 7.44347 15.982 7.48397C15.982 7.48397 16.0721 7.54519 16.2329 7.58039C16.3929 7.61662 16.6181 7.63317 16.8923 7.61161C16.9678 7.6064 17.0562 7.59515 17.1393 7.58634C17.1967 7.66912 17.2635 7.76048 17.3259 7.80468C17.4706 7.92613 17.624 8.00381 17.7768 8.07187C18.392 8.30976 19.0068 8.35977 19.6062 8.33619C19.9071 8.31355 20.2033 8.27849 20.5075 8.14279C20.6492 8.07665 20.8439 7.97249 20.904 7.67118C20.9037 7.63289 20.9103 7.61531 20.9045 7.56023ZM20.462 7.65515C20.4542 7.61062 20.4297 7.71164 20.3148 7.73948C20.1171 7.82634 19.8473 7.86609 19.5821 7.88006C19.0473 7.89763 18.4632 7.8352 17.9624 7.63209C17.8837 7.59572 17.8195 7.54992 17.7519 7.50614C17.7891 7.50047 17.8213 7.49653 17.8593 7.49053C18.2315 7.43128 18.6193 7.36139 19.0649 7.35408C19.4893 7.3463 20.0297 7.3522 20.3885 7.53065C20.4302 7.55306 20.4484 7.5765 20.4622 7.59061C20.4622 7.59061 20.4503 7.57636 20.4635 7.56722C20.4695 7.57626 20.4621 7.62712 20.462 7.65515Z" fill="#F5F5F5"/>
<path d="M8.07645 20.1718C8.06459 20.1014 8.03787 20.018 8.00412 19.9643C7.93704 19.8716 7.85942 19.8066 7.78423 19.7663C7.19179 19.4941 6.69581 19.5475 6.22247 19.5455C5.75499 19.5576 5.3177 19.6382 4.96267 19.7159C4.86629 19.7353 4.78281 19.7498 4.69351 19.7666C4.73767 19.6753 4.89953 19.5612 5.11749 19.4921C5.64882 19.3106 6.25542 19.2377 6.85157 19.1215C7.00213 19.092 7.15476 19.0574 7.31104 19.013C7.39522 18.9842 7.466 18.9617 7.5651 18.9157C7.6287 18.8797 7.69124 18.8345 7.74481 18.7862C7.80181 18.7349 7.7975 18.7206 7.8268 18.686C7.96212 18.4283 7.83401 18.2448 7.72658 18.149C7.62303 18.064 7.5358 18.0308 7.45278 17.9967C7.29163 17.9401 7.14233 17.9047 6.99824 17.8747C6.7206 17.8191 6.44761 17.7644 6.18047 17.711C6.05353 17.6816 5.93077 17.649 5.82305 17.6094C5.72789 17.5841 5.59355 17.4901 5.61347 17.5157C5.3679 17.4945 5.94975 17.2206 6.36937 17.0676C6.48089 17.0184 6.59175 16.9687 6.70532 16.8986C6.81674 16.8249 6.93159 16.7624 7.05538 16.5562C7.07971 16.5135 7.07863 16.503 7.09143 16.475L7.10558 16.4394C7.13633 16.3298 7.11937 16.3593 7.12654 16.3118C7.14102 16.1967 7.09588 16.0738 7.02444 15.9714C6.87862 15.8138 6.73363 15.7686 6.62587 15.7385C6.18037 15.6329 5.85985 15.6618 5.58136 15.6629C5.05328 15.6877 4.75145 15.7019 4.75145 15.7019L4.73106 15.7028C4.73045 15.7029 4.72984 15.7029 4.72928 15.7029C4.56048 15.7128 4.43172 15.8576 4.44156 16.0263C4.4425 16.0428 4.45024 16.0566 4.45366 16.0723C4.2145 16.1381 3.83604 16.2056 3.4617 16.1173C3.4047 16.1042 3.35206 16.1385 3.33889 16.1931C3.32572 16.2481 3.36003 16.3031 3.41464 16.3159C3.56173 16.3506 3.70765 16.3641 3.84682 16.3641C4.14236 16.3641 4.39483 16.304 4.56723 16.2512C4.62283 16.2924 4.69042 16.3184 4.765 16.3141C4.765 16.3141 5.06996 16.2962 5.60372 16.265C5.85361 16.256 6.18942 16.2429 6.4665 16.3079C6.48942 16.3115 6.50175 16.3187 6.51689 16.3251C6.51909 16.3005 6.47212 16.3697 6.39895 16.4053C6.32784 16.4512 6.23531 16.4952 6.13903 16.5389C5.9422 16.6281 5.71688 16.7048 5.46718 16.8391C5.34662 16.9103 5.19751 16.9825 5.07371 17.194C5.01587 17.292 4.98836 17.4503 5.01878 17.562L5.02778 17.6075L5.03293 17.6301L5.03565 17.6412C5.01648 17.6015 5.06481 17.7084 5.06101 17.6988L5.08599 17.7404C5.10817 17.7721 5.10474 17.7852 5.15795 17.8405C5.20065 17.8868 5.24888 17.931 5.29862 17.9697C5.34221 17.9997 5.37474 18.0138 5.41398 18.036C5.49127 18.0816 5.56144 18.1027 5.63471 18.1314C5.77908 18.1822 5.91966 18.2168 6.06005 18.2478C6.33103 18.2988 6.60792 18.3509 6.88949 18.4039C7.00762 18.4267 7.1181 18.4555 7.22019 18.487C7.08937 18.5342 6.90627 18.5817 6.74835 18.6121C6.17391 18.7334 5.56472 18.8067 4.94518 19.0242C4.79008 19.0833 4.63126 19.1538 4.4755 19.2731C4.32878 19.3842 4.17471 19.6059 4.19439 19.8493C4.1418 19.8566 4.08147 19.8674 4.03291 19.8728C3.50735 19.9424 3.28648 19.8499 3.30068 19.8471C3.23206 19.8066 3.14361 19.8293 3.10311 19.8979C3.06256 19.9665 3.0853 20.055 3.15387 20.0955C3.15387 20.0955 3.24397 20.1567 3.40479 20.1919C3.56482 20.2282 3.78996 20.2447 4.06413 20.2232C4.13964 20.218 4.2281 20.2067 4.31116 20.1979C4.36858 20.2807 4.43542 20.372 4.49777 20.4162C4.64251 20.5377 4.79589 20.6154 4.9487 20.6834C5.56383 20.9213 6.17864 20.9713 6.77807 20.9477C7.07901 20.9251 7.37521 20.89 7.67933 20.7543C7.82112 20.6882 8.01575 20.584 8.07584 20.2827C8.0757 20.2445 8.08231 20.2269 8.07645 20.1718ZM7.634 20.2668C7.62617 20.2222 7.60166 20.3232 7.48677 20.3511C7.2891 20.4379 7.01929 20.4777 6.75407 20.4917C6.21923 20.5092 5.63518 20.4468 5.13437 20.2437C5.05562 20.2073 4.99145 20.1615 4.9239 20.1177C4.96103 20.1121 4.99323 20.1081 5.03129 20.1021C5.40348 20.0429 5.79132 19.973 6.23691 19.9657C6.66126 19.9579 7.20163 19.9638 7.56045 20.1423C7.60217 20.1647 7.62036 20.1881 7.63414 20.2022C7.63414 20.2022 7.62224 20.188 7.6355 20.1788C7.64141 20.1879 7.63405 20.2387 7.634 20.2668Z" fill="#F5F5F5"/>
<path d="M20.9045 20.1718C20.8926 20.1014 20.8659 20.018 20.8322 19.9643C20.7651 19.8716 20.6875 19.8066 20.6123 19.7663C20.0198 19.4941 19.5238 19.5475 19.0505 19.5455C18.583 19.5576 18.1457 19.6382 17.7907 19.7159C17.6943 19.7353 17.6108 19.7498 17.5215 19.7666C17.5657 19.6753 17.7276 19.5612 17.9455 19.4921C18.4768 19.3106 19.0835 19.2377 19.6796 19.1215C19.8302 19.092 19.9828 19.0574 20.1391 19.013C20.2233 18.9842 20.294 18.9617 20.3931 18.9157C20.4567 18.8797 20.5193 18.8345 20.5728 18.7862C20.6298 18.7349 20.6255 18.7206 20.6548 18.686C20.7902 18.4283 20.662 18.2448 20.5546 18.149C20.4511 18.064 20.3638 18.0308 20.2808 17.9967C20.1197 17.9401 19.9704 17.9047 19.8263 17.8747C19.5486 17.8191 19.2756 17.7644 19.0085 17.711C18.8816 17.6816 18.7588 17.649 18.6511 17.6094C18.5559 17.5841 18.4216 17.4901 18.4416 17.5157C18.196 17.4945 18.7778 17.2206 19.1975 17.0676C19.309 17.0184 19.4198 16.9687 19.5334 16.8986C19.6448 16.8249 19.7597 16.7624 19.8835 16.5562C19.9078 16.5135 19.9067 16.503 19.9195 16.475L19.9337 16.4394C19.9644 16.3298 19.9474 16.3593 19.9546 16.3118C19.9691 16.1967 19.924 16.0738 19.8525 15.9714C19.7067 15.8138 19.5617 15.7686 19.4539 15.7385C19.0085 15.6329 18.6879 15.6618 18.4094 15.6629C17.8814 15.6877 17.5796 15.7019 17.5796 15.7019L17.5592 15.7028C17.5586 15.7029 17.558 15.7029 17.5574 15.7029C17.3886 15.7128 17.2598 15.8576 17.2697 16.0263C17.2706 16.0428 17.2784 16.0566 17.2818 16.0723C17.0426 16.1381 16.6642 16.2056 16.2898 16.1173C16.2328 16.1042 16.1802 16.1385 16.167 16.1931C16.1538 16.2481 16.1882 16.3031 16.2428 16.3159C16.3899 16.3506 16.5358 16.3641 16.6749 16.3641C16.9705 16.3641 17.223 16.304 17.3954 16.2512C17.451 16.2924 17.5185 16.3184 17.5931 16.3141C17.5931 16.3141 17.8981 16.2962 18.4318 16.265C18.6817 16.256 19.0175 16.2429 19.2946 16.3079C19.3175 16.3115 19.3299 16.3187 19.345 16.3251C19.3472 16.3005 19.3002 16.3697 19.2271 16.4053C19.156 16.4512 19.0634 16.4952 18.9672 16.5389C18.7703 16.6281 18.545 16.7048 18.2953 16.8391C18.1747 16.9103 18.0256 16.9825 17.9018 17.194C17.844 17.292 17.8165 17.4503 17.8469 17.562L17.8559 17.6075L17.8611 17.6301L17.8638 17.6412C17.8446 17.6015 17.8929 17.7084 17.8891 17.6988L17.9141 17.7404C17.9363 17.7721 17.9329 17.7852 17.9861 17.8405C18.0288 17.8868 18.077 17.931 18.1267 17.9697C18.1703 17.9997 18.2029 18.0138 18.2421 18.036C18.3194 18.0816 18.3896 18.1027 18.4628 18.1314C18.6072 18.1822 18.7478 18.2168 18.8882 18.2478C19.1592 18.2988 19.436 18.3509 19.7176 18.4039C19.8357 18.4267 19.9462 18.4555 20.0483 18.487C19.9175 18.5342 19.7344 18.5817 19.5765 18.6121C19.002 18.7334 18.3928 18.8067 17.7733 19.0242C17.6182 19.0833 17.4594 19.1538 17.3036 19.2731C17.1569 19.3842 17.0028 19.6059 17.0225 19.8493C16.9699 19.8566 16.9096 19.8674 16.861 19.8728C16.3355 19.9424 16.1146 19.8499 16.1288 19.8471C16.0602 19.8066 15.9717 19.8293 15.9312 19.8979C15.8907 19.9665 15.9134 20.055 15.982 20.0955C15.982 20.0955 16.0721 20.1567 16.2329 20.1919C16.3929 20.2282 16.6181 20.2447 16.8923 20.2232C16.9678 20.218 17.0562 20.2067 17.1393 20.1979C17.1967 20.2807 17.2635 20.372 17.3259 20.4162C17.4706 20.5377 17.624 20.6154 17.7768 20.6834C18.392 20.9213 19.0068 20.9713 19.6062 20.9477C19.9071 20.9251 20.2033 20.89 20.5075 20.7543C20.6492 20.6882 20.8439 20.584 20.904 20.2827C20.9037 20.2445 20.9103 20.2269 20.9045 20.1718ZM20.462 20.2668C20.4542 20.2222 20.4297 20.3232 20.3148 20.3511C20.1171 20.4379 19.8473 20.4777 19.5821 20.4917C19.0473 20.5092 18.4632 20.4468 17.9624 20.2437C17.8837 20.2073 17.8195 20.1615 17.7519 20.1177C17.7891 20.1121 17.8213 20.1081 17.8593 20.1021C18.2315 20.0429 18.6193 19.973 19.0649 19.9657C19.4893 19.9579 20.0297 19.9638 20.3885 20.1423C20.4302 20.1647 20.4484 20.1881 20.4622 20.2022C20.4622 20.2022 20.4503 20.188 20.4635 20.1788C20.4695 20.1879 20.4621 20.2387 20.462 20.2668Z" fill="#F5F5F5"/>
</g>
<defs>
<clipPath id="clip0_72_2669">
<path d="M0 2C0 0.895432 0.895431 0 2 0H21.9998C23.1043 0 23.9998 0.895431 23.9998 2V21.9998C23.9998 23.1043 23.1043 23.9998 21.9998 23.9998H2C0.895432 23.9998 0 23.1043 0 21.9998V2Z" fill="white"/>
</clipPath>
</defs>
</svg>
