<svg width="24" height="24" viewBox="0 0 24 24" fill="none" xmlns="http://www.w3.org/2000/svg">
<g clip-path="url(#clip0_72_2774)">
<path d="M7.99617 6.10352e-05H-0.00390625V23.9998H7.99617V6.10352e-05Z" fill="#73AF00"/>
<path d="M15.9971 6.10352e-05H7.99707V23.9998H15.9971V6.10352e-05Z" fill="#F5F5F5"/>
<path d="M23.9962 6.10352e-05H15.9961V23.9998H23.9962V6.10352e-05Z" fill="#FF4B55"/>
<path d="M12.7098 12.3701L11.9961 12.7269V13.0838H12.3529L12.7098 12.3701Z" fill="#FFD250"/>
<path d="M11.9997 13.976C11.9011 13.976 11.8213 13.8962 11.8213 13.7976V13.0839C11.8213 12.9852 11.9011 12.9055 11.9997 12.9055C12.0983 12.9055 12.1781 12.9852 12.1781 13.0839V13.7976C12.1781 13.8962 12.0983 13.976 11.9997 13.976Z" fill="#00C3A0"/>
<path d="M11.9997 13.2623C11.299 13.2623 10.6222 12.9918 10.0941 12.5008C10.0219 12.4338 10.0177 12.3208 10.0848 12.2487C10.1524 12.1767 10.2651 12.1729 10.337 12.2395C10.7989 12.669 11.3894 12.9054 11.9997 12.9054C12.6101 12.9054 13.2006 12.669 13.6625 12.2395C13.7345 12.1727 13.8472 12.1764 13.9147 12.2487C13.9817 12.3208 13.9776 12.4338 13.9054 12.5008C13.3773 12.9918 12.7005 13.2623 11.9997 13.2623Z" fill="#00C3A0"/>
<path d="M11.9962 13.9759C11.5388 13.9759 11.0957 13.8423 10.7148 13.5893L10.9124 13.292C11.5564 13.72 12.436 13.72 13.08 13.292L13.2776 13.5893C12.8967 13.8423 12.4536 13.9759 11.9962 13.9759Z" fill="#00AADC"/>
<path d="M11.7138 11.5672L11.3198 12.1768L11.2529 12.3775L12.2789 12.1396L11.7138 11.5672Z" fill="#732D37"/>
<path d="M10.9048 12.5736C10.4331 12.5736 9.86703 12.1767 9.7168 11.2922L10.0688 11.2327C10.1935 11.9681 10.646 12.2173 10.9177 12.2166C11.001 12.2144 11.0879 12.1856 11.0947 12.1267C11.1027 12.0563 11.1047 12.0396 10.9181 11.9765C10.8167 11.9422 10.7016 11.9033 10.621 11.811C10.2946 11.4383 10.7365 11.0438 10.9487 10.8542C10.9862 10.8208 11.0017 10.7924 10.9977 10.7816C10.986 10.7511 10.916 10.7049 10.8371 10.7049C10.6104 10.7049 10.4384 10.5768 10.3884 10.3709C10.3364 10.1576 10.4345 9.93283 10.6213 9.83631L10.7851 10.1534C10.7414 10.1761 10.7239 10.2406 10.7351 10.2865C10.7395 10.305 10.7501 10.348 10.8371 10.348C11.0555 10.348 11.2634 10.477 11.331 10.6544C11.3599 10.73 11.4035 10.9265 11.1864 11.1204C10.952 11.3297 10.8118 11.4872 10.8895 11.5759C10.9071 11.5959 10.9826 11.6216 11.0324 11.6383C11.193 11.6927 11.492 11.7937 11.4491 12.1675C11.4223 12.4025 11.2125 12.5656 10.9275 12.5733C10.9199 12.5734 10.9122 12.5736 10.9048 12.5736Z" fill="#AAD264"/>
<path d="M12.3529 10.5859C12.3529 10.5859 12.7098 9.87217 11.9961 9.51536C11.9961 9.51536 14.494 9.15851 14.1372 12.3701L14.137 12.37C13.9028 12.1826 13.5551 11.8402 13.4309 11.5673L12.3529 10.9427V10.5859Z" fill="#874150"/>
<path d="M11.9961 11.2995L13.7803 12.3701C13.7803 12.3701 13.7803 12.3701 13.0667 12.7269L11.9961 11.6564V11.2995Z" fill="#732D37"/>
<path d="M11.2822 10.229C11.4793 10.229 11.6391 10.3888 11.6391 10.5859L11.6387 10.5863C11.4258 10.7991 11.3731 11.1243 11.5077 11.3936L11.5883 11.5549C11.6219 11.6221 11.6662 11.6835 11.7193 11.7367L12.7096 12.727V12.2338C12.7096 11.6194 12.5665 11.0135 12.2918 10.464C12.1105 10.1013 11.7398 9.87221 11.3343 9.87221H11.2822V10.229Z" fill="#783C46"/>
<path d="M11.2826 9.87217L10.9258 10.229V10.5859C10.9258 10.5859 11.3503 10.3706 11.4933 10.3021C11.5933 10.2542 11.5751 10.1409 11.5178 10.0863C11.4731 10.0438 11.2826 9.87217 11.2826 9.87217Z" fill="#FFD250"/>
<path d="M11.996 14.6896C10.3235 14.6896 8.96289 13.3289 8.96289 11.6564H9.31975C9.31975 13.1322 10.5203 14.3327 11.9961 14.3327C13.4719 14.3327 14.6724 13.1322 14.6724 11.6564H15.0293C15.0292 13.3289 13.6686 14.6896 11.996 14.6896Z" fill="#AAD264"/>
<path d="M9.34181 12.9574C9.47557 12.9574 9.58401 12.8489 9.58401 12.7152C9.58401 12.5814 9.47557 12.473 9.34181 12.473C9.20805 12.473 9.09961 12.5814 9.09961 12.7152C9.09961 12.8489 9.20805 12.9574 9.34181 12.9574Z" fill="#FFE15A"/>
<path d="M9.87697 13.8123C10.0107 13.8123 10.1192 13.7039 10.1192 13.5701C10.1192 13.4364 10.0107 13.3279 9.87697 13.3279C9.7432 13.3279 9.63477 13.4364 9.63477 13.5701C9.63477 13.7039 9.7432 13.8123 9.87697 13.8123Z" fill="#FFE15A"/>
<path d="M10.7471 14.4592C10.8808 14.4592 10.9893 14.3508 10.9893 14.217C10.9893 14.0833 10.8808 13.9748 10.7471 13.9748C10.6133 13.9748 10.5049 14.0833 10.5049 14.217C10.5049 14.3508 10.6133 14.4592 10.7471 14.4592Z" fill="#FFE15A"/>
<path d="M14.6817 12.9574C14.8154 12.9574 14.9239 12.8489 14.9239 12.7152C14.9239 12.5814 14.8154 12.473 14.6817 12.473C14.5479 12.473 14.4395 12.5814 14.4395 12.7152C14.4395 12.8489 14.5479 12.9574 14.6817 12.9574Z" fill="#FFE15A"/>
<path d="M14.1465 13.8123C14.2803 13.8123 14.3887 13.7039 14.3887 13.5701C14.3887 13.4364 14.2803 13.3279 14.1465 13.3279C14.0127 13.3279 13.9043 13.4364 13.9043 13.5701C13.9043 13.7039 14.0127 13.8123 14.1465 13.8123Z" fill="#FFE15A"/>
<path d="M13.2764 14.4592C13.4101 14.4592 13.5186 14.3508 13.5186 14.217C13.5186 14.0833 13.4101 13.9748 13.2764 13.9748C13.1426 13.9748 13.0342 14.0833 13.0342 14.217C13.0342 14.3508 13.1426 14.4592 13.2764 14.4592Z" fill="#FFE15A"/>
<path d="M12.1746 14.1543H11.8178C11.6207 14.1543 11.4609 13.9945 11.4609 13.7974C11.4609 13.6004 11.6207 13.4406 11.8178 13.4406H12.1746C12.3717 13.4406 12.5315 13.6003 12.5315 13.7974C12.5315 13.9945 12.3718 14.1543 12.1746 14.1543Z" fill="#FFB478"/>
<path d="M13.4309 11.5672C13.5499 11.9166 13.8026 12.2363 14.137 12.3699L14.1372 12.3701C14.494 9.15851 11.9961 9.51531 11.9961 9.51531C13.7803 9.51531 13.4309 11.5672 13.4309 11.5672Z" fill="#9B4B5A"/>
</g>
<defs>
<clipPath id="clip0_72_2774">
<path d="M0 2C0 0.895432 0.895431 0 2 0H21.9998C23.1043 0 23.9998 0.895431 23.9998 2V21.9998C23.9998 23.1043 23.1043 23.9998 21.9998 23.9998H2C0.895432 23.9998 0 23.1043 0 21.9998V2Z" fill="white"/>
</clipPath>
</defs>
</svg>
