<svg width="24" height="24" viewBox="0 0 24 24" fill="none" xmlns="http://www.w3.org/2000/svg">
<g clip-path="url(#clip0_72_2799)">
<path d="M23.9959 6.10352e-05H-0.00390625V23.9998H23.9959V6.10352e-05Z" fill="#82AFFF"/>
<path d="M11.9411 6.40173L11.6223 7.35759L10.6148 7.36542C10.5595 7.36585 10.5366 7.43634 10.5811 7.46916L11.3916 8.0677L11.0877 9.02839C11.071 9.08108 11.131 9.12462 11.1759 9.09252L11.9957 8.50658L12.8154 9.09252C12.8604 9.12462 12.9203 9.08108 12.9037 9.02839L12.5998 8.0677L13.4103 7.46916C13.4547 7.43634 13.4318 7.36585 13.3766 7.36542L12.369 7.35759L12.0502 6.40173C12.0328 6.34932 11.9586 6.34932 11.9411 6.40173Z" fill="#F5F5F5"/>
<path d="M11.9411 14.9358L11.6223 15.8917L10.6148 15.8995C10.5595 15.9 10.5366 15.9705 10.5811 16.0033L11.3916 16.6018L11.0877 17.5625C11.071 17.6152 11.131 17.6587 11.1759 17.6266L11.9957 17.0407L12.8154 17.6266C12.8604 17.6587 12.9203 17.6152 12.9037 17.5625L12.5998 16.6018L13.4103 16.0033C13.4547 15.9705 13.4318 15.9 13.3766 15.8995L12.369 15.8917L12.0502 14.9358C12.0328 14.8834 11.9586 14.8834 11.9411 14.9358Z" fill="#F5F5F5"/>
<path d="M17.5943 11.9454L16.6385 11.6266L16.6306 10.6191C16.6302 10.5639 16.5597 10.5409 16.5269 10.5854L15.9284 11.3959L14.9677 11.092C14.915 11.0754 14.8714 11.1353 14.9035 11.1803L15.4895 12L14.9035 12.8197C14.8714 12.8647 14.915 12.9246 14.9677 12.908L15.9284 12.6041L16.5269 13.4146C16.5597 13.4591 16.6302 13.4361 16.6306 13.3809L16.6385 12.3734L17.5943 12.0546C17.6467 12.0371 17.6467 11.9629 17.5943 11.9454Z" fill="#F5F5F5"/>
<path d="M6.3977 11.9454L7.35357 11.6266L7.3614 10.6191C7.36182 10.5639 7.43232 10.5409 7.46513 10.5854L8.06367 11.3959L9.02436 11.092C9.07705 11.0754 9.1206 11.1353 9.08849 11.1803L8.50256 12L9.08849 12.8197C9.1206 12.8647 9.07705 12.9246 9.02436 12.908L8.06367 12.6041L7.46513 13.4146C7.43232 13.4591 7.36182 13.4361 7.3614 13.3809L7.35357 12.3734L6.3977 12.0546C6.3453 12.0371 6.3453 11.9629 6.3977 11.9454Z" fill="#F5F5F5"/>
</g>
<defs>
<clipPath id="clip0_72_2799">
<path d="M0 2C0 0.895432 0.895431 0 2 0H21.9998C23.1043 0 23.9998 0.895431 23.9998 2V21.9998C23.9998 23.1043 23.1043 23.9998 21.9998 23.9998H2C0.895432 23.9998 0 23.1043 0 21.9998V2Z" fill="white"/>
</clipPath>
</defs>
</svg>
