<svg width="24" height="24" viewBox="0 0 24 24" fill="none" xmlns="http://www.w3.org/2000/svg">
<g clip-path="url(#clip0_72_2859)">
<path d="M24.003 6.10352e-05H16.0029V23.9998H24.003V6.10352e-05Z" fill="#FF4B55"/>
<path d="M16.004 6.10352e-05H8.00391V23.9998H16.004V6.10352e-05Z" fill="#41479B"/>
<path d="M8.00301 6.10352e-05H0.00292969V23.9998H8.00301V6.10352e-05Z" fill="#FF4B55"/>
<path d="M4.02203 14.3619C3.39667 14.3619 2.86071 13.9852 2.62451 13.447C2.62437 13.4552 2.62207 13.4628 2.62207 13.4711C2.62207 14.2442 3.24883 14.871 4.02198 14.871C4.79513 14.871 5.42189 14.2442 5.42189 13.4711C5.42189 13.4629 5.41959 13.4553 5.41945 13.4471C5.18334 13.9852 4.64733 14.3619 4.02203 14.3619Z" fill="#F9CF02"/>
<path d="M4.02104 14.1074C4.58333 14.1074 5.03916 13.6516 5.03916 13.0893C5.03916 12.527 4.58333 12.0712 4.02104 12.0712C3.45876 12.0712 3.00293 12.527 3.00293 13.0893C3.00293 13.6516 3.45876 14.1074 4.02104 14.1074Z" fill="#F9CF02"/>
<path d="M3.38574 11.1803C3.38574 11.5317 3.67065 11.8166 4.02206 11.8166C4.37348 11.8166 4.65839 11.5317 4.65839 11.1803C4.65839 10.9257 4.49929 10.8939 4.49929 10.7985C4.49929 10.703 4.59473 10.5758 4.40386 10.4167C4.49929 10.5758 4.3402 10.6076 4.3402 10.7666C4.3402 10.9257 4.40386 10.9257 4.40386 11.053C4.40386 11.1233 4.34686 11.1803 4.27659 11.1803C4.20633 11.1803 4.14933 11.1233 4.14933 11.053C4.14933 10.9257 4.27659 10.7985 4.27659 10.6076C4.27659 10.4166 4.24477 10.353 4.14933 10.1939C4.05389 10.0348 3.8948 9.90758 4.02206 9.78031C3.83114 9.84397 3.92663 10.0985 3.92663 10.2575C3.92663 10.4166 3.79936 10.5121 3.79936 10.703C3.79936 10.8939 3.8948 10.9257 3.8948 11.053C3.8948 11.1232 3.8378 11.1802 3.76754 11.1802C3.69727 11.1802 3.64027 11.1232 3.64027 11.053C3.64027 10.9257 3.70393 10.9257 3.70393 10.7666C3.70393 10.6075 3.54483 10.5757 3.64027 10.4166C3.44935 10.5757 3.54483 10.703 3.54483 10.7984C3.54483 10.894 3.38574 10.9257 3.38574 11.1803Z" fill="#F9CF02"/>
<path d="M1.22168 15.2306V21.1292C1.22168 21.1872 1.26874 21.2343 1.32677 21.2343H2.38928C2.44731 21.2343 2.49437 21.1872 2.49437 21.1292V15.2306C2.49437 15.1726 2.44731 15.1255 2.38928 15.1255H1.32673C1.26869 15.1255 1.22168 15.1726 1.22168 15.2306Z" fill="#F9CF02"/>
<path d="M5.54883 15.2306V21.1292C5.54883 21.1872 5.59589 21.2343 5.65392 21.2343H6.71643C6.77446 21.2343 6.82152 21.1872 6.82152 21.1292V15.2306C6.82152 15.1726 6.77446 15.1255 6.71643 15.1255H5.65392C5.59589 15.1255 5.54883 15.1726 5.54883 15.2306Z" fill="#F9CF02"/>
<path d="M2.74902 16.2487V16.5476C2.74902 16.6057 2.79609 16.6527 2.85412 16.6527H5.18927C5.2473 16.6527 5.29436 16.6057 5.29436 16.5476V16.2487C5.29436 16.1907 5.2473 16.1436 5.18927 16.1436H2.85407C2.79604 16.1436 2.74902 16.1907 2.74902 16.2487Z" fill="#F9CF02"/>
<path d="M2.74902 19.8121V20.111C2.74902 20.1691 2.79609 20.2161 2.85412 20.2161H5.18927C5.2473 20.2161 5.29436 20.1691 5.29436 20.111V19.8121C5.29436 19.7541 5.2473 19.707 5.18927 19.707H2.85407C2.79604 19.7071 2.74902 19.7541 2.74902 19.8121Z" fill="#F9CF02"/>
<path d="M2.93836 15.1255H5.10434C5.15763 15.1255 5.17704 15.1957 5.13138 15.2231L4.10244 15.8404C4.05252 15.8704 3.99017 15.8704 3.94025 15.8404L2.91131 15.2231C2.86565 15.1957 2.88511 15.1255 2.93836 15.1255Z" fill="#F9CF02"/>
<path d="M2.93836 20.4707H5.10434C5.15763 20.4707 5.17704 20.5408 5.13138 20.5683L4.10244 21.1856C4.05252 21.2155 3.99017 21.2155 3.94025 21.1856L2.91131 20.5683C2.86565 20.5408 2.88511 20.4707 2.93836 20.4707Z" fill="#F9CF02"/>
<path d="M4.14615 16.9172C4.10603 16.9133 4.06717 16.905 4.02606 16.905C3.32617 16.905 2.75684 17.4744 2.75684 18.1742C2.75684 18.5896 2.95976 18.9553 3.26978 19.1859C3.30546 19.2125 3.35261 19.1741 3.33527 19.1331C3.29805 19.0451 3.27719 18.9486 3.27719 18.8469C3.27719 18.4333 3.61441 18.0968 4.0284 18.0981C4.24604 18.0988 4.45468 17.9913 4.55101 17.7961C4.75027 17.3925 4.50708 16.9912 4.14615 16.9172ZM4.02606 17.7554C3.88586 17.7554 3.77219 17.6418 3.77219 17.5015C3.77219 17.3613 3.88586 17.2477 4.02606 17.2477C4.16626 17.2477 4.27988 17.3613 4.27988 17.5015C4.27988 17.6418 4.16621 17.7554 4.02606 17.7554Z" fill="#F9CF02"/>
<path d="M4.78248 17.1625C4.74681 17.136 4.69965 17.1743 4.71699 17.2153C4.75421 17.3034 4.77507 17.3999 4.77507 17.5015C4.77507 17.9152 4.43781 18.2517 4.02381 18.2504C3.80617 18.2497 3.59749 18.3572 3.50121 18.5524C3.30204 18.9561 3.54518 19.3573 3.90611 19.4314C3.94624 19.4352 3.98509 19.4435 4.0262 19.4435C4.72604 19.4435 5.29543 18.8741 5.29543 18.1742C5.29547 17.7588 5.09251 17.3933 4.78248 17.1625ZM4.02625 19.1008C3.88605 19.1008 3.77238 18.9872 3.77238 18.8469C3.77238 18.7067 3.88605 18.5931 4.02625 18.5931C4.16645 18.5931 4.28008 18.7067 4.28008 18.8469C4.28008 18.9871 4.16641 19.1008 4.02625 19.1008Z" fill="#F9CF02"/>
</g>
<defs>
<clipPath id="clip0_72_2859">
<path d="M0 2C0 0.895432 0.895431 0 2 0H21.9998C23.1043 0 23.9998 0.895431 23.9998 2V21.9998C23.9998 23.1043 23.1043 23.9998 21.9998 23.9998H2C0.895432 23.9998 0 23.1043 0 21.9998V2Z" fill="white"/>
</clipPath>
</defs>
</svg>
