<svg width="24" height="24" viewBox="0 0 24 24" fill="none" xmlns="http://www.w3.org/2000/svg">
<g clip-path="url(#clip0_72_2875)">
<path d="M22.5496 1.26319H1.45605V22.7369H22.5496V1.26319Z" fill="#C8414B"/>
<path d="M24.0027 6.10352e-05H0.00292969V23.9998H24.0027V6.10352e-05ZM22.5027 22.7367H1.45604V1.26319H22.5027V22.7367Z" fill="#E6B432"/>
<path d="M17.1847 16.9224C17.7156 16.9224 18.1459 16.4921 18.1459 15.9613C18.1459 15.4305 17.7156 15.0002 17.1847 15.0002C16.6539 15.0002 16.2236 15.4305 16.2236 15.9613C16.2236 16.4921 16.6539 16.9224 17.1847 16.9224Z" fill="#41479B"/>
<path d="M18.8712 10.4433C18.1639 11.038 17.6882 11.063 17.6882 11.063C18.9464 10.5497 18.8149 9.57328 18.8149 9.57328C18.2202 10.3557 17.6131 10.5748 17.6131 10.5748C18.8775 9.71728 18.6772 8.56552 18.6772 8.56552C18.2641 9.47939 17.7414 9.8362 17.7414 9.8362C18.793 8.43723 18.2766 7.53588 18.2766 7.53588C17.8635 8.83158 17.516 9.20714 17.516 9.20714C18.3235 7.04763 17.6319 6.42481 17.6319 6.42481C17.6319 7.5828 17.2 8.24631 17.2 8.24631C17.6507 6.71899 16.9433 5.84267 16.9433 5.84267C16.9433 5.84267 16.9367 7.0878 16.6969 7.74006C16.6393 7.65269 16.6053 7.66417 16.6053 7.66417C16.4834 8.46399 16.0536 9.027 15.868 9.23892C15.8268 9.03956 15.7028 8.97853 15.7028 8.97853C15.7028 8.97853 15.6805 9.17424 15.5049 9.4628C15.3899 9.65184 14.8464 10.0928 14.7588 10.4809C14.6885 10.792 14.9966 11.0505 15.0968 11.1131C15.1969 11.1756 15.3034 11.2883 15.2595 11.4699C15.2157 11.6514 14.8903 11.6326 14.6587 11.6263C14.4271 11.6201 14.3958 12.0019 14.1392 11.9894L14.0957 12.2741L13.9952 12.2961C13.9952 12.2961 12.9436 14.3916 12.8541 15.1047L12.0798 15.2068L11.3055 15.1047C11.216 14.3916 10.1644 12.2961 10.1644 12.2961L10.064 12.2741L10.0205 11.9894C9.76384 12.0019 9.73253 11.6201 9.50097 11.6263C9.26936 11.6326 8.94386 11.6514 8.90008 11.4699C8.85625 11.2883 8.96266 11.1757 9.06283 11.1131C9.163 11.0504 9.47111 10.792 9.40084 10.4809C9.31323 10.0928 8.76977 9.65184 8.65474 9.4628C8.47915 9.17424 8.45679 8.97853 8.45679 8.97853C8.45679 8.97853 8.33285 9.03956 8.29165 9.23892C8.10607 9.027 7.67623 8.46395 7.55431 7.66417C7.55431 7.66417 7.52033 7.65269 7.46277 7.74006C7.22296 7.0878 7.2163 5.84267 7.2163 5.84267C7.2163 5.84267 6.50896 6.71899 6.95966 8.24631C6.95966 8.24631 6.52776 7.5828 6.52776 6.42481C6.52776 6.42481 5.83608 7.04763 6.64359 9.20714C6.64359 9.20714 6.2962 8.83158 5.88305 7.53588C5.88305 7.53588 5.36663 8.43723 6.41821 9.8362C6.41821 9.8362 5.89556 9.47939 5.48246 8.56552C5.48246 8.56552 5.28216 9.71723 6.54656 10.5748C6.54656 10.5748 5.93939 10.3557 5.34474 9.57328C5.34474 9.57328 5.2133 10.5498 6.47142 11.063C6.47142 11.063 5.99569 11.038 5.2884 10.4433C5.2884 10.4433 5.16324 11.3071 6.80319 11.7515C6.80319 11.7515 6.13345 11.739 5.45115 11.2821C5.45115 11.2821 5.43235 12.1334 6.83446 12.3024C6.83446 12.3024 6.37125 12.3712 5.85174 12.1834C5.85174 12.1834 5.87053 12.872 7.0911 12.9596C7.0911 12.9596 6.60913 12.9971 6.29615 12.922C6.29615 12.922 6.32746 13.6294 7.29139 13.5104C7.29139 13.5104 6.9659 13.6168 6.85949 13.6481C6.85949 13.6481 6.87829 14.2256 7.8829 14.019C7.8829 14.019 7.7045 14.1301 7.46038 14.1676C7.46038 14.1676 7.66695 14.6496 8.50573 14.4368L8.3336 14.6246C8.3336 14.6246 8.98145 15.0001 9.47907 14.4837L9.30067 14.8029C9.30067 14.8029 9.7232 14.9625 9.98607 14.5494C9.98607 14.5494 9.91407 15.1691 9.03775 15.2818C9.03775 15.2818 9.06906 15.4132 9.10661 15.4633C9.10661 15.4633 9.05027 15.5697 8.54327 15.6574C8.54327 15.6574 8.64968 15.8201 8.76232 15.8702C8.76232 15.8702 8.54327 16.058 8.4243 16.0955C8.4243 16.0955 8.61208 16.1894 8.73105 16.2082C8.73105 16.2082 8.46818 16.4648 8.14263 16.4711C7.81714 16.4773 7.235 16.4397 7.235 16.4397C7.235 16.4397 7.22877 16.1268 7.07854 15.8576C6.9283 15.5885 6.87824 15.5681 6.87824 15.5681C6.87824 15.5681 6.9111 15.3522 6.81721 15.263C6.72332 15.1738 6.67166 15.1315 6.67166 15.1315C6.67166 15.1315 6.72173 14.6996 6.58401 14.4305C6.44629 14.1613 5.95809 13.5729 5.93306 13.1348C5.90803 12.6966 5.92678 12.5339 5.92678 12.5339L5.77655 12.5714L5.67642 12.3648L5.84541 12.346L5.77655 12.0331L5.54494 12.1207L5.51363 11.8515L5.23824 11.9642L5.37596 12.2083L5.13184 12.2772L5.27579 12.5651L5.46357 12.4462L5.51363 12.6965C5.51363 12.6965 5.40094 12.7216 5.33837 12.8217C5.33837 12.8217 5.64807 13.0273 5.73896 13.2724C5.88291 13.6605 5.83913 14.5368 6.0457 14.7997C6.25228 15.0626 6.41498 15.2442 6.41498 15.2442C6.41498 15.2442 6.35709 15.4226 6.42281 15.5211C6.48853 15.6197 6.58242 15.6479 6.58242 15.6479C6.58242 15.6479 6.52607 16.0469 6.67162 16.3098C6.81716 16.5727 6.90163 16.6384 6.90163 16.6384C6.90163 16.6384 6.37115 16.9623 6.74671 17.338C6.74671 17.338 6.69665 17.6791 7.05341 17.7605C7.05341 17.7605 7.07221 18.0296 7.37891 17.9983C7.37891 17.9983 7.52914 17.9545 7.56669 18.0296C7.60423 18.1047 7.56669 18.5366 7.56669 18.5366C7.56669 18.5366 7.7044 18.5241 7.79201 18.4615L8.0674 18.5993L8.07368 18.2926L8.41793 18.1548C8.41793 18.1548 8.2677 18.1799 7.961 17.892C7.961 17.892 8.01106 17.8607 8.0486 17.6165C8.0486 17.6165 8.29273 17.4225 8.34279 17.266C8.39285 17.1095 8.73714 16.7652 9.13773 16.6526L9.19253 16.8967C9.19253 16.8967 9.76524 16.3897 10.0047 16.3616L10.2018 16.6213C10.2018 16.6213 10.9404 15.5259 11.2659 15.3319C11.2409 15.4195 11.4224 15.4321 11.0187 15.8827C10.6149 16.3334 10.8653 16.6902 10.8653 16.6902C10.6149 16.8968 10.665 17.0845 10.6337 17.2974C10.6024 17.5102 9.76988 18.061 9.76988 18.061C10.0328 18.3927 10.327 18.3176 10.327 18.3176C10.1642 18.424 10.2143 18.7808 10.2143 18.7808C10.4521 18.8434 10.69 18.737 10.69 18.737C10.6087 18.9623 10.7339 19.1189 10.7339 19.1189C10.8841 19.025 11.2284 18.9686 11.2284 18.9686C11.1846 19.3567 11.435 19.5633 11.435 19.5633L11.654 19.3254C11.6916 19.7636 12.0797 20.014 12.0797 20.014C12.0797 20.014 12.4677 19.7636 12.5053 19.3254L12.7244 19.5633C12.7244 19.5633 12.9748 19.3567 12.931 18.9686C12.931 18.9686 13.2753 19.025 13.4255 19.1189C13.4255 19.1189 13.5506 18.9624 13.4693 18.737C13.4693 18.737 13.7072 18.8434 13.945 18.7808C13.945 18.7808 13.9951 18.424 13.8324 18.3176C13.8324 18.3176 14.1265 18.3927 14.3895 18.061C14.3895 18.061 13.557 17.5102 13.5257 17.2974C13.4943 17.0845 13.5445 16.8968 13.2941 16.6902C13.2941 16.6902 13.5444 16.3334 13.1407 15.8827C12.7369 15.432 12.9184 15.4195 12.8934 15.3319C13.2189 15.526 13.9575 16.6213 13.9575 16.6213L14.1547 16.3616C14.3941 16.3897 14.9668 16.8967 14.9668 16.8967L15.0216 16.6526L15.0319 16.6413C15.3306 16.8021 15.8238 17.0197 16.0231 17.1721C16.2359 17.3349 16.4112 17.3474 16.9245 17.1721C17.4378 16.9968 18.3927 16.7273 18.2515 16.4085C18.2438 16.3911 18.2351 16.3794 18.2267 16.3659C18.2491 16.2835 18.2583 16.1398 18.1076 16.0141C18.1076 16.0141 18.1093 16.0491 18.1081 16.094L17.6188 15.9117C17.6026 15.8684 17.5784 15.8259 17.5317 15.7888C17.5317 15.7888 17.5324 15.8264 17.5257 15.877L17.4002 15.8302L17.6506 15.1255C17.6317 15.1149 17.6104 15.109 17.5907 15.0997C17.5958 15.0359 17.6079 14.9477 17.6264 14.8555C17.6876 14.8769 17.7435 14.9033 17.784 14.9364L17.8547 14.6784C17.8547 14.6784 17.7787 14.6734 17.6784 14.6547C17.7037 14.5769 17.7337 14.507 17.7694 14.4618L17.4377 14.3617C17.4377 14.3617 17.4463 14.4622 17.4404 14.5876C17.3771 14.5619 17.3166 14.5293 17.2678 14.4875L17.1901 14.7738C17.2168 14.7754 17.3074 14.7832 17.4123 14.8019C17.3934 14.8859 17.36 14.9605 17.312 15.0165C17.3002 15.0149 17.2893 15.0107 17.2773 15.0095L17.0341 15.6938L16.3744 15.448C16.3461 15.4925 16.3244 15.541 16.3039 15.5901C16.3074 15.5829 16.3105 15.5718 16.3142 15.5673C16.3142 15.5673 16.059 15.7007 16.0625 15.8968C16.0155 15.9147 15.9743 15.95 15.9511 16.011C15.876 16.2082 16.336 16.6495 16.2234 16.7058C16.1128 16.7611 15.5348 16.2851 15.4423 16.2052C15.5614 16.182 15.7351 16.0955 15.7351 16.0955C15.6162 16.058 15.3971 15.8702 15.3971 15.8702C15.5098 15.8201 15.6162 15.6574 15.6162 15.6574C15.1092 15.5697 15.0528 15.4633 15.0528 15.4633C15.0904 15.4132 15.1217 15.2818 15.1217 15.2818C14.2454 15.1691 14.1734 14.5494 14.1734 14.5494C14.4362 14.9625 14.8588 14.8029 14.8588 14.8029L14.6804 14.4837C15.178 15.0001 15.8258 14.6246 15.8258 14.6246L15.6537 14.4368C16.4925 14.6496 16.6991 14.1676 16.6991 14.1676C16.4549 14.1301 16.2765 14.019 16.2765 14.019C17.2812 14.2256 17.3 13.6481 17.3 13.6481C17.1935 13.6168 16.868 13.5104 16.868 13.5104C17.832 13.6293 17.8633 12.922 17.8633 12.922C17.5503 12.9971 17.0683 12.9596 17.0683 12.9596C18.2889 12.8719 18.3077 12.1834 18.3077 12.1834C17.7882 12.3712 17.325 12.3024 17.325 12.3024C18.7271 12.1334 18.7083 11.2821 18.7083 11.2821C18.026 11.739 17.3562 11.7515 17.3562 11.7515C18.9964 11.3071 18.8712 10.4433 18.8712 10.4433ZM17.4488 16.6354C17.3819 16.5268 17.5413 16.4298 17.6131 16.3263L17.8905 16.4297C17.7962 16.5419 17.5177 16.7474 17.4488 16.6354ZM17.2634 16.196C17.1734 16.3354 17.1108 16.4918 16.8338 16.4993C16.4864 16.5086 16.4301 16.1988 16.355 16.0298C16.3331 15.9806 16.2953 15.9433 16.2519 15.9178C16.2517 15.8876 16.2534 15.8542 16.2561 15.8206L17.2634 16.196Z" fill="#E6B432"/>
<path d="M11.976 9.58265C11.976 9.58265 11.53 9.20241 11.3986 8.99583C11.3986 8.99583 11.5488 8.9348 11.6239 8.84091C11.6239 8.84091 11.2202 8.62496 11.0042 8.40432C11.0042 8.40432 11.1451 8.38084 11.253 8.29163C11.253 8.29163 10.8904 8.22615 10.7066 7.9292C11.1258 7.78609 10.9855 7.39497 10.9855 7.39497C10.9009 7.50766 10.5536 7.64847 10.178 7.48886C9.80244 7.32925 9.38933 7.44189 9.38933 7.64847C9.38933 7.64847 8.54432 7.40434 8.75559 8.22123C8.75559 8.22123 8.89171 7.91607 9.19218 8.02876C9.49264 8.14145 9.7978 8.52638 9.7978 8.52638C9.7978 8.52638 9.61002 8.62965 9.26263 8.51701C9.26263 8.51701 9.40349 9.05686 10.0372 8.78461C10.0372 8.78461 10.2876 8.91919 10.3001 9.3135C10.3001 9.3135 10.4065 9.25716 10.4754 9.132C10.4754 9.132 10.5755 9.51384 10.4441 9.82677C10.4441 9.82677 10.6194 9.79546 10.6757 9.73912C10.6757 9.73912 10.7258 10.0709 10.5067 10.34C10.5067 10.34 11.4691 10.7985 12.0794 10.2962C12.0794 10.2962 11.8494 10.0333 11.7743 9.78918C11.7742 9.78923 11.9009 9.73757 11.976 9.58265Z" fill="#E6B432"/>
<path d="M14.77 7.64851C14.77 7.44194 14.3569 7.3293 13.9814 7.4889C13.6058 7.64851 13.2584 7.5077 13.1739 7.39502C13.1739 7.39502 13.0336 7.78614 13.4528 7.92924C13.2689 8.2262 12.9063 8.29168 12.9063 8.29168C13.0143 8.38088 13.1551 8.40437 13.1551 8.40437C12.9392 8.625 12.5355 8.84095 12.5355 8.84095C12.6106 8.93484 12.7608 8.99587 12.7608 8.99587C12.6294 9.20245 12.1833 9.5827 12.1833 9.5827C12.2584 9.73762 12.3852 9.78927 12.3852 9.78927C12.3101 10.0334 12.0801 10.2963 12.0801 10.2963C12.6904 10.7986 13.6528 10.3401 13.6528 10.3401C13.4337 10.0709 13.4838 9.73921 13.4838 9.73921C13.5401 9.79555 13.7154 9.82687 13.7154 9.82687C13.584 9.51389 13.6841 9.13209 13.6841 9.13209C13.753 9.25725 13.8594 9.31359 13.8594 9.31359C13.8719 8.91923 14.1223 8.78471 14.1223 8.78471C14.756 9.057 14.8969 8.5171 14.8969 8.5171C14.5495 8.62979 14.3617 8.52647 14.3617 8.52647C14.3617 8.52647 14.6668 8.14154 14.9673 8.02885C15.2678 7.91617 15.4039 8.22132 15.4039 8.22132C15.615 7.40439 14.77 7.64851 14.77 7.64851Z" fill="#E6B432"/>
<path d="M14.3867 12.6356C14.3043 12.1559 14.2333 11.7415 14.4402 11.2667L14.4788 11.178L13.6592 10.2368L13.5623 10.2691C13.5539 10.2719 12.6972 10.552 12.1479 10.2773L12.0794 10.243L12.0109 10.2773C11.4642 10.5513 10.6052 10.2719 10.5963 10.2689L10.4995 10.2369L9.67995 11.178L9.71852 11.2667C9.92548 11.7415 9.85446 12.1559 9.77206 12.6356C9.69443 13.0886 9.60635 13.6021 9.76127 14.2284C9.92951 14.9082 10.4958 15.1499 10.9955 15.3633C11.3806 15.5277 11.7443 15.6829 11.9499 16.0088L12.0794 16.2141L12.2089 16.0088C12.4146 15.6829 12.7783 15.5277 13.1633 15.3633C13.663 15.1499 14.2293 14.9083 14.3975 14.2284C14.5524 13.6021 14.4643 13.0886 14.3867 12.6356ZM10.0362 11.235L10.5988 10.5891C10.8536 10.6591 11.5425 10.8107 12.0793 10.5828C12.616 10.8107 13.3048 10.6591 13.5598 10.5891L14.1224 11.235C13.9249 11.7552 14.0026 12.2088 14.0847 12.6874C14.1462 13.0459 14.2073 13.4153 14.156 13.8408H10.0026C9.9513 13.4153 10.0125 13.0459 10.0739 12.6874C10.1561 12.2088 10.2338 11.7552 10.0362 11.235ZM13.043 15.0816C12.6949 15.2302 12.3367 15.3831 12.0793 15.6732C11.8219 15.3831 11.4638 15.2302 11.1156 15.0816C10.6271 14.873 10.2056 14.6907 10.0667 14.1788H14.0919C13.953 14.6907 13.5316 14.873 13.043 15.0816Z" fill="#E6B432"/>
<path d="M10.0372 11.2349L10.5998 10.589C10.8546 10.659 11.5434 10.8106 12.0803 10.5827C12.617 10.8106 13.3058 10.659 13.5607 10.589L14.1233 11.2349C13.9258 11.7552 14.0036 12.2088 14.0856 12.6873C14.1471 13.0459 14.2082 13.4153 14.1569 13.8407H10.0036C9.95224 13.4153 10.0134 13.0459 10.0749 12.6873C10.157 12.2088 10.2348 11.7552 10.0372 11.2349Z" fill="#41479B"/>
<path d="M10.0459 14.0895C10.0507 14.1115 10.0538 14.1325 10.0594 14.1548C10.191 14.6865 10.6198 14.8695 11.1165 15.0816C11.4647 15.2302 11.8228 15.3831 12.0802 15.6732C12.3376 15.3831 12.6957 15.2302 13.0439 15.0816C13.5405 14.8695 13.9694 14.6865 14.1011 14.1548C14.1066 14.1325 14.1096 14.1114 14.1145 14.0895H10.0459Z" fill="#73AF00"/>
<path d="M13.9202 12.314C13.9202 12.0371 13.657 11.9934 13.4177 11.9982C13.1784 12.0029 12.8284 11.9592 12.8196 11.7733C12.814 11.6573 13.0086 11.6465 13.1354 11.6871C13.209 11.7107 13.6666 11.7924 13.8102 11.4861C13.8102 11.4861 13.6428 11.4915 13.4663 11.4519C13.3301 11.4213 12.7718 11.4909 12.6713 11.7062C12.5708 11.9216 12.8949 12.1365 13.2681 12.1365C13.6414 12.1365 13.6926 12.2112 13.6897 12.3022C13.6859 12.4218 13.3899 12.4557 13.2197 12.4541C12.952 12.3568 12.3271 12.4331 12.3241 12.4212C12.3205 12.4068 12.18 12.1654 12.18 12.1654C12.18 12.1654 12.4358 12.1474 12.4683 12.1005C12.5007 12.0537 12.2741 11.8738 12.2741 11.8738C12.2741 11.8738 12.4646 11.7978 12.4719 11.7438C12.4798 11.6843 12.3172 11.5436 12.3172 11.5436C12.3172 11.5436 12.38 11.4816 12.4273 11.3761C12.4611 11.3006 12.1928 11.2804 12.1928 11.2804C12.2072 11.2229 12.2017 11.1673 12.1306 11.1416C12.0757 11.1217 11.8722 11.199 11.7334 11.199C11.5946 11.199 11.542 11.2995 11.542 11.2995C11.542 11.2995 11.2979 11.3282 11.2644 11.3569C11.2309 11.3856 11.274 11.5723 11.274 11.5723C11.1496 11.5531 11.0922 11.4431 11.0922 11.4431C11.03 11.7254 11.3218 11.7541 11.3218 11.7541L11.3697 11.9073C11.3697 11.9073 11.3697 11.9073 11.4893 11.9216C11.6089 11.936 11.5515 12.0508 11.3649 12.0508C11.1783 12.0508 11.099 12.2734 11.099 12.2734C10.9693 12.277 10.8973 12.1725 10.8684 12.0392C10.8367 11.8925 10.8554 11.667 10.8793 11.524C10.9081 11.351 10.8216 11.3006 10.8216 11.3006L10.7639 11.4447C10.7603 11.297 10.6306 11.2826 10.6306 11.2826L10.609 11.4628C10.5441 11.3438 10.4324 11.3979 10.4324 11.3979C10.4324 11.3979 10.5405 11.787 10.5369 11.8086C10.5333 11.8303 10.4973 11.8483 10.4468 11.7943C10.3964 11.7402 10.3604 11.7763 10.3604 11.7763C10.4144 12.1654 10.6231 12.1083 10.6231 12.1083C10.6231 12.1083 10.6324 12.2302 10.6954 12.4777C10.7627 12.7419 11.0394 12.6921 11.0394 12.6921C11.0394 12.7783 11.1064 12.9027 11.1256 13.1898C11.1447 13.4769 10.8815 13.6779 10.8815 13.6779C10.6422 13.6731 10.6662 13.9076 10.6662 13.9076H11.3266C11.3266 13.297 11.589 13.1922 11.589 13.1922C11.9782 13.2102 12.3529 13.0481 12.3529 13.0481C12.2952 13.2823 12.3962 13.3796 12.3962 13.3796C12.5547 13.358 12.4754 13.6714 12.4285 13.6714C12.3817 13.6714 12.2844 13.6714 12.2268 13.6714C12.1691 13.6714 12.0034 13.8516 12.0034 13.8516H12.688C12.688 13.8516 12.7924 13.7003 12.8285 13.6246C12.8645 13.549 12.7492 13.4444 12.742 13.3652C12.7348 13.2859 12.8609 13.2355 12.8609 13.2355C12.9942 13.4228 13.3005 13.4336 13.3005 13.4336L13.2933 13.2931C13.2933 13.2931 13.4518 13.3472 13.4879 13.394C13.5239 13.4408 13.5167 13.657 13.3257 13.6823C13.1348 13.7075 13.1203 13.8444 13.1203 13.8444C13.1203 13.8444 13.5563 13.8444 13.6428 13.8444C13.7293 13.8444 13.7977 13.6823 13.7977 13.621C13.7977 13.5597 13.7977 13.1598 13.7977 13.0733C13.7977 12.9868 13.7257 12.9977 13.5563 12.9797C13.4025 12.9633 13.4172 12.795 13.3538 12.5997C13.5763 12.5921 13.9202 12.5434 13.9202 12.314Z" fill="#E6B432"/>
<path d="M13.8794 5.76628C13.8366 5.38842 13.5354 4.9073 12.3881 4.68179C12.3843 4.55992 12.3093 4.45656 12.2022 4.41306V4.20255H12.3899V3.97722H12.2022V3.78944H11.9768V3.97722H11.7891V4.20255H11.9768V4.41306C11.8697 4.45656 11.7947 4.55992 11.7909 4.68179C10.6436 4.9073 10.3424 5.38842 10.2996 5.76628C10.2461 6.23742 10.5835 6.68413 10.8877 6.85536V7.09442H13.2913V6.85536C13.5955 6.68418 13.9329 6.23742 13.8794 5.76628ZM12.6212 6.49349H12.2848V5.10779C12.5621 5.23304 12.7336 5.42517 12.7835 5.68898C12.8457 6.01753 12.7144 6.35249 12.6212 6.49349ZM11.3954 5.68884C11.4453 5.42503 11.6169 5.23294 11.8942 5.10774V6.49354H11.5577C11.4644 6.35249 11.3331 6.01739 11.3954 5.68884ZM11.1173 5.30827C11.062 5.41894 11.0269 5.52966 11.0089 5.63133C10.9545 5.93915 11.0168 6.25195 11.1198 6.49349H11.0408C10.8723 6.37743 10.6558 6.09201 10.6877 5.8103C10.71 5.61328 10.8594 5.44416 11.1173 5.30827ZM13.1381 6.49349H13.059C13.1621 6.25199 13.2244 5.9392 13.1701 5.63147C13.1521 5.52975 13.1169 5.41894 13.0616 5.30822C13.3195 5.44411 13.4689 5.61328 13.4913 5.8103C13.5232 6.09201 13.3066 6.37743 13.1381 6.49349Z" fill="#E6B432"/>
</g>
<defs>
<clipPath id="clip0_72_2875">
<path d="M0 2C0 0.895432 0.895431 0 2 0H21.9998C23.1043 0 23.9998 0.895431 23.9998 2V21.9998C23.9998 23.1043 23.1043 23.9998 21.9998 23.9998H2C0.895432 23.9998 0 23.1043 0 21.9998V2Z" fill="white"/>
</clipPath>
</defs>
</svg>
