<svg width="24" height="24" viewBox="0 0 24 24" fill="none" xmlns="http://www.w3.org/2000/svg">
<g clip-path="url(#clip0_72_2935)">
<path d="M24.0017 6.10352e-05H0.00195312V11.9999H24.0017V6.10352e-05Z" fill="#F5F5F5"/>
<path d="M24.0017 11.9999H0.00195312V23.9998H24.0017V11.9999Z" fill="#82AFFF"/>
<path d="M12.0613 17.1498C11.9543 17.1452 9.4291 17.016 8.16176 15.2797C7.42315 14.2679 7.27578 12.9221 7.72367 11.2798L7.90465 11.3291C7.47265 12.9132 7.6099 14.2049 8.31274 15.1683C9.52599 16.8316 12.0441 16.9613 12.0695 16.9623L12.0613 17.1498Z" fill="#B46446"/>
<path d="M7.71939 10.5515C7.59484 10.8758 7.62329 11.2153 7.76743 11.4729C8.04685 11.378 8.29524 11.1447 8.41974 10.8204C8.54429 10.4961 8.51583 10.1565 8.37169 9.89897C8.09227 9.9938 7.84393 10.2271 7.71939 10.5515Z" fill="#41AA5A"/>
<path d="M9.30132 15.0351C9.16313 15.2631 9.12685 15.5688 9.22923 15.8655C9.32485 16.1428 9.52214 16.3475 9.75085 16.4506C9.52866 16.3342 9.2461 16.305 8.96888 16.4006C8.67212 16.5029 8.45373 16.7199 8.35938 16.9693C8.58737 17.1075 8.89309 17.1438 9.18985 17.0414C9.48661 16.9391 9.705 16.7221 9.79936 16.4727L9.79903 16.4726C9.93609 16.2448 9.972 15.9403 9.87 15.6446C9.76767 15.3479 9.55069 15.1294 9.30132 15.0351Z" fill="#41AA5A"/>
<path d="M8.76032 14.2074C8.54709 14.3674 8.39943 14.6376 8.38373 14.9511C8.36906 15.2441 8.47584 15.5075 8.64956 15.6885C8.48681 15.4976 8.23551 15.3652 7.94264 15.3505C7.6291 15.3348 7.3456 15.4547 7.16504 15.6509C7.32507 15.8641 7.59521 16.0118 7.90875 16.0275C8.22229 16.0432 8.50579 15.9233 8.68635 15.7271C8.68626 15.727 8.68621 15.727 8.68621 15.727C8.89823 15.5666 9.04508 15.2975 9.06069 14.985C9.07644 14.6715 8.95654 14.3879 8.76032 14.2074Z" fill="#41AA5A"/>
<path d="M8.52696 13.2743C8.2691 13.342 8.03041 13.5365 7.89757 13.8209C7.7734 14.0867 7.77289 14.3709 7.86546 14.6041C7.78676 14.3659 7.60404 14.1484 7.33836 14.0244C7.05392 13.8915 6.74615 13.8955 6.50488 14.0091C6.57262 14.2669 6.76705 14.5056 7.05149 14.6385C7.33592 14.7713 7.6437 14.7673 7.88496 14.6537C7.88496 14.6537 7.88487 14.6536 7.88482 14.6534C8.14169 14.5851 8.3793 14.3912 8.51168 14.1078C8.64452 13.8234 8.64053 13.5156 8.52696 13.2743Z" fill="#41AA5A"/>
<path d="M8.65943 12.3484C8.39412 12.322 8.10265 12.4211 7.87901 12.6415C7.67005 12.8473 7.57053 13.1135 7.57606 13.3644C7.5853 13.1137 7.48977 12.8462 7.28399 12.6373C7.06368 12.4136 6.77376 12.3102 6.50807 12.3326C6.48168 12.5979 6.58082 12.8893 6.80113 13.113C7.02144 13.3366 7.31136 13.4401 7.57705 13.4177C7.57705 13.4177 7.57705 13.4175 7.57705 13.4173C7.84165 13.4428 8.13185 13.3439 8.35474 13.1243C8.57833 12.904 8.68183 12.6141 8.65943 12.3484Z" fill="#41AA5A"/>
<path d="M8.84673 11.4671C8.58943 11.3972 8.28559 11.4467 8.02858 11.6269C7.7884 11.7954 7.64623 12.0415 7.61018 12.2898C7.66076 12.0441 7.61084 11.7644 7.44246 11.5243C7.26223 11.2673 6.9934 11.1173 6.72767 11.0954C6.65778 11.3527 6.70728 11.6565 6.88751 11.9135C7.06775 12.1706 7.33657 12.3206 7.6023 12.3425C7.60235 12.3423 7.60235 12.3423 7.60235 12.3423C7.85908 12.411 8.16171 12.3615 8.41783 12.1819C8.67479 12.0016 8.82489 11.7328 8.84673 11.4671Z" fill="#41AA5A"/>
<path d="M9.08055 16.2055C9.20758 16.403 8.99753 16.613 8.8001 16.486C8.78702 16.4775 8.77563 16.4661 8.76719 16.4531C8.64016 16.2556 8.8502 16.0455 9.04764 16.1726C9.06072 16.1811 9.07216 16.1924 9.08055 16.2055Z" fill="#FFE15A"/>
<path d="M9.97996 16.3149C10.107 16.5124 9.89695 16.7225 9.69951 16.5954C9.68643 16.5869 9.67504 16.5755 9.6666 16.5625C9.53957 16.365 9.74962 16.1549 9.94705 16.282C9.96018 16.2905 9.97157 16.3018 9.97996 16.3149Z" fill="#FFE15A"/>
<path d="M8.56492 14.7285C8.69195 14.926 8.48191 15.1361 8.28447 15.009C8.27139 15.0006 8.26 14.9892 8.25157 14.9761C8.12454 14.7786 8.33458 14.5686 8.53202 14.6956C8.54509 14.7041 8.55648 14.7155 8.56492 14.7285Z" fill="#FFE15A"/>
<path d="M7.32273 13.2594C7.44976 13.4568 7.23972 13.6669 7.04228 13.5398C7.02921 13.5314 7.01782 13.52 7.00938 13.5069C6.88235 13.3094 7.09239 13.0994 7.28983 13.2265C7.30291 13.2349 7.31434 13.2463 7.32273 13.2594Z" fill="#FFE15A"/>
<path d="M8.18992 12.2643C8.31695 12.4618 8.10691 12.6718 7.90947 12.5448C7.89639 12.5363 7.885 12.5249 7.87657 12.5119C7.74954 12.3144 7.95958 12.1043 8.15702 12.2314C8.17009 12.2398 8.18148 12.2512 8.18992 12.2643Z" fill="#FFE15A"/>
<path d="M7.8618 11.2448C7.98883 11.4423 7.77878 11.6523 7.58135 11.5252C7.56827 11.5168 7.55688 11.5054 7.54844 11.4923C7.42141 11.2948 7.63146 11.0848 7.82889 11.2119C7.84202 11.2203 7.85341 11.2317 7.8618 11.2448Z" fill="#FFE15A"/>
<path d="M12.0688 17.1498L12.0605 16.9623C12.086 16.9613 14.6041 16.8316 15.8174 15.1683C16.5202 14.2049 16.6574 12.9132 16.2254 11.3291L16.4064 11.2798C16.8543 12.9221 16.7069 14.2679 15.9683 15.2797C14.7009 17.016 12.1757 17.1452 12.0688 17.1498Z" fill="#B46446"/>
<path d="M16.4119 10.5515C16.5365 10.8758 16.508 11.2153 16.3639 11.4729C16.0845 11.378 15.8361 11.1447 15.7116 10.8204C15.587 10.4961 15.6155 10.1565 15.7596 9.89897C16.039 9.9938 16.2874 10.2271 16.4119 10.5515Z" fill="#41AA5A"/>
<path d="M14.8304 15.0351C14.9686 15.2631 15.0049 15.5688 14.9025 15.8655C14.8069 16.1428 14.6096 16.3475 14.3809 16.4506C14.6031 16.3342 14.8856 16.305 15.1628 16.4006C15.4596 16.5029 15.678 16.7199 15.7724 16.9693C15.5444 17.1075 15.2386 17.1438 14.9419 17.0414C14.6451 16.939 14.4267 16.7221 14.3324 16.4727C14.3325 16.4727 14.3326 16.4726 14.3326 16.4726C14.1956 16.2448 14.1597 15.9403 14.2617 15.6446C14.3641 15.3479 14.5811 15.1294 14.8304 15.0351Z" fill="#41AA5A"/>
<path d="M15.3711 14.2074C15.5843 14.3674 15.732 14.6376 15.7477 14.9511C15.7623 15.2441 15.6556 15.5075 15.4818 15.6885C15.6446 15.4976 15.8959 15.3652 16.1888 15.3505C16.5023 15.3348 16.7858 15.4547 16.9664 15.6509C16.8063 15.8641 16.5362 16.0118 16.2227 16.0275C15.9091 16.0432 15.6256 15.9233 15.4451 15.7271C15.4451 15.727 15.4452 15.727 15.4452 15.727C15.2332 15.5666 15.0863 15.2975 15.0707 14.985C15.055 14.6715 15.1749 14.3879 15.3711 14.2074Z" fill="#41AA5A"/>
<path d="M15.6053 13.2743C15.8632 13.342 16.1018 13.5365 16.2347 13.8209C16.3589 14.0867 16.3594 14.3709 16.2668 14.6041C16.3455 14.3659 16.5282 14.1484 16.7939 14.0244C17.0783 13.8915 17.3861 13.8955 17.6274 14.0091C17.5596 14.2669 17.3652 14.5056 17.0808 14.6385C16.7963 14.7713 16.4886 14.7673 16.2473 14.6537C16.2473 14.6537 16.2474 14.6536 16.2474 14.6534C15.9906 14.5851 15.753 14.3912 15.6206 14.1078C15.4877 13.8234 15.4918 13.5156 15.6053 13.2743Z" fill="#41AA5A"/>
<path d="M15.4727 12.3484C15.738 12.322 16.0295 12.4211 16.2531 12.6415C16.4621 12.8473 16.5616 13.1135 16.5561 13.3644C16.5469 13.1137 16.6424 12.8462 16.8482 12.6373C17.0685 12.4136 17.3584 12.3102 17.6241 12.3326C17.6505 12.5979 17.5513 12.8893 17.331 13.113C17.1107 13.3366 16.8208 13.4401 16.5551 13.4177C16.5551 13.4177 16.5551 13.4175 16.5551 13.4173C16.2905 13.4428 16.0003 13.3439 15.7774 13.1243C15.5538 12.904 15.4503 12.6141 15.4727 12.3484Z" fill="#41AA5A"/>
<path d="M15.2852 11.4671C15.5425 11.3972 15.8463 11.4467 16.1033 11.6269C16.3435 11.7954 16.4857 12.0415 16.5217 12.2898C16.4711 12.0441 16.5211 11.7644 16.6894 11.5243C16.8697 11.2673 17.1385 11.1173 17.4042 11.0954C17.4741 11.3527 17.4246 11.6565 17.2444 11.9135C17.0641 12.1706 16.7953 12.3206 16.5296 12.3425C16.5295 12.3423 16.5295 12.3423 16.5295 12.3423C16.2728 12.411 15.9702 12.3615 15.7141 12.1819C15.4571 12.0016 15.307 11.7328 15.2852 11.4671Z" fill="#41AA5A"/>
<path d="M15.0523 16.2055C14.9253 16.403 15.1354 16.613 15.3328 16.486C15.3459 16.4775 15.3573 16.4661 15.3657 16.4531C15.4927 16.2556 15.2827 16.0455 15.0853 16.1726C15.0722 16.1811 15.0608 16.1924 15.0523 16.2055Z" fill="#FFE15A"/>
<path d="M14.1539 16.3149C14.0269 16.5124 14.2369 16.7225 14.4344 16.5954C14.4474 16.5869 14.4588 16.5755 14.4673 16.5625C14.5943 16.365 14.3843 16.1549 14.1868 16.282C14.1737 16.2905 14.1623 16.3018 14.1539 16.3149Z" fill="#FFE15A"/>
<path d="M15.568 14.7285C15.4409 14.926 15.651 15.1361 15.8484 15.009C15.8615 15.0006 15.8729 14.9892 15.8813 14.9761C16.0084 14.7786 15.7983 14.5686 15.6009 14.6956C15.5878 14.7041 15.5764 14.7155 15.568 14.7285Z" fill="#FFE15A"/>
<path d="M16.8111 13.2594C16.6841 13.4568 16.8942 13.6669 17.0916 13.5398C17.1047 13.5314 17.1161 13.52 17.1245 13.5069C17.2515 13.3094 17.0415 13.0994 16.844 13.2265C16.831 13.2349 16.8196 13.2463 16.8111 13.2594Z" fill="#FFE15A"/>
<path d="M15.9439 12.2643C15.8169 12.4618 16.027 12.6718 16.2244 12.5448C16.2375 12.5363 16.2489 12.5249 16.2573 12.5119C16.3843 12.3144 16.1743 12.1043 15.9769 12.2314C15.9638 12.2398 15.9523 12.2512 15.9439 12.2643Z" fill="#FFE15A"/>
<path d="M16.2721 11.2448C16.145 11.4423 16.3551 11.6523 16.5525 11.5252C16.5656 11.5168 16.577 11.5054 16.5854 11.4923C16.7125 11.2948 16.5024 11.0848 16.305 11.2119C16.2919 11.2203 16.2805 11.2317 16.2721 11.2448Z" fill="#FFE15A"/>
<path d="M13.1645 10.5864H10.9233C10.2257 10.5864 9.66016 11.1519 9.66016 11.8496V13.8238C9.66016 14.5216 10.2257 15.087 10.9233 15.087H13.1645C13.862 15.087 14.4276 14.5215 14.4276 13.8238V11.8496C14.4276 11.152 13.862 10.5864 13.1645 10.5864Z" fill="#8CD7FF"/>
<path d="M12.4116 12.3048V12.5549H12.1616V12.3048H11.969V12.5549H11.7189V12.3048H11.5625V12.805L11.6876 12.9633V14.8055H12.4377V12.9633L12.5628 12.805V12.3048H12.4116Z" fill="#F5F5F5"/>
<path d="M12.1 11.5129C12.2237 11.453 12.2562 11.7057 12.2562 11.7057C12.5167 11.5754 12.4488 11.364 12.3865 11.2629C12.3031 11.1274 11.9697 11.0753 11.8291 11.3567C11.6884 11.638 12.0687 12.1955 12.0687 12.1955C12.0896 12.0235 11.9385 11.5911 12.1 11.5129Z" fill="#F5F5F5"/>
<path d="M13.6977 12.7711V13.0212H13.4476V12.7711H13.2551V13.0212H13.0051V12.7711H12.8486V13.2713L12.9736 13.4296V15.2718H13.7239V13.4296L13.8489 13.2713V12.7711H13.6977Z" fill="#F5F5F5"/>
<path d="M13.3851 11.9792C13.5089 11.9193 13.5414 12.172 13.5414 12.172C13.8019 12.0417 13.7339 11.8303 13.6716 11.7291C13.5883 11.5937 13.2548 11.5416 13.1142 11.8229C12.9736 12.1043 13.3538 12.6617 13.3538 12.6617C13.3747 12.4898 13.2236 12.0574 13.3851 11.9792Z" fill="#F5F5F5"/>
<path d="M11.1264 12.7711V13.0212H10.8764V12.7711H10.6838V13.0212H10.4338V12.7711H10.2773V13.2713L10.4024 13.4296V15.2718H11.1526V13.4296L11.2776 13.2713V12.7711H11.1264Z" fill="#F5F5F5"/>
<path d="M10.8138 11.9792C10.9376 11.9193 10.9701 12.172 10.9701 12.172C11.2306 12.0417 11.1626 11.8303 11.1004 11.7291C11.017 11.5937 10.6836 11.5416 10.5429 11.8229C10.4023 12.1043 10.7826 12.6617 10.7826 12.6617C10.8034 12.4898 10.6523 12.0574 10.8138 11.9792Z" fill="#F5F5F5"/>
<path d="M14.1163 14.9388C13.9493 14.8562 13.7638 14.8054 13.5649 14.8054C13.3518 14.8054 13.1542 14.8637 12.9785 14.9578C12.7502 14.7117 12.4267 14.5553 12.0645 14.5553C11.7023 14.5553 11.3788 14.7117 11.1504 14.9578C10.9748 14.8637 10.7772 14.8054 10.564 14.8054C10.3651 14.8054 10.1797 14.8561 10.0127 14.9388C10.3697 15.5935 11.0534 16.6516 12.0645 17.056C13.0756 16.6516 13.7593 15.5935 14.1163 14.9388Z" fill="#6EC86E"/>
<path d="M12.0566 6.55864L12.0679 6.55301C12.0679 6.55301 12.0641 6.554 12.0566 6.55864Z" fill="#FFE15A"/>
<path d="M12.0674 6.55301L12.0786 6.55864C12.0711 6.554 12.0674 6.55301 12.0674 6.55301Z" fill="#FFE15A"/>
<path d="M14.4669 7.62363C14.3966 7.21727 13.873 7.14691 13.2713 7.10787C12.6696 7.06877 12.4117 6.72495 12.4117 6.72495H11.724C11.724 6.72495 11.4661 7.06877 10.8643 7.10787C10.2626 7.14696 9.73901 7.21727 9.6687 7.62363C9.59838 8.02998 10.1141 8.67081 10.1141 8.67081L10.5674 8.3035C10.5674 8.3035 10.0125 7.77208 10.286 7.57671C10.5561 7.38377 11.3436 7.51741 11.6944 7.05424C11.6795 7.15099 11.6848 7.27057 11.7448 7.4178C11.8594 7.69914 11.8177 8.05342 11.8177 8.05342H12.0678H12.3179C12.3179 8.05342 12.2762 7.69914 12.3908 7.4178C12.4508 7.27052 12.456 7.15099 12.4412 7.05424C12.7919 7.51746 13.5794 7.38382 13.8495 7.57671C14.123 7.77208 13.5682 8.3035 13.5682 8.3035L14.0214 8.67081C14.0214 8.67081 14.5372 8.02998 14.4669 7.62363Z" fill="#FFE15A"/>
<path d="M12.3233 5.31829H12.1931V5.17762C12.1931 5.10857 12.1372 5.0526 12.0681 5.0526C11.9991 5.0526 11.9431 5.10857 11.9431 5.17762V5.31829H11.8076C11.7386 5.31829 11.6826 5.37426 11.6826 5.4433C11.6826 5.51235 11.7386 5.56832 11.8076 5.56832H11.9431V5.9278C11.9431 5.99685 11.9991 6.05281 12.0681 6.05281C12.1372 6.05281 12.1931 5.99685 12.1931 5.9278V5.56832H12.3233C12.3924 5.56832 12.4484 5.51235 12.4484 5.4433C12.4484 5.37426 12.3924 5.31829 12.3233 5.31829Z" fill="#FFE15A"/>
<path d="M12.2641 5.89304C12.429 6.14672 12.1583 6.41747 11.9046 6.25256C11.8888 6.2423 11.8752 6.22861 11.8649 6.21286C11.7 5.95918 11.9707 5.68843 12.2244 5.85333C12.2402 5.86355 12.2539 5.87724 12.2641 5.89304Z" fill="#FFF0E1"/>
<path d="M10.2726 11.0857C10.3733 11.136 10.491 11.1795 10.6112 11.1795C11.0255 11.1795 11.2286 10.9452 11.2286 10.5309C11.2286 10.1165 10.9787 9.80408 10.5643 9.80408C10.5643 9.80408 10.5176 9.80487 10.4427 9.81636C10.4267 9.81898 10.4107 9.82137 10.3949 9.82498C9.99668 9.90092 9.01231 10.268 8.8138 12.0548C8.53625 14.5526 10.5643 16.8061 12.0647 17.3063V17.0562C12.0647 17.0561 8.52205 14.347 10.2726 11.0857Z" fill="#FFC75A"/>
<path d="M10.5645 10.0541L12.0649 10.5543L10.5645 11.0544V10.0541Z" fill="#FFC75A"/>
<path d="M13.5639 11.0544L12.0635 10.5543L13.5639 10.0541V11.0544Z" fill="#FFE15A"/>
<path d="M9.06144 12.0823C9.2406 10.4699 10.0858 10.1383 10.4499 10.0687C10.4579 10.0669 10.466 10.0657 10.4797 10.0635C10.5255 10.0564 10.5571 10.0545 10.5669 10.0541C10.8411 10.056 11.0218 10.2625 11.0218 10.5126C11.0218 10.7883 10.8603 10.8929 10.6988 10.8981C10.6988 10.8981 10.8291 10.6272 10.5634 10.5543C10.384 10.5051 10.157 10.6481 10.1778 10.9086C10.1924 11.0916 10.3662 11.2681 10.5634 11.2681C10.9777 11.2681 11.3136 10.9687 11.3136 10.5543C11.3136 10.1399 10.9777 9.80408 10.5634 9.80408C10.5634 9.80408 10.5166 9.80487 10.4418 9.81636C10.4257 9.81898 10.4097 9.82137 10.3939 9.82498C9.9957 9.90092 9.01134 10.268 8.81282 12.0548C8.53528 14.5526 10.5633 16.8061 12.0638 17.3063V17.0562C12.0638 17.0562 11.5323 16.7905 11.1691 16.5324C10.0467 15.7348 8.85881 13.906 9.06144 12.0823Z" fill="#FFE15A"/>
<path d="M13.8595 11.0857C13.7588 11.136 13.6411 11.1795 13.5209 11.1795C13.1066 11.1795 12.9035 10.9452 12.9035 10.5309C12.9035 10.1165 13.1535 9.80408 13.5678 9.80408C13.5678 9.80408 13.6145 9.80487 13.6894 9.81636C13.7055 9.81898 13.7214 9.82137 13.7372 9.82498C14.1354 9.90092 15.1198 10.268 15.3183 12.0548C15.5959 14.5526 13.5678 16.8061 12.0674 17.3063V17.0562C12.0674 17.0561 15.6101 14.347 13.8595 11.0857Z" fill="#FFC75A"/>
<path d="M13.5678 10.0541L12.0674 10.5543L13.5678 11.0544V10.0541Z" fill="#FFC75A"/>
<path d="M15.0697 12.0823C14.8905 10.4699 14.0453 10.1383 13.6812 10.0687C13.6733 10.0669 13.6651 10.0657 13.6514 10.0635C13.6057 10.0564 13.574 10.0545 13.5642 10.0541C13.2901 10.056 13.1093 10.2625 13.1093 10.5126C13.1093 10.7883 13.2708 10.8929 13.4323 10.8981C13.4323 10.8981 13.3021 10.6272 13.5678 10.5543C13.7471 10.5051 13.9741 10.6481 13.9533 10.9086C13.9387 11.0916 13.7649 11.2681 13.5678 11.2681C13.1535 11.2681 12.8176 10.9687 12.8176 10.5543C12.8176 10.1399 13.1534 9.80408 13.5678 9.80408C13.5678 9.80408 13.6145 9.80487 13.6894 9.81636C13.7055 9.81898 13.7214 9.82137 13.7372 9.82498C14.1354 9.90092 15.1198 10.268 15.3183 12.0548C15.5959 14.5526 13.5678 16.8061 12.0674 17.3063V17.0562C12.0674 17.0562 12.5988 16.7905 12.9621 16.5324C14.0845 15.7348 15.2723 13.906 15.0697 12.0823Z" fill="#FFE15A"/>
<path d="M12.2671 10.3944C12.432 10.6481 12.1612 10.9188 11.9075 10.7539C11.8917 10.7436 11.8781 10.7299 11.8678 10.7142C11.7029 10.4605 11.9737 10.1898 12.2274 10.3547C12.2431 10.3649 12.2568 10.3786 12.2671 10.3944Z" fill="#FFE15A"/>
<path d="M13.8507 8.5458C13.9171 8.37387 13.8273 8.14334 13.8273 8.14334C13.5968 8.13551 13.4365 8.30355 13.4365 8.30355C13.4561 8.09646 13.3662 7.90892 13.3662 7.90892C13.0693 7.94407 12.9716 8.1199 12.9716 8.1199C12.956 7.79558 12.7606 7.66273 12.7606 7.66273C12.5027 7.74087 12.4246 8.02221 12.4246 8.02221C12.3855 7.70183 12.0651 7.55333 12.0651 7.55333C12.0651 7.55333 11.7447 7.70183 11.7056 8.02221C11.7056 8.02221 11.6275 7.74087 11.3696 7.66273C11.3696 7.66273 11.1742 7.79558 11.1586 8.1199C11.1586 8.1199 11.0609 7.94407 10.7639 7.90892C10.7639 7.90892 10.6741 8.09646 10.6936 8.30355C10.6936 8.30355 10.5334 8.13556 10.3029 8.14334C10.3029 8.14334 10.213 8.37387 10.2794 8.5458C10.2794 8.5458 10.0177 8.46372 9.80273 8.58879C9.80273 8.58879 10.1967 8.74118 10.3279 8.92872H13.8022C13.9335 8.74118 14.3274 8.58879 14.3274 8.58879C14.1125 8.46377 13.8507 8.5458 13.8507 8.5458Z" fill="#FFC75A"/>
<path d="M13.8015 8.92872C13.8015 9.04127 13.5386 9.38908 13.5386 9.38908C13.5386 9.38908 12.6862 9.50776 12.0643 9.50776C11.4385 9.50776 10.5841 9.38589 10.5841 9.38589C10.5841 9.38589 10.3271 9.03991 10.3271 8.92872C10.3271 8.60894 11.1049 8.34968 12.0643 8.34968C13.0237 8.34968 13.8015 8.60894 13.8015 8.92872Z" fill="#FFE15A"/>
<path d="M12.0669 9.80387C12.8955 9.80387 13.5673 9.57995 13.5673 9.30372C13.5673 9.02749 12.8955 8.80357 12.0669 8.80357C11.2382 8.80357 10.5664 9.02749 10.5664 9.30372C10.5664 9.57995 11.2382 9.80387 12.0669 9.80387Z" fill="#FFC75A"/>
<path d="M12.4339 6.52964C12.4339 6.36553 12.3114 6.15713 12.0666 6.303C11.8217 6.15713 11.6993 6.36553 11.6993 6.52964C11.6993 6.69375 11.5117 6.71718 11.4883 6.70153C11.4883 6.70153 11.6446 6.90473 11.8243 6.77184C11.8243 6.77184 11.9207 6.91251 12.0666 6.91251C12.2124 6.91251 12.3088 6.77184 12.3088 6.77184C12.4885 6.90468 12.6449 6.70153 12.6449 6.70153C12.6214 6.71718 12.4339 6.69375 12.4339 6.52964Z" fill="#FFC75A"/>
<path d="M11.5664 18.6503C11.5523 18.6503 11.538 18.6471 11.5246 18.6403C11.4782 18.6173 11.4594 18.5609 11.4826 18.5145L11.9827 17.5142C12.006 17.4683 12.0622 17.449 12.1085 17.4725C12.1549 17.4954 12.1737 17.5518 12.1505 17.5982L11.6504 18.5985C11.6339 18.6313 11.6008 18.6503 11.5664 18.6503Z" fill="#B46446"/>
<path d="M12.5667 18.6503C12.5323 18.6503 12.4992 18.6313 12.4827 18.5986L11.9826 17.5983C11.9594 17.5519 11.9782 17.4955 12.0246 17.4725C12.0708 17.4488 12.1272 17.4681 12.1504 17.5143L12.6505 18.5146C12.6737 18.561 12.6549 18.6174 12.6085 18.6403C12.5951 18.6472 12.5808 18.6503 12.5667 18.6503Z" fill="#B46446"/>
<path d="M14.3147 17.7751C12.8326 18.1064 11.2956 18.1064 9.81348 17.7751C9.81348 17.525 9.81348 17.0569 9.81348 16.8068C11.2956 17.1381 12.8326 17.1381 14.3147 16.8068C14.3147 17.0569 14.3147 17.525 14.3147 17.7751Z" fill="#F5F5F5"/>
<path d="M11.0535 17.4105C10.0964 17.5952 9.11558 17.6459 8.13965 17.5547C8.15605 17.6836 8.92789 18.0668 8.92789 18.0668C8.92789 18.0668 8.2469 18.396 8.26208 18.5151C9.19639 18.6024 10.1353 18.5608 11.0535 18.3951L11.0535 17.4105Z" fill="#F5F5F5"/>
<path d="M13.0782 17.4105C14.0353 17.5952 15.0161 17.6459 15.992 17.5547C15.9756 17.6836 15.2037 18.0668 15.2037 18.0668C15.2037 18.0668 15.8847 18.396 15.8696 18.5151C14.9352 18.6024 13.9963 18.5608 13.0781 18.3951L13.0782 17.4105Z" fill="#F5F5F5"/>
</g>
<defs>
<clipPath id="clip0_72_2935">
<path d="M0 2C0 0.895432 0.895431 0 2 0H21.9998C23.1043 0 23.9998 0.895431 23.9998 2V21.9998C23.9998 23.1043 23.1043 23.9998 21.9998 23.9998H2C0.895432 23.9998 0 23.1043 0 21.9998V2Z" fill="white"/>
</clipPath>
</defs>
</svg>
