<svg width="24" height="24" viewBox="0 0 24 24" fill="none" xmlns="http://www.w3.org/2000/svg">
<g clip-path="url(#clip0_72_3012)">
<path d="M0.00195312 18.3157V6.10352e-05H18.2087L0.00195312 18.3157Z" fill="#41479B"/>
<path d="M24.0016 5.68421V23.9998H5.79492L24.0016 5.68421Z" fill="#73AF00"/>
<path d="M24.0017 6.04031V6.10352e-05H17.9615L0.00195312 17.9596V23.9998H6.04221L24.0017 6.04031Z" fill="#F5F5F5"/>
<path d="M24.0017 3.77562V6.10352e-05H20.2262L0.00195312 20.2243V23.9998H3.77746L24.0017 3.77562Z" fill="#FF4B55"/>
<path d="M4.70135 3.5818C5.16489 3.5818 5.58451 3.76958 5.8884 4.07324L6.05504 2.91651L5.13578 3.63988L4.70135 2.5538L4.26691 3.63988L3.34766 2.91656L3.5143 4.07328C3.81818 3.76958 4.23785 3.5818 4.70135 3.5818Z" fill="#FFE15A"/>
<path d="M3.51358 6.44827C3.20993 6.14438 3.02215 5.72476 3.02215 5.26122C3.02215 4.79768 3.20993 4.37806 3.51358 4.07417L2.35686 3.90753L3.08022 4.82679L1.99414 5.26122L3.08022 5.69565L2.35686 6.61491L3.51358 6.44827Z" fill="#FFE15A"/>
<path d="M7.40904 5.26122L6.32296 4.82679L7.04632 3.90753L5.88965 4.07417C6.1933 4.37806 6.38108 4.79768 6.38108 5.26122C6.38108 5.72472 6.1933 6.14438 5.88965 6.44827L7.04632 6.61491L6.32296 5.69565L7.40904 5.26122Z" fill="#FFE15A"/>
<path d="M4.70135 6.94069C4.2378 6.94069 3.81818 6.75291 3.5143 6.44926L3.34766 7.60594L4.26691 6.88257L4.70135 7.96865L5.13578 6.88257L6.05504 7.60594L5.8884 6.44926C5.58456 6.75287 5.16489 6.94069 4.70135 6.94069Z" fill="#FFE15A"/>
<path d="M4.70116 6.63226C5.45839 6.63226 6.07224 6.01841 6.07224 5.26118C6.07224 4.50395 5.45839 3.8901 4.70116 3.8901C3.94393 3.8901 3.33008 4.50395 3.33008 5.26118C3.33008 6.01841 3.94393 6.63226 4.70116 6.63226Z" fill="#FFE15A"/>
</g>
<defs>
<clipPath id="clip0_72_3012">
<path d="M0 2C0 0.895432 0.895431 0 2 0H21.9998C23.1043 0 23.9998 0.895431 23.9998 2V21.9998C23.9998 23.1043 23.1043 23.9998 21.9998 23.9998H2C0.895432 23.9998 0 23.1043 0 21.9998V2Z" fill="white"/>
</clipPath>
</defs>
</svg>
