<svg width="24" height="24" viewBox="0 0 24 24" fill="none" xmlns="http://www.w3.org/2000/svg">
<g clip-path="url(#clip0_72_3130)">
<path d="M23.9998 6.10352e-05H0V23.9998H23.9998V6.10352e-05Z" fill="#FFE15A"/>
<path d="M4.42004 0.00012207H-0.000976562V0.936535L4.42004 3.83305V0.00012207Z" fill="#41479B"/>
<path d="M-0.000976562 3.20161V4.42115H1.86041L-0.000976562 3.20161Z" fill="#41479B"/>
<path d="M-0.000976562 7.57899V8.79852L1.86041 7.57899H-0.000976562Z" fill="#41479B"/>
<path d="M11.9991 0.936535V0.00012207H7.57812V3.83305L11.9991 0.936535Z" fill="#41479B"/>
<path d="M11.9991 8.79852V7.57899H10.1377L11.9991 8.79852Z" fill="#41479B"/>
<path d="M7.57812 8.16707V12H11.9991V11.0636L7.57812 8.16707Z" fill="#41479B"/>
<path d="M11.9991 4.42115V3.20161L10.1377 4.42115H11.9991Z" fill="#41479B"/>
<path d="M-0.000976562 11.0636V12H4.42004V8.16707L-0.000976562 11.0636Z" fill="#41479B"/>
<path d="M11.9988 11.0636V10.1278L8.07226 7.57898H9.23231L11.9988 9.37479V8.79852L10.1375 7.57898H11.9988V6.9474H6.94629V12H7.57783V8.16707L11.9988 11.0636Z" fill="#F5F5F5"/>
<path d="M-0.000976562 6.9474V7.57898H1.86041L-0.000976562 8.79852V9.68449L3.2426 7.57898H4.40265L-0.000976562 10.4375V11.0636L4.42004 8.16707V12H5.05158V6.9474H-0.000976562Z" fill="#F5F5F5"/>
<path d="M5.05158 0.00012207H4.42004V3.83305L-0.000976562 0.936535V1.96131L3.78846 4.42114H2.6284L-0.000976562 2.71435V3.20161L1.86041 4.42114H-0.000976562V5.05273H5.05158V0.00012207Z" fill="#F5F5F5"/>
<path d="M11.9988 5.05273V4.42114H10.1375L11.9988 3.20161V2.30433L8.73788 4.42114H7.57783L11.9988 1.55134V0.936535L7.57783 3.83305V0.00012207H6.94629V5.05273H11.9988Z" fill="#F5F5F5"/>
<path d="M11.9989 6.9474V5.05273H6.94635V0.00012207H5.05158V5.05273H-0.000976562V6.9474H5.05158V12H6.94635V6.9474H11.9989Z" fill="#FF4B55"/>
<path d="M3.2426 7.57899L-0.000976562 9.6845V10.4375L4.40265 7.57899H3.2426Z" fill="#FF4B55"/>
<path d="M8.07227 7.57899L11.9989 10.1278V9.3748L9.23232 7.57899H8.07227Z" fill="#FF4B55"/>
<path d="M3.78846 4.42115L-0.000976562 1.96131V2.71435L2.6284 4.42115H3.78846Z" fill="#FF4B55"/>
<path d="M8.73818 4.42114L11.9991 2.30433V1.55134L7.57812 4.42114H8.73818Z" fill="#FF4B55"/>
<path d="M7.53018 4.81755C8.73434 6.72136 6.72052 8.73523 4.81671 7.53102C4.67636 7.44224 4.55693 7.3228 4.46819 7.18251C3.26403 5.2787 5.27786 3.26483 7.18167 4.46903C7.32196 4.55777 7.4414 4.67721 7.53018 4.81755Z" fill="#41479B"/>
<path d="M6.10327 4.43497L6.41982 5.38408L7.42031 5.39182C7.54982 5.3928 7.60354 5.55813 7.49934 5.6351L6.6945 6.22942L6.99628 7.18332C7.03537 7.30683 6.89475 7.40897 6.78938 7.33364L5.9754 6.75184L5.16142 7.33364C5.05605 7.40897 4.91543 7.30678 4.95452 7.18332L5.2563 6.22942L4.45146 5.6351C4.34726 5.55813 4.40098 5.39285 4.53049 5.39182L5.53098 5.38408L5.84753 4.43497C5.88845 4.31211 6.06226 4.31211 6.10327 4.43497Z" fill="#FFE15A"/>
<path d="M2.32282 5.19556L2.49302 5.70583L3.03095 5.71C3.10061 5.71057 3.12948 5.79944 3.07347 5.84078L2.64072 6.16033L2.803 6.67318C2.824 6.7396 2.74839 6.79449 2.69177 6.75399L2.25415 6.4412L1.81653 6.75399C1.75985 6.79449 1.68425 6.73956 1.70529 6.67318L1.86757 6.16033L1.43483 5.84078C1.37881 5.79939 1.40769 5.71052 1.47734 5.71L2.01527 5.70583L2.18548 5.19556C2.20737 5.12951 2.30079 5.12951 2.32282 5.19556Z" fill="#FFE15A"/>
<path d="M9.81208 5.19556L9.98228 5.70583L10.5202 5.71C10.5899 5.71057 10.6187 5.79944 10.5627 5.84078L10.13 6.16033L10.2923 6.67318C10.3133 6.7396 10.2376 6.79449 10.181 6.75399L9.7434 6.4412L9.30578 6.75399C9.24911 6.79449 9.1735 6.73956 9.19455 6.67318L9.35683 6.16033L8.92408 5.84078C8.86807 5.79939 8.89694 5.71052 8.9666 5.71L9.50453 5.70583L9.67473 5.19556C9.69662 5.12951 9.79004 5.12951 9.81208 5.19556Z" fill="#FFE15A"/>
<path d="M6.05231 1.36215L6.22251 1.87243L6.76044 1.8766C6.8301 1.87716 6.85897 1.96604 6.80296 2.00738L6.37021 2.32692L6.53249 2.83978C6.55349 2.9062 6.47788 2.96109 6.42126 2.92059L5.98364 2.6078L5.54602 2.92059C5.48935 2.96109 5.41374 2.90615 5.43478 2.83978L5.59706 2.32692L5.16432 2.00738C5.1083 1.96599 5.13718 1.87712 5.20683 1.8766L5.74477 1.87243L5.91497 1.36215C5.93686 1.29611 6.03028 1.29611 6.05231 1.36215Z" fill="#FFE15A"/>
<path d="M6.05231 9.11924L6.22251 9.62951L6.76044 9.63369C6.8301 9.63425 6.85897 9.72312 6.80296 9.76447L6.37021 10.084L6.53249 10.5969C6.55349 10.6633 6.47788 10.7182 6.42126 10.6777L5.98364 10.3649L5.54602 10.6777C5.48935 10.7182 5.41374 10.6632 5.43478 10.5969L5.59706 10.084L5.16432 9.76447C5.1083 9.72308 5.13718 9.6342 5.20683 9.63369L5.74477 9.62951L5.91497 9.11924C5.93686 9.05314 6.03028 9.05314 6.05231 9.11924Z" fill="#FFE15A"/>
</g>
<defs>
<clipPath id="clip0_72_3130">
<path d="M0 2C0 0.895432 0.895431 0 2 0H21.9998C23.1043 0 23.9998 0.895431 23.9998 2V21.9998C23.9998 23.1043 23.1043 23.9998 21.9998 23.9998H2C0.895432 23.9998 0 23.1043 0 21.9998V2Z" fill="white"/>
</clipPath>
</defs>
</svg>
