<svg width="24" height="24" viewBox="0 0 24 24" fill="none" xmlns="http://www.w3.org/2000/svg">
<g clip-path="url(#clip0_72_3159)">
<path d="M7.9991 6.10352e-05H-0.000976562V23.9998H7.9991V6.10352e-05Z" fill="#73AF00"/>
<path d="M15.9991 6.10352e-05H7.99902V23.9998H15.9991V6.10352e-05Z" fill="#F5F5F5"/>
<path d="M23.9962 0.00012207H15.9961V23.9999H23.9962V0.00012207Z" fill="#73AF00"/>
<path d="M14.7604 16.0593L13.4762 8.56818C13.4272 8.28215 13.3254 8.0077 13.1761 7.75889L11.9966 5.79316L10.8172 7.75884C10.6679 8.0077 10.5662 8.2821 10.5171 8.56813L9.23292 16.0593C9.2084 16.2024 9.3186 16.3331 9.46377 16.3331H11.5282V18.2068H12.4651V16.3331H14.5295C14.6747 16.3331 14.7849 16.2024 14.7604 16.0593Z" fill="#73AF00"/>
</g>
<defs>
<clipPath id="clip0_72_3159">
<path d="M0 2C0 0.895432 0.895431 0 2 0H21.9998C23.1043 0 23.9998 0.895431 23.9998 2V21.9998C23.9998 23.1043 23.1043 23.9998 21.9998 23.9998H2C0.895432 23.9998 0 23.1043 0 21.9998V2Z" fill="white"/>
</clipPath>
</defs>
</svg>
