<svg width="24" height="24" viewBox="0 0 24 24" fill="none" xmlns="http://www.w3.org/2000/svg">
<g clip-path="url(#clip0_72_3180)">
<path d="M23.9988 6.10352e-05H-0.000976562V23.9998H23.9988V6.10352e-05Z" fill="#4173CD"/>
<path d="M11.998 17.9999C8.68968 17.9999 5.99805 15.3083 5.99805 11.9999C5.99805 8.69163 8.68968 6 11.998 6C15.3063 6 17.9979 8.69163 17.9979 11.9999C17.9979 15.3083 15.3063 17.9999 11.998 17.9999ZM11.998 7.24138C9.37405 7.24138 7.23943 9.376 7.23943 11.9999C7.23943 14.6239 9.37405 16.7585 11.998 16.7585C14.6219 16.7585 16.7566 14.6239 16.7566 11.9999C16.7566 9.376 14.6219 7.24138 11.998 7.24138Z" fill="#F5F5F5"/>
<path d="M12.0012 17.5862C8.921 17.5862 6.41504 15.0802 6.41504 12C6.41504 8.91986 8.921 6.4139 12.0012 6.4139C15.0813 6.4139 17.5873 8.91986 17.5873 12C17.5873 15.0802 15.0813 17.5862 12.0012 17.5862ZM12.0012 6.82767C9.14909 6.82767 6.8288 9.14796 6.8288 12C6.8288 14.8521 9.14909 17.1724 12.0012 17.1724C14.8533 17.1724 17.1735 14.8521 17.1735 12C17.1735 9.14796 14.8533 6.82767 12.0012 6.82767Z" fill="#FFDC00"/>
<path d="M6.99918 11.8241C7.14983 12.1851 6.80685 12.5281 6.44582 12.3774C6.35526 12.3396 6.28218 12.2666 6.2444 12.176C6.09375 11.815 6.43673 11.472 6.79776 11.6227C6.88832 11.6604 6.96139 11.7335 6.99918 11.8241Z" fill="#FFDC00"/>
<path d="M17.758 11.8241C17.9086 12.1851 17.5656 12.5281 17.2046 12.3774C17.114 12.3396 17.041 12.2666 17.0032 12.176C16.8525 11.815 17.1955 11.472 17.5565 11.6227C17.6471 11.6604 17.7201 11.7335 17.758 11.8241Z" fill="#FFDC00"/>
<path d="M12.1767 6.99815C11.8157 7.14881 11.4726 6.80583 11.6233 6.4448C11.6611 6.35424 11.7342 6.28116 11.8247 6.24338C12.1857 6.09272 12.5287 6.43571 12.3781 6.79673C12.3403 6.88729 12.2672 6.96037 12.1767 6.99815Z" fill="#FFDC00"/>
<path d="M8.58888 8.33876C8.44014 8.70058 7.95504 8.70058 7.8063 8.33876C7.76899 8.24801 7.76899 8.14465 7.8063 8.0539C7.95504 7.69208 8.44014 7.69208 8.58888 8.0539C8.62619 8.14465 8.62619 8.24801 8.58888 8.33876Z" fill="#FFDC00"/>
<path d="M15.662 8.58762C15.3002 8.43889 15.3002 7.95378 15.662 7.80505C15.7527 7.76774 15.8561 7.76774 15.9468 7.80505C16.3087 7.95378 16.3087 8.43889 15.9468 8.58762C15.8561 8.62493 15.7527 8.62493 15.662 8.58762Z" fill="#FFDC00"/>
<path d="M17.2519 9.63452C17.5293 9.91038 17.3436 10.3585 16.9524 10.3575C16.8543 10.3572 16.7588 10.3177 16.6892 10.2485C16.4119 9.97263 16.5975 9.52446 16.9887 9.52549C17.0869 9.52577 17.1823 9.56529 17.2519 9.63452Z" fill="#FFDC00"/>
<path d="M10.2494 7.31161C9.97351 7.58896 9.52534 7.40329 9.52637 7.01213C9.52665 6.91397 9.56617 6.81853 9.6354 6.74893C9.91126 6.47157 10.3594 6.65719 10.3584 7.04841C10.3581 7.14656 10.3185 7.242 10.2494 7.31161Z" fill="#FFDC00"/>
<path d="M7.44726 9.92336C7.44829 10.3145 7.00012 10.5002 6.72427 10.2228C6.65508 10.1533 6.61552 10.0578 6.61524 9.95964C6.6142 9.56847 7.06237 9.3828 7.33823 9.66016C7.40742 9.72972 7.44698 9.82521 7.44726 9.92336Z" fill="#FFDC00"/>
<path d="M14.0776 7.44628C13.6864 7.44731 13.5007 6.99914 13.7781 6.72329C13.8476 6.6541 13.9431 6.61454 14.0413 6.61426C14.4324 6.61322 14.6181 7.06139 14.3408 7.33725C14.2712 7.40644 14.1757 7.446 14.0776 7.44628Z" fill="#FFDC00"/>
<path d="M17.613 10.7044C17.8312 11.029 17.5616 11.4324 17.1782 11.355C17.082 11.3356 16.9961 11.2782 16.9413 11.1968C16.7231 10.8721 16.9927 10.4688 17.3761 10.5461C17.4723 10.5655 17.5582 10.623 17.613 10.7044Z" fill="#FFDC00"/>
<path d="M11.1984 7.05998C10.8737 7.27819 10.4704 7.00866 10.5477 6.62522C10.5671 6.52904 10.6246 6.44312 10.706 6.38837C11.0306 6.17017 11.434 6.43969 11.3566 6.82313C11.3372 6.91931 11.2799 7.00524 11.1984 7.05998Z" fill="#FFDC00"/>
<path d="M7.94039 9.07484C7.86511 9.4587 7.38934 9.55334 7.17287 9.22751C7.11854 9.14576 7.09839 9.04442 7.11728 8.94814C7.19256 8.56428 7.66833 8.46964 7.8848 8.79547C7.93913 8.87722 7.95928 8.97856 7.94039 9.07484Z" fill="#FFDC00"/>
<path d="M14.9266 7.93888C14.5428 7.8636 14.4481 7.38783 14.774 7.17136C14.8557 7.11703 14.9571 7.09688 15.0533 7.11577C15.4372 7.19105 15.5318 7.66682 15.206 7.88329C15.1243 7.93762 15.0229 7.95777 14.9266 7.93888Z" fill="#FFDC00"/>
<path d="M16.6904 8.6555C17.0162 8.87197 16.9216 9.34775 16.5377 9.42303C16.4414 9.44192 16.34 9.42176 16.2583 9.36743C15.9325 9.15097 16.0272 8.67519 16.411 8.59991C16.5073 8.58107 16.6086 8.60122 16.6904 8.6555Z" fill="#FFDC00"/>
<path d="M9.36918 7.74337C9.15271 8.06919 8.67693 7.97455 8.60165 7.59069C8.58276 7.49437 8.60292 7.39303 8.65724 7.31132C8.87371 6.9855 9.34949 7.08014 9.42477 7.46399C9.44361 7.56032 9.42346 7.66162 9.36918 7.74337Z" fill="#FFDC00"/>
<path d="M7.12911 10.8517C7.20645 11.2351 6.8031 11.5046 6.47844 11.2864C6.39697 11.2317 6.3396 11.1458 6.32019 11.0496C6.24285 10.6661 6.64621 10.3966 6.97086 10.6148C7.05233 10.6695 7.1097 10.7554 7.12911 10.8517Z" fill="#FFDC00"/>
<path d="M13.1495 7.1286C12.7661 7.20594 12.4966 6.80259 12.7148 6.47794C12.7695 6.39647 12.8554 6.33909 12.9516 6.31969C13.3351 6.24234 13.6046 6.6457 13.3864 6.97035C13.3317 7.05182 13.2458 7.10919 13.1495 7.1286Z" fill="#FFDC00"/>
<path d="M17.3776 12.2069C17.2632 12.2069 17.1707 12.1143 17.1707 11.9999C17.1707 9.14787 14.8504 6.82758 11.9983 6.82758C9.14621 6.82758 6.82592 9.14787 6.82592 11.9999C6.82592 12.1143 6.73339 12.2069 6.61901 12.2069C6.50464 12.2069 6.41211 12.1143 6.41211 11.9999C6.41211 8.91978 8.91807 6.41382 11.9982 6.41382C15.0784 6.41382 17.5844 8.91978 17.5844 11.9999C17.5844 12.1143 17.4919 12.2069 17.3776 12.2069Z" fill="#FFA000"/>
<path d="M13.1475 18.2068H10.8482C10.3568 18.2068 9.97372 17.7812 10.0251 17.2926L10.7565 10.3448H13.2392L13.9706 17.2926C14.022 17.7812 13.6389 18.2068 13.1475 18.2068Z" fill="#B4B4B4"/>
<path d="M13.2281 10.3448H10.7592C10.6504 10.3448 10.5591 10.2629 10.5473 10.1547L10.3931 8.73429C10.3665 8.48951 10.5582 8.27581 10.8045 8.27581H13.1925C13.4387 8.27581 13.6304 8.48951 13.6039 8.73429L13.4507 10.1451C13.4383 10.2587 13.3424 10.3448 13.2281 10.3448Z" fill="#AAAAAA"/>
<path d="M12.0943 8.75777L12.8613 10.9645L15.1971 11.0121C15.2933 11.0141 15.333 11.1363 15.2563 11.1944L13.3946 12.6058L14.0712 14.842C14.099 14.9341 13.9951 15.0096 13.9161 14.9546L11.9985 13.6203L10.0808 14.9547C10.0018 15.0096 9.89786 14.9341 9.92571 14.842L10.6022 12.6058L8.74053 11.1944C8.66389 11.1363 8.70359 11.0141 8.79973 11.0122L11.1355 10.9646L11.9026 8.75782C11.9342 8.66693 12.0627 8.66693 12.0943 8.75777Z" fill="#F5F5F5"/>
</g>
<defs>
<clipPath id="clip0_72_3180">
<path d="M0 2C0 0.895432 0.895431 0 2 0H21.9998C23.1043 0 23.9998 0.895431 23.9998 2V21.9998C23.9998 23.1043 23.1043 23.9998 21.9998 23.9998H2C0.895432 23.9998 0 23.1043 0 21.9998V2Z" fill="white"/>
</clipPath>
</defs>
</svg>
