<svg width="24" height="24" viewBox="0 0 24 24" fill="none" xmlns="http://www.w3.org/2000/svg">
<g clip-path="url(#clip0_72_3210)">
<path d="M23.9978 6.10352e-05H-0.00195312V8.00014H23.9978V6.10352e-05Z" fill="#F5F5F5"/>
<path d="M23.9978 15.9998H-0.00195312V23.9998H23.9978V15.9998Z" fill="#73AF00"/>
<path d="M23.9959 8.0002H-0.00390625V16.0003H23.9959V8.0002Z" fill="#FF4B55"/>
<path d="M9.46944 0.00012207H-0.00390625V23.9999H9.46944V0.00012207Z" fill="#FF4B55"/>
<path d="M2.58219 5.23495C2.54685 5.23898 2.51273 5.24324 2.47949 5.24765V5.69746C2.51296 5.70599 2.54709 5.71442 2.58219 5.72267V5.23495Z" fill="#F5F5F5"/>
<path d="M4.13806 6.09224C4.04431 6.08474 3.90021 6.0703 3.72818 6.0493L2.64941 7.00877C2.78915 7.03015 2.95663 7.05841 3.02657 7.08068C3.30364 6.8382 3.67526 6.50773 4.13806 6.09224Z" fill="#F5F5F5"/>
<path d="M5.76071 4.56618V4.51894V4.47379H3.84668V4.51894V4.56618V4.61137H5.76071V4.56618Z" fill="#F5F5F5"/>
<path d="M4.34375 1.82885C4.34375 1.96362 4.54686 2.07748 4.78737 2.07748C5.02784 2.07748 5.23099 1.96362 5.23099 1.82885C5.23099 1.69409 5.02788 1.58023 4.78737 1.58023C4.54686 1.58023 4.34375 1.69409 4.34375 1.82885Z" fill="#F5F5F5"/>
<path d="M3.92868 5.17406C3.49659 5.17195 3.06543 5.18779 2.71289 5.22112V5.75211C3.12707 5.84099 3.60955 5.9091 3.92868 5.94299V5.17406Z" fill="#F5F5F5"/>
<path d="M1.70312 7.79463C1.87389 7.79102 2.24903 7.72352 2.50299 7.5251C2.58174 7.4636 2.71613 7.3504 2.90508 7.18624C2.77693 7.15994 2.56201 7.12812 2.44735 7.11232L1.70312 7.79463Z" fill="#F5F5F5"/>
<path d="M4.17593 4.34236V4.10095C4.14354 4.05267 4.11011 4.00303 4.07608 3.95245L3.78223 4.16615C3.84068 4.26665 3.87823 4.33054 3.88512 4.34231L4.17593 4.34236Z" fill="#F5F5F5"/>
<path d="M1.91481 5.43233C1.91382 5.43632 1.91153 5.44541 1.92634 5.46444C1.9809 5.53433 2.13868 5.60108 2.34807 5.66183V5.26715C2.09659 5.30887 1.93192 5.36399 1.91481 5.43233Z" fill="#F5F5F5"/>
<path d="M5.27601 5.2439V4.74281H4.30664V5.9668H4.55311C4.95168 5.9668 5.27601 5.64247 5.27601 5.2439Z" fill="#F5F5F5"/>
<path d="M3.71828 3.42367C3.19929 2.65863 2.645 1.85468 2.50977 1.6954C2.52912 1.76665 2.57595 1.90038 2.68522 2.15079C2.82626 2.47399 3.16854 3.09358 3.45185 3.59237L3.71828 3.42367Z" fill="#F5F5F5"/>
<path d="M3.5166 3.70678C3.59038 3.83602 3.65807 3.95353 3.71502 4.05192L4.00171 3.84342C3.93346 3.74222 3.86333 3.63844 3.79166 3.5326L3.5166 3.70678Z" fill="#F5F5F5"/>
<path d="M4.17558 5.96445V5.17715C4.13733 5.17635 4.09903 5.1756 4.06055 5.17504V5.95583C4.10489 5.95976 4.14347 5.96262 4.17558 5.96445Z" fill="#F5F5F5"/>
<path d="M5.27601 3.66666H4.30664V3.80424H5.27601V3.66666Z" fill="#F5F5F5"/>
<path d="M6.62402 4.33411V4.34231H6.67329C6.70962 4.34231 6.73901 4.3717 6.73901 4.40803V4.67704C6.73901 4.71337 6.70962 4.74276 6.67329 4.74276H6.62402V4.75096C6.62402 4.78715 6.65346 4.81668 6.68974 4.81668H7.79875C7.83503 4.81668 7.86446 4.78715 7.86446 4.75096V4.33406C7.86446 4.29787 7.83503 4.26834 7.79875 4.26834H6.68974C6.65346 4.26839 6.62402 4.29792 6.62402 4.33411Z" fill="#F5F5F5"/>
<path d="M7.86385 7.79088L7.12375 7.11227C7.00914 7.12807 6.79417 7.1599 6.66602 7.1862C6.85844 7.35307 6.99273 7.46627 7.06811 7.52519C7.31809 7.72042 7.68549 7.78881 7.86385 7.79088Z" fill="#F5F5F5"/>
<path d="M6.34375 4.51894V4.56618V4.61137H6.60662V4.47379H6.34375V4.51894Z" fill="#F5F5F5"/>
<path d="M6.54514 7.08082C6.61499 7.05841 6.7828 7.0301 6.92276 7.00872L5.33344 5.59044C5.29031 5.68714 5.23026 5.77466 5.15625 5.84848L5.19806 5.88584C5.77392 6.40132 6.22391 6.80037 6.54514 7.08082Z" fill="#F5F5F5"/>
<path d="M2.98458 4.75102V4.74281H2.93527C2.89894 4.74281 2.86955 4.71342 2.86955 4.6771V4.40808C2.86955 4.37176 2.89894 4.34237 2.93527 4.34237H2.98458V4.33416C2.98458 4.29798 2.95514 4.26844 2.91886 4.26844H1.80986C1.77358 4.26844 1.74414 4.29798 1.74414 4.33416V4.75106C1.74414 4.78725 1.77358 4.81678 1.80986 4.81678H2.91886C2.9551 4.81674 2.98458 4.78725 2.98458 4.75102Z" fill="#F5F5F5"/>
<path d="M3.26385 4.56618V4.51894V4.47379H3.00098V4.61137H3.26385V4.56618Z" fill="#F5F5F5"/>
<path d="M5.79032 4.16615L5.49647 3.95245C5.46637 3.99717 5.43703 4.04086 5.4082 4.08375V4.34236H5.68739C5.69433 4.33059 5.73187 4.26665 5.79032 4.16615Z" fill="#F5F5F5"/>
<path d="M4.39453 3.26415H5.18835L5.01365 3.07033H4.56928L4.39453 3.26415Z" fill="#F5F5F5"/>
<path d="M5.27601 3.40183H4.30664V3.53533H5.27601V3.40183Z" fill="#F5F5F5"/>
<path d="M4.78719 2.20891C4.72335 2.20891 4.66344 2.20071 4.60645 2.18857V2.93143H4.97202V2.18777C4.91394 2.20047 4.85258 2.20891 4.78719 2.20891Z" fill="#F5F5F5"/>
<path d="M4.30669 4.0733H5.27179C5.2716 4.06505 5.27301 4.05708 5.27601 4.04911V3.93572H4.30664L4.30669 4.0733Z" fill="#F5F5F5"/>
<path d="M5.56934 3.84342L5.85602 4.05192C5.91297 3.95353 5.98071 3.83602 6.05449 3.70678L5.77938 3.5326C5.70771 3.63839 5.63754 3.74222 5.56934 3.84342Z" fill="#F5F5F5"/>
<path d="M5.27601 4.20478H4.30664V4.34236H5.27601V4.20478Z" fill="#F5F5F5"/>
<path d="M6.12 3.59232C6.40331 3.09358 6.74559 2.47399 6.88663 2.15079C6.99618 1.89973 7.04296 1.76586 7.06227 1.69489C6.92943 1.85079 6.37378 2.65671 5.85352 3.42367L6.12 3.59232Z" fill="#F5F5F5"/>
<path d="M8.04349 7.78039L7.18644 6.99445C7.17204 6.98123 7.15269 6.97481 7.13323 6.97776C7.12597 6.97874 7.10942 6.98095 7.08744 6.98404C7.08626 6.98282 7.08575 6.98123 7.08448 6.98006L5.37619 5.4556C5.39363 5.38773 5.40384 5.317 5.40384 5.24378V4.74269H5.81821C5.87156 4.81211 5.95453 4.85772 6.0487 4.85772C6.14287 4.85772 6.22584 4.81216 6.27918 4.74269H6.48819V4.75089C6.48819 4.85959 6.57664 4.94805 6.68535 4.94805H7.79435C7.90305 4.94805 7.99151 4.85959 7.99151 4.75089V4.33399C7.99151 4.22529 7.90305 4.13684 7.79435 4.13684H6.68535C6.57664 4.13684 6.48819 4.22529 6.48819 4.33399V4.34219H6.27918C6.22584 4.27277 6.14287 4.22716 6.0487 4.22716C5.97735 4.22716 5.91276 4.25388 5.86204 4.29658C6.08357 3.91737 6.77947 2.71546 7.00302 2.20326C7.24278 1.65366 7.22347 1.58264 7.16675 1.53708C7.10694 1.48922 7.03128 1.54425 7.00269 1.5652C6.89277 1.64508 5.82646 3.22034 5.4038 3.84814V3.3297C5.4038 3.32825 5.40305 3.32703 5.40295 3.32558L5.40291 3.32539C5.40141 3.30312 5.38894 3.28461 5.37075 3.27392L5.09982 2.97346V2.14739C5.25647 2.08017 5.35856 1.96397 5.35856 1.82878C5.35856 1.61569 5.10596 1.44872 4.78351 1.44872C4.46106 1.44872 4.20845 1.61573 4.20845 1.82878C4.20845 1.96509 4.31246 2.0819 4.47132 2.14884V2.97852L4.2055 3.27336C4.18553 3.28466 4.17151 3.30523 4.17151 3.3298V3.86538C3.757 3.24959 2.672 1.64588 2.56114 1.56525C2.53245 1.54444 2.4567 1.48941 2.39703 1.53713C2.34031 1.58269 2.321 1.65366 2.56076 2.20331C2.77718 2.69924 3.43638 3.84167 3.67914 4.25801C3.64038 4.23893 3.59735 4.22721 3.55131 4.22721C3.45714 4.22721 3.37418 4.27277 3.32083 4.34224H3.11182V4.33404C3.11182 4.22533 3.02337 4.13688 2.91466 4.13688H1.80575C1.69705 4.13688 1.6086 4.22533 1.6086 4.33404V4.75094C1.6086 4.85964 1.69705 4.94809 1.80575 4.94809H2.91476C3.02346 4.94809 3.11191 4.85964 3.11191 4.75094V4.74274H3.32093C3.37427 4.81216 3.45724 4.85777 3.55141 4.85777C3.64558 4.85777 3.72855 4.8122 3.78189 4.74274H4.17161V5.04531C3.56228 5.03223 1.87555 5.03031 1.78307 5.40043C1.77449 5.4347 1.77364 5.48785 1.8185 5.54523C1.9963 5.77294 2.89727 5.93916 3.55094 6.027L2.47948 6.97996C2.47817 6.98114 2.47761 6.98278 2.47643 6.98404C2.45445 6.98099 2.4379 6.97874 2.43064 6.97776C2.41086 6.97495 2.39173 6.98123 2.37744 6.99445L1.52033 7.78039C1.49446 7.80402 1.49179 7.84391 1.51429 7.87086C1.54274 7.90499 1.61483 7.92167 1.7114 7.92167C1.949 7.92167 2.33436 7.82038 2.58003 7.62852C2.78253 7.47037 3.34343 6.97865 4.24731 6.16678C4.28645 6.13168 4.31237 6.10833 4.32385 6.09811H4.54946C4.73691 6.09811 4.90993 6.03671 5.05097 5.93391L5.10666 5.9836C6.14732 6.91509 6.77881 7.46844 6.9838 7.62847C7.22947 7.82047 7.61473 7.92163 7.85233 7.92163C7.94894 7.92163 8.02104 7.90494 8.04954 7.87081C8.07204 7.84396 8.06932 7.80402 8.04349 7.78039ZM4.30304 5.96672V4.74274H5.27241V5.24382C5.27241 5.64235 4.94813 5.96672 4.54951 5.96672H4.30304ZM2.34383 5.66176C2.13444 5.60101 1.97666 5.53426 1.9221 5.46437C1.90728 5.44538 1.90958 5.43624 1.91057 5.43226C1.92767 5.36392 2.09234 5.30879 2.34383 5.26707V5.66176ZM2.50592 1.69533C2.64115 1.85465 3.19544 2.6586 3.71444 3.42359L3.448 3.59229C3.16469 3.09355 2.82242 2.47391 2.68137 2.15071C2.57211 1.90031 2.52532 1.76653 2.50592 1.69533ZM4.07176 3.95238C4.10579 4.00291 4.13917 4.0526 4.17161 4.10088V4.34229H3.8808C3.87386 4.33052 3.83636 4.26663 3.77791 4.16613L4.07176 3.95238ZM3.71163 4.05185C3.65467 3.95346 3.58699 3.83595 3.51321 3.70671L3.78831 3.53253C3.85998 3.63832 3.93011 3.74215 3.99836 3.84335L3.71163 4.05185ZM4.17161 5.17712V5.96443C4.1395 5.9626 4.10092 5.95974 4.05658 5.95585V5.17501C4.09506 5.17558 4.13336 5.17628 4.17161 5.17712ZM2.70935 5.22104C3.0619 5.18772 3.49305 5.17187 3.92514 5.17398V5.94291C3.60602 5.90902 3.12354 5.84091 2.70935 5.75204V5.22104ZM2.47526 5.24757C2.5085 5.24317 2.54257 5.2389 2.57796 5.23487V5.72265C2.54286 5.7144 2.50878 5.70596 2.47526 5.69743V5.24757ZM3.72395 6.04918C3.89598 6.07018 4.04003 6.08466 4.13382 6.09211C3.67103 6.50766 3.29941 6.83807 3.02234 7.0806C2.9524 7.05829 2.78496 7.03003 2.64518 7.0087L3.72395 6.04918ZM2.90126 7.18612C2.71231 7.35027 2.57792 7.46347 2.49917 7.52497C2.2452 7.72339 1.87011 7.79094 1.6993 7.7945L2.44353 7.11215C2.55818 7.12799 2.7731 7.15982 2.90126 7.18612ZM3.84301 4.6113V4.56611V4.51886V4.47368H5.75704V4.51886V4.56611V4.6113H3.84301ZM5.22722 1.82878C5.22722 1.96354 5.02411 2.0774 4.7836 2.0774C4.54313 2.0774 4.33998 1.96354 4.33998 1.82878C4.33998 1.69402 4.54309 1.58016 4.7836 1.58016C5.02407 1.58016 5.22722 1.69402 5.22722 1.82878ZM4.30304 3.80421V3.66659H5.27241V3.80417L4.30304 3.80421ZM5.27241 3.93565V4.04904C5.26941 4.05701 5.268 4.06498 5.26819 4.07323H4.30304V3.93565H5.27241ZM4.30304 3.53515V3.40166H5.27241V3.53515H4.30304ZM5.0101 3.07025L5.18485 3.26408H4.39098L4.56573 3.07025H5.0101ZM4.6029 2.93136V2.18849C4.65985 2.20064 4.71976 2.20884 4.78365 2.20884C4.84904 2.20884 4.91035 2.2004 4.96847 2.18765V2.93136H4.6029ZM4.30304 4.20466H5.27241V4.34224H4.30304V4.20466ZM6.8825 2.15071C6.74146 2.47391 6.39918 3.0935 6.11587 3.59225L5.84943 3.42355C6.36965 2.65658 6.9253 1.85067 7.05819 1.69477C7.03883 1.76578 6.99205 1.89965 6.8825 2.15071ZM6.20887 4.51886V4.56611C6.20887 4.65442 6.13701 4.72628 6.0487 4.72628C5.96038 4.72628 5.88853 4.65442 5.88853 4.56611V4.51886C5.88853 4.43055 5.96038 4.35869 6.0487 4.35869C6.13701 4.35869 6.20887 4.4306 6.20887 4.51886ZM5.85225 4.05185L5.56556 3.84335C5.63376 3.74215 5.70393 3.63837 5.77556 3.53253L6.05067 3.70671C5.97688 3.8359 5.9092 3.95342 5.85225 4.05185ZM5.40384 4.08368C5.43267 4.04074 5.46201 3.9971 5.49211 3.95238L5.78596 4.16609C5.72747 4.26663 5.68997 4.33052 5.68303 4.34229H5.40384V4.08368ZM5.32969 5.59037L6.91902 7.00865C6.7791 7.03003 6.61128 7.05834 6.54139 7.08074C6.22016 6.80029 5.77017 6.4012 5.19431 5.88572L5.1525 5.84837C5.22647 5.77458 5.28656 5.68707 5.32969 5.59037ZM7.12034 7.1122L7.86044 7.7908C7.68209 7.78874 7.31468 7.72035 7.0647 7.52511C6.98937 7.46619 6.85503 7.35299 6.66261 7.18612C6.79077 7.15982 7.00573 7.12799 7.12034 7.1122ZM7.86007 4.33404V4.75094C7.86007 4.78713 7.83063 4.81666 7.79435 4.81666H6.68535C6.64907 4.81666 6.61963 4.78713 6.61963 4.75094V4.74274H6.66889C6.70522 4.74274 6.73461 4.71335 6.73461 4.67702V4.408C6.73461 4.37168 6.70522 4.34229 6.66889 4.34229H6.61963V4.33408C6.61963 4.2979 6.64907 4.26837 6.68535 4.26837H7.79435C7.83059 4.26832 7.86007 4.29785 7.86007 4.33404ZM6.60318 4.6113H6.3403V4.56611V4.51886V4.47368H6.60318V4.6113ZM1.74004 4.75094V4.33404C1.74004 4.29785 1.76947 4.26832 1.80575 4.26832H2.91476C2.95104 4.26832 2.98048 4.29785 2.98048 4.33404V4.34224H2.93116C2.89484 4.34224 2.86545 4.37163 2.86545 4.40796V4.67697C2.86545 4.7133 2.89484 4.74269 2.93116 4.74269H2.98048V4.75089C2.98048 4.78708 2.95104 4.81661 2.91476 4.81661H1.80575C1.76947 4.81666 1.74004 4.78717 1.74004 4.75094ZM2.99688 4.47372H3.25976V4.51891V4.56616V4.61135H2.99688V4.47372ZM3.71158 4.56611C3.71158 4.65442 3.63972 4.72628 3.55141 4.72628C3.4631 4.72628 3.39124 4.65442 3.39124 4.56611V4.51886C3.39124 4.43055 3.4631 4.35869 3.55141 4.35869C3.63972 4.35869 3.71158 4.43055 3.71158 4.51886V4.56611Z" fill="#D23741"/>
</g>
<defs>
<clipPath id="clip0_72_3210">
<path d="M0 2C0 0.895432 0.895431 0 2 0H21.9998C23.1043 0 23.9998 0.895431 23.9998 2V21.9998C23.9998 23.1043 23.1043 23.9998 21.9998 23.9998H2C0.895432 23.9998 0 23.1043 0 21.9998V2Z" fill="white"/>
</clipPath>
</defs>
</svg>
