<svg width="24" height="24" viewBox="0 0 24 24" fill="none" xmlns="http://www.w3.org/2000/svg">
<g clip-path="url(#clip0_72_3249)">
<path d="M23.9972 6.10352e-05H6.2041V23.9998H23.9972V6.10352e-05Z" fill="#73AF00"/>
<path d="M6.20178 0.00012207H-0.00488281V23.9999H6.20178V0.00012207Z" fill="#F5F5F5"/>
<path d="M19.712 14.3503C17.6425 16.1939 14.4744 16.0044 12.6345 13.9312C10.7982 11.8619 10.9841 8.68461 13.0535 6.84113C13.0565 6.83846 13.0595 6.83579 13.0625 6.83311C13.1114 6.79008 13.0642 6.71204 13.0035 6.73566C10.9626 7.53042 9.51562 9.51556 9.51562 11.8399C9.51562 14.8676 11.964 17.3197 14.9845 17.3197C17.0739 17.3197 18.8846 16.144 19.8044 14.4181C19.8351 14.3605 19.7632 14.3044 19.7145 14.3479C19.7137 14.3487 19.7129 14.3495 19.712 14.3503Z" fill="#F5F5F5"/>
<path d="M17.0502 7.74947L17.7694 8.55632L18.7656 8.13708C18.8946 8.0828 19.0185 8.22394 18.9479 8.34478L18.4027 9.2781L19.1093 10.096C19.2008 10.2019 19.1048 10.3633 18.9681 10.3335L17.912 10.1035L17.3525 11.0282C17.2801 11.1479 17.0969 11.1065 17.083 10.9673L16.9754 9.89183L15.923 9.64545C15.7867 9.61353 15.7695 9.4266 15.8976 9.3703L16.8873 8.93568L16.7964 7.85864C16.7847 7.71914 16.9572 7.64499 17.0502 7.74947Z" fill="#F5F5F5"/>
</g>
<defs>
<clipPath id="clip0_72_3249">
<path d="M0 2C0 0.895432 0.895431 0 2 0H21.9998C23.1043 0 23.9998 0.895431 23.9998 2V21.9998C23.9998 23.1043 23.1043 23.9998 21.9998 23.9998H2C0.895432 23.9998 0 23.1043 0 21.9998V2Z" fill="white"/>
</clipPath>
</defs>
</svg>
