<svg width="24" height="24" viewBox="0 0 24 24" fill="none" xmlns="http://www.w3.org/2000/svg">
<g clip-path="url(#clip0_72_3263)">
<path d="M23.9968 6.10352e-05H-0.00292969V23.9998H23.9968V6.10352e-05Z" fill="#F5F5F5"/>
<path d="M23.997 6.10352e-05H11.9971V11.9999H23.997V6.10352e-05Z" fill="#FF4B55"/>
<path d="M11.993 11.9999H-0.00683594V23.9997H11.993V11.9999Z" fill="#4173CD"/>
<path d="M6.15244 4.23505L6.54693 5.41789L7.7938 5.42754C7.95523 5.42881 8.02217 5.63482 7.89228 5.73068L6.88926 6.47139L7.26538 7.66018C7.31408 7.81407 7.13882 7.94142 7.00752 7.84753L5.99307 7.12253L4.97865 7.84758C4.84731 7.94147 4.67209 7.81411 4.7208 7.66022L5.09692 6.47144L4.0939 5.73073C3.96405 5.63482 4.03099 5.42881 4.19238 5.42759L5.43924 5.41793L5.83374 4.2351C5.88474 4.08191 6.10139 4.08191 6.15244 4.23505Z" fill="#4173CD"/>
<path d="M18.1563 16.235L18.5508 17.4178L19.7977 17.4275C19.9591 17.4288 20.0261 17.6348 19.8962 17.7306L18.8932 18.4713L19.2693 19.6601C19.318 19.814 19.1427 19.9414 19.0114 19.8475L17.997 19.1225L16.9826 19.8475C16.8512 19.9414 16.676 19.8141 16.7247 19.6602L17.1008 18.4714L16.0978 17.7307C15.968 17.6348 16.0349 17.4288 16.1963 17.4275L17.4431 17.4179L17.8376 16.2351C17.8886 16.0819 18.1053 16.0819 18.1563 16.235Z" fill="#FF4B55"/>
</g>
<defs>
<clipPath id="clip0_72_3263">
<path d="M0 2C0 0.895432 0.895431 0 2 0H21.9998C23.1043 0 23.9998 0.895431 23.9998 2V21.9998C23.9998 23.1043 23.1043 23.9998 21.9998 23.9998H2C0.895432 23.9998 0 23.1043 0 21.9998V2Z" fill="white"/>
</clipPath>
</defs>
</svg>
