<svg width="24" height="24" viewBox="0 0 24 24" fill="none" xmlns="http://www.w3.org/2000/svg">
<g clip-path="url(#clip0_72_3292)">
<path d="M0.00390625 23.9998L12.0038 11.9999L0.00390625 6.10352e-05V23.9998Z" fill="#F5F5F5"/>
<path d="M0.00390625 23.9998H24.0037V11.9999H12.0038L0.00390625 23.9998Z" fill="#FF4B55"/>
<path d="M0.00390625 6.10352e-05H24.0037V11.9999H12.0038L0.00390625 6.10352e-05Z" fill="#41479B"/>
<path d="M4.29405 13.3448C5.03678 13.3448 5.63888 12.7427 5.63888 12C5.63888 11.2572 5.03678 10.6551 4.29405 10.6551C3.55132 10.6551 2.94922 11.2572 2.94922 12C2.94922 12.7427 3.55132 13.3448 4.29405 13.3448Z" fill="#FFE15A"/>
<path d="M4.29436 12L3.79004 9.98278L4.29436 9.31036L4.79864 9.98278L4.29436 12Z" fill="#FFE15A"/>
<path d="M4.29436 12L4.79864 14.0172L4.29436 14.6896L3.79004 14.0172L4.29436 12Z" fill="#FFE15A"/>
<path d="M4.29415 12L2.27691 12.5043L1.60449 12L2.27691 11.4956L4.29415 12Z" fill="#FFE15A"/>
<path d="M4.29395 12L6.31114 11.4956L6.98356 12L6.31114 12.5043L4.29395 12Z" fill="#FFE15A"/>
<path d="M4.29395 12L5.36372 10.217L6.19579 10.0981L6.07691 10.9302L4.29395 12Z" fill="#FFE15A"/>
<path d="M4.29447 12L3.22465 13.7829L2.39258 13.9018L2.51145 13.0697L4.29447 12Z" fill="#FFE15A"/>
<path d="M4.29447 12L2.51145 10.9302L2.39258 10.0981L3.22465 10.217L4.29447 12Z" fill="#FFE15A"/>
<path d="M4.29395 12L6.07691 13.0697L6.19579 13.9018L5.36372 13.7829L4.29395 12Z" fill="#FFE15A"/>
<path d="M1.32922 3.50274L1.39935 4.02586L0.927084 4.26155C0.86596 4.29206 0.878804 4.38286 0.946069 4.39514L1.46525 4.49011L1.54348 5.0121C1.55361 5.07969 1.64394 5.09549 1.67642 5.03535L1.9272 4.57092L2.44779 4.65782C2.51519 4.66907 2.55813 4.58807 2.51098 4.53862L2.14676 4.15659L2.39027 3.68832C2.42182 3.62771 2.35802 3.5618 2.29643 3.59138L1.82056 3.81971L1.45044 3.4434C1.40253 3.39469 1.32017 3.43501 1.32922 3.50274Z" fill="#FFE15A"/>
<path d="M1.50524 19.0847L1.41665 19.605L0.895686 19.6897C0.828234 19.7007 0.813562 19.7912 0.874077 19.8229L1.34156 20.0679L1.26107 20.5895C1.25067 20.657 1.33218 20.6989 1.38107 20.6512L1.75855 20.2823L2.22978 20.5201C2.29081 20.5509 2.35588 20.4863 2.32555 20.425L2.09136 19.952L2.46312 19.5773C2.51126 19.5288 2.46992 19.4469 2.40233 19.4568L1.8801 19.5334L1.6386 19.064C1.60734 19.0034 1.51673 19.0174 1.50524 19.0847Z" fill="#FFE15A"/>
<path d="M9.50237 11.2291L9.19862 11.6608L8.6919 11.5131C8.62628 11.494 8.57411 11.5694 8.61512 11.6241L8.93176 12.0464L8.63472 12.4827C8.59628 12.5392 8.65183 12.6121 8.71651 12.59L9.21596 12.4194L9.53911 12.8367C9.58097 12.8907 9.6675 12.8604 9.66647 12.7921L9.6585 12.2643L10.1553 12.0859C10.2196 12.0628 10.2175 11.9711 10.1522 11.951L9.64782 11.7955L9.63169 11.2679C9.62949 11.1996 9.54169 11.1732 9.50237 11.2291Z" fill="#FFE15A"/>
</g>
<defs>
<clipPath id="clip0_72_3292">
<path d="M0 2C0 0.895432 0.895431 0 2 0H21.9998C23.1043 0 23.9998 0.895431 23.9998 2V21.9998C23.9998 23.1043 23.1043 23.9998 21.9998 23.9998H2C0.895432 23.9998 0 23.1043 0 21.9998V2Z" fill="white"/>
</clipPath>
</defs>
</svg>
