<svg width="24" height="24" viewBox="0 0 24 24" fill="none" xmlns="http://www.w3.org/2000/svg">
<g clip-path="url(#clip0_72_3309)">
<path d="M24.0027 6.10352e-05H0.00292969V23.9998H24.0027V6.10352e-05Z" fill="#41479B"/>
<path d="M18.3404 12.0672C18.3311 12.0672 18.3216 12.0643 18.3135 12.0582C18.307 12.0532 17.6648 11.5528 18.043 10.7045C18.0531 10.682 18.0795 10.672 18.102 10.6819C18.1245 10.692 18.1347 10.7183 18.1246 10.7409C17.7758 11.5231 18.3432 11.9686 18.3675 11.9871C18.3871 12.002 18.3908 12.03 18.3759 12.0496C18.3672 12.0612 18.3539 12.0672 18.3404 12.0672Z" fill="#73AF00"/>
<path d="M17.9706 11.3345C17.9688 11.3345 17.9671 11.3345 17.9653 11.3343C17.9408 11.3314 17.9233 11.3092 17.9261 11.2848C17.9446 11.1244 18.005 11.0124 18.1055 10.9521C18.2672 10.8549 18.4693 10.9326 18.4777 10.936C18.5006 10.945 18.5119 10.9708 18.5029 10.9937C18.4939 11.0166 18.4679 11.028 18.4452 11.019C18.4434 11.0183 18.2746 10.9543 18.1509 11.0288C18.0757 11.0742 18.0298 11.1637 18.0148 11.295C18.0122 11.3178 17.9929 11.3345 17.9706 11.3345Z" fill="#73AF00"/>
<path d="M18.092 10.7592C18.0882 10.7494 17.9917 10.5202 17.5554 10.6177C17.0614 10.7285 17.0557 11.3801 17.0557 11.3866C17.0557 11.409 17.0723 11.428 17.0946 11.4309C17.0965 11.4312 17.0985 11.4313 17.1003 11.4313C17.1204 11.4313 17.1383 11.4178 17.1435 11.398C17.3276 10.6966 18.0133 10.8144 18.0424 10.8196C18.0589 10.8225 18.0748 10.8164 18.085 10.8041C18.0953 10.7915 18.098 10.7743 18.092 10.7592Z" fill="#73AF00"/>
<path d="M17.9889 11.1225C17.9889 11.1225 17.6914 10.9328 17.5686 11.1746C17.4459 11.4164 17.5389 11.6767 17.5873 11.7809C17.5873 11.7809 17.7646 11.5848 17.9331 11.5577C18.1415 11.5242 18.1935 11.2639 18.0485 11.1337C17.8751 10.9782 17.9889 11.1225 17.9889 11.1225Z" fill="#73AF00"/>
<path d="M18.3145 10.6782C18.3103 10.9385 18.4554 10.9726 18.4554 10.9726C18.5492 10.7336 18.3145 10.6782 18.3145 10.6782Z" fill="#73AF00"/>
<path d="M18.2686 11.225C18.2705 10.978 18.4381 10.9502 18.4381 10.9502C18.5396 11.1799 18.2686 11.225 18.2686 11.225Z" fill="#73AF00"/>
<path d="M19.2344 11.0259C19.2344 11.0259 18.9975 10.9909 18.9066 10.948C18.831 10.9123 18.7323 10.8262 18.6045 10.843C18.5069 10.843 18.4277 10.9222 18.4277 11.0198C18.4277 11.1174 18.4948 11.2344 18.8457 11.2085C19.0159 11.1959 19.1608 11.2736 19.1608 11.2736C19.1384 11.1805 19.2344 11.0259 19.2344 11.0259Z" fill="#FF4B55"/>
<path d="M18.9886 11.1034C18.9886 11.1034 18.6253 11.1286 18.5454 11.0698C18.4718 11.0155 18.491 10.929 18.5664 10.9207C18.6799 10.908 18.9886 11.1034 18.9886 11.1034Z" fill="#FFE15A"/>
<path d="M19.6955 11.515L18.8921 12.0171L18.8 11.9279L19.2408 11.5011L19.344 11.5429L19.4444 11.409L19.2045 11.2835C19.2045 11.2835 18.5684 11.8832 18.0273 11.9334C17.8452 11.9503 17.6597 11.9384 17.515 11.8789L17.1904 12.3463L17.8711 12.9265L18.8698 12.8875L19.6955 11.766L19.8405 11.833L19.9632 11.6879L19.6955 11.515Z" fill="#B49B91"/>
<path d="M17.4571 12.867C17.2336 12.867 17.0518 12.6852 17.0518 12.4617C17.0518 12.2382 17.2336 12.0563 17.4571 12.0563C17.6805 12.0563 17.8624 12.2382 17.8624 12.4617C17.8624 12.6851 17.6805 12.867 17.4571 12.867ZM17.4571 12.1903C17.3075 12.1903 17.1857 12.312 17.1857 12.4617C17.1857 12.6114 17.3075 12.7331 17.4571 12.7331C17.6068 12.7331 17.7285 12.6114 17.7285 12.4617C17.7285 12.312 17.6068 12.1903 17.4571 12.1903Z" fill="#9B8278"/>
<path d="M19.1462 13.2426C19.1462 13.2426 19.2206 13.1942 19.295 12.9674L19.1425 12.9897C19.1425 12.9897 19.1722 12.8632 19.1388 12.7702L18.9677 12.9041C18.9677 12.9041 18.8896 12.7405 18.8561 12.7182C18.8561 12.7182 18.7371 12.8856 18.6702 12.9079C18.6702 12.9079 18.6032 12.6661 18.5362 12.6178L18.4209 12.7814L18.2498 12.6475C18.2498 12.6475 18.2498 12.7628 18.2461 12.7888C18.2424 12.8148 18.023 12.5582 18.023 12.5582C18.023 12.5582 17.9263 12.5991 17.7961 12.8074L17.6325 12.64L17.5655 12.8595L17.3386 12.7999L17.3758 12.9301L17.1787 12.9152C17.1787 12.9152 17.2122 13.1086 17.3089 13.1756L19.1462 13.2426Z" fill="#73AF00"/>
<path d="M17.1755 14.0702C17.1755 14.0702 16.5618 14.8512 15.4014 14.762L16.6622 14.935L17.3094 14.3213L17.1755 14.0702Z" fill="#73AF00"/>
<path d="M15.1738 14.6448C15.2965 14.7341 16.0554 14.9516 16.6021 14.6894C16.6021 14.6894 16.6133 14.8178 16.5519 14.8903C16.5519 14.8903 16.9536 14.7285 17.1712 14.4272C17.3888 14.1259 16.7193 15.0744 16.7193 15.0744L15.6927 15.2641L15.2743 14.9182L15.1738 14.6448Z" fill="#FFE15A"/>
<path d="M15.0932 11.8321C14.9569 11.8436 14.8094 11.9257 14.7341 12.0254C14.693 12.0079 14.6017 12.0001 14.5261 12.0506C14.4254 12.1177 14.2394 12.3601 14.0832 12.296C14.0832 12.296 14.0692 12.5248 14.3119 12.5164C14.3119 12.5164 14.2505 12.6112 14.2617 12.7619C14.2729 12.9125 14.1641 13.0129 14.1641 13.0129C14.1641 13.0129 14.655 13.0827 14.6746 12.7005C14.677 12.6538 14.6793 12.6127 14.6816 12.576C14.9378 12.7143 15.0386 12.519 15.0386 12.519C15.0386 12.519 14.8847 12.3736 15.0414 12.1665C15.1981 11.9594 15.6289 12.4476 15.6289 12.4476C15.6372 12.2522 15.6197 11.7879 15.0932 11.8321Z" fill="#FFE15A"/>
<path d="M16.9884 13.1198C16.9884 13.1198 16.8471 13.2165 16.4082 13.1273C16.4082 13.1273 16.5049 12.9116 16.4602 12.7851C16.4602 12.7851 16.3412 12.8967 16.0511 13.0083C15.761 13.1198 15.4039 13.4769 15.2998 13.7075C15.2998 13.7075 15.9523 12.2034 15.4282 12.0505C15.2484 11.9981 15.0938 12.0831 15.039 12.1665C15.0655 12.1978 15.0909 12.2422 15.0934 12.3016C15.099 12.4299 14.9707 13.2947 14.781 13.8916C14.781 13.8916 14.7252 13.6852 14.6359 13.5848C14.5467 13.4844 14.4797 13.3226 14.4797 13.3226C14.4797 13.3226 14.3291 13.423 14.3514 13.6071C14.3514 13.6071 14.2677 13.5402 14.1059 13.5848C13.9441 13.6294 13.8827 13.5234 13.8827 13.5234C13.8827 13.5234 13.7488 13.8805 14.1449 14.0646C14.1449 14.0646 14.0389 14.1148 13.9887 14.1538C13.9385 14.1929 13.8604 14.1929 13.8604 14.1929C13.8604 14.1929 13.9999 14.4495 14.2955 14.4774C14.5912 14.5053 14.7272 14.5896 14.82 14.7415C15.1212 15.2343 15.6977 15.6081 16.6387 15.0316C16.6387 15.0316 15.2998 15.4482 15.2402 14.5927C15.1882 13.8444 16.0065 13.6926 16.0883 13.8563C16.1701 14.0199 16.0808 14.1613 16.0808 14.1613C16.0808 14.1613 16.5271 14.0571 16.3114 13.648C16.3114 13.648 16.7504 13.715 16.9884 13.1198Z" fill="#73AF00"/>
<path d="M21.2861 14.6448C21.1634 14.7341 20.3879 15.0688 19.8523 14.5332C19.3167 13.9977 19.1078 13.1935 19.1381 13.2835H18.6025L18.7811 14.8903L20.7673 15.2642L21.1857 14.9183L21.2861 14.6448Z" fill="#73AF00"/>
<path d="M21.367 11.8321C21.5033 11.8436 21.6508 11.9257 21.7262 12.0254C21.7672 12.0079 21.8585 12.0001 21.9341 12.0506C22.0348 12.1177 22.2209 12.3601 22.3771 12.296C22.3771 12.296 22.3911 12.5248 22.1483 12.5164C22.1483 12.5164 22.2097 12.6112 22.1985 12.7619C22.1874 12.9125 22.2962 13.0129 22.2962 13.0129C22.2962 13.0129 21.8052 13.0827 21.7857 12.7005C21.7833 12.6538 21.7809 12.6127 21.7786 12.576C21.5224 12.7143 21.4216 12.519 21.4216 12.519C21.4216 12.519 21.5755 12.3736 21.4188 12.1665C21.2621 11.9594 20.8314 12.4476 20.8314 12.4476C20.823 12.2522 20.8405 11.7879 21.367 11.8321Z" fill="#73AF00"/>
<path d="M19.4688 13.1199C19.4688 13.1199 19.6101 13.2166 20.049 13.1274C20.049 13.1274 19.9523 12.9117 19.9969 12.7852C19.9969 12.7852 20.1159 12.8968 20.406 13.0084C20.6961 13.1199 21.0532 13.477 21.1573 13.7076C21.1573 13.7076 20.5048 12.2035 21.029 12.0506C21.2087 11.9982 21.3634 12.0832 21.4181 12.1666C21.3917 12.1979 21.3663 12.2423 21.3637 12.3017C21.3581 12.43 21.4864 13.2948 21.6761 13.8917C21.6761 13.8917 21.7319 13.6853 21.8212 13.5849C21.9104 13.4845 21.9774 13.3227 21.9774 13.3227C21.9774 13.3227 22.1281 13.4231 22.1058 13.6072C22.1058 13.6072 22.1894 13.5402 22.3513 13.5849C22.5131 13.6295 22.5744 13.5235 22.5744 13.5235C22.5744 13.5235 22.7083 13.8806 22.3122 14.0647C22.3122 14.0647 22.4182 14.1149 22.4684 14.1539C22.5187 14.193 22.5968 14.193 22.5968 14.193C22.5968 14.193 22.4573 14.4496 22.1616 14.4775C21.8659 14.5054 21.73 14.5897 21.6372 14.7416C21.3359 15.2344 20.7594 15.6082 19.8184 15.0317C19.8184 15.0317 21.1574 15.4483 21.2169 14.5928C21.269 13.8445 20.4507 13.6927 20.3689 13.8564C20.287 14.02 20.3763 14.1614 20.3763 14.1614C20.3763 14.1614 19.93 14.0572 20.1457 13.6481C20.1457 13.6481 19.7068 13.715 19.4688 13.1199Z" fill="#FFE15A"/>
<path d="M19.0886 14.3696C19.3081 14.6895 19.613 14.9796 20.4982 15.2549C21.3835 15.5301 21.62 15.571 22.084 15.9462C22.084 15.9462 22.1721 16.0393 22.2058 16.1885C22.2454 16.3637 21.9752 16.8691 21.9752 16.8691C21.9752 16.8691 22.0012 16.7501 21.8376 16.5195C21.674 16.2889 20.7069 15.8723 20.2011 15.7459C19.6952 15.6194 18.8211 15.0327 19.0629 14.5929L19.0886 14.3696Z" fill="#73AF00"/>
<path d="M22.0828 15.9448C22.0831 15.9453 22.0833 15.9458 22.0836 15.9462C22.0831 15.9456 22.0826 15.945 22.082 15.9444L22.0828 15.9448Z" fill="#73AF00"/>
<path d="M22.0609 17.0327C22.0609 17.0327 22.0832 17.1945 21.9493 17.3339C21.8154 17.4734 21.7206 17.5738 21.7261 17.691C21.7261 17.691 21.5253 17.5459 21.5587 17.2223C21.5587 17.2223 21.2965 17.4399 20.9004 17.2279C20.9004 17.2279 20.9394 16.8318 21.4527 16.7816C21.4527 16.7816 21.2519 16.6253 21.5141 16.3854C21.5141 16.3854 21.5445 16.4927 21.7819 16.5472C21.9883 16.5947 22.3556 16.3358 22.084 15.9461C22.5518 16.4747 22.3119 16.8374 22.0609 17.0327Z" fill="#FFE15A"/>
<path d="M18.8975 14.0757C18.8975 14.0757 19.0106 14.2607 19.3048 14.4402C19.6581 14.656 19.6897 14.7564 19.6897 14.7564L19.4498 14.7508C19.4498 14.7508 19.7567 14.9182 19.8404 15.1302C19.8404 15.1302 19.712 15.1525 19.567 15.1135C19.567 15.1135 19.6842 15.2195 19.6284 15.5598H19.0314L18.8975 14.0757Z" fill="#FFE15A"/>
<path d="M17.7092 15.6045V14.1762C17.7092 14.1762 17.2244 15.0056 16.8057 15.6045H17.7092Z" fill="#73AF00"/>
<path d="M17.2923 14.1465C17.1733 14.3622 16.8013 15.0726 15.9161 15.3479C15.0309 15.6231 14.8691 15.571 14.4051 15.9462C14.4051 15.9462 14.317 16.0393 14.2833 16.1885C14.2437 16.3637 14.5139 16.8691 14.5139 16.8691C14.5139 16.8691 14.4879 16.7501 14.6515 16.5195C14.8151 16.2889 15.7768 15.8481 16.288 15.7459C16.9951 15.6045 17.6349 14.8458 17.5307 14.3548C17.4266 13.8638 17.2923 14.1465 17.2923 14.1465Z" fill="#FFE15A"/>
<path d="M14.4051 15.9449C14.4048 15.9453 14.4046 15.9458 14.4043 15.9463C14.4049 15.9457 14.4053 15.945 14.4059 15.9444L14.4051 15.9449Z" fill="#73AF00"/>
<path d="M14.4274 17.0328C14.4274 17.0328 14.4051 17.1946 14.539 17.3341C14.6729 17.4736 14.7677 17.574 14.7621 17.6911C14.7621 17.6911 14.963 17.546 14.9295 17.2225C14.9295 17.2225 15.1917 17.4401 15.5879 17.2281C15.5879 17.2281 15.5488 16.8319 15.0356 16.7817C15.0356 16.7817 15.2364 16.6255 14.9742 16.3856C14.9742 16.3856 14.9437 16.4928 14.7064 16.5474C14.5 16.5948 14.1327 16.3359 14.4042 15.9462C13.9364 16.4749 14.1763 16.8375 14.4274 17.0328Z" fill="#73AF00"/>
<path d="M15.6641 19.4132C15.6641 19.4132 15.7905 19.9823 15.798 20.5699C15.798 20.5699 16.3522 20.5885 16.62 20.172C16.62 20.172 16.0844 19.893 15.798 19.3537L15.6641 19.4132Z" fill="#FFE15A"/>
<path d="M15.5454 18.156C15.5231 17.8882 15.6421 17.2113 16.1851 16.7203L16.1984 16.1191C16.1984 16.1191 16.0367 16.1359 15.8932 16.2615L15.5863 16.7371L15.3018 17.8138L15.5454 18.156Z" fill="#73AF00"/>
<path d="M15.5599 18.3494C15.5599 18.3494 15.5599 18.9222 15.7979 19.3537L15.664 19.4132C15.664 19.4132 15.1842 19.0357 15.0838 18.2602C15.0838 18.2602 14.6542 18.5447 14.4961 17.9626C14.4961 17.9626 14.9573 18.1486 15.1061 17.7246C15.2403 17.342 15.3759 16.6455 15.8928 16.2615C15.6471 16.6391 15.2772 17.6055 15.5636 17.9477C15.6394 18.0383 15.8574 18.1151 16.096 18.0132C16.0804 18.2036 15.9897 18.4944 15.5599 18.3494Z" fill="#FFE15A"/>
<path d="M15.6296 19.5148L15.5512 19.3708C15.5376 19.3456 15.5468 19.3141 15.5721 19.3003L15.7151 19.2226C15.7402 19.2089 15.7718 19.2182 15.7855 19.2434L15.8638 19.3874C15.8775 19.4125 15.8682 19.4441 15.843 19.4578L15.7 19.5356C15.6748 19.5493 15.6433 19.5399 15.6296 19.5148Z" fill="#FFCE5A"/>
<path d="M20.4667 19.4131C20.4667 19.4131 20.3402 19.9822 20.3327 20.5699C20.3327 20.5699 19.7785 20.5885 19.5107 20.1719C19.5107 20.1719 20.0463 19.8929 20.3327 19.3536L20.4667 19.4131Z" fill="#FFE15A"/>
<path d="M20.5857 18.156C20.608 17.8882 20.489 17.2112 19.9459 16.7202L19.9326 16.119C19.9326 16.119 20.0943 16.1358 20.2379 16.2614L20.5448 16.737L20.8293 17.8138L20.5857 18.156Z" fill="#FFE15A"/>
<path d="M20.0371 18.0132C20.2757 18.1151 20.4937 18.0383 20.5696 17.9477C20.856 17.6055 20.486 16.6391 20.2404 16.2615C20.7572 16.6455 20.8928 17.342 21.0271 17.7246C21.1758 18.1486 21.637 17.9626 21.637 17.9626C21.479 18.5447 21.0494 18.2602 21.0494 18.2602C20.949 19.0357 20.4692 19.4132 20.4692 19.4132L20.3352 19.3537C20.5733 18.9222 20.5733 18.3494 20.5733 18.3494C20.1435 18.4944 20.0527 18.2036 20.0371 18.0132Z" fill="#73AF00"/>
<path d="M20.5042 19.5148L20.5825 19.3708C20.5962 19.3456 20.587 19.3141 20.5617 19.3003L20.4187 19.2226C20.3936 19.2089 20.362 19.2182 20.3483 19.2434L20.27 19.3874C20.2563 19.4125 20.2656 19.4441 20.2908 19.4578L20.4338 19.5356C20.459 19.5493 20.4905 19.5399 20.5042 19.5148Z" fill="#FFCE5A"/>
<path d="M16.2811 15.4259C16.1825 15.4259 16.1025 15.5059 16.1025 15.6045V17.5684C16.1025 18.1039 16.2811 20.0678 18.0664 20.7819C19.8517 20.0678 20.0303 18.1039 20.0303 17.5684V15.6045C20.0303 15.5059 19.9503 15.4259 19.8517 15.4259H16.2811Z" fill="#4173CD"/>
<path d="M17.9588 15.4259L16.2656 18.6711C16.308 18.8212 16.3609 18.9766 16.4272 19.1335L18.067 15.9904L19.7068 19.1335C19.7732 18.9766 19.826 18.8212 19.8684 18.6711L18.1752 15.4259H17.9588Z" fill="#FFE15A"/>
<path d="M19.7064 19.1335L18.0666 15.9904L16.4268 19.1335C16.6968 19.7728 17.1856 20.4295 18.0666 20.7819C18.9476 20.4295 19.4363 19.7728 19.7064 19.1335Z" fill="#73AF00"/>
<path d="M18.7302 19.3369L18.8382 19.3887C18.7929 19.4556 18.6986 19.564 18.5184 19.662C18.3822 19.7361 18.2506 19.8238 18.1555 19.891V18.4176L18.6019 18.3717V18.1932L18.1555 18.1473V17.9254C18.1555 17.8761 18.1156 17.8362 18.0663 17.8362C18.0242 17.8362 17.9906 17.8658 17.9812 17.905C17.9515 17.8837 17.9171 17.8686 17.8779 17.8686C17.778 17.8686 17.6967 17.9499 17.6967 18.0498C17.6967 18.0968 17.7158 18.1389 17.7453 18.1712L17.5307 18.1932V18.3718L17.977 18.4177V19.891C17.882 19.8238 17.7504 19.7361 17.6142 19.6621C17.434 19.564 17.3397 19.4557 17.2944 19.3888L17.4024 19.337L16.9951 18.8181V19.5323L17.1324 19.4665C17.1867 19.554 17.3016 19.6953 17.529 19.8189C17.7192 19.9225 17.9038 20.057 17.977 20.1121L18.0663 20.1813L18.1555 20.1121C18.2287 20.057 18.4134 19.9225 18.6036 19.8189C18.8311 19.6953 18.9459 19.554 19.0002 19.4665L19.1375 19.5323V18.8181L18.7302 19.3369ZM17.8779 18.1418C17.8272 18.1418 17.7859 18.1005 17.7859 18.0498C17.7859 17.9991 17.8272 17.9578 17.8779 17.9578C17.9286 17.9578 17.9699 17.9991 17.9699 18.0498C17.9699 18.1005 17.9286 18.1418 17.8779 18.1418Z" fill="#FFE15A"/>
<path d="M18.2168 17.7469H17.9165C17.8515 17.7469 17.7988 17.6942 17.7988 17.6292V17.1505C17.7988 17.0855 17.8515 17.0328 17.9165 17.0328H18.2168C18.2818 17.0328 18.3345 17.0855 18.3345 17.1505V17.6292C18.3345 17.6942 18.2818 17.7469 18.2168 17.7469Z" fill="#F5F5F5"/>
<path d="M19.3167 15.426C18.9596 14.8904 18.9596 13.8191 18.9596 13.8191C18.9596 13.8191 18.9596 13.105 18.0669 13.105C17.6147 13.105 17.392 13.2882 17.282 13.4691C16.8535 13.6413 16.6387 13.9976 16.6387 13.9976C16.8213 14.089 16.9827 14.1325 17.1291 14.1437C17.4201 14.49 17.5169 14.8245 17.5427 15.065C17.3751 15.2363 17.2821 15.6491 17.5313 15.9615C17.5313 15.9615 18.0594 15.8388 18.5053 15.4259L19.3167 15.426Z" fill="#B49B91"/>
<path d="M18.5078 15.426H19.1741C19.1406 15.0969 18.817 15.1499 18.5078 15.426Z" fill="#9B8278"/>
<path d="M19.1568 15.089C18.9616 14.5351 18.9614 13.8193 18.9614 13.8193C18.9614 13.8193 18.9613 13.8076 18.9595 13.7876C18.727 13.756 18.4891 13.7731 18.0241 13.9531C17.5289 14.1448 17.2865 14.1503 17.1309 14.1438C17.4219 14.4901 17.5187 14.8246 17.5445 15.0651L17.5517 15.4446C17.5517 15.4446 17.8306 15.4856 18.4444 15.1322C18.7505 14.956 19.01 14.9409 19.1568 15.089Z" fill="#9B8278"/>
<path d="M18.2066 13.7411C18.5687 13.6506 18.7998 13.6599 18.9486 13.7128C18.9087 13.5139 18.7448 13.1051 18.069 13.1051C17.6168 13.1051 17.3941 13.2884 17.2841 13.4692L17.0127 13.849C17.0127 13.849 17.3521 13.9548 18.2066 13.7411Z" fill="#9B8278"/>
<path d="M17.4763 13.0269C17.5115 13.062 17.6163 13.3149 17.5947 13.3525C17.5807 13.3767 17.3014 13.4461 17.2561 13.4107C17.2157 13.3791 17.1684 13.1067 17.1955 13.0752C17.22 13.0468 17.4469 12.9977 17.4763 13.0269Z" fill="#FFE15A"/>
<path d="M17.8358 13.0135C17.8682 13.0506 17.9417 13.2979 17.9126 13.3294C17.8938 13.3497 17.5824 13.3743 17.5392 13.3354C17.5007 13.3006 17.4921 13.0435 17.5262 13.0184C17.557 12.9957 17.8087 12.9824 17.8358 13.0135Z" fill="#73AF00"/>
<path d="M18.176 13.004C18.2096 13.0391 18.2863 13.2716 18.2562 13.3011C18.2369 13.3201 17.9148 13.3424 17.87 13.3057C17.83 13.273 17.8206 13.0314 17.8557 13.0079C17.8875 12.9867 18.148 12.9748 18.176 13.004Z" fill="#FFE15A"/>
<path d="M18.5216 13.0201C18.5513 13.0584 18.6074 13.3023 18.5762 13.3306C18.5561 13.3488 18.2439 13.3496 18.2035 13.3088C18.1674 13.2725 18.1769 13.0238 18.2125 13.0021C18.2448 12.9825 18.4968 12.9882 18.5216 13.0201Z" fill="#73AF00"/>
<path d="M19.2347 13.168C19.2578 13.2106 19.2555 13.4372 19.22 13.4599C19.1972 13.4745 18.916 13.4243 18.8829 13.3775C18.8534 13.3357 18.9037 13.092 18.9425 13.0766C18.9776 13.0625 19.2155 13.1324 19.2347 13.168Z" fill="#73AF00"/>
<path d="M18.9068 13.0715C18.9351 13.1102 18.9565 13.3377 18.9225 13.3617C18.9006 13.3772 18.5789 13.3508 18.5399 13.3087C18.5051 13.2711 18.5306 13.0367 18.5687 13.0192C18.6032 13.0035 18.8833 13.0391 18.9068 13.0715Z" fill="#FFE15A"/>
<path d="M17.5646 12.4045C17.6156 12.5143 17.509 12.6209 17.3992 12.5699C17.3769 12.5596 17.3584 12.5412 17.3481 12.5188C17.2971 12.4091 17.4038 12.3024 17.5135 12.3534C17.5359 12.3637 17.5543 12.3822 17.5646 12.4045Z" fill="#9B8278"/>
<path d="M4.42786 0.00012207H0.00683594V0.936535L4.42786 3.83305V0.00012207Z" fill="#41479B"/>
<path d="M0.00683594 3.20161V4.42115H1.86822L0.00683594 3.20161Z" fill="#41479B"/>
<path d="M0.00683594 7.57899V8.79852L1.86822 7.57899H0.00683594Z" fill="#41479B"/>
<path d="M12.007 0.936535V0.00012207H7.58594V3.83305L12.007 0.936535Z" fill="#41479B"/>
<path d="M12.0069 8.79852V7.57899H10.1455L12.0069 8.79852Z" fill="#41479B"/>
<path d="M7.58594 8.16707V12H12.007V11.0636L7.58594 8.16707Z" fill="#41479B"/>
<path d="M12.0069 4.42115V3.20161L10.1455 4.42115H12.0069Z" fill="#41479B"/>
<path d="M0.00683594 11.0636V12H4.42786V8.16707L0.00683594 11.0636Z" fill="#41479B"/>
<path d="M12.0067 11.0636V10.1278L8.08007 7.57898H9.24013L12.0067 9.37479V8.79852L10.1453 7.57898H12.0067V6.9474H6.9541V12H7.58564V8.16707L12.0067 11.0636Z" fill="#F5F5F5"/>
<path d="M0.00683594 6.9474V7.57898H1.86822L0.00683594 8.79852V9.68449L3.25041 7.57898H4.41046L0.00683594 10.4375V11.0636L4.42786 8.16707V12H5.0594V6.9474H0.00683594Z" fill="#F5F5F5"/>
<path d="M5.0594 0.00012207H4.42786V3.83305L0.00683594 0.936535V1.96131L3.79627 4.42114H2.63622L0.00683594 2.71435V3.20161L1.86822 4.42114H0.00683594V5.05273H5.0594V0.00012207Z" fill="#F5F5F5"/>
<path d="M12.0067 5.05273V4.42114H10.1453L12.0067 3.20161V2.30433L8.74569 4.42114H7.58564L12.0067 1.55134V0.936535L7.58564 3.83305V0.00012207H6.9541V5.05273H12.0067Z" fill="#F5F5F5"/>
<path d="M12.0067 6.9474V5.05273H6.95416V0.00012207H5.0594V5.05273H0.00683594V6.9474H5.0594V12H6.95416V6.9474H12.0067Z" fill="#FF4B55"/>
<path d="M3.25041 7.57899L0.00683594 9.6845V10.4375L4.41046 7.57899H3.25041Z" fill="#FF4B55"/>
<path d="M8.08008 7.57899L12.0067 10.1278V9.3748L9.24013 7.57899H8.08008Z" fill="#FF4B55"/>
<path d="M3.79627 4.42115L0.00683594 1.96131V2.71435L2.63622 4.42115H3.79627Z" fill="#FF4B55"/>
<path d="M8.74599 4.42114L12.007 2.30433V1.55134L7.58594 4.42114H8.74599Z" fill="#FF4B55"/>
</g>
<defs>
<clipPath id="clip0_72_3309">
<path d="M0 2C0 0.895432 0.895431 0 2 0H21.9998C23.1043 0 23.9998 0.895431 23.9998 2V21.9998C23.9998 23.1043 23.1043 23.9998 21.9998 23.9998H2C0.895432 23.9998 0 23.1043 0 21.9998V2Z" fill="white"/>
</clipPath>
</defs>
</svg>
