<svg width="24" height="24" viewBox="0 0 24 24" fill="none" xmlns="http://www.w3.org/2000/svg">
<g clip-path="url(#clip0_72_3394)">
<path d="M24.0027 6.10352e-05H0.00292969V23.9998H24.0027V6.10352e-05Z" fill="#FF4B55"/>
<path d="M8.69253 6.10352e-05H0.00292969V23.9998H8.69253V6.10352e-05Z" fill="#73AF00"/>
<path d="M8.6955 17.2677C11.6048 17.2677 13.9633 14.9093 13.9633 12C13.9633 9.09065 11.6048 6.73219 8.6955 6.73219C5.78619 6.73219 3.42773 9.09065 3.42773 12C3.42773 14.9093 5.78619 17.2677 8.6955 17.2677Z" fill="#FFE15A"/>
<path d="M10.4531 10.2425V12.5858C10.4531 13.5548 9.66474 14.3432 8.6957 14.3432C7.72666 14.3432 6.93828 13.5548 6.93828 12.5858V10.2425H10.4531ZM11.0389 9.07089H6.35239C6.02886 9.07089 5.7666 9.33316 5.7666 9.65668V12.5857C5.7666 14.2034 7.07801 15.5148 8.69565 15.5148C10.3133 15.5148 11.6247 14.2034 11.6247 12.5857V9.65668C11.6247 9.33316 11.3624 9.07089 11.0389 9.07089Z" fill="#FF4B55"/>
<path d="M9.93686 10.7586V12.4137C9.93686 13.0982 9.37999 13.6551 8.69548 13.6551C8.01097 13.6551 7.4541 13.0982 7.4541 12.4137V10.7586H9.93686Z" fill="#F5F5F5"/>
<path d="M6.34761 9.9496C6.50938 9.9496 6.64053 9.81846 6.64053 9.65668C6.64053 9.49491 6.50938 9.36377 6.34761 9.36377C6.18583 9.36377 6.05469 9.49491 6.05469 9.65668C6.05469 9.81846 6.18583 9.9496 6.34761 9.9496Z" fill="#FFE15A"/>
<path d="M11.0341 9.9496C11.1959 9.9496 11.327 9.81846 11.327 9.65668C11.327 9.49491 11.1959 9.36376 11.0341 9.36376C10.8724 9.36376 10.7412 9.49491 10.7412 9.65668C10.7412 9.81846 10.8724 9.9496 11.0341 9.9496Z" fill="#FFE15A"/>
<path d="M6.34761 12.2929C6.50938 12.2929 6.64053 12.1617 6.64053 11.9999C6.64053 11.8382 6.50938 11.707 6.34761 11.707C6.18583 11.707 6.05469 11.8382 6.05469 11.9999C6.05469 12.1617 6.18583 12.2929 6.34761 12.2929Z" fill="#FFE15A"/>
<path d="M11.0341 12.2929C11.1959 12.2929 11.327 12.1617 11.327 11.9999C11.327 11.8382 11.1959 11.707 11.0341 11.707C10.8724 11.707 10.7412 11.8382 10.7412 11.9999C10.7412 12.1617 10.8724 12.2929 11.0341 12.2929Z" fill="#FFE15A"/>
<path d="M8.69136 9.9496C8.85313 9.9496 8.98428 9.81846 8.98428 9.65668C8.98428 9.49491 8.85313 9.36376 8.69136 9.36376C8.52958 9.36376 8.39844 9.49491 8.39844 9.65668C8.39844 9.81846 8.52958 9.9496 8.69136 9.9496Z" fill="#FFE15A"/>
<path d="M10.4492 14.4528C10.6109 14.4528 10.7421 14.3217 10.7421 14.1599C10.7421 13.9981 10.6109 13.867 10.4492 13.867C10.2874 13.867 10.1562 13.9981 10.1562 14.1599C10.1562 14.3217 10.2874 14.4528 10.4492 14.4528Z" fill="#FFE15A"/>
<path d="M6.96675 14.4528C7.12852 14.4528 7.25967 14.3217 7.25967 14.1599C7.25967 13.9981 7.12852 13.867 6.96675 13.867C6.80497 13.867 6.67383 13.9981 6.67383 14.1599C6.67383 14.3217 6.80497 14.4528 6.96675 14.4528Z" fill="#FFE15A"/>
<path d="M9.07598 11.8514V12.3558C9.07598 12.5645 8.90625 12.7341 8.69766 12.7341C8.48902 12.7341 8.31934 12.5644 8.31934 12.3558V11.8514H9.07598Z" fill="#41479B"/>
<path d="M9.07598 10.6554V11.1598C9.07598 11.3685 8.90625 11.5381 8.69766 11.5381C8.48902 11.5381 8.31934 11.3684 8.31934 11.1598V10.6554H9.07598Z" fill="#41479B"/>
<path d="M9.07598 13.0596V13.5641C9.07598 13.7727 8.90625 13.9424 8.69766 13.9424C8.48902 13.9424 8.31934 13.7727 8.31934 13.5641V13.0596H9.07598Z" fill="#41479B"/>
<path d="M10.0945 11.8514V12.3558C10.0945 12.5645 9.92481 12.7341 9.71622 12.7341C9.50758 12.7341 9.33789 12.5644 9.33789 12.3558V11.8514H10.0945Z" fill="#41479B"/>
<path d="M8.05645 11.8514V12.3558C8.05645 12.5645 7.88672 12.7341 7.67813 12.7341C7.46949 12.7341 7.2998 12.5644 7.2998 12.3558V11.8514H8.05645Z" fill="#41479B"/>
</g>
<defs>
<clipPath id="clip0_72_3394">
<path d="M0 2C0 0.895432 0.895431 0 2 0H21.9998C23.1043 0 23.9998 0.895431 23.9998 2V21.9998C23.9998 23.1043 23.1043 23.9998 21.9998 23.9998H2C0.895432 23.9998 0 23.1043 0 21.9998V2Z" fill="white"/>
</clipPath>
</defs>
</svg>
