<svg width="24" height="24" viewBox="0 0 24 24" fill="none" xmlns="http://www.w3.org/2000/svg">
<g clip-path="url(#clip0_72_3423)">
<path d="M11.22 6.10352e-05H0.00195312V23.9998H11.22V6.10352e-05Z" fill="#F5F5F5"/>
<path d="M24.0023 6.10352e-05H6.14258C6.15927 6.10352e-05 6.17586 0.00254539 6.1918 0.00746721L10.0113 1.17455C10.1704 1.22311 10.1703 1.44839 10.0112 1.49691L6.69612 2.50626C6.53698 2.55477 6.53689 2.77996 6.69598 2.82861L10.0114 3.8418C10.1705 3.89037 10.1703 4.11565 10.0112 4.16407L6.69612 5.17351C6.53698 5.22203 6.53689 5.44721 6.69598 5.49587L10.0114 6.50906C10.1705 6.55762 10.1703 6.7829 10.0112 6.83132L6.69715 7.8403C6.53792 7.88886 6.53792 8.11423 6.69715 8.1627L10.0112 9.17172C10.1704 9.22024 10.1705 9.44542 10.0114 9.49408L6.69598 10.5073C6.53689 10.5559 6.53703 10.7812 6.69612 10.8296L10.0112 11.839C10.1704 11.8874 10.1705 12.1127 10.0114 12.1613L6.69598 13.1745C6.53689 13.2232 6.53703 13.4484 6.69612 13.4969L10.0112 14.5062C10.1704 14.5547 10.1705 14.7799 10.0114 14.8285L6.69598 15.8417C6.53689 15.8903 6.53703 16.1156 6.69612 16.164L10.0112 17.1735C10.1703 17.2219 10.1704 17.4472 10.0113 17.4958L6.69593 18.5089C6.53684 18.5575 6.53698 18.7827 6.69607 18.8312L10.0102 19.8404C10.1694 19.8888 10.1694 20.1143 10.0102 20.1627L6.69607 21.1719C6.53693 21.2203 6.53684 21.4456 6.69593 21.4942L10.0113 22.5073C10.1704 22.5559 10.1703 22.7812 10.0112 22.8296L6.19166 23.9926C6.17577 23.9975 6.15922 23.9999 6.14258 23.9999H24.0023V6.10352e-05Z" fill="#873250"/>
</g>
<defs>
<clipPath id="clip0_72_3423">
<path d="M0 2C0 0.895428 0.895431 0 2 0H21.9999C23.1044 0 23.9999 0.895431 23.9999 2V21.9999C23.9999 23.1044 23.1044 23.9999 21.9999 23.9999H2C0.895428 23.9999 0 23.1044 0 21.9999V2Z" fill="white"/>
</clipPath>
</defs>
</svg>
