<svg width="24" height="24" viewBox="0 0 24 24" fill="none" xmlns="http://www.w3.org/2000/svg">
<g clip-path="url(#clip0_72_3426)">
<path d="M24.0017 6.10352e-05H0.00195312V23.9998H24.0017V6.10352e-05Z" fill="#F5F5F5"/>
<path d="M22.6229 6.62953C22.5427 6.60127 22.4534 6.64285 22.4249 6.72408C22.3225 7.01325 22.2116 7.27232 22.0967 7.5172C21.8042 7.80655 21.44 8.02236 21.0885 8.08625C20.5196 8.18971 20.2437 8.46556 20.2437 8.46556C19.2438 8.17245 19.0541 8.72417 18.8299 8.96557C18.7044 9.10076 18.5417 9.14763 18.395 9.14913C17.8594 8.85701 17.4987 8.50095 17.492 8.49439C17.4318 8.43336 17.3332 8.43298 17.2726 8.49317C17.2116 8.55336 17.2112 8.65156 17.2714 8.71259C17.3168 8.75857 18.189 9.62308 19.308 9.80285C18.9832 9.89847 18.7437 9.96555 18.7437 9.96555C18.7437 9.96555 18.3817 9.96555 17.2955 10.8449C16.2092 11.7242 15.4506 11.8104 14.9679 11.7931C14.4851 11.7759 14.1231 11.6035 13.6058 12C13.0886 12.3966 12.4162 12.3276 12.0024 12.3276C11.5886 12.3276 10.9162 12.3966 10.399 12C9.88174 11.6035 9.51963 11.7759 9.03687 11.7931C8.55416 11.8104 7.79549 11.7242 6.70931 10.8449C5.62314 9.96555 5.26103 9.96555 5.26103 9.96555C5.26103 9.96555 5.02164 9.89847 4.6968 9.80285C5.81575 9.62308 6.68794 8.75862 6.73341 8.71259C6.79359 8.65156 6.79322 8.55336 6.73219 8.49317C6.67158 8.43298 6.57296 8.43336 6.51277 8.49439C6.50607 8.501 6.14537 8.85706 5.60978 9.14913C5.46306 9.14763 5.30036 9.10071 5.17483 8.96557C4.95068 8.72417 4.76102 8.17245 3.76105 8.46556C3.76105 8.46556 3.48519 8.18971 2.91623 8.08625C2.56476 8.02236 2.20055 7.80655 1.9081 7.5172C1.79321 7.27232 1.68225 7.0132 1.57983 6.72408C1.55133 6.64285 1.46204 6.60122 1.38184 6.62953C1.30102 6.65822 1.2586 6.74672 1.28729 6.82753C1.29038 6.8363 1.29395 6.8437 1.29709 6.85247C1.31223 6.93178 1.62699 8.5198 2.77832 9.62074C3.58916 10.396 4.37557 11.5792 4.70937 12.2414C5.79554 14.3966 7.86449 17.2931 12.0024 17.2931C16.1403 17.2931 18.2092 14.3966 19.2954 12.2414C19.6292 11.5792 20.4156 10.3961 21.2265 9.62074C22.3778 8.5198 22.6925 6.93178 22.7077 6.85247C22.7108 6.84375 22.7143 6.8363 22.7175 6.82753C22.7462 6.74672 22.7038 6.65822 22.6229 6.62953Z" fill="#FF4B55"/>
</g>
<defs>
<clipPath id="clip0_72_3426">
<path d="M0 2C0 0.895432 0.895431 0 2 0H21.9998C23.1043 0 23.9998 0.895431 23.9998 2V21.9998C23.9998 23.1043 23.1043 23.9998 21.9998 23.9998H2C0.895432 23.9998 0 23.1043 0 21.9998V2Z" fill="white"/>
</clipPath>
</defs>
</svg>
