<svg width="24" height="24" viewBox="0 0 24 24" fill="none" xmlns="http://www.w3.org/2000/svg">
<g clip-path="url(#clip0_72_3457)">
<path d="M24.0018 0.0770721H0.15625V12.0001H24.0018V0.0770721Z" fill="#4173CD"/>
<path d="M0.155972 11.9999H24.0017V23.2953C24.0017 23.6418 23.7208 23.9228 23.3742 23.9228H0.155972C-0.190571 23.9228 0.155972 23.6419 0.155972 23.2953V11.9999Z" fill="#4173CD"/>
<path d="M24.0008 11.9999H0.155273V17.9614H24.0008V11.9999Z" fill="#FFE15A"/>
<path d="M24.0008 17.9614H0.155273V23.9229H24.0008V17.9614Z" fill="#73AF00"/>
<path d="M20.1742 6.46375L22.7428 6.03855L20.1742 5.61335L22.3846 4.23753L19.8487 4.82768L21.3643 2.71074L19.2474 4.22633L19.8375 1.69046L18.4617 3.90083L18.0365 1.33225L17.6113 3.90083L16.2354 1.69042L16.8255 4.22628L14.7086 2.71069L16.2242 4.82764L13.6883 4.23749L15.8987 5.6133L13.3301 6.0385L15.8987 6.4637L13.6883 7.83951L16.2242 7.24941L14.7086 9.36636L16.8256 7.85076L16.2355 10.3866L17.6113 8.17626L18.0365 10.7448L18.4617 8.17626L19.8375 10.3866L19.2474 7.85076L21.3643 9.36636L19.8488 7.24941L22.3846 7.83951L20.1742 6.46375ZM18.0364 7.6073C17.17 7.6073 16.4676 6.90493 16.4676 6.0385C16.4676 5.17207 17.17 4.4697 18.0364 4.4697C18.9029 4.4697 19.6052 5.17207 19.6052 6.0385C19.6052 6.90493 18.9028 7.6073 18.0364 7.6073Z" fill="#FFE15A"/>
<path d="M18.0369 7.21501C18.6867 7.21501 19.2135 6.68825 19.2135 6.03845C19.2135 5.38866 18.6867 4.8619 18.0369 4.8619C17.3871 4.8619 16.8604 5.38866 16.8604 6.03845C16.8604 6.68825 17.3871 7.21501 18.0369 7.21501Z" fill="#FFE15A"/>
</g>
<defs>
<clipPath id="clip0_72_3457">
<path d="M0 2C0 0.895432 0.895431 0 2 0H21.9998C23.1043 0 23.9998 0.895431 23.9998 2V21.9998C23.9998 23.1043 23.1043 23.9998 21.9998 23.9998H2C0.895432 23.9998 0 23.1043 0 21.9998V2Z" fill="white"/>
</clipPath>
</defs>
</svg>
