<svg width="24" height="24" viewBox="0 0 24 24" fill="none" xmlns="http://www.w3.org/2000/svg">
<g clip-path="url(#clip0_72_3479)">
<path d="M23.9998 0H0V23.9998H23.9998V0Z" fill="#73AF00"/>
<path d="M17.582 0L0 17.582V19.4696L19.4696 0H17.582Z" fill="#FFE15A"/>
<path d="M23.9999 6.41784V4.53021L4.53027 23.9998H6.41791L23.9999 6.41784Z" fill="#FFE15A"/>
<path d="M23.9998 4.53014V0H19.4696L0 19.4696V23.9998H4.53014L23.9998 4.53014Z" fill="#464655"/>
<path d="M7.5577 14.0053L8.54192 14.4748L9.30471 13.6956C9.40348 13.5947 9.57382 13.6776 9.5554 13.8175L9.41304 14.8986L10.3899 15.3833C10.5163 15.4461 10.4901 15.6337 10.3513 15.6594L9.27912 15.8581L9.12003 16.9369C9.09945 17.0766 8.91289 17.1096 8.84553 16.9855L8.32522 16.0272L7.25011 16.2093C7.11089 16.2329 7.02183 16.0657 7.119 15.9633L7.86965 15.1723L7.36429 14.2061C7.29881 14.081 7.43029 13.9446 7.5577 14.0053Z" fill="#F5F5F5"/>
<path d="M14.4014 7.06792L15.3857 7.53737L16.1485 6.75812C16.2472 6.65725 16.4176 6.74012 16.3991 6.88009L16.2568 7.96121L17.2336 8.44589C17.3601 8.50865 17.3339 8.69625 17.1951 8.72198L16.1229 8.92068L15.9638 9.99945C15.9432 10.1391 15.7566 10.1722 15.6893 10.0481L15.169 9.0898L14.0939 9.27187C13.9546 9.29544 13.8656 9.12824 13.9627 9.02587L14.7134 8.23491L14.208 7.26863C14.1426 7.14353 14.274 7.00712 14.4014 7.06792Z" fill="#F5F5F5"/>
<path d="M24 23.3682V6.41784L6.41797 23.9998H23.5862C23.8147 23.9998 24 23.7171 24 23.3682Z" fill="#FF4B55"/>
</g>
<defs>
<clipPath id="clip0_72_3479">
<path d="M0 2C0 0.895432 0.895431 0 2 0H21.9998C23.1043 0 23.9998 0.895431 23.9998 2V21.9998C23.9998 23.1043 23.1043 23.9998 21.9998 23.9998H2C0.895432 23.9998 0 23.1043 0 21.9998V2Z" fill="white"/>
</clipPath>
</defs>
</svg>
