<svg width="24" height="24" viewBox="0 0 24 24" fill="none" xmlns="http://www.w3.org/2000/svg">
<g clip-path="url(#clip0_72_3489)">
<path d="M23.9998 0.0110817H0V23.9888H23.9998V0.0110817Z" fill="#FF4B55"/>
<path d="M11.9886 0.0110817H0V11.9997H11.9886V0.0110817Z" fill="#41479B"/>
<path d="M6.02902 7.97533L5.73938 8.84387L4.82383 8.85099C4.70528 8.85193 4.65611 9.00319 4.7515 9.0736L5.488 9.61748L5.21181 10.4904C5.17609 10.6034 5.30472 10.697 5.40114 10.628L6.14597 10.0957L6.89081 10.628C6.98723 10.697 7.11595 10.6034 7.08014 10.4904L6.80395 9.61748L7.54044 9.0736C7.63579 9.00315 7.58666 8.85188 7.46812 8.85099L6.55256 8.84387L6.26292 7.97533C6.22557 7.86292 6.06647 7.86292 6.02902 7.97533Z" fill="#F5F5F5"/>
<path d="M6.05162 1.20322L5.81729 1.90582L5.07672 1.91158C4.98086 1.91233 4.94111 2.03472 5.01822 2.09163L5.614 2.53159L5.39059 3.23771C5.36167 3.32912 5.46578 3.40477 5.54378 3.34899L6.1463 2.91836L6.74883 3.34899C6.82683 3.40477 6.93089 3.32912 6.90202 3.23771L6.67861 2.53159L7.27439 2.09163C7.3515 2.03468 7.31175 1.91233 7.21589 1.91158L6.47532 1.90582L6.24099 1.20322C6.21062 1.11223 6.08199 1.11223 6.05162 1.20322Z" fill="#F5F5F5"/>
<path d="M9.79771 3.29336L9.56339 3.99596L8.82282 4.00173C8.72696 4.00248 8.68721 4.12486 8.76432 4.18177L9.36009 4.62173L9.13669 5.32785C9.10777 5.41926 9.21187 5.49491 9.28987 5.43913L9.8924 5.0085L10.4949 5.43913C10.5729 5.49491 10.677 5.41926 10.6481 5.32785L10.4247 4.62173L11.0205 4.18177C11.0976 4.12482 11.0578 4.00248 10.962 4.00173L10.2214 3.99596L9.98709 3.29336C9.95671 3.20242 9.82809 3.20242 9.79771 3.29336Z" fill="#F5F5F5"/>
<path d="M2.38365 4.12153L2.14932 4.82414L1.40875 4.8299C1.31289 4.83065 1.27314 4.95304 1.35025 5.00995L1.94603 5.44991L1.72262 6.15603C1.6937 6.24744 1.79781 6.32309 1.87581 6.26731L2.47834 5.83663L3.08086 6.26731C3.15886 6.32309 3.26292 6.24744 3.23405 6.15603L3.01064 5.44991L3.60642 5.00995C3.68353 4.953 3.64378 4.83065 3.54792 4.8299L2.80735 4.82414L2.57302 4.12153C2.54269 4.03055 2.41398 4.03055 2.38365 4.12153Z" fill="#F5F5F5"/>
<path d="M8.18306 6.41514L8.05153 6.80955L7.63575 6.81278C7.58194 6.8132 7.55962 6.88192 7.60294 6.91389L7.93739 7.16087L7.81195 7.55724C7.79568 7.60857 7.85414 7.65099 7.89792 7.61973L8.23616 7.37799L8.57441 7.61973C8.61819 7.65099 8.67664 7.60857 8.66038 7.55724L8.53494 7.16087L8.86939 6.91389C8.9127 6.88192 8.89039 6.8132 8.83658 6.81278L8.4208 6.80955L8.28927 6.41514C8.27235 6.3641 8.20012 6.3641 8.18306 6.41514Z" fill="#F5F5F5"/>
</g>
<defs>
<clipPath id="clip0_72_3489">
<path d="M0 2C0 0.895432 0.895431 0 2 0H21.9998C23.1043 0 23.9998 0.895431 23.9998 2V21.9998C23.9998 23.1043 23.1043 23.9998 21.9998 23.9998H2C0.895432 23.9998 0 23.1043 0 21.9998V2Z" fill="white"/>
</clipPath>
</defs>
</svg>
