<svg width="24" height="24" viewBox="0 0 24 24" fill="none" xmlns="http://www.w3.org/2000/svg">
<g clip-path="url(#clip0_72_3498)">
<path d="M23.9998 6.10352e-05H0V8.00014H23.9998V6.10352e-05Z" fill="#5AA587"/>
<path d="M23.9998 15.9998H0V23.9998H23.9998V15.9998Z" fill="#FFE15A"/>
<path d="M23.9998 8.00014H0V16.0002H23.9998V8.00014Z" fill="#464655"/>
<path d="M23.9988 7.28949H-0.000976562V8.28698H23.9988V7.28949Z" fill="#F5F5F5"/>
<path d="M23.9988 15.7128H-0.000976562V16.7103H23.9988V15.7128Z" fill="#F5F5F5"/>
<path d="M11.4526 12.3273C11.6163 12.1599 11.6163 11.8399 11.4526 11.6726L0 6.10352e-05V23.9998L11.4526 12.3273Z" fill="#FF4B55"/>
<path d="M4.80145 7.89157L5.72479 10.66L8.64305 10.6827C8.80622 10.6839 8.87391 10.8922 8.74261 10.9891L6.395 12.7227L7.2753 15.5052C7.32452 15.6607 7.14738 15.7895 7.01463 15.6946L4.64039 13.9976L2.26615 15.6946C2.1334 15.7895 1.95626 15.6608 2.00548 15.5052L2.88578 12.7227L0.538023 10.9891C0.406728 10.8922 0.474415 10.6839 0.637585 10.6827L3.55585 10.66L4.47919 7.89157C4.53084 7.73679 4.74979 7.73679 4.80145 7.89157Z" fill="#FFE15A"/>
<path d="M4.46895 13.0334L4.24067 13.2631H2.33203L2.85295 11.3516L3.06581 11.2452L2.72414 12.9494C2.72132 12.9704 2.72554 12.9914 2.73956 13.0082C2.75217 13.025 2.77176 13.0334 2.79276 13.0334H4.46895Z" fill="#F5F5F5"/>
<path d="M4.92654 13.3513C4.8439 13.4129 4.74307 13.448 4.63808 13.448C4.53308 13.448 4.43225 13.4129 4.34961 13.3513L4.63808 13.0629L4.92654 13.3513Z" fill="#F5F5F5"/>
<path d="M6.94458 13.2631H5.0359L4.80762 13.0335H6.48385C6.50485 13.0335 6.52444 13.0251 6.53705 13.0083C6.55107 12.9915 6.55524 12.9704 6.55247 12.9494L6.21081 11.2452L6.42366 11.3516L6.94458 13.2631Z" fill="#F5F5F5"/>
<path d="M6.39826 12.8934H4.70801V11.15C4.9909 10.9105 5.73728 11.0744 6.05373 11.1724L6.39826 12.8934Z" fill="#F5F5F5"/>
<path d="M4.56813 11.15V12.8934H2.87793L3.22241 11.1724C3.53886 11.0744 4.28524 10.9105 4.56813 11.15Z" fill="#F5F5F5"/>
<path d="M7.10939 13.315L6.55627 11.2845C6.55069 11.2663 6.53808 11.2495 6.51985 11.2411L6.15015 11.0563C6.14874 11.0549 6.14734 11.0549 6.14452 11.0549C6.14312 11.0549 6.14312 11.0535 6.14171 11.0521C6.0969 11.0367 5.07325 10.7034 4.64332 11.0297C4.21343 10.7034 3.18974 11.0367 3.14493 11.0521C3.14352 11.0535 3.14352 11.0535 3.14212 11.0549C3.1393 11.0549 3.1379 11.0549 3.13649 11.0563L2.76679 11.2411C2.7486 11.2495 2.73599 11.2663 2.73037 11.2845L2.17725 13.315C2.17163 13.336 2.17584 13.3584 2.18845 13.3753C2.20247 13.3921 2.22347 13.4033 2.24447 13.4033H4.20504C4.32129 13.5195 4.47813 13.5881 4.64337 13.5881C4.8086 13.5881 4.96544 13.5195 5.08169 13.4033H7.04217C7.06317 13.4033 7.08417 13.3921 7.09819 13.3753C7.1108 13.3584 7.11497 13.336 7.10939 13.315ZM4.7134 11.1501C4.99629 10.9106 5.74267 11.0745 6.05912 11.1725L6.4036 12.8935H4.71335L4.7134 11.1501ZM3.22761 11.1725C3.54411 11.0745 4.2905 10.9106 4.57334 11.1501V12.8935H2.88313L3.22761 11.1725ZM2.337 13.2632L2.85792 11.3517L3.07077 11.2453L2.7291 12.9496C2.72629 12.9706 2.73051 12.9916 2.74453 13.0084C2.75714 13.0252 2.77673 13.0336 2.79773 13.0336H4.47396L4.24568 13.2632H2.337ZM4.64337 13.4481C4.53832 13.4481 4.43754 13.4131 4.3549 13.3515L4.64337 13.063L4.93183 13.3515C4.84919 13.4131 4.74837 13.4481 4.64337 13.4481ZM5.04105 13.2632L4.81277 13.0336H6.48901C6.51 13.0336 6.5296 13.0252 6.54221 13.0084C6.55622 12.9916 6.5604 12.9706 6.55763 12.9496L6.21596 11.2453L6.42882 11.3517L6.94974 13.2632H5.04105Z" fill="#464655"/>
<path d="M6.39388 9.32114C6.32249 9.37092 6.22569 9.36234 6.16415 9.30079L6.07101 9.20765V9.43565L5.50101 10.0056H5.27301L4.36102 10.9176H4.13303L2.37959 12.6711C2.33642 12.7142 2.32132 12.7781 2.34064 12.8361L2.42314 13.0835L2.08114 13.4255H1.85314L1.15602 14.1226C1.10034 14.1783 1.10034 14.2687 1.15602 14.3243L1.61605 14.7844C1.68247 14.8508 1.79131 14.8466 1.85244 14.7753L2.87908 13.5395L2.99308 13.1975L3.22108 12.9695L3.67708 13.6535L4.01907 13.3115L3.6543 12.7644L3.74514 12.6735C3.83345 12.5852 3.83345 12.442 3.74514 12.3536L3.67708 12.2856L3.74115 12.2215C4.22766 12.6384 4.81196 12.7462 5.36826 12.5078L5.17776 12.0633C4.71816 12.2603 4.34284 12.0955 4.0817 11.8809L5.04497 10.9176L5.00695 10.7277L5.27292 10.4617H5.50092L7.21085 8.75175L6.39388 9.32114Z" fill="#464655"/>
<path d="M2.9934 9.09366L2.7654 9.32166C2.70245 9.38461 2.70245 9.4867 2.7654 9.54966L2.80337 9.58762L2.4234 9.66365L1.39746 10.6896L1.96746 11.2596L2.9934 10.2336L3.06938 9.85364L3.2214 10.0057L3.3354 9.89165L7.12731 13.6836L7.35531 13.4556L3.56339 9.66365L3.67739 9.54966L3.2214 9.09366C3.1584 9.03071 3.05635 9.03071 2.9934 9.09366Z" fill="#464655"/>
</g>
<defs>
<clipPath id="clip0_72_3498">
<path d="M0 2C0 0.895432 0.895431 0 2 0H21.9998C23.1043 0 23.9998 0.895431 23.9998 2V21.9998C23.9998 23.1043 23.1043 23.9998 21.9998 23.9998H2C0.895432 23.9998 0 23.1043 0 21.9998V2Z" fill="white"/>
</clipPath>
</defs>
</svg>
