<svg width="24" height="24" viewBox="0 0 24 24" fill="none" xmlns="http://www.w3.org/2000/svg">
<g clip-path="url(#clip0_72_3517)">
<path d="M23.9988 6.10352e-05H-0.000976562V23.9998H23.9988V6.10352e-05Z" fill="#73AF00"/>
<path d="M23.9988 5.68407H-0.000976562V18.3154H23.9988V5.68407Z" fill="#FFE15A"/>
<path d="M-0.000976562 23.9998L6.58091 12.3273C6.67499 12.1599 6.67499 11.8399 6.58091 11.6726L-0.000976562 6.10352e-05V23.9998Z" fill="#FF4B55"/>
<path d="M10.8145 9.53109L11.2847 10.9409L12.7708 10.9524C12.9632 10.9539 13.043 11.1994 12.8882 11.3137L11.6927 12.1966L12.141 13.6135C12.199 13.7969 11.9901 13.9487 11.8336 13.8368L10.6246 12.9726L9.41554 13.8368C9.25903 13.9487 9.05016 13.7969 9.10819 13.6135L9.55645 12.1966L8.36096 11.3137C8.20618 11.1994 8.28596 10.9539 8.47838 10.9524L9.96449 10.9409L10.4347 9.53109C10.4954 9.34856 10.7536 9.34856 10.8145 9.53109Z" fill="#464655"/>
<path d="M17.6748 9.53109L18.145 10.9409L19.6311 10.9524C19.8235 10.9539 19.9033 11.1994 19.7485 11.3137L18.5531 12.1966L19.0013 13.6135C19.0594 13.7969 18.8505 13.9487 18.694 13.8368L17.4849 12.9726L16.2759 13.8368C16.1194 13.9487 15.9105 13.7969 15.9685 13.6135L16.4168 12.1966L15.2213 11.3137C15.0665 11.1994 15.1463 10.9539 15.3387 10.9524L16.8248 10.9409L17.295 9.53109C17.3557 9.34856 17.6139 9.34856 17.6748 9.53109Z" fill="#464655"/>
</g>
<defs>
<clipPath id="clip0_72_3517">
<path d="M0 2C0 0.895432 0.895431 0 2 0H21.9998C23.1043 0 23.9998 0.895431 23.9998 2V21.9998C23.9998 23.1043 23.1043 23.9998 21.9998 23.9998H2C0.895432 23.9998 0 23.1043 0 21.9998V2Z" fill="white"/>
</clipPath>
</defs>
</svg>
