<svg width="24" height="24" viewBox="0 0 24 24" fill="none" xmlns="http://www.w3.org/2000/svg">
<g clip-path="url(#clip0_72_3568)">
<path d="M23.9978 16.0026H-0.00195312V23.9998H23.9978V16.0026Z" fill="#F5F5F5"/>
<path d="M23.9978 6.10352e-05H-0.00195312V7.99733H23.9978V6.10352e-05Z" fill="#FF4B55"/>
<path d="M23.9978 7.99733H-0.00195312V16.0026H23.9978V7.99733Z" fill="#41479B"/>
<path d="M10.4245 7.99564H5.87418L5.68457 6.85808H10.6141L10.4245 7.99564Z" fill="#FFE15A"/>
<path d="M5.82617 7.71125L5.87361 7.99564H10.424L10.4714 7.71125H5.82617Z" fill="#FFD350"/>
<path d="M8.24625 4.20367H8.05664V4.96206H8.24625V4.20367Z" fill="#FFE15A"/>
<path d="M8.43694 4.39305H7.86816V4.58266H8.43694V4.39305Z" fill="#FFE15A"/>
<path d="M10.4418 7.23716C10.4204 7.23716 10.3986 7.23346 10.3772 7.22587C10.2788 7.19015 10.2279 7.08144 10.2636 6.98296L10.6653 5.87461C10.6852 5.81963 10.6804 5.75907 10.6524 5.70854C10.6375 5.68168 10.6025 5.63447 10.5361 5.62022C10.0464 5.51616 9.0973 5.34118 8.24338 5.34118H8.06024C7.20628 5.34118 6.25722 5.51616 5.76738 5.62041C5.7011 5.63447 5.66617 5.68168 5.65127 5.70854C5.62324 5.75907 5.6185 5.81963 5.63847 5.87461L6.04 6.98296C6.07572 7.08144 6.02481 7.19015 5.92642 7.22587C5.82813 7.26107 5.71914 7.21049 5.68361 7.11219L5.28199 6.00385C5.22466 5.84574 5.2384 5.67113 5.31968 5.52465C5.39819 5.38299 5.53254 5.28263 5.68835 5.24949C6.19281 5.1421 7.17164 4.96197 8.06029 4.96197H8.24343C9.13208 4.96197 10.1109 5.1421 10.6152 5.24931C10.7712 5.28263 10.9055 5.38299 10.984 5.52465C11.0653 5.67108 11.079 5.84569 11.0218 6.00385L10.6201 7.11219C10.5922 7.18921 10.5194 7.23716 10.4418 7.23716Z" fill="#FFE15A"/>
<path d="M8.1525 7.07127C8.04778 7.07127 7.96289 6.98647 7.96289 6.88166V5.34118C7.96289 5.23637 8.04778 5.15157 8.1525 5.15157C8.25722 5.15157 8.34211 5.23637 8.34211 5.34118V6.88166C8.34211 6.98647 8.25722 7.07127 8.1525 7.07127Z" fill="#FFE15A"/>
<path d="M9.46332 7.23716C9.45052 7.23716 9.43759 7.23585 9.4246 7.23327C9.32204 7.21199 9.25618 7.11163 9.27751 7.00907L9.50748 5.90072C9.53738 5.7563 9.49055 5.62983 9.46398 5.60762C9.20106 5.51115 8.67362 5.34118 8.20436 5.34118H8.09946C7.6302 5.34118 7.10276 5.51115 6.83014 5.61263C6.81331 5.62983 6.76644 5.7563 6.79635 5.90072L7.02631 7.00907C7.04759 7.11163 6.98178 7.21199 6.87922 7.23327C6.77656 7.2531 6.67621 7.18865 6.65507 7.08609L6.4251 5.97774C6.36777 5.70151 6.45576 5.34765 6.69772 5.25727C7.06016 5.12246 7.59729 4.96197 8.09946 4.96197H8.20436C8.70648 4.96197 9.24367 5.12251 9.60591 5.25709C9.84811 5.34765 9.93605 5.70146 9.87872 5.97774L9.64876 7.08609C9.63024 7.17571 9.55126 7.23716 9.46332 7.23716Z" fill="#FFE15A"/>
<path d="M5.73196 7.14247H10.5667L10.6141 6.85808H5.68457L5.73196 7.14247Z" fill="#FFD350"/>
<path d="M4.54703 7.99564C4.44231 7.99564 4.35742 8.08053 4.35742 8.18525V14.8066C4.35742 16.9089 6.05512 18.6132 8.14943 18.6132C10.2437 18.6132 11.9414 16.9089 11.9414 14.8066V8.18525C11.9414 8.08053 11.8566 7.99564 11.7518 7.99564H4.54703Z" fill="#FF4B55"/>
<path d="M8.52859 14.2525L8.90781 13.3045L8.14942 13.4941L7.39104 13.3045L7.77026 14.2525L6.82227 17.4756C6.82227 17.4756 7.39104 17.8549 8.14947 17.8549C8.9079 17.8549 9.47668 17.4756 9.47668 17.4756L8.52859 14.2525Z" fill="#F5F5F5"/>
<path d="M6.77587 15.0166L6.44137 15.1002L7.17721 13.7756L6.84576 13.5916L5.952 15.2004H5.11548V15.5797H5.52291L4.99707 16.0003L5.23388 16.2966L5.68059 15.9392L5.50439 16.4677L5.86416 16.5877L6.21046 15.5487L6.86788 15.3843L6.77587 15.0166Z" fill="#FFE15A"/>
<path d="M6.82192 9.89167L5.95638 9.45892C5.79743 9.37942 5.71497 9.20022 5.7581 9.02777L5.80704 8.83197C5.84102 8.69608 5.73822 8.56446 5.59816 8.56446C5.53277 8.56446 5.4709 8.59418 5.43007 8.64527C4.98097 9.20664 4.73633 9.90414 4.73633 10.6231V14.6317C4.73633 14.6317 5.52809 14.4733 6.2433 13.4331C6.37464 13.2421 6.59078 13.1291 6.82117 13.1172L6.44275 14.2525L7.20113 14.4421L7.86474 13.6524L6.82192 9.89167Z" fill="#F5F5F5"/>
<path d="M9.52243 15.0166L9.85693 15.1002L9.12109 13.7756L9.45254 13.5916L10.3463 15.2004H11.1828V15.5797H10.7754L11.3012 16.0003L11.0644 16.2966L10.6177 15.9392L10.7939 16.4677L10.4341 16.5877L10.0878 15.5487L9.43042 15.3843L9.52243 15.0166Z" fill="#FFE15A"/>
<path d="M9.47641 9.89167L10.342 9.45892C10.5009 9.37942 10.5834 9.20022 10.5402 9.02777L10.4913 8.83197C10.4573 8.69608 10.5601 8.56446 10.7002 8.56446C10.7656 8.56446 10.8274 8.59418 10.8683 8.64527C11.3174 9.20664 11.562 9.90414 11.562 10.6231V14.6317C11.562 14.6317 10.7702 14.4733 10.055 13.4331C9.92369 13.2421 9.70755 13.1291 9.47716 13.1172L9.85558 14.2525L9.0972 14.4421L8.43359 13.6524L9.47641 9.89167Z" fill="#F5F5F5"/>
<path d="M7.01347 8.56447H6.06543L6.34986 8.94368L7.01347 9.13324L6.63425 9.32285H7.20303L7.01347 8.56447Z" fill="#FFE15A"/>
<path d="M9.28824 8.56447H10.2362L9.9518 8.94368L9.28824 9.13324L9.66741 9.32285H9.09863L9.28824 8.56447Z" fill="#FFE15A"/>
<path d="M9.42061 8.41583L8.52873 8.56447L8.14952 9.32285L7.7703 8.56447L6.87842 8.41583C6.77614 8.39876 6.69777 8.50494 6.74412 8.59765L7.20153 9.51246L6.82231 9.89167H8.14952H9.47672L9.09751 9.51246L9.55491 8.59765C9.60127 8.50494 9.52289 8.39876 9.42061 8.41583Z" fill="#F5F5F5"/>
<path d="M8.14962 7.22516C8.30669 7.22516 8.43401 7.09783 8.43401 6.94077C8.43401 6.78371 8.30669 6.65638 8.14962 6.65638C7.99256 6.65638 7.86523 6.78371 7.86523 6.94077C7.86523 7.09783 7.99256 7.22516 8.14962 7.22516Z" fill="#FFBE50"/>
<path d="M8.14566 7.77847C8.2698 7.77847 8.37043 7.70772 8.37043 7.62045C8.37043 7.53319 8.2698 7.46244 8.14566 7.46244C8.02153 7.46244 7.9209 7.53319 7.9209 7.62045C7.9209 7.70772 8.02153 7.77847 8.14566 7.77847Z" fill="#41479B"/>
<path d="M7.02359 7.77847C7.14772 7.77847 7.24835 7.70772 7.24835 7.62045C7.24835 7.53319 7.14772 7.46244 7.02359 7.46244C6.89946 7.46244 6.79883 7.53319 6.79883 7.62045C6.79883 7.70772 6.89946 7.77847 7.02359 7.77847Z" fill="#FF4B55"/>
<path d="M5.89957 7.77851C6.0237 7.77851 6.12433 7.70776 6.12433 7.62049C6.12433 7.53322 6.0237 7.46248 5.89957 7.46248C5.77543 7.46248 5.6748 7.53322 5.6748 7.62049C5.6748 7.70776 5.77543 7.77851 5.89957 7.77851Z" fill="#41479B"/>
<path d="M10.3869 7.77851C10.511 7.77851 10.6116 7.70776 10.6116 7.62049C10.6116 7.53322 10.511 7.46248 10.3869 7.46248C10.2627 7.46248 10.1621 7.53322 10.1621 7.62049C10.1621 7.70776 10.2627 7.77851 10.3869 7.77851Z" fill="#41479B"/>
<path d="M9.26676 7.77847C9.39089 7.77847 9.49152 7.70772 9.49152 7.62045C9.49152 7.53319 9.39089 7.46244 9.26676 7.46244C9.14262 7.46244 9.04199 7.53319 9.04199 7.62045C9.04199 7.70772 9.14262 7.77847 9.26676 7.77847Z" fill="#FF4B55"/>
<path d="M9.46701 7.22505C9.62407 7.22505 9.75139 7.09772 9.75139 6.94066C9.75139 6.7836 9.62407 6.65627 9.46701 6.65627C9.30994 6.65627 9.18262 6.7836 9.18262 6.94066C9.18262 7.09772 9.30994 7.22505 9.46701 7.22505Z" fill="#FFBE50"/>
<path d="M10.507 7.22505C10.6641 7.22505 10.7914 7.09772 10.7914 6.94066C10.7914 6.7836 10.6641 6.65627 10.507 6.65627C10.35 6.65627 10.2227 6.7836 10.2227 6.94066C10.2227 7.09772 10.35 7.22505 10.507 7.22505Z" fill="#FFBE50"/>
<path d="M6.83322 7.22505C6.99028 7.22505 7.1176 7.09772 7.1176 6.94066C7.1176 6.7836 6.99028 6.65627 6.83322 6.65627C6.67615 6.65627 6.54883 6.7836 6.54883 6.94066C6.54883 7.09772 6.67615 7.22505 6.83322 7.22505Z" fill="#FFBE50"/>
<path d="M5.79318 7.22505C5.95024 7.22505 6.07756 7.09772 6.07756 6.94066C6.07756 6.7836 5.95024 6.65627 5.79318 6.65627C5.63611 6.65627 5.50879 6.7836 5.50879 6.94066C5.50879 7.09772 5.63611 7.22505 5.79318 7.22505Z" fill="#FFBE50"/>
<path d="M8.47634 5.34128C8.50892 5.28531 8.52894 5.22109 8.52894 5.15167C8.52894 4.94223 8.35916 4.77245 8.14972 4.77245C7.94029 4.77245 7.77051 4.94223 7.77051 5.15167C7.77051 5.22109 7.79052 5.28531 7.8231 5.34128H8.47634Z" fill="#41479B"/>
<path d="M8.14953 13.7785C7.36541 13.7785 6.72754 13.1406 6.72754 12.3565V9.79684H9.57151V12.3564C9.57151 13.1406 8.93364 13.7785 8.14953 13.7785Z" fill="#FF4B55"/>
<path d="M9.47683 9.89167V12.3565C9.47683 13.0894 8.88265 13.6837 8.14963 13.6837C7.4166 13.6837 6.82242 13.0894 6.82242 12.3565V9.89167H9.47683ZM9.66644 9.70206H9.47683H6.82242H6.63281V9.89167V12.3565C6.63281 13.1929 7.31324 13.8733 8.14963 13.8733C8.98601 13.8733 9.66644 13.1929 9.66644 12.3565V9.89167V9.70206Z" fill="#A54B50"/>
<path d="M7.86621 13.6523C7.9579 13.6724 8.05291 13.6836 8.1506 13.6836C8.24833 13.6836 8.3433 13.6724 8.43499 13.6523V9.89164H7.86621V13.6523Z" fill="#F5F5F5"/>
<path d="M9.47765 11.4557H6.82324V12.0245H9.47765V11.4557Z" fill="#F5F5F5"/>
</g>
<defs>
<clipPath id="clip0_72_3568">
<path d="M0 2C0 0.895432 0.895431 0 2 0H21.9998C23.1043 0 23.9998 0.895431 23.9998 2V21.9998C23.9998 23.1043 23.1043 23.9998 21.9998 23.9998H2C0.895432 23.9998 0 23.1043 0 21.9998V2Z" fill="white"/>
</clipPath>
</defs>
</svg>
