<svg width="24" height="24" viewBox="0 0 24 24" fill="none" xmlns="http://www.w3.org/2000/svg">
<g clip-path="url(#clip0_72_3609)">
<path d="M23.9978 23.9986V15.9995L-0.00195312 23.9986H23.9978Z" fill="#73AF00"/>
<path d="M7.99962 0.00127411H0.000484351L-0.00195312 23.9986L7.99962 0.00127411Z" fill="#41479B"/>
<path d="M15.9987 0.00127411H7.99962L-0.00195312 23.9986L15.9987 0.00127411Z" fill="#FFE15A"/>
<path d="M23.9978 0.00127411H15.9987L-0.00195312 23.9986C0.0152498 24.0247 23.9978 8.00037 23.9978 8.00037V0.00127411Z" fill="#FF4B55"/>
<path d="M23.9978 15.9995V8.00033L-0.00195312 23.9986L23.9978 15.9995Z" fill="#F5F5F5"/>
</g>
<defs>
<clipPath id="clip0_72_3609">
<path d="M0 2C0 0.895432 0.895431 0 2 0H21.9998C23.1043 0 23.9998 0.895431 23.9998 2V21.9998C23.9998 23.1043 23.1043 23.9998 21.9998 23.9998H2C0.895432 23.9998 0 23.1043 0 21.9998V2Z" fill="white"/>
</clipPath>
</defs>
</svg>
