<svg width="24" height="24" viewBox="0 0 24 24" fill="none" xmlns="http://www.w3.org/2000/svg">
<g clip-path="url(#clip0_72_3615)">
<path d="M23.9968 6.10352e-05H-0.00292969V23.9998H23.9968V6.10352e-05Z" fill="#FF4B55"/>
<path d="M-0.00292969 6.10352e-05V23.9998H23.9968L-0.00292969 6.10352e-05Z" fill="#FFE15A"/>
<path d="M13.1975 10.3081C13.2682 10.2512 13.3267 10.1809 13.3045 10.1217C13.286 10.0726 13.1948 10.0271 13.0982 9.97886C12.9189 9.88928 12.6795 9.76633 12.6 9.472C12.5905 9.47102 12.5817 9.47191 12.5719 9.47013C12.4932 9.45555 12.4441 9.48264 12.3873 9.66747C12.3769 9.70122 12.3546 9.75536 12.3252 9.81728C12.3841 9.85638 12.5314 9.94712 12.6748 9.9797C12.959 10.0443 13.1339 10.1542 13.1975 10.3081Z" fill="#FFBE55"/>
<path d="M12.0947 10.1829C12.1796 10.2603 12.2575 10.3481 12.3341 10.4462C12.3385 10.4519 12.3433 10.4575 12.3477 10.4631C12.5381 10.3172 12.78 10.3163 12.9485 10.3439C12.8996 10.2932 12.8045 10.2435 12.6242 10.2025C12.4569 10.1645 12.2949 10.0699 12.2149 10.0184C12.1778 10.0778 12.1374 10.1341 12.0947 10.1829Z" fill="#FFBE55"/>
<path d="M13.0596 11.0206C13.1487 11.0722 13.3279 11.1883 13.4831 11.3557C13.5061 11.2269 13.4992 11.056 13.3782 10.9055C13.2748 10.9627 13.1642 10.9989 13.0596 11.0206Z" fill="#FFBE55"/>
<path d="M11.5756 9.51598L11.5457 9.55231C11.3967 9.73437 11.2278 9.93284 11.0664 10.0946C11.1646 10.0483 11.2804 10.0144 11.4004 9.99626C11.4433 9.92749 11.5741 9.74515 11.7348 9.5254C11.6961 9.50089 11.6192 9.46311 11.5756 9.51598Z" fill="#FFBE55"/>
<path d="M10.9912 10.4387C10.992 10.4399 11.0021 10.4524 11.0305 10.4632C11.0799 10.4822 11.1716 10.4888 11.2671 10.4447C11.5455 10.3152 11.8264 10.3861 12.1027 10.6534C12.1034 10.6542 12.1031 10.6554 12.1039 10.6562C12.1047 10.657 12.1059 10.6568 12.1067 10.6576C12.1083 10.6592 12.2013 10.7524 12.3689 10.8379C12.2883 10.7533 12.2159 10.6669 12.1534 10.587C12.0532 10.459 11.9666 10.3486 11.8635 10.2828C11.6018 10.1167 11.1461 10.2623 11.0172 10.3983C10.9963 10.4206 10.9912 10.4352 10.9912 10.4387Z" fill="#FFBE55"/>
<path d="M13.1553 10.6039C13.1553 10.6039 13.1547 10.604 13.1544 10.6041C13.14 10.6108 13.1244 10.6142 13.1083 10.6144C13.1076 10.6144 13.1069 10.6149 13.1061 10.6149C13.1045 10.6149 13.103 10.6134 13.1014 10.6133C13.0896 10.6128 13.0778 10.612 13.0663 10.6077C13.0624 10.6063 12.7089 10.4818 12.4932 10.6381C12.5536 10.706 12.6219 10.7687 12.6982 10.8258C12.8043 10.8283 13.1714 10.8219 13.3806 10.6265C13.4862 10.5279 13.4952 10.4202 13.4774 10.3354C13.3994 10.4579 13.2613 10.5535 13.1553 10.6039Z" fill="#FFBE55"/>
<path d="M9.93233 10.4878C9.91452 10.4619 9.89497 10.4395 9.87964 10.409C9.85447 10.3587 9.8412 10.3053 9.82784 10.2521C9.74661 10.382 9.66111 10.5843 9.71319 10.8081C9.77441 10.6632 9.8668 10.5532 9.93233 10.4878Z" fill="#FFBE55"/>
<path d="M11.9068 10.0521C12.0097 9.94464 12.1363 9.70605 12.1689 9.60025C12.2002 9.49816 12.2954 9.18771 12.6128 9.24513C12.6835 9.25821 12.7359 9.2133 12.768 9.17369C12.6907 9.08557 12.5898 9.02843 12.5021 9.02637C12.4366 9.02013 12.3615 9.0618 12.3033 9.14008C12.0176 9.52497 11.8003 9.8222 11.6826 9.98809C11.7617 9.99719 11.8364 10.0203 11.9068 10.0521Z" fill="#FFBE55"/>
<path d="M11.1688 9.35941C10.9917 9.59575 10.8057 9.72911 10.6699 9.82647C10.491 9.95476 10.4468 9.99822 10.4576 10.0976C10.4598 10.1179 10.4684 10.1327 10.4864 10.147C10.5102 10.1659 10.5444 10.1794 10.5833 10.1894C10.5857 10.1882 10.5872 10.1861 10.5897 10.1852C10.8033 10.0982 11.2286 9.5785 11.3686 9.40764L11.3988 9.37075C11.547 9.19146 11.7556 9.26322 11.8697 9.34108C11.9091 9.2876 11.9488 9.23379 11.9885 9.18012C11.7824 8.93121 11.4414 8.99613 11.1688 9.35941Z" fill="#FFBE55"/>
<path d="M12.9699 9.283C12.9361 9.33161 12.8878 9.38228 12.8262 9.42016C12.883 9.60878 13.0416 9.69526 13.2002 9.77434C13.2943 9.82126 13.3829 9.86804 13.4467 9.93428C13.5003 9.74265 13.4933 9.59027 13.4193 9.48438C13.3105 9.32908 13.0795 9.29125 12.9699 9.283Z" fill="#FFBE55"/>
<path d="M12.1345 16.134L12.1593 16.1623C12.4737 16.5201 12.7706 16.8657 12.9684 17.1568C12.9624 16.9996 12.9517 16.8368 12.9328 16.7236C12.9322 16.7201 12.9318 16.7162 12.9316 16.7126C12.8307 16.5823 12.7221 16.4608 12.6075 16.3581C12.2725 16.0587 12.0836 15.7583 11.9779 15.5267C11.9599 15.7259 11.9825 15.9614 12.1345 16.134Z" fill="#FFBE55"/>
<path d="M11.9742 14.979C11.9474 14.9319 11.9231 14.8813 11.9033 14.8248C11.9031 14.8244 11.9033 14.8239 11.9031 14.8234C11.9015 14.8228 11.8998 14.8222 11.8982 14.8216C11.8297 14.9402 11.7042 15.0219 11.5702 15.0222C11.5702 15.0222 11.5698 15.0222 11.5696 15.0222C11.5593 15.0222 11.5501 15.0182 11.5399 15.0173C11.5225 15.0944 11.5168 15.1816 11.5656 15.2281C11.6205 15.2811 11.7322 15.2804 11.7905 15.2655C11.8189 15.1447 11.8502 15.0592 11.8542 15.0492C11.8735 15.0012 11.9222 14.9731 11.9742 14.979Z" fill="#FFBE55"/>
<path d="M11.7506 15.5011C11.7385 15.5019 11.7274 15.5038 11.7148 15.5038C11.6807 15.5038 11.6451 15.4993 11.6096 15.4922C11.5886 15.5711 11.5813 15.6601 11.6337 15.7137C11.6665 15.7471 11.7144 15.7601 11.7537 15.7626C11.745 15.6724 11.743 15.5836 11.7506 15.5011Z" fill="#FFBE55"/>
<path d="M7.50071 10.412L7.5002 10.4123C7.2707 10.489 6.99817 10.4703 6.75977 10.4236C6.8988 10.6379 6.9519 10.8962 6.95814 11.1365C7.25757 10.7459 7.58898 10.567 7.8263 10.4822C7.70424 10.4713 7.59418 10.4488 7.50071 10.412Z" fill="#FFBE55"/>
<path d="M12.9118 16.0935C12.8601 16.0895 12.7432 16.0747 12.6045 16.0325C12.6533 16.0841 12.7022 16.1358 12.7604 16.1879C13.1426 16.5296 13.4533 17.0499 13.6564 17.4512C13.7287 17.1922 13.8988 16.9702 14.0817 16.8017C13.571 16.7679 13.1715 16.4123 12.9118 16.0935Z" fill="#FFBE55"/>
<path d="M10.3275 11.9116C10.2438 11.8931 10.1497 11.8584 10.0582 11.8022C9.99694 11.9969 9.9542 12.1772 9.93066 12.3418C10.0573 12.3301 10.153 12.3312 10.2182 12.3365C10.2494 12.1619 10.2926 12.0123 10.3275 11.9116Z" fill="#FFBE55"/>
<path d="M6.72065 11.3547C6.74803 11.0846 6.7334 10.6534 6.43373 10.3943C6.43275 10.3942 6.43191 10.3946 6.43092 10.3944C6.42169 10.3932 5.56501 10.2697 4.99319 10.8537C4.77813 11.0734 4.63821 11.2454 4.52599 11.3836C4.37374 11.5711 4.26433 11.7056 4.08691 11.8098C4.62363 12.001 5.92435 12.3232 6.72065 11.3547Z" fill="#FFBE55"/>
<path d="M14.6802 7.89294C14.9195 8.02152 15.3236 8.17269 15.677 7.99522C15.6776 7.99438 15.6775 7.9934 15.678 7.99251C15.6825 7.98505 16.1241 7.24031 15.8033 6.4884C15.6826 6.2056 15.5771 6.01065 15.4923 5.85409C15.3774 5.64184 15.2948 5.48917 15.2662 5.28527C14.8847 5.70854 14.0894 6.78689 14.6802 7.89294Z" fill="#FFBE55"/>
<path d="M14.3531 16.8741C14.1377 17.0393 13.8337 17.3451 13.8503 17.7406C13.851 17.7417 13.8522 17.7421 13.8529 17.7432C13.8578 17.7503 14.3553 18.4588 15.1726 18.4751C15.4808 18.4814 15.7014 18.4653 15.8791 18.4522C16.1201 18.4344 16.2928 18.4222 16.49 18.4793C16.2609 17.9579 15.6038 16.7912 14.3531 16.8741Z" fill="#FFBE55"/>
<path d="M12.573 15.5815C12.5708 15.5771 12.5727 15.5722 12.5712 15.5675L12.415 15.7008C12.5173 15.7644 12.6253 15.8033 12.7176 15.8276C12.6255 15.6866 12.5748 15.5854 12.573 15.5815Z" fill="#FFBE55"/>
<path d="M11.9282 14.0574C11.8849 14.0545 11.8419 14.0498 11.7995 14.0423C11.7667 14.0953 11.6948 14.246 11.8009 14.4361C11.8403 14.5069 11.9069 14.5957 11.9995 14.6174C12.0547 14.6299 12.1181 14.6114 12.1853 14.5754C12.0484 14.3539 11.9659 14.1586 11.9282 14.0574Z" fill="#FFBE55"/>
<path d="M14.2651 10.0367C14.3839 9.94778 14.6004 9.78086 14.8572 9.5613C14.9343 9.07254 15.2193 8.61744 15.4746 8.29349C15.215 8.32949 14.9489 8.26578 14.7246 8.16997C15.0247 8.9734 14.3749 9.86364 14.2529 10.0205C14.2569 10.0261 14.2613 10.0309 14.2651 10.0367Z" fill="#FFBE55"/>
<path d="M12.2459 15.5444L12.4528 15.3678C12.3183 15.3214 12.1894 15.2456 12.084 15.1305C12.0997 15.2032 12.1432 15.353 12.2459 15.5444Z" fill="#FFBE55"/>
<path d="M9.6937 12.375C9.71981 12.1543 9.77784 11.9084 9.86807 11.6401C9.81023 11.5743 9.75947 11.4941 9.71906 11.3984C9.61223 11.6454 9.45787 12.0498 9.39844 12.4416C9.507 12.4129 9.60534 12.391 9.6937 12.375Z" fill="#FFBE55"/>
<path d="M13.6961 9.59008C13.7222 9.73853 13.7052 9.90925 13.6338 10.1069C13.6767 10.1832 13.713 10.2895 13.7131 10.4049C13.8036 10.3856 13.8103 10.3308 13.8383 10.0319L13.8502 9.90836C13.8615 9.79497 13.8411 9.70834 13.7895 9.65149C13.7627 9.62191 13.7296 9.60391 13.6961 9.59008Z" fill="#FFBE55"/>
<path d="M13.6709 11.5435C13.7452 11.5281 13.8393 11.4958 13.9145 11.4264C14.0284 11.3213 14.1544 11.0986 14.1337 10.9987C14.1312 10.9861 14.1281 10.9781 14.1064 10.9704C14.0238 10.9409 13.9989 10.9516 13.9991 10.9519C13.994 10.9558 13.9846 10.9766 13.9791 10.9888C13.9648 11.0204 13.9455 11.0633 13.9024 11.0915C13.8365 11.1345 13.7742 11.1459 13.7169 11.1461C13.7333 11.3057 13.7018 11.4507 13.6709 11.5435Z" fill="#FFBE55"/>
<path d="M9.48211 10.5415C9.49781 10.4367 9.52847 10.3389 9.56981 10.2511C9.36183 10.1734 8.89201 10.0216 8.50811 10.0744C7.96591 10.1474 7.55365 10.0866 7.29199 10.0164C7.41729 10.1456 7.63254 10.2798 7.96933 10.2659C8.80496 10.2491 9.28402 10.4381 9.48211 10.5415Z" fill="#FFBE55"/>
<path d="M8.43348 10.5088C8.23572 10.6637 8.08989 10.8498 7.99023 11.0088C8.2974 10.8496 8.69181 10.6906 8.95266 10.5908C8.81218 10.5552 8.63935 10.5258 8.43348 10.5088Z" fill="#FFBE55"/>
<path d="M14.0598 10.7264C14.0952 10.7305 14.1336 10.7382 14.178 10.7536C14.1762 10.7448 14.1747 10.7369 14.1724 10.7263C14.1585 10.6618 14.1405 10.5729 14.145 10.4435C14.145 10.4426 14.1445 10.4419 14.1445 10.4411C14.1445 10.4403 14.1449 10.4395 14.1448 10.4387C14.1449 10.4361 14.1445 10.4346 14.1446 10.4319C14.1502 10.3118 14.1096 10.2146 14.0566 10.1426C14.041 10.2971 14.0207 10.4138 13.9658 10.4958C13.9986 10.5475 14.0369 10.6275 14.0598 10.7264Z" fill="#FFBE55"/>
<path d="M14.3555 10.255C14.3593 10.2717 14.3627 10.2886 14.3653 10.306C15.0349 10.2151 15.5105 9.54166 15.7847 9.00218C15.2019 9.61914 14.5471 10.1143 14.3555 10.255Z" fill="#FFBE55"/>
<path d="M11.5696 14.7936H11.5697C11.6269 14.7933 11.6853 14.7504 11.7101 14.6935C11.6707 14.6517 11.6335 14.6048 11.6016 14.5475C11.5802 14.5092 11.5662 14.4724 11.5534 14.4361C11.5083 14.4635 11.4583 14.5026 11.4359 14.5528C11.4191 14.59 11.4199 14.629 11.438 14.6755C11.4591 14.7293 11.499 14.7936 11.5696 14.7936Z" fill="#FFBE55"/>
<path d="M9.15964 12.5112C9.2052 12.0997 9.3552 11.6738 9.4737 11.3892C9.39959 11.4457 9.30701 11.5035 9.19268 11.5583C9.17989 11.5867 8.94908 12.1038 8.86133 12.6159C8.96694 12.5759 9.0664 12.541 9.15964 12.5112Z" fill="#FFBE55"/>
<path d="M13.2091 16.0899C13.3424 16.1039 13.4659 16.0977 13.5734 16.0825C13.37 16.0131 13.1671 15.9211 13.001 15.8384C13.0597 15.9188 13.1293 16.0054 13.2091 16.0899Z" fill="#FFBE55"/>
<path d="M11.5747 13.9798C11.0248 13.7709 10.591 13.1792 10.4356 12.4266C10.3898 12.7187 10.3869 13.0805 10.5425 13.405C10.711 13.7569 11.0449 14.0043 11.5238 14.1498C11.5341 14.0818 11.5535 14.0245 11.5747 13.9798Z" fill="#FFBE55"/>
<path d="M14.5005 10.5217C14.4883 10.5242 14.4751 10.5241 14.4629 10.5264C14.6157 10.6935 15.2296 11.4367 15.3958 12.7337C15.5101 12.7775 15.6166 12.8223 15.7068 12.8677C15.6472 12.34 15.4083 11.0052 14.5005 10.5217Z" fill="#FFBE55"/>
<path d="M8.61792 12.7141C8.66559 12.3194 8.80438 11.9136 8.89879 11.6731C8.80317 11.7029 8.69685 11.7293 8.57986 11.7516C8.3738 12.0969 8.24892 12.6147 8.19141 12.907C8.34314 12.8333 8.4839 12.7706 8.61792 12.7141Z" fill="#FFBE55"/>
<path d="M12.3169 14.7678C12.2597 14.8012 12.2063 14.823 12.1572 14.835C12.2847 15.0873 12.5216 15.1734 12.7226 15.1957C12.5601 15.067 12.4276 14.9174 12.3169 14.7678Z" fill="#FFBE55"/>
<path d="M10.6718 10.492C10.7001 10.4791 10.7352 10.4689 10.7673 10.4574C10.7667 10.4515 10.7652 10.446 10.7652 10.4399C10.6313 10.4373 10.4563 10.4155 10.3439 10.326C10.2782 10.2736 10.239 10.2033 10.2302 10.1227C10.2035 9.87949 10.3653 9.76338 10.5364 9.64076C10.6062 9.5906 10.6854 9.53257 10.7677 9.45898C10.5172 9.44187 10.2925 9.52573 10.153 9.70713C10.0151 9.88633 9.98856 10.1161 10.084 10.3066C10.2139 10.5673 10.4945 10.5412 10.6718 10.492Z" fill="#FFBE55"/>
<path d="M10.3629 10.7462C10.2962 10.7386 10.2316 10.7178 10.1693 10.6899C10.1595 10.8206 10.1676 10.9979 10.2526 11.102C10.2547 11.0436 10.2619 10.9842 10.279 10.9257C10.2953 10.8698 10.3216 10.8078 10.3629 10.7462Z" fill="#FFBE55"/>
<path d="M11.2194 10.8248C11.4914 10.8462 11.7002 10.777 11.8246 10.7184C11.6158 10.5695 11.464 10.6051 11.3636 10.6519C11.2023 10.727 11.0217 10.7222 10.8997 10.6519C10.8546 10.6723 10.8058 10.6927 10.7488 10.709C10.6213 10.773 10.5384 10.8641 10.5016 10.9808C10.49 11.0175 10.4882 11.0537 10.4854 11.0898C10.4877 11.0878 10.4878 11.0841 10.4903 11.0823C10.7521 10.8948 10.9972 10.8105 11.2194 10.8248Z" fill="#FFBE55"/>
<path d="M12.462 13.9745C12.3686 14.0113 12.2722 14.0385 12.1729 14.0519C12.2387 14.2089 12.3687 14.4762 12.5747 14.7269C12.6819 14.5462 12.5555 14.1574 12.462 13.9745Z" fill="#FFBE55"/>
<path d="M10.2905 11.3902C10.0478 11.3186 9.95397 11.096 9.93667 10.8659C9.88445 10.9752 9.85647 11.1118 9.90883 11.2636C10.0142 11.5681 10.2442 11.6569 10.3794 11.6851C10.3809 11.6497 10.3824 11.6144 10.3851 11.5792C10.3843 11.5784 10.3833 11.5782 10.3825 11.5773C10.3511 11.5424 10.3165 11.4749 10.2905 11.3902Z" fill="#FFBE55"/>
<path d="M9.47798 10.7972C9.46969 10.7936 9.46045 10.7945 9.45295 10.7888C9.45169 10.788 9.39919 10.753 9.30155 10.7086C8.95791 10.8941 8.76493 11.2724 8.67676 11.4978C9.29939 11.347 9.49683 11.0637 9.53541 10.9975C9.50709 10.9302 9.48787 10.8631 9.47798 10.7972Z" fill="#FFBE55"/>
<path d="M13.5013 13.3098C13.6168 13.0596 13.6417 12.7731 13.5805 12.4557C13.4424 13.0917 13.1046 13.6099 12.667 13.8736C12.687 13.9137 12.7091 13.9633 12.7321 14.0223C12.9039 13.9471 13.3052 13.7341 13.5013 13.3098Z" fill="#FFBE55"/>
<path d="M13.7775 10.9004C13.7914 10.8632 13.8121 10.8245 13.8423 10.7923C13.8289 10.7211 13.8006 10.6614 13.7767 10.6229C13.7428 10.6319 13.7046 10.6386 13.661 10.6429C13.658 10.6432 13.6551 10.6433 13.6521 10.6434C13.6292 10.686 13.5988 10.7279 13.5596 10.7686C13.5944 10.8126 13.6245 10.8567 13.6465 10.9021C13.6525 10.9054 13.6599 10.9034 13.6654 10.9078C13.6746 10.9144 13.7173 10.9397 13.7775 10.9004Z" fill="#FFBE55"/>
<path d="M14.1025 11.5611C14.2207 11.8712 14.2943 12.1535 14.3235 12.4026C14.4165 12.4268 14.5156 12.4535 14.6186 12.4824C14.5596 12.0434 14.375 11.5817 14.2658 11.3372C14.2174 11.4243 14.1586 11.5026 14.1025 11.5611Z" fill="#FFBE55"/>
<path d="M14.0837 12.3418C14.0534 12.1493 13.9954 11.9353 13.9103 11.7026C13.8135 11.7499 13.7184 11.7701 13.6484 11.7791C13.6485 11.7912 13.6497 11.803 13.6497 11.8151C13.6497 11.8442 13.6473 11.8725 13.6465 11.9012C13.6492 11.9059 13.6532 11.9094 13.6553 11.9145C13.7051 12.0357 13.7429 12.1532 13.773 12.2684C13.809 12.2765 13.9228 12.3022 14.0837 12.3418Z" fill="#FFBE55"/>
<path d="M14.8564 12.5518C14.954 12.5813 15.0518 12.6122 15.147 12.6442C15.0026 11.719 14.6239 11.1041 14.4124 10.8269C14.4105 10.8715 14.401 10.9196 14.3742 10.9755C14.371 10.9821 14.3645 10.9852 14.3604 10.9909C14.3614 11.0034 14.3634 11.0157 14.3632 11.0287C14.3716 11.037 14.3799 11.0456 14.3855 11.0567C14.402 11.0888 14.7909 11.8526 14.8564 12.5518Z" fill="#FFBE55"/>
<path d="M12.0123 13.8345C12.7897 13.8345 13.422 12.9286 13.422 11.8151C13.422 11.7541 13.4201 11.6939 13.4164 11.6341C13.2653 11.407 13.0011 11.2486 12.9228 11.2052C12.4568 11.1968 12.1458 10.9894 12.0132 10.8795C11.8813 10.956 11.5952 11.081 11.2037 11.0528C11.045 11.0427 10.8631 11.1049 10.6604 11.243C10.622 11.4284 10.6025 11.6204 10.6025 11.8151C10.6025 12.9286 11.2349 13.8345 12.0123 13.8345Z" fill="#FFD7AA"/>
<path d="M6.49477 15.2612C6.51563 15.2555 6.7253 15.1986 7.03238 15.1734C8.45422 14.8529 10.1237 13.833 10.4246 13.6443C10.3951 13.5973 10.3613 13.5532 10.3371 13.5026C10.1875 13.1896 10.1635 12.8556 10.1886 12.5642C9.97441 12.5506 9.32112 12.5811 8.09221 13.2124C8.07571 13.2207 8.05785 13.2249 8.03999 13.2249C8.01665 13.2249 7.9934 13.2178 7.97376 13.2038C7.93893 13.179 7.92079 13.1368 7.92688 13.0945C7.93045 13.0691 7.98862 12.6716 8.12141 12.2489C7.41529 12.3969 5.92468 13.9014 5.104 14.7305C4.9489 14.8873 4.8093 15.0284 4.69113 15.1448C4.67477 15.1609 4.65748 15.1761 4.64009 15.1916C4.53635 15.2832 4.4292 15.3779 4.50509 15.9238C4.57503 16.4278 5.23052 16.4793 5.71825 16.4825H5.75397C5.90743 16.4825 6.27695 16.6102 6.91711 16.8362C7.53862 17.0555 8.24305 17.3041 8.69923 17.3895C8.91744 17.43 9.12223 17.4666 9.31109 17.5002C9.88769 17.6032 10.3043 17.6773 10.5223 17.7675C10.7869 17.8771 11.0788 18.4179 11.3316 18.9163L11.3801 19.0112C11.5291 19.2988 11.5571 19.6587 11.4529 19.9501C11.4023 20.0921 11.4385 20.1665 11.4565 20.1921C11.4742 20.2171 11.4949 20.226 11.5073 20.226C11.566 20.226 11.6085 20.226 11.6555 20.0772C11.7149 19.8894 11.7297 19.8712 11.9795 19.5691L12.0478 19.4866C12.3052 19.1744 12.0473 18.5338 11.9234 18.2257L11.906 18.1825C11.8178 17.9623 11.8958 17.731 11.9713 17.5074C12.0226 17.3553 12.0757 17.1982 12.0757 17.0478C12.0757 17.0151 12.0669 16.9931 12.0462 16.9734C11.9262 16.8597 11.5194 16.8814 11.2222 16.8966C11.1127 16.9026 11.0088 16.9079 10.9198 16.9079C10.4596 16.9079 9.72124 16.448 8.64739 15.7461C8.11504 15.3987 7.48382 15.3687 7.05549 15.4029C6.87807 15.4416 6.70393 15.4699 6.53593 15.4851C6.47804 15.4902 6.42385 15.4503 6.41316 15.3919C6.40234 15.3338 6.43777 15.277 6.49477 15.2612Z" fill="#FFD7AA"/>
<path d="M19.6298 7.75431C19.4366 7.79509 19.4134 7.79064 19.0248 7.71976L18.9224 7.7013C18.523 7.62775 18.0919 8.16835 17.8841 8.42701L17.8547 8.46334C17.7058 8.64788 17.4662 8.69283 17.2345 8.73661C17.0766 8.76638 16.9134 8.79704 16.7823 8.87086C16.7538 8.88666 16.7388 8.90541 16.7318 8.93307C16.6913 9.09291 16.9092 9.4373 17.0683 9.68882C17.127 9.7814 17.1825 9.86953 17.2261 9.94691C17.4513 10.3479 17.4115 11.2171 17.3252 12.4973C17.2803 13.1656 17.5966 13.7567 17.843 14.1092C17.9424 14.2214 18.0384 14.3399 18.1291 14.464C18.1644 14.5123 18.1565 14.5795 18.1111 14.6182C18.0657 14.6575 17.998 14.6542 17.9559 14.612C17.9417 14.5977 17.8109 14.4643 17.6552 14.2429C17.0303 13.5468 16.2629 13.0866 15.9438 12.9121C15.9521 13.0029 15.9553 13.0647 15.9558 13.0778C15.9576 13.1225 15.933 13.1638 15.8933 13.1841C15.8769 13.1921 15.8592 13.1963 15.8416 13.1963C15.8163 13.1963 15.7912 13.1879 15.7705 13.1716C15.4675 12.9302 14.3541 12.637 13.8255 12.5145C13.8721 12.8407 13.8337 13.1398 13.7093 13.4079C13.5815 13.683 13.3851 13.8767 13.2002 14.0129C14.1697 15.2106 16.4654 15.7224 17.8476 16.0291C18.2035 16.108 18.511 16.1762 18.7371 16.2417C18.7592 16.2482 18.781 16.2556 18.8028 16.2634C18.9337 16.309 19.0683 16.3563 19.5077 16.0226C19.913 15.7148 19.6409 15.1153 19.4008 14.6911L19.3834 14.6602C19.3084 14.5266 19.2389 14.1417 19.1227 13.4731C19.0097 12.8236 18.8817 12.0874 18.7327 11.6478C18.6611 11.4368 18.5925 11.2394 18.5291 11.0575C18.3371 10.5057 18.1982 10.1068 18.1703 9.87309C18.1363 9.58879 18.4646 9.06999 18.7751 8.60593L18.8348 8.51602C19.013 8.24513 19.313 8.04479 19.618 7.99304C19.7664 7.96773 19.8137 7.89958 19.8271 7.87159C19.8402 7.84389 19.838 7.82158 19.832 7.81089C19.8034 7.7597 19.7826 7.72187 19.6298 7.75431Z" fill="#FFD7AA"/>
<path d="M4.74228 7.67692C4.8755 7.82246 4.88365 7.84449 5.0209 8.21241L5.05812 8.31183C5.2001 8.69138 5.88443 8.7878 6.2132 8.83392L6.25877 8.84049C6.49347 8.87414 6.65467 9.0569 6.81062 9.234C6.91688 9.35456 7.02671 9.47896 7.15698 9.55401C7.18557 9.57037 7.20919 9.57393 7.23629 9.56563C7.39463 9.5189 7.57922 9.15576 7.71389 8.89055C7.76377 8.79263 7.81092 8.69972 7.85545 8.62266C8.08481 8.22469 8.85219 7.81449 9.99673 7.23433C10.6275 6.91432 10.9788 6.2922 11.146 5.90169C11.1845 5.77367 11.2277 5.65194 11.2764 5.53822C11.3 5.48314 11.3615 5.45727 11.4182 5.4748C11.4748 5.49416 11.5071 5.55369 11.4922 5.61172C11.4877 5.6293 11.4478 5.7793 11.3578 5.99154C11.0515 7.03342 11.0653 8.50918 11.0858 9.10345C11.3166 8.85075 11.536 8.79347 11.6872 8.79347C11.854 8.79347 12.0068 8.86659 12.1289 8.9948C12.2568 8.82891 12.4026 8.79675 12.5089 8.79764C12.7017 8.80238 12.8617 8.92617 12.9634 9.05475C13.0749 9.06042 13.3267 9.09014 13.5102 9.24717C13.7629 8.00645 13.1819 6.24354 12.7896 5.05626C12.6668 4.68445 12.5607 4.36331 12.494 4.10728C12.4882 4.08497 12.4835 4.06233 12.4788 4.03941C12.4511 3.90399 12.4226 3.76378 11.9119 3.55688C11.4398 3.36427 11.064 3.90577 10.8219 4.32844L10.804 4.3597C10.7274 4.49278 10.4318 4.74937 9.91592 5.1914C9.41586 5.62002 8.84891 6.10611 8.54742 6.45856C8.40318 6.62702 8.26926 6.78597 8.14584 6.93274C7.76883 7.38105 7.49635 7.7049 7.30927 7.84867C7.08184 8.0237 6.46717 8.00645 5.90829 7.97635L5.80319 7.97101C5.62704 7.96323 5.45234 7.91063 5.29549 7.82898L5.28246 7.82574L5.27478 7.81642C5.15225 7.74948 5.03993 7.66679 4.95364 7.56526C4.89701 7.49861 4.84672 7.47067 4.8073 7.45783L4.68172 7.48572C4.65641 7.53128 4.64497 7.57079 4.74228 7.67692Z" fill="#FFD7AA"/>
<path d="M20.0331 7.69897C19.9422 7.53674 19.8036 7.48494 19.5848 7.5305C19.4352 7.56205 19.4352 7.56177 19.0674 7.49507L18.9647 7.47632C18.4313 7.37929 17.9427 7.99067 17.7076 8.28387L17.6785 8.31987C17.5825 8.43893 17.4024 8.47259 17.1939 8.51187C17.018 8.5452 16.836 8.57946 16.6721 8.67143C16.5897 8.71788 16.5342 8.78871 16.5118 8.87683C16.4474 9.13225 16.6657 9.47725 16.8769 9.8109C16.9332 9.89992 16.9866 9.98443 17.0284 10.0589C17.2371 10.4307 17.1669 11.4734 17.099 12.4819C17.0724 12.8775 17.157 13.2442 17.2824 13.5579C16.6341 13.0001 16.0126 12.6852 15.9118 12.6359C15.8224 12.0303 15.557 10.9619 14.7846 10.4279C15.7891 9.98274 16.2664 8.46842 16.2892 8.39393C16.3055 8.34064 16.2812 8.2835 16.2313 8.25851C16.1819 8.2332 16.121 8.24778 16.0879 8.29273C15.8255 8.64893 15.4881 8.99472 15.1695 9.28755C15.3645 8.73663 15.7976 8.25565 15.9854 8.06623C16.0184 8.03797 16.0507 8.00642 16.0821 7.97215C16.1232 7.9272 16.1219 7.85783 16.0789 7.81437C16.0635 7.79891 16.0429 7.79511 16.0231 7.79028C16.1399 7.46774 16.2483 6.94251 16.0162 6.39834C15.8914 6.10603 15.7831 5.90569 15.696 5.74496C15.5399 5.45654 15.4686 5.32496 15.4901 5.02042C15.4933 4.97396 15.4682 4.93023 15.4265 4.90998C15.3848 4.88912 15.335 4.89601 15.3001 4.92695C15.2842 4.94101 13.8107 6.27591 14.3703 7.75381C14.3534 7.75972 14.3353 7.76324 14.3223 7.77711C14.2825 7.81995 14.2815 7.88605 14.32 7.93011C14.9479 8.64649 14.2521 9.64806 14.0928 9.85811C14.0892 9.85576 14.0858 9.85262 14.0822 9.85042C14.0822 9.7074 14.0436 9.58806 13.9618 9.49764C13.89 9.41828 13.8007 9.37638 13.7218 9.35397C14.0199 8.0524 13.4389 6.28716 13.0086 4.98442C12.887 4.61622 12.7819 4.2986 12.717 4.04946C12.7122 4.03099 12.7085 4.01257 12.7046 3.99377C12.6604 3.77707 12.5769 3.57884 11.9996 3.34484C11.2891 3.05731 10.7893 3.92857 10.6253 4.21493L10.6078 4.2453C10.547 4.35096 10.1514 4.69 9.76888 5.01775C9.26254 5.45176 8.68852 5.9438 8.37535 6.30961C8.23083 6.47868 8.09659 6.63853 7.97274 6.78557C7.61865 7.20646 7.33914 7.53866 7.17171 7.66756C6.99236 7.8057 6.21471 7.7637 5.9224 7.74795L5.81525 7.74228C5.55299 7.73066 5.2903 7.60625 5.12957 7.41693C5.01215 7.27851 4.86421 7.20796 4.72354 7.21958C4.62365 7.22882 4.53675 7.28118 4.49123 7.36007C4.39837 7.52113 4.42439 7.66667 4.57561 7.8313C4.67873 7.94412 4.67873 7.94412 4.80852 8.29207L4.84588 8.3921C5.03549 8.89872 5.81061 9.00766 6.18317 9.06035L6.22812 9.06658C6.37948 9.08833 6.50065 9.22581 6.64099 9.38509C6.74027 9.49759 6.84761 9.60784 6.97389 9.69761C6.96611 9.7015 6.95711 9.70178 6.95027 9.70745C6.91441 9.73722 6.89997 9.78545 6.9138 9.82979C6.91507 9.83364 6.99405 10.0473 7.20578 10.2316C6.8718 10.248 6.4901 10.1201 6.33706 10.0614C6.31278 10.0507 6.28765 10.0405 6.26173 10.031C6.2037 10.0096 6.13967 10.039 6.11661 10.0959C6.10873 10.1155 6.10854 10.1356 6.11154 10.1552C5.7688 10.1713 5.24497 10.273 4.8329 10.6933C4.61039 10.9208 4.46676 11.0972 4.35159 11.2392C4.14473 11.4937 4.05019 11.6098 3.76074 11.7066C3.71668 11.7211 3.68588 11.761 3.68288 11.8075C3.67974 11.8539 3.70505 11.8974 3.74686 11.9176C3.75863 11.9233 4.4385 12.2463 5.22819 12.2463C5.72712 12.2463 6.26974 12.1166 6.71562 11.6972C6.72743 11.71 6.73718 11.7251 6.75452 11.7316C6.7676 11.7364 6.78101 11.7387 6.79427 11.7387C6.83669 11.7387 6.877 11.7149 6.89683 11.675C7.22678 11.0071 7.6817 10.767 7.94649 10.6809C7.71048 10.9815 7.60661 11.2653 7.60084 11.2821C7.58387 11.3306 7.60159 11.3848 7.64415 11.414C7.68672 11.4431 7.74371 11.4402 7.78286 11.4065C7.95521 11.2597 8.37493 11.0708 8.73075 10.9255C8.5155 11.2203 8.42218 11.5329 8.40249 11.6051C8.32758 11.7254 8.26294 11.864 8.20744 12.0077C7.5122 12.0328 6.215 13.285 4.94366 14.5695C4.78931 14.7255 4.65032 14.8657 4.53271 14.9814C4.51917 14.9949 4.50501 15.0073 4.49057 15.0202C4.32506 15.1666 4.19484 15.3378 4.28058 15.9551C4.38623 16.7148 5.39118 16.713 5.72098 16.7109H5.75595C5.87769 16.7109 6.36842 16.8841 6.84288 17.0514C7.47231 17.2738 8.18565 17.5253 8.65922 17.6137C8.87799 17.6548 9.08353 17.6914 9.273 17.7251C9.81416 17.8215 10.2416 17.898 10.4367 17.9787C10.6455 18.065 10.9972 18.7582 11.1297 19.0193L11.1791 19.1163C11.2999 19.3491 11.3231 19.6393 11.2396 19.873C11.1786 20.0438 11.1902 20.2079 11.2714 20.3234C11.3293 20.4052 11.4182 20.4543 11.5091 20.4543C11.6951 20.4543 11.808 20.3591 11.8753 20.1459C11.9213 20.0004 11.9213 20.0004 12.1575 19.7146L12.226 19.6315C12.5701 19.2145 12.2779 18.4888 12.1374 18.1399L12.1202 18.0971C12.0634 17.9551 12.1219 17.7813 12.1898 17.5804C12.2471 17.4107 12.3062 17.2354 12.3062 17.0475C12.3062 16.9529 12.2714 16.8698 12.2054 16.807C12.0143 16.6258 11.6062 16.6478 11.2121 16.668C11.1069 16.6737 11.0072 16.679 10.9217 16.679C10.4952 16.679 9.62034 16.1075 8.77434 15.5547C8.45686 15.3473 8.11276 15.2416 7.7904 15.1939C9.07158 14.7554 10.3219 13.9814 10.5623 13.8288C10.7499 14.0424 11.0003 14.212 11.3222 14.3283C11.2864 14.364 11.2537 14.4069 11.2308 14.4575C11.1885 14.551 11.1876 14.6548 11.2281 14.7584C11.2532 14.8226 11.2902 14.8731 11.3323 14.9153C11.2591 15.1716 11.3309 15.3132 11.4063 15.3879C11.324 15.6432 11.3952 15.7933 11.4731 15.8732C11.5548 15.9568 11.6682 15.9925 11.7682 15.9925C11.7814 15.9925 11.7921 15.9885 11.8047 15.9873C11.8388 16.0916 11.8863 16.1939 11.9662 16.2848L11.991 16.3128C12.3362 16.7054 12.9136 17.3624 12.9818 17.669C12.9946 17.7261 13.0483 17.7631 13.1053 17.758C13.1631 17.7521 13.2071 17.7035 13.2077 17.6455C13.2079 17.6285 13.2103 17.3645 13.1982 17.0954C13.4518 17.5068 13.6268 17.9149 13.6855 18.0584C13.6926 18.0777 13.7005 18.0974 13.709 18.117C13.7276 18.1602 13.7697 18.1861 13.8139 18.1861C13.8282 18.1861 13.8428 18.1834 13.857 18.1777C13.8761 18.1699 13.8905 18.1565 13.9024 18.1414C14.1491 18.3799 14.5822 18.6916 15.1707 18.7034C15.4885 18.7085 15.7159 18.693 15.8983 18.6799C16.2253 18.6558 16.3744 18.6451 16.6431 18.7894C16.66 18.7987 16.6787 18.8031 16.6973 18.8031C16.7233 18.8031 16.7491 18.7942 16.7701 18.7769C16.8059 18.7474 16.8202 18.6989 16.8064 18.6549C16.7999 18.6346 16.1876 16.7451 14.611 16.6463C14.6126 16.6283 14.6167 16.6103 14.6093 16.5926C14.5865 16.5384 14.5268 16.5099 14.4707 16.5277C14.0806 16.6471 13.7415 16.5224 13.4719 16.3227C13.8206 16.3009 14.0626 16.181 14.0753 16.1747C14.1205 16.1518 14.1454 16.1018 14.1362 16.0521C14.1271 16.0021 14.0862 15.9643 14.0357 15.9589C13.5248 15.9051 12.7455 15.4383 12.7378 15.4336C12.7347 15.4317 12.7309 15.4328 12.7277 15.4313C12.7293 15.4295 12.7306 15.4277 12.732 15.4259C12.7757 15.43 12.8187 15.4321 12.8601 15.4321C12.957 15.4321 13.0456 15.4219 13.1171 15.4067C13.1649 15.3966 13.2009 15.3573 13.2069 15.3091C13.213 15.2606 13.1877 15.2139 13.1439 15.1921C12.9881 15.1155 12.8532 15.0119 12.7356 14.8976C12.8764 14.7268 12.8632 14.4689 12.8047 14.2409C12.8559 14.2197 12.9255 14.1866 13.0093 14.139C14.02 15.4111 16.2901 15.9168 17.7996 16.2521C18.1517 16.3301 18.4558 16.3976 18.6752 16.461C18.6933 16.4664 18.711 16.4727 18.7292 16.4789C18.8011 16.5039 18.8735 16.5239 18.9577 16.5239C19.1181 16.5239 19.3219 16.4515 19.6476 16.2044C20.2587 15.7401 19.7641 14.8655 19.6014 14.5783L19.5845 14.5479C19.5249 14.4419 19.4358 13.9293 19.3496 13.4337C19.2351 12.7759 19.1055 12.0306 18.9508 11.5742C18.879 11.3623 18.8101 11.1644 18.7467 10.9822C18.5663 10.4639 18.4239 10.0549 18.399 9.84536C18.3721 9.62153 18.8042 8.97555 18.9668 8.73269L19.0275 8.64129C19.1719 8.42159 19.4133 8.25968 19.6579 8.21829C19.8368 8.18764 19.9743 8.09712 20.035 7.96944C20.0783 7.87934 20.0776 7.77814 20.0331 7.69897ZM19.8289 7.87161C19.8155 7.89959 19.7682 7.96775 19.6198 7.99306C19.3148 8.04486 19.0148 8.2452 18.8366 8.51604L18.777 8.60595C18.4665 9.07 18.1381 9.58886 18.1721 9.87311C18.2001 10.1068 18.3389 10.5056 18.5309 11.0575C18.5943 11.2394 18.6629 11.4367 18.7345 11.6478C18.8835 12.0875 19.0115 12.8236 19.1245 13.4731C19.2407 14.1417 19.3102 14.5266 19.3852 14.6602L19.4026 14.6912C19.6427 15.1153 19.9148 15.7148 19.5095 16.0226C19.0702 16.3563 18.9354 16.309 18.8047 16.2634C18.7828 16.2557 18.7611 16.2482 18.7389 16.2417C18.5128 16.1762 18.2053 16.108 17.8494 16.0291C16.4672 15.7224 14.1715 15.2106 13.202 14.0129C13.3869 13.8767 13.5833 13.683 13.7111 13.4079C13.8355 13.1398 13.8739 12.8407 13.8274 12.5145C14.3559 12.6371 15.4693 12.9303 15.7723 13.1716C15.793 13.1879 15.8181 13.1963 15.8434 13.1963C15.861 13.1963 15.8787 13.1921 15.8951 13.1841C15.9349 13.1638 15.9594 13.1224 15.9576 13.0778C15.9572 13.0648 15.9539 13.003 15.9456 12.9121C16.2647 13.0866 17.0321 13.5468 17.657 14.2429C17.8127 14.4644 17.9435 14.5977 17.9577 14.612C17.9998 14.6543 18.0675 14.6575 18.1129 14.6182C18.1583 14.5795 18.1662 14.5122 18.1309 14.464C18.0403 14.3399 17.9443 14.2215 17.8448 14.1092C17.5984 13.7568 17.2821 13.1656 17.3271 12.4973C17.4134 11.217 17.4531 10.3479 17.2279 9.94693C17.1843 9.86954 17.1288 9.78142 17.0702 9.68884C16.9111 9.43731 16.6931 9.09293 16.7336 8.93308C16.7406 8.90538 16.7557 8.88663 16.7841 8.87088C16.9152 8.79705 17.0785 8.7664 17.2364 8.73663C17.468 8.69285 17.7076 8.64794 17.8566 8.46335L17.8859 8.42702C18.0937 8.16837 18.5249 7.62777 18.9242 7.70131L19.0266 7.71978C19.4152 7.79061 19.4384 7.79511 19.6316 7.75433C19.7845 7.72189 19.8051 7.75967 19.8339 7.81091C19.8397 7.82159 19.842 7.84395 19.8289 7.87161ZM15.882 18.4522C15.7043 18.4653 15.4837 18.4813 15.1755 18.4751C14.3582 18.4587 13.8607 17.7503 13.8558 17.7432C13.8551 17.7421 13.8539 17.7416 13.8532 17.7406C13.8366 17.345 14.1407 17.0393 14.356 16.8741C15.6068 16.7911 16.2638 17.9578 16.4929 18.4793C16.2957 18.4221 16.123 18.4343 15.882 18.4522ZM13.6596 17.4511C13.4566 17.0499 13.1458 16.5296 12.7637 16.1878C12.7055 16.1358 12.6565 16.0841 12.6077 16.0325C12.7464 16.0746 12.8633 16.0894 12.9151 16.0934C13.1747 16.4122 13.5742 16.7678 14.085 16.8016C13.902 16.9701 13.7319 17.1921 13.6596 17.4511ZM11.6129 15.4922C11.6484 15.4992 11.684 15.5038 11.7181 15.5038C11.7307 15.5038 11.7418 15.5018 11.7539 15.501C11.7462 15.5835 11.7483 15.6723 11.7569 15.7625C11.7176 15.76 11.6697 15.7471 11.6369 15.7136C11.5846 15.66 11.5919 15.5711 11.6129 15.4922ZM11.7937 15.2656C11.7354 15.2805 11.6237 15.2812 11.5688 15.2282C11.52 15.1816 11.5256 15.0944 11.5431 15.0173C11.5533 15.0182 11.5624 15.0222 11.5728 15.0222C11.5729 15.0222 11.5731 15.0222 11.5731 15.0222C11.7074 15.0219 11.8329 14.9403 11.9013 14.8216C11.9029 14.8222 11.9046 14.8229 11.9063 14.8234C11.9065 14.8239 11.9063 14.8244 11.9065 14.8249C11.9263 14.8813 11.9506 14.932 11.9774 14.9791C11.9253 14.9731 11.8767 15.0013 11.8573 15.0493C11.8534 15.0592 11.8221 15.1448 11.7937 15.2656ZM6.53805 15.485C6.7061 15.4698 6.88024 15.4416 7.05761 15.4028C7.48595 15.3686 8.11716 15.3987 8.64952 15.7461C9.72337 16.448 10.4617 16.9079 10.9219 16.9079C11.0109 16.9079 11.1148 16.9025 11.2243 16.8966C11.5216 16.8814 11.9283 16.8597 12.0483 16.9733C12.069 16.993 12.0778 17.015 12.0778 17.0478C12.0778 17.1981 12.0248 17.3553 11.9734 17.5074C11.898 17.7309 11.82 17.9622 11.9081 18.1825L11.9255 18.2256C12.0495 18.5337 12.3074 19.1743 12.0499 19.4866L11.9816 19.569C11.7318 19.8712 11.717 19.8893 11.6576 20.0771C11.6106 20.226 11.5682 20.226 11.5094 20.226C11.497 20.226 11.4763 20.217 11.4586 20.192C11.4406 20.1664 11.4044 20.092 11.4551 19.95C11.5593 19.6586 11.5313 19.2987 11.3823 19.0112L11.3337 18.9162C11.0809 18.4179 10.789 17.877 10.5244 17.7675C10.3063 17.6773 9.88977 17.6032 9.31321 17.5002C9.12436 17.4665 8.91956 17.4299 8.70136 17.3894C8.24518 17.304 7.54075 17.0555 6.91924 16.8361C6.27912 16.6101 5.90956 16.4825 5.75609 16.4825H5.72038C5.23265 16.4792 4.5772 16.4277 4.50722 15.9238C4.43133 15.3779 4.53848 15.2832 4.64221 15.1915C4.6596 15.176 4.6769 15.1608 4.69326 15.1448C4.81143 15.0284 4.95102 14.8873 5.10613 14.7304C5.92681 13.9014 7.41747 12.3969 8.12354 12.2488C7.99079 12.6715 7.93257 13.069 7.92901 13.0944C7.92292 13.1367 7.94106 13.1789 7.97588 13.2037C7.99552 13.2177 8.01873 13.2248 8.04212 13.2248C8.05998 13.2248 8.07784 13.2207 8.09434 13.2123C9.3232 12.581 9.97654 12.5505 10.1907 12.5641C10.1656 12.8555 10.1896 13.1896 10.3392 13.5025C10.3634 13.5532 10.3972 13.5972 10.4268 13.6443C10.1258 13.8329 8.45635 14.8529 7.0345 15.1733C6.72747 15.1986 6.51776 15.2555 6.4969 15.2611C6.4399 15.2769 6.40446 15.3337 6.4152 15.3918C6.42602 15.4502 6.48016 15.4901 6.53805 15.485ZM6.96166 11.1364C6.95543 10.8962 6.90227 10.6378 6.76329 10.4235C7.00174 10.4702 7.27422 10.489 7.50372 10.4122L7.50423 10.4119C7.5977 10.4487 7.70776 10.4713 7.82982 10.4822C7.5925 10.567 7.26105 10.7459 6.96166 11.1364ZM4.52911 11.3835C4.64132 11.2454 4.78124 11.0733 4.9963 10.8536C5.56813 10.2696 6.42481 10.3931 6.43404 10.3944C6.43502 10.3945 6.43587 10.3941 6.43685 10.3943C6.73652 10.6533 6.75115 11.0845 6.72377 11.3546C5.92751 12.3232 4.62675 12.001 4.09008 11.8098C4.26745 11.7056 4.37686 11.571 4.52911 11.3835ZM15.8061 6.48834C16.1268 7.24026 15.6852 7.985 15.6808 7.99245C15.6803 7.9933 15.6803 7.99428 15.6798 7.99517C15.3263 8.17264 14.9222 8.02142 14.6829 7.89289C14.0921 6.78684 14.8875 5.70849 15.269 5.28521C15.2976 5.48912 15.3802 5.64183 15.4951 5.85403C15.5799 6.0106 15.6854 6.20559 15.8061 6.48834ZM14.7281 8.16987C14.9524 8.26573 15.2185 8.32943 15.4781 8.29339C15.2228 8.61734 14.9377 9.07249 14.8607 9.5612C14.6039 9.78076 14.3873 9.94768 14.2686 10.0366C14.2648 10.0308 14.2604 10.026 14.2565 10.0204C14.3784 9.86354 15.0282 8.9733 14.7281 8.16987ZM12.2492 15.5444C12.1465 15.3529 12.103 15.2032 12.0872 15.1304C12.1927 15.2456 12.3215 15.3213 12.4561 15.3677L12.2492 15.5444ZM12.5742 15.5675C12.5758 15.5721 12.5739 15.577 12.5761 15.5815C12.5779 15.5854 12.6286 15.6865 12.7206 15.8276C12.6283 15.8033 12.5204 15.7644 12.4181 15.7007L12.5742 15.5675ZM12.6112 16.3581C12.7258 16.4608 12.8345 16.5823 12.9354 16.7126C12.9355 16.7162 12.936 16.7201 12.9365 16.7236C12.9554 16.8367 12.9661 16.9996 12.9721 17.1568C12.7743 16.8656 12.4774 16.5201 12.163 16.1623L12.1382 16.134C11.9862 15.9614 11.9636 15.7259 11.9816 15.5267C12.0873 15.7583 12.2762 16.0586 12.6112 16.3581ZM12.0031 14.6173C11.9105 14.5956 11.844 14.5069 11.8045 14.4361C11.6984 14.2459 11.7702 14.0952 11.8031 14.0423C11.8455 14.0498 11.8885 14.0544 11.9318 14.0574C11.9695 14.1586 12.052 14.3539 12.1889 14.5754C12.1217 14.6114 12.0584 14.6299 12.0031 14.6173ZM12.5049 9.02627C12.5926 9.02833 12.6935 9.08552 12.7708 9.1736C12.7388 9.2132 12.6864 9.25811 12.6157 9.24503C12.2982 9.18756 12.2029 9.49806 12.1717 9.60015C12.1391 9.706 12.0125 9.94454 11.9096 10.052C11.8392 10.0202 11.7646 9.99709 11.6854 9.98795C11.8031 9.82211 12.0205 9.52487 12.3061 9.13994C12.3643 9.06171 12.4395 9.02004 12.5049 9.02627ZM11.8672 10.2827C11.9703 10.3485 12.057 10.4589 12.1571 10.587C12.2196 10.6669 12.292 10.7532 12.3726 10.8378C12.205 10.7524 12.112 10.6591 12.1104 10.6575C12.1097 10.6567 12.1084 10.6569 12.1076 10.6561C12.1068 10.6553 12.1072 10.6541 12.1064 10.6533C11.8301 10.386 11.5491 10.3152 11.2708 10.4446C11.1753 10.4887 11.0836 10.4821 11.0342 10.4631C11.0058 10.4524 10.9957 10.4399 10.9949 10.4387C10.9949 10.4351 11 10.4206 11.021 10.3982C11.1498 10.2622 11.6056 10.1166 11.8672 10.2827ZM11.0695 10.0946C11.2309 9.93282 11.3998 9.73431 11.5487 9.55225L11.5786 9.51592C11.6223 9.46305 11.6991 9.50083 11.7378 9.5253C11.5772 9.74504 11.4464 9.92739 11.4034 9.99615C11.2834 10.0143 11.1677 10.0482 11.0695 10.0946ZM12.6272 10.2024C12.8075 10.2434 12.9026 10.2931 12.9515 10.3438C12.783 10.3162 12.5411 10.3171 12.3507 10.463C12.3463 10.4573 12.3415 10.4518 12.337 10.4461C12.2605 10.348 12.1825 10.2602 12.0977 10.1828C12.1404 10.134 12.1808 10.0778 12.2179 10.0183C12.2979 10.0698 12.4599 10.1644 12.6272 10.2024ZM12.3281 9.81728C12.3576 9.75536 12.3798 9.70122 12.3902 9.66747C12.4471 9.48259 12.4962 9.45555 12.5749 9.47012C12.5846 9.47191 12.5934 9.47102 12.6029 9.472C12.6824 9.76633 12.9219 9.88928 13.1011 9.97885C13.1978 10.0271 13.289 10.0726 13.3074 10.1217C13.3296 10.181 13.2711 10.2512 13.2004 10.3081C13.1369 10.1542 12.962 10.0443 12.6777 9.97974C12.5344 9.94712 12.3871 9.85637 12.3281 9.81728ZM10.6624 11.243C10.8651 11.1049 11.047 11.0427 11.2056 11.0528C11.5972 11.0811 11.8833 10.956 12.0152 10.8795C12.1478 10.9894 12.4588 11.1968 12.9248 11.2052C13.0031 11.2486 13.2673 11.407 13.4183 11.6341C13.422 11.6939 13.424 11.7541 13.424 11.8151C13.424 12.9287 12.7916 13.8345 12.0143 13.8345C11.2369 13.8345 10.6045 12.9287 10.6045 11.8151C10.6045 11.6204 10.624 11.4284 10.6624 11.243ZM13.486 11.3557C13.3308 11.1883 13.1516 11.0722 13.0624 11.0206C13.1671 10.9989 13.2777 10.9626 13.3811 10.9055C13.5021 11.056 13.5089 11.2269 13.486 11.3557ZM13.3841 10.6265C13.175 10.8219 12.8079 10.8283 12.7018 10.8258C12.6255 10.7687 12.5571 10.706 12.4967 10.6381C12.7125 10.4818 13.066 10.6063 13.0698 10.6077C13.0814 10.612 13.0932 10.6128 13.1049 10.6133C13.1066 10.6134 13.108 10.6149 13.1097 10.6149C13.1104 10.6149 13.1111 10.6144 13.1118 10.6144C13.1279 10.6141 13.1436 10.6108 13.1579 10.6041C13.1582 10.604 13.1585 10.604 13.1585 10.604C13.2647 10.5535 13.4029 10.4578 13.481 10.3354C13.4986 10.4202 13.4898 10.5279 13.3841 10.6265ZM13.4498 9.93428C13.386 9.86804 13.2974 9.82122 13.2033 9.77434C13.0447 9.69526 12.8861 9.60878 12.8293 9.42016C12.891 9.38228 12.9393 9.33161 12.973 9.283C13.0826 9.2912 13.3136 9.32908 13.4223 9.48442C13.4964 9.59022 13.5034 9.74265 13.4498 9.93428ZM11.8731 9.34099C11.7589 9.26317 11.5503 9.19141 11.4021 9.37066L11.3719 9.40755C11.232 9.57841 10.8066 10.0981 10.593 10.1851C10.5905 10.186 10.589 10.1881 10.5867 10.1893C10.5477 10.1793 10.5135 10.1658 10.4898 10.1469C10.4718 10.1326 10.4631 10.1178 10.4609 10.0975C10.4502 9.99812 10.4944 9.95467 10.6733 9.82637C10.809 9.72901 10.9951 9.5957 11.1722 9.35931C11.4448 8.99604 11.7858 8.93111 11.9919 9.17997C11.9522 9.23369 11.9124 9.2875 11.8731 9.34099ZM10.8635 9.23439C10.5063 9.1855 10.1779 9.30475 9.97555 9.56739C9.8916 9.67656 9.84327 9.8005 9.8204 9.9271C9.80662 9.93278 9.79105 9.93301 9.77999 9.94426C9.7513 9.97351 9.72102 10.0103 9.69088 10.0512C9.49035 9.97248 8.94764 9.78423 8.48096 9.84756C7.94148 9.92059 7.543 9.84929 7.31073 9.78175C7.55926 9.70178 7.74259 9.34249 7.91968 8.99416C7.96745 8.90008 8.01268 8.81112 8.05529 8.73696C8.26796 8.36815 9.20025 7.89547 10.1019 7.43825C10.4812 7.24597 10.7666 6.96051 10.9769 6.67237C10.8129 7.70577 10.8449 8.83413 10.8635 9.23439ZM9.83127 10.2521C9.84468 10.3052 9.85794 10.3586 9.88307 10.4089C9.8984 10.4395 9.91794 10.4619 9.93576 10.4877C9.87018 10.5532 9.77784 10.6632 9.71662 10.808C9.66454 10.5842 9.75004 10.382 9.83127 10.2521ZM9.72205 11.3983C9.76241 11.494 9.81318 11.5742 9.87107 11.6401C9.78084 11.9084 9.7228 12.1543 9.6967 12.3749C9.60834 12.3909 9.50999 12.4128 9.40143 12.4415C9.46092 12.0498 9.61527 11.6454 9.72205 11.3983ZM9.93369 12.3418C9.95718 12.1772 9.99997 11.9969 10.0612 11.8022C10.1527 11.8584 10.2469 11.8931 10.3305 11.9116C10.2956 12.0123 10.2524 12.1618 10.2212 12.3365C10.1561 12.3312 10.0603 12.33 9.93369 12.3418ZM9.47737 11.3892C9.35887 11.6738 9.20887 12.0997 9.16331 12.5112C9.07012 12.541 8.97061 12.5758 8.865 12.6159C8.95275 12.1038 9.18356 11.5867 9.19636 11.5582C9.31068 11.5035 9.40326 11.4457 9.47737 11.3892ZM8.68022 11.4978C8.76835 11.2724 8.96138 10.894 9.30501 10.7086C9.40265 10.753 9.45515 10.7879 9.45642 10.7888C9.46392 10.7944 9.4732 10.7936 9.48145 10.7971C9.49134 10.8631 9.51056 10.9301 9.53887 10.9975C9.50029 11.0636 9.30286 11.3469 8.68022 11.4978ZM10.3829 11.6851C10.2478 11.6569 10.0177 11.5681 9.91241 11.2635C9.86001 11.1117 9.88799 10.9751 9.94026 10.8659C9.95751 11.0959 10.0513 11.3186 10.2941 11.3901C10.3201 11.4749 10.3547 11.5424 10.3862 11.5773C10.3869 11.5781 10.388 11.5783 10.3887 11.5791C10.386 11.6143 10.3844 11.6497 10.3829 11.6851ZM10.1728 10.6898C10.2352 10.7178 10.2998 10.7385 10.3665 10.7462C10.3251 10.8078 10.2989 10.8697 10.2826 10.9257C10.2655 10.9842 10.2583 11.0436 10.2561 11.102C10.1712 10.9978 10.1631 10.8205 10.1728 10.6898ZM10.0876 10.3066C9.99219 10.1161 10.0187 9.88623 10.1566 9.70708C10.2961 9.52567 10.5208 9.44181 10.7712 9.45892C10.689 9.53252 10.6098 9.59055 10.54 9.6407C10.3689 9.76333 10.2071 9.87943 10.2337 10.1226C10.2425 10.2033 10.2818 10.2736 10.3475 10.3259C10.4599 10.4155 10.6349 10.4372 10.7688 10.4399C10.7689 10.446 10.7704 10.4514 10.7709 10.4573C10.7387 10.4688 10.7036 10.479 10.6753 10.492C10.4981 10.5411 10.2175 10.5673 10.0876 10.3066ZM10.505 10.9808C10.5417 10.8641 10.6246 10.773 10.7522 10.709C10.8092 10.6926 10.858 10.6723 10.9031 10.6518C11.025 10.7222 11.2056 10.7269 11.367 10.6518C11.4674 10.605 11.6192 10.5695 11.8279 10.7184C11.7035 10.7769 11.4948 10.8462 11.2227 10.8248C11.0006 10.8105 10.7554 10.8947 10.4936 11.0822C10.4911 11.084 10.491 11.0877 10.4886 11.0897C10.4915 11.0536 10.4933 11.0175 10.505 10.9808ZM12.176 14.0518C12.2754 14.0384 12.3717 14.0113 12.4652 13.9745C12.5586 14.1573 12.685 14.5462 12.5778 14.7269C12.3718 14.4761 12.2418 14.2089 12.176 14.0518ZM13.584 12.4556C13.645 12.773 13.6202 13.0595 13.5047 13.3097C13.3087 13.734 12.9074 13.947 12.7355 14.0222C12.7125 13.9633 12.6904 13.9136 12.6704 13.8735C13.108 13.6099 13.4458 13.0916 13.584 12.4556ZM13.6494 11.9012C13.6502 11.8724 13.6526 11.8442 13.6526 11.8151C13.6526 11.803 13.6515 11.7912 13.6513 11.7791C13.7214 11.7701 13.8165 11.7499 13.9133 11.7026C13.9984 11.9353 14.0563 12.1493 14.0867 12.3418C13.9258 12.3022 13.812 12.2765 13.7759 12.2684C13.7459 12.1533 13.708 12.0357 13.6583 11.9146C13.6561 11.9094 13.6522 11.9059 13.6494 11.9012ZM13.6494 10.9021C13.6274 10.8567 13.5973 10.8125 13.5624 10.7686C13.6017 10.7279 13.6321 10.686 13.6549 10.6434C13.6579 10.6433 13.6608 10.6432 13.6639 10.6429C13.7074 10.6386 13.7456 10.6319 13.7796 10.6229C13.8034 10.6613 13.8317 10.7211 13.8452 10.7923C13.815 10.8245 13.7943 10.8631 13.7804 10.9004C13.7201 10.9397 13.6774 10.9144 13.6682 10.9079C13.6628 10.9034 13.6554 10.9054 13.6494 10.9021ZM14.6215 12.4824C14.5185 12.4535 14.4194 12.4267 14.3264 12.4025C14.2972 12.1535 14.2236 11.8712 14.1054 11.5611C14.1615 11.5026 14.2203 11.4243 14.2687 11.3372C14.3779 11.5817 14.5625 12.0434 14.6215 12.4824ZM14.364 10.9908C14.3682 10.9852 14.3747 10.982 14.3779 10.9754C14.4047 10.9196 14.4141 10.8714 14.4161 10.8269C14.6276 11.1041 15.0063 11.719 15.1507 12.6442C15.0555 12.6121 14.9577 12.5812 14.8601 12.5518C14.7946 11.8526 14.4057 11.0888 14.3892 11.0566C14.3835 11.0455 14.3752 11.0369 14.3668 11.0286C14.3671 11.0157 14.3651 11.0034 14.364 10.9908ZM15.3994 12.7336C15.2331 11.4366 14.6192 10.6934 14.4665 10.5263C14.4787 10.5241 14.4919 10.5241 14.5041 10.5216C15.4119 11.0051 15.6507 12.3399 15.7104 12.8676C15.6201 12.8222 15.5136 12.7774 15.3994 12.7336ZM14.3682 10.3059C14.3656 10.2886 14.3622 10.2717 14.3584 10.2549C14.55 10.1143 15.2048 9.61909 15.7876 9.00218C15.5134 9.54161 15.0379 10.2151 14.3682 10.3059ZM14.1481 10.4318C14.148 10.4346 14.1485 10.4361 14.1483 10.4387C14.1483 10.4395 14.1479 10.4403 14.1479 10.4411C14.148 10.4419 14.1485 10.4426 14.1485 10.4435C14.144 10.5728 14.162 10.6618 14.1759 10.7263C14.1782 10.7369 14.1797 10.7448 14.1815 10.7536C14.137 10.7382 14.0987 10.7305 14.0633 10.7264C14.0404 10.6275 14.0021 10.5474 13.9694 10.4958C14.0243 10.4138 14.0445 10.2971 14.0601 10.1426C14.1131 10.2146 14.1536 10.3118 14.1481 10.4318ZM13.9826 10.9888C13.9881 10.9766 13.9975 10.9557 14.0025 10.9519C14.0024 10.9516 14.0272 10.9409 14.1098 10.9703C14.1315 10.9781 14.1346 10.9861 14.1372 10.9986C14.1578 11.0986 14.0318 11.3213 13.9179 11.4263C13.8427 11.4957 13.7486 11.528 13.6743 11.5434C13.7053 11.4506 13.7368 11.3057 13.7203 11.1461C13.7776 11.1458 13.8399 11.1345 13.9057 11.0915C13.9489 11.0632 13.9683 11.0204 13.9826 10.9888ZM13.8413 10.0318C13.8134 10.3307 13.8067 10.3855 13.7161 10.4048C13.716 10.2894 13.6798 10.1831 13.6368 10.1068C13.7083 9.9092 13.7252 9.73844 13.6992 9.58998C13.7326 9.60386 13.7658 9.62181 13.7925 9.65134C13.8442 9.7082 13.8646 9.79483 13.8532 9.90821L13.8413 10.0318ZM8.51161 10.0743C8.89552 10.0215 9.36534 10.1733 9.57332 10.251C9.53198 10.3388 9.50132 10.4366 9.48562 10.5414C9.28753 10.438 8.80847 10.2491 7.97284 10.2657C7.63604 10.2797 7.4208 10.1454 7.2955 10.0163C7.55715 10.0866 7.96942 10.1473 8.51161 10.0743ZM8.43661 10.5088C8.64249 10.5258 8.81531 10.5552 8.9558 10.5908C8.69489 10.6906 8.30054 10.8495 7.99337 11.0087C8.09302 10.8498 8.23885 10.6636 8.43661 10.5088ZM8.90138 11.673C8.80697 11.9136 8.66817 12.3193 8.6205 12.7141C8.48654 12.7705 8.34572 12.8332 8.19399 12.907C8.25151 12.6147 8.37638 12.0968 8.58244 11.7516C8.69944 11.7292 8.80575 11.7029 8.90138 11.673ZM10.546 13.405C10.3904 13.0804 10.3933 12.7187 10.4391 12.4265C10.5945 13.1791 11.0284 13.7709 11.5782 13.9797C11.5571 14.0244 11.5376 14.0818 11.5273 14.1497C11.0484 14.0042 10.7145 13.7568 10.546 13.405ZM11.4392 14.5527C11.4616 14.5025 11.5115 14.4634 11.5567 14.436C11.5694 14.4723 11.5834 14.5091 11.6048 14.5474C11.6368 14.6047 11.674 14.6516 11.7133 14.6934C11.6885 14.7503 11.6301 14.7932 11.5729 14.7935H11.5728C11.5023 14.7935 11.4624 14.7292 11.4412 14.6754C11.4231 14.6289 11.4223 14.5899 11.4392 14.5527ZM13.2122 16.0899C13.1324 16.0054 13.0628 15.9187 13.0041 15.8384C13.1702 15.9211 13.3731 16.0131 13.5765 16.0824C13.4691 16.0976 13.3456 16.1039 13.2122 16.0899ZM12.1603 14.835C12.2094 14.8229 12.2627 14.8012 12.32 14.7678C12.4307 14.9174 12.5632 15.067 12.7257 15.1958C12.5246 15.1734 12.2878 15.0873 12.1603 14.835ZM4.74435 7.44744C4.75706 7.44632 4.78063 7.44861 4.80923 7.45789C4.84865 7.47074 4.89895 7.49867 4.95557 7.56533C5.04187 7.66681 5.15418 7.74955 5.27671 7.81648C5.28383 7.82037 5.29021 7.82525 5.29743 7.82905C5.45422 7.91075 5.62897 7.9633 5.80512 7.97108L5.91022 7.97642C6.4691 8.00647 7.08377 8.02376 7.3112 7.84873C7.49828 7.70497 7.77081 7.38111 8.14777 6.93281C8.27115 6.78604 8.40511 6.62709 8.54935 6.45862C8.85089 6.10617 9.41779 5.62008 9.91785 5.19146C10.4337 4.74944 10.7293 4.49284 10.8059 4.35977L10.8238 4.3285C11.0659 3.90583 11.4417 3.36434 11.9139 3.55695C12.4245 3.7638 12.4531 3.90401 12.4808 4.03947C12.4854 4.0624 12.4901 4.08504 12.4959 4.10735C12.5626 4.36333 12.6687 4.68451 12.7915 5.05632C13.1839 6.24366 13.7649 8.00651 13.5121 9.24724C13.3286 9.09016 13.0769 9.06049 12.9653 9.05482C12.8636 8.92624 12.7037 8.80244 12.5108 8.79771C12.4045 8.79682 12.2587 8.82897 12.1308 8.99486C12.0087 8.86666 11.856 8.79354 11.6891 8.79354C11.5379 8.79354 11.3186 8.85082 11.0877 9.10352C11.0672 8.50924 11.0535 7.03349 11.3597 5.99161C11.4498 5.77936 11.4896 5.62936 11.4941 5.61179C11.509 5.55376 11.4767 5.49423 11.4201 5.47487C11.3634 5.45729 11.302 5.48321 11.2783 5.53829C11.2296 5.65201 11.1865 5.77374 11.1479 5.90175C10.9806 6.29231 10.6294 6.91443 9.99866 7.2344C8.85413 7.81456 8.08674 8.22471 7.85739 8.62273C7.8129 8.69983 7.7657 8.79269 7.71582 8.89061C7.58111 9.15583 7.39656 9.51897 7.23822 9.5657C7.21113 9.57405 7.18745 9.57048 7.15891 9.55408C7.02869 9.47908 6.91882 9.35463 6.81255 9.23406C6.65655 9.05697 6.4954 8.87416 6.2607 8.84055L6.21514 8.83399C5.88636 8.78787 5.20204 8.6914 5.06005 8.3119L5.02284 8.21248C4.88563 7.84456 4.87743 7.82253 4.74421 7.67699C4.64685 7.57086 4.65834 7.53135 4.6836 7.48583C4.68567 7.48208 4.68703 7.47842 4.68928 7.47458C4.69551 7.4638 4.7137 7.45044 4.74435 7.44744Z" fill="#464655"/>
</g>
<defs>
<clipPath id="clip0_72_3615">
<path d="M0 2C0 0.895432 0.895431 0 2 0H21.9998C23.1043 0 23.9998 0.895431 23.9998 2V21.9998C23.9998 23.1043 23.1043 23.9998 21.9998 23.9998H2C0.895432 23.9998 0 23.1043 0 21.9998V2Z" fill="white"/>
</clipPath>
</defs>
</svg>
