<svg width="24" height="24" viewBox="0 0 24 24" fill="none" xmlns="http://www.w3.org/2000/svg">
<g clip-path="url(#clip0_72_3728)">
<path d="M24.0037 6.10352e-05H0.00390625V8.00014H24.0037V6.10352e-05Z" fill="#F5F5F5"/>
<path d="M24.0037 15.9998H0.00390625V23.9998H24.0037V15.9998Z" fill="#FF4B55"/>
<path d="M24.0076 8.00014H0.0078125V16.0002H24.0076V8.00014Z" fill="#41479B"/>
<path d="M9.9363 4.94345C9.9363 4.94345 9.80913 8.99491 9.24063 10.1326C8.53691 11.531 7.82943 11.9389 6.77677 12.3158C5.72424 11.939 5.01672 11.5313 4.3129 10.1326C3.7445 8.99477 3.61709 4.94378 3.61719 4.94345C5.6259 4.03643 7.92758 4.03643 9.9363 4.94345Z" fill="#41479B"/>
<path d="M7.68441 10.5619C7.60744 10.5125 7.55189 10.4772 7.42557 10.4772C7.29957 10.4772 7.24402 10.5124 7.16743 10.5619C7.07968 10.6177 6.97046 10.6877 6.7675 10.6877C6.56439 10.6877 6.45517 10.6177 6.36742 10.5615C6.29078 10.5125 6.23542 10.4772 6.10942 10.4772C5.98342 10.4772 5.92807 10.5125 5.85143 10.5615C5.7685 10.6147 5.66365 10.678 5.48145 10.6851C5.86502 11.1529 6.2672 11.3748 6.76918 11.5675C7.27083 11.3748 7.67292 11.153 8.05659 10.6853C7.87294 10.6786 7.76761 10.6148 7.68441 10.5619Z" fill="#F5F5F5"/>
<path d="M5.19408 9.81346C5.27072 9.86249 5.32589 9.89779 5.45156 9.89779C5.57756 9.89779 5.63292 9.86249 5.70956 9.81346C5.79731 9.75726 5.90653 9.68728 6.10949 9.68728C6.31246 9.68728 6.42163 9.75721 6.50943 9.81309C6.58607 9.86245 6.64161 9.89779 6.76757 9.89779C6.89357 9.89779 6.94892 9.86249 7.02556 9.81346C7.11331 9.75726 7.22253 9.68728 7.42564 9.68728C7.62893 9.68728 7.73829 9.75721 7.82609 9.81309C7.90306 9.86245 7.95841 9.89779 8.08474 9.89779C8.21107 9.89779 8.26661 9.86249 8.34358 9.81309C8.41694 9.76635 8.50896 9.71231 8.65483 9.69496C8.69308 9.59545 8.73011 9.48211 8.76475 9.34434L7.82248 7.7739L7.47143 8.47604L6.7693 7.07177L6.06712 8.47604L5.71608 7.7739L4.77441 9.3434C4.80887 9.48107 4.84585 9.59498 4.8841 9.69506C5.02932 9.71245 5.12091 9.76649 5.19408 9.81346Z" fill="#F5F5F5"/>
<path d="M8.48504 10.0353C8.3973 10.0911 8.28794 10.1611 8.0846 10.1611C7.88149 10.1611 7.77208 10.0911 7.68433 10.0353C7.60737 9.98591 7.55182 9.95057 7.42549 9.95057C7.29949 9.95057 7.24395 9.98587 7.16735 10.0353C7.07961 10.0911 6.97039 10.1611 6.76742 10.1611C6.56431 10.1611 6.4551 10.0911 6.36735 10.0349C6.29071 9.98587 6.23535 9.95057 6.10935 9.95057C5.98335 9.95057 5.92799 9.98587 5.85135 10.0349C5.7636 10.0911 5.65438 10.1611 5.45142 10.1611C5.24864 10.1611 5.13961 10.0911 5.052 10.0349C5.05158 10.0347 5.05125 10.0344 5.05078 10.0341C5.11959 10.159 5.18841 10.2738 5.25694 10.3778C5.30822 10.4059 5.36175 10.4244 5.45137 10.4244C5.57737 10.4244 5.63273 10.3891 5.70937 10.3401C5.79712 10.2838 5.90634 10.2139 6.1093 10.2139C6.31227 10.2139 6.42144 10.2838 6.50924 10.3397C6.58588 10.3891 6.64142 10.4244 6.76737 10.4244C6.89337 10.4244 6.94873 10.3891 7.02537 10.3401C7.11312 10.2839 7.22234 10.214 7.42545 10.214C7.62874 10.214 7.7381 10.2839 7.82589 10.3398C7.90286 10.3891 7.95822 10.4245 8.08455 10.4245C8.17553 10.4245 8.22963 10.4057 8.28161 10.377C8.35009 10.2731 8.41881 10.1585 8.48758 10.0337C8.48678 10.0342 8.48598 10.0347 8.48504 10.0353Z" fill="#F5F5F5"/>
<path d="M6.78295 5.86289L6.84455 6.06417L7.04967 6.01687C7.06359 6.01364 7.0733 6.03042 7.06355 6.04087L6.92001 6.19486L7.06355 6.34884C7.0733 6.35929 7.06364 6.37607 7.04967 6.37284L6.84455 6.32554L6.78295 6.52682C6.77878 6.54051 6.75942 6.54051 6.75525 6.52682L6.69366 6.32554L6.48854 6.37284C6.47461 6.37607 6.46491 6.35929 6.47466 6.34884L6.61819 6.19486L6.47466 6.04087C6.46491 6.03042 6.47457 6.01364 6.48854 6.01687L6.69366 6.06417L6.75525 5.86289C6.75942 5.8492 6.77878 5.8492 6.78295 5.86289Z" fill="#FFE15A"/>
<path d="M5.77319 4.89554L5.83478 5.09682L6.0399 5.04952C6.05383 5.04629 6.06353 5.06307 6.05378 5.07352L5.91025 5.22751L6.05378 5.38149C6.06353 5.39194 6.05387 5.40872 6.0399 5.40549L5.83478 5.35819L5.77319 5.55947C5.76902 5.57316 5.74966 5.57316 5.74549 5.55947L5.68389 5.35819L5.47877 5.40549C5.46485 5.40872 5.45514 5.39194 5.46489 5.38149L5.60842 5.22751L5.46489 5.07352C5.45514 5.06307 5.4648 5.04629 5.47877 5.04952L5.68389 5.09682L5.74549 4.89554C5.74966 4.8819 5.76902 4.8819 5.77319 4.89554Z" fill="#FFE15A"/>
<path d="M7.79956 4.89554L7.86115 5.09682L8.06627 5.04952C8.08019 5.04629 8.0899 5.06307 8.08015 5.07352L7.93662 5.22751L8.08015 5.38149C8.0899 5.39194 8.08024 5.40872 8.06627 5.40549L7.86115 5.35819L7.79956 5.55947C7.79538 5.57316 7.77602 5.57316 7.77185 5.55947L7.71026 5.35819L7.50514 5.40549C7.49121 5.40872 7.48151 5.39194 7.49126 5.38149L7.63479 5.22751L7.49126 5.07352C7.48151 5.06307 7.49117 5.04629 7.50514 5.04952L7.71026 5.09682L7.77185 4.89554C7.77602 4.8819 7.79538 4.8819 7.79956 4.89554Z" fill="#FFE15A"/>
<path d="M9.56878 4.79088C9.57089 4.90281 9.57276 5.01583 9.57276 5.13775C9.52209 6.40435 9.33365 9.16277 8.92294 9.99348C8.31746 11.2095 7.75839 11.6114 6.77266 11.9819C5.78694 11.6115 5.22796 11.2097 4.62286 9.99447C4.21064 9.16052 4.02085 6.35527 3.97243 5.13784C3.97243 5.01574 3.97439 4.90403 3.97613 4.79111C3.85458 4.83869 3.73383 4.88903 3.61426 4.94299C3.6227 5.18898 3.68396 6.80259 3.8679 8.22144C3.97168 9.01348 4.11441 9.7435 4.30884 10.1327C5.01267 11.5313 5.72019 11.9391 6.77271 12.3158C7.82537 11.9389 8.53285 11.531 9.23658 10.1327C9.43101 9.74355 9.57379 9.01352 9.67753 8.22144C9.86142 6.80264 9.92259 5.18898 9.93107 4.94299C9.81131 4.88889 9.69046 4.8385 9.56878 4.79088Z" fill="#FF1722"/>
</g>
<defs>
<clipPath id="clip0_72_3728">
<path d="M0 2C0 0.895432 0.895431 0 2 0H21.9998C23.1043 0 23.9998 0.895431 23.9998 2V21.9998C23.9998 23.1043 23.1043 23.9998 21.9998 23.9998H2C0.895432 23.9998 0 23.1043 0 21.9998V2Z" fill="white"/>
</clipPath>
</defs>
</svg>
