<svg width="24" height="24" viewBox="0 0 24 24" fill="none" xmlns="http://www.w3.org/2000/svg">
<g clip-path="url(#clip0_72_3743)">
<path d="M24.0037 6.10352e-05H0.00390625V23.9998H24.0037V6.10352e-05Z" fill="#41479B"/>
<path d="M0.00390625 23.9998H24.0037V0.631655L0.00390625 23.9998Z" fill="#73AF00"/>
<path d="M24.0037 6.10352e-05H22.8709L0.00390625 22.8671V23.9998H1.13668L24.0037 1.13283V6.10352e-05Z" fill="#FFE15A"/>
<path d="M2.95329 1.95678L2.66581 2.81881L1.75715 2.82584C1.67001 2.82649 1.63387 2.93773 1.70399 2.98948L2.435 3.52928L2.16093 4.39567C2.13463 4.47873 2.22922 4.54749 2.30014 4.49682L3.0394 3.9684L3.77861 4.49682C3.84949 4.54749 3.94408 4.47877 3.91783 4.39567L3.64376 3.52928L4.37477 2.98948C4.44484 2.93773 4.40875 2.82649 4.32161 2.82584L3.41295 2.81881L3.12546 1.95678C3.09781 1.8741 2.98086 1.8741 2.95329 1.95678Z" fill="#F5F5F5"/>
<path d="M9.87517 1.95678L9.58769 2.81881L8.67903 2.82584C8.59189 2.82649 8.55575 2.93773 8.62587 2.98948L9.35688 3.52928L9.0828 4.39567C9.05651 4.47873 9.1511 4.54749 9.22202 4.49682L9.96128 3.9684L10.7005 4.49682C10.7714 4.54749 10.866 4.47877 10.8398 4.39567L10.5656 3.52928L11.2966 2.98948C11.3667 2.93773 11.3306 2.82649 11.2435 2.82584L10.3348 2.81881L10.0473 1.95678C10.0197 1.8741 9.90278 1.8741 9.87517 1.95678Z" fill="#F5F5F5"/>
<path d="M6.41423 5.04108L6.12675 5.90311L5.21809 5.91014C5.13095 5.91079 5.09481 6.02203 5.16493 6.07378L5.89594 6.61358L5.62187 7.47997C5.59557 7.56303 5.69016 7.63179 5.76108 7.58112L6.50034 7.0527L7.2396 7.58112C7.31047 7.63179 7.40507 7.56307 7.37882 7.47997L7.10469 6.61358L7.8357 6.07378C7.90578 6.02203 7.86969 5.91079 7.78255 5.91014L6.87388 5.90311L6.5864 5.04108C6.5587 4.9584 6.44179 4.9584 6.41423 5.04108Z" fill="#F5F5F5"/>
<path d="M2.95329 8.12537L2.66581 8.9874L1.75715 8.99443C1.67001 8.99509 1.63387 9.10632 1.70399 9.15807L2.435 9.69788L2.16093 10.5643C2.13463 10.6473 2.22922 10.7161 2.30014 10.6654L3.0394 10.137L3.77861 10.6654C3.84949 10.7161 3.94408 10.6474 3.91783 10.5643L3.64376 9.69788L4.37477 9.15807C4.44484 9.10632 4.40875 8.99509 4.32161 8.99443L3.41295 8.9874L3.12546 8.12537C3.09781 8.04273 2.98086 8.04273 2.95329 8.12537Z" fill="#F5F5F5"/>
<path d="M9.87517 8.12537L9.58769 8.9874L8.67903 8.99443C8.59189 8.99509 8.55575 9.10632 8.62587 9.15807L9.35688 9.69788L9.0828 10.5643C9.05651 10.6473 9.1511 10.7161 9.22202 10.6654L9.96128 10.137L10.7005 10.6654C10.7714 10.7161 10.866 10.6474 10.8398 10.5643L10.5656 9.69788L11.2966 9.15807C11.3667 9.10632 11.3306 8.99509 11.2435 8.99443L10.3348 8.9874L10.0473 8.12537C10.0197 8.04273 9.90278 8.04273 9.87517 8.12537Z" fill="#F5F5F5"/>
</g>
<defs>
<clipPath id="clip0_72_3743">
<path d="M0 2C0 0.895432 0.895431 0 2 0H21.9998C23.1043 0 23.9998 0.895431 23.9998 2V21.9998C23.9998 23.1043 23.1043 23.9998 21.9998 23.9998H2C0.895432 23.9998 0 23.1043 0 21.9998V2Z" fill="white"/>
</clipPath>
</defs>
</svg>
