<svg width="24" height="24" viewBox="0 0 24 24" fill="none" xmlns="http://www.w3.org/2000/svg">
<g clip-path="url(#clip0_72_3756)">
<path d="M24.0027 6.10352e-05H0.00292969V8.00436H24.0027V6.10352e-05Z" fill="#73AF00"/>
<path d="M24.0027 15.9955H0.00292969V23.9998H24.0027V15.9955Z" fill="#FF4B55"/>
<path d="M24.0027 8.00436H0.00292969V15.9955H24.0027V8.00436Z" fill="#F5F5F5"/>
<path d="M12.1745 10.0558L12.5999 11.3313L13.9444 11.3417C14.1185 11.343 14.1907 11.5652 14.0506 11.6686L12.9691 12.4673L13.3746 13.7492C13.4271 13.9152 13.2382 14.0525 13.0966 13.9512L12.0027 13.1694L10.9088 13.9513C10.7672 14.0525 10.5782 13.9152 10.6308 13.7493L11.0363 12.4673L9.95474 11.6686C9.81473 11.5652 9.88687 11.3431 10.061 11.3417L11.4055 11.3313L11.8308 10.0558C11.8859 9.89063 12.1195 9.89063 12.1745 10.0558Z" fill="#464655"/>
<path d="M6.39949 3.60575C6.43197 3.81392 6.55783 3.87926 6.66723 3.87078C6.79623 3.86075 6.90943 3.74277 6.90943 3.61817V2.90366C6.90943 2.8679 6.93854 2.8387 6.9744 2.8387C7.01026 2.8387 7.03937 2.86785 7.03937 2.90366V3.62122C7.03937 3.70747 7.08198 3.78791 7.15346 3.83623C7.1971 3.86581 7.24792 3.881 7.2991 3.881C7.33173 3.881 7.36445 3.87476 7.39566 3.86234L7.46059 3.83637C7.46659 4.43613 7.43007 4.96324 7.42941 4.97289C7.42435 5.04442 7.47821 5.10663 7.54974 5.11169C7.55293 5.11192 7.55602 5.11206 7.55912 5.11206C7.62666 5.11206 7.68371 5.0598 7.68858 4.99141C7.69158 4.94918 7.73166 4.37192 7.71961 3.73273L7.75885 3.71703C7.7933 3.70334 7.83193 3.70498 7.86502 3.72148C8.00813 3.79278 8.1803 3.76498 8.29336 3.65197L8.31675 3.62863C8.42175 3.52344 8.45784 3.37072 8.41083 3.22977L8.3002 2.8979C8.36001 2.9159 8.42573 2.88941 8.45461 2.83181C8.48672 2.76763 8.4607 2.68959 8.39648 2.65748L8.13666 2.52759C8.08964 2.50401 8.03325 2.51123 7.99341 2.54559C7.95371 2.58009 7.93866 2.63503 7.9553 2.6849L8.16431 3.31199C8.17997 3.35891 8.16792 3.40991 8.13295 3.44492L8.10961 3.46827C8.07572 3.50216 8.02416 3.51041 7.98103 3.48908C7.8968 3.44703 7.80099 3.43911 7.71104 3.46208C7.6928 3.04513 7.6479 2.62987 7.55222 2.34286C7.52958 2.27484 7.45613 2.23795 7.38788 2.26078C7.31982 2.28337 7.28302 2.35697 7.30576 2.42508C7.39937 2.70581 7.44015 3.13358 7.45458 3.55892L7.2991 3.62113V2.90366C7.2991 2.72451 7.15342 2.57887 6.97431 2.57887C6.79525 2.57887 6.64952 2.72451 6.64952 2.90366V3.53253L6.517 2.87793C6.50284 2.80752 6.43441 2.76159 6.36396 2.77631C6.2936 2.79065 6.24813 2.85913 6.26238 2.92945L6.39949 3.60575Z" fill="#F5F5F5"/>
<path d="M6.64942 2.51395C6.72119 2.51395 6.77931 2.45582 6.77931 2.38406V2.25417C6.77931 2.18236 6.72114 2.12428 6.64942 2.12428C6.57766 2.12428 6.51953 2.18241 6.51953 2.25417V2.38406C6.51953 2.45582 6.57766 2.51395 6.64942 2.51395Z" fill="#F5F5F5"/>
<path d="M7.94825 2.38401H8.07814C8.1499 2.38401 8.20803 2.32589 8.20803 2.25412C8.20803 2.18231 8.14986 2.12424 8.07814 2.12424H7.94825C7.87648 2.12424 7.81836 2.18236 7.81836 2.25412C7.81836 2.32594 7.87653 2.38401 7.94825 2.38401Z" fill="#F5F5F5"/>
<path d="M7.10228 4.09137L6.45274 4.48108C6.39119 4.51802 6.37127 4.5978 6.4082 4.65935C6.43258 4.69994 6.47556 4.72239 6.51972 4.72239C6.5425 4.72239 6.56552 4.71644 6.58647 4.70388L7.23601 4.31416C7.29756 4.27723 7.31748 4.19745 7.28054 4.1359C7.2436 4.07435 7.16387 4.05443 7.10228 4.09137Z" fill="#F5F5F5"/>
<path d="M8.85354 4.32115L8.85659 4.31909C8.86751 4.36296 8.88621 4.40548 8.91654 4.44115C8.96932 4.5033 9.04849 4.53452 9.13793 4.52716C9.26477 4.51788 9.35107 4.45995 9.40816 4.38509C9.41683 4.39104 9.42597 4.39652 9.43558 4.40131C9.5058 4.4367 9.58699 4.43402 9.66433 4.39395C9.86064 4.29284 9.90297 4.05889 9.89702 3.93659C9.89355 3.8653 9.83289 3.81491 9.76178 3.81355C9.69044 3.81659 9.63494 3.87711 9.63747 3.9484C9.63752 3.95004 9.64047 4.10421 9.54621 4.1614C9.53088 4.13998 9.5126 4.09175 9.50575 4.0519C9.49479 3.98506 9.43338 3.93847 9.36729 3.94381C9.29993 3.94915 9.2479 4.00573 9.24766 4.07332C9.24762 4.09222 9.2434 4.25895 9.11473 4.27287C9.09977 4.25243 9.09949 4.16642 9.11421 4.10286C9.12663 4.05073 9.10573 3.99631 9.06162 3.96584C9.01742 3.93528 8.9591 3.93528 8.91476 3.96533L8.84225 4.01464C8.80779 3.26127 8.72848 2.38336 8.7275 2.37215C8.72103 2.30086 8.65822 2.2477 8.58636 2.25455C8.51487 2.26101 8.46223 2.3242 8.4687 2.39573C8.46983 2.40773 8.56156 3.42346 8.58987 4.19914C8.58326 4.20546 8.57637 4.21235 8.56986 4.2184C8.51848 4.08889 8.41667 4.00728 8.28547 3.99486C8.10036 3.9785 7.89979 4.10445 7.82793 4.28435C7.76596 4.43913 7.80496 4.59124 7.92726 4.67182C8.01519 4.7298 8.14789 4.74808 8.31472 4.68958C8.27399 4.83269 8.19983 4.97782 8.10341 5.09008C8.01707 5.19067 7.87288 5.30678 7.68838 5.30158C7.58099 5.29741 7.49845 5.26225 7.4361 5.194C7.28568 5.02971 7.29867 4.73233 7.29876 4.72915C7.30251 4.65762 7.24771 4.59659 7.17623 4.59265C7.10423 4.58505 7.0433 4.64351 7.03936 4.71518C7.03847 4.73168 7.01962 5.12242 7.24336 5.36814C7.35346 5.48931 7.49981 5.55414 7.67826 5.56112C7.68693 5.5615 7.69565 5.56164 7.70441 5.56164C7.92172 5.56164 8.13257 5.45509 8.30056 5.2593C8.45858 5.07531 8.56583 4.82543 8.59803 4.59344C8.59761 5.03786 8.32981 5.53909 7.97469 5.75992C7.8239 5.85353 7.58882 5.93804 7.32403 5.80749C6.99759 5.64639 7.0365 5.27327 7.03819 5.25803C7.04714 5.18688 6.99656 5.12191 6.92541 5.11305C6.85453 5.10442 6.78923 5.15453 6.78038 5.22583C6.77747 5.24903 6.71503 5.79671 7.20904 6.04041C7.33589 6.10309 7.46859 6.13416 7.60232 6.13416C7.77412 6.13416 7.94746 6.08279 8.1118 5.98051C8.54408 5.71182 8.8579 5.128 8.8579 4.59237C8.85776 4.50888 8.85621 4.41734 8.85354 4.32115ZM8.07018 4.45507C8.04697 4.43974 8.06511 4.39062 8.06905 4.38087C8.09638 4.31238 8.18197 4.25314 8.25036 4.25314C8.25383 4.25314 8.25739 4.25328 8.26081 4.25365C8.27745 4.25515 8.32152 4.25937 8.3405 4.35743C8.34252 4.36784 8.34425 4.37848 8.34556 4.3894C8.20072 4.47438 8.10369 4.47706 8.07018 4.45507Z" fill="#F5F5F5"/>
<path d="M6.71533 5.64991C6.65379 5.61377 6.57424 5.63444 6.53773 5.69594C6.53177 5.70597 6.52385 5.71689 6.51579 5.72678C6.51438 5.7235 6.51298 5.71994 6.51162 5.71614C6.45743 5.57163 6.49601 5.34897 6.51551 5.27543C6.53384 5.20615 6.49259 5.13513 6.42335 5.11657C6.35421 5.0988 6.2831 5.13916 6.2645 5.2084C6.25503 5.24355 6.1752 5.55892 6.26829 5.80731C6.32792 5.96612 6.41946 6.00625 6.48579 6.01168C6.4917 6.0122 6.49751 6.01243 6.50327 6.01243C6.64315 6.01243 6.73619 5.87148 6.76207 5.82681C6.79797 5.76498 6.77702 5.68619 6.71533 5.64991Z" fill="#F5F5F5"/>
<path d="M9.11243 3.29338C9.14051 3.29338 9.16882 3.28438 9.19258 3.26558L9.84751 2.75142C9.85656 2.74434 9.86233 2.73501 9.86894 2.72629C9.96325 2.66939 10.0271 2.56697 10.0271 2.44898C10.0271 2.26983 9.8814 2.12419 9.7023 2.12419C9.52324 2.12419 9.3775 2.26983 9.3775 2.44898C9.3775 2.5492 9.4241 2.63779 9.49563 2.69742L9.03208 3.06135C8.97569 3.10565 8.96585 3.18735 9.01015 3.24365C9.03583 3.27641 9.07394 3.29338 9.11243 3.29338ZM9.70234 2.38401C9.7382 2.38401 9.76731 2.41317 9.76731 2.44898C9.76731 2.4848 9.7382 2.51395 9.70234 2.51395C9.66648 2.51395 9.63738 2.4848 9.63738 2.44898C9.63738 2.41317 9.66653 2.38401 9.70234 2.38401Z" fill="#F5F5F5"/>
<path d="M9.54852 3.1702C9.48008 3.14737 9.40681 3.18426 9.38417 3.25228C9.3703 3.2939 9.30749 3.50817 9.4348 3.63543C9.4842 3.68493 9.54917 3.70963 9.62891 3.70954C9.6822 3.70954 9.74206 3.69862 9.80834 3.67645C9.8764 3.65385 9.9132 3.58031 9.89047 3.51215C9.86778 3.44414 9.79433 3.4071 9.72612 3.43007C9.65356 3.45417 9.62286 3.45023 9.62005 3.45276C9.61236 3.43349 9.61747 3.37551 9.63078 3.33403C9.65319 3.26611 9.61639 3.19279 9.54852 3.1702Z" fill="#F5F5F5"/>
<path d="M11.0359 2.6332C11.0481 2.63676 11.0604 2.6384 11.0724 2.6384C11.1287 2.6384 11.1805 2.6016 11.197 2.54488L11.2728 2.28506C11.2929 2.21615 11.2534 2.14397 11.1845 2.12395C11.1154 2.10403 11.0435 2.14336 11.0234 2.21226L10.9476 2.47209C10.9275 2.54095 10.9671 2.61313 11.0359 2.6332Z" fill="#F5F5F5"/>
<path d="M10.278 2.61797C10.2986 2.63001 10.3212 2.63573 10.3435 2.63573C10.3882 2.63573 10.4316 2.61276 10.4558 2.57142C10.492 2.5095 10.4711 2.42986 10.4092 2.39367C10.3831 2.37844 10.3866 2.33545 10.3876 2.32692C10.3915 2.2928 10.4118 2.25117 10.4472 2.24016C10.5157 2.21883 10.554 2.14603 10.5327 2.0775C10.5113 2.00888 10.4386 1.97096 10.37 1.992C10.2405 2.03236 10.1461 2.15222 10.1295 2.29734C10.114 2.43248 10.1709 2.5553 10.278 2.61797Z" fill="#F5F5F5"/>
<path d="M9.24805 4.7224C9.17629 4.7224 9.11816 4.78052 9.11816 4.85229C9.11816 4.91571 9.16359 4.96849 9.22373 4.97993C9.23057 4.98996 9.2481 5.02432 9.2481 5.11211C9.2481 5.18392 9.30627 5.242 9.37799 5.242C9.44975 5.242 9.50788 5.18388 9.50788 5.11211C9.50788 4.72685 9.25865 4.7224 9.24805 4.7224Z" fill="#F5F5F5"/>
<path d="M11.4517 4.18446C11.468 4.18714 11.4842 4.1884 11.5005 4.1884C11.6025 4.1884 11.7057 4.13689 11.8078 4.03475C11.8586 3.98398 11.8586 3.90181 11.8078 3.85105C11.757 3.80028 11.6749 3.80028 11.6241 3.85105C11.5464 3.92881 11.5046 3.93045 11.4939 3.92806C11.4691 3.9245 11.4466 3.89216 11.4416 3.8833C11.409 3.82011 11.3317 3.79489 11.2681 3.82672C11.204 3.85883 11.178 3.93683 11.21 4.00104C11.2181 4.01717 11.2931 4.15873 11.4517 4.18446Z" fill="#F5F5F5"/>
<path d="M13.6594 3.27159C13.6585 3.26957 13.6578 3.26765 13.6572 3.26587C13.6342 3.19837 13.5606 3.16171 13.4932 3.18468C13.4251 3.20728 13.3883 3.28087 13.411 3.34898C13.4212 3.37945 13.479 3.53216 13.6224 3.55148C13.6319 3.55274 13.6414 3.5534 13.6509 3.5534C13.7409 3.5534 13.8253 3.49518 13.9021 3.37996C13.9419 3.32034 13.9258 3.23967 13.8661 3.19982C13.8063 3.16012 13.7257 3.17611 13.686 3.23587C13.6757 3.25115 13.6668 3.26282 13.6594 3.27159Z" fill="#F5F5F5"/>
<path d="M13.4048 5.63177C13.4048 5.07776 13.3804 4.55806 13.3466 4.10272C13.5311 4.42264 13.697 4.74589 13.8028 5.02788C13.8224 5.08001 13.8719 5.11212 13.9244 5.11212C13.9395 5.11212 13.955 5.10945 13.97 5.10387C14.0372 5.0786 14.0713 5.00379 14.0461 4.93652C13.8817 4.49815 13.5861 3.97611 13.2948 3.51266C13.2238 2.81287 13.1443 2.36869 13.1429 2.36077C13.1301 2.29008 13.0626 2.24241 12.9919 2.25624C12.9213 2.26904 12.8745 2.33668 12.8873 2.40722C12.8883 2.41285 12.9293 2.64169 12.9782 3.02676C12.8784 2.87864 12.7857 2.74505 12.7079 2.63508L12.7142 2.63709C12.7826 2.65992 12.8559 2.62303 12.8785 2.55502C12.9012 2.48691 12.8645 2.41332 12.7964 2.39072L12.4067 2.26083C12.3527 2.24255 12.2934 2.26186 12.2602 2.30804C12.2514 2.32036 12.2453 2.33386 12.2412 2.34783C12.1635 2.29032 12.0637 2.24358 11.9701 2.28277C11.9134 2.30625 11.8459 2.36536 11.8459 2.51391C11.8459 2.62795 11.8894 2.75128 11.9356 2.88192C12.0121 3.09862 12.06 3.25795 11.979 3.33393C11.9342 3.37593 11.8895 3.39177 11.8458 3.38076C11.7657 3.36046 11.6864 3.25378 11.6336 3.09529C11.6313 3.08845 11.6265 3.08343 11.6232 3.07725C11.6506 2.87601 11.6387 2.63358 11.5836 2.35847C11.5696 2.28807 11.5014 2.24227 11.4308 2.25661C11.3604 2.27068 11.3148 2.33907 11.3289 2.40947C11.4137 2.83369 11.3883 3.17981 11.2609 3.3352C11.2116 3.39534 11.1499 3.42323 11.0666 3.42323C11.0402 3.42323 11.0223 3.41484 11.0044 3.39431C10.9019 3.27618 10.9024 2.89509 10.9354 2.66203C10.9407 2.62486 10.9295 2.58703 10.9048 2.55863C10.8802 2.53022 10.8444 2.51386 10.8068 2.51386C10.5832 2.51386 10.4985 2.76811 10.4237 2.9924C10.3909 3.09098 10.3298 3.27431 10.2871 3.29334C10.2085 3.29334 10.1577 3.06243 10.1572 2.90348C10.1571 2.83181 10.0989 2.77383 10.0274 2.77383H10.0272C9.95549 2.77383 9.89746 2.83195 9.89746 2.90362C9.89746 3.20329 9.99951 3.55316 10.2872 3.55316C10.5014 3.55316 10.5882 3.31973 10.6608 3.10279C10.6734 3.27534 10.7124 3.45407 10.8082 3.56446C10.8755 3.64208 10.9648 3.6831 11.0667 3.6831C11.227 3.6831 11.3636 3.61977 11.4619 3.50005C11.4796 3.47835 11.495 3.45351 11.5101 3.42838C11.5855 3.53563 11.678 3.60632 11.7823 3.63266C11.8128 3.6404 11.8436 3.64433 11.8741 3.64433C11.9743 3.64433 12.0723 3.60299 12.157 3.52345C12.1746 3.5069 12.187 3.4888 12.2004 3.47104C12.2321 3.48013 12.2643 3.48552 12.2963 3.48552C12.4015 3.48552 12.5028 3.44315 12.5657 3.40279C12.6258 3.36421 12.6432 3.28457 12.605 3.22415C12.5668 3.16387 12.4867 3.14587 12.4262 3.1837C12.4251 3.18421 12.3383 3.23404 12.2791 3.22242C12.2793 3.08001 12.2277 2.92875 12.1807 2.79553C12.1539 2.71969 12.1264 2.64188 12.1135 2.57836C12.1242 2.58736 12.1347 2.59674 12.144 2.60588C12.1946 2.65664 12.2769 2.65664 12.3277 2.60588C12.3361 2.59749 12.3409 2.58727 12.3466 2.57747C12.4812 2.763 12.7582 3.15281 13.0431 3.60215C13.0974 4.15447 13.1452 4.85909 13.1452 5.63182C13.1452 5.70363 13.2034 5.7617 13.2751 5.7617C13.3468 5.7617 13.4048 5.70358 13.4048 5.63177Z" fill="#F5F5F5"/>
<path d="M13.5343 2.77378C13.5343 2.84559 13.5925 2.90366 13.6642 2.90366C13.7359 2.90366 13.7941 2.84554 13.7941 2.77378C13.7941 2.62092 13.6745 2.37389 13.6505 2.32594C13.6184 2.26186 13.5404 2.23598 13.4761 2.26781C13.412 2.29992 13.386 2.37792 13.418 2.44214C13.465 2.53589 13.5343 2.70599 13.5343 2.77378Z" fill="#F5F5F5"/>
<path d="M12.9434 5.64597C12.8797 5.61348 12.8014 5.63926 12.769 5.7032C12.755 5.73048 12.7334 5.76081 12.7151 5.78036C12.7094 5.7287 12.7231 5.62558 12.7493 5.54008C12.7667 5.48298 12.7431 5.42134 12.692 5.39064C12.641 5.3598 12.5754 5.36781 12.5333 5.41005L12.2734 5.66987C12.2227 5.72064 12.2227 5.80281 12.2734 5.85357C12.3242 5.90434 12.4064 5.90434 12.4571 5.85357L12.4637 5.84696C12.475 5.89909 12.4965 5.94667 12.5333 5.98346C12.582 6.03217 12.6408 6.05795 12.702 6.05795C12.7139 6.05795 12.7258 6.05692 12.7378 6.05504C12.885 6.03118 12.9765 5.86895 13.0012 5.81982C13.0331 5.7557 13.0072 5.67817 12.9434 5.64597Z" fill="#F5F5F5"/>
<path d="M12.8938 4.60062H11.9782C11.9863 4.56828 11.9947 4.53744 12.0032 4.50814C12.3683 4.4323 12.5853 4.31441 12.6491 4.1571C12.6712 4.10253 12.6942 3.99229 12.6003 3.86558C12.5156 3.7514 12.396 3.70016 12.2719 3.72552C12.0873 3.76293 11.9228 3.96186 11.8048 4.28028C11.438 4.34309 11.2033 4.47472 11.0547 4.60461C11.0019 4.07225 10.7953 3.75599 10.7853 3.74094C10.7454 3.68118 10.6648 3.6651 10.6051 3.7049C10.5455 3.74474 10.5293 3.82527 10.5691 3.88504C10.5714 3.8886 10.8071 4.24902 10.8071 4.85225C10.8071 5.44521 10.3343 5.8915 10.0276 5.8915C9.88173 5.8915 9.81788 5.71811 9.7898 5.57154C10.09 5.36112 10.3549 5.11765 10.4134 4.8837C10.4926 4.56716 10.3929 4.33386 10.327 4.17946C10.3239 4.17233 10.3207 4.16474 10.3174 4.15686C10.3202 4.15939 10.3228 4.16207 10.3255 4.1646C10.3761 4.21536 10.4584 4.21536 10.5091 4.1646C10.5599 4.11383 10.5599 4.03166 10.5091 3.9809C10.4332 3.90491 10.2857 3.78552 10.1517 3.84158C10.0951 3.86507 10.0276 3.92418 10.0276 4.07272C10.0276 4.13985 10.0556 4.20542 10.0881 4.28155C10.1466 4.41842 10.2194 4.58881 10.1614 4.8207C10.1271 4.95795 9.95855 5.1244 9.73618 5.28968C9.71237 5.26118 9.67792 5.24201 9.63788 5.24201H9.6377C9.56603 5.24215 9.508 5.30013 9.508 5.3718C9.508 5.39515 9.50903 5.42018 9.51053 5.44582C9.23251 5.62586 8.91789 5.7925 8.67475 5.90313C8.6095 5.9328 8.58063 6.00981 8.6103 6.07516C8.63205 6.12297 8.67925 6.15128 8.72861 6.15128C8.74661 6.15128 8.76489 6.14762 8.78228 6.13961C8.85531 6.10642 9.20205 5.94489 9.55815 5.72416C9.62373 5.94686 9.76271 6.15128 10.0276 6.15128C10.3393 6.15128 10.6928 5.89647 10.8969 5.51594C10.9215 5.55944 10.9499 5.60111 10.9836 5.64002C11.3106 6.01708 11.9493 6.02139 11.9763 6.02139C12.0463 6.02139 12.1036 5.96608 12.1062 5.89619C12.1086 5.8263 12.0553 5.76691 11.9856 5.76199C11.9846 5.76185 11.8811 5.75046 11.8235 5.68319C11.7887 5.6426 11.7748 5.58677 11.781 5.51257C11.7943 5.35244 12.3107 5.23282 12.7658 5.22574C12.8201 5.22485 12.8681 5.19049 12.8863 5.13935L13.0162 4.77397C13.0303 4.73426 13.0242 4.68997 12.9999 4.65561C12.9756 4.62115 12.9359 4.60062 12.8938 4.60062ZM12.3235 3.98024C12.326 3.97972 12.3293 3.97897 12.3334 3.97897C12.3458 3.97897 12.3654 3.98507 12.3916 4.02032C12.3965 4.02693 12.4123 4.04947 12.4083 4.05941C12.3934 4.09621 12.3037 4.15696 12.1168 4.21203C12.1991 4.05168 12.2795 3.9891 12.3235 3.98024ZM11.539 5.68797C11.407 5.64508 11.2725 5.57711 11.1794 5.4694C11.0771 5.35104 11.0393 5.20132 11.0641 5.0119C11.0678 5.00196 11.0763 4.98232 11.0912 4.95682C11.2741 4.94009 11.7628 5.01218 11.7967 5.15215C11.6459 5.22912 11.5349 5.3373 11.5221 5.4911C11.5156 5.56821 11.5235 5.63355 11.539 5.68797Z" fill="#F5F5F5"/>
<path d="M14.3071 2.73267L14.1772 2.34296C14.1563 2.28028 14.0912 2.24288 14.0268 2.25708C13.962 2.27091 13.9181 2.33119 13.9247 2.397C14.0143 3.29343 14.1838 5.04162 14.1838 5.24205C14.1838 5.42205 13.8636 5.77652 13.3463 6.03522C13.2821 6.06733 13.2561 6.14533 13.2881 6.20954C13.3109 6.25511 13.3568 6.28136 13.4045 6.28136C13.4239 6.28136 13.4438 6.2769 13.4625 6.26767C13.9351 6.03133 14.4436 5.60964 14.4436 5.2421C14.4436 5.05015 14.3109 3.66908 14.2348 2.89331C14.2965 2.86701 14.3287 2.79736 14.3071 2.73267Z" fill="#F5F5F5"/>
<path d="M15.3918 3.90486C15.4167 3.92984 15.45 3.94292 15.4837 3.94292C15.5056 3.94292 15.5277 3.93734 15.5478 3.9259C15.5987 3.89698 15.6239 3.83759 15.6095 3.78092C15.5862 3.68956 15.5785 3.57542 15.5908 3.52873C15.6558 3.53075 15.7163 3.48444 15.7258 3.41736C15.736 3.3463 15.6866 3.28049 15.6156 3.27031C15.5297 3.25864 15.4543 3.28391 15.4016 3.3425C15.3675 3.38056 15.3472 3.42941 15.3361 3.48191L15.1856 3.33144C15.1349 3.28067 15.0527 3.28067 15.0019 3.33144C14.9512 3.3822 14.9512 3.46438 15.0019 3.51514L15.3918 3.90486Z" fill="#F5F5F5"/>
<path d="M15.684 4.04037L15.1969 4.38949C15.1385 4.43121 15.1251 4.51244 15.1669 4.5708C15.1923 4.60619 15.2321 4.62499 15.2726 4.62499C15.2989 4.62499 15.3253 4.61711 15.3482 4.60061L15.8354 4.25149C15.8937 4.20977 15.9071 4.12854 15.8653 4.07018C15.8234 4.01182 15.7421 3.99823 15.684 4.04037Z" fill="#F5F5F5"/>
<path d="M15.6406 4.52895C15.5998 4.58159 15.6056 4.6557 15.652 4.70121C15.6575 4.71059 15.6829 4.76032 15.6783 4.8882C15.6758 4.96001 15.7318 5.02015 15.8035 5.02268C15.8051 5.02282 15.8067 5.02282 15.8082 5.02282C15.8779 5.02282 15.9355 4.96765 15.938 4.89762C15.9475 4.63245 15.8606 4.53556 15.8229 4.50626C15.7664 4.46192 15.6846 4.47233 15.6406 4.52895Z" fill="#F5F5F5"/>
<path d="M16.7744 5.48561C16.8462 5.48561 16.9043 5.42749 16.9043 5.35572C16.9043 5.16405 16.8945 4.95007 16.8783 4.72747C17.0071 4.93854 17.1142 5.13312 17.1828 5.29319C17.2038 5.34255 17.2518 5.37199 17.3022 5.37199C17.3193 5.37199 17.3367 5.36871 17.3534 5.36144C17.4193 5.33313 17.4498 5.25677 17.4216 5.19096C17.3026 4.91342 17.0804 4.54573 16.8272 4.16614C16.7763 3.68929 16.7097 3.22214 16.658 2.88698C16.6855 2.8898 16.714 2.88305 16.7391 2.86683C16.7801 2.84053 16.7994 2.79492 16.7966 2.74945C16.8 2.7622 16.8035 2.77505 16.811 2.78677C16.8119 2.78803 16.8954 2.92594 16.8583 3.10481C16.8438 3.17498 16.889 3.24375 16.9592 3.25832C16.9681 3.2601 16.977 3.261 16.9857 3.261C17.046 3.261 17.1 3.21876 17.1128 3.15736C17.1715 2.87358 17.036 2.65636 17.0302 2.64722C16.9916 2.58685 16.9113 2.56908 16.8508 2.60738C16.8096 2.63363 16.7901 2.67933 16.7928 2.72484C16.7895 2.712 16.7858 2.69911 16.7782 2.6873L16.559 2.34629C16.5255 2.29425 16.46 2.27321 16.4024 2.29552C16.3448 2.31811 16.311 2.37811 16.3217 2.439C16.3235 2.44922 16.4228 3.01931 16.5108 3.7064C16.4112 3.56573 16.3117 3.42824 16.2151 3.29699C16.1994 3.10045 16.1836 2.91872 16.1701 2.76848C16.1772 2.76633 16.1843 2.76352 16.1912 2.76009C16.2554 2.72798 16.2814 2.64999 16.2493 2.58577L16.1194 2.32594C16.0914 2.26988 16.0274 2.24194 15.9671 2.25919C15.9069 2.27668 15.8677 2.33457 15.8739 2.39696C15.8895 2.55197 15.9056 2.72363 15.9214 2.9039C15.8393 2.79558 15.7632 2.69644 15.6982 2.61249C15.7109 2.60156 15.7217 2.58802 15.7298 2.57203C15.7619 2.50786 15.7359 2.42982 15.6716 2.39771L15.4118 2.26782C15.3573 2.24068 15.2912 2.25488 15.2527 2.30232C15.2144 2.34975 15.2142 2.41749 15.2523 2.46521C15.2593 2.47392 15.5792 2.87489 15.9618 3.39243C16.0282 4.25075 16.0723 5.14362 16.0099 5.33083C15.9985 5.3651 15.9786 5.40541 15.9599 5.40682C15.8814 5.41774 15.694 5.24215 15.5998 5.05399C15.5456 4.94567 15.4675 4.93437 15.4258 4.93624C15.2862 4.94487 15.2317 5.09852 15.1327 5.37733C15.0618 5.57716 14.9736 5.82555 14.8745 5.92717C14.8209 5.86164 14.7515 5.64171 14.713 5.41568C14.7311 5.46565 14.7779 5.50179 14.8341 5.50179C14.9058 5.50179 14.964 5.44366 14.964 5.3719C14.964 5.17816 14.8285 3.70274 14.7528 2.89411C14.816 2.86875 14.8492 2.79806 14.8274 2.73263L14.6975 2.34291C14.6766 2.28024 14.6125 2.2433 14.5474 2.2569C14.4827 2.27058 14.4386 2.33058 14.4449 2.3963C14.5332 3.32306 14.6988 5.1131 14.7039 5.36013C14.7036 5.35793 14.7032 5.35572 14.7028 5.35347C14.6928 5.28241 14.6265 5.23371 14.5559 5.24323C14.4848 5.25349 14.4356 5.31921 14.4457 5.39027C14.4836 5.65582 14.5805 6.11237 14.8038 6.18672C14.8214 6.19267 14.8451 6.19801 14.873 6.19801C14.9242 6.19801 14.9892 6.17987 15.0558 6.11326C15.1973 5.9718 15.293 5.70208 15.3775 5.46424C15.3966 5.41043 15.4192 5.34677 15.4405 5.29221C15.5597 5.46625 15.7677 5.68296 15.9783 5.66594C16.0524 5.6606 16.1872 5.62075 16.2564 5.41296C16.3255 5.20573 16.2982 4.48297 16.2517 3.79105C16.3611 3.94447 16.4707 4.1015 16.5752 4.2567C16.6157 4.64572 16.6447 5.03548 16.6447 5.35563C16.6445 5.42749 16.7026 5.48561 16.7744 5.48561Z" fill="#F5F5F5"/>
<path d="M17.7599 4.80232C17.6678 4.11673 17.5397 3.32258 17.4584 2.83514C17.4951 2.84414 17.5351 2.83678 17.5673 2.81203C17.6244 2.76853 17.6353 2.68692 17.5918 2.62997L17.3563 2.32144C17.32 2.274 17.2559 2.25727 17.201 2.28122C17.1461 2.30522 17.1148 2.36358 17.125 2.42255C17.1274 2.43586 17.359 3.76949 17.5023 4.83677C17.5571 5.24463 17.4771 5.60913 17.2884 5.81162C17.1672 5.94165 17.0064 6.00053 16.8119 5.98923C16.7405 5.98543 16.6786 6.0392 16.6741 6.11078C16.6696 6.18231 16.724 6.24399 16.7955 6.24854C16.8175 6.24995 16.8391 6.25056 16.8606 6.25056C17.1055 6.25056 17.3181 6.16074 17.4785 5.98872C17.7233 5.72612 17.8258 5.29366 17.7599 4.80232Z" fill="#F5F5F5"/>
<path d="M16.3307 5.65867C16.2829 5.71056 16.2865 5.79226 16.3371 5.84125C16.3441 5.84809 16.3525 5.86154 16.3526 5.86815C16.3527 5.87181 16.3474 5.88273 16.333 5.89722C16.2822 5.94798 16.2822 6.03015 16.333 6.08092C16.3584 6.10628 16.3916 6.11898 16.4248 6.11898C16.4581 6.11898 16.4913 6.10628 16.5167 6.08092C16.5991 5.99856 16.6142 5.91498 16.6124 5.85929C16.6084 5.73939 16.5267 5.662 16.5104 5.6477C16.4574 5.60144 16.3784 5.60702 16.3307 5.65867Z" fill="#F5F5F5"/>
</g>
<defs>
<clipPath id="clip0_72_3756">
<path d="M0 2C0 0.895432 0.895431 0 2 0H21.9998C23.1043 0 23.9998 0.895431 23.9998 2V21.9998C23.9998 23.1043 23.1043 23.9998 21.9998 23.9998H2C0.895432 23.9998 0 23.1043 0 21.9998V2Z" fill="white"/>
</clipPath>
</defs>
</svg>
