<svg width="24" height="24" viewBox="0 0 24 24" fill="none" xmlns="http://www.w3.org/2000/svg">
<g clip-path="url(#clip0_72_3817)">
<path d="M24.0017 6.10352e-05H0.00195312V8.00014H24.0017V6.10352e-05Z" fill="#464655"/>
<path d="M24.0017 15.9998H0.00195312V23.9998H24.0017V15.9998Z" fill="#73AF00"/>
<path d="M24.0017 8.00014H0.00195312V16.0002H24.0017V8.00014Z" fill="#FF4B55"/>
<path d="M4.47685 10.9296L4.7228 11.4631L5.29322 11.3228C5.32884 11.314 5.35833 11.351 5.34187 11.3838L5.07811 11.9087L5.54348 12.2672C5.57254 12.2896 5.562 12.3357 5.52614 12.3433L4.95132 12.4643L4.96121 13.0517C4.96182 13.0883 4.91916 13.1089 4.8909 13.0855L4.43785 12.7116L3.98481 13.0855C3.95654 13.1089 3.91389 13.0883 3.9145 13.0517L3.92439 12.4643L3.34957 12.3433C3.31366 12.3357 3.30316 12.2896 3.33222 12.2672L3.79759 11.9087L3.53383 11.3838C3.51738 11.351 3.54686 11.314 3.58249 11.3228L4.1529 11.4631L4.39885 10.9296C4.41418 10.8963 4.46148 10.8963 4.47685 10.9296Z" fill="#F5F5F5"/>
<path d="M24.0046 7.57885H0.00488281V8.65252H24.0046V7.57885Z" fill="#F5F5F5"/>
<path d="M24.0046 15.3474H0.00488281V16.421H24.0046V15.3474Z" fill="#F5F5F5"/>
<path d="M0.00195312 23.9998L11.4546 12.3273C11.6183 12.1599 11.6183 11.8399 11.4546 11.6726L0.00195312 6.10352e-05V23.9998Z" fill="#41479B"/>
<path d="M3.8044 10.0709L4.73396 11.0223L5.93508 10.4508C6.09056 10.3768 6.25078 10.5434 6.17081 10.6959L5.55319 11.8739L6.4679 12.8397C6.58631 12.9647 6.47746 13.1685 6.30768 13.1396L4.99641 12.9163L4.36061 14.0846C4.2783 14.2359 4.05082 14.1954 4.02583 14.025L3.83304 12.7089L2.52538 12.4652C2.35607 12.4337 2.32438 12.2048 2.47869 12.1284L3.6708 11.5383L3.49845 10.2194C3.47613 10.0486 3.68402 9.94773 3.8044 10.0709Z" fill="#FFE15A"/>
</g>
<defs>
<clipPath id="clip0_72_3817">
<path d="M0 2C0 0.895432 0.895431 0 2 0H21.9998C23.1043 0 23.9998 0.895431 23.9998 2V21.9998C23.9998 23.1043 23.1043 23.9998 21.9998 23.9998H2C0.895432 23.9998 0 23.1043 0 21.9998V2Z" fill="white"/>
</clipPath>
</defs>
</svg>
