<svg width="24" height="24" viewBox="0 0 24 24" fill="none" xmlns="http://www.w3.org/2000/svg">
<g clip-path="url(#clip0_72_3786)">
<path d="M0.00292969 6.7805V17.2196L6.59593 11.9999L0.00292969 6.7805Z" fill="#464655"/>
<path d="M24.0027 8.21051V6.10352e-05H3.64844L14.0194 8.21051H24.0027Z" fill="#FF4B55"/>
<path d="M14.0197 15.7894L3.64844 23.9998H24.003V15.7894H14.0197Z" fill="#41479B"/>
<path d="M24.0027 14.5262V9.47364H13.58L1.6134 6.10352e-05H0.00292969V5.16948L8.63094 11.9999L0.00292969 18.8306V23.9998H1.61302L13.5799 14.5262H24.0027Z" fill="#73AF00"/>
<path d="M24.0026 9.47364V8.21051H14.0193L3.64834 6.10352e-05H2.59572H1.61328L13.5798 9.47364H24.0026Z" fill="#F5F5F5"/>
<path d="M0.00292969 5.16948V6.78051L6.59593 11.9999L0.00292969 17.2196V18.8306L8.63094 11.9999L0.00292969 5.16948Z" fill="#FFE15A"/>
<path d="M24.003 15.7894V14.5262H13.5802L1.61328 23.9998H2.5961H3.64839L14.0196 15.7894H24.003Z" fill="#F5F5F5"/>
</g>
<defs>
<clipPath id="clip0_72_3786">
<path d="M0 2C0 0.895432 0.895431 0 2 0H21.9998C23.1043 0 23.9998 0.895431 23.9998 2V21.9998C23.9998 23.1043 23.1043 23.9998 21.9998 23.9998H2C0.895432 23.9998 0 23.1043 0 21.9998V2Z" fill="white"/>
</clipPath>
</defs>
</svg>
