<svg width="24" height="24" viewBox="0 0 24 24" fill="none" xmlns="http://www.w3.org/2000/svg">
<g clip-path="url(#clip0_72_3827)">
<path d="M23.9084 6.10352e-05H0.0947266V23.9998H23.9084V6.10352e-05Z" fill="#C8414B"/>
<path d="M23.9084 5.05267H0.0947266V18.9472H23.9084V5.05267Z" fill="#FFD250"/>
<path d="M10.4712 12.0191L10.8551 10.4533C10.8905 10.3091 10.7694 10.1724 10.6064 10.1724H10.3359C10.173 10.1724 10.0518 10.3091 10.0872 10.4533L10.4712 12.0191Z" fill="#C8414B"/>
<path d="M10.9243 11.1979H10.0186V14.6863H10.9243V11.1979Z" fill="#F5F5F5"/>
<path d="M11.1506 10.7878H9.79199V11.1982H11.1506V10.7878Z" fill="#FAB446"/>
<path d="M11.1498 12.0191H8.88574V12.4296H11.1498V12.0191Z" fill="#C8414B"/>
<path d="M11.1496 13.6606L9.79102 13.2503V12.8399L11.1496 13.2503V13.6606Z" fill="#C8414B"/>
<path d="M3.67821 12.0191L4.06216 10.4533C4.09751 10.3091 3.97643 10.1723 3.81345 10.1723H3.54298C3.38 10.1723 3.25887 10.3091 3.29426 10.4533L3.67821 12.0191Z" fill="#C8414B"/>
<path d="M5.2634 10.7879C5.01333 10.7879 4.81055 10.9716 4.81055 11.1983V13.8659C4.81055 14.3645 5.32406 15.3023 7.07482 15.3023C8.82559 15.3023 9.3391 14.3645 9.3391 13.8659V11.1983C9.3391 10.9717 9.13636 10.7879 8.88624 10.7879H5.2634Z" fill="#F5F5F5"/>
<path d="M7.07287 12.84H4.80859V11.2191C4.80859 10.981 5.00162 10.788 5.2397 10.788H7.07282V12.84H7.07287Z" fill="#C8414B"/>
<path d="M7.07324 12.84H9.33752V13.8142C9.33752 14.4094 8.85499 14.8919 8.25978 14.8919H8.15103C7.55582 14.8919 7.07329 14.4094 7.07329 13.8142L7.07324 12.84Z" fill="#C8414B"/>
<path d="M4.81055 12.8399H7.07482V13.8141C7.07482 14.4093 6.5923 14.8919 5.99708 14.8919H5.88833C5.29312 14.8919 4.81059 14.4093 4.81059 13.8141L4.81055 12.8399Z" fill="#FAB446"/>
<path d="M6.61985 14.682V12.8399H6.16699V14.8712C6.33537 14.8402 6.48761 14.7726 6.61985 14.682Z" fill="#C8414B"/>
<path d="M5.71457 14.8712V12.8399H5.26172V14.682C5.39395 14.7726 5.54615 14.8402 5.71457 14.8712Z" fill="#C8414B"/>
<path d="M6.62228 12.0192H5.26367V12.4296H6.62228V12.0192Z" fill="#FFB441"/>
<path d="M6.61935 11.1978H5.26074V11.6083H6.61935V11.1978Z" fill="#FAB446"/>
<path d="M6.39399 11.442H5.48828V12.1855H6.39399V11.442Z" fill="#FAB446"/>
<path d="M4.1313 11.1979H3.22559V14.6863H4.1313V11.1979Z" fill="#F5F5F5"/>
<path d="M4.35666 14.4814H2.99805V14.8918H4.35666V14.4814Z" fill="#FAB446"/>
<path d="M4.35666 10.7877H2.99805V11.1981H4.35666V10.7877Z" fill="#FAB446"/>
<path d="M4.58383 14.8921H2.77246V15.3025H4.58383V14.8921Z" fill="#5064AA"/>
<path d="M11.3772 14.4815H10.0186V14.8919H11.3772V14.4815Z" fill="#FAB446"/>
<path d="M11.3768 14.8921H9.56543V15.3025H11.3768V14.8921Z" fill="#5064AA"/>
<path d="M8.43397 10.3776H5.7168V10.788H8.43397V10.3776Z" fill="#FAB446"/>
<path d="M7.30149 9.14668H6.84863V10.3781H7.30149V9.14668Z" fill="#FFB441"/>
<path d="M6.62067 9.76196C6.24609 9.76196 5.94141 9.48582 5.94141 9.1464C5.94141 8.80698 6.24609 8.53085 6.62067 8.53085C6.99524 8.53085 7.29992 8.80698 7.29992 9.1464C7.29988 9.48582 6.99519 9.76196 6.62067 9.76196ZM6.62067 8.94119C6.49574 8.94119 6.39426 9.0332 6.39426 9.1464C6.39426 9.2596 6.49574 9.35162 6.62067 9.35162C6.74559 9.35162 6.84707 9.2596 6.84707 9.1464C6.84707 9.03315 6.74559 8.94119 6.62067 8.94119Z" fill="#F5F5F5"/>
<path d="M7.52692 9.76196C7.15234 9.76196 6.84766 9.48582 6.84766 9.1464C6.84766 8.80698 7.15234 8.53085 7.52692 8.53085C7.90149 8.53085 8.20617 8.80698 8.20617 9.1464C8.20613 9.48582 7.90149 9.76196 7.52692 9.76196ZM7.52692 8.94119C7.40199 8.94119 7.30051 9.0332 7.30051 9.1464C7.30051 9.2596 7.40199 9.35162 7.52692 9.35162C7.65184 9.35162 7.75332 9.2596 7.75332 9.1464C7.75332 9.03315 7.65184 8.94119 7.52692 8.94119Z" fill="#F5F5F5"/>
<path d="M8.43219 10.1724C8.05761 10.1724 7.75293 9.89626 7.75293 9.55684C7.75293 9.21742 8.05761 8.94128 8.43219 8.94128C8.80676 8.94128 9.11145 9.21742 9.11145 9.55684C9.11145 9.89626 8.80672 10.1724 8.43219 10.1724ZM8.43219 9.35158C8.30727 9.35158 8.20579 9.44359 8.20579 9.55679C8.20579 9.67 8.30727 9.76201 8.43219 9.76201C8.55711 9.76201 8.65859 9.67 8.65859 9.55679C8.65859 9.44355 8.55711 9.35158 8.43219 9.35158Z" fill="#F5F5F5"/>
<path d="M5.71539 10.1724C5.34082 10.1724 5.03613 9.89626 5.03613 9.55684C5.03613 9.21742 5.34082 8.94128 5.71539 8.94128C6.08997 8.94128 6.39465 9.21742 6.39465 9.55684C6.3946 9.89626 6.08992 10.1724 5.71539 10.1724ZM5.71539 9.35158C5.59047 9.35158 5.48899 9.44359 5.48899 9.55679C5.48899 9.67 5.59047 9.76201 5.71539 9.76201C5.84031 9.76201 5.9418 9.67 5.9418 9.55679C5.9418 9.44355 5.84031 9.35158 5.71539 9.35158Z" fill="#F5F5F5"/>
<path d="M8.43408 13.6607V13.8659C8.43408 13.979 8.3325 14.0711 8.20767 14.0711C8.08285 14.0711 7.98127 13.979 7.98127 13.8659V13.6607H8.43408ZM8.88689 13.2503H7.52832V13.8658C7.52832 14.2053 7.83305 14.4814 8.20758 14.4814C8.58215 14.4814 8.88684 14.2053 8.88684 13.8658L8.88689 13.2503Z" fill="#FAB446"/>
<path d="M8.22851 12.4295H8.18501C7.94694 12.4295 7.75391 12.2364 7.75391 11.9983V11.6294C7.75391 11.3913 7.94694 11.1982 8.18501 11.1982H8.22851C8.46659 11.1982 8.65962 11.3913 8.65962 11.6294V11.9983C8.65962 12.2365 8.46659 12.4295 8.22851 12.4295Z" fill="#FFA0D2"/>
<path d="M7.07477 13.4554C7.44991 13.4554 7.75403 13.1798 7.75403 12.8399C7.75403 12.5 7.44991 12.2245 7.07477 12.2245C6.69962 12.2245 6.39551 12.5 6.39551 12.8399C6.39551 13.1798 6.69962 13.4554 7.07477 13.4554Z" fill="#5064AA"/>
<path d="M7.30149 8.32545H6.84863V9.55685H7.30149V8.32545Z" fill="#FAB446"/>
<path d="M5.71653 10.3775L5.26367 9.96709L5.52893 9.72667C5.93899 9.35505 6.49516 9.14632 7.07504 9.14632C7.65493 9.14632 8.21114 9.3551 8.62115 9.72667L8.88642 9.96709L8.43356 10.3775H5.71653Z" fill="#C8414B"/>
<path d="M7.07308 10.1723C7.19812 10.1723 7.29949 10.0804 7.29949 9.96705C7.29949 9.85371 7.19812 9.76183 7.07308 9.76183C6.94804 9.76183 6.84668 9.85371 6.84668 9.96705C6.84668 10.0804 6.94804 10.1723 7.07308 10.1723Z" fill="#FFD250"/>
<path d="M6.16683 10.1723C6.29187 10.1723 6.39324 10.0804 6.39324 9.96705C6.39324 9.85371 6.29187 9.76183 6.16683 9.76183C6.04179 9.76183 5.94043 9.85371 5.94043 9.96705C5.94043 10.0804 6.04179 10.1723 6.16683 10.1723Z" fill="#FFD250"/>
<path d="M7.97836 10.1723C8.1034 10.1723 8.20476 10.0804 8.20476 9.96705C8.20476 9.85371 8.1034 9.76183 7.97836 9.76183C7.85332 9.76183 7.75195 9.85371 7.75195 9.96705C7.75195 10.0804 7.85332 10.1723 7.97836 10.1723Z" fill="#FFD250"/>
<path d="M5.26209 12.0193H2.99805V12.4297H5.26209V12.0193Z" fill="#C8414B"/>
<path d="M2.99805 13.6608L4.35661 13.2504V12.84L2.99805 13.2504V13.6608Z" fill="#C8414B"/>
</g>
<defs>
<clipPath id="clip0_72_3827">
<path d="M0 2C0 0.895432 0.895431 0 2 0H21.9998C23.1043 0 23.9998 0.895431 23.9998 2V21.9998C23.9998 23.1043 23.1043 23.9998 21.9998 23.9998H2C0.895432 23.9998 0 23.1043 0 21.9998V2Z" fill="white"/>
</clipPath>
</defs>
</svg>
