<svg width="24" height="24" viewBox="0 0 24 24" fill="none" xmlns="http://www.w3.org/2000/svg">
<g clip-path="url(#clip0_72_3900)">
<path d="M24.0017 6.10352e-05H0.00195312V23.9998H24.0017V6.10352e-05Z" fill="#F5F5F5"/>
<path d="M8.628 16.7325C7.16992 16.3997 5.87 15.6469 4.86426 14.6066V16.8315C5.96168 17.632 7.24211 18.1929 8.628 18.4494V16.7325Z" fill="#FFECD7"/>
<path d="M15.3691 16.7325C16.8272 16.3997 18.1271 15.6469 19.1329 14.6066V16.8315C18.0355 17.632 16.755 18.1929 15.3691 18.4494V16.7325Z" fill="#FFECD7"/>
<path d="M7.98521 11.9101C7.91499 11.9242 7.81669 12.1067 7.78861 12.4157C7.76054 12.7246 7.5639 14.0307 7.14259 13.8903C6.72128 13.7498 6.44041 13.1319 6.44041 13.1319L5.85059 13.9886C5.85059 13.9886 6.24382 13.8341 6.65106 14.0166C7.05836 14.1992 7.15665 14.2975 7.26901 14.1852C7.38137 14.0728 7.64818 13.7358 7.85883 13.7639L8.09756 12.0646L7.98521 11.9101Z" fill="#FFE15A"/>
<path d="M5.65432 14.7048C5.65432 14.7048 5.55602 15.5194 5.61218 15.6177C5.66833 15.7159 7.21318 16.0811 7.21318 16.0811C7.21318 16.0811 6.76379 16.4463 6.74973 16.6428C6.74973 16.6428 6.202 16.7411 6.00541 16.9097L5.27515 15.7019L5.24707 14.7048L5.65432 14.7048Z" fill="#FFE15A"/>
<path d="M5.16424 7.29675L5.17479 6.87544C5.17479 6.87544 4.67974 6.82275 4.61656 7.93926L4.4375 7.44421C4.4375 7.44421 4.06883 7.93926 4.29003 8.73973L4.19525 8.81347C4.19525 8.81347 3.71075 8.17096 3.41582 7.33889C3.41582 7.33889 2.92078 7.7286 3.5001 8.83456L2.78386 7.92876C2.78386 7.92876 2.42573 8.68714 3.5001 9.59294L2.48897 8.8767C2.48897 8.8767 2.42578 9.69827 3.40532 10.2249L2.42578 9.69827C2.42578 9.69827 2.45737 10.4882 3.59493 10.878L2.52056 10.6779C2.52056 10.6779 2.79262 11.3237 3.58705 11.498C3.42022 11.6842 3.26615 11.9345 3.22626 12.2578L4.02673 11.8154C4.02673 11.8154 3.64757 12.2051 3.75289 12.7423L4.98522 11.5099L4.8168 11.4346C5.74914 11.2598 5.554 11.1939 5.554 11.1939C5.554 11.1939 4.86584 9.42443 5.32928 8.2026C5.79273 6.98076 6.20003 6.81225 6.20003 6.75605C6.19993 6.69989 5.70137 6.63319 5.16424 7.29675Z" fill="#FFECD7"/>
<path d="M6.11574 8.00595C6.11574 8.00595 7.71674 9.69118 7.74481 9.84568C7.77289 10.0002 7.5763 9.97205 7.5763 9.97205C7.5763 9.97205 7.18307 9.46647 6.6494 9.26987C6.11574 9.07328 5.76465 8.45533 5.55399 8.3149C5.34329 8.17446 6.11574 8.00595 6.11574 8.00595Z" fill="#FFE15A"/>
<path d="M5.58132 8.41319C5.79197 8.48341 6.26948 8.38512 6.25542 7.94974C6.24136 7.51437 5.80604 7.34586 5.48302 7.44416C5.16001 7.54245 4.55613 7.99188 4.93529 8.86258C5.31446 9.73327 5.87621 10.0563 5.98856 10.8006C5.98856 10.8006 5.48298 10.8779 5.21617 10.8147C4.98686 10.7603 4.59822 10.5759 4.6825 10.0703C4.76678 9.56476 4.96337 9.26987 4.79486 8.989C4.62634 8.70813 4.09268 8.2166 4.09268 8.2166C4.09268 8.2166 2.94111 11.1658 5.01957 11.9382C5.01957 11.9382 4.03652 12.8791 3.54499 13.792L3.83993 13.8763C3.83993 13.8763 3.32033 14.438 3.02539 14.6487C3.02539 14.6487 3.99443 14.9857 4.9494 13.8903C4.9494 13.8903 5.18814 14.2835 5.24434 14.7048H5.65163C5.65163 14.7048 5.79207 14.0307 6.43809 13.469C7.08412 12.9072 7.73975 12.1062 7.67394 11.3765C7.59669 10.5198 6.95156 10.1344 6.28008 9.60343C5.37418 8.88719 5.58132 8.41319 5.58132 8.41319Z" fill="#FFF5E1"/>
<path d="M16.0206 11.9101C16.0908 11.9242 16.1891 12.1067 16.2172 12.4157C16.2452 12.7246 16.4419 14.0307 16.8632 13.8903C17.2845 13.7498 17.5654 13.1319 17.5654 13.1319L18.1552 13.9886C18.1552 13.9886 17.762 13.8341 17.3547 14.0166C16.9475 14.1992 16.8491 14.2975 16.7368 14.1852C16.6244 14.0728 16.3576 13.7358 16.1469 13.7639L15.9082 12.0646L16.0206 11.9101Z" fill="#FFE15A"/>
<path d="M18.3518 14.7048C18.3518 14.7048 18.4501 15.5194 18.394 15.6177C18.3378 15.7159 16.793 16.0811 16.793 16.0811C16.793 16.0811 17.2424 16.4463 17.2564 16.6428C17.2564 16.6428 17.8041 16.7411 18.0007 16.9097L18.731 15.7019L18.7591 14.7048L18.3518 14.7048Z" fill="#FFE15A"/>
<path d="M18.8395 7.29675L18.829 6.87544C18.829 6.87544 19.324 6.82275 19.3872 7.93926L19.5662 7.44421C19.5662 7.44421 19.9349 7.93926 19.7137 8.73973L19.8085 8.81347C19.8085 8.81347 20.293 8.17096 20.5879 7.33889C20.5879 7.33889 21.083 7.7286 20.5036 8.83456L21.2199 7.92876C21.2199 7.92876 21.578 8.68714 20.5036 9.59294L21.5148 8.8767C21.5148 8.8767 21.578 9.69827 20.5984 10.2249L21.578 9.69827C21.578 9.69827 21.5464 10.4882 20.4088 10.878L21.4832 10.6779C21.4832 10.6779 21.2111 11.3237 20.4167 11.498C20.5835 11.6842 20.7376 11.9345 20.7775 12.2578L19.977 11.8154C19.977 11.8154 20.3562 12.2051 20.2508 12.7423L19.0185 11.5099L19.1869 11.4346C18.2546 11.2598 18.4497 11.1939 18.4497 11.1939C18.4497 11.1939 19.1379 9.42443 18.6745 8.2026C18.211 6.98076 17.8037 6.81225 17.8037 6.75605C17.8038 6.69989 18.3024 6.63319 18.8395 7.29675Z" fill="#FFECD7"/>
<path d="M17.8877 8.00595C17.8877 8.00595 16.2867 9.69118 16.2586 9.84568C16.2305 10.0002 16.4271 9.97205 16.4271 9.97205C16.4271 9.97205 16.8203 9.46647 17.354 9.26987C17.8877 9.07328 18.2388 8.45533 18.4494 8.3149C18.6601 8.17446 17.8877 8.00595 17.8877 8.00595Z" fill="#FFE15A"/>
<path d="M18.4214 8.41319C18.2108 8.48341 17.7332 8.38512 17.7473 7.94974C17.7614 7.51437 18.1967 7.34586 18.5197 7.44416C18.8427 7.54245 19.4466 7.99188 19.0674 8.86258C18.6883 9.73327 18.1265 10.0563 18.0142 10.8006C18.0142 10.8006 18.5198 10.8779 18.7866 10.8147C19.0159 10.7603 19.4045 10.5759 19.3202 10.0703C19.236 9.56476 19.0394 9.26987 19.2079 8.989C19.3764 8.70813 19.9101 8.2166 19.9101 8.2166C19.9101 8.2166 21.0616 11.1658 18.9832 11.9382C18.9832 11.9382 19.9662 12.8791 20.4577 13.792L20.1628 13.8763C20.1628 13.8763 20.6824 14.438 20.9773 14.6487C20.9773 14.6487 20.0083 14.9857 19.0533 13.8903C19.0533 13.8903 18.8146 14.2835 18.7584 14.7048H18.3511C18.3511 14.7048 18.2107 14.0307 17.5646 13.469C16.9186 12.9072 16.263 12.1062 16.3288 11.3765C16.406 10.5198 17.0512 10.1344 17.7227 9.60343C18.6286 8.88719 18.4214 8.41319 18.4214 8.41319Z" fill="#FFF5E1"/>
<path d="M16.0442 5.56219H7.95508V7.19127H16.0442V5.56219Z" fill="#464655"/>
<path d="M11.9997 6.85439H7.95508C7.95508 6.85439 7.95508 11.236 7.95508 12.2472C7.95508 13.2583 8.62918 15.9548 11.9997 16.9659C15.3702 15.9548 16.0443 13.2584 16.0443 12.2472C16.0443 11.2361 16.0443 6.85439 16.0443 6.85439H11.9997Z" fill="#41479B"/>
<path d="M7.95508 12.2472C7.95508 12.4977 7.99694 12.8521 8.11047 13.2583H15.8889C16.0025 12.8521 16.0443 12.4977 16.0443 12.2472V10.2249H7.95508V12.2472Z" fill="#FF4B55"/>
<path d="M11.9992 11.7415L11.5273 12.9212L11.9992 12.6853L12.4711 12.9212L11.9992 11.7415Z" fill="#F5F5F5"/>
<path d="M11.9992 11.7415L12.4711 10.5618L11.9992 10.7978L11.5273 10.5618L11.9992 11.7415Z" fill="#F5F5F5"/>
<path d="M11.999 11.7415L10.8193 11.2697L11.0553 11.7415L10.8193 12.2134L11.999 11.7415Z" fill="#F5F5F5"/>
<path d="M11.999 11.7415L13.1787 12.2134L12.9427 11.7415L13.1787 11.2697L11.999 11.7415Z" fill="#F5F5F5"/>
<path d="M12.5296 8.04605C12.4509 8.05866 12.3817 8.06874 12.3192 8.1016C12.3902 7.92418 12.4402 7.75777 12.3962 7.6412C12.2885 7.35615 12.0815 7.40715 12.0017 7.19931V7.19139C12.0011 7.19293 12.0003 7.19378 11.9997 7.19537C11.9991 7.19382 11.9983 7.19298 11.9977 7.19139V7.19931C11.918 7.40715 11.711 7.35615 11.6032 7.6412C11.5592 7.75777 11.6092 7.92413 11.6802 8.1016C11.6177 8.06878 11.5485 8.05866 11.4698 8.04605C11.3092 8.02036 11.0649 8.18742 11.1164 8.50875C11.1678 8.83007 11.5405 8.85576 11.5405 8.85576C11.4891 8.80434 11.4441 8.72081 11.4698 8.63086C11.4955 8.54091 11.6819 8.4638 11.7783 8.76581C11.8747 9.06782 11.5469 9.49841 11.5469 9.49841C11.6591 9.49251 11.7411 9.45754 11.8002 9.4221C11.7224 9.67574 11.9769 9.87205 11.9977 9.88742V9.89042L11.9997 9.88892C11.9999 9.88906 12.0017 9.89042 12.0017 9.89042V9.88742C12.0225 9.87205 12.277 9.67574 12.1992 9.42219C12.2584 9.45763 12.3403 9.49255 12.4525 9.49846C12.4525 9.49846 12.1247 9.06792 12.2211 8.76586C12.3175 8.46384 12.5039 8.54095 12.5296 8.6309C12.5553 8.72086 12.5104 8.80443 12.4589 8.85581C12.4589 8.85581 12.8317 8.83012 12.8831 8.5088C12.9344 8.18742 12.6902 8.02032 12.5296 8.04605Z" fill="#FFE15A"/>
<path d="M15.01 8.04605C14.9313 8.05866 14.8622 8.06874 14.7997 8.1016C14.8706 7.92418 14.9207 7.75777 14.8766 7.6412C14.769 7.35615 14.5619 7.40715 14.4821 7.19931V7.19139C14.4816 7.19293 14.4807 7.19378 14.4802 7.19537C14.4796 7.19382 14.4787 7.19298 14.4782 7.19139V7.19931C14.3985 7.40715 14.1914 7.35615 14.0837 7.6412C14.0396 7.75777 14.0897 7.92413 14.1607 8.1016C14.0982 8.06878 14.029 8.05866 13.9503 8.04605C13.7896 8.02036 13.5454 8.18742 13.5968 8.50875C13.6482 8.83007 14.0209 8.85576 14.0209 8.85576C13.9695 8.80434 13.9246 8.72081 13.9503 8.63086C13.9759 8.54091 14.1623 8.4638 14.2587 8.76581C14.3552 9.06782 14.0274 9.49841 14.0274 9.49841C14.1396 9.49251 14.2215 9.45754 14.2807 9.4221C14.2029 9.67574 14.4574 9.87205 14.4783 9.88742V9.89042L14.4802 9.88892C14.4805 9.88906 14.4822 9.89042 14.4822 9.89042V9.88742C14.503 9.87205 14.7575 9.67574 14.6797 9.42219C14.7389 9.45763 14.8208 9.49255 14.933 9.49846C14.933 9.49846 14.6052 9.06792 14.7017 8.76586C14.7981 8.4638 14.9844 8.54095 15.0101 8.6309C15.0358 8.72086 14.9909 8.80443 14.9395 8.85581C14.9395 8.85581 15.3122 8.83012 15.3636 8.5088C15.4149 8.18742 15.1707 8.02032 15.01 8.04605Z" fill="#FFE15A"/>
<path d="M10.0491 8.04605C9.97041 8.05866 9.90122 8.06874 9.83873 8.1016C9.9097 7.92418 9.95976 7.75777 9.9157 7.6412C9.80803 7.35615 9.60099 7.40715 9.52121 7.19931V7.19139C9.52064 7.19293 9.5198 7.19378 9.51924 7.19537C9.51868 7.19382 9.51778 7.19298 9.51727 7.19139V7.19931C9.43754 7.40715 9.23049 7.35615 9.12277 7.6412C9.07871 7.75777 9.12877 7.92413 9.19974 8.1016C9.13726 8.06878 9.06802 8.05866 8.98932 8.04605C8.82868 8.02036 8.58447 8.18742 8.63589 8.50875C8.68731 8.83007 9.06001 8.85576 9.06001 8.85576C9.00859 8.80434 8.96363 8.72081 8.98932 8.63086C9.01501 8.54091 9.20138 8.4638 9.2978 8.76581C9.39422 9.06782 9.06648 9.49841 9.06648 9.49841C9.17865 9.49251 9.26058 9.45754 9.31974 9.4221C9.24193 9.67574 9.49646 9.87205 9.51727 9.88742V9.89042L9.51924 9.88892C9.51947 9.88906 9.52121 9.89042 9.52121 9.89042V9.88742C9.54202 9.87205 9.7965 9.67574 9.71874 9.42219C9.77789 9.45763 9.85983 9.49255 9.972 9.49846C9.972 9.49846 9.64425 9.06792 9.74067 8.76586C9.83709 8.4638 10.0234 8.54095 10.0492 8.6309C10.0748 8.72086 10.0299 8.80443 9.97847 8.85581C9.97847 8.85581 10.3512 8.83012 10.4026 8.5088C10.454 8.18747 10.2097 8.02032 10.0491 8.04605Z" fill="#FFE15A"/>
<path d="M12.7911 14.9907C12.7911 14.9907 12.6109 14.9623 12.5965 15.1439C12.5965 15.1439 12.5965 15.1648 12.5956 15.1935C12.5734 15.183 12.5491 15.1761 12.5228 15.1761C12.4276 15.1761 12.3504 15.2533 12.3504 15.3486C12.3504 15.4438 12.4276 15.521 12.5228 15.521C12.5304 15.521 12.5368 15.5177 12.5442 15.5167C12.5185 15.5989 12.4777 15.6738 12.4204 15.7279H12.1902C12.1296 15.6608 12.1113 15.5296 12.1073 15.4346C12.111 15.4348 12.1138 15.4374 12.1177 15.4374C12.1958 15.4374 12.2592 15.374 12.2592 15.2959C12.2592 15.2187 12.1972 15.1564 12.1204 15.1549C12.1326 15.134 12.1416 15.111 12.1416 15.085C12.1416 15.0068 12.0782 14.9435 12 14.9435C11.9219 14.9435 11.8585 15.0068 11.8585 15.085C11.8585 15.1109 11.8674 15.134 11.8797 15.1549C11.8028 15.1565 11.7409 15.2187 11.7409 15.2959C11.7409 15.374 11.8043 15.4374 11.8824 15.4374C11.8862 15.4374 11.889 15.4348 11.8927 15.4346C11.8889 15.5296 11.8704 15.6608 11.8099 15.7279H11.5797C11.5224 15.6738 11.4816 15.5989 11.4559 15.5167C11.4632 15.5177 11.4697 15.521 11.4772 15.521C11.5725 15.521 11.6497 15.4438 11.6497 15.3486C11.6497 15.2533 11.5725 15.1761 11.4772 15.1761C11.451 15.1761 11.4267 15.183 11.4045 15.1935C11.4036 15.1647 11.4036 15.1439 11.4036 15.1439C11.3892 14.9623 11.209 14.9907 11.209 14.9907C11.321 15.3327 11.2915 15.7279 11.2915 15.7279V16.0755H12.7066V15.7286L12.7086 15.7279C12.7086 15.7279 12.6791 15.3327 12.7911 14.9907Z" fill="#FFE15A"/>
<path d="M11.1368 13.6425C11.1368 13.6425 10.9566 13.6141 10.9422 13.7957C10.9422 13.7957 10.9422 13.8166 10.9413 13.8453C10.9191 13.8348 10.8948 13.8279 10.8685 13.8279C10.7733 13.8279 10.6961 13.9051 10.6961 14.0004C10.6961 14.0956 10.7733 14.1728 10.8685 14.1728C10.8761 14.1728 10.8825 14.1695 10.8899 14.1685C10.8642 14.2507 10.8234 14.3256 10.7661 14.3797H10.5359C10.4754 14.3126 10.457 14.1814 10.453 14.0864C10.4567 14.0866 10.4596 14.0892 10.4634 14.0892C10.5415 14.0892 10.6049 14.0258 10.6049 13.9477C10.6049 13.8705 10.5429 13.8082 10.4661 13.8067C10.4784 13.7858 10.4873 13.7628 10.4873 13.7368C10.4873 13.6586 10.4239 13.5953 10.3457 13.5953C10.2676 13.5953 10.2042 13.6586 10.2042 13.7368C10.2042 13.7627 10.2131 13.7858 10.2254 13.8067C10.1485 13.8083 10.0866 13.8705 10.0866 13.9477C10.0866 14.0258 10.15 14.0892 10.2281 14.0892C10.2319 14.0892 10.2347 14.0866 10.2384 14.0864C10.2346 14.1814 10.2161 14.3126 10.1556 14.3797H9.92537C9.86809 14.3256 9.82726 14.2507 9.80162 14.1685C9.80893 14.1695 9.8154 14.1728 9.82295 14.1728C9.9182 14.1728 9.9954 14.0956 9.9954 14.0004C9.9954 13.9051 9.9182 13.8279 9.82295 13.8279C9.7967 13.8279 9.77242 13.8348 9.75015 13.8453C9.74926 13.8165 9.74926 13.7957 9.74926 13.7957C9.73492 13.6141 9.55469 13.6425 9.55469 13.6425C9.66672 13.9845 9.63723 14.3797 9.63723 14.3797V14.7273H11.0523V14.3804L11.0543 14.3797C11.0543 14.3797 11.0248 13.9845 11.1368 13.6425Z" fill="#FFE15A"/>
<path d="M14.4444 13.6425C14.4444 13.6425 14.2642 13.6141 14.2498 13.7957C14.2498 13.7957 14.2498 13.8166 14.2489 13.8453C14.2267 13.8348 14.2024 13.8279 14.1762 13.8279C14.0809 13.8279 14.0037 13.9051 14.0037 14.0004C14.0037 14.0956 14.0809 14.1728 14.1762 14.1728C14.1837 14.1728 14.1902 14.1695 14.1975 14.1685C14.1718 14.2507 14.131 14.3256 14.0737 14.3797H13.8435C13.783 14.3126 13.7646 14.1814 13.7607 14.0864C13.7644 14.0866 13.7672 14.0892 13.771 14.0892C13.8492 14.0892 13.9125 14.0258 13.9125 13.9477C13.9125 13.8705 13.8506 13.8082 13.7737 13.8067C13.786 13.7858 13.7949 13.7628 13.7949 13.7368C13.7949 13.6586 13.7315 13.5953 13.6534 13.5953C13.5752 13.5953 13.5118 13.6586 13.5118 13.7368C13.5118 13.7627 13.5208 13.7858 13.533 13.8067C13.4562 13.8083 13.3942 13.8705 13.3942 13.9477C13.3942 14.0258 13.4576 14.0892 13.5358 14.0892C13.5395 14.0892 13.5424 14.0866 13.5461 14.0864C13.5422 14.1814 13.5238 14.3126 13.4632 14.3797H13.233C13.1757 14.3256 13.1349 14.2507 13.1092 14.1685C13.1166 14.1695 13.123 14.1728 13.1306 14.1728C13.2258 14.1728 13.303 14.0956 13.303 14.0004C13.303 13.9051 13.2258 13.8279 13.1306 13.8279C13.1043 13.8279 13.08 13.8348 13.0578 13.8453C13.0569 13.8165 13.0569 13.7957 13.0569 13.7957C13.0425 13.6141 12.8623 13.6425 12.8623 13.6425C12.9743 13.9845 12.9449 14.3797 12.9449 14.3797V14.7273H14.3599V14.3804L14.3619 14.3797C14.3619 14.3797 14.3323 13.9845 14.4444 13.6425Z" fill="#FFE15A"/>
<path d="M17.2344 4.7876C17.0404 4.71058 16.8451 4.63802 16.6487 4.56986C16.5938 4.72914 16.5389 4.88838 16.4839 5.04761C16.3892 5.0148 16.2942 4.98288 16.199 4.95217C16.2505 4.79172 16.3019 4.63132 16.3533 4.47086C16.1558 4.40711 15.9573 4.34787 15.7579 4.29312C15.7135 4.45563 15.6691 4.61814 15.6247 4.78071C15.5285 4.75427 15.4321 4.72896 15.3355 4.70463C15.3764 4.54113 15.4172 4.37768 15.4581 4.21423C15.2578 4.16388 15.0567 4.11795 14.8549 4.07641C14.7874 4.40655 14.7199 4.73678 14.6525 5.06697C14.7774 5.0927 14.9022 5.12017 15.0266 5.14956C15.0009 5.25892 14.9752 5.36828 14.9496 5.47768C14.2222 5.30593 13.4836 5.19864 12.7421 5.15575C12.7486 5.04358 12.755 4.93145 12.7614 4.81924C12.8882 4.82655 13.015 4.83578 13.1416 4.84675C13.1706 4.51104 13.1997 4.17518 13.2287 3.83937C13.0243 3.8216 12.8196 3.80825 12.6148 3.79939C12.6076 3.96776 12.6003 4.13609 12.593 4.30446C12.4943 4.30019 12.3954 4.29696 12.2966 4.29485C12.3002 4.12638 12.3039 3.95782 12.3075 3.7894C12.1026 3.78495 11.8975 3.78495 11.6926 3.7894C11.6962 3.95782 11.6998 4.12638 11.7035 4.29485C11.6046 4.29701 11.5058 4.30019 11.407 4.30446C11.3998 4.13609 11.3925 3.96776 11.3853 3.79939C11.1804 3.80825 10.9757 3.82156 10.7713 3.83937C10.8004 4.17513 10.8294 4.51094 10.8584 4.84675C10.985 4.83578 11.1117 4.82655 11.2386 4.81924C11.245 4.93145 11.2515 5.04358 11.2579 5.15575C10.5164 5.19864 9.77778 5.30598 9.05043 5.47768C9.02474 5.36832 8.9991 5.25897 8.97346 5.14956C9.09787 5.12012 9.22255 5.09266 9.34757 5.06697C9.28012 4.73678 9.21262 4.40655 9.14516 4.07641C8.94337 4.1179 8.74228 4.16379 8.54194 4.21423C8.58281 4.37768 8.62364 4.54118 8.66451 4.70463C8.5679 4.72896 8.47153 4.75427 8.37534 4.78071C8.33095 4.61814 8.28656 4.45563 8.24213 4.29312C8.04268 4.34796 7.84416 4.40721 7.64673 4.47086C7.69815 4.63132 7.74962 4.79172 7.80104 4.95217C7.70579 4.98292 7.61082 5.01475 7.51609 5.04761C7.46115 4.88833 7.40621 4.7291 7.35128 4.56986C7.15487 4.63802 6.95964 4.71063 6.76562 4.7876C6.88933 5.10095 7.01303 5.4144 7.13673 5.72771C7.25692 5.68004 7.37757 5.6341 7.49874 5.59009C7.65141 6.01261 7.80408 6.435 7.95671 6.85758C8.28324 6.73884 8.61365 6.63497 8.94703 6.54605C9.05817 6.51642 9.16959 6.4883 9.28133 6.46195C9.95173 6.30371 10.6326 6.20471 11.316 6.16524C11.7716 6.13885 12.2284 6.13894 12.6841 6.16524C13.3675 6.20475 14.0483 6.30371 14.7187 6.46195C14.8305 6.48839 14.9419 6.51633 15.053 6.54605C15.3864 6.63506 15.7168 6.73894 16.0434 6.85758C16.196 6.435 16.3487 6.01261 16.5013 5.59009C16.6225 5.6341 16.7432 5.68004 16.8633 5.72771C16.987 5.41436 17.1107 5.10095 17.2344 4.7876Z" fill="#FFE15A"/>
<path d="M11.9998 20.842C14.0104 20.842 15.872 20.1963 17.3926 19.1045V16.8985C16.0168 18.2916 14.1077 19.1568 11.9998 19.1568C9.86261 19.1568 7.93053 18.2667 6.55078 16.8396V19.0645C8.08142 20.1809 9.96437 20.842 11.9998 20.842Z" fill="#FFE1CD"/>
</g>
<defs>
<clipPath id="clip0_72_3900">
<path d="M0 2C0 0.895432 0.895431 0 2 0H21.9998C23.1043 0 23.9998 0.895431 23.9998 2V21.9998C23.9998 23.1043 23.1043 23.9998 21.9998 23.9998H2C0.895432 23.9998 0 23.1043 0 21.9998V2Z" fill="white"/>
</clipPath>
</defs>
</svg>
