<svg width="24" height="24" viewBox="0 0 24 24" fill="none" xmlns="http://www.w3.org/2000/svg">
<g clip-path="url(#clip0_72_3934)">
<path d="M24.0007 6.10352e-05H0.000976562V23.9998H24.0007V6.10352e-05Z" fill="#3CC8FF"/>
<path d="M12.001 5.37934L6.20801 18.6206H17.7941L12.001 5.37934Z" fill="#464655"/>
<path d="M12.001 7.44407L16.5287 17.793H7.47339L12.001 7.44407ZM12.001 5.37934L6.20801 18.6206H17.7941L12.001 5.37934Z" fill="#F5F5F5"/>
<path d="M6.20801 18.6205L12.001 11.9999L17.7941 18.6205H6.20801Z" fill="#FFE15A"/>
</g>
<defs>
<clipPath id="clip0_72_3934">
<path d="M0 2C0 0.895432 0.895431 0 2 0H21.9998C23.1043 0 23.9998 0.895431 23.9998 2V21.9998C23.9998 23.1043 23.1043 23.9998 21.9998 23.9998H2C0.895432 23.9998 0 23.1043 0 21.9998V2Z" fill="white"/>
</clipPath>
</defs>
</svg>
