<svg width="24" height="24" viewBox="0 0 24 24" fill="none" xmlns="http://www.w3.org/2000/svg">
<g clip-path="url(#clip0_72_3939)">
<path d="M18.621 6.10352e-05H5.37988V23.9998H18.621V6.10352e-05Z" fill="#FFE15A"/>
<path d="M24.0004 6.10352e-05H18.6211V23.9998H24.0004V6.10352e-05Z" fill="#73AF00"/>
<path d="M5.3803 6.10352e-05H0.000976562V23.9998H5.3803V6.10352e-05Z" fill="#4173CD"/>
<path d="M8.6377 11.5943L10.141 14.6009L11.6443 11.5943L10.141 8.58772L8.6377 11.5943Z" fill="#73AF00"/>
<path d="M12.3623 11.5943L13.8656 14.6009L15.3689 11.5943L13.8656 8.58772L12.3623 11.5943Z" fill="#73AF00"/>
<path d="M10.5 15.2089L12.0033 18.2154L13.5066 15.2089L12.0033 12.2023L10.5 15.2089Z" fill="#73AF00"/>
</g>
<defs>
<clipPath id="clip0_72_3939">
<path d="M0 2C0 0.895432 0.895431 0 2 0H21.9998C23.1043 0 23.9998 0.895431 23.9998 2V21.9998C23.9998 23.1043 23.1043 23.9998 21.9998 23.9998H2C0.895432 23.9998 0 23.1043 0 21.9998V2Z" fill="white"/>
</clipPath>
</defs>
</svg>
