<svg width="24" height="24" viewBox="0 0 24 24" fill="none" xmlns="http://www.w3.org/2000/svg">
<g clip-path="url(#clip0_72_3959)">
<path d="M24.0007 19.5787H0.000976562V23.9999H24.0007V19.5787Z" fill="#4173CD"/>
<path d="M24.0007 0.00012207H0.000976562V4.42133H24.0007V0.00012207Z" fill="#4173CD"/>
<path d="M23.9998 4.42127H0V19.5791H23.9998V4.42127Z" fill="#FF4B55"/>
<path d="M24.0007 3.7895H0.000976562V5.05263H24.0007V3.7895Z" fill="#FFE15A"/>
<path d="M24.0007 18.9473H0.000976562V20.2104H24.0007V18.9473Z" fill="#FFE15A"/>
<path d="M21.2053 12.4123H2.76992C2.65859 12.4123 2.56836 12.322 2.56836 12.2107V12.0905C2.56836 11.9792 2.65859 11.889 2.76992 11.889H21.2053C21.3166 11.889 21.4068 11.9792 21.4068 12.0905V12.2107C21.4068 12.322 21.3165 12.4123 21.2053 12.4123Z" fill="#FFE15A"/>
<path d="M17.6123 11.3656L18.5281 10.9731L19.4438 11.3656L18.5281 11.758L17.6123 11.3656Z" fill="#F5F5F5"/>
<path d="M17.8379 11.1984H4.39958C4.30723 11.1984 4.23242 11.2732 4.23242 11.3655C4.23242 11.4578 4.30728 11.5327 4.39958 11.5327H17.8379C17.9303 11.5327 18.0051 11.4578 18.0051 11.3655C18.0051 11.2732 17.9302 11.1984 17.8379 11.1984Z" fill="#FFE15A"/>
<path d="M18.5645 10.4498L19.4802 10.0573L20.396 10.4498L19.4802 10.8423L18.5645 10.4498Z" fill="#F5F5F5"/>
<path d="M18.7901 10.2826H5.35172C5.25938 10.2826 5.18457 10.3575 5.18457 10.4498C5.18457 10.5421 5.25943 10.617 5.35172 10.617H18.7901C18.8824 10.617 18.9572 10.5421 18.9572 10.4498C18.9573 10.3575 18.8824 10.2826 18.7901 10.2826Z" fill="#FFE15A"/>
<path d="M11.9871 8.7491C9.66321 8.7491 7.6357 10.0651 6.5498 12.0197C7.6357 13.9742 9.66321 15.2903 11.9871 15.2903C14.311 15.2903 16.3385 13.9742 17.4244 12.0197C16.3385 10.0651 14.311 8.7491 11.9871 8.7491Z" fill="#F5F5F5"/>
<path d="M6.5498 12.0197C7.6357 13.9742 9.66321 15.2903 11.9871 15.2903C12.3752 15.2903 12.7539 15.2504 13.1225 15.1802C12.8411 14.5626 11.8515 14.5636 11.7908 14.3309C11.7255 14.0801 12.5976 14.1347 12.7502 13.9275C12.9029 13.7204 11.9217 13.6331 11.8781 13.4261C11.8345 13.2189 12.2706 13.0772 12.3469 12.7501C12.4232 12.4231 12.5976 12.325 12.7284 12.1287C12.8593 11.9325 12.5104 11.8671 12.4232 11.213C12.336 10.5588 11.8236 10.4716 11.5728 9.93746C11.3221 9.40328 11.7255 9.0108 11.9871 8.74914C9.66326 8.7491 7.6357 10.0651 6.5498 12.0197Z" fill="#464655"/>
<path d="M8.84661 10.8422H8.58496V11.8888H8.84661V10.8422Z" fill="#F5F5F5"/>
<path d="M9.37005 10.8422H9.1084V11.8888H9.37005V10.8422Z" fill="#F5F5F5"/>
<path d="M9.89251 10.8422H9.63086V11.8888H9.89251V10.8422Z" fill="#F5F5F5"/>
<path d="M10.416 10.8422H10.1543V11.8888H10.416V10.8422Z" fill="#F5F5F5"/>
<path d="M10.9404 10.8422H10.6787V11.8888H10.9404V10.8422Z" fill="#F5F5F5"/>
<path d="M11.4628 10.8422H11.2012V11.8888H11.4628V10.8422Z" fill="#F5F5F5"/>
<path d="M8.84661 12.4121H8.58496V13.4586H8.84661V12.4121Z" fill="#F5F5F5"/>
<path d="M9.37005 12.4121H9.1084V13.4586H9.37005V12.4121Z" fill="#F5F5F5"/>
<path d="M9.89251 12.4121H9.63086V13.4586H9.89251V12.4121Z" fill="#F5F5F5"/>
<path d="M10.416 12.4121H10.1543V13.4586H10.416V12.4121Z" fill="#F5F5F5"/>
<path d="M10.9404 12.4121H10.6787V13.4586H10.9404V12.4121Z" fill="#F5F5F5"/>
<path d="M11.4628 12.4121H11.2012V13.4586H11.4628V12.4121Z" fill="#F5F5F5"/>
<path d="M12.7734 10.8422H12.5117V11.8888H12.7734V10.8422Z" fill="#464655"/>
<path d="M13.2968 10.8422H13.0352V11.8888H13.2968V10.8422Z" fill="#464655"/>
<path d="M13.8202 10.8422H13.5586V11.8888H13.8202V10.8422Z" fill="#464655"/>
<path d="M14.3427 10.8422H14.0811V11.8888H14.3427V10.8422Z" fill="#464655"/>
<path d="M14.8671 10.8422H14.6055V11.8888H14.8671V10.8422Z" fill="#464655"/>
<path d="M15.3896 10.8422H15.1279V11.8888H15.3896V10.8422Z" fill="#464655"/>
<path d="M12.7734 12.4121H12.5117V13.4586H12.7734V12.4121Z" fill="#464655"/>
<path d="M13.2968 12.4121H13.0352V13.4586H13.2968V12.4121Z" fill="#464655"/>
<path d="M13.8202 12.4121H13.5586V13.4586H13.8202V12.4121Z" fill="#464655"/>
<path d="M14.3427 12.4121H14.0811V13.4586H14.3427V12.4121Z" fill="#464655"/>
<path d="M14.8671 12.4121H14.6055V13.4586H14.8671V12.4121Z" fill="#464655"/>
<path d="M15.3896 12.4121H15.1279V13.4586H15.3896V12.4121Z" fill="#464655"/>
<path d="M20.0605 11.848C19.8509 12.3348 19.2546 12.392 19.585 13.6328L19.7542 13.461C19.7542 13.461 19.9315 13.9287 20.3586 14.2437C20.3586 14.2437 20.8824 13.8047 20.9227 13.1079L21.1403 13.2033C21.1403 13.2033 21.0355 11.9339 20.0605 11.848Z" fill="#245DBD"/>
<path d="M20.8385 12.8454C20.8217 12.8454 20.8051 12.8377 20.7925 12.8225C20.5873 12.5749 20.3259 12.4956 20.3234 12.4947C20.2889 12.4845 20.2678 12.4431 20.2763 12.4022C20.2849 12.3616 20.3199 12.3363 20.3543 12.3464C20.3664 12.35 20.6528 12.4362 20.8845 12.7157C20.9094 12.7455 20.909 12.7941 20.8837 12.8236C20.8711 12.8383 20.8548 12.8454 20.8385 12.8454Z" fill="#FF4B55"/>
<path d="M20.6906 13.4229C20.6713 13.4229 20.6522 13.4128 20.6395 13.3931C20.4873 13.1586 20.3146 13.031 20.3128 13.0298C20.2825 13.0077 20.2732 12.9606 20.2918 12.9245C20.3105 12.8887 20.3502 12.8777 20.3806 12.8998C20.3885 12.9054 20.5752 13.0438 20.7417 13.3C20.7634 13.3334 20.7581 13.3814 20.7298 13.4071C20.7182 13.4178 20.7043 13.4229 20.6906 13.4229Z" fill="#FF4B55"/>
<path d="M20.3527 14.0657C20.349 14.0657 20.3453 14.0654 20.3416 14.0645C20.3066 14.0573 20.2829 14.018 20.289 13.9765C20.3144 13.8017 20.2931 13.5151 20.2582 13.3672C20.2487 13.3266 20.2687 13.2845 20.303 13.2729C20.3376 13.2619 20.3729 13.2854 20.3824 13.326C20.4218 13.493 20.4449 13.8047 20.4162 14.0022C20.4107 14.0394 20.3834 14.0657 20.3527 14.0657Z" fill="#FF4B55"/>
<path d="M19.8995 13.3605C19.8811 13.3605 19.8628 13.3513 19.8501 13.3334C19.8272 13.3012 19.8306 13.2529 19.8578 13.2257C19.8595 13.2242 20.024 13.0572 20.067 12.826C20.0747 12.7849 20.1088 12.7589 20.1438 12.7679C20.1785 12.7768 20.2006 12.8177 20.1929 12.8588C20.1403 13.1416 19.949 13.3346 19.9408 13.3426C19.9287 13.3546 19.9141 13.3605 19.8995 13.3605Z" fill="#FF4B55"/>
<path d="M19.7199 12.872C19.6982 12.872 19.6771 12.8592 19.6648 12.8356C19.6462 12.7998 19.6557 12.7527 19.686 12.7306C19.6884 12.7289 19.9222 12.5567 19.9947 12.3689C20.0094 12.3301 20.0479 12.3131 20.0802 12.331C20.1125 12.3486 20.1268 12.3939 20.1121 12.4321C20.0231 12.6627 19.7644 12.8527 19.7535 12.8607C19.7429 12.8684 19.7314 12.872 19.7199 12.872Z" fill="#FF4B55"/>
<path d="M3.72437 12.0118C3.5492 12.4188 3.05054 12.4667 3.32682 13.5042L3.46834 13.3606C3.46834 13.3606 3.61655 13.7516 3.97369 14.015C3.97369 14.015 4.41169 13.6479 4.44534 13.0653L4.62726 13.1451C4.62726 13.1451 4.5397 12.0837 3.72437 12.0118Z" fill="#245DBD"/>
<path d="M4.37014 12.8458C4.35612 12.8458 4.34225 12.8393 4.3317 12.8266C4.16009 12.6196 3.94152 12.5533 3.93941 12.5525C3.91058 12.544 3.89286 12.5093 3.90003 12.4752C3.9072 12.4413 3.93645 12.4201 3.96519 12.4286C3.97531 12.4316 4.21479 12.5037 4.40853 12.7373C4.42939 12.7623 4.42906 12.8029 4.40792 12.8276C4.39742 12.8398 4.38382 12.8458 4.37014 12.8458Z" fill="#FF4B55"/>
<path d="M4.24672 13.3287C4.2306 13.3287 4.21461 13.3202 4.20397 13.3037C4.07671 13.1077 3.93233 13.001 3.93088 12.9999C3.90552 12.9815 3.89769 12.9421 3.9133 12.9119C3.92901 12.882 3.96215 12.8728 3.98751 12.8912C3.99416 12.8959 4.15025 13.0116 4.28947 13.2259C4.30757 13.2538 4.30316 13.294 4.27958 13.3154C4.26978 13.3244 4.25821 13.3287 4.24672 13.3287Z" fill="#FF4B55"/>
<path d="M3.9638 13.8661C3.96075 13.8661 3.95771 13.8659 3.95452 13.8651C3.92527 13.8591 3.90544 13.8262 3.9105 13.7915C3.93179 13.6454 3.91397 13.4057 3.88482 13.282C3.8768 13.2481 3.89354 13.2129 3.92218 13.2032C3.95115 13.194 3.98063 13.2137 3.9886 13.2476C4.02155 13.3873 4.04082 13.6479 4.01682 13.813C4.01232 13.8442 3.98949 13.8661 3.9638 13.8661Z" fill="#FF4B55"/>
<path d="M3.5852 13.2765C3.56982 13.2765 3.55454 13.2688 3.54395 13.2538C3.52477 13.2269 3.52763 13.1865 3.55037 13.1638C3.55173 13.1625 3.68935 13.0229 3.72526 12.8296C3.73168 12.7952 3.76023 12.7735 3.78947 12.7809C3.81854 12.7884 3.83696 12.8226 3.83054 12.857C3.78652 13.0934 3.62659 13.2548 3.61974 13.2615C3.60962 13.2715 3.59738 13.2765 3.5852 13.2765Z" fill="#FF4B55"/>
<path d="M3.43487 12.868C3.41678 12.868 3.39906 12.8572 3.38884 12.8375C3.37328 12.8076 3.38115 12.7682 3.40651 12.7498C3.40853 12.7483 3.60404 12.6043 3.66465 12.4472C3.67698 12.4148 3.70918 12.4006 3.73614 12.4155C3.76318 12.4303 3.77509 12.4682 3.76276 12.5001C3.68832 12.6929 3.47209 12.8517 3.4629 12.8585C3.45414 12.865 3.44444 12.868 3.43487 12.868Z" fill="#FF4B55"/>
</g>
<defs>
<clipPath id="clip0_72_3959">
<path d="M0 2C0 0.895432 0.895431 0 2 0H21.9998C23.1043 0 23.9998 0.895431 23.9998 2V21.9998C23.9998 23.1043 23.1043 23.9998 21.9998 23.9998H2C0.895432 23.9998 0 23.1043 0 21.9998V2Z" fill="white"/>
</clipPath>
</defs>
</svg>
