<svg width="24" height="24" viewBox="0 0 24 24" fill="none" xmlns="http://www.w3.org/2000/svg">
<g clip-path="url(#clip0_72_4027)">
<path d="M23.9988 6.10352e-05H-0.000976562V23.9998H23.9988V6.10352e-05Z" fill="#FF4B55"/>
<path d="M0.174803 6.10352e-05H11.8231C11.9202 6.10352e-05 11.9989 0.0787634 11.9989 0.175841V11.5722C11.9989 11.8085 11.8074 11.9999 11.5712 11.9999H0.174803C0.0777258 11.9999 -0.000976562 11.9212 -0.000976562 11.8242V0.175841C-0.000976562 0.0787634 0.0777258 6.10352e-05 0.174803 6.10352e-05Z" fill="#41479B"/>
<path d="M4.14057 5.99991C4.14057 5.48607 4.34879 5.02089 4.6854 4.68405L3.12569 4.2379C3.03518 4.21198 2.97026 4.32443 3.03794 4.38986L4.20507 5.51837L2.63004 5.91212C2.53868 5.93494 2.53868 6.06479 2.63004 6.08761L4.20507 6.48136L3.03794 7.60986C2.97026 7.6753 3.03518 7.78775 3.12569 7.76183L4.6854 7.31568C4.34879 6.97893 4.14057 6.51375 4.14057 5.99991Z" fill="#F5F5F5"/>
<path d="M4.68629 4.68325C5.02313 4.34664 5.48831 4.13843 6.00215 4.13843C6.51599 4.13843 6.98117 4.34664 7.31802 4.68325L7.76417 3.12355C7.79009 3.03303 7.67764 2.96811 7.6122 3.0358L6.48369 4.20293L6.08995 2.62789C6.06712 2.53654 5.93728 2.53654 5.91445 2.62789L5.5207 4.20293L4.39211 3.03575C4.32667 2.96806 4.21422 3.03298 4.24014 3.1235L4.68629 4.68325Z" fill="#F5F5F5"/>
<path d="M7.31802 7.31662C6.98117 7.65322 6.51599 7.86144 6.00215 7.86144C5.48836 7.86144 5.02313 7.65322 4.68629 7.31662L4.24014 8.87632C4.21422 8.96683 4.32667 9.03176 4.39211 8.96407L5.52061 7.79694L5.91436 9.37197C5.93718 9.46333 6.06703 9.46333 6.08986 9.37197L6.4836 7.79694L7.61211 8.96407C7.67754 9.03176 7.78999 8.96683 7.76407 8.87632L7.31802 7.31662Z" fill="#F5F5F5"/>
<path d="M9.37371 5.91216L7.79868 5.51842L8.96581 4.38991C9.0335 4.32447 8.96858 4.21202 8.87806 4.23794L7.31836 4.6841C7.65497 5.02094 7.86318 5.48612 7.86318 5.99996C7.86318 6.51375 7.65497 6.97898 7.31836 7.31582L8.87806 7.76197C8.96858 7.78785 9.0335 7.67544 8.96581 7.61L7.79868 6.4815L9.37371 6.08775C9.46507 6.06483 9.46507 5.93499 9.37371 5.91216Z" fill="#F5F5F5"/>
<path d="M6.00273 7.48213C6.82134 7.48213 7.48495 6.81852 7.48495 5.99991C7.48495 5.18131 6.82134 4.51769 6.00273 4.51769C5.18412 4.51769 4.52051 5.18131 4.52051 5.99991C4.52051 6.81852 5.18412 7.48213 6.00273 7.48213Z" fill="#F5F5F5"/>
</g>
<defs>
<clipPath id="clip0_72_4027">
<path d="M0 2C0 0.895432 0.895431 0 2 0H21.9998C23.1043 0 23.9998 0.895431 23.9998 2V21.9998C23.9998 23.1043 23.1043 23.9998 21.9998 23.9998H2C0.895432 23.9998 0 23.1043 0 21.9998V2Z" fill="white"/>
</clipPath>
</defs>
</svg>
