<svg width="24" height="24" viewBox="0 0 24 24" fill="none" xmlns="http://www.w3.org/2000/svg">
<g clip-path="url(#clip0_72_4036)">
<path d="M23.9988 15.9998H-0.000976562V23.9998H23.9988V15.9998Z" fill="#73AF00"/>
<path d="M23.9988 6.10352e-05H-0.000976562V8.00014H23.9988V6.10352e-05Z" fill="#FF4B55"/>
<path d="M23.9988 8.00014H-0.000976562V16.0002H23.9988V8.00014Z" fill="#F5F5F5"/>
<path d="M9.92516 14.2562C10.1878 14.1238 10.3414 13.9058 10.4235 13.7484C10.894 14.0557 11.297 13.9513 11.5071 13.853C11.7121 13.757 11.8808 13.6004 11.9935 13.4408C12.1061 13.6004 12.2749 13.757 12.4798 13.853C12.6898 13.9513 13.0929 14.0555 13.5634 13.7484C13.6455 13.9058 13.7992 14.1238 14.0617 14.2562C14.2132 14.3324 14.38 14.3707 14.5611 14.3707C14.7471 14.3707 14.948 14.3304 15.1626 14.2499L15.0584 13.9719C14.7171 14.0999 14.4275 14.1069 14.1981 13.9923C13.877 13.8323 13.7698 13.4793 13.7689 13.4764L13.7063 13.2573L13.5312 13.4031C13.2223 13.6604 12.9024 13.7234 12.6057 13.5841C12.3045 13.4431 12.1419 13.1575 12.1419 13.0719V11.7907C12.2061 11.6494 12.3478 11.5504 12.5129 11.5504C12.5697 11.5504 12.6257 11.5627 12.6796 11.5869L12.8633 11.6699L12.8356 11.4701C12.7773 11.0505 12.4153 10.734 11.9935 10.734C11.5716 10.734 11.2096 11.0505 11.1514 11.4701L11.1236 11.6699L11.3074 11.5869C11.3611 11.5627 11.4172 11.5504 11.474 11.5504C11.6391 11.5504 11.7808 11.6494 11.845 11.7907V13.0719C11.845 13.1576 11.6825 13.4431 11.3812 13.5841C11.0847 13.7234 10.7646 13.6605 10.4557 13.4031L10.282 13.2591L10.2182 13.4758C10.2171 13.4793 10.11 13.8323 9.7889 13.9923C9.55931 14.1068 9.26981 14.1 8.92851 13.9719L8.82422 14.2499C9.03881 14.3304 9.23981 14.3707 9.42576 14.3707C9.60684 14.3707 9.77376 14.3324 9.92516 14.2562ZM11.4739 11.3278C11.4561 11.3278 11.4385 11.3285 11.4208 11.3301C11.5202 11.1086 11.7425 10.9567 11.9934 10.9567C12.2443 10.9567 12.4666 11.1086 12.566 11.3301C12.3351 11.3098 12.1168 11.4225 11.9934 11.6011C11.8795 11.436 11.6891 11.3278 11.4739 11.3278Z" fill="#FFCD5A"/>
<path d="M9.42285 15.1999L9.51693 15.4814C10.148 15.2708 11.0507 15.1499 11.9933 15.1499C12.9359 15.1499 13.8384 15.2708 14.4696 15.4814L14.5637 15.1999C13.9034 14.9795 12.9665 14.8531 11.9933 14.8531C11.02 14.8531 10.0831 14.9795 9.42285 15.1999Z" fill="#FFCD5A"/>
<path d="M11.9938 14.5562C12.1485 14.5567 12.2849 14.4647 12.3772 14.3408C12.3158 14.3029 12.2338 14.2807 12.1411 14.2692C12.1412 14.2658 12.1422 14.2628 12.1422 14.2593C12.1422 14.1321 12.0821 14.0222 11.9938 13.9625C11.9054 14.0222 11.8453 14.1321 11.8453 14.2593C11.8453 14.2628 11.8464 14.2658 11.8465 14.2692C11.7537 14.2807 11.6718 14.3029 11.6104 14.3408C11.7026 14.4647 11.839 14.5566 11.9938 14.5562Z" fill="#FFCD5A"/>
<path d="M10.6317 14.6965C10.7834 14.666 10.8986 14.5487 10.9643 14.4088C10.8966 14.3839 10.8118 14.3786 10.7186 14.3859C10.718 14.3825 10.7184 14.3793 10.7177 14.3759C10.6923 14.2512 10.6115 14.1556 10.5129 14.1147C10.4383 14.1909 10.4014 14.3106 10.4269 14.4353C10.4276 14.4387 10.4292 14.4415 10.43 14.4448C10.3414 14.4746 10.2655 14.5127 10.2129 14.5622C10.3282 14.6651 10.4801 14.7279 10.6317 14.6965Z" fill="#FFCD5A"/>
<path d="M13.4748 14.1148C13.3763 14.1556 13.2955 14.2513 13.27 14.376C13.2693 14.3793 13.2698 14.3825 13.2692 14.3859C13.176 14.3786 13.0912 14.3839 13.0234 14.4088C13.0892 14.5487 13.2044 14.666 13.3561 14.6965C13.5076 14.7279 13.6596 14.6652 13.7748 14.5622C13.7222 14.5127 13.6464 14.4746 13.5578 14.4448C13.5585 14.4415 13.5602 14.4387 13.5609 14.4354C13.5863 14.3106 13.5494 14.191 13.4748 14.1148Z" fill="#FFCD5A"/>
<path d="M11.9544 8.64799L11.8545 8.9478L11.5384 8.95024C11.4975 8.95057 11.4805 9.00278 11.5135 9.02707L11.7677 9.2148L11.6724 9.51611C11.66 9.55511 11.7044 9.5874 11.7377 9.56359L11.9948 9.3798L12.2519 9.56359C12.2852 9.5874 12.3296 9.55511 12.3173 9.51611L12.2219 9.2148L12.4762 9.02707C12.5091 9.00274 12.4921 8.95057 12.4512 8.95024L12.1351 8.9478L12.0352 8.64799C12.0223 8.60918 11.9674 8.60918 11.9544 8.64799Z" fill="#FFCD5A"/>
<path d="M10.1449 9.14275L10.0449 9.44256L9.72887 9.44499C9.68794 9.44532 9.67098 9.49754 9.70388 9.52182L9.95813 9.70955L9.86279 10.0109C9.85046 10.0499 9.89485 10.0822 9.92813 10.0583L10.1852 9.87455L10.4423 10.0583C10.4756 10.0822 10.5201 10.0499 10.5077 10.0109L10.4123 9.70955L10.6666 9.52182C10.6995 9.49749 10.6825 9.44532 10.6416 9.44499L10.3256 9.44256L10.2256 9.14275C10.2128 9.10393 10.1578 9.10393 10.1449 9.14275Z" fill="#FFCD5A"/>
<path d="M8.8148 10.4787L8.71482 10.7785L8.39879 10.7809C8.35787 10.7812 8.3409 10.8335 8.3738 10.8577L8.62805 11.0455L8.53271 11.3468C8.52038 11.3858 8.56477 11.4181 8.59805 11.3943L8.85516 11.2105L9.11227 11.3943C9.14555 11.4181 9.18998 11.3858 9.17761 11.3468L9.08227 11.0455L9.33651 10.8577C9.36942 10.8334 9.35245 10.7812 9.31153 10.7809L8.9955 10.7785L8.89552 10.4787C8.88263 10.4399 8.82774 10.4399 8.8148 10.4787Z" fill="#FFCD5A"/>
<path d="M8.32652 12.2846L8.22654 12.5844L7.91051 12.5869C7.86959 12.5872 7.85262 12.6394 7.88552 12.6637L8.13977 12.8514L8.04443 13.1527C8.0321 13.1917 8.07649 13.224 8.10977 13.2002L8.36688 13.0164L8.62398 13.2002C8.65727 13.224 8.7017 13.1917 8.68933 13.1527L8.59398 12.8514L8.84823 12.6637C8.88114 12.6394 8.86417 12.5872 8.82325 12.5869L8.50722 12.5844L8.40724 12.2846C8.39439 12.2458 8.3395 12.2458 8.32652 12.2846Z" fill="#FFCD5A"/>
<path d="M13.8457 9.14275L13.9457 9.44256L14.2617 9.44499C14.3026 9.44532 14.3196 9.49754 14.2867 9.52182L14.0325 9.70955L14.1278 10.0109C14.1401 10.0499 14.0957 10.0822 14.0625 10.0583L13.8054 9.87455L13.5482 10.0583C13.515 10.0822 13.4705 10.0499 13.4829 10.0109L13.5782 9.70955L13.324 9.52182C13.2911 9.49749 13.3081 9.44532 13.349 9.44499L13.665 9.44256L13.765 9.14275C13.7778 9.10393 13.8328 9.10393 13.8457 9.14275Z" fill="#FFCD5A"/>
<path d="M15.1748 10.4787L15.2748 10.7785L15.5908 10.7809C15.6317 10.7812 15.6487 10.8335 15.6158 10.8577L15.3616 11.0455L15.4569 11.3468C15.4692 11.3858 15.4248 11.4181 15.3916 11.3943L15.1345 11.2105L14.8773 11.3943C14.8441 11.4181 14.7996 11.3858 14.812 11.3468L14.9073 11.0455L14.6531 10.8577C14.6202 10.8334 14.6372 10.7812 14.6781 10.7809L14.9941 10.7785L15.0941 10.4787C15.107 10.4399 15.1619 10.4399 15.1748 10.4787Z" fill="#FFCD5A"/>
<path d="M15.6641 12.2846L15.7641 12.5844L16.0801 12.5869C16.121 12.5872 16.138 12.6394 16.1051 12.6637L15.8508 12.8514L15.9462 13.1527C15.9585 13.1917 15.9141 13.224 15.8808 13.2002L15.6237 13.0164L15.3666 13.2002C15.3333 13.224 15.2889 13.1917 15.3013 13.1527L15.3966 12.8514L15.1424 12.6637C15.1095 12.6394 15.1264 12.5872 15.1673 12.5869L15.4834 12.5844L15.5834 12.2846C15.5962 12.2458 15.6511 12.2458 15.6641 12.2846Z" fill="#FFCD5A"/>
</g>
<defs>
<clipPath id="clip0_72_4036">
<path d="M0 2C0 0.895432 0.895431 0 2 0H21.9998C23.1043 0 23.9998 0.895431 23.9998 2V21.9998C23.9998 23.1043 23.1043 23.9998 21.9998 23.9998H2C0.895432 23.9998 0 23.1043 0 21.9998V2Z" fill="white"/>
</clipPath>
</defs>
</svg>
