<svg width="24" height="24" viewBox="0 0 24 24" fill="none" xmlns="http://www.w3.org/2000/svg">
<g clip-path="url(#clip0_72_4053)">
<path d="M-0.000976562 18.3157V6.10352e-05H18.2058L-0.000976562 18.3157Z" fill="#73AF00"/>
<path d="M23.9987 5.68421V23.9998H5.79199L23.9987 5.68421Z" fill="#4173CD"/>
<path d="M23.9988 6.04031V6.10352e-05H17.9585L-0.000976562 17.9596V23.9998H6.03928L23.9988 6.04031Z" fill="#FFE15A"/>
<path d="M23.9988 3.77562V6.10352e-05H20.2233L-0.000976562 20.2243V23.9998H3.77453L23.9988 3.77562Z" fill="#464655"/>
</g>
<defs>
<clipPath id="clip0_72_4053">
<path d="M0 2C0 0.895432 0.895431 0 2 0H21.9998C23.1043 0 23.9998 0.895431 23.9998 2V21.9998C23.9998 23.1043 23.1043 23.9998 21.9998 23.9998H2C0.895432 23.9998 0 23.1043 0 21.9998V2Z" fill="white"/>
</clipPath>
</defs>
</svg>
