<svg width="24" height="24" viewBox="0 0 24 24" fill="none" xmlns="http://www.w3.org/2000/svg">
<g clip-path="url(#clip0_72_4064)">
<path d="M23.9978 0.000106812H-0.00195312V23.9999H23.9978V0.000106812Z" fill="#FFE15A"/>
<path d="M23.9978 1.31255H1.23926V22.7811H23.9978V1.31255Z" fill="#41479B"/>
<path d="M1.2373 1.3126L12.6165 12.0113L6.92698 1.31269L1.2373 1.3126Z" fill="#FF4B55"/>
<path d="M12.6172 12.0113V1.3126L18.3069 1.31269L12.6172 12.0113Z" fill="#FF4B55"/>
<path d="M23.9964 1.38375L12.6172 12.0824L23.9964 6.73312V1.38375Z" fill="#FF4B55"/>
<path d="M12.6172 12.0824H23.9964V17.4318L12.6172 12.0824Z" fill="#FF4B55"/>
<path d="M12.6164 12.0824L1.2373 6.73316V12.0825L12.6164 12.0824Z" fill="#FF4B55"/>
<path d="M1.2373 17.4319L12.6164 12.0824L1.2373 22.7812V17.4319Z" fill="#FF4B55"/>
<path d="M15.0199 13.0594C15.0561 12.957 15.0878 12.8524 15.1107 12.7444L17.8795 12.99L15.1558 12.4394C15.1624 12.3644 15.1673 12.2889 15.1673 12.2121C15.1673 12.1383 15.1624 12.0656 15.1562 11.9933L17.8577 11.4243L15.1134 11.6902C15.0893 11.5748 15.0552 11.4634 15.0161 11.3543L17.4684 10.0722L14.8957 11.0722C14.8302 10.9417 14.7538 10.8178 14.6677 10.7012L16.7012 8.8263L14.4711 10.4655C14.2347 10.2148 13.9493 10.0112 13.6284 9.87258L14.4383 7.23706L13.3404 9.76913C13.1115 9.70168 12.8699 9.66395 12.6192 9.66395C12.3664 9.66395 12.1228 9.70201 11.8923 9.77054L10.7937 7.23702L11.6044 9.87516C11.2847 10.0142 11.0003 10.2177 10.7647 10.4681L8.53096 8.82625L10.5681 10.7046C10.4825 10.8208 10.4067 10.9441 10.3415 11.0742L7.76363 10.0722L10.2212 11.357C10.1825 11.4655 10.1486 11.5761 10.1247 11.6907L7.37434 11.4243L10.0819 11.9945C10.0759 12.0664 10.071 12.1386 10.071 12.212C10.071 12.2884 10.0758 12.3635 10.0824 12.4381L7.35254 12.9899L10.1274 12.7438C10.1502 12.851 10.1815 12.9549 10.2173 13.0567L7.77014 14.3072L10.3356 13.3374C10.7515 14.1795 11.6164 14.7602 12.6191 14.7602C13.6211 14.7602 14.4854 14.1805 14.9017 13.3394L17.4619 14.3072L15.0199 13.0594Z" fill="#FFE15A"/>
<path d="M23.9976 22.7811L12.8786 12.3103C12.7178 12.1589 12.5191 12.1589 12.3584 12.3103L1.23926 22.7811H23.9976Z" fill="#F5F5F5"/>
<path d="M12.7648 17.7963C12.8124 17.7963 12.8509 17.7577 12.8509 17.7101C12.8509 17.6626 12.8124 17.624 12.7648 17.624C12.7173 17.624 12.6787 17.6626 12.6787 17.7101C12.6787 17.7577 12.7173 17.7963 12.7648 17.7963Z" fill="#FF4B55"/>
<path d="M12.6329 14.8255C12.8912 15.1448 12.4732 15.3046 12.5249 15.6098C12.5249 15.6098 12.4403 15.483 12.4732 15.3046C12.5061 15.1261 12.3934 15.0697 12.3934 15.0697C12.3934 15.0697 12.445 15.2716 12.3182 15.3844C12.1914 15.4971 12.229 15.7554 12.229 15.7554C12.229 15.7554 12.0693 15.6474 12.1022 15.483C12.1022 15.483 11.8862 15.6709 12.0787 15.9855C12.0787 15.9855 11.9519 15.9762 11.905 15.8963C11.905 15.8963 11.7925 16.2274 12.2456 16.4798C12.6987 16.7323 12.7644 16.1311 12.7644 16.1311L13.0885 16.5351C13.0885 16.5351 13.4767 16.5241 13.6615 16.1077L13.4392 16.1483C13.4533 16.0309 13.7507 15.9996 13.6333 15.6474C13.6333 15.6474 13.6239 15.7225 13.5393 15.7742C13.5393 15.7742 13.5425 15.5315 13.3671 15.3719C13.3671 15.3719 13.3608 15.5018 13.3045 15.5488C13.3045 15.5488 13.3233 15.3812 13.22 15.2498C13.1213 15.1241 13.1119 15.0087 13.1119 15.0087C13.1119 15.0087 12.9945 15.2247 13.0368 15.3327C13.0368 15.3327 12.9389 15.309 12.9287 15.1778C12.9068 14.8928 12.6329 14.8255 12.6329 14.8255Z" fill="#FF4B55"/>
<path d="M12.7672 17.7024C13.172 17.7024 13.5001 17.5617 13.5001 17.3882C13.5001 17.2147 13.172 17.0741 12.7672 17.0741C12.3623 17.0741 12.0342 17.2147 12.0342 17.3882C12.0342 17.5617 12.3623 17.7024 12.7672 17.7024Z" fill="#FFE15A"/>
<path d="M12.7676 17.6038C13.1177 17.6038 13.4015 17.4767 13.4015 17.3198C13.4015 17.1629 13.1177 17.0357 12.7676 17.0357C12.4176 17.0357 12.1338 17.1629 12.1338 17.3198C12.1338 17.4767 12.4176 17.6038 12.7676 17.6038Z" fill="#FF4B55"/>
<path d="M12.898 17.3569H12.6322C12.6275 17.4398 12.665 17.56 12.7649 17.6036V17.6039C12.765 17.6038 12.765 17.6038 12.765 17.6038C12.765 17.6038 12.7652 17.6038 12.7653 17.6039V17.6036C12.8651 17.56 12.9026 17.4398 12.898 17.3569Z" fill="#FF82AA"/>
<path d="M13.1092 17.3058L12.8682 17.3623C12.8828 17.444 12.9443 17.5531 13.0449 17.5743L13.0449 17.5745L13.0451 17.5744C13.0452 17.5744 13.0452 17.5745 13.0452 17.5745V17.5742C13.1259 17.5105 13.1324 17.3855 13.1092 17.3058Z" fill="#FF82AA"/>
<path d="M13.2343 17.2193L13.0664 17.3293C13.1089 17.4005 13.1985 17.4855 13.2854 17.4807L13.2855 17.4809L13.2856 17.4807L13.2858 17.4808L13.2856 17.4805C13.3248 17.4027 13.2826 17.2866 13.2343 17.2193Z" fill="#FF82AA"/>
<path d="M13.2301 17.0494L13.1641 17.2161C13.2536 17.33 13.4004 17.3183 13.4004 17.3183C13.4062 17.2254 13.2905 17.1061 13.2301 17.0494Z" fill="#FF82AA"/>
<path d="M12.4189 17.3058L12.66 17.3623C12.6453 17.444 12.5838 17.5531 12.4833 17.5743L12.4832 17.5745L12.4831 17.5744L12.4829 17.5745L12.4829 17.5742C12.4023 17.5105 12.3957 17.3855 12.4189 17.3058Z" fill="#FF82AA"/>
<path d="M12.2944 17.2193L12.4622 17.3293C12.4198 17.4005 12.3302 17.4855 12.2432 17.4807L12.2431 17.4809L12.243 17.4807L12.2429 17.4808L12.243 17.4805C12.2038 17.4027 12.246 17.2866 12.2944 17.2193Z" fill="#FF82AA"/>
<path d="M12.2994 17.0494L12.3654 17.2161C12.2759 17.33 12.1291 17.3183 12.1291 17.3183C12.1233 17.2254 12.2389 17.1061 12.2994 17.0494Z" fill="#FF82AA"/>
<path d="M12.7674 17.3783C13.0515 17.3783 13.2818 17.2751 13.2818 17.1478C13.2818 17.0204 13.0515 16.9172 12.7674 16.9172C12.4833 16.9172 12.2529 17.0204 12.2529 17.1478C12.2529 17.2751 12.4833 17.3783 12.7674 17.3783Z" fill="#FFE15A"/>
<path d="M12.7675 17.2976C12.9789 17.2976 13.1502 17.2305 13.1502 17.1478C13.1502 17.065 12.9789 16.9979 12.7675 16.9979C12.5561 16.9979 12.3848 17.065 12.3848 17.1478C12.3848 17.2305 12.5561 17.2976 12.7675 17.2976Z" fill="#FF4B55"/>
<path d="M12.8057 19.7381C12.5555 19.7594 12.3357 19.5734 12.3144 19.3235C12.3034 19.1987 12.3965 19.0884 12.5216 19.0778C12.6466 19.0671 12.7565 19.1599 12.7671 19.285C12.7777 19.4101 12.8879 19.5026 13.0127 19.4923C13.1379 19.4817 13.2308 19.3713 13.2199 19.2465C13.2412 19.4966 13.0558 19.7167 12.8057 19.7381Z" fill="#41479B"/>
<path d="M12.3151 19.3235C12.3042 19.1986 12.3973 19.0884 12.5224 19.0777C12.6474 19.067 12.7573 19.1598 12.7679 19.285C12.7785 19.4101 12.8887 19.5026 13.0135 19.4922C13.1387 19.4816 13.2315 19.3712 13.2207 19.2464C13.1998 18.996 12.9797 18.8107 12.7295 18.832C12.4794 18.8533 12.2939 19.0733 12.3151 19.3235Z" fill="#FF9B55"/>
<path d="M12.7673 18.541C12.3565 18.541 12.0234 18.874 12.0234 19.2849C12.0234 19.6957 12.3565 20.0288 12.7673 20.0288C13.1782 20.0288 13.5112 19.6957 13.5112 19.2849C13.5113 18.874 13.1782 18.541 12.7673 18.541ZM12.7673 19.8738C12.4421 19.8738 12.1784 19.6102 12.1784 19.2849C12.1784 18.9596 12.4421 18.696 12.7673 18.696C13.0926 18.696 13.3563 18.9596 13.3563 19.2849C13.3563 19.6102 13.0926 19.8738 12.7673 19.8738Z" fill="#FFE15A"/>
<path d="M12.7676 18.6959C12.4424 18.6959 12.1787 18.9596 12.1787 19.2849C12.1787 19.6101 12.4424 19.8738 12.7676 19.8738C13.0929 19.8738 13.3566 19.6101 13.3566 19.2849C13.3566 18.9596 13.0929 18.6959 12.7676 18.6959ZM12.7676 19.736C12.5185 19.736 12.3165 19.534 12.3165 19.2849C12.3165 19.0357 12.5185 18.8337 12.7676 18.8337C13.0168 18.8337 13.2188 19.0357 13.2188 19.2849C13.2188 19.534 13.0168 19.736 12.7676 19.736Z" fill="#FF4B55"/>
<path d="M12.5383 19.3416C12.5696 19.3416 12.5951 19.3161 12.5951 19.2848C12.5951 19.2534 12.5696 19.228 12.5383 19.228C12.5069 19.228 12.4814 19.2534 12.4814 19.2848C12.4814 19.3161 12.5069 19.3416 12.5383 19.3416Z" fill="#FF9B55"/>
<path d="M12.9933 19.3416C13.0247 19.3416 13.0501 19.3161 13.0501 19.2848C13.0501 19.2534 13.0247 19.228 12.9933 19.228C12.962 19.228 12.9365 19.2534 12.9365 19.2848C12.9365 19.3161 12.962 19.3416 12.9933 19.3416Z" fill="#41479B"/>
<path d="M12.7641 18.4268C12.8021 18.4268 12.8329 18.396 12.8329 18.358C12.8329 18.32 12.8021 18.2892 12.7641 18.2892C12.7261 18.2892 12.6953 18.32 12.6953 18.358C12.6953 18.396 12.7261 18.4268 12.7641 18.4268Z" fill="#FF4B55"/>
<path d="M12.8325 18.5468C12.8705 18.5468 12.9013 18.516 12.9013 18.478C12.9013 18.44 12.8705 18.4092 12.8325 18.4092C12.7945 18.4092 12.7637 18.44 12.7637 18.478C12.7637 18.516 12.7945 18.5468 12.8325 18.5468Z" fill="#FF4B55"/>
<path d="M12.6948 18.5468C12.7328 18.5468 12.7636 18.516 12.7636 18.478C12.7636 18.44 12.7328 18.4092 12.6948 18.4092C12.6568 18.4092 12.626 18.44 12.626 18.478C12.626 18.516 12.6568 18.5468 12.6948 18.5468Z" fill="#FF4B55"/>
<path d="M12.7641 20.2821C12.8021 20.2821 12.8329 20.2513 12.8329 20.2133C12.8329 20.1753 12.8021 20.1445 12.7641 20.1445C12.7261 20.1445 12.6953 20.1753 12.6953 20.2133C12.6953 20.2513 12.7261 20.2821 12.7641 20.2821Z" fill="#FF4B55"/>
<path d="M12.6948 20.1621C12.7328 20.1621 12.7636 20.1313 12.7636 20.0933C12.7636 20.0553 12.7328 20.0245 12.6948 20.0245C12.6568 20.0245 12.626 20.0553 12.626 20.0933C12.626 20.1313 12.6568 20.1621 12.6948 20.1621Z" fill="#FF4B55"/>
<path d="M12.8325 20.1621C12.8705 20.1621 12.9013 20.1313 12.9013 20.0933C12.9013 20.0553 12.8705 20.0245 12.8325 20.0245C12.7945 20.0245 12.7637 20.0553 12.7637 20.0933C12.7637 20.1313 12.7945 20.1621 12.8325 20.1621Z" fill="#FF4B55"/>
<path d="M12.6413 16.4096C12.594 16.1457 12.4677 15.9476 12.3592 15.9671C12.2507 15.9865 12.2011 16.2162 12.2484 16.48C12.2825 16.6703 12.3581 16.8234 12.4381 16.8883C12.405 16.945 12.3849 17.0314 12.3845 17.1385C12.4439 17.1435 12.5052 17.1433 12.568 17.132C12.6309 17.1208 12.6884 17.0998 12.7424 17.0744C12.7048 16.9741 12.6559 16.9001 12.6052 16.8584C12.6577 16.7697 12.6754 16.5999 12.6413 16.4096Z" fill="#FF9B55"/>
<path d="M12.8921 16.4096C12.9394 16.1457 13.0657 15.9476 13.1742 15.9671C13.2827 15.9865 13.3323 16.2162 13.285 16.48C13.2509 16.6703 13.1753 16.8234 13.0953 16.8883C13.1284 16.945 13.1485 17.0314 13.1489 17.1385C13.0895 17.1435 13.0282 17.1433 12.9654 17.132C12.9025 17.1208 12.845 17.0998 12.791 17.0744C12.8286 16.9741 12.8775 16.9001 12.9282 16.8584C12.8757 16.7697 12.858 16.5999 12.8921 16.4096Z" fill="#41479B"/>
<path d="M12.9695 16.4034C12.9695 16.1128 12.8801 15.8772 12.7699 15.8772C12.6597 15.8772 12.5703 16.1128 12.5703 16.4034C12.5703 16.6131 12.6177 16.7909 12.685 16.8755C12.6425 16.9296 12.6074 17.018 12.5881 17.1322C12.6457 17.149 12.7061 17.1604 12.77 17.1604C12.8338 17.1604 12.8942 17.149 12.9518 17.1322C12.9325 17.0181 12.8974 16.9296 12.8549 16.8755C12.9222 16.7909 12.9695 16.6131 12.9695 16.4034Z" fill="#F5F5F5"/>
<path d="M12.7641 16.953C12.6341 16.953 12.5148 16.9409 12.4372 16.9195C12.4105 16.9125 12.395 16.8852 12.4021 16.8583C12.4095 16.8317 12.4376 16.8142 12.4634 16.8236C12.6006 16.8602 12.9276 16.8602 13.0649 16.8236C13.0916 16.8138 13.1189 16.8318 13.1261 16.8583C13.1333 16.8852 13.1177 16.9125 13.091 16.9195C13.0135 16.9409 12.8942 16.953 12.7641 16.953Z" fill="#FFE15A"/>
<path d="M12.3369 17.742C12.3909 17.735 12.459 17.7186 12.4637 17.6364C12.4637 17.6364 12.3416 17.6247 12.3416 17.634C12.3416 17.6434 12.3369 17.742 12.3369 17.742Z" fill="#FFE15A"/>
<path d="M11.1113 17.4369C11.1724 17.4541 11.2319 17.4667 11.2506 17.5418C11.2506 17.5418 11.3133 17.4166 11.2256 17.3414C11.2097 17.3277 11.1113 17.4369 11.1113 17.4369Z" fill="#FF4B55"/>
<path d="M11.3711 17.2271C11.4322 17.2443 11.4917 17.2569 11.5104 17.332C11.5104 17.332 11.573 17.2068 11.4854 17.1316C11.4694 17.118 11.3711 17.2271 11.3711 17.2271Z" fill="#FF4B55"/>
<path d="M11.1327 17.6623C11.0952 17.6529 11.0294 17.5684 11.114 17.4369C11.1985 17.3054 10.8275 17.5026 10.8134 17.6106C10.7993 17.7186 10.7852 17.9112 10.8697 17.8595C10.9543 17.8079 11.1327 17.6623 11.1327 17.6623Z" fill="#FFE15A"/>
<path d="M11.5358 17.6764C11.5483 17.6075 11.5358 17.5606 11.6234 17.498C11.7111 17.4353 11.7236 17.4009 11.7236 17.3602C11.7236 17.3602 11.6758 17.4111 11.5913 17.4322C11.5396 17.4451 11.495 17.4823 11.495 17.4823C11.495 17.4823 11.4731 17.404 11.5514 17.3602C11.5514 17.3602 11.4136 17.3602 11.3917 17.4854C11.3697 17.6107 11.4418 17.6295 11.3384 17.642C11.2351 17.6545 10.994 17.6044 10.9095 17.7954C10.8249 17.9864 11.0817 17.8487 11.1505 17.8236C11.2194 17.7986 11.4386 17.8518 11.473 17.8048C11.5076 17.7578 11.5358 17.6764 11.5358 17.6764Z" fill="#FF4B55"/>
<path d="M10.6326 18.0193L11.0036 17.4087C11.0036 17.4087 11.3722 17.2663 11.3754 17.2475C11.3785 17.2287 11.4975 17.0753 11.4975 17.0534C11.4975 17.0315 11.485 16.925 11.438 16.9063C11.391 16.8875 11.2415 16.9506 11.1765 16.9671C11.1116 16.9837 11.009 16.8624 11.009 16.8624C11.009 16.8624 10.411 16.9751 10.3672 17.0471C10.3234 17.1191 10.1167 17.6358 10.1073 17.689C10.0979 17.7422 10.1073 18.1085 10.1198 18.1023C10.1324 18.0959 10.6326 18.0193 10.6326 18.0193Z" fill="#FFF5E6"/>
<path d="M11.5194 16.9625C11.463 16.8811 11.3597 16.8811 11.3159 16.9469C11.272 17.0126 11.1781 17.0126 11.1562 17.094C11.1389 17.1583 11.2439 17.2756 11.3065 17.2537C11.3691 17.2318 11.4849 17.1598 11.4849 17.1598C11.4849 17.1598 11.5757 17.0439 11.5194 16.9625ZM11.3479 17.1283C11.3222 17.1612 11.2577 17.1203 11.2573 17.0838C11.2568 17.0474 11.3107 17.0453 11.3375 17.0643C11.355 17.0766 11.3689 17.1015 11.3479 17.1283ZM11.4445 17.0471C11.4069 17.0652 11.367 17.0001 11.3827 16.9672C11.3985 16.9343 11.4477 16.9562 11.4634 16.9851C11.4736 17.0039 11.475 17.0324 11.4445 17.0471Z" fill="#FF4B55"/>
<path d="M11.6381 19.3312C11.7005 19.3374 11.7831 19.3289 11.8003 19.1877C11.82 19.0259 11.8689 18.9694 11.95 19.0068C12.0311 19.0442 12.011 19.1089 12.011 19.1089C12.011 19.1089 12.1002 19.3437 12.0533 19.4377C12.0063 19.5316 11.8983 19.6443 11.8184 19.6631C11.7386 19.6819 11.5742 19.5738 11.5742 19.5738L11.6381 19.3312Z" fill="#FFF5E6"/>
<path d="M11.1878 18.7848C11.241 18.7598 11.8985 18.3026 11.9768 18.1305C12.0551 17.9583 12.0113 17.833 12.1146 17.8268C12.2179 17.8205 12.3933 17.8143 12.3776 17.6859C12.3619 17.5575 12.1897 17.6389 12.1428 17.6139C12.0958 17.5888 11.9486 17.5199 11.9204 17.6202C11.8922 17.7204 11.9204 17.8112 11.8797 17.8612C11.8391 17.9113 11.6574 17.999 11.6261 17.9927C11.5948 17.9864 11.5279 17.9783 11.4768 18.0105C11.4257 18.0428 11.3975 18.0866 11.3975 18.0866C11.3975 18.0866 11.205 18.0944 11.1776 18.1203C11.1502 18.1461 11.0469 18.2838 11.0469 18.2838L11.1878 18.7848Z" fill="#FFE6D7"/>
<path d="M11.2565 18.6814C11.2565 18.6814 11.3818 18.6345 11.471 18.4607C11.5603 18.2869 11.6495 18.3574 11.781 18.2635C11.9125 18.1695 11.828 18.0286 11.7904 17.9723C11.7528 17.9159 11.7787 17.7703 11.9078 17.775C11.9928 17.7781 12.2647 18.0427 12.1426 18.3057C12.1426 18.3057 12.1238 18.2588 12.0769 18.2024C12.0769 18.2024 12.1473 18.3762 11.9829 18.5688C11.9829 18.5688 11.9876 18.4701 11.936 18.4044C11.936 18.4044 11.9313 18.6486 11.7434 18.8036C11.7434 18.8036 11.7669 18.6439 11.7387 18.5782C11.7387 18.5782 11.7106 18.7895 11.4334 18.9821C11.4334 18.9821 11.4757 18.907 11.4663 18.7848L11.2314 18.907L11.2565 18.6814Z" fill="#5AA587"/>
<path d="M9.47013 19.4846C9.47013 19.4846 9.38561 19.7429 9.61572 19.8181C9.84587 19.8932 9.97267 19.7946 10.0572 19.8181C10.1417 19.8415 10.123 19.9918 10.0055 20.1186C9.88811 20.2454 9.77069 20.2595 9.63921 20.1656C9.50772 20.0716 9.4983 19.9871 9.36213 20.02C9.22591 20.0529 9.03809 19.9214 9.03809 19.9214C9.03809 19.9214 9.16019 19.3907 9.1743 19.3953C9.18832 19.4001 9.47013 19.4846 9.47013 19.4846Z" fill="#F5DCD2"/>
<path d="M8.27683 18.8384C8.27683 18.8384 8.43902 18.6824 9.06901 18.4891C9.69901 18.2957 10.0358 18.2146 10.0358 18.2146L10.5286 18.0587C10.5286 18.0587 10.7606 18.0578 10.9128 18.0146C11.0651 17.9713 11.0651 17.9713 11.0651 17.9713C11.0651 17.9713 11.4705 18.5452 11.1649 19.1253L11.2709 19.2251C11.2709 19.2251 11.3824 19.2591 11.467 19.2889C11.5516 19.3187 11.4892 19.4808 11.4892 19.4808L11.1648 19.6306L10.2167 19.5869C10.2167 19.5869 10.198 19.5432 9.88608 19.6431C9.57418 19.7429 9.43698 19.5183 8.83815 19.4996C8.23933 19.4808 8.27683 18.8384 8.27683 18.8384Z" fill="#FFF5E6"/>
<path d="M10.9713 16.5993C10.9713 16.5993 11.0668 16.6948 11.0151 16.7966C11.0151 16.7966 10.9087 16.687 10.821 16.6619C10.6861 16.6234 10.6582 16.6972 10.36 16.7113C10.1723 16.7201 10.0965 16.8999 9.91303 16.856C9.71658 16.8091 9.55453 16.8991 9.55453 16.8991C9.55453 16.8991 9.66727 16.8851 9.75886 16.9719C9.85041 17.0588 10.0125 17.04 10.0125 17.04C10.0125 17.04 9.86451 17.1433 9.74006 17.094C9.61561 17.0447 9.43711 17.1363 9.43711 17.1363C9.46997 17.1339 9.54277 17.1456 9.62499 17.2325C9.70716 17.3194 9.89034 17.2983 9.89034 17.2983C9.85748 17.3382 9.76589 17.3828 9.67936 17.3663C9.48324 17.3287 9.2739 17.4162 9.2739 17.4162C9.2739 17.4162 9.39863 17.3726 9.56705 17.4973C9.73547 17.622 9.92883 17.5472 9.92883 17.5472C9.92883 17.6283 9.76003 17.9407 9.46055 17.93C9.08766 17.9168 8.99316 18.1335 8.99316 18.1335C8.99316 18.1335 9.14288 18.0836 9.33624 18.1148C9.71081 18.1752 9.96623 17.9589 9.96623 17.9589C9.96623 17.9589 9.90384 18.252 9.6481 18.2395C9.39235 18.2271 9.06798 18.4891 9.06798 18.4891C9.06798 18.4891 9.35616 18.4371 9.7282 18.4326C9.85059 18.4311 9.95011 18.3828 10.0352 18.3254C10.2589 18.1743 10.4656 18.1743 10.4656 18.1743C10.2214 18.2306 10.0946 18.4983 10.0946 18.4983C10.0946 18.4983 10.2824 18.3339 10.5548 18.3339C10.8272 18.3339 10.9118 18.0146 10.9118 18.0146C10.6581 18.0192 10.6206 17.8126 10.6206 17.8126C10.6206 17.8126 10.5455 17.8361 10.475 17.9206C10.4304 17.9741 10.3551 17.9922 10.3035 17.9995C10.2847 17.8347 10.4091 17.6844 10.4091 17.6844C10.4091 17.6844 10.2407 17.4286 10.459 17.1542C10.6774 16.8797 11.1763 16.967 11.1763 16.967C11.2281 16.7371 11.0339 16.593 10.9713 16.5993Z" fill="#5AA587"/>
<path d="M10.4648 17.5073C10.5463 17.4948 10.9251 17.3696 10.9189 17.2005C10.9126 17.0314 10.6872 17.0909 10.6997 17.1817C10.7122 17.2725 10.7936 17.2537 10.7936 17.2537C10.7936 17.2537 10.7857 17.2946 10.6183 17.3288C10.4805 17.357 10.4648 17.5073 10.4648 17.5073Z" fill="#5AA587"/>
<path d="M11.4674 19.2889C11.4674 19.2889 11.7022 19.2513 11.6928 19.4204C11.6834 19.5895 11.5487 19.7679 11.2701 19.8462C11.2701 19.8462 11.3734 19.757 11.3499 19.7053C11.3264 19.6537 11.209 19.6396 11.148 19.7288C11.0869 19.8181 10.9836 19.8556 10.8943 19.8415C10.8943 19.8415 11.054 19.7241 10.9413 19.6818C10.8398 19.6438 10.8787 19.8086 10.636 19.8368C10.636 19.8368 10.8144 19.6959 10.7111 19.6584C10.6078 19.6208 10.5514 19.865 10.3683 19.8462C10.3683 19.8462 10.5217 19.6928 10.4388 19.6678C10.3081 19.6283 10.2744 19.8556 10.0395 19.757C10.0395 19.757 10.1569 19.7054 10.063 19.5786C9.96907 19.4518 10.1006 19.2921 10.1663 19.2263C10.2321 19.1605 10.279 19.1183 10.2603 19.0525C10.2603 19.0525 10.4278 19.1575 10.3432 19.3422C10.2639 19.5157 10.5852 19.4199 10.8348 19.3985C11.0915 19.3766 11.2439 19.5239 11.4078 19.4737C11.5613 19.4267 11.4674 19.2889 11.4674 19.2889Z" fill="#5AA587"/>
<path d="M6.92285 19.3686C6.92285 19.3686 7.23096 19.5106 7.40561 19.3672C7.58027 19.2237 7.6277 19.3935 7.83358 19.2688C8.0394 19.144 8.02693 19.2126 8.18912 19.2126C8.35131 19.2126 8.46981 18.9506 8.37001 18.7697C8.37001 18.7697 8.70872 18.6384 8.63926 18.3668C8.5876 18.1649 8.3326 18.2271 8.3326 18.2271C8.3326 18.2271 8.0635 18.0579 7.87726 18.277C7.72502 18.4561 7.80864 18.5764 7.55289 18.6076C7.29715 18.6388 7.25974 18.9008 6.98529 18.8696C6.98529 18.8696 7.17241 19.1129 7.45933 18.9569C7.45933 18.9569 7.45253 19.1918 6.92285 19.3686Z" fill="#5AA587"/>
<path d="M9.649 19.8274C9.649 19.8274 9.91201 20.0623 9.39536 20.2032C9.39536 20.2032 9.42822 20.1609 9.46581 20.0857C9.46581 20.0857 9.30611 20.2032 9.09949 20.1937C9.09949 20.1937 9.16057 20.1468 9.17463 20.0904C9.17463 20.0904 8.98676 20.1421 8.85059 20.0528C8.85059 20.0528 9.01498 20.0435 9.11829 19.8885C9.11829 19.8885 9.16525 19.9824 9.26388 19.9354C9.3625 19.8884 9.41903 19.956 9.5081 19.9589C9.58089 19.9612 9.64431 19.9237 9.649 19.8274Z" fill="#5AA587"/>
<path d="M9.519 18.3777C9.519 18.3777 9.33113 18.4654 9.41883 18.6313C9.47728 18.742 9.66038 18.7685 9.73195 18.6658C9.79303 18.5781 9.74456 18.493 9.6803 18.4811C9.61299 18.4685 9.5723 18.4967 9.54099 18.5531C9.54099 18.5531 9.42507 18.5093 9.519 18.3777Z" fill="#5AA587"/>
<path d="M10.3633 18.6697C10.3633 18.6697 10.7712 18.6852 10.7507 18.9679C10.7417 19.0923 10.5735 19.1792 10.4673 19.114C10.3768 19.0583 10.3915 18.9656 10.4387 18.9245C10.4907 18.8792 10.5422 18.8956 10.5933 18.9345C10.5933 18.9345 10.6192 18.7801 10.3633 18.6697Z" fill="#5AA587"/>
<path d="M11.1777 18.1202C11.1777 18.1202 11.398 17.9725 11.4836 18.1483C11.5213 18.2257 11.451 18.3358 11.365 18.3337C11.2917 18.3318 11.2683 18.2714 11.2823 18.2305C11.2977 18.1855 11.3341 18.1773 11.3781 18.1829C11.3781 18.1829 11.3914 18.0686 11.1777 18.1202Z" fill="#5AA587"/>
<path d="M11.4775 18.0105C11.4775 18.0105 11.6806 17.8742 11.7597 18.0364C11.7945 18.1078 11.7296 18.2094 11.6503 18.2074C11.5827 18.2057 11.5611 18.15 11.574 18.1122C11.5882 18.0707 11.6218 18.0632 11.6623 18.0684C11.6623 18.0684 11.6746 17.9628 11.4775 18.0105Z" fill="#5AA587"/>
<path d="M10.7158 18.9114C10.7158 18.9114 11.0669 18.9247 11.0492 19.168C11.0415 19.275 10.8967 19.3498 10.8054 19.2936C10.7274 19.2457 10.7232 19.1579 10.757 19.1159C10.8157 19.0431 10.8862 19.076 10.8862 19.076C10.8862 19.076 10.9361 19.0063 10.7158 18.9114Z" fill="#5AA587"/>
<path d="M10.9736 19.1042C10.9736 19.1042 11.3611 19.0666 11.3323 19.3281C11.3248 19.3964 11.2348 19.4444 11.1763 19.4085C11.1265 19.3778 11.1238 19.3216 11.1454 19.2948C11.183 19.2482 11.2281 19.2692 11.2281 19.2692C11.2281 19.2692 11.2038 19.1535 10.9736 19.1042Z" fill="#5AA587"/>
<path d="M8.4882 20.3479C8.4882 20.3479 8.54121 20.4555 8.57553 20.5599C8.60487 20.6493 8.75642 20.7097 8.83751 20.6535C8.9186 20.5973 9.05552 20.4296 8.99941 20.3922C8.94326 20.3548 8.70031 20.3853 8.66285 20.2543C8.62545 20.1233 8.63792 20.0359 8.63792 20.0359C8.63792 20.0359 8.96299 20.1326 9.11801 19.8884C9.27297 19.6442 9.25085 19.4057 9.3116 19.2874C9.35908 19.1949 9.44257 19.1501 9.44257 19.1501C9.34708 18.7721 8.18258 18.5014 8.31772 19.4828L8.13477 19.8986L8.4882 20.3479Z" fill="#FFE6D7"/>
<path d="M8.07922 20.3316C8.15905 20.3833 8.45183 20.532 8.63342 20.4193C8.78192 20.3271 8.7837 20.222 8.68977 20.1986C8.59583 20.1751 8.54417 20.2408 8.49252 20.1986C8.44086 20.1563 8.14968 19.9167 8.25768 19.8416C8.36567 19.7665 8.42417 19.7057 8.42206 19.5739C8.42052 19.4768 8.33596 19.3829 8.23579 19.3735C8.11086 19.3618 8.01346 19.4142 7.88198 19.4142L8.0354 19.4925C7.93677 19.5395 7.92894 19.6725 7.81152 19.696C7.81152 19.696 7.89135 19.7868 7.99157 19.7586C7.99157 19.7586 7.95712 19.8526 7.86318 19.8651C7.86318 19.8651 7.95083 19.9653 8.03226 19.9935C8.03226 19.9935 7.97901 20.0311 7.89604 20.0154C7.89604 20.0154 8.02597 20.2064 8.22008 20.2549L8.07922 20.3316Z" fill="#5AA587"/>
<path d="M8.6452 19.974C8.6452 19.974 8.69737 19.9649 8.70187 19.9014C8.70445 19.8648 8.66789 19.8173 8.60569 19.8209C8.5328 19.8251 8.48334 19.9219 8.51831 19.986C8.6077 20.1501 8.94051 20.0843 8.9812 20.0248C8.9812 20.0248 8.715 20.0373 8.6452 19.974Z" fill="#5AA587"/>
<path d="M8.79591 20.7543C8.8104 20.7339 8.82212 20.6787 8.79395 20.6447C8.79395 20.6447 8.80923 20.566 8.86909 20.5942C8.86909 20.5942 8.89454 20.6572 8.87419 20.701C8.85385 20.7448 8.79591 20.7543 8.79591 20.7543Z" fill="#FFE15A"/>
<path d="M8.91772 20.7101C8.91669 20.6534 8.90399 20.6224 8.85819 20.6177C8.85819 20.6177 8.84647 20.5355 8.91453 20.5355C8.91453 20.5355 8.96502 20.5801 8.96549 20.6284C8.96596 20.6767 8.91772 20.7101 8.91772 20.7101Z" fill="#FFE15A"/>
<path d="M8.99349 20.6552C8.98234 20.5995 8.97179 20.5608 8.92079 20.557C8.92079 20.557 8.89365 20.4897 8.96879 20.4803C8.96879 20.4803 9.0167 20.5188 9.02584 20.5662C9.03498 20.6136 8.99349 20.6552 8.99349 20.6552Z" fill="#FFE15A"/>
<path d="M9.06896 20.5688C9.04585 20.517 9.02284 20.4962 8.97226 20.5038C8.97226 20.5038 8.9288 20.4427 8.98871 20.4098C8.98871 20.4098 9.0616 20.4306 9.08096 20.4749C9.10032 20.5192 9.06896 20.5688 9.06896 20.5688Z" fill="#FFE15A"/>
<path d="M9.96083 20.2512C9.97147 20.2286 9.9732 20.1722 9.93945 20.1437C9.93945 20.1437 9.94053 20.0636 10.0044 20.0807C10.0044 20.0807 10.0407 20.1382 10.0284 20.1849C10.0161 20.2317 9.96083 20.2512 9.96083 20.2512Z" fill="#FFE15A"/>
<path d="M10.0732 20.1861C10.0621 20.1304 10.0441 20.1021 9.99819 20.1057C9.99819 20.1057 9.97203 20.0269 10.0391 20.0148C10.0391 20.0148 10.0967 20.0497 10.1057 20.0972C10.1148 20.1447 10.0732 20.1861 10.0732 20.1861Z" fill="#FFE15A"/>
<path d="M10.1374 20.1186C10.1165 20.0658 10.0993 20.0296 10.0484 20.0349C10.0484 20.0349 10.0098 19.9735 10.0821 19.9509C10.0821 19.9509 10.136 19.9802 10.1534 20.0253C10.1708 20.0704 10.1374 20.1186 10.1374 20.1186Z" fill="#FFE15A"/>
<path d="M10.1971 20.0202C10.1651 19.9733 10.1388 19.957 10.0904 19.9733C10.0904 19.9733 10.0368 19.921 10.0899 19.878C10.0899 19.878 10.1653 19.8855 10.1922 19.9257C10.2191 19.9658 10.1971 20.0202 10.1971 20.0202Z" fill="#FFE15A"/>
<path d="M11.5223 17.1285C11.5325 17.1793 11.5067 17.2349 11.3845 17.2882C11.2624 17.3414 11.2656 17.3195 11.1842 17.4228C11.1027 17.5261 11.0934 17.5293 10.9931 17.5481C10.893 17.5669 10.846 17.8768 10.965 17.8299C11.0839 17.7829 11.0996 17.6858 11.2311 17.7171C11.3627 17.7485 11.4315 17.7923 11.5348 17.6765C11.5348 17.6765 11.635 17.8111 11.4472 17.8675C11.2593 17.9239 11.1568 17.9282 11.064 17.9714C10.9713 18.0146 10.6421 18.1203 10.6205 17.8126C10.6143 17.7234 10.68 17.689 10.7176 17.6232C10.7552 17.5574 10.7928 17.5136 10.8835 17.4416C10.9743 17.3696 10.918 17.3101 11.0651 17.2882C11.2123 17.2663 11.3344 17.2694 11.3783 17.1629C11.4221 17.0565 11.5098 17.0659 11.5223 17.1285Z" fill="#FFE6D7"/>
<path d="M9.06112 18.6212C9.06112 18.6212 9.0329 18.509 9.16372 18.4615C9.13297 18.4708 9.1048 18.4792 9.07246 18.4891C9.04494 18.4975 9.0231 18.5055 8.99732 18.5138C8.98729 18.5273 8.97379 18.5345 8.96699 18.5535C8.9272 18.665 9.02568 18.8096 9.14305 18.7938C9.24318 18.7804 9.27158 18.6922 9.23882 18.6398C9.20465 18.5848 9.12922 18.5719 9.06112 18.6212Z" fill="#5AA587"/>
<path d="M9.10108 19.8123C8.95914 19.844 8.8952 19.7892 8.8952 19.7892C8.8952 19.7892 8.94737 19.7802 8.95187 19.7166C8.95445 19.68 8.91789 19.6325 8.85569 19.6361C8.7828 19.6402 8.73334 19.737 8.76831 19.8012C8.84523 19.9423 9.06372 19.909 9.16 19.8089C9.16506 19.7986 9.17031 19.7884 9.17486 19.7782C9.15376 19.7915 9.12681 19.8065 9.10108 19.8123Z" fill="#5AA587"/>
<path d="M9.24447 19.5749C9.24808 19.5588 9.25324 19.5426 9.25624 19.5272C9.08937 19.5947 9.04071 19.5097 9.04071 19.5097C9.04071 19.5097 9.09288 19.5007 9.09738 19.4371C9.09996 19.4005 9.0634 19.353 9.00119 19.3566C8.9283 19.3608 8.87885 19.4576 8.91382 19.5218C8.99534 19.6715 9.14069 19.6298 9.24447 19.5749Z" fill="#5AA587"/>
<path d="M9.62011 19.6543C9.52312 19.7412 9.44897 19.7364 9.44897 19.7364C9.44897 19.7364 9.48773 19.7004 9.4568 19.6447C9.43894 19.6126 9.38241 19.5928 9.33225 19.6297C9.27347 19.6731 9.28486 19.7811 9.34917 19.8158C9.50752 19.9011 9.61026 19.7692 9.6652 19.6629C9.65029 19.661 9.63515 19.6574 9.62011 19.6543Z" fill="#5AA587"/>
<path d="M12.119 19.5702C12.112 19.5356 12.0757 19.4698 12.0311 19.4653C12.0311 19.4653 11.9785 19.3729 12.0384 19.3394C12.0384 19.3394 12.1041 19.3749 12.126 19.4385C12.1479 19.5021 12.119 19.5702 12.119 19.5702Z" fill="#FFE15A"/>
<path d="M12.1603 19.4026C12.1149 19.3483 12.0823 19.3309 12.05 19.3731C12.05 19.3731 11.9776 19.3048 12.0203 19.2354C12.0203 19.2354 12.0872 19.2275 12.1257 19.2742C12.1642 19.3209 12.1603 19.4026 12.1603 19.4026Z" fill="#FFE15A"/>
<path d="M12.1648 19.272C12.1139 19.229 12.0767 19.202 12.0417 19.2503C12.0417 19.2503 11.9715 19.2122 12.0112 19.1264C12.0112 19.1264 12.0716 19.1151 12.1148 19.1521C12.158 19.1892 12.1648 19.272 12.1648 19.272Z" fill="#FFE15A"/>
<path d="M12.144 19.1108C12.0885 19.0838 12.0577 19.0869 12.0319 19.1458C12.0319 19.1458 11.9565 19.1305 11.968 19.0374C11.968 19.0374 12.0302 18.9834 12.0773 19.0069C12.1244 19.0304 12.144 19.1108 12.144 19.1108Z" fill="#FFE15A"/>
<path d="M11.005 17.2552C11.0516 17.3394 10.9661 17.4248 10.8819 17.3783C10.8711 17.3723 10.862 17.3631 10.856 17.3523C10.8094 17.2682 10.8949 17.1827 10.979 17.2293C10.9898 17.2353 10.999 17.2445 11.005 17.2552Z" fill="#F5F5F5"/>
<path d="M10.9583 17.2883C10.9724 17.3174 10.9438 17.3459 10.9147 17.3319C10.9094 17.3293 10.9048 17.3247 10.9021 17.3193C10.8881 17.2902 10.9166 17.2617 10.9457 17.2757C10.9511 17.2783 10.9557 17.2829 10.9583 17.2883Z" fill="#41479B"/>
<path d="M11.1733 16.9452C11.2097 17.0129 11.1415 17.0811 11.0738 17.0447C11.0643 17.0396 11.0562 17.0316 11.0512 17.0221C11.0147 16.9544 11.083 16.8861 11.1507 16.9226C11.1601 16.9277 11.1682 16.9357 11.1733 16.9452Z" fill="#F5F5F5"/>
<path d="M11.1351 16.9723C11.145 16.9951 11.1232 17.0169 11.1004 17.007C11.0952 17.0048 11.0907 17.0002 11.0884 16.995C11.0785 16.9722 11.1003 16.9504 11.1231 16.9603C11.1283 16.9625 11.1328 16.9671 11.1351 16.9723Z" fill="#41479B"/>
<path d="M8.58219 18.7049C8.50109 18.7673 8.22055 18.6298 8.0233 18.6955C7.76835 18.7805 7.77051 18.9444 7.77051 18.9444C7.77051 18.9444 7.92937 18.7472 8.19397 18.8443C8.34036 18.898 8.42549 18.9007 8.42549 18.9007L8.58219 18.7049Z" fill="#FFF5E6"/>
<path d="M13.1903 17.7421C13.1363 17.7351 13.0682 17.7186 13.0635 17.6365C13.0635 17.6365 13.1856 17.6247 13.1856 17.6341C13.1856 17.6435 13.1903 17.7421 13.1903 17.7421Z" fill="#FFE15A"/>
<path d="M14.4198 17.4369C14.3587 17.4541 14.2992 17.4667 14.2805 17.5418C14.2805 17.5418 14.2178 17.4166 14.3055 17.3414C14.3214 17.3277 14.4198 17.4369 14.4198 17.4369Z" fill="#FF4B55"/>
<path d="M14.16 17.2271C14.0989 17.2443 14.0394 17.2569 14.0207 17.332C14.0207 17.332 13.9581 17.2068 14.0457 17.1316C14.0617 17.118 14.16 17.2271 14.16 17.2271Z" fill="#FF4B55"/>
<path d="M14.3975 17.6623C14.4351 17.6529 14.5008 17.5684 14.4163 17.4369C14.3317 17.3054 14.7028 17.5026 14.7168 17.6106C14.7309 17.7186 14.745 17.9112 14.6605 17.8595C14.576 17.8079 14.3975 17.6623 14.3975 17.6623Z" fill="#FFE15A"/>
<path d="M13.9954 17.6764C13.9829 17.6075 13.9954 17.5606 13.9078 17.498C13.8201 17.4353 13.8076 17.4009 13.8076 17.3602C13.8076 17.3602 13.8554 17.4111 13.9399 17.4322C13.9916 17.4451 14.0362 17.4823 14.0362 17.4823C14.0362 17.4823 14.0581 17.404 13.9798 17.3602C13.9798 17.3602 14.1176 17.3602 14.1395 17.4854C14.1615 17.6107 14.0894 17.6295 14.1928 17.642C14.2961 17.6545 14.5372 17.6044 14.6217 17.7954C14.7062 17.9864 14.4495 17.8487 14.3807 17.8236C14.3118 17.7986 14.0926 17.8518 14.0582 17.8048C14.0236 17.7578 13.9954 17.6764 13.9954 17.6764Z" fill="#FF4B55"/>
<path d="M14.8981 18.0193L14.5271 17.4087C14.5271 17.4087 14.1585 17.2663 14.1553 17.2475C14.1522 17.2287 14.0332 17.0753 14.0332 17.0534C14.0332 17.0315 14.0457 16.925 14.0927 16.9063C14.1397 16.8875 14.2892 16.9506 14.3542 16.9671C14.4191 16.9837 14.5216 16.8624 14.5216 16.8624C14.5216 16.8624 15.1197 16.9751 15.1635 17.0471C15.2073 17.1191 15.414 17.6358 15.4234 17.689C15.4327 17.7422 15.4234 18.1085 15.4108 18.1023C15.3983 18.0959 14.8981 18.0193 14.8981 18.0193Z" fill="#FFF5E6"/>
<path d="M14.0451 17.1598C14.0451 17.1598 14.1609 17.2318 14.2235 17.2537C14.2862 17.2756 14.3912 17.1583 14.3738 17.094C14.3519 17.0126 14.258 17.0126 14.2142 16.9469C14.1703 16.8811 14.067 16.8811 14.0106 16.9626C13.9543 17.0439 14.0451 17.1598 14.0451 17.1598ZM14.1925 17.0642C14.2193 17.0453 14.2732 17.0474 14.2727 17.0838C14.2723 17.1202 14.2078 17.1611 14.1821 17.1283C14.1611 17.1015 14.175 17.0766 14.1925 17.0642ZM14.0667 16.9851C14.0824 16.9562 14.1315 16.9343 14.1473 16.9672C14.163 17.0001 14.1231 17.0652 14.0855 17.0471C14.0549 17.0324 14.0564 17.0039 14.0667 16.9851Z" fill="#FF4B55"/>
<path d="M13.8917 19.3312C13.8293 19.3374 13.7467 19.3289 13.7295 19.1877C13.7098 19.0259 13.6609 18.9694 13.5798 19.0068C13.4987 19.0442 13.5188 19.1089 13.5188 19.1089C13.5188 19.1089 13.4296 19.3437 13.4765 19.4377C13.5235 19.5316 13.6315 19.6443 13.7114 19.6631C13.7913 19.6818 13.9556 19.5738 13.9556 19.5738L13.8917 19.3312Z" fill="#FFF5E6"/>
<path d="M14.3422 18.7848C14.2889 18.7598 13.6314 18.3026 13.5531 18.1305C13.4748 17.9583 13.5187 17.833 13.4154 17.8268C13.3121 17.8205 13.1367 17.8143 13.1523 17.6859C13.168 17.5575 13.3402 17.6389 13.3872 17.6139C13.4342 17.5888 13.5813 17.5199 13.6095 17.6202C13.6377 17.7204 13.6095 17.8112 13.6502 17.8612C13.6909 17.9113 13.8725 17.999 13.9038 17.9927C13.9352 17.9864 14.002 17.9783 14.0531 18.0105C14.1042 18.0428 14.1324 18.0866 14.1324 18.0866C14.1324 18.0866 14.325 18.0944 14.3523 18.1203C14.3797 18.1461 14.4831 18.2838 14.4831 18.2838L14.3422 18.7848Z" fill="#FFE6D7"/>
<path d="M14.2736 18.6814C14.2736 18.6814 14.1483 18.6345 14.0591 18.4607C13.9698 18.2869 13.8806 18.3574 13.7491 18.2635C13.6176 18.1695 13.7021 18.0286 13.7397 17.9723C13.7773 17.9159 13.7515 17.7703 13.6223 17.775C13.5373 17.7781 13.2654 18.0427 13.3875 18.3057C13.3875 18.3057 13.4063 18.2588 13.4532 18.2024C13.4532 18.2024 13.3828 18.3762 13.5472 18.5688C13.5472 18.5688 13.5425 18.4701 13.5941 18.4044C13.5941 18.4044 13.5988 18.6486 13.7867 18.8036C13.7867 18.8036 13.7632 18.6439 13.7914 18.5782C13.7914 18.5782 13.8196 18.7895 14.0967 18.9821C14.0967 18.9821 14.0544 18.907 14.0638 18.7848L14.2987 18.907L14.2736 18.6814Z" fill="#5AA587"/>
<path d="M16.0602 19.4846C16.0602 19.4846 16.1447 19.7429 15.9146 19.8181C15.6845 19.8932 15.5576 19.7946 15.4731 19.8181C15.3886 19.8415 15.4073 19.9918 15.5248 20.1186C15.6422 20.2454 15.7596 20.2595 15.8911 20.1656C16.0226 20.0716 16.032 19.9871 16.1682 20.02C16.3044 20.0529 16.4922 19.9214 16.4922 19.9214C16.4922 19.9214 16.3701 19.3907 16.356 19.3953C16.342 19.4001 16.0602 19.4846 16.0602 19.4846Z" fill="#F5DCD2"/>
<path d="M17.254 18.8384C17.254 18.8384 17.0919 18.6824 16.4619 18.4891C15.8319 18.2957 15.495 18.2146 15.495 18.2146L15.0022 18.0587C15.0022 18.0587 14.7703 18.0578 14.6181 18.0146C14.4658 17.9713 14.4658 17.9713 14.4658 17.9713C14.4658 17.9713 14.0603 18.5452 14.366 19.1253L14.26 19.2251C14.26 19.2251 14.1485 19.2591 14.0639 19.2889C13.9793 19.3187 14.0417 19.4808 14.0417 19.4808L14.3661 19.6306L15.3142 19.5869C15.3142 19.5869 15.3329 19.5432 15.6448 19.6431C15.9567 19.7429 16.0939 19.5183 16.6927 19.4996C17.2915 19.4808 17.254 18.8384 17.254 18.8384Z" fill="#FFF5E6"/>
<path d="M14.5545 16.5993C14.5545 16.5993 14.459 16.6948 14.5107 16.7966C14.5107 16.7966 14.6171 16.687 14.7048 16.6619C14.8397 16.6234 14.8676 16.6972 15.1658 16.7113C15.3535 16.7201 15.4293 16.8999 15.6128 16.856C15.8092 16.8091 15.9713 16.8991 15.9713 16.8991C15.9713 16.8991 15.8586 16.8851 15.767 16.9719C15.6754 17.0588 15.5134 17.04 15.5134 17.04C15.5134 17.04 15.6613 17.1433 15.7858 17.094C15.9102 17.0447 16.0887 17.1363 16.0887 17.1363C16.0559 17.1339 15.9831 17.1456 15.9008 17.2325C15.8187 17.3194 15.6355 17.2983 15.6355 17.2983C15.6683 17.3382 15.7599 17.3828 15.8465 17.3663C16.0426 17.3287 16.2519 17.4162 16.2519 17.4162C16.2519 17.4162 16.1272 17.3726 15.9588 17.4973C15.7904 17.622 15.597 17.5472 15.597 17.5472C15.597 17.6283 15.7658 17.9407 16.0653 17.93C16.4382 17.9168 16.5327 18.1335 16.5327 18.1335C16.5327 18.1335 16.3829 18.0836 16.1896 18.1148C15.815 18.1752 15.5596 17.9589 15.5596 17.9589C15.5596 17.9589 15.622 18.252 15.8777 18.2395C16.1335 18.2271 16.4578 18.4891 16.4578 18.4891C16.4578 18.4891 16.1697 18.4371 15.7976 18.4326C15.6752 18.4311 15.5757 18.3828 15.4906 18.3254C15.2669 18.1743 15.0602 18.1743 15.0602 18.1743C15.3045 18.2306 15.4312 18.4983 15.4312 18.4983C15.4312 18.4983 15.2434 18.3339 14.971 18.3339C14.6986 18.3339 14.614 18.0146 14.614 18.0146C14.8677 18.0192 14.9052 17.8126 14.9052 17.8126C14.9052 17.8126 14.9804 17.8361 15.0508 17.9206C15.0954 17.9741 15.1707 17.9922 15.2223 17.9995C15.2411 17.8347 15.1167 17.6844 15.1167 17.6844C15.1167 17.6844 15.2851 17.4286 15.0668 17.1542C14.8485 16.8797 14.3495 16.967 14.3495 16.967C14.2978 16.7371 14.4919 16.593 14.5545 16.5993Z" fill="#5AA587"/>
<path d="M15.0625 17.5073C14.981 17.4948 14.6022 17.3696 14.6085 17.2005C14.6148 17.0314 14.8402 17.0909 14.8277 17.1817C14.8151 17.2725 14.7337 17.2537 14.7337 17.2537C14.7337 17.2537 14.7416 17.2946 14.9091 17.3288C15.0468 17.357 15.0625 17.5073 15.0625 17.5073Z" fill="#5AA587"/>
<path d="M14.0597 19.2889C14.0597 19.2889 13.8248 19.2513 13.8343 19.4204C13.8436 19.5895 13.9783 19.7679 14.257 19.8462C14.257 19.8462 14.1537 19.757 14.1771 19.7053C14.2006 19.6537 14.3181 19.6396 14.3791 19.7288C14.4402 19.8181 14.5435 19.8556 14.6327 19.8415C14.6327 19.8415 14.473 19.7241 14.5858 19.6818C14.6873 19.6438 14.6484 19.8086 14.891 19.8368C14.891 19.8368 14.7126 19.6959 14.8159 19.6584C14.9192 19.6208 14.9756 19.865 15.1587 19.8462C15.1587 19.8462 15.0053 19.6928 15.0883 19.6678C15.219 19.6283 15.2527 19.8556 15.4875 19.757C15.4875 19.757 15.3701 19.7054 15.464 19.5786C15.558 19.4518 15.4264 19.2921 15.3607 19.2263C15.295 19.1605 15.248 19.1183 15.2668 19.0525C15.2668 19.0525 15.0993 19.1575 15.1838 19.3422C15.2632 19.5157 14.9419 19.4199 14.6923 19.3985C14.4355 19.3766 14.2832 19.5239 14.1193 19.4737C13.9657 19.4267 14.0597 19.2889 14.0597 19.2889Z" fill="#5AA587"/>
<path d="M18.6037 19.3686C18.6037 19.3686 18.2956 19.5106 18.121 19.3672C17.9463 19.2237 17.8989 19.3935 17.693 19.2688C17.4872 19.144 17.4996 19.2126 17.3375 19.2126C17.1753 19.2126 17.0568 18.9506 17.1566 18.7697C17.1566 18.7697 16.8179 18.6384 16.8873 18.3668C16.939 18.1649 17.194 18.2271 17.194 18.2271C17.194 18.2271 17.4631 18.0579 17.6493 18.277C17.8016 18.4561 17.7179 18.5764 17.9737 18.6076C18.2294 18.6388 18.2668 18.9008 18.5413 18.8696C18.5413 18.8696 18.3542 19.1129 18.0672 18.9569C18.0672 18.9569 18.074 19.1918 18.6037 19.3686Z" fill="#5AA587"/>
<path d="M15.8775 19.8274C15.8775 19.8274 15.6145 20.0623 16.1311 20.2032C16.1311 20.2032 16.0983 20.1609 16.0607 20.0857C16.0607 20.0857 16.2204 20.2032 16.427 20.1937C16.427 20.1937 16.3659 20.1468 16.3519 20.0904C16.3519 20.0904 16.5397 20.1421 16.6759 20.0528C16.6759 20.0528 16.5115 20.0435 16.4082 19.8885C16.4082 19.8885 16.3612 19.9824 16.2626 19.9354C16.164 19.8884 16.1075 19.956 16.0184 19.9589C15.9455 19.9612 15.8822 19.9237 15.8775 19.8274Z" fill="#5AA587"/>
<path d="M16.0076 18.3777C16.0076 18.3777 16.1955 18.4654 16.1078 18.6313C16.0493 18.742 15.8662 18.7685 15.7947 18.6658C15.7336 18.5781 15.782 18.493 15.8463 18.4811C15.9136 18.4685 15.9543 18.4967 15.9856 18.5531C15.9856 18.5531 16.1015 18.5093 16.0076 18.3777Z" fill="#5AA587"/>
<path d="M15.1646 18.6697C15.1646 18.6697 14.7566 18.6852 14.7771 18.9679C14.7861 19.0923 14.9543 19.1792 15.0605 19.114C15.1511 19.0583 15.1364 18.9656 15.0892 18.9245C15.0371 18.8792 14.9856 18.8956 14.9346 18.9345C14.9346 18.9345 14.9086 18.7801 15.1646 18.6697Z" fill="#5AA587"/>
<path d="M14.3485 18.1202C14.3485 18.1202 14.1283 17.9725 14.0426 18.1483C14.005 18.2257 14.0753 18.3358 14.1612 18.3337C14.2346 18.3318 14.2579 18.2714 14.244 18.2305C14.2286 18.1855 14.1922 18.1773 14.1482 18.1829C14.1482 18.1829 14.1348 18.0686 14.3485 18.1202Z" fill="#5AA587"/>
<path d="M14.0496 18.0105C14.0496 18.0105 13.8465 17.8742 13.7674 18.0364C13.7326 18.1078 13.7975 18.2094 13.8768 18.2074C13.9445 18.2057 13.966 18.15 13.9531 18.1122C13.939 18.0707 13.9054 18.0632 13.8648 18.0684C13.8648 18.0684 13.8525 17.9628 14.0496 18.0105Z" fill="#5AA587"/>
<path d="M14.8106 18.9114C14.8106 18.9114 14.4596 18.9247 14.4772 19.168C14.4849 19.275 14.6297 19.3498 14.7211 19.2936C14.799 19.2457 14.8032 19.1579 14.7694 19.1159C14.7107 19.0431 14.6403 19.076 14.6403 19.076C14.6403 19.076 14.5904 19.0063 14.8106 18.9114Z" fill="#5AA587"/>
<path d="M14.5536 19.1042C14.5536 19.1042 14.1661 19.0666 14.1949 19.3281C14.2024 19.3964 14.2924 19.4444 14.3509 19.4085C14.4008 19.3778 14.4034 19.3216 14.3818 19.2948C14.3442 19.2482 14.2991 19.2692 14.2991 19.2692C14.2991 19.2692 14.3234 19.1535 14.5536 19.1042Z" fill="#5AA587"/>
<path d="M17.0413 20.3479C17.0413 20.3479 16.9883 20.4555 16.954 20.5599C16.9246 20.6493 16.7731 20.7097 16.692 20.6535C16.6109 20.5973 16.474 20.4296 16.5301 20.3922C16.5862 20.3547 16.8292 20.3853 16.8666 20.2543C16.904 20.1233 16.8916 20.0359 16.8916 20.0359C16.8916 20.0359 16.5665 20.1326 16.4115 19.8884C16.2565 19.6442 16.2786 19.4057 16.2179 19.2874C16.1704 19.1949 16.0869 19.1501 16.0869 19.1501C16.1824 18.7721 17.3469 18.5014 17.2118 19.4828L17.3947 19.8986L17.0413 20.3479Z" fill="#FFE6D7"/>
<path d="M17.4529 20.3316C17.3731 20.3833 17.0803 20.532 16.8987 20.4193C16.7502 20.3271 16.7484 20.222 16.8424 20.1986C16.9363 20.1751 16.988 20.2408 17.0396 20.1986C17.0913 20.1563 17.3825 19.9167 17.2745 19.8416C17.1665 19.7665 17.108 19.7057 17.1101 19.5739C17.1116 19.4768 17.1962 19.3829 17.2964 19.3735C17.4213 19.3618 17.5187 19.4142 17.6502 19.4142L17.4967 19.4925C17.5954 19.5395 17.6032 19.6725 17.7206 19.696C17.7206 19.696 17.6408 19.7868 17.5406 19.7586C17.5406 19.7586 17.575 19.8526 17.669 19.8651C17.669 19.8651 17.5813 19.9653 17.4999 19.9935C17.4999 19.9935 17.5531 20.0311 17.6361 20.0154C17.6361 20.0154 17.5062 20.2064 17.3121 20.2549L17.4529 20.3316Z" fill="#5AA587"/>
<path d="M16.8878 19.974C16.8878 19.974 16.8356 19.9649 16.8311 19.9014C16.8285 19.8648 16.8651 19.8173 16.9273 19.8209C17.0002 19.8251 17.0496 19.9219 17.0146 19.986C16.9253 20.1501 16.5924 20.0843 16.5518 20.0248C16.5518 20.0248 16.8179 20.0373 16.8878 19.974Z" fill="#5AA587"/>
<path d="M16.7366 20.7543C16.7221 20.7339 16.7104 20.6787 16.7385 20.6447C16.7385 20.6447 16.7232 20.566 16.6634 20.5942C16.6634 20.5942 16.6379 20.6572 16.6583 20.701C16.6786 20.7448 16.7366 20.7543 16.7366 20.7543Z" fill="#FFE15A"/>
<path d="M16.6152 20.7101C16.6162 20.6534 16.6289 20.6224 16.6747 20.6177C16.6747 20.6177 16.6864 20.5355 16.6183 20.5355C16.6183 20.5355 16.5679 20.5801 16.5674 20.6284C16.5669 20.6768 16.6152 20.7101 16.6152 20.7101Z" fill="#FFE15A"/>
<path d="M16.5395 20.6552C16.5507 20.5995 16.5612 20.5608 16.6122 20.557C16.6122 20.557 16.6394 20.4897 16.5642 20.4803C16.5642 20.4803 16.5163 20.5188 16.5072 20.5662C16.498 20.6136 16.5395 20.6552 16.5395 20.6552Z" fill="#FFE15A"/>
<path d="M16.4636 20.5688C16.4867 20.517 16.5097 20.4962 16.5603 20.5038C16.5603 20.5038 16.6038 20.4427 16.5439 20.4098C16.5439 20.4098 16.471 20.4306 16.4516 20.4749C16.4323 20.5192 16.4636 20.5688 16.4636 20.5688Z" fill="#FFE15A"/>
<path d="M15.572 20.2512C15.5614 20.2286 15.5597 20.1722 15.5934 20.1437C15.5934 20.1437 15.5923 20.0636 15.5284 20.0807C15.5284 20.0807 15.4922 20.1382 15.5045 20.1849C15.5167 20.2317 15.572 20.2512 15.572 20.2512Z" fill="#FFE15A"/>
<path d="M15.4596 20.1861C15.4707 20.1304 15.4887 20.1021 15.5346 20.1057C15.5346 20.1057 15.5608 20.0269 15.4937 20.0148C15.4937 20.0148 15.4361 20.0497 15.4271 20.0972C15.418 20.1447 15.4596 20.1861 15.4596 20.1861Z" fill="#FFE15A"/>
<path d="M15.3951 20.1186C15.4159 20.0658 15.4332 20.0296 15.4841 20.0349C15.4841 20.0349 15.5227 19.9735 15.4504 19.9509C15.4504 19.9509 15.3964 19.9802 15.3791 20.0253C15.3616 20.0704 15.3951 20.1186 15.3951 20.1186Z" fill="#FFE15A"/>
<path d="M15.3366 20.0202C15.3686 19.9733 15.3949 19.957 15.4433 19.9733C15.4433 19.9733 15.4969 19.921 15.4438 19.878C15.4438 19.878 15.3684 19.8855 15.3415 19.9257C15.3146 19.9658 15.3366 20.0202 15.3366 20.0202Z" fill="#FFE15A"/>
<path d="M14.008 17.1285C13.9978 17.1793 14.0236 17.2349 14.1457 17.2882C14.2678 17.3414 14.2647 17.3195 14.3461 17.4228C14.4275 17.5261 14.4369 17.5293 14.5371 17.5481C14.6374 17.5669 14.6843 17.8768 14.5653 17.8299C14.4463 17.7829 14.4307 17.6858 14.2992 17.7171C14.1676 17.7485 14.0988 17.7923 13.9955 17.6765C13.9955 17.6765 13.8952 17.8111 14.0831 17.8675C14.271 17.9238 14.3734 17.9282 14.4663 17.9714C14.559 18.0146 14.8881 18.1203 14.9097 17.8126C14.916 17.7234 14.8503 17.689 14.8127 17.6232C14.7751 17.5574 14.7375 17.5136 14.6467 17.4416C14.5559 17.3696 14.6123 17.3101 14.4651 17.2882C14.318 17.2663 14.1958 17.2694 14.152 17.1629C14.1082 17.0565 14.0205 17.0659 14.008 17.1285Z" fill="#FFE6D7"/>
<path d="M16.4758 18.6212C16.4758 18.6212 16.504 18.509 16.3732 18.4615C16.404 18.4708 16.4321 18.4792 16.4645 18.4891C16.492 18.4975 16.5138 18.5055 16.5396 18.5138C16.5497 18.5273 16.5632 18.5345 16.5699 18.5535C16.6097 18.665 16.5113 18.8096 16.3939 18.7938C16.2938 18.7804 16.2654 18.6922 16.2981 18.6398C16.3323 18.5848 16.4077 18.5719 16.4758 18.6212Z" fill="#5AA587"/>
<path d="M16.4351 19.8123C16.577 19.844 16.641 19.7892 16.641 19.7892C16.641 19.7892 16.5888 19.7802 16.5843 19.7166C16.5817 19.68 16.6183 19.6325 16.6805 19.6361C16.7534 19.6402 16.8028 19.737 16.7679 19.8012C16.691 19.9423 16.4725 19.909 16.3762 19.8089C16.3711 19.7986 16.3659 19.7884 16.3613 19.7782C16.3824 19.7915 16.4094 19.8065 16.4351 19.8123Z" fill="#5AA587"/>
<path d="M16.2911 19.5749C16.2875 19.5588 16.2823 19.5426 16.2793 19.5272C16.4462 19.5947 16.4948 19.5097 16.4948 19.5097C16.4948 19.5097 16.4427 19.5007 16.4382 19.4371C16.4356 19.4005 16.4721 19.353 16.5343 19.3566C16.6072 19.3608 16.6567 19.4576 16.6217 19.5218C16.5402 19.6715 16.3948 19.6298 16.2911 19.5749Z" fill="#5AA587"/>
<path d="M15.9162 19.6543C16.0132 19.7412 16.0873 19.7364 16.0873 19.7364C16.0873 19.7364 16.0486 19.7004 16.0795 19.6447C16.0973 19.6126 16.1539 19.5928 16.204 19.6297C16.2628 19.6731 16.2514 19.7811 16.1871 19.8158C16.0288 19.9011 15.926 19.7692 15.8711 19.6629C15.886 19.661 15.9011 19.6574 15.9162 19.6543Z" fill="#5AA587"/>
<path d="M13.4156 19.5702C13.4226 19.5356 13.4589 19.4698 13.5034 19.4653C13.5034 19.4653 13.556 19.3729 13.4962 19.3394C13.4962 19.3394 13.4305 19.3749 13.4086 19.4385C13.3867 19.5021 13.4156 19.5702 13.4156 19.5702Z" fill="#FFE15A"/>
<path d="M13.3741 19.4026C13.4196 19.3483 13.4521 19.3309 13.4845 19.3731C13.4845 19.3731 13.5568 19.3048 13.5141 19.2354C13.5141 19.2354 13.4473 19.2275 13.4088 19.2742C13.3703 19.3209 13.3741 19.4026 13.3741 19.4026Z" fill="#FFE15A"/>
<path d="M13.3701 19.272C13.4211 19.229 13.4583 19.202 13.4933 19.2503C13.4933 19.2503 13.5635 19.2122 13.5238 19.1264C13.5238 19.1264 13.4634 19.1151 13.4201 19.1521C13.3769 19.1892 13.3701 19.272 13.3701 19.272Z" fill="#FFE15A"/>
<path d="M13.3906 19.1108C13.4461 19.0838 13.4769 19.0869 13.5027 19.1458C13.5027 19.1458 13.5781 19.1305 13.5666 19.0374C13.5666 19.0374 13.5044 18.9834 13.4573 19.0069C13.4102 19.0304 13.3906 19.1108 13.3906 19.1108Z" fill="#FFE15A"/>
<path d="M14.5249 17.2552C14.4783 17.3394 14.5638 17.4248 14.6479 17.3783C14.6588 17.3723 14.6679 17.3631 14.6739 17.3523C14.7205 17.2682 14.635 17.1827 14.5509 17.2293C14.54 17.2353 14.5309 17.2445 14.5249 17.2552Z" fill="#F5F5F5"/>
<path d="M14.5711 17.2883C14.557 17.3174 14.5856 17.3459 14.6147 17.3319C14.62 17.3293 14.6246 17.3247 14.6272 17.3193C14.6413 17.2902 14.6128 17.2617 14.5836 17.2757C14.5783 17.2783 14.5737 17.2829 14.5711 17.2883Z" fill="#41479B"/>
<path d="M14.3568 16.9452C14.3204 17.0129 14.3887 17.0811 14.4563 17.0447C14.4658 17.0396 14.4739 17.0316 14.479 17.0221C14.5154 16.9544 14.4472 16.8861 14.3795 16.9226C14.37 16.9277 14.3619 16.9357 14.3568 16.9452Z" fill="#F5F5F5"/>
<path d="M14.395 16.9723C14.3852 16.9951 14.407 17.0169 14.4297 17.007C14.435 17.0048 14.4395 17.0002 14.4418 16.995C14.4516 16.9722 14.4298 16.9504 14.4071 16.9603C14.4018 16.9625 14.3973 16.9671 14.395 16.9723Z" fill="#41479B"/>
<path d="M16.9482 18.7049C17.0293 18.7673 17.3099 18.6298 17.5071 18.6955C17.7621 18.7805 17.7599 18.9444 17.7599 18.9444C17.7599 18.9444 17.6011 18.7472 17.3365 18.8443C17.1901 18.898 17.1049 18.9007 17.1049 18.9007L16.9482 18.7049Z" fill="#FFF5E6"/>
</g>
<defs>
<clipPath id="clip0_72_4064">
<path d="M0 2C0 0.895432 0.895431 0 2 0H21.9999C23.1045 0 23.9999 0.895431 23.9999 2V21.9999C23.9999 23.1045 23.1045 23.9999 21.9999 23.9999H2C0.895432 23.9999 0 23.1045 0 21.9999V2Z" fill="white"/>
</clipPath>
</defs>
</svg>
