<svg width="24" height="24" viewBox="0 0 24 24" fill="none" xmlns="http://www.w3.org/2000/svg">
<g clip-path="url(#clip0_72_4226)">
<path d="M23.9978 6.10352e-05H-0.00195312V23.9998H23.9978V6.10352e-05Z" fill="#41479B"/>
<path d="M22.3453 19.6406H5.79369C5.56518 19.6406 5.37988 19.4553 5.37988 19.2268C5.37988 18.9983 5.56513 18.813 5.79369 18.813H22.3453L22.7591 19.2268L22.3453 19.6406Z" fill="#FFE15A"/>
<path d="M22.5524 18.3992H5.79395C5.79395 18.3992 12.4146 10.951 18.6214 9.29585C18.6214 9.29585 16.5524 14.6751 21.5179 17.9854H22.5524C22.6667 17.9854 22.7593 18.078 22.7593 18.1923C22.7593 18.3066 22.6667 18.3992 22.5524 18.3992Z" fill="#FFE15A"/>
<path d="M6.18116 9.57904L6.3417 10.0604L6.84917 10.0644C6.91489 10.0649 6.94212 10.1488 6.88924 10.1878L6.48101 10.4892L6.63411 10.973C6.65393 11.0357 6.58259 11.0875 6.52915 11.0493L6.11628 10.7542L5.70341 11.0493C5.64998 11.0875 5.57863 11.0357 5.59846 10.973L5.75155 10.4892L5.34332 10.1878C5.29045 10.1487 5.31773 10.0649 5.3834 10.0644L5.89086 10.0604L6.05141 9.57904C6.07222 9.51675 6.16039 9.51675 6.18116 9.57904Z" fill="#F5F5F5"/>
<path d="M6.16831 2.96027L6.29858 3.35083L6.71028 3.35402C6.76357 3.35444 6.7857 3.42245 6.74281 3.45414L6.41159 3.69873L6.53576 4.09126C6.55184 4.14207 6.494 4.18412 6.45059 4.15313L6.11563 3.9137L5.78066 4.15313C5.7373 4.18412 5.67941 4.14207 5.69549 4.09126L5.81966 3.69873L5.48845 3.45414C5.44556 3.42245 5.46768 3.35444 5.52098 3.35402L5.93268 3.35083L6.06294 2.96027C6.07996 2.90969 6.15144 2.90969 6.16831 2.96027Z" fill="#F5F5F5"/>
<path d="M3.04917 5.37708L3.17944 5.76764L3.59114 5.77083C3.64443 5.77125 3.66656 5.83926 3.62367 5.87095L3.29245 6.11554L3.41662 6.50807C3.4327 6.55888 3.37486 6.60093 3.33145 6.56994L2.99649 6.33051L2.66152 6.56994C2.61816 6.60093 2.56027 6.55888 2.57635 6.50807L2.70052 6.11554L2.36931 5.87095C2.32642 5.83926 2.34854 5.77125 2.40184 5.77083L2.81354 5.76764L2.9438 5.37708C2.96082 5.3265 3.03235 5.3265 3.04917 5.37708Z" fill="#F5F5F5"/>
<path d="M8.39888 5.21231L8.4991 5.51287L8.81592 5.51531C8.85694 5.51563 8.87396 5.56799 8.84096 5.59232L8.5861 5.78052L8.68168 6.08258C8.69405 6.12167 8.64952 6.15406 8.61615 6.13021L8.35838 5.94599L8.10062 6.13021C8.06724 6.15406 8.02271 6.12172 8.03509 6.08258L8.13067 5.78052L7.87581 5.59232C7.84281 5.56795 7.85982 5.51559 7.90084 5.51531L8.21766 5.51287L8.31788 5.21231C8.33087 5.1734 8.3859 5.1734 8.39888 5.21231Z" fill="#F5F5F5"/>
</g>
<defs>
<clipPath id="clip0_72_4226">
<path d="M0 2C0 0.895432 0.895431 0 2 0H21.9998C23.1043 0 23.9998 0.895431 23.9998 2V21.9998C23.9998 23.1043 23.1043 23.9998 21.9998 23.9998H2C0.895432 23.9998 0 23.1043 0 21.9998V2Z" fill="white"/>
</clipPath>
</defs>
</svg>
