<svg width="24" height="24" viewBox="0 0 24 24" fill="none" xmlns="http://www.w3.org/2000/svg">
<g clip-path="url(#clip0_72_4249)">
<path d="M23.9968 6.10352e-05H-0.00292969V23.9998H23.9968V6.10352e-05Z" fill="#FF4B55"/>
<path d="M12.0688 5.68421C15.5543 5.68421 18.3795 8.51698 18.3795 11.9999C18.3795 15.493 15.5543 18.3157 12.0688 18.3157C8.57575 18.3157 5.74805 15.493 5.74805 11.9999C5.74805 8.51698 8.57575 5.68421 12.0688 5.68421Z" fill="#F5F5F5"/>
<path d="M13.2153 15.539C11.2601 15.539 9.67425 13.9531 9.67425 12.0003C9.67425 10.0521 11.2601 8.4663 13.2153 8.4663C13.8803 8.4663 14.5017 8.65262 15.0329 8.97437C15.1125 9.02256 15.1961 8.91835 15.1298 8.85306C14.333 8.06796 13.2418 7.58158 12.0365 7.58158C9.5896 7.58158 7.6084 9.56278 7.6084 12.0003C7.6084 14.4424 9.5896 16.4236 12.0365 16.4236C13.2412 16.4236 14.3318 15.9377 15.1286 15.1527C15.1949 15.0874 15.1112 14.9832 15.0316 15.0314C14.5007 15.3529 13.8798 15.539 13.2153 15.539Z" fill="#FF4B55"/>
<path d="M12.891 9.52342L13.8672 10.8488L15.4373 10.3543C15.6405 10.2903 15.8083 10.5218 15.6842 10.6951L14.7253 12.033L15.6808 13.3734C15.8045 13.5469 15.6361 13.7781 15.433 13.7135L13.8642 13.215L12.8847 14.538C12.7579 14.7092 12.486 14.6205 12.4846 14.4074L12.4739 12.7614L10.9131 12.2386C10.711 12.1709 10.7114 11.8849 10.9136 11.8178L12.4758 11.299L12.4906 9.65293C12.4926 9.43984 12.7647 9.35185 12.891 9.52342Z" fill="#FF4B55"/>
</g>
<defs>
<clipPath id="clip0_72_4249">
<path d="M0 2C0 0.895432 0.895431 0 2 0H21.9998C23.1043 0 23.9998 0.895431 23.9998 2V21.9998C23.9998 23.1043 23.1043 23.9998 21.9998 23.9998H2C0.895432 23.9998 0 23.1043 0 21.9998V2Z" fill="white"/>
</clipPath>
</defs>
</svg>
