<svg width="24" height="24" viewBox="0 0 24 24" fill="none" xmlns="http://www.w3.org/2000/svg">
<g clip-path="url(#clip0_72_4255)">
<path d="M23.9959 6.10352e-05H-0.00390625V23.9998H23.9959V6.10352e-05Z" fill="#FF4B55"/>
<path d="M13.0245 9.92264L13.7587 10.883L14.9051 10.4993C14.9692 10.4779 15.0237 10.5504 14.9853 10.606L14.2987 11.601L15.0179 12.5727C15.0582 12.6271 15.0061 12.7013 14.9413 12.682L13.7828 12.3365L13.0809 13.3208C13.0417 13.3758 12.9549 13.3493 12.9533 13.2817L12.9239 12.0731L11.7709 11.7098C11.7064 11.6895 11.7049 11.5988 11.7687 11.5763L12.909 11.1749L12.8983 9.96604C12.8977 9.8984 12.9834 9.86896 13.0245 9.92264Z" fill="#F5F5F5"/>
<path d="M8.96421 15.2767C6.89522 15.2767 5.21683 13.5984 5.21683 11.5275C5.21683 9.46041 6.89522 7.77827 8.96421 7.77827C9.73399 7.77827 10.4439 8.01503 11.0355 8.41571C11.1261 8.47707 11.2295 8.35801 11.1536 8.27917C10.2694 7.35991 9.01803 6.79915 7.63059 6.84649C5.24688 6.92782 3.2735 8.83899 3.12121 11.2192C2.94674 13.9456 5.1055 16.2113 7.79329 16.2113C9.11726 16.2113 10.3071 15.6578 11.1569 14.7728C11.232 14.6947 11.1283 14.5774 11.0386 14.6382C10.4464 15.0397 9.73535 15.2767 8.96421 15.2767Z" fill="#F5F5F5"/>
</g>
<defs>
<clipPath id="clip0_72_4255">
<path d="M0 2C0 0.895432 0.895431 0 2 0H21.9998C23.1043 0 23.9998 0.895431 23.9998 2V21.9998C23.9998 23.1043 23.1043 23.9998 21.9998 23.9998H2C0.895432 23.9998 0 23.1043 0 21.9998V2Z" fill="white"/>
</clipPath>
</defs>
</svg>
