<svg width="24" height="24" viewBox="0 0 24 24" fill="none" xmlns="http://www.w3.org/2000/svg">
<g clip-path="url(#clip0_72_4260)">
<path d="M23.9959 6.10352e-05H-0.00390625V23.9998H23.9959V6.10352e-05Z" fill="#73AF00"/>
<path d="M8.41158 6.10352e-05H2.0957V23.9998H8.41158V6.10352e-05Z" fill="#FF4B55"/>
<path d="M7.78015 2.73688L6.51697 3.7895H3.99071L2.72754 2.73688V1.68427L3.99071 0.631655H6.51697L7.78015 1.68427V2.73688Z" fill="#F5F5F5"/>
<path d="M7.78112 11.5788L6.51795 12.6314H3.99169L2.72852 11.5788V10.5261L3.99169 9.47353H6.51795L7.78112 10.5261V11.5788Z" fill="#73AF00"/>
<path d="M7.78112 7.15779L6.51795 8.2104H3.99169L2.72852 7.15779V6.10517L3.99169 5.05251H6.51795L7.78112 6.10517V7.15779Z" fill="#73AF00"/>
<path d="M7.78112 15.9998L6.51795 17.0524H3.99169L2.72852 15.9998V14.9472L3.99169 13.8946H6.51795L7.78112 14.9472V15.9998Z" fill="#73AF00"/>
<path d="M2.09668 3.15796L3.35985 4.42114L2.09668 5.68427V3.15796Z" fill="#FFB400"/>
<path d="M8.41254 5.68427L7.14941 4.42114L8.41254 3.15796V5.68427Z" fill="#FFB400"/>
<path d="M2.09668 7.57899L3.35985 8.84216L2.09668 10.1053V7.57899Z" fill="#FFB400"/>
<path d="M8.41254 10.1053L7.14941 8.84216L8.41254 7.57899V10.1053Z" fill="#FFB400"/>
<path d="M2.09668 12L3.35985 13.2631L2.09668 14.5263V12Z" fill="#FFB400"/>
<path d="M8.41254 14.5263L7.14941 13.2631L8.41254 12V14.5263Z" fill="#FFB400"/>
<path d="M2.09668 16.421L3.35985 17.6841L2.09668 18.9473V16.421Z" fill="#FFB400"/>
<path d="M8.41254 18.9473L7.14941 17.6841L8.41254 16.421V18.9473Z" fill="#FFB400"/>
<path d="M2.09668 0.00012207H3.35985L2.09668 1.26325V0.00012207Z" fill="#FFB400"/>
<path d="M8.41254 1.26325L7.14941 0.00012207H8.41254V1.26325Z" fill="#FFB400"/>
<path d="M5.57006 5.05273H4.93848V8.21067H5.57006V5.05273Z" fill="#FFB400"/>
<path d="M6.51649 6.31594H3.99023V6.94752H6.51649V6.31594Z" fill="#FF4B55"/>
<path d="M7.14917 5.57899L6.51758 5.05269V8.21058L7.14917 7.68422V5.57899Z" fill="#FFB400"/>
<path d="M3.35938 7.68422L3.99096 8.21053V5.05273L3.35938 5.57899V7.68422Z" fill="#FFB400"/>
<path d="M5.25482 0.631718H3.99169L2.72852 1.68429V2.21064H5.25482V0.631718Z" fill="#FFB400"/>
<path d="M5.25488 3.78957H6.51796L7.78119 2.737V2.21064H5.25488V3.78957Z" fill="#FFB400"/>
<path d="M5.25434 3.15791L3.99121 2.21428L5.25434 1.26319L6.51747 2.21428L5.25434 3.15791Z" fill="#FF4B55"/>
<path d="M5.25684 3.15791L6.51996 2.21428L6.51504 2.21058H5.25684V3.15791Z" fill="#73AF00"/>
<path d="M5.25625 2.21058V1.2632L3.99805 2.21058H5.25625Z" fill="#73AF00"/>
<path d="M6.51654 10.1053H3.99023V11.9999H6.51654V10.1053Z" fill="#FF4B55"/>
<path d="M7.14819 10.7367H6.5166V11.3683H7.14819V10.7367Z" fill="#FFB400"/>
<path d="M5.56909 10.7367H4.9375V11.3683H5.56909V10.7367Z" fill="#F5F5F5"/>
<path d="M5.56909 14.526H4.9375V15.1576H5.56909V14.526Z" fill="#FF4B55"/>
<path d="M6.5144 15.1578H5.88281V15.7894H6.5144V15.1578Z" fill="#FFB400"/>
<path d="M4.61987 15.1578H3.98828V15.7894H4.61987V15.1578Z" fill="#FFB400"/>
<path d="M5.56909 15.7893H4.9375V16.4209H5.56909V15.7893Z" fill="#FF4B55"/>
<path d="M3.98999 10.7367H3.3584V11.3683H3.98999V10.7367Z" fill="#FFB400"/>
<path d="M7.78015 20.4209L6.51697 21.4735H3.99071L2.72754 20.4209V19.3683L3.99071 18.3157H6.51697L7.78015 19.3683V20.4209Z" fill="#F5F5F5"/>
<path d="M5.25482 18.3157H3.99169L2.72852 19.3683V19.8946H5.25482V18.3157Z" fill="#FFB400"/>
<path d="M5.25488 21.4735H6.51796L7.78119 20.421V19.8946H5.25488V21.4735Z" fill="#FFB400"/>
<path d="M6.51747 20.2104L5.25434 20.842L3.99121 20.2104V19.5788L5.25434 18.9473L6.51747 19.5788V20.2104Z" fill="#FF4B55"/>
<path d="M17.0728 3.43904C17.0055 3.40599 16.9447 3.4935 16.9992 3.54492C17.7139 4.2194 18.1656 5.16655 18.1656 6.22306C18.1656 8.29838 16.4975 9.96341 14.4463 9.96341C14.0676 9.96341 13.703 9.90435 13.359 9.79686C13.2877 9.7746 13.2417 9.87022 13.303 9.91283C13.9027 10.3297 14.6256 10.5789 15.4146 10.5789C17.4929 10.5789 19.1912 8.9137 19.1912 6.80828C19.1912 5.32855 18.3227 4.05342 17.0728 3.43904Z" fill="#F5F5F5"/>
<path d="M11.9327 5.87581L11.7782 6.31287L12.1416 6.60058C12.1887 6.63785 12.1613 6.71355 12.1013 6.712L11.6379 6.7001L11.4766 7.13472C11.4557 7.19097 11.3752 7.1883 11.3581 7.13073L11.2263 6.68632L10.7631 6.66724C10.7031 6.66475 10.6808 6.58736 10.7303 6.55338L11.1122 6.29065L10.9873 5.84426C10.9711 5.78647 11.0378 5.74133 11.0854 5.77784L11.4533 6.05988L11.8392 5.80311C11.8892 5.76978 11.9527 5.81923 11.9327 5.87581Z" fill="#F5F5F5"/>
<path d="M13.8097 6.8238L13.6551 7.26086L14.0186 7.54858C14.0656 7.58584 14.0382 7.66155 13.9782 7.66L13.5148 7.64809L13.3535 8.08271C13.3327 8.13896 13.2521 8.13629 13.2351 8.07873L13.1032 7.63431L12.6401 7.61523C12.5801 7.61275 12.5578 7.53536 12.6072 7.50138L12.9892 7.23864L12.8642 6.79226C12.848 6.73446 12.9147 6.68932 12.9624 6.72584L13.3303 7.00788L13.7162 6.7511C13.7661 6.71773 13.8297 6.76723 13.8097 6.8238Z" fill="#F5F5F5"/>
<path d="M13.7911 4.87096L13.6366 5.30802L14 5.59573C14.0471 5.633 14.0197 5.7087 13.9597 5.70715L13.4963 5.69525L13.335 6.12987C13.3141 6.18612 13.2336 6.18345 13.2165 6.12588L13.0847 5.68147L12.6215 5.66239C12.5615 5.6599 12.5392 5.58251 12.5887 5.54853L12.9706 5.2858L12.8456 4.83941C12.8295 4.78162 12.8962 4.73648 12.9438 4.77299L13.3117 5.05503L13.6976 4.79826C13.7476 4.76488 13.8111 4.81438 13.7911 4.87096Z" fill="#F5F5F5"/>
<path d="M13.8546 2.98609L13.7 3.42315L14.0635 3.71086C14.1106 3.74813 14.0831 3.82383 14.0231 3.82228L13.5597 3.81038L13.3984 4.245C13.3776 4.30125 13.2971 4.29857 13.28 4.24101L13.1481 3.7966L12.685 3.77752C12.625 3.77503 12.6027 3.69764 12.6522 3.66366L13.0341 3.40093L12.9091 2.95454C12.893 2.89674 12.9597 2.8516 13.0073 2.88812L13.3752 3.17016L13.7611 2.91339C13.8111 2.88001 13.8746 2.92951 13.8546 2.98609Z" fill="#F5F5F5"/>
<path d="M15.6935 3.93407L15.5389 4.37113L15.9024 4.65885C15.9494 4.69611 15.922 4.77181 15.862 4.77027L15.3986 4.75836L15.2373 5.19298C15.2165 5.24923 15.1359 5.24656 15.1189 5.189L14.987 4.74458L14.5238 4.7255C14.4639 4.72302 14.4416 4.64563 14.491 4.61164L14.873 4.34891L14.748 3.90253C14.7318 3.84473 14.7985 3.79959 14.8461 3.8361L15.2141 4.11815L15.6 3.86137C15.6499 3.828 15.7135 3.87749 15.6935 3.93407Z" fill="#F5F5F5"/>
</g>
<defs>
<clipPath id="clip0_72_4260">
<path d="M0 2C0 0.895432 0.895431 0 2 0H21.9998C23.1043 0 23.9998 0.895431 23.9998 2V21.9998C23.9998 23.1043 23.1043 23.9998 21.9998 23.9998H2C0.895432 23.9998 0 23.1043 0 21.9998V2Z" fill="white"/>
</clipPath>
</defs>
</svg>
