<svg width="24" height="24" viewBox="0 0 24 24" fill="none" xmlns="http://www.w3.org/2000/svg">
<g clip-path="url(#clip0_72_4374)">
<path d="M24.0037 6.10352e-05H0.00390625V23.9998H24.0037V6.10352e-05Z" fill="#3CC8FF"/>
<path d="M13.5273 19.2644L13.7288 19.8683L14.3654 19.8732C14.4478 19.8739 14.4819 19.9791 14.4157 20.028L13.9036 20.4062L14.0956 21.0132C14.1205 21.0917 14.031 21.1567 13.9639 21.1088L13.446 20.7387L12.9281 21.1088C12.861 21.1567 12.7716 21.0918 12.7964 21.0132L12.9885 20.4062L12.4764 20.028C12.4101 19.9791 12.4443 19.8739 12.5267 19.8732L13.1633 19.8683L13.3647 19.2644C13.3907 19.1862 13.5013 19.1862 13.5273 19.2644Z" fill="#FFE15A"/>
<path d="M19.3867 14.7077L19.5881 15.3116L20.2247 15.3165C20.3072 15.3172 20.3413 15.4224 20.275 15.4713L19.7629 15.8495L19.955 16.4565C19.9798 16.5351 19.8904 16.6001 19.8233 16.5522L19.3054 16.182L18.7875 16.5522C18.7204 16.6001 18.631 16.5351 18.6558 16.4565L18.8479 15.8495L18.3357 15.4713C18.2695 15.4223 18.3036 15.3172 18.386 15.3165L19.0226 15.3116L19.2241 14.7077C19.2501 14.6295 19.3607 14.6295 19.3867 14.7077Z" fill="#FFE15A"/>
<path d="M22.1485 13.0143L22.3499 13.6182L22.9865 13.6232C23.0689 13.6238 23.1031 13.729 23.0368 13.7779L22.5247 14.1561L22.7167 14.7631C22.7416 14.8417 22.6522 14.9067 22.5851 14.8588L22.0672 14.4886L21.5492 14.8588C21.4822 14.9067 21.3927 14.8417 21.4176 14.7631L21.6096 14.1561L21.0975 13.7779C21.0312 13.729 21.0654 13.6238 21.1478 13.6232L21.7844 13.6182L21.9858 13.0143C22.0118 12.9361 22.1224 12.9361 22.1485 13.0143Z" fill="#FFE15A"/>
<path d="M21.4902 7.2043L21.6917 7.80823L22.3283 7.81315C22.4107 7.81381 22.4448 7.91899 22.3786 7.96793L21.8665 8.34612L22.0585 8.95309C22.0833 9.03166 21.9939 9.09667 21.9268 9.04877L21.4089 8.6786L20.891 9.04877C20.824 9.09667 20.7345 9.0317 20.7593 8.95309L20.9514 8.34612L20.4393 7.96793C20.373 7.91895 20.4072 7.81381 20.4896 7.81315L21.1262 7.80823L21.3276 7.2043C21.3536 7.12611 21.4642 7.12611 21.4902 7.2043Z" fill="#FFE15A"/>
<path d="M15.976 20.7736L15.7746 20.1697L15.138 20.1647C15.0556 20.1641 15.0214 20.0589 15.0877 20.01L15.5998 19.6318L15.4078 19.0248C15.3829 18.9462 15.4724 18.8812 15.5394 18.9291L16.0573 19.2993L16.5753 18.9291C16.6423 18.8812 16.7318 18.9462 16.7069 19.0248L16.5149 19.6318L17.027 20.01C17.0933 20.0589 17.0591 20.1641 16.9767 20.1647L16.3401 20.1697L16.1387 20.7736C16.1127 20.8518 16.0021 20.8518 15.976 20.7736Z" fill="#FFE15A"/>
<path d="M17.8803 19.0648L17.6789 18.4608L17.0423 18.4559C16.9599 18.4553 16.9257 18.3501 16.992 18.3011L17.5041 17.923L17.3121 17.316C17.2872 17.2374 17.3767 17.1724 17.4437 17.2203L17.9616 17.5905L18.4796 17.2203C18.5466 17.1724 18.6361 17.2374 18.6112 17.316L18.4192 17.923L18.9313 18.3011C18.9976 18.3501 18.9634 18.4553 18.881 18.4559L18.2444 18.4608L18.043 19.0648C18.017 19.143 17.9064 19.143 17.8803 19.0648Z" fill="#FFE15A"/>
<path d="M19.5952 11.6117L19.3937 11.0078L18.7571 11.0029C18.6747 11.0022 18.6406 10.897 18.7068 10.8481L19.2189 10.4699L19.0269 9.86293C19.0021 9.78436 19.0915 9.71935 19.1586 9.76725L19.6765 10.1374L20.1944 9.76725C20.2614 9.71935 20.3509 9.78432 20.3261 9.86293L20.134 10.4699L20.6461 10.8481C20.7124 10.8971 20.6782 11.0022 20.5958 11.0029L19.9592 11.0078L19.7578 11.6117C19.7319 11.6899 19.6212 11.6899 19.5952 11.6117Z" fill="#FFE15A"/>
<path d="M17.6166 12.2465L17.4152 11.6425L16.7786 11.6376C16.6962 11.6369 16.662 11.5318 16.7283 11.4828L17.2404 11.1046L17.0484 10.4977C17.0235 10.4191 17.113 10.3541 17.1801 10.402L17.698 10.7722L18.2159 10.402C18.283 10.3541 18.3724 10.419 18.3476 10.4977L18.1555 11.1046L18.6676 11.4828C18.7339 11.5318 18.6997 11.6369 18.6173 11.6376L17.9807 11.6425L17.7793 12.2465C17.7533 12.3246 17.6427 12.3246 17.6166 12.2465Z" fill="#FFE15A"/>
<path d="M16.351 17.1769L16.1496 16.573L15.513 16.5681C15.4306 16.5674 15.3964 16.4622 15.4627 16.4133L15.9748 16.0351L15.7828 15.4281C15.7579 15.3495 15.8474 15.2845 15.9144 15.3324L16.4323 15.7026L16.9503 15.3324C17.0173 15.2845 17.1068 15.3495 17.0819 15.4281L16.8899 16.0351L17.402 16.4133C17.4683 16.4623 17.4341 16.5674 17.3517 16.5681L16.7151 16.573L16.5137 17.1769C16.4877 17.2551 16.3771 17.2551 16.351 17.1769Z" fill="#FFE15A"/>
<path d="M4.42688 0.00012207H0.00585938V0.936535L4.42688 3.83305V0.00012207Z" fill="#41479B"/>
<path d="M0.00585938 3.20161V4.42115H1.86725L0.00585938 3.20161Z" fill="#41479B"/>
<path d="M0.00585938 7.57899V8.79852L1.86725 7.57899H0.00585938Z" fill="#41479B"/>
<path d="M12.005 0.936535V0.00012207H7.58398V3.83305L12.005 0.936535Z" fill="#41479B"/>
<path d="M12.0059 8.79852V7.57899H10.1445L12.0059 8.79852Z" fill="#41479B"/>
<path d="M7.58398 8.16707V12H12.005V11.0636L7.58398 8.16707Z" fill="#41479B"/>
<path d="M12.0059 4.42115V3.20161L10.1445 4.42115H12.0059Z" fill="#41479B"/>
<path d="M0.00585938 11.0636V12H4.42688V8.16707L0.00585938 11.0636Z" fill="#41479B"/>
<path d="M12.0057 11.0636V10.1278L8.0791 7.57898H9.23915L12.0057 9.37479V8.79852L10.1443 7.57898H12.0057V6.9474H6.95312V12H7.58467V8.16707L12.0057 11.0636Z" fill="#F5F5F5"/>
<path d="M0.00585938 6.9474V7.57898H1.86725L0.00585938 8.79852V9.68449L3.24944 7.57898H4.40949L0.00585938 10.4375V11.0636L4.42688 8.16707V12H5.05842V6.9474H0.00585938Z" fill="#F5F5F5"/>
<path d="M5.05842 0.00012207H4.42688V3.83305L0.00585938 0.936535V1.96131L3.79529 4.42114H2.63524L0.00585938 2.71435V3.20161L1.86725 4.42114H0.00585938V5.05273H5.05842V0.00012207Z" fill="#F5F5F5"/>
<path d="M12.0057 5.05273V4.42114H10.1443L12.0057 3.20161V2.30433L8.74472 4.42114H7.58467L12.0057 1.55134V0.936535L7.58467 3.83305V0.00012207H6.95312V5.05273H12.0057Z" fill="#F5F5F5"/>
<path d="M12.0057 6.9474V5.05273H6.95318V0.00012207H5.05842V5.05273H0.00585938V6.9474H5.05842V12H6.95318V6.9474H12.0057Z" fill="#FF4B55"/>
<path d="M3.24944 7.57899L0.00585938 9.6845V10.4375L4.40949 7.57899H3.24944Z" fill="#FF4B55"/>
<path d="M8.08008 7.57899L12.0067 10.1278V9.3748L9.24013 7.57899H8.08008Z" fill="#FF4B55"/>
<path d="M3.79529 4.42115L0.00585938 1.96131V2.71435L2.63524 4.42115H3.79529Z" fill="#FF4B55"/>
<path d="M8.74404 4.42114L12.005 2.30433V1.55134L7.58398 4.42114H8.74404Z" fill="#FF4B55"/>
</g>
<defs>
<clipPath id="clip0_72_4374">
<path d="M0 2C0 0.895432 0.895431 0 2 0H21.9998C23.1043 0 23.9998 0.895431 23.9998 2V21.9998C23.9998 23.1043 23.1043 23.9998 21.9998 23.9998H2C0.895432 23.9998 0 23.1043 0 21.9998V2Z" fill="white"/>
</clipPath>
</defs>
</svg>
