<svg width="24" height="24" viewBox="0 0 24 24" fill="none" xmlns="http://www.w3.org/2000/svg">
<g clip-path="url(#clip0_72_4425)">
<path d="M24.0026 6.10352e-05H7.45117V8.00436H24.0026V6.10352e-05Z" fill="#73AF00"/>
<path d="M24.0026 15.9955H7.45117V23.9998H24.0026V15.9955Z" fill="#464655"/>
<path d="M24.0026 8.00436H7.45117V15.9955H24.0026V8.00436Z" fill="#F5F5F5"/>
<path d="M7.45032 6.10352e-05H0.00195312V23.9998H7.45032V6.10352e-05Z" fill="#FF4B55"/>
</g>
<defs>
<clipPath id="clip0_72_4425">
<path d="M0 2C0 0.895432 0.895431 0 2 0H21.9998C23.1043 0 23.9998 0.895431 23.9998 2V21.9998C23.9998 23.1043 23.1043 23.9998 21.9998 23.9998H2C0.895432 23.9998 0 23.1043 0 21.9998V2Z" fill="white"/>
</clipPath>
</defs>
</svg>
