<svg width="24" height="24" viewBox="0 0 24 24" fill="none" xmlns="http://www.w3.org/2000/svg">
<g clip-path="url(#clip0_72_17)">
<g clip-path="url(#clip1_72_17)">
<path d="M23.9638 0.0110817H-0.013916V23.9888H23.9638V0.0110817Z" fill="#F5F5F5"/>
<path d="M23.9876 0.0111771H-0.012207V1.85522H23.9876V0.0111771Z" fill="#FF4B55"/>
<path d="M23.9876 7.389H-0.012207V9.23304H23.9876V7.389Z" fill="#FF4B55"/>
<path d="M23.9876 3.7002H-0.012207V5.54425H23.9876V3.7002Z" fill="#FF4B55"/>
<path d="M23.9876 11.0776H-0.012207V12.9216H23.9876V11.0776Z" fill="#FF4B55"/>
<path d="M23.9876 18.4551H-0.012207V20.2992H23.9876V18.4551Z" fill="#FF4B55"/>
<path d="M23.9876 22.1442H-0.012207V23.9882H23.9876V22.1442Z" fill="#FF4B55"/>
<path d="M23.9876 14.7666H-0.012207V16.6106H23.9876V14.7666Z" fill="#FF4B55"/>
<path d="M12.8972 0.0110817H-0.013916V12.9222H12.8972V0.0110817Z" fill="#41479B"/>
<path d="M1.63518 0.975673L1.73465 1.27398L2.04908 1.27642C2.08977 1.27675 2.10669 1.32869 2.07393 1.35287L1.82099 1.53967L1.91582 1.83948C1.9281 1.87829 1.88394 1.9104 1.85076 1.88673L1.59491 1.70387L1.33907 1.88673C1.30598 1.91045 1.26178 1.87829 1.27401 1.83948L1.36884 1.53967L1.1159 1.35287C1.08319 1.32869 1.10001 1.27675 1.14075 1.27642L1.45518 1.27398L1.55465 0.975673C1.56768 0.937049 1.62234 0.937049 1.63518 0.975673Z" fill="#F5F5F5"/>
<path d="M1.63518 3.46414L1.73465 3.76245L2.04908 3.76489C2.08977 3.76522 2.10669 3.81716 2.07393 3.84134L1.82099 4.02814L1.91582 4.32795C1.9281 4.36676 1.88394 4.39887 1.85076 4.3752L1.59491 4.19234L1.33907 4.3752C1.30598 4.39892 1.26178 4.36676 1.27401 4.32795L1.36884 4.02814L1.1159 3.84134C1.08319 3.81716 1.10001 3.76522 1.14075 3.76489L1.45518 3.76245L1.55465 3.46414C1.56768 3.42547 1.62234 3.42547 1.63518 3.46414Z" fill="#F5F5F5"/>
<path d="M1.63518 6.22403L1.73465 6.52234L2.04908 6.52478C2.08977 6.52511 2.10669 6.57704 2.07393 6.60128L1.82099 6.78807L1.91582 7.08788C1.9281 7.12669 1.88394 7.1588 1.85076 7.13513L1.59491 6.95227L1.33907 7.13513C1.30598 7.15885 1.26178 7.12669 1.27401 7.08788L1.36884 6.78807L1.1159 6.60128C1.08319 6.57709 1.10001 6.52511 1.14075 6.52478L1.45518 6.52234L1.55465 6.22403C1.56768 6.18541 1.62234 6.18541 1.63518 6.22403Z" fill="#F5F5F5"/>
<path d="M1.63518 8.75975L1.73465 9.05806L2.04908 9.0605C2.08977 9.06083 2.10669 9.11277 2.07393 9.13695L1.82099 9.32375L1.91582 9.62356C1.9281 9.66237 1.88394 9.69448 1.85076 9.67081L1.59491 9.48795L1.33907 9.67081C1.30598 9.69453 1.26178 9.66237 1.27401 9.62356L1.36884 9.32375L1.1159 9.13695C1.08319 9.11277 1.10001 9.06083 1.14075 9.0605L1.45518 9.05806L1.55465 8.75975C1.56768 8.72113 1.62234 8.72113 1.63518 8.75975Z" fill="#F5F5F5"/>
<path d="M1.63518 11.0672L1.73465 11.3655L2.04908 11.368C2.08977 11.3683 2.10669 11.4202 2.07393 11.4444L1.82099 11.6312L1.91582 11.931C1.9281 11.9698 1.88394 12.0019 1.85076 11.9783L1.59491 11.7954L1.33907 11.9783C1.30598 12.002 1.26178 11.9698 1.27401 11.931L1.36884 11.6312L1.1159 11.4444C1.08319 11.4202 1.10001 11.3682 1.14075 11.368L1.45518 11.3655L1.55465 11.0672C1.56768 11.0286 1.62234 11.0286 1.63518 11.0672Z" fill="#F5F5F5"/>
<path d="M2.84661 2.15405L2.94607 2.45236L3.26051 2.4548C3.3012 2.45512 3.31812 2.50706 3.28535 2.53125L3.03242 2.71804L3.12724 3.01785C3.13952 3.05666 3.09537 3.08877 3.06218 3.0651L2.80634 2.88224L2.5505 3.0651C2.51741 3.08882 2.4732 3.05666 2.48544 3.01785L2.58026 2.71804L2.32733 2.53125C2.29461 2.50706 2.31144 2.45512 2.35217 2.4548L2.66661 2.45236L2.76608 2.15405C2.77911 2.11542 2.83376 2.11542 2.84661 2.15405Z" fill="#F5F5F5"/>
<path d="M2.84661 4.91398L2.94607 5.21229L3.26051 5.21473C3.3012 5.21506 3.31812 5.26699 3.28535 5.29118L3.03242 5.47798L3.12724 5.77779C3.13952 5.8166 3.09537 5.84871 3.06218 5.82504L2.80634 5.64218L2.5505 5.82504C2.51741 5.84875 2.4732 5.8166 2.48544 5.77779L2.58026 5.47798L2.32733 5.29118C2.29461 5.26699 2.31144 5.21506 2.35217 5.21473L2.66661 5.21229L2.76608 4.91398C2.77911 4.87536 2.83376 4.87536 2.84661 4.91398Z" fill="#F5F5F5"/>
<path d="M2.84661 7.53609L2.94607 7.8344L3.26051 7.83684C3.3012 7.83717 3.31812 7.88911 3.28535 7.91329L3.03242 8.10009L3.12724 8.3999C3.13952 8.43871 3.09537 8.47082 3.06218 8.44715L2.80634 8.26429L2.5505 8.44715C2.51741 8.47087 2.4732 8.43871 2.48544 8.3999L2.58026 8.10009L2.32733 7.91329C2.29461 7.88911 2.31144 7.83717 2.35217 7.83684L2.66661 7.8344L2.76608 7.53609C2.77911 7.49752 2.83376 7.49752 2.84661 7.53609Z" fill="#F5F5F5"/>
<path d="M2.84661 9.89088L2.94607 10.1892L3.26051 10.1916C3.3012 10.192 3.31812 10.2439 3.28535 10.2681L3.03242 10.4549L3.12724 10.7547C3.13952 10.7935 3.09537 10.8256 3.06218 10.8019L2.80634 10.6191L2.5505 10.8019C2.51741 10.8256 2.4732 10.7935 2.48544 10.7547L2.58026 10.4549L2.32733 10.2681C2.29461 10.2439 2.31144 10.192 2.35217 10.1916L2.66661 10.1892L2.76608 9.89088C2.77911 9.85221 2.83376 9.85221 2.84661 9.89088Z" fill="#F5F5F5"/>
<path d="M4.0573 0.975673L4.15677 1.27398L4.4712 1.27642C4.51189 1.27675 4.52881 1.32869 4.49605 1.35287L4.24311 1.53967L4.33794 1.83948C4.35022 1.87829 4.30606 1.9104 4.27288 1.88673L4.01703 1.70387L3.76119 1.88673C3.7281 1.91045 3.6839 1.87829 3.69613 1.83948L3.79096 1.53967L3.53802 1.35287C3.5053 1.32869 3.52213 1.27675 3.56287 1.27642L3.8773 1.27398L3.97677 0.975673C3.9898 0.937049 4.04441 0.937049 4.0573 0.975673Z" fill="#F5F5F5"/>
<path d="M4.0573 3.46414L4.15677 3.76245L4.4712 3.76489C4.51189 3.76522 4.52881 3.81716 4.49605 3.84134L4.24311 4.02814L4.33794 4.32795C4.35022 4.36676 4.30606 4.39887 4.27288 4.3752L4.01703 4.19234L3.76119 4.3752C3.7281 4.39892 3.6839 4.36676 3.69613 4.32795L3.79096 4.02814L3.53802 3.84134C3.5053 3.81716 3.52213 3.76522 3.56287 3.76489L3.8773 3.76245L3.97677 3.46414C3.9898 3.42547 4.04441 3.42547 4.0573 3.46414Z" fill="#F5F5F5"/>
<path d="M4.0573 6.22403L4.15677 6.52234L4.4712 6.52478C4.51189 6.52511 4.52881 6.57704 4.49605 6.60128L4.24311 6.78807L4.33794 7.08788C4.35022 7.12669 4.30606 7.1588 4.27288 7.13513L4.01703 6.95227L3.76119 7.13513C3.7281 7.15885 3.6839 7.12669 3.69613 7.08788L3.79096 6.78807L3.53802 6.60128C3.5053 6.57709 3.52213 6.52511 3.56287 6.52478L3.8773 6.52234L3.97677 6.22403C3.9898 6.18541 4.04441 6.18541 4.0573 6.22403Z" fill="#F5F5F5"/>
<path d="M4.05794 8.75975L4.15741 9.05806L4.47184 9.0605C4.51253 9.06082 4.52945 9.11276 4.49668 9.13695L4.24375 9.32374L4.33858 9.62355C4.35086 9.66236 4.3067 9.69447 4.27351 9.6708L4.01777 9.4879L3.76193 9.67075C3.72883 9.69447 3.68463 9.66232 3.69686 9.6235L3.79169 9.3237L3.53876 9.1369C3.50604 9.11271 3.52286 9.06078 3.5636 9.06045L3.87803 9.05801L3.9775 8.7597C3.99044 8.72112 4.04505 8.72112 4.05794 8.75975Z" fill="#F5F5F5"/>
<path d="M4.0573 11.0672L4.15677 11.3655L4.4712 11.368C4.51189 11.3683 4.52881 11.4202 4.49605 11.4444L4.24311 11.6312L4.33794 11.931C4.35022 11.9698 4.30606 12.0019 4.27288 11.9783L4.01703 11.7954L3.76119 11.9783C3.7281 12.002 3.6839 11.9698 3.69613 11.931L3.79096 11.6312L3.53802 11.4444C3.5053 11.4202 3.52213 11.3682 3.56287 11.368L3.8773 11.3655L3.97677 11.0672C3.9898 11.0286 4.04441 11.0286 4.0573 11.0672Z" fill="#F5F5F5"/>
<path d="M5.26873 2.15405L5.36819 2.45236L5.68263 2.4548C5.72331 2.45512 5.74024 2.50706 5.70747 2.53125L5.45454 2.71804L5.54936 3.01785C5.56164 3.05666 5.51749 3.08877 5.4843 3.0651L5.22846 2.88224L4.97262 3.0651C4.93953 3.08882 4.89532 3.05666 4.90756 3.01785L5.00238 2.71804L4.74945 2.53125C4.71673 2.50706 4.73356 2.45512 4.77429 2.4548L5.08887 2.45236L5.18834 2.15405C5.20123 2.11542 5.25583 2.11542 5.26873 2.15405Z" fill="#F5F5F5"/>
<path d="M5.26873 4.91398L5.36819 5.21229L5.68263 5.21473C5.72331 5.21506 5.74024 5.26699 5.70747 5.29118L5.45454 5.47798L5.54936 5.77779C5.56164 5.8166 5.51749 5.84871 5.4843 5.82504L5.22846 5.64218L4.97262 5.82504C4.93953 5.84875 4.89532 5.8166 4.90756 5.77779L5.00238 5.47798L4.74945 5.29118C4.71673 5.26699 4.73356 5.21506 4.77429 5.21473L5.08873 5.21229L5.18819 4.91398C5.20123 4.87536 5.25583 4.87536 5.26873 4.91398Z" fill="#F5F5F5"/>
<path d="M5.26873 7.53609L5.36819 7.8344L5.68263 7.83684C5.72331 7.83717 5.74024 7.88911 5.70747 7.91329L5.45454 8.10009L5.54936 8.3999C5.56164 8.43871 5.51749 8.47082 5.4843 8.44715L5.22846 8.26429L4.97262 8.44715C4.93953 8.47087 4.89532 8.43871 4.90756 8.3999L5.00238 8.10009L4.74945 7.91329C4.71673 7.88911 4.73356 7.83717 4.77429 7.83684L5.08873 7.8344L5.18819 7.53609C5.20123 7.49752 5.25583 7.49752 5.26873 7.53609Z" fill="#F5F5F5"/>
<path d="M5.26873 9.89088L5.36819 10.1892L5.68263 10.1916C5.72331 10.192 5.74024 10.2439 5.70747 10.2681L5.45454 10.4549L5.54936 10.7547C5.56164 10.7935 5.51749 10.8256 5.4843 10.8019L5.22846 10.6191L4.97262 10.8019C4.93953 10.8256 4.89532 10.7935 4.90756 10.7547L5.00238 10.4549L4.74945 10.2681C4.71673 10.2439 4.73356 10.192 4.77429 10.1916L5.08873 10.1892L5.18819 9.89088C5.20123 9.85221 5.25583 9.85221 5.26873 9.89088Z" fill="#F5F5F5"/>
<path d="M6.48015 0.975673L6.57962 1.27398L6.89405 1.27642C6.93474 1.27675 6.95166 1.32869 6.9189 1.35287L6.66596 1.53967L6.76079 1.83948C6.77307 1.87829 6.72891 1.9104 6.69573 1.88673L6.43989 1.70387L6.18404 1.88673C6.15095 1.91045 6.10675 1.87829 6.11898 1.83948L6.21381 1.53967L5.96087 1.35287C5.92816 1.32869 5.94498 1.27675 5.98572 1.27642L6.30015 1.27398L6.39962 0.975673C6.41265 0.937049 6.46726 0.937049 6.48015 0.975673Z" fill="#F5F5F5"/>
<path d="M6.48015 3.46414L6.57962 3.76245L6.89405 3.76489C6.93474 3.76522 6.95166 3.81716 6.9189 3.84134L6.66596 4.02814L6.76079 4.32795C6.77307 4.36676 6.72891 4.39887 6.69573 4.3752L6.43989 4.19234L6.18404 4.3752C6.15095 4.39892 6.10675 4.36676 6.11898 4.32795L6.21381 4.02814L5.96087 3.84134C5.92816 3.81716 5.94498 3.76522 5.98572 3.76489L6.30015 3.76245L6.39962 3.46414C6.41265 3.42547 6.46726 3.42547 6.48015 3.46414Z" fill="#F5F5F5"/>
<path d="M6.48015 6.22403L6.57962 6.52234L6.89405 6.52478C6.93474 6.52511 6.95166 6.57704 6.9189 6.60128L6.66596 6.78807L6.76079 7.08788C6.77307 7.12669 6.72891 7.1588 6.69573 7.13513L6.43989 6.95227L6.18404 7.13513C6.15095 7.15885 6.10675 7.12669 6.11898 7.08788L6.21381 6.78807L5.96087 6.60128C5.92816 6.57709 5.94498 6.52511 5.98572 6.52478L6.30015 6.52234L6.39962 6.22403C6.41265 6.18541 6.46726 6.18541 6.48015 6.22403Z" fill="#F5F5F5"/>
<path d="M6.48015 8.75975L6.57962 9.05806L6.89405 9.0605C6.93474 9.06083 6.95166 9.11277 6.9189 9.13695L6.66596 9.32375L6.76079 9.62356C6.77307 9.66237 6.72891 9.69448 6.69573 9.67081L6.43989 9.48795L6.18404 9.67081C6.15095 9.69453 6.10675 9.66237 6.11898 9.62356L6.21381 9.32375L5.96087 9.13695C5.92816 9.11277 5.94498 9.06083 5.98572 9.0605L6.30015 9.05806L6.39962 8.75975C6.41265 8.72113 6.46726 8.72113 6.48015 8.75975Z" fill="#F5F5F5"/>
<path d="M6.48015 11.0672L6.57962 11.3655L6.89405 11.368C6.93474 11.3683 6.95166 11.4202 6.9189 11.4444L6.66596 11.6312L6.76079 11.931C6.77307 11.9698 6.72891 12.0019 6.69573 11.9783L6.43989 11.7954L6.18404 11.9783C6.15095 12.002 6.10675 11.9698 6.11898 11.931L6.21381 11.6312L5.96087 11.4444C5.92816 11.4202 5.94498 11.3682 5.98572 11.368L6.30015 11.3655L6.39962 11.0672C6.41265 11.0286 6.46726 11.0286 6.48015 11.0672Z" fill="#F5F5F5"/>
<path d="M7.69158 2.15405L7.79105 2.45236L8.10548 2.4548C8.14617 2.45512 8.16309 2.50706 8.13032 2.53125L7.87739 2.71804L7.97222 3.01785C7.9845 3.05666 7.94034 3.08877 7.90716 3.0651L7.65131 2.88224L7.39547 3.0651C7.36238 3.08882 7.31818 3.05666 7.33041 3.01785L7.42524 2.71804L7.1723 2.53125C7.13958 2.50706 7.15641 2.45512 7.1971 2.4548L7.51153 2.45236L7.611 2.15405C7.62408 2.11542 7.67869 2.11542 7.69158 2.15405Z" fill="#F5F5F5"/>
<path d="M7.69158 4.91398L7.79105 5.21229L8.10548 5.21473C8.14617 5.21506 8.16309 5.26699 8.13032 5.29118L7.87739 5.47798L7.97222 5.77779C7.9845 5.8166 7.94034 5.84871 7.90716 5.82504L7.65131 5.64218L7.39547 5.82504C7.36238 5.84875 7.31818 5.8166 7.33041 5.77779L7.42524 5.47798L7.1723 5.29118C7.13958 5.26699 7.15641 5.21506 7.1971 5.21473L7.51153 5.21229L7.611 4.91398C7.62408 4.87536 7.67869 4.87536 7.69158 4.91398Z" fill="#F5F5F5"/>
<path d="M7.69158 7.53609L7.79105 7.8344L8.10548 7.83684C8.14617 7.83717 8.16309 7.88911 8.13032 7.91329L7.87739 8.10009L7.97222 8.3999C7.9845 8.43871 7.94034 8.47082 7.90716 8.44715L7.65131 8.26429L7.39547 8.44715C7.36238 8.47087 7.31818 8.43871 7.33041 8.3999L7.42524 8.10009L7.1723 7.91329C7.13958 7.88911 7.15641 7.83717 7.1971 7.83684L7.51153 7.8344L7.611 7.53609C7.62408 7.49752 7.67869 7.49752 7.69158 7.53609Z" fill="#F5F5F5"/>
<path d="M7.69158 9.89088L7.79105 10.1892L8.10548 10.1916C8.14617 10.192 8.16309 10.2439 8.13032 10.2681L7.87739 10.4549L7.97222 10.7547C7.9845 10.7935 7.94034 10.8256 7.90716 10.8019L7.65131 10.6191L7.39547 10.8019C7.36238 10.8256 7.31818 10.7935 7.33041 10.7547L7.42524 10.4549L7.1723 10.2681C7.13958 10.2439 7.15641 10.192 7.1971 10.1916L7.51153 10.1892L7.611 9.89088C7.62408 9.85221 7.67869 9.85221 7.69158 9.89088Z" fill="#F5F5F5"/>
<path d="M8.90227 0.975673L9.00174 1.27398L9.31617 1.27642C9.35686 1.27675 9.37378 1.32869 9.34102 1.35287L9.08808 1.53967L9.18291 1.83948C9.19519 1.87829 9.15103 1.9104 9.11785 1.88673L8.86201 1.70387L8.60616 1.88673C8.57307 1.91045 8.52887 1.87829 8.5411 1.83948L8.63593 1.53967L8.38299 1.35287C8.35028 1.32869 8.3671 1.27675 8.40784 1.27642L8.72227 1.27398L8.82174 0.975673C8.83477 0.937049 8.88938 0.937049 8.90227 0.975673Z" fill="#F5F5F5"/>
<path d="M8.90227 3.46414L9.00174 3.76245L9.31617 3.76489C9.35686 3.76522 9.37378 3.81716 9.34102 3.84134L9.08808 4.02814L9.18291 4.32795C9.19519 4.36676 9.15103 4.39887 9.11785 4.3752L8.86201 4.19234L8.60616 4.3752C8.57307 4.39892 8.52887 4.36676 8.5411 4.32795L8.63593 4.02814L8.38299 3.84134C8.35028 3.81716 8.3671 3.76522 8.40784 3.76489L8.72227 3.76245L8.82174 3.46414C8.83477 3.42547 8.88938 3.42547 8.90227 3.46414Z" fill="#F5F5F5"/>
<path d="M8.90227 6.22403L9.00174 6.52234L9.31617 6.52478C9.35686 6.52511 9.37378 6.57704 9.34102 6.60128L9.08808 6.78807L9.18291 7.08788C9.19519 7.12669 9.15103 7.1588 9.11785 7.13513L8.86201 6.95227L8.60616 7.13513C8.57307 7.15885 8.52887 7.12669 8.5411 7.08788L8.63593 6.78807L8.38299 6.60128C8.35028 6.57709 8.3671 6.52511 8.40784 6.52478L8.72227 6.52234L8.82174 6.22403C8.83477 6.18541 8.88938 6.18541 8.90227 6.22403Z" fill="#F5F5F5"/>
<path d="M8.90227 8.75975L9.00174 9.05806L9.31617 9.0605C9.35686 9.06083 9.37378 9.11277 9.34102 9.13695L9.08808 9.32375L9.18291 9.62356C9.19519 9.66237 9.15103 9.69448 9.11785 9.67081L8.86201 9.48795L8.60616 9.67081C8.57307 9.69453 8.52887 9.66237 8.5411 9.62356L8.63593 9.32375L8.38299 9.13695C8.35028 9.11277 8.3671 9.06083 8.40784 9.0605L8.72227 9.05806L8.82174 8.75975C8.83477 8.72113 8.88938 8.72113 8.90227 8.75975Z" fill="#F5F5F5"/>
<path d="M8.90227 11.0672L9.00174 11.3655L9.31617 11.368C9.35686 11.3683 9.37378 11.4202 9.34102 11.4444L9.08808 11.6312L9.18291 11.931C9.19519 11.9698 9.15103 12.0019 9.11785 11.9783L8.86201 11.7954L8.60616 11.9783C8.57307 12.002 8.52887 11.9698 8.5411 11.931L8.63593 11.6312L8.38299 11.4444C8.35028 11.4202 8.3671 11.3682 8.40784 11.368L8.72227 11.3655L8.82174 11.0672C8.83477 11.0286 8.88938 11.0286 8.90227 11.0672Z" fill="#F5F5F5"/>
<path d="M10.1137 2.15405L10.2132 2.45236L10.5276 2.4548C10.5683 2.45512 10.5852 2.50706 10.5524 2.53125L10.2995 2.71804L10.3943 3.01785C10.4066 3.05666 10.3625 3.08877 10.3293 3.0651L10.0734 2.88224L9.81759 3.0651C9.7845 3.08882 9.74029 3.05666 9.75253 3.01785L9.84735 2.71804L9.59442 2.53125C9.5617 2.50706 9.57853 2.45512 9.61926 2.4548L9.9337 2.45236L10.0332 2.15405C10.0461 2.11542 10.1008 2.11542 10.1137 2.15405Z" fill="#F5F5F5"/>
<path d="M10.1137 4.91398L10.2132 5.21229L10.5276 5.21473C10.5683 5.21506 10.5852 5.26699 10.5524 5.29118L10.2995 5.47798L10.3943 5.77779C10.4066 5.8166 10.3625 5.84871 10.3293 5.82504L10.0734 5.64218L9.81759 5.82504C9.7845 5.84875 9.74029 5.8166 9.75253 5.77779L9.84735 5.47798L9.59442 5.29118C9.5617 5.26699 9.57853 5.21506 9.61926 5.21473L9.9337 5.21229L10.0332 4.91398C10.0461 4.87536 10.1008 4.87536 10.1137 4.91398Z" fill="#F5F5F5"/>
<path d="M10.1137 7.53609L10.2132 7.8344L10.5276 7.83684C10.5683 7.83717 10.5852 7.88911 10.5524 7.91329L10.2995 8.10009L10.3943 8.3999C10.4066 8.43871 10.3625 8.47082 10.3293 8.44715L10.0734 8.26429L9.81759 8.44715C9.7845 8.47087 9.74029 8.43871 9.75253 8.3999L9.84735 8.10009L9.59442 7.91329C9.5617 7.88911 9.57853 7.83717 9.61926 7.83684L9.9337 7.8344L10.0332 7.53609C10.0461 7.49752 10.1008 7.49752 10.1137 7.53609Z" fill="#F5F5F5"/>
<path d="M10.1137 9.89088L10.2132 10.1892L10.5276 10.1916C10.5683 10.192 10.5852 10.2439 10.5524 10.2681L10.2995 10.4549L10.3943 10.7547C10.4066 10.7935 10.3625 10.8256 10.3293 10.8019L10.0734 10.6191L9.81759 10.8019C9.7845 10.8256 9.74029 10.7935 9.75253 10.7547L9.84735 10.4549L9.59442 10.2681C9.5617 10.2439 9.57853 10.192 9.61926 10.1916L9.9337 10.1892L10.0332 9.89088C10.0461 9.85221 10.1008 9.85221 10.1137 9.89088Z" fill="#F5F5F5"/>
<path d="M11.3251 0.975673L11.4246 1.27398L11.739 1.27642C11.7797 1.27675 11.7966 1.32869 11.7639 1.35287L11.5109 1.53967L11.6058 1.83948C11.618 1.87829 11.5739 1.9104 11.5407 1.88673L11.2849 1.70387L11.029 1.88673C10.9959 1.91045 10.9517 1.87829 10.964 1.83948L11.0588 1.53967L10.8058 1.35287C10.7731 1.32869 10.79 1.27675 10.8307 1.27642L11.1451 1.27398L11.2446 0.975673C11.2576 0.937049 11.3122 0.937049 11.3251 0.975673Z" fill="#F5F5F5"/>
<path d="M11.3251 3.46414L11.4246 3.76245L11.739 3.76489C11.7797 3.76522 11.7966 3.81716 11.7639 3.84134L11.5109 4.02814L11.6058 4.32795C11.618 4.36676 11.5739 4.39887 11.5407 4.3752L11.2849 4.19234L11.029 4.3752C10.9959 4.39892 10.9517 4.36676 10.964 4.32795L11.0588 4.02814L10.8058 3.84134C10.7731 3.81716 10.79 3.76522 10.8307 3.76489L11.1451 3.76245L11.2446 3.46414C11.2576 3.42547 11.3122 3.42547 11.3251 3.46414Z" fill="#F5F5F5"/>
<path d="M11.3251 6.22403L11.4246 6.52234L11.739 6.52478C11.7797 6.52511 11.7966 6.57704 11.7639 6.60128L11.5109 6.78807L11.6058 7.08788C11.618 7.12669 11.5739 7.1588 11.5407 7.13513L11.2849 6.95227L11.029 7.13513C10.9959 7.15885 10.9517 7.12669 10.964 7.08788L11.0588 6.78807L10.8058 6.60128C10.7731 6.57709 10.79 6.52511 10.8307 6.52478L11.1451 6.52234L11.2446 6.22403C11.2576 6.18541 11.3122 6.18541 11.3251 6.22403Z" fill="#F5F5F5"/>
<path d="M11.3251 8.75975L11.4246 9.05806L11.739 9.0605C11.7797 9.06083 11.7966 9.11277 11.7639 9.13695L11.5109 9.32375L11.6058 9.62356C11.618 9.66237 11.5739 9.69448 11.5407 9.67081L11.2849 9.48795L11.029 9.67081C10.9959 9.69453 10.9517 9.66237 10.964 9.62356L11.0588 9.32375L10.8058 9.13695C10.7731 9.11277 10.79 9.06083 10.8307 9.0605L11.1451 9.05806L11.2446 8.75975C11.2576 8.72113 11.3122 8.72113 11.3251 8.75975Z" fill="#F5F5F5"/>
<path d="M11.3251 11.0672L11.4246 11.3655L11.739 11.368C11.7797 11.3683 11.7966 11.4202 11.7639 11.4444L11.5109 11.6312L11.6058 11.931C11.618 11.9698 11.5739 12.0019 11.5407 11.9783L11.2849 11.7954L11.029 11.9783C10.9959 12.002 10.9517 11.9698 10.964 11.931L11.0588 11.6312L10.8058 11.4444C10.7731 11.4202 10.79 11.3682 10.8307 11.368L11.1451 11.3655L11.2446 11.0672C11.2576 11.0286 11.3122 11.0286 11.3251 11.0672Z" fill="#F5F5F5"/>
</g>
</g>
<defs>
<clipPath id="clip0_72_17">
<path d="M0 2C0 0.89543 0.895431 0 2 0H22C23.1046 0 24 0.895431 24 2V22C24 23.1046 23.1046 24 22 24H2C0.89543 24 0 23.1046 0 22V2Z" fill="white"/>
</clipPath>
<clipPath id="clip1_72_17">
<rect width="23.9998" height="23.9998" fill="white" transform="translate(-0.015625)"/>
</clipPath>
</defs>
</svg>
