<svg width="24" height="24" viewBox="0 0 24 24" fill="none" xmlns="http://www.w3.org/2000/svg">
<g clip-path="url(#clip0_72_4451)">
<path d="M24.0017 6.10352e-05H0.00195312V23.9998H24.0017V6.10352e-05Z" fill="#82AFFF"/>
<path d="M11.9688 15.9332C14.7011 15.9332 16.9238 13.7103 16.9238 10.9781C16.9238 8.24602 14.7011 6.02308 11.9688 6.02308C9.23651 6.02308 7.01367 8.24597 7.01367 10.9781C7.01367 13.7103 9.23651 15.9332 11.9688 15.9332ZM12.534 6.54133L12.9599 6.38444C13.561 6.51405 14.1198 6.75766 14.6117 7.09342C14.5694 7.0892 14.4576 7.07771 14.4383 7.07129C14.4145 7.06337 14.3776 7.22303 14.3776 7.22303L14.5731 7.30074L14.6264 7.10439C14.8293 7.24407 15.0189 7.4011 15.1972 7.57009L14.9099 7.85738H14.8592L14.8179 7.69519L14.6607 7.41268L14.1055 7.21253L13.7215 7.39838L13.9394 7.87013C13.4024 7.52846 12.7724 7.3232 12.0958 7.29999V6.64244L12.4871 6.766L12.3244 6.47931L12.0958 6.57709V6.28352C12.2656 6.28807 12.4328 6.30199 12.5977 6.32421L12.4055 6.38828L12.534 6.54133ZM15.1054 10.1682L15.1989 10.1285L15.2224 9.89839C15.3227 10.1997 15.3805 10.5194 15.3927 10.8511H14.531L14.5628 10.7134L14.8063 10.6923L15.0078 10.349L15.0022 10.2846L14.7957 10.5493L14.6696 10.5802L14.5892 10.4857L14.6838 10.3251L14.4781 10.1734L14.2932 10.3354C14.2435 10.1558 14.1756 9.9837 14.088 9.82339L14.1882 9.78692L14.2686 9.73897L14.2679 9.64442L14.3195 9.58035L14.2897 9.56207C14.2676 9.57257 14.1527 9.60594 14.1527 9.60594L14.1128 9.73536L14.0556 9.77014C13.9713 9.62502 13.8722 9.49002 13.7606 9.36604L14.2358 8.89087L14.2399 8.89757L14.3557 8.82801L14.3378 8.78887L14.479 8.64764C14.7974 8.99038 15.046 9.39721 15.2039 9.84753L15.0857 9.6718L15.0247 9.69453L15.1054 10.1682ZM14.4789 13.3086L14.2219 13.0515L14.1248 12.7943L14.0749 12.9046L13.9754 12.8051L14.0773 12.4927L14.0113 12.2659L14.0066 12.2665C14.0764 12.1565 14.1394 12.0416 14.1909 11.9206L14.1921 11.9204C14.208 11.9204 14.2662 11.8463 14.2662 11.8463L14.4092 11.8622L14.7787 11.7162L14.6368 11.5817L14.5533 11.507L14.4886 11.3752L14.3728 11.1737C14.3747 11.151 14.3751 11.1281 14.3763 11.1052H15.3927C15.3614 11.9549 15.0209 12.7252 14.4789 13.3086ZM9.54682 13.146L9.67408 12.9236L9.40015 11.9664L9.1842 11.4334L9.38009 11.3487L9.43301 11.1899L9.56529 11.186C9.61151 11.724 9.83524 12.2107 10.177 12.5902L9.61587 13.1513L9.54682 13.146ZM9.85254 10.7995L9.84977 10.8511H9.81527C9.81639 10.8315 9.81658 10.8117 9.81827 10.7923L9.85254 10.7995ZM13.1145 12.8057L13.071 12.7821L12.5167 12.9964L12.2295 12.8858L12.0959 12.9227V12.74L12.2342 12.6983L12.3181 12.7185L12.4946 12.7875L12.3882 12.5929L12.6162 12.7841L12.7256 12.8091L12.6923 12.6632L12.7664 12.4221L13.0249 12.2645L13.0473 12.4096L12.7321 12.581L12.7926 12.7016L13.1204 12.6354L13.1256 12.799C13.1219 12.8013 13.1181 12.8034 13.1145 12.8057ZM11.8082 11.8512L11.7984 11.8301L11.7389 11.8335C11.6623 11.8128 11.5904 11.7825 11.5234 11.7433L11.7446 11.7165L11.8417 11.4557V11.8546C11.8307 11.8531 11.8191 11.8532 11.8082 11.8512ZM10.8793 11.3072L10.6633 11.2739L10.7735 11.1052H10.8381C10.8459 11.1748 10.8595 11.2419 10.8793 11.3072ZM12.0958 10.428L12.1554 10.4461L12.2303 10.5369L12.0958 10.6714V10.428ZM12.4965 12.043L12.3934 12.1637L12.2215 12.2492L12.1638 12.1482L12.1291 12.3491L12.0958 12.3621V12.1088C12.1199 12.1061 12.1446 12.1057 12.1681 12.1015L12.2504 12.2046L12.3187 12.1196L12.3134 12.0628C12.3513 12.0507 12.3899 12.0407 12.4261 12.0248L12.4965 12.043ZM12.4192 10.7074L12.4165 10.8448L12.4115 10.8511H12.2755L12.4192 10.7074ZM12.5008 11.1806L12.6653 11.1754L12.755 11.2502L12.7251 11.304L12.5996 11.2322L12.5308 11.286L12.5654 11.389L12.5639 11.3935L12.2755 11.1051H12.4676L12.5008 11.1806ZM12.392 11.581L12.2348 11.564L12.1238 11.8517C12.1147 11.8533 12.105 11.8532 12.0958 11.8546V11.2848L12.392 11.581ZM11.5762 10.8511L11.5651 10.8047L11.4548 10.8511H11.406L11.4221 10.7841L11.4934 10.715L11.4368 10.7022L11.3781 10.7857L11.317 10.8137L11.3242 10.8511H11.2601L11.2988 10.7009L11.4117 10.6008L11.662 10.8511H11.5762ZM11.1048 11.1052L11.1309 11.1359L11.1485 11.1052H11.2394L11.1211 11.233C11.1086 11.1914 11.0986 11.1491 11.0923 11.1052H11.1048ZM11.2455 11.492L11.4097 11.2083L11.3668 11.1699L11.4391 11.1326L11.4482 11.1052H11.5638L11.5373 11.1194L11.5263 11.1575L11.6158 11.1514L11.5492 11.218L11.4814 11.2323L11.4674 11.2998L11.2589 11.5083C11.2547 11.5026 11.2496 11.4977 11.2455 11.492ZM11.8417 10.1281L11.7942 10.1208L11.831 10.2732L11.8417 10.2816V10.6714L11.6281 10.4579L11.778 10.3769L11.6426 10.1526C11.7057 10.1277 11.7726 10.1116 11.8417 10.1016L11.8417 10.1281ZM9.83622 11.1052L9.83364 11.1536L9.82296 11.2181C9.81883 11.1809 9.81747 11.1429 9.81527 11.1052H9.83622ZM9.96053 11.4069L10.1185 11.5658L10.2482 11.4755L10.5536 11.7318L10.8822 11.7896L10.9741 11.5311C11.005 11.5865 11.0399 11.6386 11.0793 11.6879L10.797 11.9702L10.8423 11.8545L10.6743 11.8272L10.7281 12.0245L10.7361 12.0311L10.3566 12.4106C10.1093 12.1326 9.93091 11.792 9.85314 11.4142L9.96053 11.4069ZM11.259 11.8675C11.423 11.9987 11.6222 12.0841 11.8417 12.1088V12.4026L11.8388 12.4096L11.8417 12.4086V12.6284L11.7677 12.6432L11.7248 12.919L11.8417 12.9054V12.9929L11.6566 13.044L11.5949 13.1034C11.1927 13.0328 10.8293 12.8509 10.5362 12.5902L11.259 11.8675ZM13.4023 12.9159L13.5887 12.9554L13.772 12.961L13.8729 13.0619L13.5649 13.0507L13.3664 12.9427C13.3785 12.934 13.3903 12.9248 13.4023 12.9159ZM13.5809 12.4105L13.5253 12.3549L13.6385 12.3463C13.6203 12.3685 13.6 12.389 13.5809 12.4105ZM13.8723 9.95928C13.7859 9.9605 13.702 9.96172 13.6946 9.96172C13.6787 9.96172 13.5541 10.0682 13.5541 10.0682L13.4589 10.1914L13.4302 10.041L13.4976 9.88747L13.4457 9.83989L13.2128 9.98811L13.1634 9.96312L13.3453 9.78116L13.3853 9.79438L13.5013 9.76709L13.4424 9.68413L13.5808 9.54561C13.693 9.67175 13.7919 9.80956 13.8723 9.95928ZM13.1908 9.57641L13.1797 9.54083L13.1043 9.55274L13.0574 9.64349L12.8502 9.66392C12.8654 9.69425 12.9298 9.82025 12.9357 9.83159L12.6786 10.0887C12.6239 10.045 12.5656 10.0068 12.5034 9.97358L12.5352 9.95642L12.4974 9.82878L12.4717 9.78172L12.357 9.90711C12.2739 9.87688 12.1865 9.8577 12.0958 9.84748V8.82468C12.5955 8.85398 13.0492 9.05296 13.4012 9.36604L13.1908 9.57641ZM11.8417 9.84748C11.7597 9.85672 11.6807 9.87383 11.6048 9.89952L11.6428 9.8112L11.4446 9.96697L11.445 9.96758C11.3787 10.0021 11.3168 10.0424 11.259 10.0887L10.5363 9.36599C10.8882 9.05291 11.342 8.85388 11.8417 8.82464V9.84748ZM11.0386 10.2276L10.6969 10.2874L10.7088 10.1576L10.4257 10.0599L9.97286 10.1546C10.066 9.92966 10.1972 9.725 10.3566 9.54571L11.0386 10.2276ZM9.94192 10.2389L10.0841 10.2687L9.91371 10.3159C9.92214 10.2897 9.93255 10.2646 9.94192 10.2389ZM9.56116 10.8511H9.53918L9.56229 10.8297C9.56182 10.8368 9.56154 10.8439 9.56116 10.8511ZM9.8321 13.2944L10.3567 12.7698C10.643 13.0276 10.9903 13.2173 11.3751 13.3152L11.1944 13.4893L11.5832 14.0031L11.8417 14.0173V14.402C11.1631 14.3771 10.5343 14.1563 10.0113 13.7914L10.0953 13.7369L9.8321 13.2944ZM12.0958 14.0314L12.4235 14.0495L12.4318 14.1246L12.6312 14.343C12.4573 14.3772 12.278 14.3954 12.0958 14.4021V14.0314ZM14.1773 13.3662L14.2992 13.4882C14.2409 13.5424 14.1822 13.5961 14.1202 13.6463L14.1773 13.3662ZM14.2992 8.46806L14.2249 8.5425L14.1366 8.34975L13.9761 8.26439C13.9761 8.26439 13.8267 8.13258 13.749 8.05139C13.9465 8.17195 14.1306 8.31136 14.2992 8.46806ZM13.7144 8.03035L13.8267 8.42316L14.089 8.65143L14.0992 8.66812L13.5808 9.18641C13.1825 8.82764 12.6655 8.60039 12.0958 8.57053V7.5541C12.6856 7.5759 13.2367 7.74633 13.7144 8.03035ZM11.8417 8.57058C11.272 8.60043 10.755 8.82768 10.3567 9.18646L9.63827 8.46806C10.2217 7.926 10.992 7.58546 11.8417 7.55415V8.57058ZM10.177 9.36608C9.90475 9.66838 9.70732 10.0384 9.61502 10.4488L9.39166 10.851H8.54474C8.57609 10.0013 8.91659 9.23104 9.4586 8.64768L10.177 9.36608ZM9.26923 11.1052L9.02792 11.6239L8.68658 11.4969L8.6225 11.7242C8.57788 11.5239 8.55261 11.3169 8.54478 11.1052H9.26923ZM9.01479 13.678L9.05421 13.7129L8.56063 14.2065C8.21985 13.847 7.93668 13.434 7.72223 12.9812L7.85348 13.0579L8.72895 13.8369L9.01479 13.678ZM9.24467 13.8817L9.36415 13.9877L9.75175 13.914C10.3377 14.3576 11.0583 14.6293 11.8417 14.6562V15.6726C10.6418 15.6403 9.55437 15.1577 8.74025 14.3861L9.24467 13.8817ZM12.0958 14.6562C12.3111 14.6488 12.5226 14.6263 12.7271 14.5834L12.7508 14.7399L13.3564 15.1865L14.0382 14.8082L14.2339 14.3955L14.2211 14.1402L14.3499 13.8381L14.3184 13.8135C14.3741 13.7673 14.4259 13.7171 14.4788 13.6678L14.5959 13.7849L14.6315 14.0062L14.7645 13.9536L15.1972 14.3862C14.3831 15.1578 13.2957 15.6404 12.0958 15.6727L12.0958 14.6562ZM14.8253 13.6549L14.801 13.3657L14.7685 13.3672C15.2929 12.7535 15.6173 11.9667 15.6469 11.1052H16.6633C16.631 12.305 16.1484 13.3924 15.3769 14.2065L14.8253 13.6549ZM15.6469 10.8511C15.6249 10.2099 15.4389 9.61105 15.1287 9.09304L15.5608 9.4971L15.9074 9.19935L15.3754 8.39733L15.0243 8.12733L15.0252 8.10146L15.3769 7.74971C16.1485 8.56383 16.631 9.65117 16.6633 10.851L15.6469 10.8511ZM11.8417 7.30004C10.922 7.33163 10.0883 7.70054 9.4587 8.28848L8.74025 7.57009C9.55437 6.79848 10.6418 6.31591 11.8417 6.28361V7.30004ZM9.27902 8.46815C8.69112 9.09773 8.32227 9.93139 8.29063 10.8511H7.2742C7.3065 9.65122 7.78902 8.56387 8.56058 7.74976L9.27902 8.46815ZM8.29068 11.1052C8.30366 11.4829 8.37313 11.8458 8.492 12.1867L8.45361 12.3227L7.46053 12.3009C7.34854 11.92 7.28536 11.5192 7.27425 11.1052H8.29068Z" fill="#F5F5F5"/>
<path d="M8.5446 16.8649L9.46203 16.7164C9.54406 16.7031 9.57804 16.604 9.52128 16.5434C9.30064 16.3076 8.86208 15.8194 8.60816 15.4038C8.25876 14.832 7.64353 14.3607 7.64353 14.3607C7.64353 14.3607 7.76114 15.9332 8.94697 16.4732C8.94697 16.4732 7.77173 16.1767 7.02001 15.9755C6.26828 15.7744 6.0625 15.553 6.0625 15.553C6.0625 15.553 6.64942 17.0555 8.5446 16.8649Z" fill="#F5F5F5"/>
<path d="M7.63535 15.1074C7.60357 14.7156 7.31726 13.714 6.7775 12.886C6.7775 12.886 6.77816 14.8983 7.49262 15.5798C7.49262 15.5798 6.48125 14.6097 5.87774 14.165C5.31272 13.7487 5.0625 13.2757 5.0625 13.2757C5.0625 13.2757 5.21433 14.5471 6.03655 15.1814C6.59239 15.6102 7.8259 15.912 7.8259 15.912C7.8259 15.912 7.66713 15.4991 7.63535 15.1074Z" fill="#F5F5F5"/>
<path d="M5.69735 13.6039L6.31521 14.1382C6.37966 14.194 6.48006 14.15 6.48138 14.0647C6.48475 13.8498 6.49792 13.5236 6.54438 13.318C6.61848 12.9898 6.71017 11.924 6.33611 11.1493C6.33611 11.1493 5.88396 12.5376 6.23735 13.6939C6.23735 13.6939 5.68221 12.8112 5.11503 12.1427C4.8186 11.7933 4.70118 11.3814 4.70118 11.3814C4.70118 11.3814 4.69152 12.7674 5.69735 13.6039Z" fill="#F5F5F5"/>
<path d="M5.52781 12.2363C5.57623 12.3016 5.67673 12.2878 5.70439 12.2114C5.78562 11.9873 5.94326 11.5843 6.15255 11.2005C6.53369 10.5017 6.35791 9.6793 6.35791 9.6793C6.35791 9.6793 5.74601 10.7282 5.56864 11.8938C5.55711 11.8418 5.54445 11.7862 5.52931 11.7228C5.36136 11.0168 4.70812 9.25579 4.70812 9.25579C4.70812 9.25579 4.47834 10.2229 4.76554 10.9888C4.91305 11.3818 5.32531 11.9631 5.52781 12.2363Z" fill="#F5F5F5"/>
<path d="M5.40216 10.6901C5.42058 10.7604 5.51897 10.7622 5.53993 10.6925C5.59838 10.4984 5.72002 10.2309 5.973 9.97227C6.44943 9.48524 6.8107 8.80917 6.99538 8.20491C6.99538 8.20491 5.97881 9.02053 5.65829 9.57051C5.65829 9.57051 5.68997 8.81419 5.58127 8.26763C5.4886 7.80179 5.68547 7.35297 5.68547 7.35297C5.68547 7.35297 5.04128 7.97119 5.13657 9.10411C5.19652 9.81683 5.31934 10.3745 5.40216 10.6901Z" fill="#F5F5F5"/>
<path d="M6.04501 8.74823C6.23785 8.57147 6.57558 8.27035 6.90117 8.08768C7.33349 7.84515 7.6754 7.06272 7.75082 6.88863C7.75082 6.88863 6.54614 7.87444 6.21826 8.19094C6.21826 8.19094 6.41677 7.30951 6.54385 6.92833C6.67088 6.54719 6.65503 6.42011 6.76617 6.2613C6.76617 6.2613 6.18647 6.76952 6.02766 7.17451C5.89712 7.50732 5.92215 8.26392 5.90438 8.68158C5.90115 8.75714 5.98923 8.79933 6.04501 8.74823Z" fill="#F5F5F5"/>
<path d="M7.26368 6.97595C7.60249 6.70066 8.14244 5.89601 8.14244 5.89601C8.00866 5.97246 7.46482 6.16071 7.00957 6.62655C6.55428 7.09239 6.45898 7.72768 6.45898 7.72768C6.45898 7.72768 6.92487 7.2512 7.26368 6.97595Z" fill="#F5F5F5"/>
<path d="M14.9568 17.0979C13.9616 16.902 13.1093 16.759 12.1102 17.019C12.061 17.0318 12.0151 17.0465 11.9677 17.0604C11.9203 17.0465 11.8744 17.0317 11.8252 17.019C10.8262 16.7591 9.97386 16.902 8.97862 17.0979C8.08159 17.2743 7.22266 17.1216 7.22266 17.1216C7.22266 17.1216 7.84576 17.7543 9.26451 17.7543C9.88344 17.7543 10.6613 17.2333 11.1521 17.2056C11.273 17.1987 11.3924 17.2061 11.5106 17.2193C10.4567 17.6492 9.97021 18.3011 9.96065 18.3138C9.91832 18.3696 9.92924 18.4493 9.98507 18.4914C10.008 18.5091 10.0349 18.5175 10.0618 18.5175C10.1001 18.5175 10.1381 18.5001 10.163 18.4674C10.2017 18.4164 10.9803 17.611 11.9677 17.3135C12.9551 17.611 13.7337 18.4164 13.7724 18.4674C13.7974 18.5002 13.8353 18.5175 13.8737 18.5175C13.9005 18.5175 13.9274 18.5091 13.9504 18.4914C14.0062 18.4492 14.0171 18.3696 13.9748 18.3138C13.9652 18.3012 13.4787 17.6492 12.4248 17.2193C12.5431 17.2061 12.6624 17.1988 12.7833 17.2056C13.2741 17.2333 14.052 17.7543 14.6709 17.7543C16.0897 17.7543 16.7128 17.1216 16.7128 17.1216C16.7128 17.1216 15.8539 17.2743 14.9568 17.0979Z" fill="#F5F5F5"/>
<path d="M14.9891 16.4732C16.175 15.9332 16.2926 14.3607 16.2926 14.3607C16.2926 14.3607 15.6773 14.832 15.3279 15.4038C15.074 15.8193 14.6355 16.3076 14.4148 16.5434C14.3581 16.604 14.392 16.7031 14.4741 16.7164L15.3915 16.8649C17.2867 17.0555 17.8737 15.553 17.8737 15.553C17.8737 15.553 17.6679 15.7744 16.9161 15.9755C16.1644 16.1767 14.9891 16.4732 14.9891 16.4732Z" fill="#F5F5F5"/>
<path d="M18.0595 14.1651C17.456 14.6098 16.4447 15.5799 16.4447 15.5799C17.1591 14.8983 17.1598 12.8861 17.1598 12.8861C16.6201 13.714 16.3337 14.7156 16.3019 15.1074C16.2701 15.4992 16.1113 15.9121 16.1113 15.9121C16.1113 15.9121 17.3448 15.6103 17.9007 15.1815C18.7229 14.5472 18.8747 13.2758 18.8747 13.2758C18.8747 13.2758 18.6246 13.7487 18.0595 14.1651Z" fill="#F5F5F5"/>
<path d="M17.7001 13.6939C18.0535 12.5376 17.6014 11.1493 17.6014 11.1493C17.2273 11.924 17.319 12.9898 17.3931 13.318C17.4396 13.5236 17.4527 13.8498 17.4561 14.0647C17.4574 14.15 17.5578 14.1939 17.6223 14.1382L18.2401 13.6039C19.246 12.7674 19.2363 11.3815 19.2363 11.3815C19.2363 11.3815 19.1189 11.7934 18.8225 12.1428C18.2553 12.8112 17.7001 13.6939 17.7001 13.6939Z" fill="#F5F5F5"/>
<path d="M18.3688 11.8937C18.1914 10.7281 17.5795 9.67926 17.5795 9.67926C17.5795 9.67926 17.4038 10.5017 17.7849 11.2005C17.9942 11.5842 18.1518 11.9872 18.2331 12.2113C18.2608 12.2877 18.3613 12.3015 18.4096 12.2362C18.6121 11.963 19.0244 11.3818 19.1719 10.9887C19.4591 10.2228 19.2293 9.25566 19.2293 9.25566C19.2293 9.25566 18.576 11.0166 18.4081 11.7226C18.393 11.7862 18.3804 11.8417 18.3688 11.8937Z" fill="#F5F5F5"/>
<path d="M18.3575 8.26763C18.2488 8.81419 18.2805 9.57051 18.2805 9.57051C17.9599 9.02053 16.9434 8.20491 16.9434 8.20491C17.128 8.80917 17.4893 9.48524 17.9657 9.97227C18.2187 10.2309 18.3404 10.4984 18.3988 10.6925C18.4198 10.7621 18.5181 10.7604 18.5366 10.6901C18.6195 10.3745 18.7422 9.81683 18.8022 9.10411C18.8975 7.97119 18.2533 7.35297 18.2533 7.35297C18.2533 7.35297 18.4501 7.80179 18.3575 8.26763Z" fill="#F5F5F5"/>
<path d="M17.7181 8.19089C17.3902 7.8744 16.1855 6.88858 16.1855 6.88858C16.261 7.06267 16.6029 7.8451 17.0352 8.08763C17.3608 8.27025 17.6985 8.57142 17.8914 8.74819C17.9471 8.79933 18.0352 8.75714 18.032 8.68153C18.0142 8.26388 18.0392 7.50728 17.9087 7.17447C17.7499 6.76947 17.1702 6.26126 17.1702 6.26126C17.2814 6.42007 17.2655 6.54714 17.3925 6.92828C17.5195 7.30947 17.7181 8.19089 17.7181 8.19089Z" fill="#F5F5F5"/>
<path d="M16.6737 6.97595C17.0125 7.2512 17.4784 7.72768 17.4784 7.72768C17.4784 7.72768 17.3831 7.09244 16.9278 6.62655C16.4725 6.16067 15.9287 5.97242 15.7949 5.89601C15.7949 5.89601 16.3349 6.70066 16.6737 6.97595Z" fill="#F5F5F5"/>
<path d="M14.5968 9.59488L14.3809 9.73705L14.6112 9.77309L14.863 10.0515L15.004 9.96069L14.8348 9.61489L14.5968 9.59488Z" fill="#F5F5F5"/>
<path d="M14.9375 10.7808L15.0174 10.8114L15.2199 10.2674L15.1643 10.192L15.077 10.2357L14.938 10.728L14.9375 10.7808Z" fill="#F5F5F5"/>
<path d="M12.9057 9.85846L12.8421 9.79096L12.6992 9.97363L12.7347 10.0289L12.9057 9.85846Z" fill="#F5F5F5"/>
<path d="M14.3684 9.43368L14.407 9.30942L14.2792 9.33539L14.243 9.34556L14.2051 9.39628L14.3433 9.55659L14.3993 9.50901L14.3684 9.43368Z" fill="#F5F5F5"/>
<path d="M11.8023 12.3439L11.8043 12.2666L11.707 12.4075L11.7348 12.4551L11.8023 12.3439Z" fill="#F5F5F5"/>
</g>
<defs>
<clipPath id="clip0_72_4451">
<path d="M0 2C0 0.895432 0.895431 0 2 0H21.9998C23.1043 0 23.9998 0.895431 23.9998 2V21.9998C23.9998 23.1043 23.1043 23.9998 21.9998 23.9998H2C0.895432 23.9998 0 23.1043 0 21.9998V2Z" fill="white"/>
</clipPath>
</defs>
</svg>
