<svg width="24" height="24" viewBox="0 0 24 24" fill="none" xmlns="http://www.w3.org/2000/svg">
<g clip-path="url(#clip0_72_4518)">
<path d="M24.0017 6.10352e-05H0.00195312V8.00014H24.0017V6.10352e-05Z" fill="#82AFFF"/>
<path d="M24.0017 15.9998H0.00195312V23.9998H24.0017V15.9998Z" fill="#73AF00"/>
<path d="M24.0017 8.00014H0.00195312V16.0002H24.0017V8.00014Z" fill="#F5F5F5"/>
<path d="M24.0017 7.28949H0.00195312V8.28698H24.0017V7.28949Z" fill="#FF4B55"/>
<path d="M24.0017 15.7128H0.00195312V16.7103H24.0017V15.7128Z" fill="#FF4B55"/>
<path d="M5.68209 5.99533C4.3891 5.99533 3.34108 4.94975 3.34108 3.6614C3.34108 2.36832 4.3891 1.3181 5.68209 1.3181C5.68701 1.3181 5.69198 1.31814 5.69685 1.31819C5.77293 1.31922 5.79965 1.21807 5.73257 1.18211C5.33442 0.96874 4.88002 0.847944 4.39693 0.851366C2.84983 0.862429 1.59317 2.14445 1.60953 3.69149C1.62575 5.22265 2.87749 6.46201 4.41708 6.46201C4.89356 6.46201 5.34154 6.3415 5.73468 6.13103C5.80157 6.09522 5.77452 5.99402 5.69868 5.99519C5.6932 5.99528 5.68766 5.99533 5.68209 5.99533Z" fill="#F5F5F5"/>
<path d="M7.51447 5.34992L7.40989 5.66341L7.07942 5.66599C7.03663 5.66632 7.01891 5.72093 7.05331 5.74633L7.31919 5.94265L7.21948 6.25774C7.20659 6.29852 7.25305 6.33227 7.28783 6.30738L7.5567 6.11519L7.82557 6.30738C7.8604 6.33227 7.9068 6.29852 7.89391 6.25774L7.79421 5.94265L8.06008 5.74633C8.09449 5.72093 8.07677 5.66632 8.03398 5.66599L7.70351 5.66341L7.59893 5.34992C7.58543 5.30932 7.52801 5.30932 7.51447 5.34992Z" fill="#F5F5F5"/>
<path d="M9.34064 5.34992L9.23606 5.66341L8.90559 5.66599C8.8628 5.66632 8.84508 5.72093 8.87948 5.74633L9.14536 5.94265L9.04566 6.25774C9.03277 6.29852 9.07922 6.33227 9.114 6.30738L9.38287 6.11519L9.65174 6.30738C9.68657 6.33227 9.73298 6.29852 9.72009 6.25774L9.62038 5.94265L9.88626 5.74633C9.92066 5.72093 9.90294 5.66632 9.86015 5.66599L9.52968 5.66341L9.4251 5.34992C9.4116 5.30932 9.35418 5.30932 9.34064 5.34992Z" fill="#F5F5F5"/>
<path d="M13.0438 5.34992L12.9392 5.66341L12.6087 5.66599C12.5659 5.66632 12.5482 5.72093 12.5826 5.74633L12.8485 5.94265L12.7488 6.25774C12.7359 6.29852 12.7823 6.33227 12.8171 6.30738L13.086 6.11519L13.3549 6.30738C13.3897 6.33227 13.4361 6.29852 13.4232 6.25774L13.3235 5.94265L13.5894 5.74633C13.6238 5.72093 13.6061 5.66632 13.5633 5.66599L13.2328 5.66341L13.1282 5.34992C13.1147 5.30932 13.0573 5.30932 13.0438 5.34992Z" fill="#F5F5F5"/>
<path d="M14.8602 5.34992L14.7556 5.66341L14.4251 5.66599C14.3823 5.66632 14.3646 5.72093 14.399 5.74633L14.6649 5.94265L14.5652 6.25774C14.5523 6.29852 14.5987 6.33227 14.6335 6.30738L14.9024 6.11519L15.1713 6.30738C15.2061 6.33227 15.2525 6.29852 15.2396 6.25774L15.1399 5.94265L15.4058 5.74633C15.4402 5.72093 15.4225 5.66632 15.3797 5.66599L15.0492 5.66341L14.9446 5.34992C14.9311 5.30932 14.8737 5.30932 14.8602 5.34992Z" fill="#F5F5F5"/>
<path d="M9.34064 3.17685L9.23606 3.49035L8.90559 3.49293C8.8628 3.49326 8.84508 3.54787 8.87948 3.57327L9.14536 3.76958L9.04566 4.08467C9.03277 4.12545 9.07922 4.1592 9.114 4.13431L9.38287 3.94213L9.65174 4.13431C9.68657 4.1592 9.73298 4.12545 9.72009 4.08467L9.62038 3.76958L9.88626 3.57327C9.92066 3.54787 9.90294 3.49326 9.86015 3.49293L9.52968 3.49035L9.4251 3.17685C9.4116 3.13626 9.35418 3.13626 9.34064 3.17685Z" fill="#F5F5F5"/>
<path d="M11.2039 3.17685L11.0993 3.49035L10.7689 3.49293C10.7261 3.49326 10.7084 3.54787 10.7428 3.57327L11.0086 3.76958L10.9089 4.08467C10.896 4.12545 10.9425 4.1592 10.9773 4.13431L11.2462 3.94213L11.515 4.13431C11.5499 4.1592 11.5963 4.12545 11.5834 4.08467L11.4837 3.76958L11.7495 3.57327C11.7839 3.54787 11.7662 3.49326 11.7234 3.49293L11.393 3.49035L11.2884 3.17685C11.2749 3.13626 11.2175 3.13626 11.2039 3.17685Z" fill="#F5F5F5"/>
<path d="M13.0438 3.17685L12.9392 3.49035L12.6087 3.49293C12.5659 3.49326 12.5482 3.54787 12.5826 3.57327L12.8485 3.76958L12.7488 4.08467C12.7359 4.12545 12.7823 4.1592 12.8171 4.13431L13.086 3.94213L13.3549 4.13431C13.3897 4.1592 13.4361 4.12545 13.4232 4.08467L13.3235 3.76958L13.5894 3.57327C13.6238 3.54787 13.6061 3.49326 13.5633 3.49293L13.2328 3.49035L13.1282 3.17685C13.1147 3.13626 13.0573 3.13626 13.0438 3.17685Z" fill="#F5F5F5"/>
<path d="M14.8602 3.17685L14.7556 3.49035L14.4251 3.49293C14.3823 3.49326 14.3646 3.54787 14.399 3.57327L14.6649 3.76958L14.5652 4.08467C14.5523 4.12545 14.5987 4.1592 14.6335 4.13431L14.9024 3.94213L15.1713 4.13431C15.2061 4.1592 15.2525 4.12545 15.2396 4.08467L15.1399 3.76958L15.4058 3.57327C15.4402 3.54787 15.4225 3.49326 15.3797 3.49293L15.0492 3.49035L14.9446 3.17685C14.9311 3.13626 14.8737 3.13626 14.8602 3.17685Z" fill="#F5F5F5"/>
<path d="M11.2039 5.34992L11.0993 5.66341L10.7689 5.66599C10.7261 5.66632 10.7084 5.72093 10.7428 5.74633L11.0086 5.94265L10.9089 6.25774C10.896 6.29852 10.9425 6.33227 10.9773 6.30738L11.2462 6.11519L11.515 6.30738C11.5499 6.33227 11.5963 6.29852 11.5834 6.25774L11.4837 5.94265L11.7495 5.74633C11.7839 5.72093 11.7662 5.66632 11.7234 5.66599L11.393 5.66341L11.2884 5.34992C11.2749 5.30932 11.2175 5.30932 11.2039 5.34992Z" fill="#F5F5F5"/>
<path d="M11.2039 1.0038L11.0993 1.3173L10.7689 1.31988C10.7261 1.3202 10.7084 1.37481 10.7428 1.40022L11.0086 1.59653L10.9089 1.91162C10.896 1.9524 10.9425 1.98615 10.9773 1.96126L11.2462 1.76907L11.515 1.96126C11.5499 1.98615 11.5963 1.9524 11.5834 1.91162L11.4837 1.59653L11.7495 1.40022C11.7839 1.37481 11.7662 1.3202 11.7234 1.31988L11.393 1.3173L11.2884 1.0038C11.2749 0.963254 11.2175 0.963254 11.2039 1.0038Z" fill="#F5F5F5"/>
<path d="M13.0438 5.34992L12.9392 5.66341L12.6087 5.66599C12.5659 5.66632 12.5482 5.72093 12.5826 5.74633L12.8485 5.94265L12.7488 6.25774C12.7359 6.29852 12.7823 6.33227 12.8171 6.30738L13.086 6.11519L13.3549 6.30738C13.3897 6.33227 13.4361 6.29852 13.4232 6.25774L13.3235 5.94265L13.5894 5.74633C13.6238 5.72093 13.6061 5.66632 13.5633 5.66599L13.2328 5.66341L13.1282 5.34992C13.1147 5.30932 13.0573 5.30932 13.0438 5.34992Z" fill="#F5F5F5"/>
<path d="M14.8602 5.34992L14.7556 5.66341L14.4251 5.66599C14.3823 5.66632 14.3646 5.72093 14.399 5.74633L14.6649 5.94265L14.5652 6.25774C14.5523 6.29852 14.5987 6.33227 14.6335 6.30738L14.9024 6.11519L15.1713 6.30738C15.2061 6.33227 15.2525 6.29852 15.2396 6.25774L15.1399 5.94265L15.4058 5.74633C15.4402 5.72093 15.4225 5.66632 15.3797 5.66599L15.0492 5.66341L14.9446 5.34992C14.9311 5.30932 14.8737 5.30932 14.8602 5.34992Z" fill="#F5F5F5"/>
<path d="M13.0438 1.0038L12.9392 1.3173L12.6087 1.31988C12.5659 1.3202 12.5482 1.37481 12.5826 1.40022L12.8485 1.59653L12.7488 1.91162C12.7359 1.9524 12.7823 1.98615 12.8171 1.96126L13.086 1.76907L13.3549 1.96126C13.3897 1.98615 13.4361 1.9524 13.4232 1.91162L13.3235 1.59653L13.5894 1.40022C13.6238 1.37481 13.6061 1.3202 13.5633 1.31988L13.2328 1.3173L13.1282 1.0038C13.1147 0.963254 13.0573 0.963254 13.0438 1.0038Z" fill="#F5F5F5"/>
<path d="M14.8602 1.0038L14.7556 1.3173L14.4251 1.31988C14.3823 1.3202 14.3646 1.37481 14.399 1.40022L14.6649 1.59653L14.5652 1.91162C14.5523 1.9524 14.5987 1.98615 14.6335 1.96126L14.9024 1.76907L15.1713 1.96126C15.2061 1.98615 15.2525 1.9524 15.2396 1.91162L15.1399 1.59653L15.4058 1.40022C15.4402 1.37481 15.4225 1.3202 15.3797 1.31988L15.0492 1.3173L14.9446 1.0038C14.9311 0.963254 14.8737 0.963254 14.8602 1.0038Z" fill="#F5F5F5"/>
</g>
<defs>
<clipPath id="clip0_72_4518">
<path d="M0 2C0 0.895432 0.895431 0 2 0H21.9998C23.1043 0 23.9998 0.895431 23.9998 2V21.9998C23.9998 23.1043 23.1043 23.9998 21.9998 23.9998H2C0.895432 23.9998 0 23.1043 0 21.9998V2Z" fill="white"/>
</clipPath>
</defs>
</svg>
