<svg width="24" height="24" viewBox="0 0 24 24" fill="none" xmlns="http://www.w3.org/2000/svg">
<g clip-path="url(#clip0_72_4549)">
<path d="M23.9999 6.10352e-05H12V23.9998H23.9999V6.10352e-05Z" fill="#F5F5F5"/>
<path d="M11.9999 6.10352e-05H0V23.9998H11.9999V6.10352e-05Z" fill="#FFE15A"/>
<path d="M19.1349 8.19159L19.1074 8.24658C19.1962 8.29205 19.247 8.34384 19.247 8.39887L19.2332 8.12559C19.2146 8.1623 19.1784 8.18864 19.1349 8.19159Z" fill="#EBEBEB"/>
<path d="M16.9873 8.24658L16.9598 8.19159C16.9163 8.18859 16.8801 8.1623 16.8614 8.12559L16.8477 8.39887C16.8477 8.34384 16.8984 8.29205 16.9873 8.24658Z" fill="#EBEBEB"/>
<path d="M16.9675 7.95319C17.0338 7.95319 17.0875 8.00691 17.0875 8.07319C17.0875 8.09719 17.0787 8.11828 17.0665 8.13703L17.0981 8.20022C17.1887 8.16839 17.3003 8.14135 17.4275 8.12044L17.414 8.06644C17.3644 8.05172 17.3275 8.00761 17.3275 7.95319C17.3275 7.88691 17.3813 7.83319 17.4475 7.83319C17.5138 7.83319 17.5675 7.88691 17.5675 7.95319C17.5675 7.98699 17.5533 8.01727 17.5308 8.03911L17.5469 8.10319C17.6137 8.09485 17.6838 8.08819 17.7566 8.08327C17.7512 8.06072 17.7476 8.03747 17.7476 8.01324C17.7476 7.84754 17.8819 7.71324 18.0476 7.71324C18.2133 7.71324 18.3476 7.84754 18.3476 8.01324C18.3476 8.03747 18.3439 8.06072 18.3385 8.08327C18.4113 8.08819 18.4814 8.09485 18.5483 8.10319L18.5643 8.03911C18.5418 8.01732 18.5276 7.98704 18.5276 7.95319C18.5276 7.88691 18.5813 7.83319 18.6476 7.83319C18.7139 7.83319 18.7676 7.88691 18.7676 7.95319C18.7676 8.00757 18.7307 8.05168 18.6811 8.06644L18.6676 8.12044C18.7949 8.14135 18.9065 8.16839 18.997 8.20022L19.0286 8.13703C19.0165 8.11828 19.0076 8.09719 19.0076 8.07319C19.0076 8.00691 19.0613 7.95319 19.1276 7.95319C19.1708 7.95319 19.2069 7.97724 19.2281 8.0115L19.2188 7.82851C19.1004 7.69398 18.6214 7.59324 18.0476 7.59324C17.4739 7.59324 16.9949 7.69398 16.8764 7.82851L16.8672 8.0115C16.8882 7.97724 16.9244 7.95319 16.9675 7.95319Z" fill="#EBEBEB"/>
<path d="M18.2379 6.54145C18.2703 6.50053 18.2905 6.44939 18.2905 6.39309C18.2905 6.28139 18.2139 6.18834 18.1105 6.16158V6.01472C18.1457 5.99381 18.1705 5.95706 18.1705 5.91309C18.1705 5.84681 18.1168 5.79309 18.0505 5.79309C17.9843 5.79309 17.9305 5.84681 17.9305 5.91309C17.9305 5.95702 17.9553 5.99381 17.9905 6.01472V6.16158C17.8872 6.18834 17.8105 6.28139 17.8105 6.39309C17.8105 6.44939 17.8307 6.50048 17.8632 6.54145C17.9243 6.52476 17.9864 6.51309 18.0505 6.51309C18.1147 6.51309 18.1768 6.52476 18.2379 6.54145Z" fill="#E6B432"/>
<path d="M17.5479 7.14894L17.5373 7.10634C17.4877 7.09162 17.4508 7.04751 17.4508 6.99309C17.4508 6.92681 17.5045 6.87309 17.5708 6.87309C17.6371 6.87309 17.6908 6.92681 17.6908 6.99309C17.6908 7.02688 17.6766 7.05716 17.6541 7.07901L17.6677 7.1331C17.7851 7.1203 17.9145 7.11308 18.0509 7.11308C17.9514 7.11308 17.8709 7.03251 17.8709 6.93309C17.8709 6.83367 17.9514 6.75309 18.0509 6.75309C18.1503 6.75309 18.2308 6.83367 18.2308 6.93309C18.2308 7.03251 18.1503 7.11308 18.0509 7.11308C18.1872 7.11308 18.3166 7.1203 18.4341 7.1331L18.4476 7.07901C18.4251 7.05721 18.4109 7.02693 18.4109 6.99309C18.4109 6.92681 18.4646 6.87309 18.5309 6.87309C18.5972 6.87309 18.6509 6.92681 18.6509 6.99309C18.6509 7.04746 18.614 7.09157 18.5644 7.10634L18.5538 7.14894C18.6148 7.15837 18.6715 7.16929 18.7224 7.18176L18.8109 7.00485C18.6578 6.76767 18.4601 6.6022 18.2383 6.5415C18.1772 6.52481 18.1151 6.51314 18.0509 6.51314C17.9868 6.51314 17.9247 6.52476 17.8636 6.5415C17.6418 6.60225 17.4441 6.76767 17.291 7.00485L17.3795 7.18176C17.4302 7.16924 17.487 7.15837 17.5479 7.14894Z" fill="#EBEBEB"/>
<path d="M17.9303 16.9751V16.7131C17.9303 16.685 17.9342 16.658 17.9403 16.6318C17.9372 16.6298 17.9336 16.6283 17.9303 16.6264C17.8949 16.6058 17.8542 16.5931 17.8103 16.5931C17.7664 16.5931 17.7257 16.6058 17.6903 16.6264C17.6189 16.668 17.5703 16.7445 17.5703 16.8331C17.5703 16.8977 17.5961 16.956 17.6376 16.9991C17.689 16.9707 17.7474 16.9531 17.8103 16.9531C17.8526 16.9531 17.8926 16.9617 17.9303 16.9751Z" fill="#E6B432"/>
<path d="M18.1708 16.0264C18.0993 16.0679 18.0508 16.1444 18.0508 16.2331C18.0508 16.2976 18.0766 16.3559 18.118 16.3991C18.1695 16.3707 18.2278 16.3531 18.2908 16.3531C18.3537 16.3531 18.412 16.3707 18.4635 16.3991C18.5049 16.3559 18.5308 16.2976 18.5308 16.2331C18.5308 16.1444 18.4822 16.0679 18.4108 16.0264C18.3753 16.0057 18.3347 15.9931 18.2908 15.9931C18.2469 15.9931 18.2062 16.0058 18.1708 16.0264Z" fill="#E6B432"/>
<path d="M18.1184 16.399C18.0303 16.4476 17.9645 16.531 17.9412 16.6317C17.9351 16.6579 17.9312 16.6849 17.9312 16.713V16.975C17.8935 16.9616 17.8534 16.953 17.8112 16.953C17.7482 16.953 17.6899 16.9706 17.6384 16.999C17.5273 17.0602 17.4512 17.1771 17.4512 17.313V17.793H18.1712V17.313C18.1712 17.2707 18.1625 17.2307 18.1491 17.193H18.6512V16.713C18.6512 16.5771 18.575 16.4603 18.4639 16.399C18.4124 16.3706 18.3541 16.353 18.2912 16.353C18.2282 16.353 18.1699 16.3706 18.1184 16.399Z" fill="#FF4B57"/>
<path d="M18.1716 11.5732L18.3767 11.7782L18.4468 11.7081C18.4634 11.6915 18.4841 11.6828 18.5055 11.678L19.5203 10.6629L20.1704 11.313L20.5947 10.8887L20.425 10.719L20.3401 10.8038L20.1704 10.6342L20.2553 10.5493L20.1704 10.4645L20.3401 10.2948L20.425 10.3796L20.5098 10.2948L20.6795 10.4645L20.5947 10.5493L20.7644 10.719L21.1886 10.2947L20.5384 9.64455L20.9833 9.19947C20.9619 9.19066 20.9417 9.17768 20.9243 9.16024L20.6843 8.92024C20.6664 8.90234 20.6533 8.88157 20.6445 8.85945L18.1445 11.3601C18.1605 11.3805 18.1716 11.405 18.1716 11.433L18.1716 11.5732Z" fill="#E6B432"/>
<path d="M17.8964 12.2874L17.557 11.948L16.5019 13.0033C16.4082 13.097 16.4082 13.249 16.502 13.3427C16.5488 13.3895 16.6102 13.413 16.6716 13.413C16.733 13.413 16.7945 13.3895 16.8414 13.3427L17.666 12.5178L17.8964 12.2874Z" fill="#E6B432"/>
<path d="M14.6166 13.533C14.6233 13.5142 14.6276 13.4942 14.6276 13.4731C14.6276 13.3737 14.547 13.2931 14.4476 13.2931C14.3482 13.2931 14.2676 13.3737 14.2676 13.4731C14.2676 13.5725 14.3482 13.6531 14.4476 13.6531C14.4687 13.6531 14.4887 13.6488 14.5075 13.6421C14.5415 13.6034 14.5779 13.5671 14.6166 13.533Z" fill="#D2D2D2"/>
<path d="M14.5075 15.2241C14.4887 15.2174 14.4687 15.2131 14.4476 15.2131C14.3482 15.2131 14.2676 15.2936 14.2676 15.3931C14.2676 15.4925 14.3482 15.5731 14.4476 15.5731C14.547 15.5731 14.6276 15.4925 14.6276 15.3931C14.6276 15.3719 14.6233 15.3519 14.6166 15.3331C14.5779 15.2991 14.5416 15.2627 14.5075 15.2241Z" fill="#D2D2D2"/>
<path d="M16.3075 13.6421C16.3264 13.6488 16.3464 13.6531 16.3675 13.6531C16.4669 13.6531 16.5475 13.5725 16.5475 13.4731C16.5475 13.3737 16.4669 13.2931 16.3675 13.2931C16.2681 13.2931 16.1875 13.3737 16.1875 13.4731C16.1875 13.4943 16.1918 13.5142 16.1985 13.5331C16.2372 13.5671 16.2736 13.6034 16.3075 13.6421Z" fill="#D2D2D2"/>
<path d="M16.1875 15.3931C16.1875 15.4925 16.2681 15.5731 16.3675 15.5731C16.423 15.5731 16.4719 15.5475 16.5049 15.508C16.3922 15.4672 16.2867 15.4218 16.1897 15.372C16.1888 15.379 16.1875 15.3858 16.1875 15.3931Z" fill="#D2D2D2"/>
<path d="M15.9404 15.2192C15.9151 15.2009 15.9 15.1744 15.8941 15.1461C15.8737 15.1505 15.8527 15.153 15.831 15.153C15.6885 15.153 15.5694 15.0529 15.5389 14.9194C15.5063 14.9525 15.4611 14.973 15.411 14.973C15.3609 14.973 15.3156 14.9525 15.283 14.9194C15.2526 15.0529 15.1335 15.153 14.991 15.153C14.8256 15.153 14.691 15.0185 14.691 14.853C14.691 14.7105 14.7911 14.5914 14.9246 14.561C14.8915 14.5284 14.871 14.4831 14.871 14.433C14.871 14.3829 14.8915 14.3377 14.9246 14.305C14.7911 14.2747 14.691 14.1556 14.691 14.013C14.691 13.8475 14.8256 13.713 14.991 13.713C15.1335 13.713 15.2526 13.8131 15.283 13.9466C15.3156 13.9135 15.3609 13.893 15.411 13.893C15.4611 13.893 15.5063 13.9135 15.5389 13.9466C15.5693 13.8131 15.6884 13.713 15.831 13.713C15.9964 13.713 16.131 13.8475 16.131 14.013C16.131 14.1556 16.0308 14.2747 15.8974 14.305C15.9304 14.3377 15.951 14.3829 15.951 14.433C15.951 14.4831 15.9304 14.5284 15.8974 14.561C16.0308 14.5914 16.131 14.7104 16.131 14.853C16.131 14.9163 16.111 14.9748 16.0775 15.0233C16.0786 15.024 16.08 15.0241 16.0811 15.0249C16.1587 15.0811 16.2482 15.1334 16.3476 15.1812C16.3775 15.1438 16.4047 15.1043 16.43 15.0636C16.5091 14.9362 16.5649 14.7934 16.5917 14.6404C16.6036 14.5729 16.6109 14.5038 16.6109 14.433C16.6109 14.1299 16.497 13.8535 16.311 13.642C16.2769 13.6033 16.2406 13.567 16.2019 13.533C15.9905 13.3469 15.7141 13.233 15.4109 13.233C15.1078 13.233 14.8314 13.3469 14.6199 13.533C14.5812 13.567 14.5449 13.6034 14.5109 13.642C14.3248 13.8535 14.2109 14.1299 14.2109 14.433C14.2109 14.7361 14.3248 15.0126 14.5109 15.224C14.5449 15.2627 14.5813 15.2991 14.6199 15.3331C14.8314 15.5191 15.1078 15.633 15.4109 15.633C15.6993 15.633 15.9641 15.5307 16.1712 15.3606C16.0877 15.3165 16.0099 15.2696 15.9404 15.2192ZM16.3387 14.1902C16.359 14.268 16.371 14.349 16.371 14.433C16.371 14.517 16.359 14.5981 16.3387 14.6758C16.3048 14.5791 16.2447 14.4958 16.1662 14.433C16.2447 14.3702 16.3048 14.2869 16.3387 14.1902ZM15.6537 13.5053C15.5571 13.5392 15.4738 13.5993 15.411 13.6778C15.3482 13.5993 15.2649 13.5392 15.1682 13.5053C15.2459 13.485 15.327 13.473 15.411 13.473C15.495 13.473 15.5761 13.485 15.6537 13.5053ZM14.4833 14.1902C14.5172 14.2869 14.5773 14.3702 14.6558 14.433C14.5773 14.4958 14.5172 14.5791 14.4833 14.6758C14.463 14.5981 14.451 14.517 14.451 14.433C14.451 14.349 14.4629 14.268 14.4833 14.1902ZM15.1682 15.3607C15.2649 15.3268 15.3482 15.2667 15.411 15.1883C15.4738 15.2667 15.5571 15.3269 15.6537 15.3607C15.576 15.381 15.495 15.393 15.411 15.393C15.327 15.393 15.2459 15.381 15.1682 15.3607Z" fill="#E6B432"/>
<path d="M15.233 14.433C15.233 14.3335 15.1525 14.253 15.053 14.253C15.0037 14.253 14.9591 14.2728 14.9266 14.305C14.8936 14.3376 14.873 14.3829 14.873 14.433C14.873 14.4831 14.8936 14.5283 14.9266 14.5609C14.9592 14.593 15.0037 14.613 15.053 14.613C15.1525 14.613 15.233 14.5324 15.233 14.433Z" fill="#F0C814"/>
<path d="M15.5938 14.433C15.5938 14.5324 15.6743 14.613 15.7737 14.613C15.8231 14.613 15.8677 14.5931 15.9002 14.5609C15.9332 14.5283 15.9537 14.483 15.9537 14.433C15.9537 14.3829 15.9332 14.3376 15.9002 14.305C15.8676 14.2729 15.8231 14.253 15.7737 14.253C15.6744 14.253 15.5938 14.3336 15.5938 14.433Z" fill="#F0C814"/>
<path d="M15.4144 14.253C15.5138 14.253 15.5944 14.1724 15.5944 14.073C15.5944 14.0237 15.5745 13.979 15.5423 13.9465C15.5097 13.9135 15.4645 13.893 15.4144 13.893C15.3643 13.893 15.319 13.9135 15.2864 13.9465C15.2543 13.9791 15.2344 14.0237 15.2344 14.073C15.2344 14.1724 15.315 14.253 15.4144 14.253Z" fill="#F0C814"/>
<path d="M15.4144 14.613C15.315 14.613 15.2344 14.6935 15.2344 14.793C15.2344 14.8423 15.2543 14.8869 15.2864 14.9194C15.319 14.9524 15.3643 14.973 15.4144 14.973C15.4645 14.973 15.5097 14.9524 15.5423 14.9194C15.5745 14.8869 15.5944 14.8423 15.5944 14.793C15.5944 14.6936 15.5138 14.613 15.4144 14.613Z" fill="#F0C814"/>
<path d="M20.9215 9.1603C20.939 9.17774 20.9591 9.19072 20.9806 9.19953C21.0024 9.20844 21.0256 9.21303 21.0488 9.21303C21.0949 9.21303 21.1409 9.19546 21.176 9.1603C21.2384 9.09791 21.2422 9.00275 21.1939 8.93263L21.2602 8.66727C21.2696 8.66962 21.2786 8.67304 21.2887 8.67304C21.355 8.67304 21.4087 8.61932 21.4087 8.55304C21.4087 8.48676 21.355 8.43304 21.2887 8.43304C21.2224 8.43304 21.1687 8.48676 21.1687 8.55304C21.1687 8.56316 21.1721 8.57221 21.1745 8.58159L20.9091 8.64791C20.839 8.59959 20.7439 8.60338 20.6815 8.66573C20.6291 8.71813 20.6159 8.79472 20.6417 8.85946C20.6505 8.88158 20.6636 8.90235 20.6815 8.92025L20.9215 9.1603Z" fill="#D2D2D2"/>
<path d="M17.9291 11.9833V11.913V11.433C17.9291 11.4051 17.9402 11.3806 17.9562 11.3602L15.4562 8.8595C15.4474 8.88163 15.4343 8.90239 15.4164 8.9203L15.1764 9.1603C15.159 9.17773 15.1388 9.19072 15.1174 9.19953L15.5623 9.6446L14.9121 10.2948L15.3364 10.7191L15.5061 10.5494L15.4212 10.4645L15.5909 10.2948L15.6757 10.3797L15.7606 10.2948L15.9303 10.4645L15.8454 10.5494L15.9303 10.6342L15.7606 10.8039L15.6757 10.7191L15.5061 10.8887L15.9303 11.313L16.5804 10.663L17.5952 11.6781C17.6166 11.6829 17.6373 11.6915 17.6539 11.7082L17.9291 11.9833Z" fill="#D2D2D2"/>
<path d="M18.2051 12.2874L18.4354 12.5178L19.26 13.3427C19.3069 13.3896 19.3683 13.413 19.4298 13.413C19.4912 13.413 19.5526 13.3896 19.5995 13.3427C19.6932 13.2491 19.6932 13.0971 19.5995 13.0033L18.5444 11.948L18.2051 12.2874Z" fill="#D2D2D2"/>
<path d="M18.1699 11.913V11.9833L18.375 11.7783L18.1699 11.5732V11.913Z" fill="#D2D2D2"/>
<path d="M21.5888 13.642C21.6076 13.6487 21.6276 13.653 21.6487 13.653C21.7482 13.653 21.8287 13.5725 21.8287 13.473C21.8287 13.3736 21.7482 13.293 21.6487 13.293C21.5493 13.293 21.4688 13.3736 21.4688 13.473C21.4688 13.4942 21.4731 13.5141 21.4798 13.533C21.5184 13.567 21.5548 13.6033 21.5888 13.642Z" fill="#D2D2D2"/>
<path d="M21.6487 15.213C21.6276 15.213 21.6076 15.2173 21.5888 15.224C21.5548 15.2627 21.5184 15.299 21.4798 15.3331C21.4731 15.3519 21.4688 15.3719 21.4688 15.393C21.4688 15.4924 21.5493 15.573 21.6487 15.573C21.7482 15.573 21.8287 15.4924 21.8287 15.393C21.8287 15.2936 21.7482 15.213 21.6487 15.213Z" fill="#D2D2D2"/>
<path d="M19.8978 13.5329C19.9045 13.5141 19.9088 13.4941 19.9088 13.473C19.9088 13.3736 19.8282 13.293 19.7288 13.293C19.6294 13.293 19.5488 13.3736 19.5488 13.473C19.5488 13.5724 19.6294 13.653 19.7288 13.653C19.75 13.653 19.7699 13.6487 19.7888 13.642C19.8228 13.6033 19.8591 13.567 19.8978 13.5329Z" fill="#D2D2D2"/>
<path d="M19.7292 15.573C19.8286 15.573 19.9092 15.4924 19.9092 15.393C19.9092 15.3858 19.9079 15.3789 19.9071 15.3719C19.81 15.4217 19.7046 15.4672 19.5918 15.508C19.6248 15.5474 19.6738 15.573 19.7292 15.573Z" fill="#D2D2D2"/>
<path d="M21.5903 15.224C21.7763 15.0126 21.8902 14.7361 21.8902 14.433C21.8902 14.1299 21.7763 13.8535 21.5903 13.642C21.5562 13.6033 21.5199 13.567 21.4812 13.533C21.2698 13.3469 20.9934 13.233 20.6902 13.233C20.3871 13.233 20.1107 13.3469 19.8992 13.533C19.8605 13.567 19.8242 13.6034 19.7902 13.642C19.6041 13.8535 19.4902 14.1299 19.4902 14.433C19.4902 14.5042 19.4976 14.5736 19.5096 14.6415C19.5365 14.7941 19.5923 14.9365 19.6712 15.0635C19.6965 15.1043 19.7237 15.1438 19.7536 15.1811C19.8529 15.1334 19.9423 15.0812 20.0199 15.025C20.021 15.0242 20.0225 15.0241 20.0237 15.0233C19.9902 14.9749 19.9702 14.9163 19.9702 14.853C19.9702 14.7105 20.0704 14.5914 20.2038 14.561C20.1708 14.5284 20.1502 14.4831 20.1502 14.433C20.1502 14.3829 20.1708 14.3377 20.2038 14.305C20.0704 14.2747 19.9702 14.1556 19.9702 14.013C19.9702 13.8475 20.1048 13.713 20.2702 13.713C20.4127 13.713 20.5318 13.8131 20.5623 13.9466C20.5949 13.9135 20.6401 13.893 20.6902 13.893C20.7403 13.893 20.7856 13.9135 20.8182 13.9466C20.8486 13.8131 20.9677 13.713 21.1102 13.713C21.2756 13.713 21.4102 13.8475 21.4102 14.013C21.4102 14.1556 21.3101 14.2747 21.1766 14.305C21.2097 14.3377 21.2302 14.3829 21.2302 14.433C21.2302 14.4831 21.2097 14.5284 21.1766 14.561C21.3101 14.5914 21.4102 14.7104 21.4102 14.853C21.4102 15.0185 21.2756 15.153 21.1102 15.153C20.9677 15.153 20.8486 15.0529 20.8182 14.9194C20.7856 14.9525 20.7403 14.973 20.6902 14.973C20.6401 14.973 20.5949 14.9525 20.5623 14.9194C20.5319 15.0529 20.4128 15.153 20.2702 15.153C20.2485 15.153 20.2274 15.1504 20.2069 15.146C20.2011 15.1744 20.1859 15.201 20.1606 15.2193C20.0912 15.2697 20.0134 15.3165 19.93 15.3605C20.1371 15.5306 20.4019 15.633 20.6903 15.633C20.9934 15.633 21.2698 15.5191 21.4813 15.333C21.5199 15.2991 21.5563 15.2627 21.5903 15.224ZM19.7626 14.6758C19.7422 14.5981 19.7303 14.517 19.7303 14.433C19.7303 14.349 19.7422 14.268 19.7626 14.1902C19.7965 14.2869 19.8566 14.3702 19.935 14.433C19.8566 14.4958 19.7964 14.5791 19.7626 14.6758ZM20.6902 13.6778C20.6274 13.5993 20.5441 13.5392 20.4475 13.5054C20.5252 13.485 20.6062 13.4731 20.6902 13.4731C20.7742 13.4731 20.8553 13.485 20.933 13.5054C20.8363 13.5392 20.753 13.5993 20.6902 13.6778ZM21.6179 14.1902C21.6383 14.268 21.6502 14.349 21.6502 14.433C21.6502 14.517 21.6383 14.5981 21.6179 14.6758C21.584 14.5791 21.5239 14.4958 21.4455 14.433C21.5239 14.3702 21.584 14.2869 21.6179 14.1902ZM20.4475 15.3607C20.5441 15.3268 20.6274 15.2667 20.6902 15.1883C20.753 15.2667 20.8363 15.3269 20.933 15.3607C20.8553 15.381 20.7742 15.393 20.6902 15.393C20.6062 15.393 20.5252 15.381 20.4475 15.3607Z" fill="#E6B432"/>
<path d="M20.873 14.433C20.873 14.5324 20.9536 14.613 21.053 14.613C21.1024 14.613 21.147 14.5931 21.1795 14.5609C21.2125 14.5283 21.233 14.483 21.233 14.433C21.233 14.3829 21.2125 14.3376 21.1795 14.305C21.1469 14.2729 21.1024 14.253 21.053 14.253C20.9537 14.253 20.873 14.3336 20.873 14.433Z" fill="#F0C814"/>
<path d="M20.5123 14.433C20.5123 14.3335 20.4318 14.253 20.3323 14.253C20.283 14.253 20.2384 14.2728 20.2059 14.305C20.1729 14.3376 20.1523 14.3829 20.1523 14.433C20.1523 14.4831 20.1729 14.5283 20.2059 14.5609C20.2385 14.593 20.283 14.613 20.3323 14.613C20.4318 14.613 20.5123 14.5324 20.5123 14.433Z" fill="#F0C814"/>
<path d="M20.6917 14.253C20.7911 14.253 20.8717 14.1724 20.8717 14.073C20.8717 14.0237 20.8518 13.979 20.8197 13.9465C20.7871 13.9135 20.7418 13.893 20.6917 13.893C20.6416 13.893 20.5964 13.9135 20.5637 13.9465C20.5316 13.9791 20.5117 14.0237 20.5117 14.073C20.5117 14.1724 20.5923 14.253 20.6917 14.253Z" fill="#F0C814"/>
<path d="M20.6917 14.613C20.5923 14.613 20.5117 14.6935 20.5117 14.793C20.5117 14.8423 20.5316 14.8869 20.5637 14.9194C20.5964 14.9524 20.6416 14.973 20.6917 14.973C20.7418 14.973 20.7871 14.9524 20.8197 14.9194C20.8518 14.8869 20.8717 14.8423 20.8717 14.793C20.8717 14.6936 20.7911 14.613 20.6917 14.613Z" fill="#F0C814"/>
<path d="M15.4167 8.92033C15.4346 8.90243 15.4477 8.88166 15.4565 8.85954C15.4822 8.7948 15.4691 8.71821 15.4167 8.6658C15.3543 8.60341 15.2592 8.59966 15.189 8.64799L14.9237 8.58166C14.926 8.57229 14.9295 8.56324 14.9295 8.55312C14.9295 8.48684 14.8757 8.43312 14.8095 8.43312C14.7432 8.43312 14.6895 8.48684 14.6895 8.55312C14.6895 8.6194 14.7432 8.67312 14.8095 8.67312C14.8196 8.67312 14.8286 8.66974 14.838 8.66735L14.9043 8.93271C14.856 9.00283 14.8598 9.09799 14.9221 9.16038C14.9573 9.19553 15.0034 9.21311 15.0494 9.21311C15.0726 9.21311 15.0958 9.20852 15.1176 9.19961C15.1391 9.1908 15.1592 9.17781 15.1767 9.16038L15.4167 8.92033Z" fill="#F7B518"/>
<path d="M20.1606 15.2193C20.1859 15.201 20.2011 15.1744 20.2069 15.146C20.2134 15.1142 20.2079 15.0801 20.1874 15.0518C20.1493 14.9994 20.0771 14.9873 20.0236 15.0233C20.0224 15.0241 20.021 15.0242 20.0198 15.025C19.9422 15.0812 19.8528 15.1334 19.7535 15.1811C19.4017 15.3503 18.9254 15.4633 18.4102 15.4998V13.8143C18.9339 14.5295 19.4439 14.9138 19.6711 15.0635C19.5922 14.9365 19.5364 14.7941 19.5095 14.6415C19.2191 14.4012 18.8084 13.9976 18.4102 13.3891V12.5737C18.4186 12.555 18.4274 12.5368 18.4358 12.5179L18.2054 12.2875L18.5448 11.9481L18.615 11.8779C18.6618 11.8311 18.6618 11.7551 18.615 11.7082C18.5847 11.678 18.5428 11.6694 18.504 11.6781C18.4826 11.683 18.4619 11.6916 18.4453 11.7082L18.3751 11.7784L18.1701 11.9834V11.9131V11.5732V11.4331C18.1701 11.4051 18.1591 11.3806 18.1431 11.3602C18.1211 11.3322 18.0885 11.3131 18.0501 11.3131C18.0118 11.3131 17.9792 11.3322 17.9572 11.3602C17.9412 11.3806 17.9301 11.4051 17.9301 11.4331V11.9131V11.9834L17.655 11.7082C17.6383 11.6916 17.6176 11.683 17.5962 11.6781C17.5574 11.6694 17.5155 11.678 17.4853 11.7082C17.4384 11.7551 17.4384 11.8311 17.4853 11.8779L17.5554 11.9481L17.8948 12.2875L17.6645 12.5179C17.6729 12.5368 17.6816 12.555 17.6901 12.5737V13.3881C17.2923 13.9954 16.8815 14.3994 16.5909 14.6404C16.5641 14.7934 16.5083 14.9362 16.4292 15.0636C16.6564 14.9138 17.1663 14.5295 17.6901 13.8143V15.4998C17.1749 15.4634 16.6986 15.3504 16.3467 15.1812C16.2474 15.1334 16.1579 15.0811 16.0803 15.0249C16.0791 15.0241 16.0778 15.0241 16.0767 15.0233C16.0233 14.9872 15.9508 14.9993 15.9127 15.0517C15.8921 15.0801 15.8867 15.1142 15.8933 15.1461C15.8991 15.1744 15.9143 15.2009 15.9395 15.2192C16.0091 15.2696 16.0869 15.3165 16.1705 15.3606C16.1777 15.3644 16.1849 15.3682 16.1923 15.372C16.2893 15.4218 16.3948 15.4672 16.5076 15.508C16.8483 15.6314 17.2544 15.712 17.6901 15.7408V16.6263C17.7256 16.6057 17.7662 16.593 17.8101 16.593C17.854 16.593 17.8947 16.6057 17.9301 16.6263V15.7513C17.97 15.7522 18.0099 15.753 18.0501 15.753C18.0903 15.753 18.1302 15.7522 18.1701 15.7513V16.0263C18.2056 16.0057 18.2462 15.993 18.2901 15.993C18.334 15.993 18.3747 16.0057 18.4101 16.0263V15.7408C18.8459 15.712 19.252 15.6314 19.5927 15.5081C19.7055 15.4673 19.811 15.4218 19.908 15.372C19.9153 15.3682 19.9226 15.3644 19.9298 15.3606C20.0133 15.3165 20.091 15.2697 20.1606 15.2193ZM18.0502 15.513C18.01 15.513 17.9701 15.5122 17.9302 15.5113V13.4633C17.9704 13.4001 18.0104 13.3344 18.0502 13.2671C18.09 13.3345 18.1299 13.4001 18.1702 13.4633V15.5113C18.1303 15.5122 18.0903 15.513 18.0502 15.513Z" fill="#FF4B55"/>
<path d="M18.0477 8.64638C18.7104 8.64638 19.2477 8.75981 19.2477 8.89969C19.2477 8.66428 19.2477 8.4346 19.2477 8.39874C19.2477 8.34371 19.1969 8.29191 19.1081 8.24644L19.1356 8.19146C19.1791 8.18846 19.2153 8.16216 19.2339 8.12546C19.2421 8.10952 19.2477 8.09227 19.2477 8.07305C19.2477 8.04994 19.2395 8.02965 19.2282 8.01137C19.207 7.97715 19.1709 7.95306 19.1277 7.95306C19.0614 7.95306 19.0077 8.00677 19.0077 8.07305C19.0077 8.09705 19.0165 8.11815 19.0287 8.1369L18.9971 8.20008C18.9066 8.16826 18.795 8.14121 18.6677 8.1203L18.6812 8.0663C18.7308 8.05159 18.7677 8.00748 18.7677 7.95306C18.7677 7.88677 18.714 7.83306 18.6477 7.83306C18.5815 7.83306 18.5277 7.88677 18.5277 7.95306C18.5277 7.98685 18.5419 8.01713 18.5644 8.03898L18.5484 8.10305C18.4816 8.09471 18.4114 8.08805 18.3386 8.08313C18.3441 8.06059 18.3477 8.03734 18.3477 8.0131C18.3477 7.8474 18.2134 7.7131 18.0477 7.7131C17.882 7.7131 17.7477 7.8474 17.7477 8.0131C17.7477 8.03734 17.7513 8.06059 17.7567 8.08313C17.6839 8.08805 17.6139 8.09471 17.547 8.10305L17.5309 8.03898C17.5534 8.01718 17.5676 7.9869 17.5676 7.95306C17.5676 7.88677 17.5139 7.83306 17.4476 7.83306C17.3814 7.83306 17.3277 7.88677 17.3277 7.95306C17.3277 8.00743 17.3645 8.05154 17.4141 8.0663L17.4276 8.1203C17.3004 8.14121 17.1888 8.16826 17.0982 8.20008L17.0667 8.1369C17.0788 8.11815 17.0877 8.09705 17.0877 8.07305C17.0877 8.00677 17.0339 7.95306 16.9677 7.95306C16.9245 7.95306 16.8883 7.9771 16.8672 8.01137C16.8559 8.02965 16.8477 8.04999 16.8477 8.07305C16.8477 8.09227 16.8534 8.10952 16.8614 8.12546C16.88 8.16216 16.9162 8.18846 16.9598 8.19146L16.9873 8.24644C16.8985 8.29191 16.8477 8.34371 16.8477 8.39874C16.8477 8.4346 16.8477 8.66428 16.8477 8.89969C16.8477 8.75981 17.385 8.64638 18.0477 8.64638Z" fill="#E6B432"/>
<path d="M16.8477 8.91304L16.8492 8.91243C16.8488 8.9084 16.8477 8.90297 16.8477 8.89968C16.8477 8.90418 16.8477 8.90859 16.8477 8.91304Z" fill="#E6B432"/>
<path d="M19.2476 8.91304C19.2476 8.90859 19.2476 8.90418 19.2476 8.89968C19.2476 8.90297 19.2465 8.9084 19.2461 8.91243L19.2476 8.91304Z" fill="#E6B432"/>
<path d="M17.0897 9.15307C17.0897 9.17707 17.0809 9.19816 17.0687 9.21691L17.1142 9.30789C17.1935 9.26857 17.302 9.23472 17.4317 9.20875L17.4161 9.14627C17.3665 9.13155 17.3297 9.08744 17.3297 9.03302C17.3297 8.96674 17.3834 8.91302 17.4497 8.91302C17.5159 8.91302 17.5696 8.96674 17.5696 9.03302C17.5696 9.06682 17.5554 9.0971 17.5329 9.11894L17.5502 9.18818C17.666 9.17088 17.7939 9.15935 17.9296 9.15508V9.04633C17.8931 9.01338 17.8696 8.96613 17.8696 8.91307C17.8696 8.81365 17.9502 8.73307 18.0496 8.73307C18.1491 8.73307 18.2296 8.81365 18.2296 8.91307C18.2296 8.96618 18.2062 9.01343 18.1696 9.04633V9.15508C18.3053 9.1594 18.4333 9.17088 18.549 9.18818L18.5663 9.11894C18.5438 9.09715 18.5296 9.06687 18.5296 9.03302C18.5296 8.96674 18.5834 8.91302 18.6496 8.91302C18.7159 8.91302 18.7696 8.96674 18.7696 9.03302C18.7696 9.0874 18.7327 9.13151 18.6832 9.14627L18.6675 9.20875C18.7973 9.23468 18.9058 9.26852 18.9851 9.30789L19.0306 9.21691C19.0184 9.19816 19.0096 9.17707 19.0096 9.15307C19.0096 9.08679 19.0633 9.03307 19.1296 9.03307C19.1583 9.03307 19.1836 9.04455 19.2043 9.06133C19.231 8.99576 19.2452 8.94368 19.2481 8.91246C19.2485 8.90843 19.2496 8.90299 19.2496 8.89971C19.2496 8.75979 18.7123 8.6464 18.0496 8.6464C17.3869 8.6464 16.8496 8.75984 16.8496 8.89971C16.8496 8.90299 16.8507 8.90843 16.8511 8.91246C16.854 8.94368 16.8682 8.99576 16.8949 9.06133C16.9156 9.04451 16.9409 9.03307 16.9696 9.03307C17.036 9.03307 17.0897 9.08679 17.0897 9.15307Z" fill="#EBEBEB"/>
<path d="M16.8496 9.15306C16.8496 9.21653 16.8993 9.2672 16.9617 9.27147L17.0135 9.37506C16.9854 9.40257 16.9696 9.43154 16.9696 9.46164C16.9696 9.49628 16.9905 9.52946 17.0273 9.56054L17.2096 9.8731C17.2096 9.74054 17.5857 9.6331 18.0496 9.6331C18.5135 9.6331 18.8896 9.74054 18.8896 9.8731L19.0719 9.56054C19.1087 9.52946 19.1296 9.49628 19.1296 9.46164C19.1296 9.43154 19.1138 9.40253 19.0857 9.37506L19.1375 9.27147C19.1999 9.2672 19.2496 9.21653 19.2496 9.15306C19.2496 9.11551 19.2313 9.08336 19.2043 9.06133C19.1836 9.0445 19.1583 9.03306 19.1296 9.03306C19.0633 9.03306 19.0096 9.08678 19.0096 9.15306C19.0096 9.17706 19.0184 9.19815 19.0306 9.2169L18.9851 9.30789C18.9058 9.26856 18.7972 9.23472 18.6675 9.20875L18.6832 9.14626C18.7327 9.13155 18.7696 9.08744 18.7696 9.03301C18.7696 8.96673 18.7159 8.91302 18.6496 8.91302C18.5834 8.91302 18.5296 8.96673 18.5296 9.03301C18.5296 9.06681 18.5438 9.09709 18.5663 9.11894L18.549 9.18817C18.4333 9.17087 18.3053 9.15934 18.1696 9.15508V9.04633C18.2062 9.01337 18.2296 8.96612 18.2296 8.91306C18.2296 8.81364 18.1491 8.73306 18.0496 8.73306C17.9502 8.73306 17.8696 8.81364 17.8696 8.91306C17.8696 8.96617 17.8931 9.01342 17.9296 9.04633V9.15508C17.7939 9.15939 17.666 9.17087 17.5502 9.18817L17.5329 9.11894C17.5554 9.09714 17.5696 9.06686 17.5696 9.03301C17.5696 8.96673 17.5159 8.91302 17.4497 8.91302C17.3834 8.91302 17.3297 8.96673 17.3297 9.03301C17.3297 9.08739 17.3665 9.1315 17.4161 9.14626L17.4317 9.20875C17.302 9.23467 17.1935 9.26851 17.1142 9.30789L17.0687 9.2169C17.0808 9.19815 17.0897 9.17706 17.0897 9.15306C17.0897 9.08678 17.036 9.03306 16.9697 9.03306C16.941 9.03306 16.9157 9.04455 16.895 9.06133C16.8679 9.08336 16.8496 9.11551 16.8496 9.15306Z" fill="#E6B432"/>
<path d="M18.0509 10.1132C18.5148 10.1132 18.8909 10.0058 18.8909 9.87325C18.8909 9.7407 18.5148 9.63325 18.0509 9.63325C17.587 9.63325 17.2109 9.7407 17.2109 9.87325C17.2109 10.0058 17.587 10.1132 18.0509 10.1132Z" fill="#EBEBEB"/>
<path d="M19.2175 7.82833L19.0063 7.35306C19.0063 7.32306 18.9833 7.29442 18.943 7.26794L19.1136 6.92674C19.1433 6.86744 19.1193 6.79535 19.06 6.76573C19.0006 6.73629 18.9286 6.76019 18.8989 6.8194L18.8063 7.00479L18.7178 7.18169C18.6669 7.16922 18.6102 7.1583 18.5492 7.14888L18.5598 7.10627C18.6094 7.09155 18.6463 7.04744 18.6463 6.99302C18.6463 6.92674 18.5926 6.87302 18.5263 6.87302C18.46 6.87302 18.4063 6.92674 18.4063 6.99302C18.4063 7.02682 18.4205 7.0571 18.443 7.07894L18.4295 7.13303C18.312 7.12024 18.1826 7.11302 18.0463 7.11302C17.9099 7.11302 17.7805 7.12024 17.6631 7.13303L17.6495 7.07894C17.672 7.05715 17.6862 7.02686 17.6862 6.99302C17.6862 6.92674 17.6325 6.87302 17.5662 6.87302C17.4999 6.87302 17.4462 6.92674 17.4462 6.99302C17.4462 7.04739 17.4831 7.0915 17.5327 7.10627L17.5433 7.14888C17.4824 7.1583 17.4256 7.16922 17.3747 7.18169L17.2862 7.00479L17.1936 6.8194C17.1638 6.76024 17.092 6.73634 17.0325 6.76573C16.9733 6.79535 16.9492 6.86744 16.9789 6.92674L17.1495 7.26794C17.1092 7.29442 17.0862 7.32302 17.0862 7.35306L16.875 7.82833C16.9935 7.6938 17.4725 7.59306 18.0462 7.59306C18.62 7.59306 19.099 7.6938 19.2175 7.82833Z" fill="#E6B432"/>
<path d="M18.0452 7.11326C18.1446 7.11326 18.2252 7.03267 18.2252 6.93326C18.2252 6.83385 18.1446 6.75326 18.0452 6.75326C17.9458 6.75326 17.8652 6.83385 17.8652 6.93326C17.8652 7.03267 17.9458 7.11326 18.0452 7.11326Z" fill="#E6B432"/>
</g>
<defs>
<clipPath id="clip0_72_4549">
<path d="M0 2C0 0.895432 0.895431 0 2 0H21.9998C23.1043 0 23.9998 0.895431 23.9998 2V21.9998C23.9998 23.1043 23.1043 23.9998 21.9998 23.9998H2C0.895432 23.9998 0 23.1043 0 21.9998V2Z" fill="white"/>
</clipPath>
</defs>
</svg>
