<svg width="24" height="24" viewBox="0 0 24 24" fill="none" xmlns="http://www.w3.org/2000/svg">
<g clip-path="url(#clip0_72_4621)">
<path d="M23.9998 0H0V23.9998H23.9998V0Z" fill="#F5F5F5"/>
<path d="M18.7057 13.594L18.8567 14.1238L19.3816 12.564L17.9258 13.3315L18.473 13.3959L16.7258 15.4489L16.7106 15.4054L18.1061 12.5159L18.386 12.9904L18.5001 11.3487L17.2852 12.4588L17.8309 12.383L16.4354 15.2724L16.3919 15.2876L16.9136 12.6428L17.3041 13.0313L17.0002 11.4139L16.1049 12.7947L16.6137 12.5836L16.0513 15.4355L15.8676 15.8157L15.6698 15.9484L15.5884 16.361L14.8965 17.174L15.4366 17.1305L15.3386 17.6274L15.5297 17.4993L15.5481 17.7286L15.8763 17.3429L16.1781 17.793L16.3847 16.7456L16.6573 16.4253L16.6382 16.1879L16.8218 15.8076L18.7057 13.594Z" fill="#4173CD"/>
<path d="M6.13548 12.0434C6.19482 11.7766 6.15803 11.5267 6.0564 11.3727C5.89909 11.4691 5.75983 11.6799 5.70048 11.9466C5.67302 12.0702 5.66809 12.1891 5.67873 12.2975L5.35202 11.8105C5.48505 11.702 5.59956 11.5162 5.65155 11.2826C5.71089 11.0158 5.67409 10.7659 5.57247 10.6119C5.41516 10.7083 5.27589 10.9191 5.21655 11.1858C5.18496 11.328 5.18224 11.4639 5.20047 11.5845L4.9796 11.2552C4.99066 11.088 4.93934 10.8846 4.81606 10.6908C4.66938 10.4602 4.46661 10.3095 4.28586 10.2725C4.24273 10.4519 4.29336 10.6994 4.44003 10.93C4.56467 11.126 4.72934 11.2594 4.88707 11.3192L5.08947 11.6552C4.98794 11.5875 4.86363 11.5323 4.72151 11.5007C4.4547 11.4414 4.20476 11.4782 4.05078 11.5798C4.14716 11.7371 4.35795 11.8764 4.62476 11.9357C4.85843 11.9877 5.07518 11.9627 5.22986 11.8882L5.53253 12.3906C5.43878 12.335 5.32905 12.289 5.20544 12.2615C4.93863 12.2022 4.6887 12.239 4.53471 12.3406C4.63109 12.4979 4.84188 12.6372 5.10869 12.6965C5.33238 12.7462 5.54059 12.7254 5.69392 12.6585L5.97264 13.1211C5.88648 13.0746 5.79058 13.0347 5.68192 13.0106C5.41511 12.9512 5.16518 12.988 5.01119 13.0896C5.10757 13.2469 5.31836 13.3862 5.58517 13.4456C5.79897 13.4931 5.99945 13.4768 6.15085 13.417L6.41963 13.8631C6.34243 13.8253 6.25932 13.7921 6.16585 13.7713C5.89904 13.712 5.64911 13.7488 5.49513 13.8504C5.5915 14.0077 5.8023 14.147 6.06911 14.2063C6.27292 14.2517 6.46609 14.2402 6.61496 14.1872L6.85974 14.5936C6.79243 14.5638 6.7208 14.5378 6.64229 14.5204C6.37548 14.461 6.12554 14.4978 5.97156 14.5995C6.06793 14.7568 6.27873 14.896 6.54554 14.9554C6.73993 14.9986 6.92433 14.9897 7.07025 14.943L7.84781 16.2336L8.17808 16.0235L7.33875 14.7722C7.4429 14.6598 7.52915 14.4965 7.57237 14.3022C7.63171 14.0354 7.59492 13.7854 7.49329 13.6315C7.33598 13.7278 7.19672 13.9386 7.13738 14.2054C7.11994 14.2839 7.1131 14.3597 7.11145 14.4333L6.84727 14.0394C6.95832 13.927 7.05056 13.7569 7.09589 13.5531C7.15524 13.2863 7.11844 13.0363 7.01681 12.8824C6.8595 12.9787 6.72024 13.1895 6.6609 13.4563C6.64013 13.5498 6.63493 13.6391 6.63638 13.725L6.34627 13.2925C6.46463 13.1807 6.56438 13.0061 6.61196 12.7923C6.6713 12.5255 6.63451 12.2755 6.53288 12.1215C6.37557 12.2179 6.23631 12.4287 6.17696 12.6955C6.15282 12.8041 6.14823 12.9079 6.15385 13.0056L5.85306 12.5571C5.97864 12.4469 6.0857 12.2671 6.13548 12.0434Z" fill="#73AF00"/>
<path d="M9.51524 11.9999L9.10143 9.51718H9.0374C8.66175 9.51718 8.39653 9.14917 8.51531 8.79283L8.51662 8.78885C8.61154 8.50408 8.46075 8.19574 8.17767 8.09585L2.4962 6.09061C2.17417 5.97694 1.87084 6.30079 2.00537 6.61471L2.62149 8.05231C2.79873 8.46588 3.10599 8.81041 3.49669 9.03367L5.07275 9.93427C5.54356 10.2033 6.07638 10.3448 6.61863 10.3448H6.61877L6.76014 10.6275C7.18065 11.4686 8.04033 11.9999 8.98073 11.9999H9.51524Z" fill="#FFE15A"/>
<path d="M14.4805 11.9999L14.8943 9.51719H14.9583C15.334 9.51719 15.5992 9.14917 15.4804 8.79283L15.4791 8.78885C15.3842 8.50409 15.535 8.19575 15.818 8.09586L21.4973 6.09141C21.8202 5.97741 22.1243 6.3022 21.9894 6.61696L21.3743 8.05231C21.197 8.46588 20.8898 8.81041 20.4991 9.03367L18.923 9.93428C18.4522 10.2033 17.9194 10.3448 17.3771 10.3448H17.377L17.2356 10.6275C16.8151 11.4686 15.9554 11.9999 15.015 11.9999H14.4805Z" fill="#FFE15A"/>
<path d="M13.6521 9.10342L12.6257 6.70846C12.4953 6.40419 12.1961 6.2069 11.8651 6.2069H11.5832L11.1694 6.62071H10.7556L10.3418 7.03452H10.9192C11.0656 7.03452 11.1644 7.18419 11.1067 7.31876L10.3418 9.10346L13.6521 9.10342Z" fill="#FFE15A"/>
<path d="M10.7568 13.2413L9.92926 11.9999L9.17139 12.7578C8.85344 13.0758 8.61386 13.4634 8.47165 13.89L8.27407 14.4827L7.86026 14.8965H7.32247C7.14491 14.8965 6.98258 14.9968 6.90318 15.1557L6.78646 15.3891C6.70949 15.543 6.82143 15.7241 6.9935 15.7241H7.86031L8.13617 15.1724L9.4554 14.5128C9.4952 14.4929 9.53148 14.4667 9.56293 14.4353L10.7568 13.2413Z" fill="#FFE15A"/>
<path d="M13.2402 13.2413L14.0678 11.9999L14.8257 12.7578C15.1436 13.0758 15.3832 13.4634 15.5254 13.89L15.723 14.4827L16.1368 14.8965H16.6746C16.8522 14.8965 17.0145 14.9968 17.0939 15.1557L17.2106 15.3891C17.2876 15.543 17.1757 15.7241 17.0036 15.7241H16.1368L15.8609 15.1724L14.5417 14.5128C14.5019 14.4929 14.4656 14.4667 14.4342 14.4353L13.2402 13.2413Z" fill="#FFE15A"/>
<path d="M10.7557 13.6551L9.75009 15.3312C9.61443 15.5573 9.66374 15.8485 9.86634 16.0174L11.3935 17.29C11.7431 17.5814 12.251 17.5814 12.6007 17.29L14.1278 16.0174C14.3304 15.8486 14.3797 15.5573 14.2441 15.3312L13.2384 13.6551H10.7557Z" fill="#FFE15A"/>
<path d="M12 8.68961C12 8.68961 10.7587 9.10342 9.10352 8.68961C9.10352 8.68961 9.10352 9.51718 9.10352 10.3448C9.10352 11.1723 9.51732 13.6551 12 14.4827C14.4828 13.6551 14.8966 11.1723 14.8966 10.3448C14.8966 9.51718 14.8966 8.68961 14.8966 8.68961C13.2414 9.10342 12 8.68961 12 8.68961Z" fill="#F5F5F5"/>
<path d="M12 8.68961C12 8.68961 10.7587 9.10342 9.10352 8.68961C9.10352 8.68961 9.10352 9.51718 9.10352 10.3448H14.8966C14.8966 9.51718 14.8966 8.68961 14.8966 8.68961C13.2414 9.10342 12 8.68961 12 8.68961Z" fill="#41479B"/>
<path d="M9.96898 12.992V10.3449H9.51758V12.1868C9.63486 12.4562 9.78223 12.729 9.96898 12.992Z" fill="#FF4B55"/>
<path d="M10.8733 10.3449H10.4219V13.521C10.5586 13.6565 10.708 13.7854 10.8733 13.9054V10.3449Z" fill="#FF4B55"/>
<path d="M14.0312 12.992C14.218 12.729 14.3654 12.4562 14.4827 12.1868V10.3449H14.0312V12.992Z" fill="#FF4B55"/>
<path d="M11.7756 10.3449H11.3242V14.1854C11.4656 14.2616 11.6162 14.3309 11.7756 14.3939V10.3449Z" fill="#FF4B55"/>
<path d="M13.5803 10.3449H13.1289V13.9053C13.2942 13.7853 13.4436 13.6564 13.5803 13.521V10.3449Z" fill="#FF4B55"/>
<path d="M12.678 14.1854V10.3449H12.2266V14.3939C12.3859 14.3309 12.5366 14.2616 12.678 14.1854Z" fill="#FF4B55"/>
<path d="M7.64937 15.2333L7.35547 15.4141L7.8492 16.2337L8.17948 16.0236L7.64937 15.2333Z" fill="#73AF00"/>
<path d="M16.8152 15.8295L16.5555 15.3103H16.0799L16.0552 15.4355L15.8715 15.8158L15.6737 15.9484L15.5923 16.3611L14.9004 17.1741L15.4405 17.1306L15.3425 17.6275L15.5336 17.4994L15.552 17.7286L15.8803 17.343L16.182 17.793L16.3886 16.7456L16.6612 16.4253L16.6421 16.1879L16.8152 15.8295Z" fill="#4173CD"/>
<path d="M3.96359 10.3449H2.89954L2.99503 10.6313L2.36752 12.8276L1.74001 10.6313L1.83554 10.3449H0.771484L1.05793 10.7268L1.93102 13.7825L1.83554 14.069H2.89954L2.80406 13.7825L3.6771 10.7268L3.96359 10.3449Z" fill="#4173CD"/>
<path d="M21.9921 10.6109L22.1695 10.3449H21.9921H21.2828H21.1055L21.2828 10.6109V13.803L21.1055 14.069H21.2828H21.9921H22.1695L21.9921 13.803V10.6109Z" fill="#4173CD"/>
</g>
<defs>
<clipPath id="clip0_72_4621">
<path d="M0 2C0 0.895432 0.895431 0 2 0H21.9998C23.1043 0 23.9998 0.895431 23.9998 2V21.9998C23.9998 23.1043 23.1043 23.9998 21.9998 23.9998H2C0.895432 23.9998 0 23.1043 0 21.9998V2Z" fill="white"/>
</clipPath>
</defs>
</svg>
