<svg width="24" height="24" viewBox="0 0 24 24" fill="none" xmlns="http://www.w3.org/2000/svg">
<g clip-path="url(#clip0_72_4660)">
<path d="M23.9998 0.000106812H0V23.9999H23.9998V0.000106812Z" fill="#73AF00"/>
<path d="M18.2071 8.21065H15.3105V23.9999H18.2071V8.21065Z" fill="#FF4B55"/>
<path d="M21.1016 8.21065H18.2051V23.9999H21.1016V8.21065Z" fill="#464655"/>
<path d="M24 8.21077H21.1035V24H24V8.21077Z" fill="#FF9B55"/>
<path d="M23.5349 3.61271C23.5445 3.5934 23.5399 3.57 23.5237 3.55575C23.5075 3.54141 23.4837 3.53991 23.4658 3.55177C23.3767 3.61093 23.2868 3.66469 23.1977 3.71344C23.4846 3.47635 23.5248 3.27048 23.5274 3.25548C23.5306 3.23663 23.5222 3.21765 23.5062 3.20734C23.49 3.19693 23.4694 3.19716 23.4536 3.20795C23.1437 3.41813 22.8336 3.56813 22.5662 3.67369C22.9253 3.44677 23.0676 3.21535 23.0763 3.20068C23.0876 3.18188 23.0846 3.15788 23.0691 3.14242C23.0535 3.1269 23.0295 3.12409 23.0108 3.13534C22.7241 3.30816 22.3845 3.44443 22.06 3.54938C22.1031 3.48291 22.1338 3.40819 22.1062 3.36624C22.0806 3.32734 22.0339 3.32734 21.9671 3.36643C21.8321 3.4456 20.8084 3.70655 20.4117 3.80377C20.0075 3.73069 19.6724 3.83438 19.5681 3.87263C19.5403 3.83953 19.5276 3.80747 19.5223 3.78244C19.5135 3.74166 19.5199 3.70018 19.5391 3.67149C19.5706 3.62471 19.6356 3.62021 19.6929 3.61627C19.7179 3.61458 19.7401 3.61304 19.7596 3.60811C19.7721 3.61177 19.7874 3.61899 19.7871 3.62457C19.786 3.64632 19.7997 3.666 19.8205 3.67252C19.8413 3.67899 19.8637 3.67069 19.8752 3.65222C19.8781 3.64758 19.9455 3.53715 19.8933 3.44316C19.8553 3.37477 19.7681 3.33887 19.634 3.33629C19.579 3.2979 19.371 3.17293 19.1149 3.26949C18.8554 3.36737 18.7402 3.63389 18.7021 3.74653C18.5002 3.7185 17.573 3.57699 17.069 3.28112C17.0445 3.26996 16.9609 3.2372 16.9142 3.28163C16.8855 3.30887 16.8821 3.3511 16.9041 3.40721C16.9158 3.43697 16.9337 3.46608 16.9574 3.49458C16.6876 3.37079 16.3239 3.19773 16.0489 3.04393C16.0059 3.02401 15.9278 2.99692 15.8876 3.03915C15.8623 3.06568 15.8627 3.10431 15.8887 3.1539C15.8942 3.16435 15.8996 3.17607 15.9056 3.18887C15.9323 3.24657 15.9688 3.32518 16.058 3.41598C15.9914 3.3796 15.9313 3.34215 15.8832 3.3047C15.6418 3.11696 15.6091 3.09859 15.5659 3.1277C15.5287 3.15277 15.5407 3.19515 15.5534 3.24001L15.5568 3.25187C15.5673 3.28918 15.5844 3.34927 15.6313 3.42174C15.5939 3.39629 15.5617 3.39113 15.5364 3.40876C15.5213 3.41916 15.4986 3.44518 15.5161 3.50236C15.5581 3.63919 15.8481 3.99942 16.3998 4.10555C16.3443 4.11366 16.286 4.11966 16.2297 4.12078C16.2083 4.1212 16.1898 4.13587 16.1845 4.15659C16.1792 4.17731 16.1883 4.19911 16.2069 4.2098C16.2169 4.21556 16.412 4.32468 16.7695 4.3155C16.716 4.32895 16.6553 4.33936 16.5882 4.34339C16.5674 4.34461 16.5498 4.35928 16.5448 4.37958C16.5398 4.39987 16.5486 4.42101 16.5664 4.43179C16.5771 4.43822 16.7845 4.56028 17.1058 4.54228L17.0778 4.55953C17.0617 4.56942 17.053 4.58789 17.0555 4.60664C17.0581 4.62534 17.0715 4.64081 17.0897 4.64601C17.0997 4.64887 17.2808 4.69926 17.5064 4.67545L17.4667 4.70367C17.4508 4.71501 17.4434 4.73488 17.448 4.75387C17.4527 4.77285 17.4684 4.7871 17.4878 4.78977C17.4918 4.79038 17.521 4.79413 17.5678 4.79413C17.5986 4.79413 17.6371 4.7924 17.6809 4.7871C17.6799 4.79849 17.6812 4.80984 17.685 4.82109C17.7076 4.88901 17.8076 4.90546 17.8409 4.90593C17.8429 4.90598 17.8449 4.90598 17.8469 4.90598C17.8872 4.90598 17.9297 4.9003 17.9732 4.89168C18.0427 4.95665 18.1697 4.95069 18.2928 4.92205C18.2856 4.93312 18.28 4.94418 18.2765 4.95519C18.2694 4.97769 18.2748 5.00071 18.2909 5.01674C18.3066 5.0323 18.3444 5.06985 18.6887 4.97301C18.6873 4.97413 18.6858 4.97521 18.6844 4.97633C18.6387 5.01177 18.6416 5.04838 18.6474 5.06704C18.6685 5.13477 18.8204 5.17808 19.0959 5.1966C19.102 5.34983 19.0594 5.51633 19.059 5.51816C19.0542 5.53649 19.0608 5.55594 19.0757 5.56766C19.0905 5.57928 19.111 5.58111 19.1278 5.57216C19.1437 5.56358 19.1595 5.55247 19.1745 5.54052L19.1732 5.59119C19.1727 5.60956 19.1828 5.62658 19.1992 5.63492C19.2061 5.63839 19.2135 5.64013 19.2209 5.64013C19.2228 5.64013 19.2246 5.63942 19.2264 5.63923C19.2213 5.68241 19.2037 5.73397 19.1483 5.74611C19.1232 5.75159 19.0966 5.75436 19.0709 5.75698C18.9535 5.76898 18.8206 5.78262 18.7995 6.0515C18.798 6.0717 18.8093 6.09064 18.8278 6.09884C18.8462 6.1069 18.8679 6.10264 18.8819 6.08792L18.9329 6.03364C18.963 6.04104 19.0109 6.04859 19.0621 6.04029C19.0492 6.1025 19.053 6.17904 19.1153 6.24401C19.1288 6.25803 19.1495 6.26248 19.1675 6.25526C19.1856 6.24799 19.1974 6.23046 19.1974 6.21101V6.17656C19.227 6.16967 19.2663 6.15532 19.3035 6.1257C19.3252 6.17267 19.3668 6.22779 19.4459 6.27434C19.4534 6.27874 19.4617 6.2809 19.4701 6.2809C19.481 6.2809 19.4918 6.2772 19.5006 6.26988C19.516 6.25704 19.5217 6.23581 19.5149 6.21692L19.49 6.14843C19.5074 6.13128 19.53 6.10681 19.5497 6.08065C19.5594 6.09481 19.5758 6.10296 19.5933 6.10128C19.6114 6.09954 19.627 6.08764 19.6334 6.07053L19.6509 6.02384C19.6613 6.02098 19.6712 6.01756 19.6806 6.01367C19.6923 6.11698 19.7717 6.20295 19.7765 6.20801C19.7856 6.21771 19.7983 6.22306 19.8112 6.22306C19.8151 6.22306 19.819 6.22259 19.8229 6.22165C19.8396 6.21743 19.8528 6.20445 19.8573 6.18776L19.8839 6.08862C19.9543 6.05295 19.9612 5.98836 19.9655 5.94814C19.9663 5.94026 19.9675 5.92929 19.9677 5.92376C19.9952 5.93731 20.0535 6.00279 20.0975 6.07076C20.1063 6.08426 20.1212 6.09251 20.1373 6.09256C20.1537 6.09139 20.1684 6.08459 20.1773 6.07118C20.1773 6.07118 20.2146 6.01479 20.2327 5.98189C20.3096 5.84234 20.1931 5.75876 20.1372 5.71864C20.1234 5.7088 20.1046 5.6953 20.1016 5.69155C20.0911 5.666 20.0948 5.64219 20.1017 5.62367C20.1484 5.65587 20.2014 5.68297 20.2602 5.69675C20.2638 5.69764 20.2675 5.69802 20.2711 5.69802C20.2864 5.69802 20.3011 5.69061 20.3101 5.67762C20.3213 5.66169 20.3217 5.64045 20.3109 5.62414C20.3098 5.6225 20.2222 5.4876 20.1657 5.32171C20.257 5.37524 20.3805 5.43992 20.4446 5.43992C20.4885 5.43992 20.5053 5.41255 20.5106 5.40078C20.5136 5.39389 20.5191 5.38142 20.5147 5.35803C20.5996 5.40388 20.6952 5.43936 20.7679 5.42061C20.7894 5.41508 20.8398 5.4021 20.8474 5.35691C20.8513 5.33403 20.8436 5.31557 20.8267 5.29733C20.9055 5.31646 20.9905 5.32597 21.0737 5.31496C21.1432 5.30582 21.1637 5.27211 21.1686 5.24544C21.1717 5.22838 21.1773 5.19561 21.1154 5.13355C21.235 5.12699 21.3419 5.10083 21.3507 5.02865C21.3515 5.02218 21.3503 5.01627 21.3497 5.01018C21.7343 4.96827 22.027 4.72771 22.0399 4.71688C22.0436 4.71374 22.0462 4.70981 22.0487 4.70592C22.2816 4.67685 22.546 4.62421 22.7601 4.52803C23.1642 4.34639 23.3688 4.10114 23.3322 4.01213C23.3215 3.98625 23.291 3.9675 23.2533 3.98156C23.2428 3.9855 23.2214 3.99417 23.1933 4.00561C23.4323 3.81085 23.526 3.63071 23.5349 3.61271Z" fill="#FF9B55"/>
<path d="M23.5349 3.61259C23.5445 3.59328 23.5399 3.56989 23.5238 3.55564C23.5075 3.54129 23.4837 3.53984 23.4658 3.55165C23.3767 3.61086 23.2868 3.66462 23.1977 3.71332C23.4845 3.47623 23.5248 3.27036 23.5273 3.25536C23.5306 3.23652 23.5222 3.21753 23.5062 3.20722C23.49 3.19681 23.4694 3.19705 23.4536 3.20783C23.1437 3.41797 22.8335 3.56801 22.5662 3.67357C22.9253 3.44665 23.0676 3.21523 23.0763 3.20056C23.0876 3.18177 23.0846 3.15772 23.069 3.1423C23.0535 3.12678 23.0295 3.12397 23.0108 3.13522C22.7241 3.30805 22.3845 3.44431 22.06 3.54926C22.1031 3.48275 22.1338 3.40803 22.1062 3.36612C22.0806 3.32722 22.0339 3.32722 21.9671 3.36631C21.8321 3.44548 20.8084 3.70639 20.4117 3.80365C20.0074 3.73057 19.6724 3.83421 19.568 3.87246C19.5402 3.83937 19.5275 3.80731 19.5222 3.78228C19.5135 3.7415 19.5198 3.70001 19.5391 3.67132C19.5705 3.62454 19.6355 3.62009 19.6929 3.61615C19.7178 3.61446 19.7401 3.61292 19.7596 3.60804C19.772 3.6117 19.7874 3.61892 19.7871 3.6245C19.7859 3.64625 19.7996 3.66593 19.8204 3.6725C19.8412 3.67896 19.8637 3.67067 19.8752 3.6522C19.8781 3.64756 19.9455 3.53712 19.8933 3.44314C19.8553 3.37475 19.7681 3.33884 19.634 3.33626C19.5789 3.29787 19.371 3.17291 19.1149 3.26947C18.8554 3.36734 18.7402 3.63387 18.7021 3.74646C18.5002 3.71843 17.573 3.57692 17.069 3.28105C17.0445 3.26989 16.9609 3.23712 16.9141 3.28156C16.8855 3.3088 16.8821 3.35103 16.9041 3.40714C16.9157 3.4369 16.9336 3.46601 16.9574 3.49451C16.6876 3.37072 16.3239 3.19766 16.0489 3.04386C16.0059 3.02394 15.9278 2.99685 15.8876 3.03908C15.8623 3.06561 15.8627 3.10424 15.8888 3.15383C15.8942 3.16428 15.8996 3.176 15.9056 3.18884C15.9324 3.24655 15.9688 3.32516 16.058 3.41595C15.9914 3.37958 15.9313 3.34212 15.8832 3.30467C15.6418 3.11694 15.6092 3.09852 15.5659 3.12767C15.5287 3.15275 15.5407 3.19513 15.5535 3.23998L15.5568 3.25184C15.5673 3.28916 15.5844 3.34925 15.6313 3.42172C15.5939 3.39626 15.5618 3.39106 15.5364 3.40873C15.5213 3.41909 15.4986 3.44515 15.5161 3.50234C15.5581 3.63917 15.8481 3.9994 16.3998 4.10552C16.3443 4.11363 16.286 4.11963 16.2297 4.12076C16.2083 4.12118 16.1897 4.13585 16.1844 4.15657C16.1791 4.17729 16.1883 4.19908 16.2068 4.20972C16.2169 4.21549 16.4119 4.32461 16.7695 4.31543C16.716 4.32888 16.6553 4.33933 16.5882 4.34332C16.5674 4.34454 16.5497 4.35921 16.5448 4.3795C16.5398 4.3998 16.5486 4.42094 16.5664 4.43172C16.5771 4.43814 16.7845 4.56021 17.1058 4.54221L17.0778 4.55946C17.0617 4.56935 17.0529 4.58782 17.0555 4.60656C17.0581 4.62531 17.0715 4.64074 17.0897 4.64594C17.0997 4.6488 17.2808 4.69919 17.5064 4.67538L17.4667 4.7036C17.4508 4.71494 17.4434 4.73481 17.448 4.7538C17.4527 4.77278 17.4684 4.78703 17.4878 4.78966C17.4919 4.79027 17.5211 4.79406 17.5678 4.79406C17.5986 4.79406 17.6371 4.79233 17.6809 4.78703C17.6799 4.79842 17.6812 4.80977 17.6849 4.82102C17.7075 4.88894 17.8076 4.90539 17.8408 4.90581C17.8429 4.90586 17.8449 4.90586 17.8469 4.90586C17.8872 4.90586 17.9297 4.90019 17.9732 4.89156C18.0427 4.95653 18.1697 4.95058 18.2928 4.92194C18.2855 4.933 18.28 4.94406 18.2765 4.95508C18.2694 4.97758 18.2748 5.00059 18.2909 5.01662C18.3066 5.03219 18.3444 5.06968 18.6887 4.97284C18.6873 4.97397 18.6858 4.97505 18.6844 4.97617C18.6386 5.01161 18.6415 5.04822 18.6473 5.06692C18.6684 5.13461 18.8203 5.17797 19.0959 5.19648C19.102 5.34971 19.0594 5.51621 19.059 5.51804C19.0542 5.53642 19.0608 5.55582 19.0757 5.56754C19.0905 5.57916 19.111 5.58099 19.1277 5.57204C19.1436 5.56341 19.1595 5.55235 19.1745 5.5404L19.1732 5.59107C19.1727 5.60945 19.1828 5.62646 19.1992 5.63485C19.206 5.63832 19.2134 5.64005 19.2208 5.64005C19.2227 5.64005 19.2244 5.63935 19.2263 5.63912C19.2212 5.68229 19.2037 5.73385 19.1483 5.74599C19.1231 5.75148 19.0965 5.75424 19.0708 5.75687C18.9535 5.76891 18.8205 5.78251 18.7995 6.05138C18.7979 6.07153 18.8092 6.09052 18.8277 6.09872C18.8462 6.10678 18.8678 6.10252 18.8817 6.0878L18.9328 6.03347C18.9629 6.04088 19.0108 6.04843 19.062 6.04013C19.0491 6.10233 19.0529 6.17888 19.1152 6.24385C19.1287 6.25791 19.1494 6.26231 19.1674 6.2551C19.1855 6.24783 19.1973 6.23035 19.1973 6.21085V6.17644C19.2269 6.16955 19.2663 6.15521 19.3034 6.12558C19.3251 6.17255 19.3667 6.22767 19.4458 6.27422C19.4533 6.27863 19.4617 6.28083 19.47 6.28083C19.4808 6.28083 19.4917 6.27708 19.5005 6.26981C19.516 6.25697 19.5217 6.23578 19.5148 6.21685L19.4899 6.14832C19.5073 6.13116 19.5299 6.10669 19.5496 6.08053C19.5594 6.09469 19.5757 6.10285 19.5932 6.10116C19.6113 6.09943 19.627 6.08747 19.6333 6.07041L19.6509 6.02372C19.6612 6.02086 19.6711 6.01744 19.6805 6.0136C19.6922 6.11691 19.7717 6.20288 19.7764 6.20794C19.7856 6.21769 19.7982 6.22299 19.8112 6.22299C19.8151 6.22299 19.819 6.22252 19.8228 6.22158C19.8396 6.21736 19.8527 6.20438 19.8572 6.18769L19.8838 6.08855C19.9542 6.05288 19.9611 5.98829 19.9654 5.94807C19.9662 5.94019 19.9674 5.92922 19.9676 5.92369C19.9951 5.93724 20.0535 6.00272 20.0974 6.07064C20.1062 6.08414 20.1212 6.09239 20.1372 6.09244C20.1536 6.09127 20.1684 6.08447 20.1773 6.07102C20.1773 6.07102 20.2145 6.01463 20.2326 5.98172C20.3095 5.84218 20.193 5.75865 20.137 5.71848C20.1233 5.70863 20.1045 5.69513 20.1015 5.69138C20.091 5.66584 20.0947 5.64202 20.1016 5.62351C20.1482 5.65571 20.2013 5.6828 20.26 5.69663C20.2637 5.69748 20.2674 5.6979 20.271 5.6979C20.2863 5.6979 20.301 5.69049 20.31 5.67755C20.3212 5.66157 20.3215 5.64038 20.3108 5.62407C20.3098 5.62243 20.2221 5.48752 20.1655 5.32164C20.2569 5.37512 20.3804 5.4399 20.4445 5.4399C20.4885 5.4399 20.5052 5.41253 20.5104 5.40076C20.5135 5.39387 20.519 5.3814 20.5147 5.35801C20.5995 5.40385 20.6952 5.43934 20.7679 5.42059C20.7894 5.41506 20.8398 5.40203 20.8474 5.35689C20.8513 5.33401 20.8435 5.31554 20.8267 5.29731C20.9055 5.31643 20.9904 5.32595 21.0737 5.31493C21.1432 5.30575 21.1636 5.27209 21.1686 5.24542C21.1717 5.22836 21.1773 5.19559 21.1154 5.13353C21.235 5.12697 21.3419 5.10081 21.3506 5.02862C21.3514 5.02215 21.3502 5.01625 21.3496 5.01015C21.7342 4.9682 22.0269 4.72769 22.0398 4.71686C22.0436 4.71372 22.0461 4.70978 22.0486 4.70589C22.2815 4.67683 22.546 4.62424 22.76 4.528C23.1641 4.34632 23.3688 4.10112 23.3321 4.01205C23.3215 3.98618 23.2909 3.96738 23.2533 3.98149C23.2427 3.98548 23.2213 3.9941 23.1933 4.00554C23.4324 3.81073 23.526 3.63059 23.5349 3.61259ZM22.8326 3.34184C22.657 3.51368 22.3261 3.76081 21.7804 3.90415C21.7756 3.90542 21.7716 3.90785 21.7676 3.91034C21.6528 3.90138 21.5078 3.88043 21.3806 3.83295C21.7839 3.7415 22.3505 3.58395 22.8326 3.34184ZM20.4044 3.89932C20.4111 3.90054 20.4179 3.90035 20.4245 3.89876C20.4812 3.88488 21.7948 3.56272 22.0057 3.45397C21.9812 3.50229 21.9341 3.56998 21.8956 3.5982C21.8945 3.599 21.894 3.60017 21.893 3.60106C21.3274 3.76896 20.8474 3.83974 20.8394 3.84087C20.8133 3.84462 20.7953 3.86881 20.799 3.89487C20.8028 3.92093 20.8268 3.93902 20.853 3.93527C20.8574 3.93462 21.0031 3.91315 21.2269 3.86646C21.3428 3.93288 21.4852 3.96954 21.6149 3.98937C21.4212 4.00573 21.2419 3.9964 21.2389 3.99616C21.2163 3.99532 21.1943 4.01102 21.1896 4.03418C21.1848 4.05734 21.1977 4.08049 21.2199 4.08855L21.4003 4.15465C21.1466 4.20865 20.9021 4.15798 20.8993 4.15732C20.8797 4.15301 20.8598 4.16149 20.8491 4.17827C20.8384 4.19501 20.8392 4.21666 20.8511 4.23255C20.8855 4.27854 20.9827 4.32677 21.0675 4.36235C20.7189 4.42835 20.4789 4.21465 20.4676 4.20438C20.4482 4.18666 20.4182 4.18798 20.4004 4.20724C20.3826 4.22651 20.3837 4.25651 20.4028 4.27436C20.6782 4.53213 21.1916 4.64191 21.422 4.67974C21.3878 4.69989 21.3467 4.71888 21.3036 4.72661C21.1268 4.75802 20.7185 4.56386 20.4313 4.40669L20.2013 4.27394C20.1787 4.26091 20.1498 4.26841 20.1365 4.29082C20.1231 4.31327 20.1302 4.34224 20.1524 4.35588C20.1634 4.36263 20.2537 4.41789 20.3818 4.4883L20.9417 4.81141C20.77 4.83264 20.5887 4.79416 20.5865 4.79369C20.5851 4.79341 20.5838 4.79383 20.5824 4.79364C20.4513 4.70149 20.2398 4.54633 19.9224 4.28304C19.8713 4.10065 19.7755 4.02049 19.6556 3.94437C19.791 3.90279 20.0768 3.83787 20.4044 3.89932ZM20.7504 4.9105C20.7502 4.91059 20.7499 4.91083 20.7496 4.91092C20.7496 4.91092 20.7492 4.91059 20.749 4.91041C20.7495 4.91045 20.75 4.9105 20.7504 4.9105ZM17.6442 4.69422L17.7532 4.6166C17.7726 4.60281 17.7789 4.5768 17.7679 4.55571C17.7569 4.53457 17.732 4.52496 17.7096 4.53283C17.5293 4.59719 17.3469 4.59063 17.2327 4.57596L17.359 4.49824C17.3791 4.48586 17.3872 4.4606 17.3779 4.43889C17.3686 4.41719 17.3449 4.40552 17.3219 4.41152C17.092 4.47189 16.9005 4.44682 16.7752 4.41222C16.9744 4.36568 17.0902 4.27755 17.0962 4.27282C17.1137 4.25932 17.1196 4.23565 17.1105 4.21554C17.1015 4.19548 17.0799 4.18441 17.0582 4.18826C16.7955 4.23771 16.5927 4.22144 16.4566 4.19327C16.5973 4.16965 16.7091 4.13604 16.716 4.13393C16.7168 4.13369 16.7174 4.13304 16.7182 4.13276C16.7214 4.13159 16.7242 4.1298 16.727 4.12798C16.7295 4.12643 16.7319 4.12516 16.734 4.12329C16.7363 4.12123 16.738 4.11869 16.7398 4.11621C16.7416 4.11377 16.7435 4.11157 16.7448 4.10885C16.746 4.10627 16.7466 4.10341 16.7474 4.1006C16.7482 4.09737 16.7492 4.09432 16.7494 4.0909C16.7495 4.0901 16.7499 4.08949 16.7499 4.08865C16.7499 4.08616 16.7489 4.08396 16.7485 4.08157C16.7482 4.07918 16.7486 4.07679 16.7479 4.0744C16.7476 4.07365 16.7471 4.07313 16.7468 4.07243C16.7456 4.06924 16.7438 4.06652 16.7421 4.06366C16.7406 4.06118 16.7393 4.0586 16.7373 4.05645C16.7353 4.0542 16.7328 4.0526 16.7304 4.05077C16.7279 4.0489 16.7257 4.04693 16.7228 4.04557C16.7203 4.04435 16.7175 4.04384 16.7147 4.04309C16.7115 4.04215 16.7084 4.04121 16.7049 4.04102C16.7041 4.04098 16.7035 4.04055 16.7027 4.04055C16.0901 4.03479 15.752 3.71257 15.6438 3.54809C15.8347 3.68107 16.0854 3.79395 16.268 3.85878L16.2682 3.85882C16.511 3.95262 16.8137 4.01238 16.8266 4.01487C16.8524 4.01988 16.8775 4.0031 16.8825 3.97723C16.8876 3.9514 16.8707 3.92632 16.8449 3.92126C16.8419 3.92065 16.5365 3.86042 16.3012 3.76934C15.7936 3.57293 15.6909 3.36022 15.6566 3.25278C15.7114 3.29178 15.7852 3.34911 15.8246 3.37981C16.1217 3.61086 16.813 3.82938 16.8423 3.83857C16.8673 3.84649 16.8937 3.83271 16.9019 3.80792C16.91 3.78307 16.8967 3.75635 16.872 3.74792C16.1572 3.50445 16.0499 3.27298 15.9922 3.14863C15.9872 3.1378 15.9825 3.12772 15.9779 3.11835C15.9875 3.1213 15.9975 3.125 16.0057 3.12866C16.4019 3.35042 16.9842 3.61292 17.2043 3.71037C17.1647 3.7294 17.1232 3.74539 17.0957 3.74689C17.0773 3.74792 17.0611 3.7594 17.0542 3.77646C17.0472 3.79348 17.0506 3.81298 17.063 3.82662C17.0659 3.82981 17.1127 3.87992 17.2034 3.89946L17.1389 3.94146C17.1239 3.95135 17.1156 3.96888 17.1176 3.98688C17.1197 4.00484 17.1317 4.02007 17.1487 4.02626C17.1531 4.02785 17.2267 4.05373 17.3239 4.06399L17.2703 4.10309C17.2567 4.11302 17.2494 4.12943 17.251 4.14616C17.2526 4.1629 17.2629 4.17762 17.2782 4.18474C17.2844 4.18765 17.3577 4.22093 17.4753 4.2154L17.4713 4.21821C17.4558 4.22908 17.4482 4.24816 17.4519 4.26672C17.4557 4.28529 17.4701 4.29991 17.4886 4.3039C17.4959 4.30544 17.5859 4.32396 17.7151 4.30929L17.6858 4.32883C17.6702 4.33919 17.6621 4.35785 17.6652 4.37636C17.6683 4.39488 17.682 4.40983 17.7001 4.41466C17.714 4.41822 17.9227 4.47021 18.1966 4.3833C18.1392 4.42108 18.0856 4.4485 18.0414 4.45844C18.0213 4.46299 18.0063 4.48005 18.0044 4.50068C18.0025 4.5213 18.0142 4.54075 18.0332 4.54886C18.0345 4.54938 18.0392 4.55121 18.0454 4.55346C17.8991 4.65049 17.7495 4.68419 17.6442 4.69422ZM17.4134 3.82906C17.4042 3.80773 17.3811 3.79606 17.3584 3.80168C17.3031 3.81513 17.2585 3.81378 17.224 3.80651C17.2805 3.78134 17.3288 3.75134 17.3373 3.7459C17.3407 3.74375 17.3437 3.74107 17.3465 3.73817C17.4313 3.77229 17.5276 3.8051 17.6357 3.83642L17.4526 3.97001C17.3913 3.97652 17.3305 3.97066 17.2821 3.96199L17.3957 3.88793C17.4152 3.87523 17.4227 3.85038 17.4134 3.82906ZM17.8419 4.81033C17.8238 4.81009 17.7904 4.80086 17.7779 4.79195C17.7811 4.78694 17.789 4.77714 17.8067 4.76313C17.9193 4.73425 18.0485 4.67955 18.1724 4.57849C18.3024 4.58791 18.5069 4.55702 18.7152 4.34763C18.7229 4.3616 18.7309 4.37566 18.7403 4.39005C18.7177 4.40721 18.1794 4.81338 17.8419 4.81033ZM18.2139 4.48474C18.3681 4.39193 18.5406 4.23049 18.6483 4.12268C18.6499 4.16215 18.6576 4.20738 18.6747 4.25712C18.6709 4.25932 18.6671 4.26133 18.664 4.26461C18.4932 4.4448 18.3268 4.4845 18.2139 4.48474ZM19.1098 5.10203C18.9528 5.09129 18.8066 5.06692 18.7532 5.04329C18.8831 4.94191 18.9203 4.89714 18.9243 4.89222C18.9374 4.87581 18.9382 4.85266 18.9262 4.83536C18.9142 4.81797 18.8922 4.81052 18.8723 4.81708C18.7011 4.87239 18.5012 4.92639 18.4025 4.94026C18.4478 4.89953 18.5284 4.84816 18.6013 4.81169C18.6246 4.79997 18.6343 4.7717 18.6229 4.74822C18.6115 4.72469 18.5833 4.7148 18.5597 4.72586C18.4299 4.78689 18.2441 4.84844 18.1278 4.8475C18.4443 4.73355 18.7669 4.4898 18.7977 4.46622C18.822 4.49528 18.8489 4.52472 18.8812 4.55472C19.1661 4.81961 19.1349 5.02736 19.1098 5.10203ZM19.1883 5.39279C19.1857 5.39593 19.1822 5.4001 19.1779 5.40489C19.1883 5.33429 19.1957 5.24575 19.1889 5.16147C19.2151 5.10381 19.2683 4.93286 19.1307 4.70613C19.2214 4.7193 19.4295 4.76294 19.5196 4.89391C19.5315 4.9113 19.5434 4.93051 19.5551 4.95053L19.555 4.95067C19.5505 4.96122 19.4604 5.17961 19.4891 5.45265C19.468 5.42781 19.4479 5.39734 19.4344 5.36162C19.428 5.34489 19.4128 5.33307 19.395 5.33115C19.3774 5.32928 19.3598 5.33739 19.35 5.35234C19.3299 5.38285 19.3008 5.42462 19.2719 5.46282L19.2729 5.42429C19.2734 5.40395 19.261 5.38557 19.2419 5.3784C19.2228 5.37137 19.2013 5.37704 19.1883 5.39279ZM19.4958 5.9865C19.4863 6.01496 19.4354 6.0698 19.4024 6.09961C19.4012 6.10064 19.4001 6.10177 19.399 6.10294C19.3741 6.06174 19.375 6.02916 19.3751 6.02738C19.3767 6.00507 19.3626 5.98463 19.3413 5.97816C19.3198 5.97169 19.2968 5.98107 19.2859 6.00052C19.2423 6.07838 19.1657 6.08639 19.1517 6.08728C19.1541 6.02982 19.1873 5.97765 19.1894 5.97441C19.2026 5.95435 19.1988 5.92763 19.1806 5.91202C19.1624 5.89641 19.1354 5.89679 19.1176 5.91286C19.0475 5.97624 18.9364 5.93522 18.9354 5.9349C18.9308 5.93311 18.926 5.93208 18.9213 5.93175C18.9521 5.86477 19.006 5.85924 19.0804 5.85165C19.1088 5.84869 19.1382 5.84569 19.1686 5.83904C19.3153 5.80693 19.3326 5.6447 19.3213 5.56337C19.321 5.56112 19.3197 5.55929 19.3191 5.55718C19.3421 5.52892 19.365 5.49798 19.3841 5.47126C19.3934 5.48551 19.4033 5.49831 19.4133 5.51045C19.4136 5.54527 19.4156 5.65248 19.4277 5.70896C19.4373 5.75382 19.47 5.78401 19.5015 5.80341C19.4964 5.81354 19.492 5.82422 19.4891 5.8358C19.4779 5.88197 19.4874 5.93279 19.5016 5.97629C19.4995 5.97961 19.4971 5.98261 19.4958 5.9865ZM19.5209 5.68904C19.5164 5.66776 19.5135 5.63434 19.5116 5.60068C19.525 5.60987 19.5343 5.61535 19.5356 5.6161C19.5522 5.62529 19.5728 5.62384 19.5879 5.61226C19.6029 5.60068 19.6097 5.58127 19.6051 5.56285C19.5547 5.36139 19.5884 5.17295 19.6164 5.06969C19.6985 5.25015 19.7575 5.4729 19.7371 5.61976C19.7339 5.64221 19.7471 5.66377 19.7685 5.67127C19.7729 5.67282 19.7775 5.67329 19.782 5.67352C19.7815 5.67854 19.781 5.68379 19.7804 5.68843C19.7322 5.68693 19.6527 5.69434 19.5756 5.73441C19.5536 5.72523 19.525 5.7084 19.5209 5.68904ZM20.149 5.93555C20.1452 5.9424 20.1405 5.95036 20.1355 5.95861C20.0785 5.88324 20.0004 5.80571 19.9335 5.83097C19.8796 5.85151 19.874 5.90344 19.8703 5.9378C19.8659 5.97929 19.8628 5.99658 19.8282 6.00844C19.8131 6.01355 19.8017 6.02583 19.7975 6.04116L19.7922 6.06099C19.774 6.02096 19.7643 5.97263 19.7915 5.93143C19.8054 5.91033 19.8003 5.88211 19.78 5.86702C19.7598 5.85197 19.7312 5.8554 19.7149 5.8748C19.7145 5.87527 19.6713 5.92613 19.6085 5.93508C19.602 5.93602 19.5958 5.93827 19.5904 5.9416C19.5813 5.91249 19.576 5.88193 19.5818 5.8583C19.5852 5.84419 19.5922 5.83463 19.6043 5.82732C19.6998 5.76952 19.8112 5.78593 19.8122 5.78612C19.8374 5.79029 19.8605 5.7744 19.8662 5.74998C19.8688 5.7391 19.8893 5.6461 19.8744 5.5682L19.936 5.4646C19.9582 5.49296 19.9882 5.52774 20.0249 5.56196C20.0047 5.59909 19.9849 5.65913 20.0131 5.72752C20.0244 5.75504 20.0507 5.77393 20.0813 5.79577C20.1591 5.8516 20.1797 5.87963 20.149 5.93555ZM19.9734 5.35243C19.9647 5.33814 19.9473 5.33031 19.9324 5.32951C19.9157 5.32956 19.9002 5.33837 19.8916 5.35276L19.8296 5.45687C19.8034 5.24603 19.7041 4.99408 19.5981 4.83991C19.4603 4.63947 19.1197 4.6015 19.0554 4.60174C19.0241 4.56377 18.9892 4.525 18.9461 4.48493C18.6633 4.22205 18.7563 4.01187 18.7608 4.00216C18.7612 4.00132 18.7611 4.00043 18.7615 3.99959C18.7628 3.99654 18.7632 3.99345 18.7639 3.99021C18.7644 3.98726 18.7652 3.98445 18.7652 3.98149C18.7652 3.97849 18.7645 3.97563 18.7639 3.97268C18.7633 3.96963 18.7629 3.96663 18.7618 3.96377C18.7607 3.96115 18.7591 3.9589 18.7575 3.95641C18.7557 3.95356 18.754 3.95084 18.7516 3.94835C18.751 3.9477 18.7507 3.94681 18.75 3.9462C18.7483 3.94465 18.7462 3.94404 18.7444 3.94277C18.7424 3.94146 18.741 3.93963 18.7389 3.9386C18.7381 3.93818 18.7371 3.93827 18.7362 3.9379C18.7332 3.93659 18.7301 3.93602 18.7268 3.93542C18.7239 3.93485 18.7211 3.9341 18.7181 3.9341C18.7151 3.93406 18.7122 3.93476 18.7093 3.93532C18.7062 3.93588 18.7032 3.93631 18.7003 3.93748C18.6977 3.93851 18.6954 3.9402 18.6929 3.94174C18.6901 3.94352 18.6873 3.94526 18.6849 3.94765C18.6842 3.94831 18.6833 3.94859 18.6827 3.94924L18.6826 3.94934L18.6826 3.94938C18.359 4.30286 18.0203 4.34491 17.8448 4.33755L18.0484 4.2018C18.0884 4.17944 18.1288 4.15287 18.1689 4.12132C18.1891 4.10548 18.1931 4.0766 18.1781 4.05584C18.1631 4.03502 18.1343 4.02996 18.113 4.04412L18.0013 4.1186C17.8634 4.19505 17.7303 4.21568 17.6372 4.21854L17.7433 4.14424C17.8248 4.10482 17.9137 4.04571 18.0073 3.95857C18.0257 3.94151 18.0277 3.91315 18.0119 3.89365C17.9962 3.8742 17.9681 3.87026 17.9475 3.8846L17.6947 4.06179C17.5746 4.11837 17.4762 4.1253 17.4102 4.11926L17.7716 3.8554C17.7865 3.84457 17.7937 3.82615 17.7904 3.8081C17.787 3.79001 17.7735 3.77553 17.7557 3.77079C17.1665 3.614 17.0248 3.45383 16.9929 3.37231C16.9901 3.36514 16.9882 3.35942 16.9871 3.35497C16.999 3.35675 17.0149 3.36125 17.0252 3.36561C17.6025 3.70489 18.6842 3.84082 18.7299 3.84645C18.7535 3.84879 18.7753 3.83459 18.7817 3.81185C18.798 3.75312 18.8923 3.45537 19.1485 3.35872C19.3901 3.26773 19.5805 3.41487 19.5884 3.42106C19.5969 3.42786 19.6074 3.43151 19.6182 3.43151C19.7209 3.43151 19.789 3.452 19.8099 3.48922C19.8165 3.50117 19.8185 3.51486 19.8178 3.5285C19.8011 3.52001 19.7827 3.51434 19.7646 3.51167C19.7564 3.51036 19.7481 3.51139 19.7403 3.51439C19.731 3.51804 19.7073 3.51964 19.6863 3.52109C19.6191 3.52573 19.5174 3.53272 19.4599 3.61826C19.426 3.6687 19.4147 3.73582 19.4289 3.80229C19.4378 3.84378 19.46 3.89801 19.5107 3.95093C19.5157 3.96082 19.5236 3.96799 19.533 3.9724C19.5504 3.98782 19.5697 4.00301 19.5929 4.01749C19.7055 4.08785 19.7881 4.15277 19.8319 4.31201C19.8322 4.31758 19.8337 4.32297 19.836 4.32813C19.8539 4.40004 19.8647 4.48994 19.8671 4.60694C19.8677 4.63291 19.8889 4.65363 19.9148 4.65363C19.9148 4.65363 19.9155 4.65363 19.9158 4.65363C19.9421 4.65311 19.963 4.63127 19.9625 4.60492C19.9611 4.53939 19.9568 4.48183 19.9503 4.42961C20.3056 4.71977 20.5153 4.86391 20.6205 4.93609C20.6353 4.94626 20.6494 4.95592 20.6617 4.96459C20.5546 4.97434 20.3851 4.87666 20.2526 4.77559C20.209 4.73627 20.1678 4.70374 20.1455 4.68672C20.1253 4.67116 20.0964 4.67439 20.08 4.69403C20.0636 4.71358 20.0656 4.74259 20.0844 4.75984C20.0964 4.77086 20.1349 4.80527 20.189 4.84708C20.2514 4.90384 20.2997 4.95742 20.3148 4.98826C20.2405 4.97265 20.0369 4.85153 19.8714 4.73331C19.8509 4.71869 19.8228 4.72244 19.8069 4.74175C19.7909 4.76111 19.7926 4.78942 19.8108 4.80672C19.9251 4.91523 19.9955 5.01442 20.0402 5.2269C20.0657 5.34812 20.1152 5.46315 20.1574 5.54654C20.0461 5.47032 19.9743 5.35398 19.9734 5.35243ZM21.061 5.22015C20.8087 5.25329 20.523 5.06087 20.5202 5.05895C20.4998 5.04508 20.4721 5.04897 20.4565 5.06795C20.4408 5.08689 20.4421 5.11468 20.4595 5.13208C20.5422 5.21476 20.6265 5.27087 20.688 5.31179C20.6969 5.31775 20.7065 5.32412 20.7158 5.33045C20.624 5.3259 20.4646 5.22245 20.3766 5.15045C20.3574 5.13465 20.329 5.13639 20.3118 5.15457C20.2946 5.17272 20.2944 5.20107 20.3112 5.2195C20.3468 5.25845 20.3806 5.30204 20.4009 5.33387C20.3313 5.30842 20.2137 5.24148 20.1287 5.18715C20.1091 5.10015 20.0849 5.02933 20.0552 4.96933C20.3322 5.13433 20.3789 5.07869 20.3964 5.05764C20.4065 5.0454 20.4179 5.0244 20.4145 4.99347C20.4144 4.99328 20.4144 4.99314 20.4144 4.99314C20.5276 5.05037 20.6487 5.08412 20.7417 5.04062C20.7515 5.03608 20.7655 5.02881 20.7767 5.01728C20.9484 5.11318 21.0382 5.18495 21.0655 5.2194C21.0642 5.21968 21.0626 5.21987 21.061 5.22015ZM20.9962 5.03894C20.9436 5.00317 20.8761 4.96201 20.7874 4.91397C20.7856 4.91298 20.7836 4.91294 20.7817 4.91223C20.7973 4.91284 20.8133 4.91326 20.8297 4.91326C20.8756 4.91326 20.9238 4.91012 20.9717 4.90314C20.9753 4.90553 20.9789 4.90811 20.9832 4.90947C21.1309 4.95592 21.2199 4.99122 21.2483 5.0148C21.2104 5.03125 21.1013 5.04198 20.9962 5.03894ZM21.2773 4.92016C21.2773 4.92016 21.2768 4.92034 21.2764 4.92034C21.2381 4.89803 21.1836 4.87609 21.1142 4.85219C21.1167 4.84717 21.1186 4.84183 21.1192 4.83602C21.1203 4.8242 21.117 4.81267 21.1104 4.80348C21.1914 4.82289 21.2639 4.83048 21.3203 4.82045C21.3915 4.80775 21.456 4.77274 21.5026 4.74124H21.5027C21.5505 4.74124 21.6865 4.73955 21.8607 4.7252C21.7349 4.80288 21.5204 4.90951 21.2773 4.92016ZM23.2006 4.10524C23.1357 4.1869 22.9884 4.32044 22.7207 4.44077C22.3552 4.60511 21.8155 4.63788 21.5905 4.6442C21.5902 4.64064 21.5897 4.63703 21.5885 4.63356C21.5826 4.61603 21.567 4.60352 21.5486 4.60146C21.5444 4.60099 21.3028 4.57296 21.0343 4.49196C21.1953 4.50719 21.3472 4.51469 21.4894 4.51469C21.8909 4.51469 22.2189 4.45872 22.4856 4.37491C22.487 4.37468 22.4884 4.37505 22.4897 4.37468C22.6367 4.33619 22.9869 4.19271 23.1751 4.11565C23.1841 4.11204 23.1926 4.10857 23.2006 4.10524ZM22.9463 4.05973C22.636 4.25177 22.095 4.45694 21.2391 4.4111C21.2557 4.40304 21.2666 4.38635 21.2663 4.3676C21.2658 4.34749 21.2529 4.32982 21.2339 4.32335C21.1956 4.31041 21.1501 4.29326 21.1058 4.27479C21.2369 4.27863 21.4074 4.26644 21.5694 4.20396C21.588 4.19679 21.6001 4.17893 21.6 4.15905C21.5998 4.13918 21.5873 4.12151 21.5687 4.11466L21.5064 4.09184C21.6645 4.08523 21.8583 4.06451 21.9935 4.0076C22.0148 3.99865 22.0266 3.97573 22.0215 3.95318C22.0212 3.95201 22.0205 3.95107 22.0201 3.94995C22.3057 3.87837 22.8316 3.71328 23.3745 3.3732C23.2577 3.5675 22.918 3.92885 21.9566 4.15601C21.9317 4.16191 21.9159 4.18638 21.9207 4.21151C21.9256 4.23668 21.9495 4.25318 21.9747 4.24962C21.9819 4.24849 22.6354 4.14588 23.3102 3.75964C23.2303 3.84846 23.1122 3.95707 22.9463 4.05973Z" fill="#464655"/>
</g>
<defs>
<clipPath id="clip0_72_4660">
<path d="M0 2C0 0.895432 0.895431 0 2 0H21.9999C23.1045 0 23.9999 0.895431 23.9999 2V21.9999C23.9999 23.1045 23.1045 23.9999 21.9999 23.9999H2C0.895432 23.9999 0 23.1045 0 21.9999V2Z" fill="white"/>
</clipPath>
</defs>
</svg>
