<svg width="24" height="24" viewBox="0 0 24 24" fill="none" xmlns="http://www.w3.org/2000/svg">
<path d="M9.79977 20.0996C10.2998 19.7997 10.9002 20 11.2002 20.5C11.2304 20.5302 11.2609 20.5693 11.2939 20.6123C11.37 20.7114 11.4602 20.8307 11.5996 20.9004C12.0996 21.2004 12.7 21 13 20.5C13.3 20 13.9004 19.8996 14.4004 20.0996C14.9002 20.3996 14.9997 21.0001 14.7998 21.5C13.9998 22.4999 12.9999 23 12 23C11.5 23 11 22.8996 10.5 22.5996C10.0001 22.2997 9.70029 21.9998 9.40036 21.5C9.10036 21 9.29977 20.3996 9.79977 20.0996ZM17 0C20.8659 6.59709e-05 24 3.13405 24 7C24 9.86406 22.2789 12.3243 19.8154 13.4082C20.5536 15.4643 21.5346 16.1978 21.5996 16.2002C21.9995 16.5001 22.0999 16.8999 22 17.2998C21.9 17.6998 21.4 18 21 18H2.99997C2.59997 18 2.19997 17.6998 1.99997 17.2998C1.90004 16.8998 2.00041 16.4002 2.40036 16.2002C2.42662 16.1808 4.99997 14.2679 4.99997 8C4.99997 4.1 8.09997 1 12 1C12.4187 1 12.8281 1.03587 13.2256 1.10449C14.3147 0.405777 15.6099 0 17 0ZM11.2138 3.05859C8.7989 3.42613 6.99997 5.46796 6.99997 8C6.99997 12 5.99958 14.5 5.09958 16H18.7998C18.5084 15.4537 18.1926 14.7741 17.9062 13.9385C17.6094 13.9769 17.3072 14 17 14C13.134 14 9.99997 10.866 9.99997 7C9.99997 5.53833 10.4477 4.18117 11.2138 3.05859ZM17 2C16.5884 2 16.1883 2.04977 15.8056 2.14355C15.0109 2.33832 14.2909 2.72321 13.6963 3.24707C12.6562 4.16333 12 5.50494 12 7C12 9.76142 14.2385 12 17 12C17.1487 12 17.2959 11.9922 17.4414 11.9795C18.0745 11.9241 18.6734 11.7508 19.2168 11.4814C20.8657 10.6642 22 8.96506 22 7C22 4.23862 19.7613 2.00007 17 2ZM17 4C17.5522 4.00007 18 4.44776 18 5V6H19C19.5522 6.00007 20 6.44776 20 7C20 7.55224 19.5522 7.99993 19 8H18V9C18 9.55224 17.5522 9.99993 17 10C16.4477 10 16 9.55229 16 9V8H15C14.4477 8 14 7.55228 14 7C14 6.44772 14.4477 6 15 6H16V5C16 4.44772 16.4477 4 17 4Z" fill="currentColor"/>
</svg>
