<svg width="24" height="24" viewBox="0 0 24 24" fill="none" xmlns="http://www.w3.org/2000/svg">
<path d="M6 16.5C5.44772 16.5 5 16.0523 5 15.5V12.5C5 11.9477 5.44772 11.5 6 11.5C6.55228 11.5 7 11.9477 7 12.5V15.5C7 16.0523 6.55228 16.5 6 16.5ZM12 16.5C11.4477 16.5 11 16.0523 11 15.5V12.5C11 11.9477 11.4477 11.5 12 11.5C12.5523 11.5 13 11.9477 13 12.5V15.5C13 16.0523 12.5523 16.5 12 16.5ZM3 20.5C2.44772 20.5 2 20.0523 2 19.5C2 18.9477 2.44772 18.5 3 18.5H21C21.5523 18.5 22 18.9477 22 19.5C22 20.0523 21.5523 20.5 21 20.5H3ZM18 16.5C17.4477 16.5 17 16.0523 17 15.5V12.5C17 11.9477 17.4477 11.5 18 11.5C18.5523 11.5 19 11.9477 19 12.5V15.5C19 16.0523 18.5523 16.5 18 16.5ZM3 9.5C2.44772 9.5 2 9.05228 2 8.5V8.11803C2 7.73926 2.214 7.393 2.55279 7.22361L11.5528 2.72361C11.8343 2.58284 12.1657 2.58284 12.4472 2.72361L21.4472 7.22361C21.786 7.393 22 7.73926 22 8.11803V8.5C22 9.05228 21.5523 9.5 21 9.5H3ZM6.45 7.5H17.55L12.888 5.18998C12.3284 4.91274 11.6716 4.91274 11.112 5.18998L6.45 7.5Z" fill="currentColor"/>
</svg>
