<svg width="24" height="24" viewBox="0 0 24 24" fill="none" xmlns="http://www.w3.org/2000/svg">
<path d="M17.71 9.71C17.8037 9.61704 17.8781 9.50644 17.9289 9.38458C17.9797 9.26272 18.0058 9.13201 18.0058 9C18.0058 8.86799 17.9797 8.73728 17.9289 8.61542C17.8781 8.49356 17.8037 8.38296 17.71 8.29L12.71 3.29C12.617 3.19627 12.5064 3.12188 12.3846 3.07111C12.2627 3.02034 12.132 2.9942 12 2.9942C11.868 2.9942 11.7373 3.02034 11.6154 3.07111C11.4936 3.12188 11.383 3.19627 11.29 3.29L6.29 8.29C6.19627 8.38296 6.12188 8.49356 6.07111 8.61542C6.02034 8.73728 5.9942 8.86799 5.9942 9C5.9942 9.13201 6.02034 9.26272 6.07111 9.38458C6.12188 9.50644 6.19627 9.61704 6.29 9.71C6.38296 9.80373 6.49356 9.87812 6.61542 9.92889C6.73728 9.97966 6.86799 10.0058 7 10.0058C7.13201 10.0058 7.26272 9.97966 7.38458 9.92889C7.50644 9.87812 7.61704 9.80373 7.71 9.71L12 5.41L16.29 9.71C16.383 9.80373 16.4936 9.87812 16.6154 9.92889C16.7373 9.97966 16.868 10.0058 17 10.0058C17.132 10.0058 17.2627 9.97966 17.3846 9.92889C17.5064 9.87812 17.617 9.80373 17.71 9.71ZM12.71 20.71L17.71 15.71C17.8032 15.6168 17.8772 15.5061 17.9277 15.3842C17.9781 15.2624 18.0041 15.1319 18.0041 15C18.0041 14.7337 17.8983 14.4783 17.71 14.29C17.6168 14.1968 17.5061 14.1228 17.3842 14.0723C17.2624 14.0219 17.1319 13.9959 17 13.9959C16.7337 13.9959 16.4783 14.1017 16.29 14.29L12 18.59L7.71 14.29C7.61704 14.1963 7.50644 14.1219 7.38458 14.0711C7.26272 14.0203 7.13201 13.9942 7 13.9942C6.86799 13.9942 6.73728 14.0203 6.61542 14.0711C6.49356 14.1219 6.38296 14.1963 6.29 14.29C6.19627 14.383 6.12188 14.4936 6.07111 14.6154C6.02034 14.7373 5.9942 14.868 5.9942 15C5.9942 15.132 6.02034 15.2627 6.07111 15.3846C6.12188 15.5064 6.19627 15.617 6.29 15.71L11.29 20.71C11.383 20.8037 11.4936 20.8781 11.6154 20.9289C11.7373 20.9797 11.868 21.0058 12 21.0058C12.132 21.0058 12.2627 20.9797 12.3846 20.9289C12.5064 20.8781 12.617 20.8037 12.71 20.71Z" fill="currentColor"/>
</svg>
