<svg width="18" height="18" viewBox="0 0 18 18" fill="none" xmlns="http://www.w3.org/2000/svg">
    <path
        d="M15.9375 9C15.9375 5.18566 12.8143 2.0625 9 2.0625C5.18566 2.0625 2.0625 5.18566 2.0625 9C2.0625 12.8143 5.18566 15.9375 9 15.9375C12.8143 15.9375 15.9375 12.8143 15.9375 9ZM10.7249 6.47974C10.9445 6.26013 11.3006 6.26009 11.5203 6.47974C11.7399 6.69939 11.7399 7.05549 11.5203 7.27515L9.79541 9L11.5203 10.7249C11.7398 10.9445 11.7399 11.3006 11.5203 11.5203C11.3006 11.7399 10.9445 11.7398 10.7249 11.5203L9 9.79541L7.27515 11.5203C7.05549 11.7399 6.69939 11.7399 6.47974 11.5203C6.26009 11.3006 6.26013 10.9445 6.47974 10.7249L8.20459 9L6.47974 7.27515C6.26007 7.05548 6.26007 6.69941 6.47974 6.47974C6.69941 6.26007 7.05548 6.26007 7.27515 6.47974L9 8.20459L10.7249 6.47974ZM17.0625 9C17.0625 13.4357 13.4357 17.0625 9 17.0625C4.56434 17.0625 0.9375 13.4357 0.9375 9C0.9375 4.56434 4.56434 0.9375 9 0.9375C13.4357 0.9375 17.0625 4.56434 17.0625 9Z"
        fill="currentColor" />
</svg>