<svg width="24" height="24" viewBox="0 0 24 24" fill="none" xmlns="http://www.w3.org/2000/svg">
<path d="M21.9199 2.62C21.8185 2.37565 21.6243 2.18147 21.3799 2.08C21.2597 2.02876 21.1306 2.00158 20.9999 2H14.9999C14.7347 2 14.4804 2.10536 14.2928 2.29289C14.1053 2.48043 13.9999 2.73478 13.9999 3C13.9999 3.26522 14.1053 3.51957 14.2928 3.70711C14.4804 3.89464 14.7347 4 14.9999 4H18.5899L2.28994 20.29C2.19621 20.383 2.12182 20.4936 2.07105 20.6154C2.02028 20.7373 1.99414 20.868 1.99414 21C1.99414 21.132 2.02028 21.2627 2.07105 21.3846C2.12182 21.5064 2.19621 21.617 2.28994 21.71C2.3829 21.8037 2.4935 21.8781 2.61536 21.9289C2.73722 21.9797 2.86793 22.0058 2.99994 22.0058C3.13195 22.0058 3.26266 21.9797 3.38452 21.9289C3.50637 21.8781 3.61698 21.8037 3.70994 21.71L19.9999 5.41V9C19.9999 9.26522 20.1053 9.51957 20.2928 9.70711C20.4804 9.89464 20.7347 10 20.9999 10C21.2652 10 21.5195 9.89464 21.707 9.70711C21.8946 9.51957 21.9999 9.26522 21.9999 9V3C21.9984 2.86932 21.9712 2.74022 21.9199 2.62Z" fill="currentColor"/>
<path d="M5.75977 14H3C2.44772 14 2 13.5523 2 13C2 12.4477 2.44772 12 3 12H7.76074L5.75977 14ZM21 12C21.5523 12 22 12.4477 22 13C22 13.5523 21.5523 14 21 14H14.2412L16.2402 12H21ZM11.4102 14H8.59082L10.5898 12H13.4111L11.4102 14Z" fill="currentColor"/>
</svg>
