<svg width="24" height="24" viewBox="0 0 24 24" fill="none" xmlns="http://www.w3.org/2000/svg">
<path d="M21.38 21.9258C21.6243 21.8243 21.8185 21.6301 21.92 21.3858C21.9712 21.2656 21.9984 21.1365 22 21.0058L22 15.0058C22 14.7406 21.8946 14.4862 21.7071 14.2987C21.5196 14.1112 21.2652 14.0058 21 14.0058C20.7348 14.0058 20.4804 14.1112 20.2929 14.2987C20.1054 14.4862 20 14.7406 20 15.0058L20 18.5958L3.71 2.2958C3.61704 2.20207 3.50644 2.12767 3.38458 2.07691C3.26272 2.02614 3.13201 2 3 2C2.86799 2 2.73728 2.02614 2.61542 2.07691C2.49356 2.12767 2.38296 2.20207 2.29 2.2958C2.19627 2.38876 2.12188 2.49936 2.07111 2.62122C2.02034 2.74308 1.9942 2.87379 1.9942 3.0058C1.9942 3.13781 2.02034 3.26851 2.07111 3.39037C2.12188 3.51223 2.19627 3.62283 2.29 3.7158L18.59 20.0058L15 20.0058C14.7348 20.0058 14.4804 20.1112 14.2929 20.2987C14.1054 20.4862 14 20.7406 14 21.0058C14 21.271 14.1054 21.5254 14.2929 21.7129C14.4804 21.9004 14.7348 22.0058 15 22.0058L21 22.0058C21.1307 22.0042 21.2598 21.977 21.38 21.9258Z" fill="#090A0B"/>
<path d="M7.75098 12H3C2.44772 12 2 11.5523 2 11C2 10.4477 2.44772 10 3 10H5.75L7.75098 12ZM21 10C21.5523 10 22 10.4477 22 11C22 11.5523 21.5523 12 21 12H16.2266L14.2275 10H21ZM13.4014 12H10.5762L8.57715 10H11.4004L13.4014 12Z" fill="#090A0B"/>
</svg>
