<svg width="18" height="18" viewBox="0 0 18 18" fill="none" xmlns="http://www.w3.org/2000/svg">
    <path
        d="M5.55029 6.12012C5.85007 6.0978 6.13463 6.32266 6.16479 6.62988C6.19479 6.93737 5.97 7.21509 5.65503 7.24512C3.30007 7.46261 2.42288 8.57269 2.42285 11.3401V11.4375C2.42285 14.49 3.50268 15.5706 6.55518 15.5706H11.4448C14.4973 15.5706 15.5771 14.49 15.5771 11.4375V11.3401C15.5771 8.55769 14.6849 7.44761 12.2849 7.24512C11.9775 7.21508 11.7453 6.94532 11.7751 6.63794C11.8051 6.3305 12.0674 6.09756 12.3823 6.12744C15.3672 6.38243 16.7021 7.99512 16.7021 11.3474V11.4456C16.7021 15.1128 15.1272 16.6875 11.4448 16.6875H6.55518C2.87268 16.6875 1.29712 15.1127 1.29712 11.4302V11.3328C1.29712 8.00276 2.61029 6.39762 5.55029 6.12012Z"
        fill="currentColor" />
    <path
        d="M9 0.9375C9.3075 0.9375 9.5625 1.1925 9.5625 1.5V10.6421L11.1152 9.09009C11.3327 8.87259 11.6924 8.87259 11.9099 9.09009C12.1274 9.30759 12.1274 9.66727 11.9099 9.88477L9.39771 12.3977C9.28522 12.5101 9.14246 12.5625 9 12.5625C8.85753 12.5625 8.71477 12.5102 8.60229 12.3977L6.09009 9.88477C5.87267 9.66729 5.8727 9.30758 6.09009 9.09009C6.30757 8.8726 6.66726 8.87264 6.88477 9.09009L8.4375 10.6421V1.5C8.4375 1.1925 8.6925 0.9375 9 0.9375Z"
        fill="currentColor" />
</svg>