<svg width="75" height="24" viewBox="0 0 75 24" fill="none" xmlns="http://www.w3.org/2000/svg">
<path d="M11.2324 0.246086C11.2325 0.0285734 11.4935 -0.081411 11.6494 0.0703047L11.8398 0.255852C18.5269 6.76596 18.436 17.5376 11.6396 23.9336C11.4852 24.0786 11.2328 23.9697 11.2324 23.7578V0.246086ZM5.12598 2.81249C5.12598 2.60445 5.36978 2.49307 5.52734 2.6289L5.6748 2.75487C11.3969 7.68917 11.3234 16.5801 5.51953 21.418C5.36341 21.5479 5.12634 21.4364 5.12598 21.2334V2.81249ZM40.9102 8.92968C42.084 8.92968 43.0294 9.2263 43.7461 9.81933C44.4752 10.4001 44.939 11.2038 45.1367 12.2295H43.0791C42.9556 11.7847 42.7023 11.4323 42.3193 11.1728C41.9486 10.9133 41.4724 10.7832 40.8916 10.7832C40.4715 10.7832 40.0696 10.8948 39.6865 11.1172C39.3159 11.3396 39.0131 11.6734 38.7783 12.1182C38.556 12.5506 38.4453 13.0943 38.4453 13.749C38.4453 14.3916 38.5559 14.936 38.7783 15.3809C39.0131 15.8256 39.3159 16.1656 39.6865 16.4004C40.0696 16.6228 40.4715 16.7334 40.8916 16.7334C41.4848 16.7334 41.961 16.6042 42.3193 16.3447C42.6776 16.0853 42.9308 15.7266 43.0791 15.2695H45.1367C44.8895 16.2828 44.4071 17.0856 43.6904 17.6787C42.9737 18.2718 42.047 18.5684 40.9102 18.5684C40.0575 18.5683 39.291 18.371 38.6113 17.9756C37.9442 17.5802 37.4192 17.0241 37.0361 16.3076C36.653 15.5785 36.4619 14.7253 36.4619 13.749C36.4619 12.7729 36.6531 11.9266 37.0361 11.21C37.4316 10.4932 37.9626 9.93645 38.6299 9.54101C39.2972 9.13322 40.0575 8.9297 40.9102 8.92968ZM60.8037 8.92968C61.6934 8.92968 62.4786 9.1271 63.1582 9.52245C63.8502 9.9179 64.3874 10.4809 64.7705 11.21C65.1659 11.9266 65.3642 12.7729 65.3643 13.749C65.3643 14.7253 65.166 15.5785 64.7705 16.3076C64.3751 17.0242 63.8316 17.5802 63.1396 17.9756C62.46 18.371 61.6749 18.5684 60.7852 18.5684C59.908 18.5683 59.1235 18.3709 58.4316 17.9756C57.7396 17.5801 57.1952 17.0243 56.7998 16.3076C56.4044 15.5785 56.207 14.7253 56.207 13.749C56.2071 12.773 56.4045 11.9266 56.7998 11.21C57.1953 10.4808 57.7396 9.9179 58.4316 9.52245C59.1235 9.1272 59.9143 8.92974 60.8037 8.92968ZM70.6768 8.92968C71.8011 8.92968 72.6722 9.18301 73.29 9.68945C73.9079 10.1961 74.2663 10.8883 74.3652 11.7656H72.4746C72.4251 11.395 72.2339 11.1046 71.9004 10.8945C71.5667 10.6721 71.1525 10.5605 70.6582 10.5605C70.1516 10.5606 69.7497 10.6597 69.4531 10.8574C69.1568 11.0427 69.0089 11.2899 69.0088 11.5986C69.0088 12.2659 69.7257 12.674 71.1592 12.8223C71.8387 12.8964 72.4443 13.0266 72.9756 13.2119C73.5068 13.3849 73.9274 13.6629 74.2363 14.0459C74.5451 14.4165 74.6992 14.9417 74.6992 15.6211C74.7116 16.1771 74.5514 16.6782 74.2178 17.123C73.8965 17.5679 73.4451 17.9202 72.8643 18.1797C72.2958 18.4392 71.6284 18.5683 70.8623 18.5684C69.6512 18.5684 68.6875 18.2843 67.9707 17.7158C67.2541 17.1474 66.846 16.3941 66.7471 15.4551H68.7676C68.8418 15.8872 69.058 16.239 69.416 16.5107C69.7868 16.7826 70.2753 16.9189 70.8809 16.9189C71.4616 16.9189 71.9069 16.8012 72.2158 16.5664C72.5368 16.3193 72.6973 16.035 72.6973 15.7139C72.6972 15.2445 72.5059 14.923 72.123 14.75C71.7523 14.577 71.2018 14.4478 70.4727 14.3613C69.8425 14.2872 69.268 14.1446 68.749 13.9346C68.2424 13.7121 67.8405 13.4156 67.5439 13.0449C67.2474 12.6618 67.0996 12.1856 67.0996 11.6172C67.0997 10.8141 67.4148 10.1651 68.0449 9.67089C68.6751 9.17677 69.5524 8.92969 70.6768 8.92968ZM34.9854 7.13183H28.665V10.9131H34.4297V12.6553H28.665V16.585H34.9854V18.3467H26.7002V5.37109H34.9854V7.13183ZM48.54 10.5234C48.7872 10.0664 49.183 9.69005 49.7266 9.39355C50.2703 9.08462 50.8819 8.92969 51.5615 8.92968C52.6984 8.92968 53.5641 9.27573 54.1572 9.96777C54.7503 10.6474 55.0469 11.63 55.0469 12.915V18.3467H53.082V13.1934C53.082 12.4273 52.896 11.8342 52.5254 11.4141C52.1547 10.994 51.6421 10.7833 50.9873 10.7832C50.3076 10.7832 49.7261 11.0125 49.2441 11.4697C48.7748 11.9269 48.54 12.5883 48.54 13.4531V18.3467H46.5752V4.99999H48.54V10.5234ZM0.129883 7.27929C5.00418 8.74883 5.01631 15.6749 0.128906 17.0996C0.0649878 17.1182 0.000463968 17.0703 0 17.0039V7.37597C8.71739e-07 7.30864 0.0654141 7.26002 0.129883 7.27929ZM60.8037 10.8018C60.3343 10.8018 59.9021 10.9072 59.5068 11.1172C59.1114 11.3272 58.7901 11.6486 58.543 12.081C58.3082 12.5135 58.1905 13.0695 58.1904 13.749C58.1904 14.7623 58.4436 15.5102 58.9502 15.9922C59.4691 16.4617 60.0809 16.6962 60.7852 16.6963C61.2547 16.6963 61.6876 16.5918 62.083 16.3818C62.4783 16.1718 62.7935 15.8503 63.0283 15.418C63.2755 14.9731 63.3994 14.4163 63.3994 13.749C63.3994 13.0695 63.2754 12.5135 63.0283 12.081C62.7935 11.6485 62.4785 11.3273 62.083 11.1172C61.6999 10.9071 61.2733 10.8018 60.8037 10.8018Z" fill="black"/>
</svg>
