<svg width="17" height="24" viewBox="0 0 17 24" fill="none" xmlns="http://www.w3.org/2000/svg">
<path d="M11.2321 0.246083C11.2322 0.0285701 11.4934 -0.0814099 11.6493 0.0703058L11.8403 0.255457C18.5274 6.76556 18.4363 17.5378 11.6399 23.9338C11.4855 24.0789 11.2325 23.9699 11.2321 23.758V0.246083Z" fill="black"/>
<path d="M5.12565 2.81243C5.12565 2.60438 5.37003 2.49261 5.5276 2.62845L5.67525 2.755C11.3973 7.6893 11.3233 16.58 5.51939 21.4178C5.36327 21.5478 5.12601 21.4369 5.12565 21.2338V2.81243Z" fill="black"/>
<path d="M0.130075 7.2795C5.00437 8.74904 5.01631 15.6748 0.128903 17.0996C0.0648451 17.1182 0.000189691 17.0701 0 17.0035V7.37559C8.72785e-07 7.30818 0.0655311 7.26005 0.130075 7.2795Z" fill="black"/>
</svg>
