<svg width="24" height="24" viewBox="0 0 24 24" fill="none" xmlns="http://www.w3.org/2000/svg">
    <path
        d="M1.73047 15.2402V15.1103C1.73047 13.0318 2.10136 11.3586 3.0625 10.1572C4.04091 8.93439 5.51633 8.33874 7.40039 8.16303C7.81266 8.1246 8.17811 8.42761 8.2168 8.83979C8.25524 9.25221 7.95246 9.61775 7.54004 9.65619C5.8845 9.81052 4.86491 10.3053 4.2334 11.0947C3.58461 11.9057 3.23047 13.1689 3.23047 15.1103V15.2402C3.23051 17.4008 3.66802 18.7187 4.46484 19.5156C5.26169 20.3124 6.57959 20.7499 8.74023 20.7499H15.25C17.4108 20.7499 18.7295 20.3124 19.5264 19.5156C20.3231 18.7187 20.7607 17.4007 20.7607 15.2402V15.1103C20.7607 13.1541 20.4012 11.8863 19.7432 11.0751C19.1018 10.2847 18.064 9.79276 16.376 9.6474C15.9635 9.61182 15.658 9.24838 15.6934 8.83588C15.7289 8.42319 16.0922 8.11675 16.5049 8.15229C18.4168 8.31693 19.9146 8.90525 20.9082 10.1298C21.8849 11.3337 22.2607 13.0167 22.2607 15.1103V15.2402C22.2607 17.5491 21.8024 19.3605 20.5869 20.5761C19.3713 21.7917 17.5592 22.2499 15.25 22.2499H8.74023C6.4312 22.2499 4.61989 21.7917 3.4043 20.5761C2.18872 19.3605 1.73051 17.5492 1.73047 15.2402ZM11.251 14.9999V4.30951L9.18066 6.37983C8.88777 6.67272 8.41301 6.67272 8.12012 6.37983C7.82748 6.08691 7.82731 5.61209 8.12012 5.31928L11.4697 1.96967C11.7626 1.67678 12.2384 1.67678 12.5312 1.96967L15.8809 5.31928C16.1737 5.6121 16.1735 6.08691 15.8809 6.37983C15.588 6.67272 15.1132 6.67272 14.8203 6.37983L12.751 4.31049V14.9999C12.751 15.414 12.415 15.7497 12.001 15.7499C11.5868 15.7499 11.251 15.4142 11.251 14.9999Z"
        fill="currentColor" />
</svg>