<svg width="18" height="18" viewBox="0 0 18 18" fill="none" xmlns="http://www.w3.org/2000/svg">
    <path
        d="M12.9675 2.64002C12.9675 2.36161 12.6191 2.2331 12.438 2.44007L12.4373 2.44153L6.75952 8.89197C6.58903 9.09426 6.73658 9.39734 6.99023 9.39734H9.30762C9.61817 9.39741 9.87004 9.64929 9.87012 9.95984V15.36C9.87012 15.6384 10.2178 15.7662 10.3989 15.5592L10.4004 15.5585L16.0774 9.10804C16.2516 8.91004 16.1149 8.60266 15.8474 8.60266H13.53C13.2194 8.60266 12.9676 8.35074 12.9675 8.04016V2.64002ZM5.625 14.4379C5.93566 14.4379 6.1875 14.6897 6.1875 15.0004C6.1873 15.3109 5.93554 15.5629 5.625 15.5629H1.125C0.814462 15.5629 0.562698 15.3109 0.5625 15.0004C0.5625 14.6897 0.81434 14.4379 1.125 14.4379H5.625ZM3.375 8.43787C3.68566 8.43787 3.9375 8.68971 3.9375 9.00037C3.9373 9.31086 3.68554 9.56287 3.375 9.56287H1.125C0.814462 9.56287 0.562698 9.31086 0.5625 9.00037C0.5625 8.68971 0.81434 8.43787 1.125 8.43787H3.375ZM6.375 2.43787C6.68566 2.43787 6.9375 2.68971 6.9375 3.00037C6.9373 3.31086 6.68554 3.56287 6.375 3.56287H1.125C0.814462 3.56287 0.562698 3.31086 0.5625 3.00037C0.5625 2.68971 0.81434 2.43787 1.125 2.43787H6.375ZM14.0925 7.47766H15.8474C17.0798 7.47766 17.738 8.92443 16.9226 9.85144H16.9219L11.2449 16.3019L11.2441 16.3012C10.375 17.2924 8.74512 16.671 8.74512 15.36V10.5223H6.99023C5.76044 10.5223 5.11255 9.07423 5.91211 8.15149L5.91504 8.14856L11.5928 1.69812C12.4619 0.707069 14.0925 1.32904 14.0925 2.64002V7.47766Z"
        fill="currentColor" />
</svg>