<svg width="108" height="24" viewBox="0 0 108 24" fill="none" xmlns="http://www.w3.org/2000/svg">
    <path fill-rule="evenodd" clip-rule="evenodd"
        d="M12.1378 6.10502e-07C13.1819 1.9378e-05 14.1155 0.65071 14.477 1.63028L22.7328 24H17.5473L11.8094 8.07802C11.7113 7.80596 11.3279 7.80258 11.2249 8.07285L5.16011 24H0.174316L8.52902 1.62145C8.89302 0.646461 9.82414 2.4241e-05 10.8649 6.10502e-07H12.1378ZM11.8663 7.66528C11.8792 7.67389 11.8918 7.683 11.904 7.69268C11.8795 7.67334 11.8538 7.65603 11.827 7.64093L11.8663 7.66528Z"
        fill="currentColor" />
    <path fill-rule="evenodd" clip-rule="evenodd"
        d="M33.5064 6.10502e-07C34.3237 6.10502e-07 34.9863 0.66258 34.9863 1.47991V24H29.9816V5.61039H24.935V2.91964L30.5919 0.240159C30.9256 0.0821151 31.2902 4.54225e-06 31.6594 6.10502e-07C31.9944 -2.95651e-06 32.558 1.07102e-05 33.5064 6.10502e-07Z"
        fill="currentColor" />
    <path d="M50.024 21.4219H61.0881V24H47.1418V0H50.024V21.4219Z" fill="currentColor" />
    <path fill-rule="evenodd" clip-rule="evenodd"
        d="M86.4438 24H83.4222L81.0294 17.2031H71.4039L69.0112 24H65.9896L74.729 0H77.7043L86.4438 24ZM72.3116 14.625H80.1218L76.3097 3.79688H76.1237L72.3116 14.625Z"
        fill="currentColor" />
    <path fill-rule="evenodd" clip-rule="evenodd"
        d="M99.4546 0C101.113 1.10552e-05 102.48 0.289073 103.557 0.867188C104.634 1.4375 105.436 2.20719 105.963 3.17593C106.49 4.13682 106.753 5.2032 106.753 6.375C106.753 7.40625 106.571 8.25781 106.207 8.92969C105.85 9.60154 105.378 10.1328 104.789 10.5234C104.208 10.914 103.577 11.2031 102.895 11.3906V11.625C103.623 11.6719 104.355 11.9297 105.091 12.3984C105.827 12.8672 106.443 13.5391 106.939 14.4141C107.435 15.2891 107.683 16.3594 107.683 17.625C107.683 18.8281 107.412 19.9103 106.869 20.8712C106.327 21.8321 105.471 22.5938 104.301 23.1562C103.131 23.7188 101.608 24 99.7335 24H91.1334V0H99.4546ZM94.0156 21.4219H99.7335C101.616 21.4219 102.953 21.0547 103.743 20.3203C104.541 19.5781 104.94 18.6797 104.94 17.625C104.94 16.8125 104.735 16.0625 104.324 15.375C103.914 14.6797 103.328 14.125 102.569 13.7109C101.81 13.2891 100.911 13.0781 99.8729 13.0781H94.0156V21.4219ZM94.0156 10.5469H99.3615C100.229 10.5469 101.012 10.375 101.709 10.0312C102.414 9.6875 102.972 9.20311 103.383 8.57812C103.801 7.95312 104.01 7.21875 104.01 6.375C104.01 5.32036 103.646 4.42592 102.918 3.69156C102.19 2.94939 101.035 2.57814 99.4546 2.57812H94.0156V10.5469Z"
        fill="currentColor" />
</svg>