<svg width="111" height="40" viewBox="0 0 111 40" fill="none" xmlns="http://www.w3.org/2000/svg">
<path d="M12.2256 8.34668C13.2251 8.34668 14.1173 8.97529 14.4521 9.91699L22.3281 32.0732L22.4033 32.2832H17.5781L17.542 32.1768L12.1885 16.3516C12.0469 15.9341 11.4609 15.9211 11.3008 16.332L5.12402 32.1836L5.08496 32.2832H0.37793L0.463867 32.0674L9.35742 9.83105C9.71616 8.93436 10.585 8.34676 11.5508 8.34668H12.2256ZM33.8389 8.34668C34.5777 8.34677 35.1768 8.94569 35.1768 9.68457V32.2832H30.4346V13.7012H25.335V11.2393L25.4248 11.1963L30.9609 8.57422C31.277 8.4245 31.6229 8.34668 31.9727 8.34668C32.3112 8.34668 32.8808 8.34669 33.8389 8.34668Z" fill="black" stroke="black" stroke-width="0.314961"/>
<path d="M47.3024 32V7.94846H50.2149V29.4163H61.3951V32H47.3024ZM69.4013 32H66.3478L75.1793 7.94846H78.1857L87.0171 32H83.9637L76.7764 11.7535H76.5885L69.4013 32ZM70.5287 22.6049H82.8363V25.1885H70.5287V22.6049ZM91.7556 32V7.94846H100.164C101.84 7.94846 103.222 8.23814 104.31 8.81751C105.398 9.38905 106.208 10.1602 106.741 11.1311C107.273 12.0941 107.539 13.1628 107.539 14.3372C107.539 15.3706 107.355 16.224 106.987 16.8973C106.627 17.5706 106.15 18.103 105.555 18.4945C104.967 18.886 104.329 19.1756 103.64 19.3635V19.5984C104.376 19.6454 105.116 19.9038 105.86 20.3735C106.604 20.8433 107.226 21.5166 107.727 22.3935C108.228 23.2704 108.479 24.343 108.479 25.6113C108.479 26.817 108.205 27.9014 107.657 28.8644C107.109 29.8274 106.244 30.5907 105.061 31.1544C103.879 31.7181 102.341 32 100.446 32H91.7556ZM94.6681 29.4163H100.446C102.349 29.4163 103.699 29.0484 104.498 28.3124C105.304 27.5686 105.707 26.6683 105.707 25.6113C105.707 24.7971 105.5 24.0455 105.085 23.3565C104.67 22.6597 104.079 22.1038 103.312 21.6888C102.544 21.2661 101.636 21.0547 100.587 21.0547H94.6681V29.4163ZM94.6681 18.518H100.07C100.947 18.518 101.738 18.3457 102.443 18.0013C103.155 17.6568 103.719 17.1713 104.134 16.545C104.556 15.9187 104.768 15.1827 104.768 14.3372C104.768 13.2802 104.4 12.3837 103.664 11.6478C102.928 10.904 101.761 10.5321 100.164 10.5321H94.6681V18.518Z" fill="#929BA0"/>
</svg>
