<svg width="24" height="24" viewBox="0 0 24 24" fill="none" xmlns="http://www.w3.org/2000/svg">
    <path
        d="M9.49972 8.24023C10.3281 8.24023 10.9997 8.91181 10.9997 9.74023V10.7402C10.9997 11.5687 10.3281 12.2402 9.49972 12.2402C8.67147 12.24 7.99972 11.5685 7.99972 10.7402V9.74023C7.99972 8.91194 8.67147 8.24045 9.49972 8.24023Z"
        fill="currentColor" />
    <path
        d="M14.4997 8.24023C15.3281 8.24023 15.9997 8.91181 15.9997 9.74023V10.7402C15.9997 11.5687 15.3281 12.2402 14.4997 12.2402C13.6715 12.24 12.9997 11.5685 12.9997 10.7402V9.74023C12.9997 8.91194 13.6715 8.24045 14.4997 8.24023Z"
        fill="currentColor" />
    <path fill-rule="evenodd" clip-rule="evenodd"
        d="M11.9997 1.24023C15.3971 1.24023 18.3583 3.55272 19.1823 6.84863L19.3073 7.34863L19.3825 7.62012C19.7872 8.96902 20.6503 10.1384 21.8269 10.9229L21.989 11.0312L22.1296 11.1357C22.7496 11.6507 22.9031 12.5463 22.49 13.2383L22.3923 13.3838C21.0689 15.1485 20.9451 17.5391 22.0798 19.4307L22.1823 19.6016L22.2439 19.7119C22.8257 20.8602 21.9252 22.2373 20.6101 22.1279L17.5114 21.8701C16.6089 21.795 15.7003 21.9203 14.8523 22.2383C13.128 22.8848 11.2387 22.9252 9.49386 22.3594L9.14718 22.2383C8.40522 21.9601 7.61682 21.8287 6.82687 21.8506L6.488 21.8701L3.38937 22.1279C2.03203 22.2405 1.11663 20.7697 1.8171 19.6016L1.91964 19.4307L2.02218 19.252C3.01249 17.4504 2.89867 15.2409 1.72823 13.5508L1.60714 13.3838C1.04161 12.6295 1.22618 11.5543 2.01046 11.0312L2.17257 10.9229L2.40401 10.7607C3.53799 9.92598 4.34908 8.72035 4.6921 7.34863L4.8171 6.84863L4.90011 6.54199C5.82619 3.41012 8.70875 1.24043 11.9997 1.24023ZM11.9997 3.24023C9.59764 3.24043 7.49385 4.82429 6.81808 7.11035L6.75753 7.33301L6.63253 7.83301C6.15993 9.72331 5.01719 11.3743 3.42257 12.4873C4.94913 14.7495 5.10866 17.6684 3.84347 20.083L6.32198 19.877L6.7712 19.8516C7.81925 19.8225 8.86496 19.9971 9.84933 20.3662L10.111 20.457C11.4262 20.8834 12.8505 20.8534 14.1501 20.3662C15.2751 19.9443 16.4801 19.7773 17.6775 19.877L20.155 20.083C18.8902 17.6687 19.0499 14.7493 20.5759 12.4873C19.0843 11.4459 17.9882 9.93394 17.4665 8.19531L17.3669 7.83301L17.2419 7.33301C16.6403 4.92771 14.4792 3.24023 11.9997 3.24023Z"
        fill="currentColor" />
</svg>