<svg width="18" height="18" viewBox="0 0 18 18" fill="none" xmlns="http://www.w3.org/2000/svg">
    <path
        d="M15.9375 9C15.9375 8.41681 15.8643 7.85075 15.7288 7.30957C15.6767 7.30757 15.6239 7.30123 15.572 7.28394C14.6524 6.97688 13.7164 6.73566 12.7712 6.56104C12.953 8.18172 12.9529 9.81755 12.7712 11.4382C13.7163 11.2636 14.6525 11.0238 15.572 10.7168C15.6235 10.6996 15.6765 10.6902 15.7295 10.6882C15.8647 10.1477 15.9375 9.58238 15.9375 9ZM11.4382 12.7712C9.81755 12.9529 8.18172 12.953 6.56104 12.7712C6.73566 13.7164 6.97615 14.6524 7.2832 15.572C7.3004 15.6235 7.3091 15.6765 7.31104 15.7295C7.85174 15.8648 8.41737 15.9375 9 15.9375C9.58294 15.9375 10.1487 15.8642 10.6897 15.7288C10.6917 15.6766 10.6995 15.624 10.7168 15.572C11.0238 14.6525 11.2636 13.7163 11.4382 12.7712ZM15.1882 12.0154C14.3383 12.2661 13.4768 12.4635 12.6086 12.6086C12.4594 13.5011 12.2541 14.3863 11.9934 15.2593C13.3794 14.5953 14.5093 13.4845 15.1992 12.1135C15.1927 12.0817 15.1891 12.0489 15.1882 12.0154ZM2.81104 12.0154C2.81013 12.049 2.80659 12.0817 2.80005 12.1135C3.46973 13.4445 4.55492 14.5294 5.88574 15.1992C5.91756 15.1927 5.95035 15.1892 5.98389 15.1882C5.73323 14.3383 5.53578 13.4768 5.39062 12.6086C4.52245 12.4635 3.66094 12.2661 2.81104 12.0154ZM11.6177 6.38232C9.87938 6.16137 8.11988 6.16131 6.38159 6.38232C6.16068 8.12033 6.16068 9.87967 6.38159 11.6177C8.11989 11.8387 9.87938 11.8386 11.6177 11.6177C11.8386 9.87962 11.8386 8.12038 11.6177 6.38232ZM5.88574 2.80005C4.51502 3.48992 3.40398 4.62013 2.73999 6.00586C3.61297 5.74514 4.4982 5.53987 5.39062 5.39062C5.53581 4.52248 5.73321 3.66092 5.98389 2.81104C5.95031 2.81009 5.9176 2.80663 5.88574 2.80005ZM11.9934 2.73999C12.2541 3.613 12.4594 4.49817 12.6086 5.39062C13.5011 5.53984 14.3863 5.74516 15.2593 6.00586C14.5758 4.57966 13.4197 3.42326 11.9934 2.73999ZM9 2.0625C8.41743 2.0625 7.85169 2.13453 7.31104 2.26978C7.30916 2.32301 7.30047 2.37623 7.2832 2.42798C6.97623 3.34732 6.73565 4.28312 6.56104 5.22803C8.18166 5.04629 9.81761 5.04634 11.4382 5.22803C11.2636 4.28316 11.0238 3.34728 10.7168 2.42798C10.6994 2.37577 10.6916 2.32286 10.6897 2.27051C10.1488 2.13512 9.58288 2.0625 9 2.0625ZM2.0625 9C2.0625 9.58232 2.13464 10.1478 2.26978 10.6882C2.32302 10.6901 2.37622 10.6995 2.42798 10.7168C3.34705 11.0237 4.28267 11.2636 5.22729 11.4382C5.04562 9.81765 5.04557 8.18161 5.22729 6.56104C4.28262 6.73564 3.3471 6.97704 2.42798 7.28394C2.37585 7.30132 2.32278 7.30763 2.27051 7.30957C2.13501 7.8507 2.0625 8.41688 2.0625 9ZM17.0625 9C17.0625 13.4528 13.4528 17.0625 9 17.0625C4.5472 17.0625 0.9375 13.4528 0.9375 9C0.9375 4.5472 4.5472 0.9375 9 0.9375C13.4528 0.9375 17.0625 4.5472 17.0625 9Z"
        fill="currentColor" />
</svg>