<svg width="24" height="24" viewBox="0 0 24 24" fill="none" xmlns="http://www.w3.org/2000/svg">
<path fill-rule="evenodd" clip-rule="evenodd" d="M16.9998 13.5C18.9326 13.5001 20.4998 15.0671 20.4998 17C20.4998 18.9329 18.9326 20.4999 16.9998 20.5C15.2366 20.5 13.7786 19.1961 13.5359 17.5H10.4636C10.221 19.196 8.76286 20.4999 6.99976 20.5C5.06676 20.5 3.49976 18.933 3.49976 17C3.49976 15.067 5.06676 13.5 6.99976 13.5C8.39584 13.5001 9.60114 14.3176 10.1628 15.5H13.8367C14.3984 14.3176 15.6036 13.5 16.9998 13.5ZM6.99976 15.5C6.17133 15.5 5.49976 16.1716 5.49976 17C5.49976 17.8284 6.17133 18.5 6.99976 18.5C7.82808 18.4999 8.49976 17.8283 8.49976 17C8.49976 16.1717 7.82808 15.5001 6.99976 15.5ZM16.9998 15.5C16.1713 15.5 15.4998 16.1716 15.4998 17C15.4998 17.8284 16.1713 18.5 16.9998 18.5C17.8281 18.4999 18.4998 17.8283 18.4998 17C18.4998 16.1717 17.8281 15.5001 16.9998 15.5Z" fill="#090A0B"/>
<path d="M11.9998 9.5C13.7396 9.50002 15.9249 9.75953 17.6423 10.0107C18.5077 10.1373 19.2676 10.2635 19.8113 10.3584C20.0832 10.4059 20.3021 10.4458 20.4529 10.4736C20.5281 10.4875 20.5867 10.4983 20.6267 10.5059C20.6465 10.5096 20.6621 10.5126 20.6726 10.5146C20.6778 10.5157 20.6825 10.517 20.6853 10.5176H20.6882L20.6892 10.5186L20.7888 10.543C21.274 10.689 21.5793 11.1813 21.4812 11.6895C21.3829 12.1979 20.9158 12.5416 20.4109 12.4961L20.3103 12.4814H20.3074C20.3052 12.481 20.3012 12.4804 20.2966 12.4795C20.2874 12.4777 20.2731 12.4752 20.2546 12.4717C20.2174 12.4646 20.1617 12.4538 20.0896 12.4404C19.9446 12.4136 19.7323 12.3753 19.4675 12.3291C18.9375 12.2366 18.1957 12.1126 17.3523 11.9893C15.6517 11.7405 13.5865 11.5 11.9998 11.5C10.413 11.5 8.3479 11.7405 6.64722 11.9893C5.80386 12.1126 5.0621 12.2366 4.53199 12.3291C4.26725 12.3753 4.05493 12.4136 3.90992 12.4404C3.83785 12.4537 3.78218 12.4646 3.74488 12.4717C3.7265 12.4752 3.71214 12.4777 3.70289 12.4795C3.69842 12.4803 3.69437 12.481 3.69214 12.4814H3.68921C3.14707 12.5861 2.62314 12.2316 2.51832 11.6895C2.41366 11.1473 2.76815 10.6234 3.31031 10.5186L3.31128 10.5176H3.31421C3.31704 10.517 3.32178 10.5156 3.32691 10.5146C3.33743 10.5126 3.35304 10.5096 3.37281 10.5059C3.41281 10.4983 3.4715 10.4875 3.54664 10.4736C3.6975 10.4458 3.91632 10.4059 4.18824 10.3584C4.73195 10.2635 5.49188 10.1373 6.35718 10.0107C8.07466 9.75953 10.2599 9.5 11.9998 9.5Z" fill="#090A0B"/>
<path d="M15.4539 3.5C16.6493 3.50028 17.7305 4.2107 18.2058 5.30762L19.4177 8.10254L19.4529 8.19824C19.6064 8.68123 19.3722 9.21203 18.8972 9.41797C18.4222 9.62364 17.8751 9.43146 17.6277 8.98926L17.5818 8.89746L16.3709 6.10254C16.2125 5.73705 15.8522 5.50028 15.4539 5.5H8.54566C8.19707 5.50016 7.87756 5.68147 7.69703 5.97168L7.62867 6.10254L6.41773 8.89746C6.19821 9.40406 5.60895 9.63721 5.1023 9.41797C4.59564 9.19842 4.3624 8.60923 4.58179 8.10254L5.79371 5.30762L5.88941 5.10645C6.40423 4.12442 7.42477 3.50018 8.54566 3.5H15.4539Z" fill="#090A0B"/>
</svg>
