<svg width="24" height="24" viewBox="0 0 24 24" fill="none" xmlns="http://www.w3.org/2000/svg">
<path d="M8 11V16M8 8V8.01M12 16V11M3 5C3 4.46957 3.21071 3.96086 3.58579 3.58579C3.96086 3.21071 4.46957 3 5 3H19C19.5304 3 20.0391 3.21071 20.4142 3.58579C20.7893 3.96086 21 4.46957 21 5V19C21 19.5304 20.7893 20.0391 20.4142 20.4142C20.0391 20.7893 19.5304 21 19 21H5C4.46957 21 3.96086 20.7893 3.58579 20.4142C3.21071 20.0391 3 19.5304 3 19V5Z" stroke="#090A0B" stroke-width="2" stroke-linecap="round" stroke-linejoin="round"/>
<path d="M16 16V13C16 12.4696 15.7893 11.9609 15.4142 11.5858C15.0391 11.2107 14.5304 11 14 11C13.4696 11 12.9609 11.2107 12.5858 11.5858C12.2107 11.9609 12 12.4696 12 13" stroke="#090A0B" stroke-width="2" stroke-linecap="round" stroke-linejoin="round"/>
</svg>
