<svg width="24" height="24" viewBox="0 0 24 24" fill="none" xmlns="http://www.w3.org/2000/svg">
<path d="M20.64 15.772C21.1912 15.1431 21.4966 14.3362 21.5 13.5C21.5 12.5717 21.1313 11.6815 20.4749 11.0251C19.8185 10.3687 18.9283 9.99998 18 9.99998C17.0717 9.99998 16.1815 10.3687 15.5251 11.0251C14.8687 11.6815 14.5 12.5717 14.5 13.5C14.5034 14.3362 14.8088 15.1431 15.36 15.772C14.64 16.2183 14.0455 16.8407 13.6326 17.5804C13.2197 18.3201 13.002 19.1528 13 20C13 20.2652 13.1054 20.5196 13.2929 20.7071C13.4804 20.8946 13.7348 21 14 21C14.2652 21 14.5196 20.8946 14.7071 20.7071C14.8946 20.5196 15 20.2652 15 20C15 19.2043 15.3161 18.4413 15.8787 17.8787C16.4413 17.3161 17.2044 17 18 17C18.7956 17 19.5587 17.3161 20.1213 17.8787C20.6839 18.4413 21 19.2043 21 20C21 20.2652 21.1054 20.5196 21.2929 20.7071C21.4804 20.8946 21.7348 21 22 21C22.2652 21 22.5196 20.8946 22.7071 20.7071C22.8946 20.5196 23 20.2652 23 20C22.998 19.1528 22.7803 18.3201 22.3674 17.5804C21.9545 16.8407 21.36 16.2183 20.64 15.772ZM18 15C17.7033 15 17.4133 14.912 17.1666 14.7472C16.92 14.5824 16.7277 14.3481 16.6142 14.074C16.5007 13.7999 16.4709 13.4983 16.5288 13.2073C16.5867 12.9164 16.7296 12.6491 16.9393 12.4393C17.1491 12.2295 17.4164 12.0867 17.7074 12.0288C17.9983 11.9709 18.2999 12.0006 18.574 12.1142C18.8481 12.2277 19.0824 12.42 19.2472 12.6666C19.412 12.9133 19.5 13.2033 19.5 13.5C19.4995 13.8976 19.3413 14.2789 19.0601 14.5601C18.7789 14.8412 18.3977 14.9995 18 15ZM6.793 7.70698L8.793 9.70698C8.9816 9.88914 9.2342 9.98993 9.4964 9.98765C9.7586 9.98538 10.0094 9.88021 10.1948 9.6948C10.3802 9.50939 10.4854 9.25858 10.4877 8.99638C10.49 8.73418 10.3892 8.48158 10.207 8.29298L9.914 7.99998H14.086L13.793 8.29298C13.6975 8.38523 13.6213 8.49557 13.5689 8.61758C13.5165 8.73958 13.4889 8.8708 13.4877 9.00358C13.4866 9.13636 13.5119 9.26804 13.5622 9.39093C13.6125 9.51383 13.6867 9.62548 13.7806 9.71937C13.8745 9.81327 13.9861 9.88752 14.109 9.9378C14.2319 9.98808 14.3636 10.0134 14.4964 10.0122C14.6292 10.0111 14.7604 9.98349 14.8824 9.93108C15.0044 9.87867 15.1148 9.80249 15.207 9.70698L17.207 7.70698C17.3935 7.51894 17.4981 7.26482 17.4981 6.99998C17.4981 6.73514 17.3935 6.48102 17.207 6.29298L15.207 4.29298C15.0184 4.11082 14.7658 4.01003 14.5036 4.01231C14.2414 4.01458 13.9906 4.11975 13.8052 4.30516C13.6198 4.49057 13.5146 4.74138 13.5123 5.00358C13.51 5.26578 13.6108 5.51838 13.793 5.70698L14.086 5.99998H9.914L10.207 5.70698C10.3892 5.51838 10.49 5.26578 10.4877 5.00358C10.4854 4.74138 10.3802 4.49057 10.1948 4.30516C10.0094 4.11975 9.7586 4.01458 9.4964 4.01231C9.2342 4.01003 8.9816 4.11082 8.793 4.29298L6.793 6.29298C6.6065 6.48102 6.50186 6.73514 6.50186 6.99998C6.50186 7.26482 6.6065 7.51894 6.793 7.70698ZM8.64 15.772C9.19122 15.1431 9.49664 14.3362 9.5 13.5C9.5 12.5717 9.13125 11.6815 8.47487 11.0251C7.8185 10.3687 6.92826 9.99998 6 9.99998C5.07174 9.99998 4.1815 10.3687 3.52513 11.0251C2.86875 11.6815 2.5 12.5717 2.5 13.5C2.50336 14.3362 2.80878 15.1431 3.36 15.772C2.63996 16.2183 2.04546 16.8407 1.63256 17.5804C1.21966 18.3201 1.00196 19.1528 1 20C1 20.2652 1.10536 20.5196 1.29289 20.7071C1.48043 20.8946 1.73478 21 2 21C2.26522 21 2.51957 20.8946 2.70711 20.7071C2.89464 20.5196 3 20.2652 3 20C3 19.2043 3.31607 18.4413 3.87868 17.8787C4.44129 17.3161 5.20435 17 6 17C6.79565 17 7.55871 17.3161 8.12132 17.8787C8.68393 18.4413 9 19.2043 9 20C9 20.2652 9.10536 20.5196 9.29289 20.7071C9.48043 20.8946 9.73478 21 10 21C10.2652 21 10.5196 20.8946 10.7071 20.7071C10.8946 20.5196 11 20.2652 11 20C10.998 19.1528 10.7803 18.3201 10.3674 17.5804C9.95454 16.8407 9.36004 16.2183 8.64 15.772ZM6 15C5.70333 15 5.41332 14.912 5.16664 14.7472C4.91997 14.5824 4.72771 14.3481 4.61418 14.074C4.50065 13.7999 4.47094 13.4983 4.52882 13.2073C4.5867 12.9164 4.72956 12.6491 4.93934 12.4393C5.14912 12.2295 5.41639 12.0867 5.70736 12.0288C5.99834 11.9709 6.29994 12.0006 6.57403 12.1142C6.84811 12.2277 7.08238 12.42 7.2472 12.6666C7.41203 12.9133 7.5 13.2033 7.5 13.5C7.49947 13.8976 7.34127 14.2789 7.06008 14.5601C6.77889 14.8412 6.39766 14.9995 6 15Z" fill="currentColor"/>
</svg>
