<svg width="24" height="24" viewBox="0 0 24 24" fill="none" xmlns="http://www.w3.org/2000/svg">
    <path
        d="M7.41795 15.5189C7.23169 15.7063 7.12715 15.9597 7.12715 16.2239C7.12715 16.4881 7.23169 16.7415 7.41795 16.9289C7.51091 17.0226 7.62151 17.097 7.74337 17.1478C7.86523 17.1986 7.99593 17.2247 8.12795 17.2247C8.25996 17.2247 8.39066 17.1986 8.51252 17.1478C8.63438 17.097 8.74498 17.0226 8.83795 16.9289C9.0242 16.7415 9.12874 16.4881 9.12874 16.2239C9.12874 15.9597 9.0242 15.7063 8.83795 15.5189C8.74498 15.4252 8.63438 15.3508 8.51252 15.3C8.39066 15.2492 8.25996 15.2231 8.12795 15.2231C7.99593 15.2231 7.86523 15.2492 7.74337 15.3C7.62151 15.3508 7.51091 15.4252 7.41795 15.5189ZM7.41795 7.0289C7.23169 7.21626 7.12715 7.46971 7.12715 7.7339C7.12715 7.99808 7.23169 8.25154 7.41795 8.4389C7.51091 8.53263 7.62151 8.60702 7.74337 8.65779C7.86523 8.70856 7.99593 8.7347 8.12795 8.7347C8.25996 8.7347 8.39066 8.70856 8.51252 8.65779C8.63438 8.60702 8.74498 8.53263 8.83795 8.4389C9.0242 8.25154 9.12874 7.99808 9.12874 7.7339C9.12874 7.46971 9.0242 7.21626 8.83795 7.0289C8.74498 6.93517 8.63438 6.86078 8.51252 6.81001C8.39066 6.75924 8.25996 6.7331 8.12795 6.7331C7.99593 6.7331 7.86523 6.75924 7.74337 6.81001C7.62151 6.86078 7.51091 6.93517 7.41795 7.0289ZM12.3679 17.0289C12.1702 17.0289 11.9768 17.0875 11.8124 17.1974C11.6479 17.3073 11.5198 17.4635 11.4441 17.6462C11.3684 17.8289 11.3486 18.03 11.3872 18.224C11.4257 18.418 11.521 18.5962 11.6608 18.736C11.8007 18.8759 11.9789 18.9711 12.1729 19.0097C12.3668 19.0483 12.5679 19.0285 12.7506 18.9528C12.9334 18.8771 13.0895 18.7489 13.1994 18.5845C13.3093 18.42 13.3679 18.2267 13.3679 18.0289C13.3747 17.8934 13.3539 17.758 13.3067 17.6308C13.2595 17.5037 13.1869 17.3875 13.0933 17.2892C12.9998 17.191 12.8872 17.1129 12.7625 17.0595C12.6378 17.0062 12.5036 16.9787 12.3679 16.9789V17.0289ZM6.36795 11.0289C6.17016 11.0289 5.97682 11.0875 5.81238 11.1974C5.64793 11.3073 5.51975 11.4635 5.44407 11.6462C5.36838 11.8289 5.34857 12.03 5.38716 12.224C5.42575 12.418 5.52099 12.5962 5.66084 12.736C5.80069 12.8759 5.97887 12.9711 6.17285 13.0097C6.36684 13.0483 6.5679 13.0285 6.75063 12.9528C6.93335 12.8771 7.08953 12.7489 7.19941 12.5845C7.3093 12.42 7.36795 12.2267 7.36795 12.0289C7.37473 11.8934 7.35388 11.758 7.30667 11.6308C7.25946 11.5037 7.18688 11.3875 7.09333 11.2892C6.99979 11.191 6.88724 11.1129 6.76254 11.0595C6.63784 11.0062 6.50358 10.9787 6.36795 10.9789V11.0289ZM12.3679 5.0289C12.1702 5.0289 11.9768 5.08755 11.8124 5.19743C11.6479 5.30731 11.5198 5.46349 11.4441 5.64621C11.3684 5.82894 11.3486 6.03001 11.3872 6.22399C11.4257 6.41797 11.521 6.59615 11.6608 6.73601C11.8007 6.87586 11.9789 6.9711 12.1729 7.00968C12.3668 7.04827 12.5679 7.02847 12.7506 6.95278C12.9334 6.87709 13.0895 6.74892 13.1994 6.58447C13.3093 6.42002 13.3679 6.22668 13.3679 6.0289C13.3747 5.89343 13.3539 5.758 13.3067 5.63084C13.2595 5.50369 13.1869 5.38746 13.0933 5.28924C12.9998 5.19102 12.8872 5.11286 12.7625 5.05951C12.6378 5.00615 12.5036 4.97873 12.3679 4.9789V5.0289ZM15.9079 7.0789C15.7675 7.21851 15.6717 7.39668 15.6326 7.59083C15.5935 7.78497 15.613 7.98634 15.6885 8.16941C15.764 8.35249 15.8922 8.50902 16.0568 8.61916C16.2213 8.72931 16.4149 8.78811 16.6129 8.78811C16.811 8.78811 17.0046 8.72931 17.1691 8.61916C17.3337 8.50902 17.4619 8.35249 17.5374 8.16941C17.6129 7.98634 17.6324 7.78497 17.5933 7.59083C17.5542 7.39668 17.4584 7.21851 17.3179 7.0789C17.1373 6.88585 16.8875 6.77222 16.6233 6.76285C16.359 6.75348 16.1018 6.84914 15.9079 7.0289V7.0789ZM22.2079 7.0789C21.2937 5.2512 19.8884 3.71432 18.1495 2.6406C16.4107 1.56688 14.4072 0.998781 12.3635 1C10.3199 1.00122 8.31706 1.57172 6.57953 2.64751C4.84199 3.72331 3.4385 5.26187 2.52643 7.09066C1.61435 8.91945 1.22977 10.9662 1.41579 13.0013C1.60181 15.0364 2.3511 16.9795 3.57961 18.6126C4.80813 20.2458 6.4673 21.5044 8.37108 22.2473C10.2749 22.9903 12.348 23.1882 14.3579 22.8189C14.8634 22.7238 15.3448 22.5289 15.7741 22.2456C16.2033 21.9623 16.5718 21.5963 16.8579 21.1689C17.1663 20.7043 17.379 20.1829 17.4838 19.6352C17.5885 19.0876 17.5831 18.5245 17.4679 17.9789C17.405 17.6492 17.3715 17.3145 17.3679 16.9789C17.3723 16.0099 17.6582 15.063 18.1908 14.2534C18.7234 13.4439 19.4798 12.8065 20.3679 12.4189C20.8468 12.2045 21.2767 11.8942 21.631 11.5072C21.9853 11.1203 22.2565 10.6648 22.4279 10.1689C22.6013 9.66218 22.6712 9.12581 22.6334 8.59158C22.5956 8.05736 22.4509 7.53616 22.2079 7.0589V7.0789ZM20.5079 9.5189C20.4226 9.75822 20.2901 9.97799 20.1184 10.1652C19.9466 10.3524 19.739 10.5033 19.5079 10.6089C18.2779 11.1595 17.233 12.0534 16.4986 13.1834C15.7642 14.3134 15.3716 15.6313 15.3679 16.9789C15.3694 17.449 15.4163 17.9178 15.5079 18.3789C15.569 18.6607 15.5731 18.9519 15.5198 19.2353C15.4666 19.5186 15.3571 19.7885 15.1979 20.0289C15.0633 20.2393 14.886 20.4192 14.6776 20.557C14.4692 20.6947 14.2343 20.7874 13.9879 20.8289C13.4538 20.9293 12.9114 20.9795 12.3679 20.9789C11.1621 20.9795 9.96846 20.7377 8.85787 20.268C7.74728 19.7983 6.7424 19.1103 5.90291 18.2446C5.06341 17.379 4.40643 16.3536 3.97096 15.2291C3.53549 14.1046 3.33043 12.9041 3.36795 11.6989C3.44556 9.45169 4.35695 7.31385 5.92458 5.70186C7.4922 4.08987 9.60378 3.11918 11.8479 2.9789H12.3579C14.0337 2.97932 15.6761 3.44759 17.1001 4.33096C18.5241 5.21434 19.6732 6.47775 20.4179 7.9789C20.6472 8.45388 20.6795 9.00018 20.5079 9.4989V9.5189ZM12.3679 10.9789C12.1702 10.9789 11.9768 11.0375 11.8124 11.1474C11.6479 11.2573 11.5198 11.4135 11.4441 11.5962C11.3684 11.7789 11.3486 11.98 11.3872 12.174C11.4257 12.368 11.521 12.5462 11.6608 12.686C11.8007 12.8259 11.9789 12.9211 12.1729 12.9597C12.3668 12.9983 12.5679 12.9785 12.7506 12.9028C12.9334 12.8271 13.0895 12.6989 13.1994 12.5345C13.3093 12.37 13.3679 12.1767 13.3679 11.9789C13.3679 11.7137 13.2626 11.4593 13.0751 11.2718C12.8875 11.0843 12.6332 10.9789 12.3679 10.9789Z"
        fill="currentColor" />
</svg>