<svg width="18" height="18" viewBox="0 0 18 18" fill="none" xmlns="http://www.w3.org/2000/svg">
    <path
        d="M1.93506 9.99029C1.93506 8.5401 2.37529 7.18691 3.12451 6.06305C3.29683 5.80456 3.64606 5.73472 3.90454 5.90704C4.16301 6.07937 4.23287 6.42859 4.06055 6.68707C3.42982 7.63319 3.06006 8.77054 3.06006 9.99029C3.06022 13.272 5.71829 15.9302 9 15.9302C12.2817 15.9302 14.9398 13.272 14.9399 9.99029C14.9399 6.70846 12.2818 4.05035 9 4.05035C8.36846 4.05036 7.78719 4.13664 7.25024 4.27667L8.76196 5.38043C9.01288 5.5636 9.06744 5.91614 8.88428 6.16705C8.70106 6.41777 8.34923 6.47248 8.09839 6.28937L5.5708 4.4444C5.44368 4.35158 5.36144 4.20968 5.34375 4.05328C5.32614 3.89672 5.37507 3.73926 5.47852 3.62042L7.64575 1.13092C7.84972 0.8966 8.20538 0.872017 8.4397 1.07599C8.67366 1.27992 8.69827 1.63497 8.49463 1.8692L7.43994 3.07989C7.92664 2.98285 8.44613 2.92536 9 2.92535C12.9032 2.92535 16.0649 6.08713 16.0649 9.99029C16.0648 13.8933 12.9031 17.0552 9 17.0552C5.09697 17.0552 1.93522 13.8933 1.93506 9.99029Z"
        fill="currentColor" />
</svg>