<svg width="18" height="20" viewBox="0 0 18 20" fill="none" xmlns="http://www.w3.org/2000/svg">
<path d="M8.17158 7.53557C7.78106 7.92609 7.78106 8.55926 8.17158 8.94978L9.5858 10.364C9.97632 10.7545 10.6095 10.7545 11 10.364L13.8284 7.53557C14.219 7.14504 14.219 6.51188 13.8284 6.12136C13.4379 5.73083 12.8047 5.73083 12.4142 6.12136L10.2929 8.24268L9.5858 7.53557C9.19527 7.14504 8.56211 7.14504 8.17158 7.53557Z" fill="black"/>
<path fill-rule="evenodd" clip-rule="evenodd" d="M7 0C5.34315 0 4 1.34315 4 3V13C4 14.6569 5.34315 16 7 16H15C16.6569 16 18 14.6569 18 13V3C18 1.34315 16.6569 0 15 0H7ZM15 2H7C6.44772 2 6 2.44772 6 3V13C6 13.5523 6.44772 14 7 14H15C15.5523 14 16 13.5523 16 13V3C16 2.44772 15.5523 2 15 2Z" fill="black"/>
<path d="M5 18H13C13.2652 18 13.5196 18.1054 13.7071 18.2929C13.8946 18.4804 14 18.7348 14 19C14 19.2652 13.8946 19.5196 13.7071 19.7071C13.5196 19.8946 13.2652 20 13 20H5C3.67392 20 2.40215 19.4732 1.46447 18.5355C0.526784 17.5979 0 16.3261 0 15V5C0 4.73478 0.105357 4.48043 0.292893 4.29289C0.48043 4.10536 0.734784 4 1 4C1.26522 4 1.51957 4.10536 1.70711 4.29289C1.89464 4.48043 2 4.73478 2 5V15C2 15.7956 2.31607 16.5587 2.87868 17.1213C3.44129 17.6839 4.20435 18 5 18Z" fill="black"/>
</svg>
