<svg width="18" height="18" viewBox="0 0 18 18" fill="none" xmlns="http://www.w3.org/2000/svg">
    <path
        d="M11.4302 0.9375C12.2174 0.937522 12.8743 1.11471 13.3799 1.448C13.8905 1.78465 14.216 2.2613 14.3591 2.79419C14.6408 3.84285 14.2078 5.02836 13.3227 5.83081L9.83642 9L13.3235 12.1685H13.3227C14.208 12.9709 14.6408 14.157 14.3591 15.2058C14.216 15.7387 13.8905 16.2153 13.3799 16.552C12.8742 16.8853 12.2174 17.0625 11.4302 17.0625H6.56982C5.78254 17.0625 5.12572 16.8853 4.62011 16.552C4.10949 16.2153 3.784 15.7387 3.64086 15.2058C3.35924 14.1572 3.79154 12.9709 4.6765 12.1685L8.16283 9L4.6765 5.83154V5.83081C3.79179 5.02837 3.35928 3.84267 3.64086 2.79419C3.784 2.2613 4.10949 1.78465 4.62011 1.448C5.12572 1.1147 5.78254 0.937531 6.56982 0.9375H11.4302ZM5.4331 13.0012V13.002C4.79594 13.5795 4.57564 14.3507 4.72704 14.9143C4.80048 15.1876 4.96334 15.4313 5.239 15.613C5.51962 15.798 5.94742 15.9375 6.56982 15.9375H11.4302C12.0526 15.9375 12.4804 15.798 12.761 15.613C13.0366 15.4313 13.1995 15.1876 13.2729 14.9143C13.4243 14.3508 13.2046 13.5794 12.5676 13.002L12.5669 13.0012L8.99999 9.75952L5.4331 13.0012ZM6.56982 2.0625C5.94742 2.06253 5.51962 2.20197 5.239 2.38696C4.96334 2.56871 4.80048 2.81239 4.72704 3.08569C4.58512 3.61404 4.76968 4.32483 5.31811 4.88745L5.4331 4.99805V4.99878L8.99999 8.23975L12.5669 4.99878L12.5676 4.99805C13.2046 4.42055 13.4243 3.64925 13.2729 3.08569C13.1995 2.8124 13.0366 2.56871 12.761 2.38696C12.4804 2.20197 12.0526 2.06252 11.4302 2.0625H6.56982Z"
        fill="currentColor" />
</svg>