<svg width="18" height="18" viewBox="0 0 18 18" fill="none" xmlns="http://www.w3.org/2000/svg">
    <path
        d="M14.1738 6.2937C14.4838 6.3138 14.719 6.5814 14.699 6.89136L14.2112 14.4434V14.447C14.1912 14.7329 14.1692 15.0486 14.1101 15.342C14.0498 15.6414 13.9438 15.9575 13.7285 16.2378C13.2777 16.8248 12.5104 17.0625 11.4075 17.0625H6.59254C5.48964 17.0625 4.72238 16.8248 4.2715 16.2378C4.05617 15.9574 3.94947 15.6414 3.88917 15.342C3.8301 15.0486 3.80886 14.7328 3.78883 14.447V14.4434L3.30104 6.89136C3.28103 6.58135 3.51618 6.31373 3.82619 6.2937C4.1362 6.27369 4.40383 6.50883 4.42384 6.81885L4.91163 14.3708H4.9109C4.93203 14.6724 4.9502 14.9116 4.9922 15.1201C5.03313 15.3233 5.09024 15.4567 5.16359 15.5522C5.29021 15.7171 5.60297 15.9375 6.59254 15.9375H11.4075C12.397 15.9375 12.7098 15.7171 12.8364 15.5522C12.9098 15.4567 12.9669 15.3233 13.0078 15.1201C13.0498 14.9116 13.0673 14.6723 13.0884 14.3708L13.5762 6.81885C13.5962 6.50883 13.8638 6.27369 14.1738 6.2937ZM10.2451 11.8125C10.5558 11.8125 10.8076 12.0644 10.8076 12.375C10.8076 12.6856 10.5558 12.9375 10.2451 12.9375H7.74757C7.43691 12.9375 7.18507 12.6857 7.18507 12.375C7.18507 12.0643 7.43691 11.8125 7.74757 11.8125H10.2451ZM10.875 8.8125C11.1857 8.8125 11.4375 9.06434 11.4375 9.375C11.4375 9.68566 11.1857 9.9375 10.875 9.9375H7.12501C6.81435 9.9375 6.56251 9.68566 6.56251 9.375C6.56251 9.06434 6.81435 8.8125 7.12501 8.8125H10.875ZM9.98219 0.9375C10.6833 0.9375 11.2254 1.09151 11.5789 1.49854C11.8986 1.86699 11.965 2.35325 12.0147 2.65869L12.1795 3.63354C12.1805 3.63956 12.1801 3.64586 12.1809 3.65186C13.391 3.71498 14.6003 3.80559 15.8057 3.92505C16.1147 3.95577 16.3401 4.23126 16.3096 4.54028C16.2789 4.84943 16.0035 5.07556 15.6943 5.04492C13.2149 4.79922 10.7212 4.67286 8.23537 4.67285C6.76934 4.67285 5.30275 4.74666 3.83644 4.89478H3.83497L2.30495 5.04492C1.99577 5.07523 1.72075 4.84873 1.69044 4.53955C1.6603 4.2305 1.88602 3.95537 2.19508 3.92505L3.72511 3.7749C4.42452 3.70428 5.12402 3.6508 5.8235 3.61304L5.98536 2.6521V2.65137C6.03777 2.34018 6.10364 1.84908 6.42628 1.48315C6.78183 1.07997 7.32491 0.9375 8.01784 0.9375H9.98219ZM8.01784 2.0625C7.44326 2.0625 7.30636 2.1861 7.27003 2.22729C7.20101 2.30565 7.1625 2.43729 7.09498 2.83813L6.97194 3.56543C7.39295 3.55352 7.81433 3.54785 8.23537 3.54785C9.16717 3.54786 10.0999 3.56522 11.0325 3.59985L10.905 2.84619V2.84326C10.8423 2.4585 10.8021 2.32006 10.7293 2.23608C10.6887 2.18947 10.5476 2.0625 9.98219 2.0625H8.01784Z"
        fill="currentColor" />
</svg>