<svg width="24" height="24" viewBox="0 0 24 24" fill="none" xmlns="http://www.w3.org/2000/svg">
    <path
        d="M21.25 12C21.25 6.89137 17.1086 2.75 12 2.75C6.89137 2.75 2.75 6.89137 2.75 12C2.75 17.1086 6.89137 21.25 12 21.25C17.1086 21.25 21.25 17.1086 21.25 12ZM11.25 17V7C11.25 6.58579 11.5858 6.25 12 6.25C12.4142 6.25 12.75 6.58579 12.75 7V17C12.75 17.4142 12.4142 17.75 12 17.75C11.5858 17.75 11.25 17.4142 11.25 17ZM8.25 15.5703V8.42969C8.25013 8.01559 8.58587 7.67969 9 7.67969C9.41413 7.67969 9.74987 8.01559 9.75 8.42969V15.5703C9.7498 15.9844 9.41409 16.3203 9 16.3203C8.58591 16.3203 8.2502 15.9844 8.25 15.5703ZM14.25 15.5703V8.42969C14.2501 8.01559 14.5859 7.67969 15 7.67969C15.4141 7.67969 15.7499 8.01559 15.75 8.42969V15.5703C15.7498 15.9844 15.4141 16.3203 15 16.3203C14.5859 16.3203 14.2502 15.9844 14.25 15.5703ZM5.25 14.1504V9.86035C5.25 9.44614 5.58579 9.11035 6 9.11035C6.41421 9.11035 6.75 9.44614 6.75 9.86035V14.1504C6.74974 14.5644 6.41405 14.9004 6 14.9004C5.58595 14.9004 5.25026 14.5644 5.25 14.1504ZM17.25 14.1504V9.86035C17.25 9.44614 17.5858 9.11035 18 9.11035C18.4142 9.11035 18.75 9.44614 18.75 9.86035V14.1504C18.7497 14.5644 18.4141 14.9004 18 14.9004C17.5859 14.9004 17.2503 14.5644 17.25 14.1504ZM22.75 12C22.75 17.9371 17.9371 22.75 12 22.75C6.06294 22.75 1.25 17.9371 1.25 12C1.25 6.06294 6.06294 1.25 12 1.25C17.9371 1.25 22.75 6.06294 22.75 12Z"
        fill="currentColor" />
</svg>