<svg width="24" height="24" viewBox="0 0 24 24" fill="none" xmlns="http://www.w3.org/2000/svg">
    <path
        d="M14.25 7.41033C14.25 6.07142 13.7902 5.3641 13.2871 5.08611C12.7836 4.80808 11.9404 4.79551 10.8086 5.50506L7.88867 7.33514L7.87305 7.3449C7.44747 7.59759 6.94594 7.75018 6.42969 7.75018H5C4.11561 7.75018 3.59001 7.97071 3.28027 8.28045C2.97059 8.5902 2.75 9.11589 2.75 10.0002V14.0002C2.75004 14.8844 2.97056 15.4102 3.28027 15.7199C3.59003 16.0296 4.11571 16.2502 5 16.2502H6.42969C6.88151 16.2502 7.32183 16.3671 7.70996 16.5656L7.87305 16.6554L7.88086 16.6594L7.88867 16.6642L10.8086 18.4943C11.9393 19.2032 12.782 19.1894 13.2861 18.9103C13.7905 18.6309 14.25 17.9229 14.25 16.59V7.41033ZM19.3799 4.90057C19.7111 4.6519 20.181 4.71871 20.4297 5.04998C23.5198 9.16674 23.5199 14.8337 20.4297 18.9504C20.181 19.2815 19.7111 19.3483 19.3799 19.0998C19.0486 18.8511 18.9818 18.3812 19.2305 18.05C21.9202 14.4668 21.92 9.53358 19.2305 5.95037C18.9818 5.61914 19.0487 5.14925 19.3799 4.90057ZM17.5498 7.40057C17.881 7.15182 18.3509 7.21878 18.5996 7.54998C20.5798 10.1868 20.58 13.8136 18.5996 16.4504C18.3509 16.7814 17.881 16.8483 17.5498 16.5998C17.2187 16.3511 17.1519 15.8812 17.4004 15.55C18.98 13.4468 18.9799 10.5535 17.4004 8.45037C17.1516 8.11918 17.2186 7.64932 17.5498 7.40057ZM15.75 16.59C15.75 18.2269 15.174 19.5788 14.0137 20.2219C12.9252 20.8249 11.5808 20.6616 10.2725 19.9211L10.0117 19.7658L7.09863 17.9396C6.88642 17.8156 6.65046 17.7502 6.42969 17.7502H5C3.88445 17.7502 2.90998 17.4706 2.21973 16.7804C1.52951 16.0902 1.25004 15.1157 1.25 14.0002V10.0002C1.25 8.88462 1.52954 7.91016 2.21973 7.2199C2.90999 6.52964 3.88439 6.25018 5 6.25018H6.42969C6.65343 6.25018 6.893 6.18218 7.10742 6.05486L10.0117 4.23455L10.2725 4.07928C11.5798 3.339 12.9237 3.1719 14.0127 3.77361C15.1746 4.41563 15.75 5.76926 15.75 7.41033V16.59Z"
        fill="currentColor" />
</svg>