<svg width="24" height="24" viewBox="0 0 24 24" fill="none" xmlns="http://www.w3.org/2000/svg">
    <path
        d="M14.1152 17.9566C15.8921 16.895 18.1079 16.895 19.8848 17.9566H19.8857L22.3857 19.4566C22.7409 19.6697 22.8565 20.1307 22.6435 20.4859C22.4304 20.8411 21.9694 20.9558 21.6143 20.7427L19.1152 19.2427V19.2437C17.8122 18.4653 16.1878 18.4653 14.8848 19.2437C13.1079 20.3052 10.8921 20.3052 9.11523 19.2437C7.8122 18.4653 6.18779 18.4653 4.88476 19.2437L4.88378 19.2427L2.38574 20.7427C2.03055 20.9558 1.56955 20.8411 1.35644 20.4859C1.14345 20.1307 1.25912 19.6697 1.61425 19.4566L4.11425 17.9566L4.11523 17.9556C5.89211 16.8941 8.1079 16.8951 9.88476 17.9566C11.1877 18.7348 12.8123 18.7348 14.1152 17.9566ZM14.1152 10.9566C15.8921 9.89504 18.1079 9.89504 19.8848 10.9566H19.8857L22.3857 12.4566C22.7409 12.6697 22.8565 13.1307 22.6435 13.4859C22.4304 13.8411 21.9694 13.9558 21.6143 13.7427L19.1152 12.2427V12.2437C17.8122 11.4653 16.1878 11.4653 14.8848 12.2437C13.1079 13.3052 10.8921 13.3052 9.11523 12.2437C7.8122 11.4653 6.18779 11.4653 4.88476 12.2437L4.88378 12.2427L2.38574 13.7427C2.03055 13.9558 1.56955 13.8411 1.35644 13.4859C1.14345 13.1307 1.25912 12.6697 1.61425 12.4566L4.11425 10.9566H4.11523C5.89213 9.89504 8.10786 9.89504 9.88476 10.9566C11.1877 11.7348 12.8123 11.7348 14.1152 10.9566ZM21.6143 3.25637C21.9694 3.0435 22.4305 3.1591 22.6435 3.51419C22.8564 3.86933 22.7408 4.33043 22.3857 4.54348L19.8857 6.04348H19.8848C18.1079 7.10501 15.8921 7.10501 14.1152 6.04348C12.8122 5.26519 11.1877 5.26519 9.88476 6.04348C8.10786 7.10501 5.89213 7.10501 4.11523 6.04348H4.11425L1.61425 4.54348C1.25916 4.33043 1.14356 3.86933 1.35644 3.51419C1.56949 3.1591 2.03059 3.0435 2.38574 3.25637L4.88574 4.75637H4.88476C6.18775 5.53467 7.81224 5.53467 9.11523 4.75637C10.8921 3.69485 13.1079 3.69485 14.8848 4.75637C16.1875 5.53453 17.8114 5.53424 19.1143 4.75637L21.6143 3.25637Z"
        fill="currentColor" />
</svg>