<svg width="24" height="24" viewBox="0 0 24 24" fill="none" xmlns="http://www.w3.org/2000/svg">
<g clip-path="url(#clip0_2_1520)">
<path d="M12 23C5.9 23 1 18.1 1 12C1 5.9 5.9 1 12 1C18.1 1 23 5.9 23 12C23 18.1 18.1 23 12 23ZM16.9 13C16.7 15.8 15.7 18.4 14.2 20.7C17.8 19.8 20.5 16.7 20.9 13H16.9ZM3.1 13C3.5 16.7 6.2 19.8 9.8 20.7C8.2 18.4 7.3 15.8 7 13H3.1ZM9.1 13C9.3 15.7 10.4 18.3 12 20.4C13.7 18.2 14.7 15.7 14.9 13H9.1ZM17 11H21C20.6 7.3 17.9 4.2 14.3 3.3C15.8 5.6 16.7 8.2 17 11ZM9.1 11H15C14.8 8.3 13.7 5.7 12.1 3.6C10.3 5.7 9.3 8.3 9.1 11ZM3.1 11H7.1C7.3 8.2 8.3 5.6 9.8 3.3C6.2 4.2 3.5 7.3 3.1 11Z" fill="#090A0B"/>
</g>
<defs>
<clipPath id="clip0_2_1520">
<rect width="24" height="24" fill="white"/>
</clipPath>
</defs>
</svg>
